<svg width="105" height="160" viewBox="0 0 105 160" fill="none" xmlns="http://www.w3.org/2000/svg">
<rect width="105" height="160" rx="5.0392" fill="#B30000"/>
<path d="M38.2249 70.8092C36.5787 72.0365 32.944 71.4307 30.9531 71.4307C30.1429 71.4307 29.0626 71.5913 28.4289 70.9243C27.6551 70.1099 28.2842 66.9774 28.2204 65.8367C28.1584 64.727 26.6781 63.5451 25.8467 62.9361C24.8289 62.1907 24.3823 60.9162 23.8898 59.8283C23.3992 58.7446 23.504 57.2544 23.3224 56.099C22.9884 53.9739 23.2182 51.6851 23.2182 49.5381C23.2182 45.3754 24.3702 41.1096 26.2288 37.3601C27.7704 34.2502 29.7414 31.185 32.8521 29.418C41.3113 24.613 52.6907 24.5876 61.9856 26.3102C66.328 27.115 69.9166 29.1905 73.7269 31.3057C75.4718 32.2743 77.0083 33.8435 78.2544 35.3919C79.2861 36.6738 80.4526 37.6489 80.9061 39.3169C82.3519 44.6345 82.8791 51.6469 80.3271 56.7205C79.4018 58.56 78.2805 60.0786 77.0386 61.693C76.0007 63.0421 74.4932 64.1886 75.2785 65.8367C76.201 67.7725 75.7674 68.7166 73.6111 69.1977C71.3634 69.6993 68.8076 70.3948 66.5709 70.3948" stroke="black" stroke-width="3" stroke-linecap="round"/>
<path d="M38.4336 71.0171C40.52 71.2475 40.5179 73.3023 40.5179 74.9306C40.5179 75.9742 40.5179 77.0178 40.5179 78.0614C40.5179 78.7705 40.3429 79.4347 40.3094 80.1333C40.29 80.5383 40.5179 80.8742 40.5179 81.2728C40.5179 83.0226 44.1074 82.0254 45.1032 81.9979C46.4894 81.9597 47.8569 81.5836 49.2718 81.5836C50.9986 81.5836 53.2578 81.5189 54.8993 81.0656C58.0157 80.2051 61.2635 80.7361 64.4869 80.5476C65.9766 80.4605 66.1543 72.6278 66.1543 71.2243" stroke="black" stroke-width="3" stroke-linecap="round"/>
<path d="M40.7261 82.2046C41.0072 83.6719 41.4922 85.3303 41.5598 86.8087C41.5766 87.1768 41.8343 88.8456 42.0808 89.0417C43.3579 90.0573 45.4353 89.132 46.9789 89.0417C48.3796 88.9598 48.0923 86.6548 48.241 85.8419C48.4466 84.7178 48.6463 83.7953 48.6463 82.619" stroke="black" stroke-width="3" stroke-linecap="round"/>
<path d="M48.6465 90.6995C50.6531 90.6995 52.6553 90.4923 54.6793 90.4923C55.738 90.4923 55.5246 88.3488 55.5246 87.5802C55.5246 85.2327 55.733 82.9074 55.733 80.5474" stroke="black" stroke-width="3" stroke-linecap="round"/>
<path d="M55.7329 80.5474V80.7545" stroke="black" stroke-width="3" stroke-linecap="round"/>
<path d="M54.8989 91.3208C55.8365 91.2542 58.0061 91.0291 58.8127 90.446C59.5806 89.8908 59.5716 89.1584 59.7854 88.2475C60.0277 87.2151 60.2147 86.2314 60.5264 85.2088C60.8924 84.0083 60.5512 82.7523 60.9433 81.583" stroke="black" stroke-width="3" stroke-linecap="round"/>
<path d="M59.9014 90.2848C60.8255 90.2848 65.7373 90.0028 65.7373 88.8345C65.7373 86.6561 65.1869 84.3932 65.7373 82.2046" stroke="black" stroke-width="3" stroke-linecap="round"/>
<path d="M46.1453 53.6133C43.6695 56.1513 40.5032 57.2768 37.0903 58.0103C35.2165 58.413 33.4227 58.3387 32.5049 56.5139C32.0294 55.5687 31.9723 54.2825 31.9723 53.245C31.9723 51.6859 31.6977 49.8385 32.1807 48.3416C32.5241 47.2773 32.7772 46.2062 33.327 45.2223C33.9301 44.1432 35.059 43.2935 35.9324 42.4253C37.4961 40.8709 39.7153 40.0438 41.9767 40.3649C43.1647 40.5336 45.0066 42.052 45.1031 43.3001C45.3507 46.4998 45.1031 49.5886 45.1031 52.7846" stroke="black" stroke-width="3" stroke-linecap="round"/>
<path d="M55.941 54.2345C55.2091 53.4161 55.3448 51.7529 55.3157 50.7123C55.2767 49.3168 55.1072 47.9347 55.1072 46.5226C55.1072 44.7937 54.9138 42.2228 55.941 40.7214C57.3419 38.6734 61.5549 39.3171 63.6991 39.3171C64.7754 39.3171 66.0434 39.4326 66.9876 39.9847C67.7304 40.4191 67.7217 41.736 67.8676 42.4249C68.4617 45.2302 68.4671 48.5971 67.6128 51.3569C67.2017 52.6851 66.8498 53.7924 65.5286 54.4877C63.955 55.3158 61.8572 54.9044 60.2021 54.8561C59.6661 54.8404 57.7961 54.9158 57.4463 54.6028C57.1965 54.3794 57.3626 54.3561 56.9831 54.1885C56.7134 54.0693 56.4779 54.0589 56.3578 53.8201" stroke="black" stroke-width="3" stroke-linecap="round"/>
<path d="M49.4804 58.5856C48.611 59.2337 47.3908 59.4262 46.9329 60.4503C46.7573 60.8432 45.8035 62.7422 46.4698 63.1207C46.9672 63.4032 48.0049 63.7307 48.5425 63.443C49.0884 63.1508 49.7779 62.7348 50.2214 62.315C50.2756 62.2637 50.9182 61.35 50.9394 61.3711C51.2508 61.6807 51.0083 62.6971 51.8194 62.7293C52.5256 62.7574 53.3829 62.6473 53.9615 62.1998C55.4297 61.0648 51.41 59.1604 51.1478 58.3784" stroke="black" stroke-width="3" stroke-linecap="round"/>
<path d="M33.4311 71.4312C33.1164 71.7092 32.5119 72.0951 32.1342 72.2599C30.9851 72.7614 30.1764 73.8728 29.2278 74.6771C27.6169 76.0429 26.1998 77.9499 24.4688 79.097" stroke="black" stroke-width="3" stroke-linecap="round"/>
<path d="M39.6841 80.1328C39.6415 80.8099 38.4977 81.6399 38.1209 82.2162C37.2087 83.6112 36.2427 84.9401 35.2608 86.2793C34.6454 87.1187 33.9282 88.1908 33.1187 88.8346C33.0418 88.8957 32.4326 89.9483 32.3892 90.0777" stroke="black" stroke-width="3" stroke-linecap="round"/>
<path d="M66.7793 77.6465C67.3836 77.7666 67.9239 78.5908 68.3425 78.9817C69.0924 79.682 69.8305 80.4561 70.6468 81.0766C71.3326 81.5979 71.9636 82.2281 72.6268 82.7225C73.1549 83.1162 74.3709 85.1052 74.9079 85.1052" stroke="black" stroke-width="3" stroke-linecap="round"/>
<path d="M74.6997 68.7373C77.7662 72.0904 79.8217 76.434 81.7862 80.3397" stroke="black" stroke-width="3" stroke-linecap="round"/>
<path d="M23.4266 78.6827C21.7076 78.4929 20.2457 77.3986 18.4706 77.4396C16.2428 77.4911 13.2833 77.8962 11.222 78.7978C9.37301 79.6065 8.21754 80.2359 7.33139 81.9977C6.6421 83.3681 6.52182 85.5089 6.764 87.0738C7.08569 89.1523 7.68448 90.0304 9.41565 91.1139C10.0992 91.5417 11.1013 91.502 11.8473 91.839C12.1635 91.9819 13.0234 92.017 13.2137 92.2534C13.7965 92.9776 15.4515 92.6075 14.3716 93.8073C13.4702 94.8087 13.1427 96.3379 13.0168 97.6518C12.858 99.3093 13.1187 100.799 13.4105 102.394C13.5829 103.337 14.7837 103.921 15.5527 104.374C16.95 105.197 19.1536 104.995 20.7054 104.995C22.3712 104.995 23.9684 104.942 25.615 104.8C27.5372 104.634 30.0419 104.313 31.4394 102.923C32.5999 101.77 34.2316 100.871 34.9827 99.3783C35.538 98.2741 35.9322 96.5835 35.9322 95.3036C35.9322 94.3621 35.902 93.517 35.7122 92.6678C35.5099 91.7632 34.7479 91.0055 34.2647 90.2851" stroke="black" stroke-width="3" stroke-linecap="round"/>
<path d="M75.3248 85.727C74.4574 89.0801 74.7359 93.1834 74.9195 96.6503C75.0251 98.645 76.4429 103.818 78.9838 104.155C80.8116 104.397 82.3295 104.289 83.9513 103.246C84.463 102.917 85.222 102.302 85.8619 102.302C88.1951 102.302 90.2252 100.774 92.3347 100.011C93.2467 99.6817 94.6207 99.2556 95.2874 98.5265C95.6607 98.1183 95.6598 97.3625 95.7506 96.869C95.9645 95.7057 96.1674 94.6226 96.1674 93.4389C96.1674 90.7126 94.8404 88.7522 93.2031 86.7629C92.4796 85.8839 91.0406 85.2149 90.0767 84.599C89.0715 83.9566 87.8511 83.4007 86.7882 82.8725C85.7119 82.3375 85.0173 80.9274 83.8703 80.5474" stroke="black" stroke-width="3" stroke-linecap="round"/>
<path d="M26.5532 36.0021C22.9902 36.0021 18.9298 34.3727 15.8308 32.7793C12.2924 30.9599 8.83691 26.784 8.83691 22.6386C8.83691 20.3931 11.0369 19.0129 13.1328 19.0129C14.4266 19.0129 14.5812 19.1903 15.1823 18.0806C16.0253 16.5243 16.7174 15.1159 18.0077 13.8332C19.8652 11.9867 22.4311 9.9839 25.2563 10.8866C26.4901 11.2808 27.5047 12.2794 28.6838 12.7973C30.1376 13.4359 30.6076 14.4022 31.6017 15.5368C33.3148 17.4919 34.1546 20.1628 34.9366 22.5811C35.144 23.2226 35.163 23.8305 35.3534 24.4458C35.5134 24.9625 35.9324 25.7751 35.9324 26.2644" stroke="black" stroke-width="3" stroke-linecap="round"/>
<path d="M68.2388 27.922C68.2388 24.5868 69.7781 21.2081 71.481 18.4029C74.1092 14.0735 79.6022 9.308 84.9129 9.06804C87.1275 8.96798 88.4562 11.7626 88.4562 13.6261C88.4562 15.1012 88.0293 16.6217 87.5761 18.0231C87.2575 19.0085 86.9464 19.013 87.9582 19.013C88.9878 19.013 90.2199 19.0272 91.1657 19.4734C91.8672 19.8043 92.2901 20.4817 92.9373 20.8776C93.7267 21.3605 94.7604 22.8442 95.0795 23.7322C95.6907 25.4334 95.1144 26.9036 94.1879 28.3363C92.4722 30.9892 88.5578 32.4024 85.8392 33.6771C84.9255 34.1056 82.4417 34.4925 81.9949 35.3807" stroke="black" stroke-width="3" stroke-linecap="round"/>
<path d="M49.7028 58.8003C49.2983 59.2024 48.959 59.6543 48.5561 60.0548C48.4806 60.1298 47.7439 60.7853 48.1781 60.5197C48.6603 60.2247 49.0962 59.8754 49.5875 59.5963C50.039 59.3398 50.4886 58.8679 49.7861 59.4499C49.3384 59.8207 48.3965 60.2156 48.114 60.749C47.9181 61.1189 48.4225 60.5705 48.5112 60.507C48.5515 60.4782 49.6487 59.5613 49.4466 59.539C49.314 59.5244 49.1186 59.7785 49.0109 59.832" stroke="black" stroke-width="3" stroke-linecap="round"/>
<path d="M25.103 118.994C30.2378 117.203 35.8201 116.281 41.1797 115.449C41.4773 115.403 45.0894 115.162 45.0894 114.796" stroke="black" stroke-width="3" stroke-linecap="round"/>
<path d="M30.7332 119.273C29.5688 127.02 28.8561 134.851 29.1067 142.685C29.1629 144.441 29.2631 146.033 30.1702 147.536" stroke="black" stroke-width="3" stroke-linecap="round"/>
<path d="M24.54 136.063C29.8996 135.141 35.2791 134.224 40.6167 133.187C41.1591 133.082 42.8401 132.98 43.1189 132.425" stroke="black" stroke-width="3" stroke-linecap="round"/>
<path d="M53.5347 115.635C52.7752 118.788 51.9758 121.926 51.2515 125.087C50.6206 127.84 49.5938 130.661 49.5938 133.513C49.5938 135.858 55.8086 134.981 57.1942 134.881C63.4226 134.43 69.5007 131.332 75.1944 128.973C77.3823 128.067 80.3895 126.828 82.8105 126.828" stroke="black" stroke-width="3" stroke-linecap="round"/>
<path d="M70.1432 116.195C67.9203 126.1 67.3289 135.789 68.4542 145.856" stroke="black" stroke-width="3" stroke-linecap="round"/>
</svg>
