<svg width="105" height="160" viewBox="0 0 105 160" fill="none" xmlns="http://www.w3.org/2000/svg">
<rect width="105" height="160" rx="5.0392" fill="#FFD2B6"/>
<path d="M33.6935 41.0616C31.2569 38.6395 26.46 39.226 23.6139 40.2445C21.6159 40.9595 20.3134 43.89 18.9514 45.3481C17.122 47.3064 15.5194 50.7656 15.1378 53.345C14.3265 58.8291 17.0876 66.8609 23.6947 66.8609C26.871 66.8609 29.5178 65.0257 31.8878 63.2308C32.9228 62.4469 33.9632 61.6948 34.8659 60.7526C35.2401 60.3621 35.891 60.0808 36.1191 59.6274" stroke="black" stroke-width="2" stroke-linecap="round"/>
<path d="M36.3618 42.0257C38.2548 40.144 40.8647 39.3351 43.3691 38.5429C47.7312 37.1632 52.4898 36.7212 57.0736 36.7212C61.4604 36.7212 65.3345 37.0055 68.9186 39.8557C70.8931 41.4259 72.9882 43.2714 72.9882 45.8836" stroke="black" stroke-width="2" stroke-linecap="round"/>
<path d="M74.2009 46.6076C75.3881 45.5749 78.7075 47.8231 79.8067 48.3088C82.3049 49.4125 84.4712 51.2757 86.1402 53.4124C88.7784 56.7898 90.2296 60.1407 91.3822 64.2223C92.0538 66.6008 91.7627 68.7867 90.075 70.5985C88.7468 72.0244 87.3606 73.2558 85.2778 73.0766C81.6512 72.7646 77.9537 70.6437 75.279 68.2677C72.4084 65.7178 71.2683 62.0172 68.6221 59.3866" stroke="black" stroke-width="2" stroke-linecap="round"/>
<path d="M29.3276 65.6558C23.472 73.9018 24.7532 85.242 28.3439 93.9868C30.1074 98.2818 32.4785 101.362 37.3859 102.064C43.8332 102.987 50.0214 101.562 55.8204 98.876C60.4303 96.7405 65.633 94.5933 69.4575 91.2139C72.6454 88.3972 74.4931 85.2012 76.1279 81.3416C77.0408 79.1864 77.0863 76.8208 77.6506 74.577C77.9877 73.2367 78.3244 71.8695 78.3244 70.4781" stroke="black" stroke-width="2" stroke-linecap="round"/>
<path d="M37.0894 70.2363V71.2008" stroke="black" stroke-width="2" stroke-linecap="round"/>
<path d="M37.8171 70.2365C37.5696 69.3752 37.5338 65.9449 38.0597 68.4281C38.5457 70.7229 40.4081 67.0937 41.1995 66.4054C41.9813 65.7254 41.4825 66.6944 41.4825 66.968C41.4825 67.1785 42.5721 66.5407 42.7222 66.4322C43.2489 66.0515 42.8316 67.0713 42.8165 67.2359C42.7515 67.9469 44.1158 68.2096 44.6088 68.3076" stroke="black" stroke-width="2" stroke-linecap="round"/>
<path d="M44.6086 68.7896C45.069 69.7622 45.2491 69.838 44.5008 70.263C43.8411 70.6378 45.5637 71.6829 44.366 71.6829C43.7015 71.6829 42.9106 71.0446 42.9106 72.1652C42.9106 73.6648 43.1532 71.754 43.1532 71.2007" stroke="black" stroke-width="2" stroke-linecap="round"/>
<path d="M42.668 71.9242C41.0479 73.5347 42.2074 70.1792 40.8623 71.442C39.863 72.3802 39.7573 71.1504 39.7573 70.4775" stroke="black" stroke-width="2" stroke-linecap="round"/>
<path d="M39.0298 72.1655C38.7154 72.4669 36.154 74.5808 38.0326 74.282C40.2247 73.9333 38.4417 74.6082 39.3263 75.4876C39.4902 75.6505 39.9068 75.3974 39.9866 75.6751C40.0813 76.0046 40.2149 76.3486 40.2426 76.6931C40.3094 77.5232 41.0267 76.357 41.2129 76.2645" stroke="black" stroke-width="2" stroke-linecap="round"/>
<path d="M41.4556 76.2642H41.6986" stroke="black" stroke-width="2" stroke-linecap="round"/>
<path d="M43.3955 75.5409C44.378 75.4799 44.1818 73.6203 44.3657 72.8887" stroke="black" stroke-width="2" stroke-linecap="round"/>
<path d="M61.8303 68.7897C61.7316 68.6364 61.0753 67.263 60.8062 67.5305C60.6214 67.7142 60.3201 68.5386 60.1459 67.9324C59.755 66.5726 59.1622 69.0925 59.1622 69.6202C59.1622 69.9333 58.9461 71.2008 59.4047 71.2008C59.7812 71.2008 60.4106 70.6618 60.604 71.3348C61.0681 72.9494 61.8126 70.6069 62.558 70.2364" stroke="black" stroke-width="2" stroke-linecap="round"/>
<path d="M63.2856 69.2718C63.4648 68.2921 66.7695 63.9414 66.924 66.8607C66.9633 67.6031 67.6337 66.0927 68.0829 65.9498C68.7409 65.7405 68.8645 67.286 68.8645 67.7046C68.8645 69.4401 67.1666 70.8217 67.1666 72.4867C67.1666 72.6265 67.0774 72.2105 66.9779 72.1116C66.7862 71.921 66.6036 71.8743 66.3176 71.9375C65.6883 72.0765 66.1905 73.576 65.59 72.6474C65.3108 72.2158 64.8896 71.1541 64.4984 70.9596" stroke="black" stroke-width="2" stroke-linecap="round"/>
<path d="M50.6729 89.5258C50.6846 89.6313 50.9298 90.3688 51.1041 90.1955C51.3224 89.9786 50.9154 89.5223 50.9154 90.1286C50.9154 90.3784 51.2797 90.7298 51.3871 90.3563C51.477 90.0433 51.4005 89.6097 51.4005 89.2847" stroke="black" stroke-width="2" stroke-linecap="round"/>
<path d="M45.8213 95.0713C45.8575 95.7916 45.8026 99.5163 47.4383 98.5407C48.4008 97.9666 49.6108 97.4209 50.4299 96.6519C50.5357 96.5526 51.5509 95.3503 51.6292 95.7009C51.9727 97.2374 53.1929 96.8527 54.6073 96.5716C55.496 96.3949 57.0234 96.1886 57.4641 95.3124" stroke="black" stroke-width="2" stroke-linecap="round"/>
<path d="M19.8677 17.1913C20.7102 17.1913 24.9993 17.8393 25.4465 16.9502" stroke="black" stroke-width="2" stroke-linecap="round"/>
<path d="M22.2935 18.6382C22.3578 19.9182 22.9731 21.3634 24.2339 21.9602C24.813 22.2343 26.1379 21.8452 26.417 21.2904" stroke="black" stroke-width="2" stroke-linecap="round"/>
<path d="M23.2632 25.8712C27.3505 25.8712 31.4311 24.5759 35.3911 23.7012" stroke="black" stroke-width="2" stroke-linecap="round"/>
<path d="M29.085 26.3535V29.7291" stroke="black" stroke-width="2" stroke-linecap="round"/>
<path d="M31.9956 26.8359C32.184 27.4185 32.3322 29.6826 32.7233 29.4882" stroke="black" stroke-width="2" stroke-linecap="round"/>
<path d="M43.8813 29.0059C44.2769 29.4474 44.0951 29.7872 43.8813 30.2114" stroke="black" stroke-width="2" stroke-linecap="round"/>
<path d="M51.6426 28.5239V29.2473" stroke="black" stroke-width="2" stroke-linecap="round"/>
<path d="M57.4644 28.2827V28.7649" stroke="black" stroke-width="2" stroke-linecap="round"/>
<path d="M31.1879 100.642C31.1879 102.686 29.859 105.04 29.1428 106.967C28.001 110.038 27.0977 113.352 27.0977 116.631C27.0977 118.825 26.9555 120.1 29.435 120.1C31.4923 120.1 32.9981 118.088 34.1095 116.615" stroke="black" stroke-width="2" stroke-linecap="round"/>
<path d="M34.4013 116.616C33.7995 118.635 32.9405 120.877 32.9405 122.989C32.9405 124.93 32.9405 126.872 32.9405 128.813C32.9405 131.029 32.9405 133.245 32.9405 135.461C32.9405 137.276 32.4639 140.1 33.3787 141.737C33.6775 142.272 34.1213 146.956 35.7972 145.593C37.5558 144.163 39.1366 143.403 40.0984 141.172C40.4968 140.248 40.8288 139.691 40.8288 138.688C40.8288 137.097 43.2346 137.816 44.4646 137.816C45.6325 137.816 48.3826 138.373 49.3663 137.59C49.8814 137.181 51.36 137.236 51.9958 137.236C54.0622 137.236 56.0381 136.074 58.0662 136.074C58.7695 136.074 59.4729 136.074 60.1762 136.074C61.49 136.074 60.9878 136.263 60.9878 137.526C60.9878 139.297 61.3733 141 63.3413 141.301C64.0379 141.408 65.7111 142.075 65.9707 141.172C66.2049 140.358 66.5388 139.735 66.5388 138.833C66.5388 137.071 65.9545 135.45 65.9545 133.75C65.9545 131.669 65.241 129.727 65.0942 127.684C65.0396 126.923 65.0194 125.862 64.6398 125.183C64.2424 124.472 64.1767 123.229 63.9743 122.424C63.5781 120.849 63.1418 119.309 62.8057 117.713C62.4412 115.982 61.8642 114.259 61.8642 112.55" stroke="black" stroke-width="2" stroke-linecap="round"/>
<path d="M63.0332 112.259C63.0994 113.378 65.9492 119.982 67.3507 117.196C68.4712 114.968 68.5842 112.089 68.5842 109.645C68.5842 108.159 68.7438 106.411 68.2271 104.998C67.8386 103.936 68.0959 102.527 67.6428 101.513C67.1558 100.424 67.2673 99.0013 66.8962 97.8023C66.6614 97.0437 66.247 95.9091 66.247 95.124" stroke="black" stroke-width="2" stroke-linecap="round"/>
<path d="M62.3853 14.0464C64.8716 14.0464 67.9408 13.6708 70.1617 15.0578C72.3793 16.4427 72.0494 19.0017 72.1967 21.1986" stroke="#121212" stroke-width="2" stroke-linecap="round"/>
<path d="M66.9639 18.5977L67.618 24.4495" stroke="#121212" stroke-width="2" stroke-linecap="round"/>
<path d="M63.0391 25.4244C66.734 24.8928 70.4495 24.5403 74.1587 24.124" stroke="#121212" stroke-width="2" stroke-linecap="round"/>
<path d="M69.9072 30.3014C69.7451 30.7041 69.7046 33.1312 70.6703 32.7216C71.3241 32.4443 71.873 30.8525 71.9785 30.3736C73.2945 24.3996 71.5424 32.1135 71.5424 29.001" stroke="#121212" stroke-width="2" stroke-linecap="round"/>
</svg>
