<svg width="105" height="160" viewBox="0 0 105 160" fill="none" xmlns="http://www.w3.org/2000/svg">
<rect width="105" height="160" rx="5.0392" fill="#DECAF6"/>
<path d="M9.37598 16.3936V15.2227H15.5742V16.3936H13.1787V23H11.7822V16.3936H9.37598ZM18.0277 23.1182C16.3251 23.1182 15.2348 21.9097 15.2348 20.1104C15.2348 18.2949 16.3251 17.0918 18.0277 17.0918C19.7357 17.0918 20.8261 18.2949 20.8207 20.1104C20.8261 21.9097 19.7357 23.1182 18.0277 23.1182ZM16.6205 20.0996C16.6205 21.1685 17.0878 22.0225 18.0385 22.0225C18.973 22.0225 19.4403 21.1685 19.435 20.0996C19.4403 19.0308 18.973 18.1714 18.0385 18.1768C17.0878 18.1714 16.6205 19.0308 16.6205 20.0996ZM22.4578 23.0859C21.9959 23.0859 21.6145 22.71 21.6199 22.248C21.6145 21.7969 21.9959 21.4263 22.4578 21.4209C22.9036 21.4263 23.285 21.7969 23.285 22.248C23.285 22.71 22.9036 23.0859 22.4578 23.0859ZM29.5562 15.2227H30.942V20.6904C30.942 22.1943 29.9376 23.1074 28.4391 23.1074C27.0748 23.1074 26.0274 22.3662 26.0328 20.9375H27.4293C27.4347 21.5713 27.8644 21.9526 28.4928 21.958C29.1695 21.9526 29.5509 21.5176 29.5562 20.6904V15.2227ZM31.7734 21.3564C31.7734 20.0459 32.8638 19.6646 33.9434 19.5947C34.3516 19.5625 35.1841 19.5249 35.4419 19.5142L35.4365 19.0469C35.4365 18.4668 35.0659 18.1338 34.3838 18.1338C33.7715 18.1338 33.3955 18.4131 33.2881 18.832H31.9668C32.0635 17.8384 32.9551 17.0918 34.416 17.0918C35.5225 17.0918 36.8008 17.5483 36.8008 19.1006V23H35.4902V22.1943H35.4473C35.1895 22.6885 34.647 23.1182 33.7285 23.1182C32.6167 23.1182 31.7734 22.5112 31.7734 21.3564ZM33.0947 21.3457C33.0947 21.8506 33.5083 22.1084 34.083 22.1084C34.9155 22.1084 35.4473 21.5605 35.4473 20.9053L35.4419 20.4272C35.1948 20.438 34.4321 20.4863 34.1582 20.5078C33.5083 20.5615 33.0947 20.8354 33.0947 21.3457ZM38.4271 25.1914C38.1532 25.186 37.8954 25.1807 37.7182 25.1592V24.0635C37.8847 24.0796 38.1156 24.0796 38.2982 24.085C38.6312 24.0796 38.9105 24.0581 39.1469 23.4297L39.265 23.1182L37.1381 17.167H38.5883L39.9418 21.5713H40.0062L41.3598 17.167H42.81L40.4682 23.709C40.1352 24.6382 39.5229 25.186 38.4271 25.1914ZM45.7941 23V15.2227H48.716C50.4992 15.2227 51.4499 16.3076 51.4553 17.8008C51.4499 19.2886 50.4885 20.3682 48.6945 20.3682H47.1906V23H45.7941ZM47.1906 19.2187H48.5012C49.5539 19.2134 50.0266 18.6226 50.0266 17.8008C50.0266 16.9683 49.5539 16.3936 48.5012 16.3936H47.1906V19.2187ZM51.8678 21.3564C51.8678 20.0459 52.9581 19.6646 54.0377 19.5947C54.4459 19.5625 55.2784 19.5249 55.5362 19.5142L55.5309 19.0469C55.5309 18.4668 55.1603 18.1338 54.4781 18.1338C53.8658 18.1338 53.4898 18.4131 53.3824 18.832H52.0611C52.1578 17.8384 53.0494 17.0918 54.5104 17.0918C55.6168 17.0918 56.8951 17.5483 56.8951 19.1006V23H55.5846V22.1943H55.5416C55.2838 22.6885 54.7413 23.1182 53.8229 23.1182C52.711 23.1182 51.8678 22.5112 51.8678 21.3564ZM53.1891 21.3457C53.1891 21.8506 53.6026 22.1084 54.1773 22.1084C55.0099 22.1084 55.5416 21.5605 55.5416 20.9053L55.5362 20.4272C55.2892 20.438 54.5265 20.4863 54.2525 20.5078C53.6026 20.5615 53.1891 20.8354 53.1891 21.3457ZM57.9092 23V17.167H59.2412V18.1338H59.3057C59.5151 17.4624 60.0737 17.0811 60.7451 17.0811C60.8955 17.0811 61.1103 17.0972 61.2393 17.1133V18.3809C61.1157 18.3379 60.8311 18.3003 60.6055 18.2949C59.8428 18.3003 59.2842 18.8267 59.2842 19.5625V23H57.9092ZM61.7807 23V15.2227H63.1557V19.5088H63.2523L65.3471 17.167H66.9477L64.6864 19.6807L67.0873 23H65.4545L63.6605 20.4971L63.1557 21.0342V23H61.7807ZM17.6689 29.2881V38.9131H16.6914V33.9717H15.542L15.542 38.4404H14.5752L14.5752 29.4707H15.542V33.1123H16.6914V29.2881H17.6689ZM9.22559 36.1953C10.6328 35.4058 11.2881 33.7461 11.2881 31.834V31.2109H9.4834V30.3838H13.9521V31.2109H12.2764V31.834C12.2764 33.5635 12.9263 35.1318 14.3281 35.8516L13.7266 36.6357C12.7812 36.1201 12.1475 35.2231 11.8037 34.1167C11.4761 35.3789 10.8423 36.3887 9.85937 36.9687L9.22559 36.1953ZM20.0687 29.8359V31.2861H22.475V29.8359H23.4848V31.6729H25.5902V29.2881H26.6107V34.8633H25.5902V32.5215H23.4848V34.3691H19.0482V29.8359H20.0687ZM20.0687 33.5527H22.475V32.0918H20.0687V33.5527ZM20.2621 38.7949V35.3145H26.6107V38.7949H20.2621ZM21.2719 37.9678H25.6117V36.1309H21.2719V37.9678ZM35.7889 29.2881V38.9346H34.7684V29.2881H35.7889ZM28.1512 33.3809C28.1512 31.3237 29.1878 30.0132 30.6434 30.0078C32.0721 30.0132 33.1248 31.3237 33.1248 33.3809C33.1248 35.4595 32.0721 36.77 30.6434 36.7646C29.1878 36.77 28.1512 35.4595 28.1512 33.3809ZM29.1395 33.3809C29.1341 34.9116 29.7464 35.8516 30.6434 35.8516C31.5242 35.8516 32.1365 34.9116 32.1365 33.3809C32.1365 31.8716 31.5242 30.9263 30.6434 30.9209C29.7464 30.9263 29.1341 31.8716 29.1395 33.3809ZM42.4748 30.2979V31.1143L37.0607 31.1143V30.2979H39.3166V29.2021H40.3264V30.2979L42.4748 30.2979ZM37.5978 33.3486C37.5978 32.2744 38.5002 31.5601 39.8107 31.5547C41.1052 31.5601 42.029 32.2744 42.0344 33.3486C42.029 34.4229 41.1052 35.1318 39.8107 35.1318C38.5002 35.1318 37.5978 34.4229 37.5978 33.3486ZM38.5539 33.3486C38.5485 33.9717 39.048 34.3638 39.8107 34.3584C40.5627 34.3638 41.0783 33.9717 41.0891 33.3486C41.0783 32.7256 40.5627 32.3281 39.8107 32.3281C39.048 32.3281 38.5485 32.7256 38.5539 33.3486ZM38.6076 37.2373C38.6022 36.1899 39.8376 35.583 41.8732 35.583C43.8874 35.583 45.1281 36.1899 45.1281 37.2373C45.1281 38.2847 43.8874 38.897 41.8732 38.8916C39.8376 38.897 38.6022 38.2847 38.6076 37.2373ZM39.6711 37.2373C39.6657 37.7959 40.4875 38.1182 41.8732 38.1074C43.2321 38.1182 44.0432 37.7959 44.0432 37.2373C44.0432 36.6733 43.2321 36.3672 41.8732 36.3672C40.4875 36.3672 39.6657 36.6733 39.6711 37.2373ZM42.4963 34.251V33.4238H44.0539V32.3604H42.507V31.5332H44.0539V29.2881H45.0744V35.4863H44.0539V34.251H42.4963ZM54.042 30.1367V30.9746H50.293V32.833H53.6768V33.6494H50.293V35.8086C51.9741 35.7979 53.1934 35.7388 54.6221 35.5078L54.7295 36.335C53.2041 36.582 51.8828 36.6304 50.0674 36.6357H49.2832V30.1367H54.042ZM55.6641 38.9131V29.2881H56.6953V38.9131H55.6641ZM66.1635 29.2988V35.7979H65.1967V29.2988H66.1635ZM57.9672 34.7988C59.3046 34.2402 60.1693 33.5151 60.6688 32.6504L58.1391 32.9189L57.9887 32.0811L61.0019 31.9092C61.1093 31.5869 61.1737 31.2539 61.206 30.8994H58.4291V30.0723H62.1996C62.1996 30.7812 62.1137 31.4473 61.9203 32.0596H63.2631V29.46H64.2299V34.9385H63.2631V32.8867H61.5766C61.0019 33.977 60.0082 34.874 58.4613 35.54L57.9672 34.7988ZM59.1166 38.0752C60.9374 37.8066 62.3876 36.7324 62.3822 35.5186V35.2393H63.392V35.5186C63.392 36.7324 64.8422 37.8066 66.6576 38.0752L66.2602 38.8701C64.767 38.623 63.494 37.8872 62.8925 36.8613C62.2855 37.8872 61.0126 38.623 59.5248 38.8701L59.1166 38.0752ZM72.3338 29.9863V30.8027H68.7352V31.8662H72.0652V32.6719H68.7352V33.7676C70.658 33.7783 71.7806 33.7461 73.0857 33.5205L73.1932 34.3477C71.802 34.5732 70.6043 34.6108 68.4988 34.6055H67.7039V29.9863H72.3338ZM68.6385 37.1191C68.6385 35.9966 69.8685 35.3467 71.9148 35.3467C73.929 35.3467 75.1858 35.9966 75.1912 37.1191C75.1858 38.2524 73.929 38.897 71.9148 38.8916C69.8685 38.897 68.6385 38.2524 68.6385 37.1191ZM69.659 37.1191C69.6536 37.7476 70.4808 38.102 71.9148 38.1074C73.3221 38.102 74.1761 37.7476 74.1707 37.1191C74.1761 36.5068 73.3221 36.147 71.9148 36.1523C70.4808 36.147 69.6536 36.5068 69.659 37.1191ZM74.117 35.2178V29.2988H75.1375V35.2178H74.117ZM84.6701 29.2881V38.9131H83.6926V29.2881H84.6701ZM76.4953 33.4453C76.4953 31.3613 77.3117 30.0562 78.5686 30.0615C79.7395 30.0562 80.529 31.168 80.6472 32.9727H81.7375V29.4707H82.715V38.4404H81.7375V33.7998H80.6525C80.5612 35.6797 79.7609 36.8452 78.5686 36.8398C77.3117 36.8452 76.4953 35.5347 76.4953 33.4453ZM77.4406 33.4453C77.4406 34.9761 77.8757 35.8784 78.5686 35.873C79.2775 35.8784 79.718 34.9761 79.718 33.4453C79.718 31.9092 79.2775 31.0122 78.5686 31.0176C77.8757 31.0122 77.4406 31.9092 77.4406 33.4453ZM12.7705 45.7275C12.7651 47.0757 13.6406 48.2788 15.1016 48.7568L14.543 49.5518C13.4849 49.165 12.7061 48.4238 12.2871 47.457C11.8735 48.5581 11.0356 49.4228 9.87012 49.8418L9.32227 49.0254C10.8584 48.499 11.75 47.2153 11.7607 45.7705V44.8252H12.7705V45.7275ZM10.9014 52.0762C10.896 50.9106 12.1313 50.2339 14.1562 50.2393C16.1704 50.2339 17.4058 50.9106 17.4111 52.0762C17.4058 53.2363 16.1704 53.897 14.1562 53.8916C12.1313 53.897 10.896 53.2363 10.9014 52.0762ZM11.9111 52.0762C11.9058 52.7153 12.7437 53.0913 14.1562 53.0859C15.5581 53.0913 16.396 52.7153 16.4014 52.0762C16.396 51.4155 15.5581 51.0342 14.1562 51.0342C12.7437 51.0342 11.9058 51.4155 11.9111 52.0762ZM14.3281 47.0811V46.2432H16.3584V44.2881H17.3789V49.9707H16.3584V47.0811H14.3281ZM22.9262 50.3359C25.0102 50.3359 26.3261 50.9966 26.3314 52.1191C26.3261 53.2363 25.0102 53.897 22.9262 53.8916C20.8637 53.897 19.5424 53.2363 19.5424 52.1191C19.5424 50.9966 20.8637 50.3359 22.9262 50.3359ZM18.5971 49.541V48.7139H22.1098V46.9092H23.1088V48.7139H27.352V49.541H18.5971ZM19.6176 45.5771V44.7607H26.2562V45.5664C26.2616 46.3345 26.2616 47.1294 25.9877 48.123L24.9887 48.0156C25.2465 47.0327 25.2465 46.3237 25.2465 45.5771H19.6176ZM20.5629 52.1191C20.5521 52.7422 21.4706 53.102 22.9262 53.1074C24.3979 53.102 25.3109 52.7422 25.3217 52.1191C25.3109 51.4853 24.3979 51.1147 22.9262 51.1094C21.4706 51.1147 20.5521 51.4853 20.5629 52.1191ZM36.0252 44.2988V50.25H35.0584V47.7148H33.9627V50.1103H33.0066V44.4385H33.9627V46.8877H35.0584V44.2988H36.0252ZM27.7645 46.1465V45.3301H29.7088V44.3311H30.7186V45.3301H32.6307V46.1465H27.7645ZM28.1404 48.2412C28.1404 47.2261 28.9998 46.5762 30.2029 46.5762C31.4329 46.5762 32.2869 47.2261 32.2869 48.2412C32.2869 49.2241 31.4329 49.8955 30.2029 49.8955C28.9998 49.8955 28.1404 49.2241 28.1404 48.2412ZM28.409 53.0215C29.6282 52.6348 30.3157 51.6895 30.3211 50.8193V50.5293H31.3201V50.8193C31.3147 51.6035 31.7122 52.4199 32.5716 52.9033C33.4417 52.377 33.866 51.5068 33.866 50.8193V50.5293H34.8758V50.8193C34.8704 51.7432 35.5418 52.667 36.7879 53.0215L36.3045 53.7949C35.3484 53.4834 34.6985 52.8603 34.3602 52.0977C34.0647 52.8442 33.49 53.5371 32.5984 53.8809C31.6746 53.5478 31.0945 52.8979 30.7991 52.1406C30.45 52.8657 29.8001 53.478 28.8924 53.7949L28.409 53.0215ZM29.0535 48.2412C29.0535 48.7891 29.5208 49.1382 30.2029 49.1436C30.8958 49.1382 31.3685 48.7891 31.3631 48.2412C31.3685 47.6665 30.8958 47.3228 30.2029 47.3281C29.5208 47.3228 29.0535 47.6665 29.0535 48.2412ZM39.6603 45.0078C40.9709 45.0132 41.9216 46.1196 42.0773 47.8975H44.0646V44.2881H45.0744V53.9346H44.0646V48.7246H42.0881C41.9753 50.6045 41.0031 51.77 39.6603 51.7646C38.2263 51.77 37.2111 50.4595 37.2219 48.3809C37.2111 46.3237 38.2263 45.0132 39.6603 45.0078ZM38.1887 48.3809C38.194 49.9116 38.7902 50.8516 39.6603 50.8516C40.5305 50.8516 41.1267 49.9116 41.132 48.3809C41.1267 46.8716 40.5305 45.9263 39.6603 45.9209C38.7902 45.9263 38.194 46.8716 38.1887 48.3809ZM55.0904 51.8613V52.71H46.2818V51.8613H48.3873V49.3477C47.5978 48.9126 47.1144 48.2251 47.1197 47.3603C47.1144 45.8457 48.6021 44.852 50.6646 44.8467C52.7325 44.852 54.2203 45.8457 54.2203 47.3603C54.2203 48.209 53.7584 48.8911 52.985 49.3262V51.8613H55.0904ZM48.108 47.3603C48.108 48.3916 49.1554 49.063 50.6646 49.0684C52.1632 49.063 53.2267 48.3916 53.232 47.3603C53.2267 46.3237 52.1632 45.6631 50.6646 45.6631C49.1554 45.6631 48.108 46.3237 48.108 47.3603ZM49.3971 51.8613H51.9537V49.7236C51.5616 49.8149 51.1266 49.8633 50.6646 49.8633C50.2135 49.8633 49.7838 49.8149 49.3971 49.7236V51.8613ZM56.6094 53.0752C56.1904 53.0698 55.8413 52.7314 55.8467 52.3125C55.8413 51.8936 56.1904 51.5498 56.6094 51.5498C57.0229 51.5498 57.3667 51.8936 57.3721 52.3125C57.3667 52.7314 57.0229 53.0698 56.6094 53.0752ZM59.2348 53.0752C58.8158 53.0698 58.4667 52.7314 58.4721 52.3125C58.4667 51.8936 58.8158 51.5498 59.2348 51.5498C59.6483 51.5498 59.9921 51.8936 59.9975 52.3125C59.9921 52.7314 59.6483 53.0698 59.2348 53.0752ZM17.0352 59.7285V60.5342C17.0244 61.2969 17.0244 62.0918 16.7773 63.0908L15.7568 62.9727C16.0146 61.9951 16.0146 61.2861 16.0146 60.5449H10.3857V59.7285H17.0352ZM9.36523 64.4121V63.585H12.8779V61.8447H13.877V63.585H18.1201V64.4121H9.36523ZM10.4287 68.7842V65.3789H17.0137V66.1953H11.46V67.957H17.1426V68.7842H10.4287ZM25.8738 60.1367V64.6269H21.3729V60.1367H25.8738ZM22.3719 63.8213H24.8748V60.9639H22.3719V63.8213ZM22.4578 68.709V65.6582H23.4783V67.8818H28.9676V68.709H22.4578ZM27.5389 66.335V59.2773H28.5594V62.1562H29.9559V63.0156H28.5594V66.335H27.5389ZM39.2199 63.0693V63.9072H37.7268V68.9023H36.7062V59.2881H37.7268V63.0693H39.2199ZM30.5939 66.4853V60.2227H31.6037V65.6367C32.9465 65.6313 34.3483 65.5186 35.8791 65.207L35.9973 66.0664C34.3483 66.394 32.8337 66.4907 31.3889 66.4853H30.5939ZM48.2691 66.8613V67.71H39.4605V66.8613H41.566V64.3477C40.7765 63.9126 40.2931 63.2251 40.2984 62.3603C40.2931 60.8457 41.7809 59.852 43.8434 59.8467C45.9112 59.852 47.399 60.8457 47.399 62.3603C47.399 63.209 46.9371 63.8911 46.1637 64.3262V66.8613H48.2691ZM41.2867 62.3603C41.2867 63.3916 42.3341 64.063 43.8434 64.0684C45.3419 64.063 46.4054 63.3916 46.4107 62.3603C46.4054 61.3237 45.3419 60.6631 43.8434 60.6631C42.3341 60.6631 41.2867 61.3237 41.2867 62.3603ZM42.5758 66.8613H45.1324V64.7236C44.7403 64.8149 44.3053 64.8633 43.8434 64.8633C43.3922 64.8633 42.9625 64.8149 42.5758 64.7236V66.8613ZM49.7881 68.0752C49.3691 68.0698 49.02 67.7314 49.0254 67.3125C49.02 66.8936 49.3691 66.5498 49.7881 66.5498C50.2017 66.5498 50.5454 66.8936 50.5508 67.3125C50.5454 67.7314 50.2017 68.0698 49.7881 68.0752ZM14.0273 77.2744C13.9521 76.5493 13.3184 76.1357 12.4268 76.1357C11.4761 76.1357 10.8745 76.6245 10.8691 77.2852C10.8691 78.021 11.6694 78.311 12.2871 78.4561L13.0391 78.6602C14.0327 78.9019 15.2788 79.4443 15.2842 80.8516C15.2788 82.1675 14.2314 83.1289 12.3945 83.1289C10.6543 83.1289 9.55859 82.2588 9.4834 80.8408H10.665C10.7349 81.6894 11.4868 82.0923 12.3945 82.0977C13.3882 82.0923 14.1079 81.5928 14.1133 80.8301C14.1079 80.1533 13.4634 79.8794 12.6416 79.6592L11.7178 79.4121C10.4663 79.0684 9.69287 78.4346 9.6875 77.3496C9.69287 76.0068 10.8853 75.1152 12.459 75.1152C14.0381 75.1152 15.1392 76.0176 15.1768 77.2744H14.0273ZM18.6937 83.1182C16.975 83.1182 15.9169 81.9311 15.9223 80.1211C15.9169 78.3271 16.9911 77.0918 18.6186 77.0918C19.9452 77.0918 21.2074 77.9136 21.2074 80.0244V80.4326H17.0609C17.0932 81.5444 17.7484 82.1728 18.7045 82.1728C19.3544 82.1728 19.7787 81.8936 19.9721 81.5391H21.1322C20.8744 82.4844 19.9774 83.1182 18.6937 83.1182ZM17.0663 79.5732H20.0795C20.0795 78.687 19.5048 78.0317 18.6293 78.0371C17.7108 78.0317 17.1146 78.7515 17.0663 79.5732ZM22.0711 83V77.167H23.1775V78.0908H23.242C23.4568 77.4678 24.0423 77.0757 24.7244 77.0811C24.8641 77.0757 25.0896 77.0918 25.2078 77.1025V78.1982C25.1111 78.1768 24.8426 78.1284 24.6062 78.1338C23.8113 78.1284 23.2205 78.6816 23.2205 79.4443V83H22.0711ZM28.1125 83.1182C26.3937 83.1182 25.3356 81.9311 25.341 80.1211C25.3356 78.3271 26.4099 77.0918 28.0373 77.0918C29.364 77.0918 30.6262 77.9136 30.6262 80.0244V80.4326H26.4797C26.5119 81.5444 27.1672 82.1728 28.1232 82.1728C28.7731 82.1728 29.1975 81.8936 29.3908 81.5391H30.551C30.2932 82.4844 29.3962 83.1182 28.1125 83.1182ZM26.4851 79.5732H29.4982C29.4982 78.687 28.9235 78.0317 28.048 78.0371C27.1296 78.0317 26.5334 78.7515 26.4851 79.5732ZM32.6393 79.541V83H31.4898V77.167H32.5963V78.123H32.6607C32.9347 77.4946 33.5094 77.0918 34.3795 77.0918C35.5772 77.0918 36.3722 77.8491 36.3668 79.2939V83H35.2281V79.4336C35.2228 78.585 34.7662 78.0801 33.9928 78.0801C33.2032 78.0801 32.6393 78.6118 32.6393 79.541ZM37.2197 81.3564C37.2144 80.0244 38.3477 79.6807 39.4004 79.6055C39.7871 79.584 40.6626 79.5356 40.9312 79.5249L40.9258 79.0576C40.9312 78.397 40.5229 78.0156 39.7441 78.0156C39.0674 78.0156 38.6592 78.3271 38.541 78.7568H37.4023C37.5044 77.79 38.4067 77.0918 39.7871 77.0918C40.7163 77.0918 42.0698 77.4302 42.0752 79.1221V83H40.958V82.2051H40.915C40.6895 82.6401 40.1523 83.1289 39.1855 83.1289C38.0791 83.1289 37.2144 82.4951 37.2197 81.3564ZM38.3369 81.3672C38.3369 81.9258 38.7988 82.2104 39.4434 82.2158C40.3779 82.2104 40.9365 81.5874 40.9365 80.8945L40.9312 80.3628C40.668 80.3789 39.8354 80.438 39.5615 80.4541C38.8096 80.5078 38.3369 80.7925 38.3369 81.3672ZM45.3666 83.1182C43.9594 83.1128 42.9281 81.9795 42.9281 80.0996C42.9281 78.1982 43.9755 77.0918 45.3773 77.0918C46.4623 77.0918 46.8544 77.7471 47.0639 78.1123H47.1176L47.1176 75.2227H48.267L48.267 83H47.1498V82.0869H47.0639C46.849 82.4683 46.4301 83.1128 45.3666 83.1182ZM44.099 80.0781C44.0936 81.249 44.62 82.1352 45.6244 82.1406C46.6019 82.1352 47.1498 81.3027 47.1498 80.0781C47.1498 78.8643 46.6127 78.064 45.6244 78.0693C44.6093 78.064 44.0936 78.9287 44.099 80.0781ZM51.9988 83.1182C50.2801 83.1182 49.222 81.9311 49.2273 80.1211C49.222 78.3271 50.2962 77.0918 51.9236 77.0918C53.2503 77.0918 54.5125 77.9136 54.5125 80.0244V80.4326H50.366C50.3982 81.5444 51.0535 82.1728 52.0096 82.1728C52.6595 82.1728 53.0838 81.8936 53.2771 81.5391H54.4373C54.1795 82.4844 53.2825 83.1182 51.9988 83.1182ZM50.3714 79.5732H53.3846C53.3846 78.687 52.8099 78.0317 51.9344 78.0371C51.0159 78.0317 50.4197 78.7515 50.3714 79.5732ZM58.6525 78.7568C58.5451 78.2949 58.1799 77.9941 57.5461 77.9941C56.8908 77.9941 56.4235 78.3325 56.4289 78.7783C56.4235 79.1221 56.6975 79.3691 57.342 79.5195L58.2658 79.7344C59.34 79.9761 59.861 80.4863 59.8664 81.3135C59.861 82.3662 58.9694 83.1182 57.4816 83.1182C56.0798 83.1182 55.2526 82.4951 55.1076 81.4102H56.2785C56.3806 81.9365 56.778 82.1997 57.4709 82.1943C58.2121 82.1997 58.6901 81.8882 58.6955 81.3994C58.6901 81.0234 58.4108 80.7817 57.7932 80.6367L56.8801 80.4434C55.8273 80.2124 55.2795 79.6484 55.2795 78.8428C55.2795 77.8061 56.1818 77.0918 57.5353 77.0918C58.8352 77.0918 59.6462 77.7524 59.759 78.7568H58.6525ZM65.3857 83.1074C63.8228 83.1074 62.8613 82.1836 62.8613 80.9375C62.8613 80.0029 63.4736 79.4336 64.3652 78.8267C63.8711 78.2251 63.5112 77.6772 63.5059 76.9844C63.5112 75.9048 64.2847 75.1367 65.4717 75.1367C66.6694 75.1367 67.4053 75.9209 67.4053 76.834C67.4053 77.5752 67.0186 78.1177 66.374 78.585L65.8369 78.977L67.3945 80.8354C67.5933 80.4487 67.7168 79.9868 67.7168 79.4658H68.748C68.748 80.5454 68.4365 81.2383 68.0981 81.6787L69.21 83H67.9209L67.3945 82.3823C66.8628 82.8765 66.0894 83.1074 65.3857 83.1074ZM64.0107 80.9053C64.0054 81.5713 64.5532 82.1406 65.3965 82.1406C65.8691 82.1406 66.3525 81.958 66.75 81.6304L65.0098 79.5894L64.8164 79.7344C64.2041 80.1855 64.0054 80.6582 64.0107 80.9053ZM64.5801 76.9951C64.5801 77.3926 64.8594 77.79 65.2139 78.2251L65.6865 77.8867C66.1108 77.6074 66.3633 77.3228 66.3633 76.8662C66.3633 76.501 66.0195 76.0928 65.4932 76.0928C64.9561 76.0981 64.5801 76.5493 64.5801 76.9951ZM9.79492 98L9.79492 90.2227H12.6416C14.3013 90.2227 15.1016 91.1089 15.1016 92.2637C15.1016 93.2358 14.5054 93.7246 13.791 93.9072V93.9824C14.5645 94.0254 15.4023 94.7021 15.4023 95.9053C15.4023 97.0977 14.5859 98 12.7705 98H9.79492ZM10.9766 96.9902H12.6631C13.7803 96.9849 14.2314 96.4961 14.2314 95.8516C14.2314 95.105 13.6406 94.5088 12.7061 94.5088H10.9766V96.9902ZM10.9766 93.585H12.5449C13.3291 93.5796 13.9414 93.1069 13.9414 92.3603C13.9414 91.7158 13.4956 91.2324 12.5664 91.2324H10.9766L10.9766 93.585ZM18.7689 98.1182C17.1146 98.1182 16.0351 96.915 16.0404 95.1103C16.0351 93.2949 17.1146 92.0918 18.7689 92.0918C20.4125 92.0918 21.4867 93.2949 21.4867 95.1103C21.4867 96.915 20.4125 98.1182 18.7689 98.1182ZM17.1898 95.1103C17.1898 96.2222 17.7001 97.1621 18.7689 97.1621C19.8217 97.1621 20.3266 96.2222 20.3266 95.1103C20.3266 93.9932 19.8217 93.0425 18.7689 93.0371C17.7001 93.0425 17.1898 93.9932 17.1898 95.1103ZM24.5203 98.1182C23.1131 98.1128 22.0818 96.9795 22.0818 95.0996C22.0818 93.1982 23.1292 92.0918 24.5311 92.0918C25.616 92.0918 26.0081 92.7471 26.2176 93.1123H26.2713V90.2227H27.4207V98H26.3035V97.0869H26.2176C26.0027 97.4683 25.5838 98.1128 24.5203 98.1182ZM23.2527 95.0781C23.2474 96.249 23.7737 97.1352 24.7781 97.1406C25.7557 97.1352 26.3035 96.3027 26.3035 95.0781C26.3035 93.8643 25.7664 93.064 24.7781 93.0693C23.763 93.064 23.2474 93.9287 23.2527 95.0781ZM29.3478 100.191C29.1115 100.186 28.8806 100.181 28.7355 100.159V99.2031C28.8645 99.2139 29.09 99.2192 29.2512 99.2246C29.6057 99.2192 29.9011 99.1977 30.175 98.4619L30.3146 98.0752L28.177 92.167H29.4016L30.8732 96.6894H30.9377L32.4094 92.167H33.6447L31.2385 98.7734C30.9001 99.6973 30.3093 100.186 29.3478 100.191ZM36.8115 98V90.2227H39.583C41.3931 90.2227 42.2793 91.227 42.2793 92.6611C42.2793 93.7085 41.8066 94.498 40.8613 94.8579L42.5801 98H41.2373L39.6582 95.0674H39.583H37.9932V98H36.8115ZM37.9932 94.0469H39.4648C40.6089 94.0415 41.0869 93.5366 41.0869 92.6611C41.0869 91.7856 40.6089 91.2378 39.4648 91.2324H37.9932V94.0469ZM45.6137 98.1182C43.9594 98.1182 42.8798 96.915 42.8852 95.1103C42.8798 93.2949 43.9594 92.0918 45.6137 92.0918C47.2572 92.0918 48.3314 93.2949 48.3314 95.1103C48.3314 96.915 47.2572 98.1182 45.6137 98.1182ZM44.0346 95.1103C44.0346 96.2222 44.5448 97.1621 45.6137 97.1621C46.6664 97.1621 47.1713 96.2222 47.1713 95.1103C47.1713 93.9932 46.6664 93.0425 45.6137 93.0371C44.5448 93.0425 44.0346 93.9932 44.0346 95.1103ZM50.3338 90.2227V98H49.1844V90.2227H50.3338ZM52.6047 90.2227V98H51.4553V90.2227H52.6047ZM57.0025 93.7568C56.8951 93.2949 56.5299 92.9941 55.8961 92.9941C55.2408 92.9941 54.7735 93.3325 54.7789 93.7783C54.7735 94.1221 55.0475 94.3691 55.692 94.5195L56.6158 94.7344C57.69 94.9761 58.211 95.4863 58.2164 96.3135C58.211 97.3662 57.3194 98.1182 55.8316 98.1182C54.4298 98.1182 53.6026 97.4951 53.4576 96.4102H54.6285C54.7306 96.9365 55.128 97.1997 55.8209 97.1943C56.5621 97.1997 57.0401 96.8882 57.0455 96.3994C57.0401 96.0234 56.7608 95.7817 56.1432 95.6367L55.2301 95.4434C54.1773 95.2124 53.6295 94.6484 53.6295 93.8428C53.6295 92.8061 54.5318 92.0918 55.8854 92.0918C57.1852 92.0918 57.9962 92.7524 58.109 93.7568H57.0025ZM68.6879 89.2881V91.4043H70.0844V92.2529H68.6879V94.1758H67.6674V89.2881H68.6879ZM61.5014 93.8643V89.9111H66.0023V93.8643H61.5014ZM62.0922 98.6553V95.0137H63.0912V97.8174C63.6552 97.7905 64.3051 97.71 64.9174 97.5059L65.0678 98.3115C64.1708 98.6177 63.306 98.6553 62.5863 98.6553H62.0922ZM62.5004 93.0478H65.0033V90.7275H62.5004V93.0478ZM64.7348 95.873V95.1211H66.6791V94.3154H67.6781V95.1211H69.5902V95.873H64.7348ZM65.3471 97.5381C65.3363 96.7056 66.0775 96.1953 67.1625 96.1846C68.226 96.1953 68.9779 96.7056 68.9779 97.5381C68.9779 98.3706 68.226 98.8916 67.1625 98.8916C66.0775 98.8916 65.3363 98.3706 65.3471 97.5381ZM66.2494 97.5381C66.2494 97.9463 66.6308 98.1934 67.1625 98.1934C67.6835 98.1934 68.0595 97.9463 68.0648 97.5381C68.0595 97.1406 67.6835 96.9043 67.1625 96.8935C66.6308 96.9043 66.2494 97.1406 66.2494 97.5381ZM75.7176 90.0186V90.5557C75.7068 91.2002 75.7068 92.1562 75.4705 93.4023L74.4607 93.3057C74.6702 92.2422 74.7024 91.4634 74.7132 90.8564H70.8621V90.0186H75.7176ZM70.282 94.2295C70.8728 94.2295 71.5442 94.2241 72.2478 94.208V92.1777H73.2576V94.1758C74.2889 94.1328 75.3523 94.0576 76.3191 93.918L76.3836 94.6592C74.3748 95.0137 72.076 95.0513 70.3787 95.0566L70.282 94.2295ZM71.743 98.709V95.8623H72.7635V97.8818H78.285V98.709H71.743ZM76.9314 96.5176V89.2881H77.9734V92.3496H79.2947V93.209H77.9734V96.5176H76.9314ZM88.3869 94.9492V95.7549H84.4553V98.9131H83.4562V95.7549H79.5783V94.9492H88.3869ZM80.674 93.8535V89.6748H81.6838V90.9316H86.26V89.6748H87.2805V93.8535H80.674ZM81.6838 93.0371H86.26V91.748H81.6838V93.0371ZM12.3301 113.107C10.8584 113.107 9.75195 112.21 9.69824 110.97H10.8477C10.9121 111.63 11.5459 112.114 12.3301 112.119C13.2754 112.114 13.9521 111.432 13.9521 110.508C13.9521 109.562 13.2539 108.875 12.2764 108.864C11.6533 108.864 11.1753 109.074 10.9121 109.552H9.79492L10.2998 105.223H14.7041V106.232H11.2773L11.0195 108.413H11.0947C11.417 108.102 11.9648 107.892 12.5557 107.887C14.022 107.892 15.1016 108.977 15.1016 110.476C15.1016 112.006 13.9521 113.107 12.3301 113.107ZM16.5668 113.075C16.1479 113.07 15.7987 112.731 15.8041 112.312C15.7987 111.894 16.1479 111.55 16.5668 111.55C16.9804 111.55 17.3241 111.894 17.3295 112.312C17.3241 112.731 16.9804 113.07 16.5668 113.075ZM18.4295 113V112.141L21.1258 109.423C21.9798 108.537 22.4041 108.042 22.4041 107.36C22.4041 106.592 21.7811 106.104 20.9646 106.104C20.0999 106.104 19.552 106.651 19.5467 107.479H18.4295C18.4187 106.055 19.5037 105.115 20.9861 105.115C22.4847 105.115 23.5213 106.066 23.532 107.328C23.5213 108.198 23.1131 108.891 21.6521 110.325L20.073 111.926V111.99H23.6609V113H18.4295ZM27.4572 113.107C25.8459 113.107 24.7019 112.243 24.6535 110.97H25.8566C25.8996 111.652 26.5764 112.087 27.4465 112.087C28.3864 112.087 29.0686 111.577 29.0686 110.819C29.0686 110.051 28.4294 109.503 27.3176 109.498H26.6516V108.531H27.3176C28.2038 108.537 28.8215 108.042 28.8215 107.296C28.8215 106.587 28.2897 106.104 27.468 106.104C26.6892 106.104 25.9909 106.539 25.9641 107.242H24.8254C24.8576 105.975 26.0285 105.115 27.4787 105.115C29.0095 105.115 29.9709 106.082 29.9602 107.231C29.9709 108.118 29.423 108.751 28.5852 108.961V109.015C29.6486 109.165 30.2663 109.879 30.2609 110.862C30.2663 112.157 29.0686 113.107 27.4572 113.107ZM31.5328 110.035C31.5436 108.01 32.1183 106.329 33.1227 104.89H34.1754C33.4342 105.953 32.7252 108.118 32.7252 110.035C32.7252 111.958 33.4342 114.123 34.1754 115.191H33.1227C32.1183 113.747 31.5436 112.065 31.5328 110.035ZM39.2822 107.274C39.207 106.549 38.5732 106.136 37.6816 106.136C36.731 106.136 36.1294 106.625 36.124 107.285C36.124 108.021 36.9243 108.311 37.542 108.456L38.2939 108.66C39.2876 108.902 40.5337 109.444 40.5391 110.852C40.5337 112.167 39.4863 113.129 37.6494 113.129C35.9092 113.129 34.8135 112.259 34.7383 110.841H35.9199C35.9897 111.689 36.7417 112.092 37.6494 112.098C38.6431 112.092 39.3628 111.593 39.3682 110.83C39.3628 110.153 38.7183 109.879 37.8965 109.659L36.9727 109.412C35.7212 109.068 34.9478 108.435 34.9424 107.35C34.9478 106.007 36.1401 105.115 37.7139 105.115C39.293 105.115 40.394 106.018 40.4316 107.274H39.2822ZM42.1332 113H40.8764L43.6693 105.223H45.0336L47.8373 113H46.5805L45.8715 110.948H42.8422L42.1332 113ZM43.1806 109.96H45.5277L44.3783 106.641H44.3246L43.1806 109.96ZM47.2293 106.243V105.223H53.2557V106.243H50.8387V113H49.657V106.243H47.2293ZM56.3859 110.035C56.3752 112.065 55.8005 113.747 54.7961 115.191H53.7434C54.4846 114.123 55.1936 111.958 55.1936 110.035C55.1936 108.118 54.4846 105.953 53.7434 104.89H54.7961C55.8005 106.329 56.3752 108.01 56.3859 110.035ZM58.0768 108.907C58.4366 108.51 58.8717 108.306 59.3551 108.306C60.193 108.306 60.9342 108.918 61.7506 108.918C62.2394 108.918 62.669 108.698 63.0074 108.273V109.305C62.6476 109.702 62.2125 109.906 61.7291 109.906C60.8912 109.906 60.1446 109.294 59.3229 109.294C58.8448 109.294 58.4151 109.514 58.0768 109.938V108.907ZM67.0937 113.107C65.6221 113.107 64.5156 112.21 64.4619 110.97H65.6113C65.6758 111.63 66.3096 112.114 67.0937 112.119C68.0391 112.114 68.7158 111.432 68.7158 110.508C68.7158 109.562 68.0176 108.875 67.04 108.864C66.417 108.864 65.939 109.074 65.6758 109.552H64.5586L65.0635 105.223H69.4678V106.232H66.041L65.7832 108.413H65.8584C66.1807 108.102 66.7285 107.892 67.3193 107.887C68.7856 107.892 69.8652 108.977 69.8652 110.476C69.8652 112.006 68.7158 113.107 67.0937 113.107ZM71.3305 113.075C70.9115 113.07 70.5624 112.731 70.5678 112.312C70.5624 111.894 70.9115 111.55 71.3305 111.55C71.744 111.55 72.0878 111.894 72.0932 112.312C72.0878 112.731 71.744 113.07 71.3305 113.075ZM73.1932 113V112.141L75.8894 109.423C76.7435 108.537 77.1678 108.042 77.1678 107.36C77.1678 106.592 76.5447 106.104 75.7283 106.104C74.8636 106.104 74.3157 106.651 74.3103 107.479H73.1932C73.1824 106.055 74.2674 105.115 75.7498 105.115C77.2483 105.115 78.285 106.066 78.2957 107.328C78.285 108.198 77.8768 108.891 76.4158 110.325L74.8367 111.926V111.99H78.4246V113H73.1932ZM79.1164 111.485V110.529L82.5539 105.223H84.0148V110.486H85.0783V111.485H84.0148V113H82.8977V111.485H79.1164ZM80.3625 110.486H82.8977V106.63H82.8117L80.3625 110.422V110.486ZM86.2428 110.035C86.2535 108.01 86.8282 106.329 87.8326 104.89H88.8853C88.1441 105.953 87.4352 108.118 87.4352 110.035C87.4352 111.958 88.1441 114.123 88.8853 115.191H87.8326C86.8282 113.747 86.2535 112.065 86.2428 110.035ZM93.9922 107.274C93.917 106.549 93.2832 106.136 92.3916 106.136C91.4409 106.136 90.8394 106.625 90.834 107.285C90.834 108.021 91.6343 108.311 92.2519 108.456L93.0039 108.66C93.9976 108.902 95.2436 109.444 95.249 110.852C95.2436 112.167 94.1963 113.129 92.3594 113.129C90.6191 113.129 89.5234 112.259 89.4482 110.841H90.6299C90.6997 111.689 91.4517 112.092 92.3594 112.098C93.353 112.092 94.0727 111.593 94.0781 110.83C94.0727 110.153 93.4282 109.879 92.6064 109.659L91.6826 109.412C90.4311 109.068 89.6577 108.435 89.6523 107.35C89.6577 106.007 90.8501 105.115 92.4238 105.115C94.0029 105.115 95.104 106.018 95.1416 107.274H93.9922ZM14.79 120.223H15.9717V125.336C15.9771 126.969 14.7471 128.129 12.8887 128.129C11.0142 128.129 9.78955 126.969 9.79492 125.336L9.79492 120.223H10.9766L10.9766 125.239C10.9712 126.292 11.707 127.049 12.8887 127.055C14.0649 127.049 14.79 126.292 14.79 125.239V120.223ZM23.56 120.223V128H22.475L18.5326 122.317H18.4682V128H17.2865V120.223H18.3822L22.3246 125.916H22.3998V120.223H23.56ZM27.077 125.035C27.0662 127.065 26.4915 128.747 25.4871 130.191H24.4344C25.1756 129.123 25.8846 126.958 25.8846 125.035C25.8846 123.118 25.1756 120.953 24.4344 119.89H25.4871C26.4915 121.329 27.0662 123.01 27.077 125.035ZM9.71973 143V135.223H14.7041V136.394H11.1162V138.521H14.3604V139.691H11.1162V143H9.71973ZM15.4604 143V137.167H16.7924V138.134H16.8568C17.0663 137.462 17.6249 137.081 18.2963 137.081C18.4467 137.081 18.6615 137.097 18.7904 137.113V138.381C18.6669 138.338 18.3822 138.3 18.1566 138.295C17.3939 138.3 16.8354 138.827 16.8354 139.562V143H15.4604ZM21.6844 143.118C19.9817 143.118 18.8914 141.91 18.8914 140.11C18.8914 138.295 19.9817 137.092 21.6844 137.092C23.3924 137.092 24.4827 138.295 24.4773 140.11C24.4827 141.91 23.3924 143.118 21.6844 143.118ZM20.2771 140.1C20.2771 141.168 20.7444 142.022 21.6951 142.022C22.6297 142.022 23.097 141.168 23.0916 140.1C23.097 139.031 22.6297 138.171 21.6951 138.177C20.7444 138.171 20.2771 139.031 20.2771 140.1ZM25.2658 143V137.167H26.5764V138.155H26.6516C26.8933 137.489 27.4787 137.092 28.2521 137.092C29.0417 137.092 29.611 137.495 29.8312 138.155H29.8957C30.1481 137.511 30.798 137.092 31.6467 137.092C32.7155 137.092 33.4675 137.779 33.4621 139.079V143H32.0979V139.294C32.0979 138.569 31.6574 138.241 31.0988 138.241C30.4274 138.241 30.0354 138.698 30.0354 139.358V143H28.7033V139.24C28.6979 138.633 28.3005 138.241 27.715 138.241C27.1242 138.241 26.6408 138.73 26.6408 139.455V143H25.2658ZM35.3463 143.086C34.8844 143.086 34.503 142.71 34.5084 142.248C34.503 141.797 34.8844 141.426 35.3463 141.421C35.7921 141.426 36.1734 141.797 36.1734 142.248C36.1734 142.71 35.7921 143.086 35.3463 143.086ZM42.5307 135.642C42.5253 136.963 43.2987 138.171 44.8187 138.649L44.1742 139.584C43.1161 139.208 42.3749 138.499 41.9613 137.581C41.5316 138.639 40.7206 139.471 39.5443 139.885L38.9105 138.918C40.5165 138.392 41.3222 137.097 41.3275 135.695V134.771H42.5307V135.642ZM40.5219 142.087C40.5111 140.905 41.7733 140.212 43.8197 140.218C45.8769 140.212 47.1337 140.905 47.1391 142.087C47.1337 143.269 45.8769 143.945 43.8197 143.945C41.7733 143.945 40.5111 143.269 40.5219 142.087ZM41.7035 142.087C41.6981 142.678 42.4716 143.005 43.8197 143.011C45.1786 143.005 45.9467 142.678 45.9467 142.087C45.9467 141.475 45.1786 141.147 43.8197 141.142C42.4716 141.147 41.6981 141.475 41.7035 142.087ZM43.9809 137.103V136.125H45.9145V134.245H47.1068V139.96H45.9145V137.103H43.9809ZM52.6219 134.793C54.7059 134.798 56.2474 135.835 56.242 137.414C56.2474 138.87 54.9959 139.842 53.2127 140.019V141.797H57.0799V142.774H48.2068V141.797H52.0311V140.019C50.2693 139.842 49.0179 138.87 49.0232 137.414C49.0179 135.835 50.554 134.798 52.6219 134.793ZM50.1941 137.414C50.1888 138.461 51.2039 139.09 52.6219 139.09C54.0613 139.09 55.0711 138.461 55.0711 137.414C55.0711 136.399 54.0613 135.754 52.6219 135.76C51.2039 135.754 50.1888 136.399 50.1941 137.414Z" fill="#1A1C20"/>
<path d="M91.0796 26.4889C89.5491 26.4889 88.879 23.8306 88.4927 22.9197C87.8097 21.309 83.0506 12.541 86.6591 11.8193C87.8101 11.5891 88.863 12.4112 89.6552 13.1291C93.0449 16.2011 94.0887 9.11577 97.3665 11.2136C98.4238 11.8902 97.9651 13.2678 97.4975 14.1606C97.0272 15.0584 96.4174 15.9017 95.7948 16.6983C92.6132 20.7684 89.1219 24.6204 85.775 28.5518" stroke="#D63414" stroke-linecap="round"/>
</svg>
