<svg width="105" height="160" viewBox="0 0 105 160" fill="none" xmlns="http://www.w3.org/2000/svg">
<rect width="105" height="160" rx="5.0392" fill="#FFDBF0"/>
<path d="M30.1607 53.7691C28.0563 55.2768 26.0678 56.8383 24.2744 58.6013C20.0481 62.756 18.7996 69.2368 17.1503 74.2267C14.551 82.0906 11.0511 90.2403 17.2878 97.394C28.0314 109.717 43.3258 114.241 61.0778 109.768C68.1785 107.979 75.6008 105.365 80.6072 100.691C85.6479 95.9848 91.376 90.8973 95.4056 85.562C97.8056 82.3843 98.9787 78.0524 98.2113 74.3622C97.5915 71.3826 95.6167 68.9098 94.2503 66.143C90.6176 58.787 82.8884 54.4907 74.3358 51.3079C64.8189 47.7662 53.5896 44.0105 42.9237 46.0467C39.0173 46.7924 34.9121 49.3058 32.4163 51.9401C31.8751 52.5113 32.003 53.2729 31.316 53.8594C30.6347 54.4411 29.1937 54.9884 30.6559 54.9884" stroke="#FF9061" stroke-width="2" stroke-linecap="round"/>
<path d="M46.7099 45.915C43.288 45.915 40.2443 46.1341 36.963 47.2214C36.8362 47.2634 32.6374 49.0178 34.0335 49.4804C35.5638 49.9875 37.7686 49.5893 39.345 49.5893C40.0729 49.5893 41.0241 49.7223 41.7543 49.4804C43.8836 48.7748 46.0873 47.2818 48.3252 47.0037C48.3996 46.9944 47.774 47.4505 47.6407 47.5752C45.6177 49.468 43.4728 51.3204 41.7269 53.4812C40.6816 54.775 39.8506 56.2195 38.8521 57.5365C38.332 58.2226 36.6071 59.5488 36.6071 60.5031C36.6071 60.8807 37.2104 60.0411 37.538 59.8499C39.1339 58.9184 40.7469 58.0135 42.384 57.1555C43.9296 56.3454 45.0228 56.0762 46.0528 54.706C46.5802 54.0043 48.3353 52.7328 48.4347 51.7938C48.4939 51.2349 48.4347 50.6404 48.4347 50.0791C48.4347 49.2902 48.3814 49.4676 48.6811 50.0791C49.5784 51.91 50.7366 53.3844 52.0761 54.9237C52.2547 55.1289 55.3013 59.1113 55.7722 58.108C56.2229 57.148 55.0814 54.8364 54.7318 53.9711C54.21 52.6794 53.6261 50.6332 52.6237 49.5893C52.0661 49.0086 51.0716 48.6592 50.406 48.174C50.2987 48.0958 51.4461 48.1196 51.4464 48.1196C53.0721 48.1362 54.6944 48.2701 56.3198 48.3101C60.6844 48.4175 65.0218 48.3079 69.3795 48.1196C70.3888 48.0759 69.3051 47.5261 68.9415 47.3847C64.9131 45.8177 58.93 46.4989 54.8414 47.3847C52.4865 47.8949 49.9569 47.9007 47.5586 48.0651C46.6426 48.1279 46.6755 48.0518 47.011 47.3847C47.5399 46.3333 47.4285 44.9047 47.8871 43.7649C48.3737 42.5557 49.6668 38.9788 49.6668 40.2812C49.6668 41.448 49.6687 42.5833 49.4751 43.7377C49.3075 44.7374 49.1731 45.8102 48.818 46.7587C48.6316 47.2567 48.1708 49.3095 47.9419 48.8544" stroke="#39E7BA" stroke-width="2" stroke-linecap="round"/>
<path d="M38.4191 52.4224C37.0236 55.012 35.5867 57.5858 34.2143 60.185C34.1266 60.3512 30.9353 65.6312 33.0135 64.1052C38.1617 60.3248 42.5071 55.094 48.0936 51.8846C49.0099 51.3582 47.4828 53.7865 46.9358 54.639C45.0923 57.5123 43.2047 60.2964 41.2794 63.1312C38.3284 67.476 35.253 71.7645 32.5038 76.2154C31.59 77.6947 30.8433 79.3426 29.7377 80.7236C28.9172 81.7485 27.2485 83.2505 26.8383 84.4449C26.5709 85.2232 26.0113 85.8912 25.5345 86.5839C25.3778 86.8115 27.6307 84.323 28.4269 83.731C33.3124 80.0982 37.8586 76.1344 42.6191 72.3711C46.428 69.3601 49.7331 65.6244 53.7315 62.8493C55.571 61.5726 54.229 62.8075 53.2867 63.5567C44.77 70.3281 37.5962 78.9118 31.1023 87.2612C27.5113 91.8782 24.867 96.9313 21.583 101.701C21.1757 102.293 17.2474 107.205 19.6417 104.858C26.7137 97.9287 34.3725 91.5269 41.9924 85.1109C49.9954 78.3724 57.9367 71.4597 66.7046 65.5495C68.2636 64.4986 70.0648 63.7443 71.6468 62.6917C72.9128 61.8494 78.239 58.6813 74.0297 61.2838C64.0424 67.4587 55.3822 75.1059 47.2789 83.2549C42.3684 88.1929 37.3036 93.4699 33.7754 99.3145C33.2519 100.182 29.3464 104.254 32.2628 102.37C43.2216 95.2883 53.5482 87.3896 64.6174 80.4414C69.1992 77.5654 83.5384 69.8133 78.7327 72.3499C76.6546 73.4468 74.734 75.1387 72.9351 76.5421C66.4706 81.5854 60.3819 86.9672 54.4295 92.5125C49.9533 96.6825 45.5116 100.899 41.3579 105.34C40.3987 106.365 37.3065 108.708 38.7501 108.607C39.6643 108.543 41.4754 107.466 42.1345 107.154C46.8746 104.913 51.4376 102.42 55.9419 99.7854C63.0524 95.6268 70.1591 91.3963 77.1697 87.0934C78.2512 86.4296 75.1727 88.6292 74.2087 89.433C70.2161 92.7621 66.4799 96.3086 62.8588 99.9741C60.934 101.922 58.7384 103.96 57.0704 106.114C55.9933 107.505 61.4312 104.946 61.4762 104.924C67.1524 102.255 72.2276 98.3464 78.0536 95.984C79.6762 95.326 73.5473 100.291 73.2738 100.537C70.7282 102.826 68.3078 105.228 66.0338 107.743C65.6675 108.148 64.291 109.293 64.2545 109.899C64.2234 110.415 68.9067 107.278 69.1319 107.105" stroke="#FF9061" stroke-width="2" stroke-linecap="round"/>
<path d="M50.8083 78.3023C51.1953 79.1597 52.2059 81.801 53.5979 80.4302C54.4361 79.6046 54.7558 79.1176 54.6618 77.9893C54.5808 77.0167 51.5483 76.6614 51.1302 77.4976" stroke="#2C2C2C" stroke-width="2" stroke-linecap="round"/>
<path d="M54.9928 74.6006C53.6587 76.4938 52.0489 78.3895 51.0768 80.5104C51.002 80.6736 50.9695 81.0379 50.9695 81.0379" stroke="#2C2C2C" stroke-width="2" stroke-linecap="round"/>
<path d="M60.1426 76.2101C61.1223 77.8624 62.0268 78.6882 63.9513 78.6241C64.9257 78.5916 65.2111 76.9946 64.7113 76.2726C63.681 74.7844 61.9215 74.9835 60.4644 75.5663" stroke="#2C2C2C" stroke-width="2" stroke-linecap="round"/>
<path d="M64.6485 72.6694C63.831 74.5523 63.5073 76.4045 62.2703 78.1054C61.6296 78.9863 61.041 79.8892 60.4285 80.7877C60.2347 81.0719 60.3033 80.5052 60.3033 80.3943" stroke="#2C2C2C" stroke-width="2" stroke-linecap="round"/>
<path d="M53.7053 86.6709C53.7135 88.752 53.3849 91.2352 54.0272 93.2692C54.0947 93.4831 54.3563 94.2637 54.1881 93.5911" stroke="#2C2C2C" stroke-width="2" stroke-linecap="round"/>
<path d="M53.3833 86.6709C56.951 86.6709 60.3663 85.947 63.8977 85.4549C64.9806 85.304 66.0486 85.0462 67.1342 84.9185C67.7055 84.8513 67.5379 85.6616 67.5455 86.045C67.5786 87.718 68.1013 89.3215 68.1803 90.9803C68.199 91.3726 68.4063 92.5514 68.0998 92.8579C67.8247 93.133 66.8149 92.9406 66.4905 92.9473C64.903 92.9802 63.3388 93.3057 61.7787 93.5732C59.9121 93.8931 58.1681 93.9129 56.2712 93.9129C55.6103 93.9129 55.1536 94.1366 55.1536 93.4301" stroke="#2C2C2C" stroke-width="2" stroke-linecap="round"/>
<path d="M54.3491 90.8552C56.6829 90.8552 59.1304 91.0566 61.457 90.7658C62.4486 90.6418 63.4374 90.458 64.4343 90.3813C65.3716 90.3092 66.2928 90.3976 67.2238 90.2114" stroke="#2C2C2C" stroke-width="2" stroke-linecap="round"/>
<path d="M57.2458 86.6709V90.2114" stroke="#2C2C2C" stroke-width="2" stroke-linecap="round"/>
<path d="M56.7629 90.5332C56.7629 91.661 56.9239 95.0406 56.9239 93.9128" stroke="#2C2C2C" stroke-width="2" stroke-linecap="round"/>
<path d="M60.1427 86.5103C60.1427 87.7679 60.1427 89.0256 60.1427 90.2833C60.1427 90.7611 60.123 91.2282 60.2322 91.6959C60.2943 91.9622 60.3244 92.0632 60.3663 92.3396C60.4696 93.0218 60.3468 92.4217 60.3037 92.4648" stroke="#2C2C2C" stroke-width="2" stroke-linecap="round"/>
<path d="M64.1662 85.8662C64.1662 87.6122 63.986 89.4717 64.3271 91.177" stroke="#2C2C2C" stroke-width="2" stroke-linecap="round"/>
<path d="M58.2114 69.612C56.9529 69.8262 55.7059 69.7314 54.4384 69.773C52.1 69.8496 49.7921 70.896 48.162 72.5446C47.4441 73.2706 47.2352 73.9675 46.8745 74.8692C46.5252 75.7424 45.9565 76.4571 45.7837 77.3726C45.3814 79.5047 44.476 82.3628 45.9804 84.2212C46.6961 85.1054 47.7195 85.6796 48.4749 86.519C49.9907 88.2032 49.5462 90.9063 50.0038 92.9653C50.8955 96.9781 56.2688 96.893 59.4274 96.8099C60.25 96.7882 61.1996 96.2102 61.9844 95.9694C62.8591 95.701 63.7237 95.487 64.5236 95.0396C65.9051 94.2669 67.303 93.5502 68.6364 92.6613C70.0024 91.7507 69.9458 88.7393 69.5662 87.3684C69.2628 86.2727 68.3723 85.2426 68.3502 84.0961C68.3351 83.3073 68.272 82.4666 68.3592 81.6821C68.4576 80.7962 69.3606 79.904 69.7987 79.1697C70.5206 77.9594 70.6656 76.9026 70.5944 75.5129C70.5092 73.852 68.5338 71.8821 67.2237 70.9889C65.995 70.1512 64.6138 69.3883 63.2093 68.8968C61.634 68.3454 59.6214 68.6541 58.0505 68.9683" stroke="#2C2C2C" stroke-width="2" stroke-linecap="round"/>
<path d="M45.6585 76.5321C43.1306 75.8643 40.8213 74.3586 38.6222 72.9915C38.4722 72.8983 38.1924 72.9601 38.1304 72.7948C37.8103 71.9413 38.1112 70.7429 37.9248 69.8265C37.668 68.5639 36.1016 68.0611 35.1353 68.8788C34.3844 69.5141 34.57 70.9418 34.3574 71.8114C34.3192 71.9676 31.6153 76.1143 31.7288 76.1745C32.6657 76.6705 33.8553 75.5638 34.8044 75.7364C36.3409 76.0157 37.6838 76.3424 39.1586 76.8629C41.0513 77.5309 42.6104 78.6274 44.532 79.268" stroke="#2C2C2C" stroke-width="2" stroke-linecap="round"/>
<path d="M67.7065 70.8995C67.4295 70.8204 68.9113 69.2193 69.0834 69.0041C69.5918 68.3687 69.9274 67.5562 70.3351 66.8583C70.5818 66.436 71.0014 65.9381 71.1398 65.4635C71.3318 64.8051 70.8324 64.0183 70.657 63.4072C70.4136 62.5594 71.0567 62.5877 71.6941 62.4326C72.1432 62.3234 73.4998 61.705 73.8846 62.218C74.1142 62.5242 73.9829 63.1728 73.9829 63.5323C73.9829 64.3479 73.9658 64.8879 74.6714 65.3652C75.2747 65.7733 76.7099 66.1162 77.0049 66.8404C77.1129 67.1054 77.4437 68.3328 77.1659 68.6107C77.0392 68.7374 76.4316 68.6465 76.2897 68.6465C75.3896 68.6465 74.4896 68.6465 73.5896 68.6465C73.419 68.6465 72.7554 68.3967 72.7044 68.5749C72.5152 69.2372 71.9788 69.5252 71.4438 69.9965C71.0758 70.3207 70.8073 70.8806 70.4156 71.1499C69.7925 71.5782 69.2104 71.9706 68.6721 72.5089" stroke="#2C2C2C" stroke-width="2" stroke-linecap="round"/>
<path d="M49.3602 88.1191C48.0739 89.4269 47.2364 90.874 46.1237 92.3213C45.3927 93.272 44.3893 95.175 43.0838 95.4506C41.5276 95.7791 39.904 94.8428 38.2915 95.1466C36.5865 95.4678 36.4842 97.632 37.9429 98.41C38.6789 98.8025 39.6259 98.9082 40.2228 99.5365C40.6012 99.9349 40.747 100.734 40.9201 101.244C41.3091 102.389 41.6695 102.925 42.9229 102.925C43.8475 102.925 44.6931 102.697 44.6931 101.691C44.6931 101.233 44.5752 100.599 44.7289 100.153C44.9303 99.5693 45.3366 99.1088 45.5872 98.562C46.0605 97.5294 46.7176 96.3945 47.5184 95.5936C48.0445 95.0675 49.1993 94.1856 49.1993 93.43" stroke="#2C2C2C" stroke-width="2" stroke-linecap="round"/>
<path d="M70.4423 87.7972C72.434 87.7972 74.308 87.7174 76.2269 88.1012C77.643 88.3844 77.1452 86.2767 78.2207 85.6335C79.2546 85.0152 80.506 84.3381 80.7242 85.9196C80.8465 86.8063 80.5299 87.3077 80.295 88.119C79.7855 89.8791 81.101 90.2906 81.7076 91.6954C81.9186 92.184 82.1904 92.6595 82.1904 93.1974C82.1904 93.4798 81.8767 94.537 81.5467 94.5564C80.5568 94.6146 79.3643 94.1103 78.6499 93.4299C78.2476 93.0467 77.3138 92.6395 77.2104 92.0709C77.1181 91.563 76.8005 91.3923 76.4326 91.0516C75.9401 90.5956 75.0053 90.9692 74.4209 91.0069C73.7422 91.0507 73.0536 91.0159 72.3735 91.0159C71.8258 91.0159 69.3843 91.3824 69.1548 90.694" stroke="#2C2C2C" stroke-width="2" stroke-linecap="round"/>
<path d="M67.8674 96.4878C67.8674 97.585 67.4201 100.01 69.2264 100.01C70.314 100.01 69.8703 97.8548 69.5483 97.3461C69.1627 96.7368 68.5142 96.3328 68.1893 95.6831" stroke="#B072F8" stroke-width="2" stroke-linecap="round"/>
<path d="M73.0172 97.1314C73.0172 99.805 72.9498 102.487 73.0262 105.16C73.0748 106.863 73.8743 108.633 74.6266 110.131C75.029 110.933 75.8149 111.474 76.674 110.847C78.7994 109.293 77.5827 106.503 76.9869 104.588C76.1081 101.763 74.4734 99.4001 73.1782 96.8096" stroke="#B072F8" stroke-width="2" stroke-linecap="round"/>
<path d="M59.9816 110.811C58.0207 111.669 55.1553 112.417 53.7052 114.137C51.9308 116.242 54.1702 116.742 55.8867 117.007C57.3442 117.232 59.927 117.112 60.9293 118.429C61.3024 118.919 61.424 120.647 61.9665 120.869C62.6235 121.138 63.4369 121.115 64.1301 121.111C66.1158 121.099 68.086 120.874 70.04 120.53C71.7985 120.219 73.5479 119.711 75.3419 119.662C75.8913 119.647 76.7331 119.513 77.2462 119.788C79.002 120.728 80.5752 120.978 82.5839 120.95C86.5018 120.895 90.5502 120.126 94.0638 118.357C94.8254 117.974 96.1805 117.392 94.94 116.801C93.4885 116.11 92.4888 114.942 91.2028 114.03C90.684 113.662 90.4 113.522 90.7379 112.894C91.1964 112.043 91.9562 111.327 92.5618 110.579C93.9049 108.919 90.0687 108.65 89.2179 108.558C86.918 108.309 85.0873 107.261 85.0873 104.856C85.0873 101.863 82.0517 101.587 79.6155 101.316" stroke="#B072F8" stroke-width="2" stroke-linecap="round"/>
<path d="M66.4189 110.006C66.0642 110.146 65.6245 110.157 65.3549 110.426C65.107 110.674 66.0131 110.184 66.3473 110.078C67.3574 109.758 68.358 109.4 69.3872 109.148C70.7151 108.823 74.8866 107.7 72.7489 110.578C71.3893 112.409 69.4136 113.783 67.9567 115.55C67.4183 116.202 66.9762 116.951 66.4546 117.624C66.2328 117.91 66.2015 117.936 66.4636 117.794C67.4855 117.24 68.6453 116.892 69.7269 116.488C72.599 115.415 75.4727 114.32 78.3011 113.136C79.7464 112.531 79.2387 112.892 78.3458 113.726C76.2218 115.709 74.0133 117.604 71.9264 119.627C71.5972 119.946 71.2806 120.285 70.9161 120.565C70.344 121.005 72.0941 119.731 72.6953 119.332C75.5795 117.416 78.6535 115.834 81.7702 114.334C82.6688 113.901 83.5912 113.429 84.5507 113.136C84.6393 113.108 84.8817 113.078 84.8279 113.153C84.3186 113.866 83.4291 114.471 83.1917 115.353C83.0758 115.784 84.8648 115.339 84.8905 115.335C86.9907 115.022 89.1271 114.549 91.2653 114.682C91.932 114.724 90.8893 115.545 90.7735 115.648C89.993 116.342 89.1589 116.973 88.3059 117.57" stroke="#B072F8" stroke-width="2" stroke-linecap="round"/>
<path d="M25.5419 95.039C24.3685 94.0567 23.9712 93.0704 23.414 91.6773C23.0312 90.7203 22.6362 89.6786 22.6093 88.6374C22.5402 85.9653 22.7994 82.3881 24.4153 80.1437C25.1746 79.0892 25.3216 80.9767 25.372 81.3418C25.5059 82.3123 25.5419 83.2789 25.5419 84.2565C25.5419 85.5045 25.5012 86.7694 25.7296 88.0026C26.1098 90.0558 27.3736 91.8412 28.3493 93.6532C28.7224 94.3462 27.6067 95.1726 27.3122 94.8781" stroke="white" stroke-width="2" stroke-linecap="round"/>
<path d="M29.7261 98.7409C29.7261 99.7272 29.3981 100.932 30.495 101.405C31.6869 101.92 32.7859 101.377 33.0521 99.9926C33.2016 99.2149 31.9568 98.2441 31.3712 97.8468C30.9983 97.5937 30.8738 98.076 30.6917 98.2581" stroke="white" stroke-width="2" stroke-linecap="round"/>
</svg>
