<svg width="105" height="160" viewBox="0 0 105 160" fill="none" xmlns="http://www.w3.org/2000/svg">
<rect width="105" height="160" rx="5.0392" fill="#DECAF6"/>
<path d="M19.946 49.2139L21.4499 44.6064L17.5397 41.7764H22.3659L23.8562 37.1689L25.3601 41.7764H30.1999L26.2761 44.6064L27.7937 49.2139L23.8562 46.3701L19.946 49.2139ZM74.4749 49.2139L75.9788 44.6064L72.0687 41.7764H76.8948L78.3851 37.1689L79.889 41.7764H84.7288L80.805 44.6064L82.3226 49.2139L78.3851 46.3701L74.4749 49.2139ZM14.9038 58.0576C16.7495 58.0713 18.1099 59.1992 18.1167 60.8057C18.1099 62.4189 16.7495 63.54 14.9038 63.54C13.0376 63.54 11.6841 62.4189 11.6772 60.8057C11.6841 59.1992 13.0376 58.0713 14.9038 58.0576ZM12.9487 60.8057C12.9419 61.8174 13.7759 62.4873 14.9038 62.4873C16.0249 62.4873 16.8589 61.8174 16.8589 60.8057C16.8589 59.8076 16.0249 59.1377 14.9038 59.1514C13.7759 59.1377 12.9419 59.8076 12.9487 60.8057ZM13.5366 65.4814V64.4424H21.5894V67.5322H14.8354V68.708H21.9995V69.7471H13.5776V66.5615H20.3042V65.4814H13.5366ZM20.2905 63.8818V57.6475H21.5894V63.8818H20.2905ZM27.6788 60.7646C27.6651 63 29.0187 65.2559 30.919 66.0967L30.1397 67.1221C28.7315 66.4521 27.6173 65.0781 27.0431 63.4033C26.4757 65.2012 25.3478 66.6777 23.878 67.3955L23.0851 66.3018C25.0128 65.4473 26.3663 63.1025 26.3663 60.7646V58.6729H27.6788V60.7646ZM32.0265 69.9248V57.6475H33.3253V69.9248H32.0265ZM39.3929 68.8311C38.8597 68.8242 38.4153 68.3936 38.4222 67.8604C38.4153 67.3271 38.8597 66.8896 39.3929 66.8896C39.9192 66.8896 40.3567 67.3271 40.3636 67.8604C40.3567 68.3936 39.9192 68.8242 39.3929 68.8311ZM38.4222 62.46C38.4153 61.9268 38.8597 61.4893 39.3929 61.4893C39.9192 61.4893 40.3567 61.9268 40.3636 62.46C40.3567 62.9932 39.9192 63.4238 39.3929 63.4307C38.8597 63.4238 38.4153 62.9932 38.4222 62.46ZM54.1968 58.2627V59.1924C54.2036 60.1494 54.2036 61.2568 53.8823 62.7334H55.6187V63.7998H44.4077V62.7334H52.5698C52.8979 61.3047 52.9116 60.2588 52.9116 59.3291H45.8159V58.2627H54.1968ZM45.7749 69.7471V65.3584H54.2104V69.7471H45.7749ZM47.0464 68.6943H52.9253V66.3838H47.0464V68.6943ZM67.3683 67.2861V68.3662H56.1573V67.2861H58.837V64.0869C57.8321 63.5332 57.2169 62.6582 57.2237 61.5576C57.2169 59.6299 59.1105 58.3652 61.7355 58.3584C64.3673 58.3652 66.2608 59.6299 66.2608 61.5576C66.2608 62.6377 65.673 63.5059 64.6886 64.0596V67.2861H67.3683ZM58.4815 61.5576C58.4815 62.8701 59.8146 63.7246 61.7355 63.7314C63.6427 63.7246 64.9962 62.8701 65.003 61.5576C64.9962 60.2383 63.6427 59.3975 61.7355 59.3975C59.8146 59.3975 58.4815 60.2383 58.4815 61.5576ZM60.1222 67.2861H63.3761V64.5654C62.8771 64.6816 62.3233 64.7432 61.7355 64.7432C61.1612 64.7432 60.6144 64.6816 60.1222 64.5654V67.2861ZM71.3796 58.0576C73.2253 58.0713 74.5856 59.1992 74.5925 60.8057C74.5856 62.4189 73.2253 63.54 71.3796 63.54C69.5134 63.54 68.1599 62.4189 68.153 60.8057C68.1599 59.1992 69.5134 58.0713 71.3796 58.0576ZM69.4245 60.8057C69.4177 61.8174 70.2517 62.4873 71.3796 62.4873C72.5007 62.4873 73.3347 61.8174 73.3347 60.8057C73.3347 59.8076 72.5007 59.1377 71.3796 59.1514C70.2517 59.1377 69.4177 59.8076 69.4245 60.8057ZM70.0124 65.4814V64.4424H78.0651V67.5322H71.3112V68.708H78.4753V69.7471H70.0534V66.5615H76.78V65.4814H70.0124ZM76.7663 63.8818V57.6475H78.0651V63.8818H76.7663ZM19.9761 78.8369L19.9761 88.7354H18.5952L13.5776 81.5029H13.4956V88.7354H11.9917L11.9917 78.8369H13.3862L18.4038 86.083H18.4995V78.8369H19.9761ZM21.5265 88.7354L21.5265 81.3115H22.9894L22.9894 88.7354H21.5265ZM21.3351 79.3018C21.3419 78.8232 21.7589 78.4404 22.2647 78.4404C22.7638 78.4404 23.1808 78.8232 23.1808 79.3018C23.1808 79.7803 22.7638 80.1699 22.2647 80.1631C21.7589 80.1699 21.3419 79.7803 21.3351 79.3018ZM27.5339 91.6748C25.6608 91.6748 24.4235 90.8477 24.2937 89.46H25.7839C25.9274 90.1641 26.5837 90.5059 27.5476 90.499C28.7097 90.5059 29.4411 90 29.4479 88.8447V87.3818H29.3522C29.0925 87.8604 28.5593 88.626 27.1921 88.626C25.4421 88.626 24.0886 87.3203 24.0886 84.9482C24.0886 82.5762 25.4216 81.2158 27.2058 81.2158C28.5866 81.2158 29.0925 82.0498 29.3659 82.5146H29.4616V81.3115H30.8835V88.8994C30.8903 90.8066 29.4479 91.6748 27.5339 91.6748ZM25.5788 84.9756C25.572 86.4316 26.2419 87.416 27.5202 87.4229C28.7644 87.416 29.4616 86.5068 29.4616 84.9756C29.4616 83.4717 28.778 82.4531 27.5202 82.46C26.2282 82.4531 25.572 83.5537 25.5788 84.9756ZM33.7737 84.333V88.7354H32.3108V78.8369H33.7464V82.5283H33.8421C34.1907 81.7217 34.888 81.2158 36.0433 81.2158C37.5677 81.2158 38.5862 82.1592 38.5862 84.0186V88.7354H37.1233V84.1963C37.1233 83.1025 36.5354 82.4736 35.5511 82.4736C34.5188 82.4736 33.7737 83.1504 33.7737 84.333ZM43.4726 81.3115V82.4736H41.955V86.5479C41.9618 87.3887 42.372 87.5391 42.8437 87.5459C43.0556 87.5459 43.3769 87.5254 43.5819 87.5049V88.7764C43.3837 88.8037 43.0692 88.8311 42.6659 88.8311C41.5243 88.8311 40.4921 88.2021 40.5058 86.8486V82.4736H39.412V81.3115H40.5058V79.5342H41.955V81.3115H43.4726ZM50.4562 78.5635C52.2882 78.5703 53.5938 80.2383 53.6007 82.8564C53.5938 85.502 52.2882 87.1699 50.4562 87.1631C48.6241 87.1699 47.3185 85.502 47.3253 82.8564C47.3185 80.2383 48.6241 78.5703 50.4562 78.5635ZM48.5694 82.8564C48.5626 84.8047 49.3419 86.001 50.4562 86.001C51.5909 86.001 52.3565 84.8047 52.3565 82.8564C52.3565 80.9355 51.5909 79.7324 50.4562 79.7256C49.3419 79.7324 48.5626 80.9355 48.5694 82.8564ZM55.419 89.8975V77.6475H56.7179V82.4463H58.6866V83.54H56.7179V89.8975H55.419ZM61.5905 85.7549V86.7529H67.3874V85.7549H68.6862V89.7471H60.3054V85.7549H61.5905ZM58.9245 85.208V84.1553H63.8601V83.3623C61.6794 83.2666 60.4763 82.6992 60.4831 81.6943C60.4763 80.5596 61.9187 79.999 64.5026 79.9854C67.0935 79.999 68.529 80.5596 68.5222 81.6943C68.529 82.6992 67.3327 83.2666 65.1589 83.3623V84.1553H70.0944V85.208H58.9245ZM59.4987 79.5889V78.5771H63.8601V77.4834H65.1589V78.5771H69.4655V79.5889H59.4987ZM61.5905 88.7627H67.3874V87.71H61.5905V88.7627ZM61.8776 81.6943C61.8708 82.2207 62.7731 82.4736 64.5026 82.4736C66.2458 82.4736 67.1413 82.2207 67.1413 81.6943C67.1413 81.1543 66.2458 80.8877 64.5026 80.8877C62.7731 80.8877 61.8708 81.1543 61.8776 81.6943ZM75.1722 80.7646C75.1585 83 76.512 85.2559 78.4124 86.0967L77.6331 87.1221C76.2249 86.4521 75.1106 85.0781 74.5364 83.4033C73.969 85.2012 72.8411 86.6777 71.3714 87.3955L70.5784 86.3018C72.5062 85.4473 73.8597 83.1025 73.8597 80.7646V78.6729H75.1722V80.7646ZM79.5198 89.9248V77.6475H80.8187V89.9248H79.5198ZM15.7104 99.9033C15.7036 101.462 16.7905 102.884 18.6499 103.472L18.0347 104.483C16.6401 104.039 15.6216 103.116 15.0815 101.954C14.5483 103.294 13.4751 104.354 12.0054 104.866L11.3354 103.827C13.2495 103.198 14.4048 101.619 14.4116 99.917V99.5752H11.7183V98.5225H18.3491V99.5752H15.7104V99.9033ZM12.9897 107.573C12.9897 106.138 14.5552 105.297 17.105 105.304C19.6274 105.297 21.1655 106.138 21.1655 107.573C21.1655 109.029 19.6274 109.877 17.105 109.87C14.5552 109.877 12.9897 109.029 12.9897 107.573ZM14.2886 107.573C14.2817 108.394 15.3345 108.852 17.105 108.845C18.8618 108.852 19.9009 108.394 19.894 107.573C19.9009 106.773 18.8618 106.322 17.105 106.329C15.3345 106.322 14.2817 106.773 14.2886 107.573ZM19.7573 105.003V97.6475H21.0562V100.683H22.8335V101.749H21.0562V105.003H19.7573ZM34.3917 107.272V108.339H23.1808V107.272H28.089V104.36H29.3741V107.272H34.3917ZM23.5636 103.513C25.922 103.116 28.0274 101.298 28.0343 99.3564V98.4268H29.4015V99.3564C29.4015 101.298 31.5343 103.116 33.8995 103.513L33.339 104.579C31.3497 104.189 29.5313 102.959 28.7247 101.284C27.9181 102.952 26.1134 104.189 24.1378 104.579L23.5636 103.513ZM39.3929 108.831C38.8597 108.824 38.4153 108.394 38.4222 107.86C38.4153 107.327 38.8597 106.89 39.3929 106.89C39.9192 106.89 40.3567 107.327 40.3636 107.86C40.3567 108.394 39.9192 108.824 39.3929 108.831ZM38.4222 102.46C38.4153 101.927 38.8597 101.489 39.3929 101.489C39.9192 101.489 40.3567 101.927 40.3636 102.46C40.3567 102.993 39.9192 103.424 39.3929 103.431C38.8597 103.424 38.4153 102.993 38.4222 102.46ZM46.2944 98.3721V100.3H49.3569V98.3721H50.6421V99.5615H53.3218V97.6475H54.6206V104.935H53.3218V103.116H50.6421V104.278H44.9956V98.3721H46.2944ZM46.2944 103.226H49.3569V101.325H46.2944V103.226ZM46.3218 106.589V105.55H54.6206V109.897H53.3218V106.589H46.3218ZM50.6421 102.063H53.3218V100.614H50.6421V102.063ZM66.0147 100.778V101.817H62.3917V102.87H67.3272V103.909H56.1573V102.87H61.0929V101.817H57.6202V98.0986H65.8917V99.1514H58.919V100.778H66.0147ZM57.4972 105.796V104.825H65.919V107.683H58.7823V108.763H66.2608V109.774H57.5108V106.753H64.6339V105.796H57.4972ZM73.4304 105.345C76.0827 105.345 77.7575 106.186 77.7644 107.614C77.7575 109.036 76.0827 109.877 73.4304 109.87C70.8054 109.877 69.1237 109.036 69.1237 107.614C69.1237 106.186 70.8054 105.345 73.4304 105.345ZM67.9206 104.333V103.28H72.3913V100.983H73.6628V103.28H79.0632V104.333H67.9206ZM69.2194 99.2881V98.249H77.6687V99.2744C77.6755 100.252 77.6755 101.264 77.3269 102.528L76.0554 102.392C76.3835 101.141 76.3835 100.238 76.3835 99.2881H69.2194ZM70.4226 107.614C70.4089 108.407 71.5778 108.865 73.4304 108.872C75.3034 108.865 76.4655 108.407 76.4792 107.614C76.4655 106.808 75.3034 106.336 73.4304 106.329C71.5778 106.336 70.4089 106.808 70.4226 107.614ZM83.9358 99.9033C83.929 101.462 85.0159 102.884 86.8753 103.472L86.2601 104.483C84.8655 104.039 83.847 103.116 83.3069 101.954C82.7737 103.294 81.7005 104.354 80.2308 104.866L79.5608 103.827C81.4749 103.198 82.6302 101.619 82.637 99.917V99.5752H79.9436V98.5225H86.5745V99.5752H83.9358V99.9033ZM81.2151 107.573C81.2151 106.138 82.7806 105.297 85.3304 105.304C87.8528 105.297 89.3909 106.138 89.3909 107.573C89.3909 109.029 87.8528 109.877 85.3304 109.87C82.7806 109.877 81.2151 109.029 81.2151 107.573ZM82.514 107.573C82.5071 108.394 83.5599 108.852 85.3304 108.845C87.0872 108.852 88.1263 108.394 88.1194 107.573C88.1263 106.773 87.0872 106.322 85.3304 106.329C83.5599 106.322 82.5071 106.773 82.514 107.573ZM87.9827 105.003V97.6475H89.2815V100.683H91.0589V101.749H89.2815V105.003H87.9827Z" fill="#1A1C20"/>
<path d="M43.705 43.2939V44.333H39.9999V47.3271H44.9901V48.3936H33.7792V47.3271H38.7147V44.333H35.1737V38.5908H43.5956V39.6436H36.4726V43.2939H43.705Z" fill="#FF0000"/>
<path d="M55.7417 37.6611V46.6299H54.4429V42.0225H52.105V40.9697H54.4429V37.6611H55.7417ZM45.5425 44.0732C47.4224 43.4375 48.5981 41.8242 48.5913 40.1357V39.6572H45.939V38.5908H52.5425V39.6572H49.9175V40.1357C49.9106 41.6602 51.0181 43.1982 52.8706 43.8135L52.2007 44.8525C50.8267 44.374 49.8081 43.3896 49.2749 42.1729C48.7417 43.5264 47.6685 44.6064 46.2124 45.126L45.5425 44.0732ZM47.7847 49.6377V45.8232H49.0835V48.585H56.0698V49.6377H47.7847Z" fill="#FF7700"/>
<path d="M61.5577 39.9033C61.5509 41.4619 62.6378 42.8838 64.4972 43.4717L63.8819 44.4834C62.4874 44.0391 61.4688 43.1162 60.9288 41.9541C60.3956 43.2939 59.3224 44.3535 57.8526 44.8662L57.1827 43.8271C59.0968 43.1982 60.2521 41.6191 60.2589 39.917V39.5752H57.5655V38.5225H64.1964V39.5752H61.5577V39.9033ZM58.837 47.5732C58.837 46.1377 60.4024 45.2969 62.9522 45.3037C65.4747 45.2969 67.0128 46.1377 67.0128 47.5732C67.0128 49.0293 65.4747 49.877 62.9522 49.8701C60.4024 49.877 58.837 49.0293 58.837 47.5732ZM60.1358 47.5732C60.129 48.3936 61.1817 48.8516 62.9522 48.8447C64.7091 48.8516 65.7481 48.3936 65.7413 47.5732C65.7481 46.7734 64.7091 46.3223 62.9522 46.3291C61.1817 46.3223 60.129 46.7734 60.1358 47.5732ZM65.6046 45.0029V37.6475H66.9034V40.6826H68.6808V41.749H66.9034V45.0029H65.6046Z" fill="#D500FF"/>
</svg>
