<svg width="105" height="160" viewBox="0 0 105 160" fill="none" xmlns="http://www.w3.org/2000/svg">
<rect width="105" height="160" rx="5.0392" fill="white"/>
<path d="M45.6001 52.6138C45.6169 52.6303 45.6337 52.6468 45.7431 52.7297C47.8311 54.3125 53.3495 51.8187 55.9614 50.9323C57.9935 50.2427 60.4563 49.4883 64.168 48.1028C66.9943 47.0478 71.8054 45.4733 74.4484 44.6026C79.2171 43.0315 83.3353 43.5613 85.0724 44.1322C86.2571 44.5215 87.1635 45.7771 88.2174 47.6973C88.968 49.065 89.2084 50.7715 89.4175 53.7355C89.5723 55.9292 89.4034 59.5425 89.2914 61.6656C89.151 64.3275 88.7864 65.2635 88.4451 66.4462C87.8727 68.4301 86.0729 71.1187 84.1906 73.6006C83.2768 74.8055 81.8054 75.7934 79.1985 77.3001C77.8052 78.1053 76.1045 78.6903 74.2491 79.2144C72.3937 79.7385 70.3931 80.1066 67.8386 80.3152C65.2842 80.5237 62.2366 80.5616 59.0966 80.6006" stroke="black" stroke-linecap="round"/>
<path d="M50.7252 67.1733C50.6922 67.1733 50.7218 67.5732 50.8605 68.3352C51.154 69.9487 54.1354 70.8468 58.6343 71.8149C62.303 72.6043 64.7904 71.941 65.361 71.5028C66.9881 70.2534 67.387 68.4861 67.9105 66.956C68.0147 66.6515 67.8888 66.3701 67.7265 66.1678C66.6701 64.851 62.3867 65.3544 59.6929 65.0383C56.5778 64.7113 54.0481 64.4893 52.2565 64.1187C51.9312 64.0577 51.5811 64.0363 51.5154 64.1144" stroke="black" stroke-linecap="round"/>
<path d="M46.9397 51.0886C46.6087 51.484 45.5498 52.7753 43.1476 54.4317C41.9619 55.2493 38.0391 55.2843 32.8658 55.4293C29.9012 55.5125 28.4544 55.1625 26.3092 54.3357C21.8227 52.6066 18.5053 50.5919 17.4441 49.8271C16.095 48.8549 15.0015 45.8289 14.0147 41.8513C13.4505 39.5774 14.0534 36.799 15.1133 33.4419C15.7369 31.4669 16.9783 29.0945 17.9487 27.3423C19.5364 24.4758 21.5209 22.6963 23.6978 21.0906C25.9717 19.4133 28.2257 18.5364 29.8127 18.0344C31.0784 17.634 32.5717 17.6561 34.4407 17.7959C36.5491 17.9535 38.9978 19.0714 41.821 20.5242C45.0179 22.1694 47.3836 25.0258 49.2897 27.2539C52.2545 30.7196 53.2146 34.0365 53.5448 35.6433C54.317 39.4015 53.5522 43.2596 52.7989 44.8675C52.3147 45.901 51.2239 46.8278 50.0167 47.9769C49.103 48.8467 48.3021 49.5813 47.2798 50.3767C47.0436 50.57 46.862 50.7519 46.6772 50.9285C46.4924 51.105 46.31 51.2707 46.122 51.4414" stroke="black" stroke-linecap="round"/>
<path d="M24.3685 55.0303C24.3685 55.3581 23.9381 56.7228 22.4569 58.9503C21.2129 60.8212 19.0381 62.4865 16.0522 67.2455C14.8548 69.1539 14.8747 72.1127 15.275 75.3065C15.6788 78.5282 16.6183 79.4868 18.2551 81.8669C19.8083 84.1253 21.6563 85.0171 25.5437 86.8472C27.299 87.6735 30.719 87.7157 35.2582 87.6457C38.8696 87.5901 40.9598 87.0241 42.0782 86.9404C44.9114 86.7283 47.2194 86.1438 48.4089 85.9522C50.3737 85.6358 51.5022 85.3813 52.5339 85.0843C53.9484 84.6771 55.3357 84.2262 56.4288 83.7788C56.7827 83.5921 57.2507 83.3063 58.0992 83.0233C58.9478 82.7403 60.1628 82.4687 61.4145 82.1889" stroke="black" stroke-linecap="round"/>
<path d="M41.6547 88.1699C41.5096 89.0401 40.6048 92.1302 39.2636 96.1058C38.4154 98.6198 37.6987 102.289 37.2414 104.425C36.7841 106.561 36.7286 107.089 36.7912 107.441C36.8906 108 41.0334 108.316 47.1908 108.547C50.3107 108.664 51.3863 108.294 51.872 108.071C52.5493 107.761 52.7205 104.264 53.5492 99.4756C54.4568 95.9106 55.0011 94.1852 55.121 93.7046C55.1814 93.4488 55.2409 93.169 55.3531 92.6771" stroke="black" stroke-linecap="round"/>
<path d="M55.5566 93.1768C55.5236 93.7171 55.6961 95.9954 56.326 100.575C56.6825 103.166 57.4514 106.251 57.9399 107.853C58.4284 109.455 58.6994 109.468 59.407 109.251C61.281 108.674 64.002 107.725 66.7088 107.082C69.6071 106.394 71.67 105.673 74.8288 104.376C75.4446 104.123 75.5569 103.876 75.5865 103.637C75.6161 103.397 75.5404 103.131 74.6149 100.99C73.6895 98.8499 71.9166 94.8435 70.8823 92.4323C69.1293 88.3456 68.4474 86.6832 67.0639 83.9925C66.6325 83.3102 66.3659 82.9343 66.1078 82.5015C65.9749 82.2668 65.8383 82.0015 65.5975 81.4736" stroke="black" stroke-linecap="round"/>
<path d="M23.0694 31.956C22.9702 32.1027 22.7802 32.7226 22.9515 33.3758C22.9872 33.5121 23.1987 33.4753 23.3429 33.4264C23.4872 33.3776 23.6236 33.28 23.7218 33.156C23.8201 33.032 23.8762 32.8844 23.8857 32.7165C23.8953 32.5486 23.8566 32.3649 23.7747 32.219C23.6929 32.0731 23.569 31.9706 23.4473 31.9731C22.8377 31.9859 22.7527 32.9711 22.7365 33.406C22.729 33.6085 22.8349 33.7708 22.97 33.9062C23.105 34.0416 23.2947 34.1443 23.4941 34.1763C23.6935 34.2082 23.897 34.1661 24.0198 33.9957C24.3088 33.5946 24.1434 32.9571 23.9042 32.3239C23.5725 31.4461 23.0125 30.912 22.659 30.8853C21.6025 30.8053 22.3472 33.0321 22.5146 33.4677C22.6003 33.6908 22.815 33.8581 23.0553 33.9671C23.5562 34.1943 24.0439 34.0983 24.3451 33.9657C24.6794 33.8186 24.8233 33.4062 24.9367 33.0541C25.0533 32.6919 24.9601 32.2896 24.802 31.9143C24.6394 31.5282 24.2598 31.2052 23.9064 30.8807C23.7423 30.7301 23.5794 30.6422 23.3218 30.7935C22.6098 31.2118 22.2736 31.9887 22.1686 32.4652C22.0579 32.9675 22.1916 33.4058 22.3621 33.7306C22.5683 34.1234 23.0451 34.3183 23.5399 34.356C24.0693 34.3963 24.4805 33.9986 24.7512 33.6124C25.092 33.1264 25.0056 32.5364 24.7675 32C24.3655 31.0946 23.6908 30.5503 23.3158 30.3876C23.1441 30.313 22.9815 30.3322 22.8086 30.4126C22.6357 30.4929 22.4499 30.6536 22.3333 30.8321C21.7886 31.6654 22.4165 32.8054 22.6172 33.0571C22.8378 33.3338 23.2297 33.3579 23.5445 33.3017C23.8973 33.2386 24.1192 32.884 24.2849 32.6046C24.4487 32.3283 24.4339 31.9499 24.3929 31.5926C24.3561 31.272 24.0953 31.0439 23.8214 30.833C23.6565 30.7059 23.3627 30.6564 23.1255 30.6906C22.8882 30.7248 22.6969 30.8744 22.5886 31.0293C22.48 31.7385 22.6179 32.3787 22.7594 32.6678C22.8422 32.8014 22.9474 32.9085 23.323 32.7515" stroke="black" stroke-linecap="round"/>
<path d="M14.4506 36.3618C14.1682 36.4672 12.6678 36.9808 10.8455 37.2677C9.31601 37.5086 7.74866 36.8496 7.05856 36.6578C6.75651 36.5739 6.44778 36.5761 6.17925 36.6997C5.29825 37.1053 6.02221 39.9441 6.2535 41.4292C6.38402 42.2672 6.82882 42.8062 7.39098 43.6212C8.07922 44.6189 9.94341 45.303 11.0534 45.6612C12.2083 45.9293 14.0342 46.0928 14.9632 46.1978C15.1075 46.2377 15.2486 46.284 15.3939 46.2315" stroke="black" stroke-linecap="round"/>
<path d="M45.2226 88.2349C44.255 89.4129 42.8717 90.8796 42.352 91.3477C42.2039 91.4811 42.2913 91.4039 43.35 90.8217C44.4088 90.2395 46.4366 89.1548 47.2331 88.8984C48.0296 88.642 47.5334 89.2468 45.9996 90.4587C44.4658 91.6706 41.9094 93.4712 40.7217 94.3491C39.534 95.2269 39.7925 95.1274 41.7438 94.1633C43.6951 93.1991 47.3313 91.3734 49.1005 90.5679C50.8697 89.7625 50.6617 90.0327 50.3724 90.3644C50.0831 90.696 49.7189 91.0808 49.1742 91.5785C48.6295 92.0762 47.9154 92.675 46.3062 93.6328C44.6971 94.5906 42.2145 95.8892 43.1466 95.5842C44.0786 95.2793 48.5006 93.3315 50.3446 92.7741C52.1886 92.2167 51.3207 93.1089 49.7215 94.3485C48.1223 95.5881 45.8182 97.1482 44.4928 98.0239C43.1673 98.8995 42.8905 99.0434 44.2263 98.3107C45.5621 97.5779 48.519 95.9642 50.2923 95.0438C52.0657 94.1234 52.5659 93.9452 52.2173 94.3608C51.8686 94.7763 50.6558 95.791 49.1176 96.8874C47.5793 97.9839 45.7524 99.1314 44.0841 100.086C42.4158 101.041 40.9616 101.768 40.1242 102.202C39.2869 102.636 39.1104 102.754 41.3615 101.783C43.6125 100.811 48.2965 98.7456 49.9484 98.2491C51.6003 97.7525 50.0782 98.8873 47.7729 100.299C45.4676 101.711 42.4251 103.365 40.998 104.14C39.5709 104.916 39.8513 104.762 41.8682 103.969C43.8851 103.176 47.6301 101.748 49.071 101.525C50.512 101.302 49.5355 102.327 48.3723 103.367C47.2092 104.407 45.889 105.431 45.0639 106.047C44.2388 106.663 43.9489 106.839 44.1501 106.768C46.4598 105.963 48.2073 105.378 48.8412 105.425C48.2712 106.366 47.3544 107.08 46.6781 107.498C46.3479 107.693 46.0442 107.851 45.8319 107.914" stroke="#00A4FC" stroke-linecap="round"/>
<path d="M55.3338 85.2031C55.2597 85.3685 55.1856 85.5339 54.4069 86.5762C53.6282 87.6186 52.1472 89.5328 51.6146 90.4304C51.082 91.328 51.5428 91.151 53.3188 90.1793C55.0947 89.2076 58.172 87.4465 59.7967 86.4999C61.4214 85.5532 61.5003 85.4743 61.0676 85.988C60.6348 86.5017 59.688 87.6104 58.5333 88.7751C57.3786 89.9398 56.0447 91.1269 56.8178 90.635C57.591 90.1431 60.5115 87.9362 62.5369 86.5057C64.5622 85.0753 65.6038 84.488 64.9318 85.4593C64.2598 86.4306 61.8426 88.9781 60.0389 90.7536C58.2352 92.5291 57.1181 93.4554 58.1096 92.8846C59.101 92.3138 62.2347 90.2179 62.5609 90.6597C62.8871 91.1016 60.3108 94.1447 58.9198 95.8197C57.5289 97.4948 57.4014 97.7095 58.9558 96.7172C60.5103 95.7248 63.7506 93.5189 66.0795 92.0873C68.4083 90.6557 69.7276 90.0654 68.8927 91.1819C68.0577 92.2984 65.0286 95.1396 62.7136 97.1873C60.3986 99.2349 58.8895 100.403 58.0766 101.044C57.2637 101.685 57.1928 101.764 58.7246 100.725C60.2564 99.6857 63.3931 97.5267 65.3086 96.2813C67.224 95.0359 67.8231 94.7695 67.4407 95.5683C67.0583 96.3672 65.6762 98.2395 64.1805 100.072C62.6847 101.905 61.1172 103.641 60.3887 104.499C59.6603 105.357 59.8184 105.284 61.6737 103.97C63.5289 102.655 67.0766 100.101 69.2527 98.6385C71.4289 97.1756 72.126 96.8814 72.396 96.8535C72.666 96.8255 72.4877 97.0727 71.8432 97.7413C71.1986 98.4099 70.0931 99.4924 68.1702 101.007C66.2474 102.522 63.5405 104.436 61.9472 105.533C60.3538 106.63 59.9559 106.851 60.34 106.567C60.7241 106.283 61.9022 105.488 64.1308 104.39C66.3593 103.293 69.6026 101.918 71.2152 101.295C72.8277 100.673 72.7113 100.846 71.4532 102.092C70.1951 103.338 67.7989 105.653 66.6889 106.658C65.5788 107.662 65.8276 107.286 66.195 106.918C66.5623 106.551 67.0408 106.203 67.8609 105.715C69.8003 104.56 71.2196 103.885 71.497 103.845C71.5647 103.891 71.4841 104.071 71.4012 104.205C71.3182 104.34 71.2354 104.425 71.1272 104.513" stroke="#00A4FC" stroke-linecap="round"/>
<path d="M43.5603 108.725C43.5285 108.894 43.4966 109.063 43.3806 109.401C43.2646 109.739 43.0653 110.241 42.904 110.571C42.7427 110.901 42.6255 111.044 42.354 111.457" stroke="black" stroke-linecap="round"/>
<path d="M47.8727 109.241C47.8727 109.254 47.8727 109.266 47.7864 109.503C47.7001 109.739 47.5276 110.199 47.3301 110.951C47.1326 111.703 46.9155 112.734 46.7407 113.434" stroke="black" stroke-linecap="round"/>
<path d="M42.5501 111.183C42.4489 111.258 40.4346 111.783 37.5438 112.55C36.6057 112.799 36.7792 112.895 37.1908 112.972C39.2169 113.353 40.1104 113.323 40.5021 113.552C41.1868 113.951 40.0189 115.979 39.9746 116.717C39.9046 117.881 41.3832 114.776 41.8756 114.319C42.0984 114.112 42.3033 113.998 42.5172 114.091C44.0376 114.752 43.8337 117.229 44.0966 117.658C44.1984 117.824 44.4297 117.717 44.554 117.489C44.8622 116.923 44.9143 116.123 45.1929 115.743C45.7915 114.928 46.1741 116.977 46.4377 117.124C46.5687 117.197 46.7615 117.075 46.8522 116.868C46.9429 116.661 46.9429 116.323 46.8798 115.631C46.8168 114.939 46.6907 113.902 46.8315 112.679" stroke="black" stroke-linecap="round"/>
<path d="M65.0947 107.898C65.1462 108.115 65.1977 108.332 65.2296 108.505C65.2615 108.678 65.2722 108.802 65.2981 108.941C65.324 109.081 65.3647 109.232 65.5348 109.667" stroke="black" stroke-linecap="round"/>
<path d="M65.3569 108.59C65.3569 108.657 65.3931 108.848 65.5153 109.238C65.6013 109.473 65.7363 109.781 65.8559 110.004C65.9755 110.226 66.0757 110.353 66.1537 110.458" stroke="black" stroke-linecap="round"/>
<path d="M69.6636 106.743C69.6805 106.776 69.8386 107.075 70.1438 107.776C70.2996 108.193 70.4573 108.738 70.5461 109.078C70.6349 109.419 70.6499 109.538 70.7237 109.88" stroke="black" stroke-linecap="round"/>
<path d="M66.5258 110.626C66.4495 111.15 65.883 112.927 65.0747 115.299C64.7816 116.159 64.7745 116.338 64.8423 116.39C65.7998 117.132 67.136 114.201 67.3986 113.965C67.838 113.571 68.3834 114.855 68.9307 115.192C69.0542 115.268 69.1825 115.269 69.2429 114.955C69.3033 114.64 69.3033 113.988 69.4407 113.755C69.9342 112.917 70.8834 114.625 71.1192 114.682C71.6235 114.805 71.2246 113.482 71.2563 113.035C71.3219 112.112 73.3764 113.342 73.5789 113.282C73.5928 113.032 73.2543 112.416 72.6353 111.561C72.3121 111.145 71.9708 110.763 71.619 110.293" stroke="black" stroke-linecap="round"/>
<path d="M27.0662 57.4893C25.2532 59.4626 23.6101 61.2239 22.4071 62.5288C21.901 63.0778 21.6562 63.4416 23.3073 62.7176C24.9585 61.9936 28.5256 60.1823 31.4051 58.9178C34.2845 57.6534 36.368 56.9909 33.8594 59.0106C31.3508 61.0304 24.187 65.7526 23.7276 66.7275C23.2681 67.7024 29.7302 64.7868 36.3881 61.7828" stroke="#FBFF00" stroke-linecap="round"/>
<path d="M42.1264 58.3267C41.8077 58.61 41.489 58.8934 36.4704 62.2322C31.4518 65.571 21.7429 71.9567 22.792 72.1198C23.8411 72.2828 35.9423 66.0298 39.746 65.0012C43.5497 63.9726 38.6892 68.3578 34.4629 71.6904C30.2366 75.023 26.7917 77.17 27.6925 76.8003C28.5932 76.4306 33.944 73.4791 37.0109 71.7362C40.0777 69.9934 40.6985 69.5488 40.6939 69.3423C40.679 68.6695 38.2229 69.673 35.8167 70.7082C34.5412 71.257 33.2298 72.0194 29.6355 74.4511C26.0412 76.8829 20.2227 81.0035 23.9335 80.7905C27.6444 80.5776 41.0608 75.9062 45.1999 75.2511C49.339 74.596 43.7942 78.0988 40.4017 80.1687C37.0091 82.2385 35.9367 82.7693 37.8157 81.768C39.6947 80.7667 44.5575 78.2172 47.593 76.7385C50.6284 75.2598 51.6892 74.9293 51.9794 74.9673C52.2695 75.0052 51.7571 75.4217 49.3473 77.0346C46.9375 78.6474 42.6459 81.4442 40.2133 82.9989C37.7807 84.5537 37.3372 84.7817 37.3004 84.7766C37.2636 84.7714 37.6471 84.5261 41.4846 82.9242C45.322 81.3223 52.6017 78.3712 56.4509 76.8221C60.3001 75.273 60.4982 75.2152 60.7023 75.1558" stroke="#FBFF00" stroke-linecap="round"/>
<path d="M48.2657 55.9527C47.3364 56.7494 44.7837 59.104 44.7517 60.496C44.703 62.6106 53.0137 56.8361 56.9611 54.9993C62.3135 52.5087 64.1465 52.2046 64.4525 52.2971C65.5451 52.6273 59.2757 56.8933 60.0108 58.0377C62.502 61.9157 77.059 51.5626 80.3175 51.2267C83.5759 50.8909 77.0798 55.5367 73.6264 58.0352C70.173 60.5338 69.9592 60.7444 70.6778 60.1702C71.3965 59.596 73.0541 58.2306 74.4917 57.1694C75.9293 56.1082 77.0966 55.3927 78.3817 54.72C80.9915 53.354 83.1256 52.6064 84.0693 52.544C84.3308 52.6878 84.151 53.188 83.7659 53.8118C83.3809 54.4355 82.7961 55.1677 82.0101 56.0956" stroke="#FBFF00" stroke-linecap="round"/>
<path d="M85.0123 55.8882C84.6172 56.1757 84.2221 56.4631 81.6708 58.3696C79.1194 60.2761 74.4239 63.7929 71.6615 65.9732C68.899 68.1535 68.2119 68.8908 69.4847 68.4879C70.7576 68.085 74.0112 66.5196 76.5163 65.4718C79.0213 64.4241 80.6792 63.9415 81.4735 63.8359C82.2677 63.7303 82.1482 64.0163 81.949 64.3478C81.5133 65.0727 80.7129 65.9381 78.8005 67.5526C77.4174 68.7202 74.9883 70.3373 75.022 70.5315C75.0558 70.7257 77.5728 69.382 79.4864 68.4841C82.5724 67.0359 84.587 66.6809 85.614 66.7754C85.9945 66.8103 85.9466 67.3399 85.7919 67.8068C85.6372 68.2738 85.3407 68.7954 84.2258 70.3022C83.111 71.809 81.1868 74.2853 79.2043 76.8367" stroke="#FBFF00" stroke-linecap="round"/>
<path d="M56.4869 66.16C55.8517 67.1337 54.7443 68.5466 54.47 69.3957C54.3133 69.8807 56.7913 68.2702 58.4964 67.4084C60.2016 66.5465 61.7414 65.9184 62.1614 66.1221C63.3309 66.6892 60.2525 69.2647 59.8922 70.1084C58.9888 72.224 65.0759 68.3539 66.738 68.1327C67.2087 68.2278 66.9225 68.744 66.7178 69.0831C66.5131 69.4222 66.3986 69.5686 66.167 69.7952" stroke="#FBFF00" stroke-linecap="round"/>
<path d="M74.2794 46.4419C74.2008 46.573 74.1222 46.7042 73.5784 47.4493C73.0346 48.1944 72.0279 49.5494 70.9907 50.9834" stroke="#FBFF00" stroke-linecap="round"/>
<path d="M78.1172 48.3033C79.3924 47.8147 80.6676 47.3262 81.857 46.9554C83.0464 46.5846 84.1115 46.3464 85.2088 46.1011" stroke="#FBFF00" stroke-linecap="round"/>
<path d="M85.2472 46.1011C85.2472 46.1971 84.5196 47.1781 83.3518 48.7075C82.7805 49.5414 82.2307 50.339 81.7063 51.1604C81.5969 51.4273 81.8056 51.3898 82.0205 51.3512" stroke="#FBFF00" stroke-linecap="round"/>
<path d="M86.2719 55.4414C86.2973 55.4414 85.8033 56.3557 84.3692 58.5301C83.4421 59.7902 82.1105 61.3683 81.357 62.2859C80.6035 63.2034 80.4685 63.4125 80.3301 63.7043" stroke="#FBFF00" stroke-linecap="round"/>
<path d="M69.3573 72.7852C69.3448 72.8104 69.3323 72.8355 68.7378 73.3749C68.1433 73.9143 66.9671 74.967 66.2326 75.585C65.498 76.203 65.2407 76.3544 64.9756 76.5482" stroke="#FBFF00" stroke-linecap="round"/>
<path d="M75.9283 72.2729C75.8517 72.5481 75.5432 73.2401 74.8439 74.3799C74.4136 74.9695 73.8301 75.5819 73.4582 75.9492C73.0863 76.3164 72.9437 76.42 72.7969 76.5267" stroke="#FBFF00" stroke-linecap="round"/>
<path d="M72.8161 57.0288C72.7911 57.0288 72.3831 57.3148 71.4532 57.9383C70.9183 58.2758 70.2558 58.6563 69.6517 58.9247C69.0477 59.1931 68.5223 59.3378 67.981 59.4868" stroke="#FBFF00" stroke-linecap="round"/>
<path d="M54.9135 59.3857C54.8087 59.4906 54.7038 59.5955 53.0817 60.7167C51.4597 61.8379 48.3236 63.9722 46.6493 65.1304C44.9751 66.2886 44.8577 66.406 44.6611 66.6411" stroke="#FBFF00" stroke-linecap="round"/>
<path d="M44.6579 69.9448C44.6579 69.9698 44.6358 70.2831 44.5367 70.8693C44.4598 71.1552 44.3289 71.4175 43.936 71.9652C43.5431 72.5129 42.8921 73.338 42.1836 74.226" stroke="#FBFF00" stroke-linecap="round"/>
<path d="M50.9817 71.1455C50.9245 71.2603 50.8672 71.3751 50.7083 71.7565C50.5493 72.138 50.2905 72.7827 50.0807 73.1897C49.871 73.5966 49.7181 73.7463 49.5605 73.9004" stroke="#FBFF00" stroke-linecap="round"/>
<path d="M26.3558 63.7778C25.8401 64.2957 25.3244 64.8136 23.6254 66.3295C21.9265 67.8454 19.06 70.3437 17.7709 71.6135C16.4818 72.8832 16.8569 72.8488 17.6691 72.6981C18.4813 72.5473 19.7192 72.2814 20.9947 72.0074" stroke="#FBFF00" stroke-linecap="round"/>
<path d="M23.4259 72.4004C23.3109 72.5442 23.1959 72.6881 22.4613 73.6414C21.7267 74.5947 20.3759 76.3531 20.0992 77.1627C19.8225 77.9722 20.6608 77.7797 21.5245 77.5814" stroke="#FBFF00" stroke-linecap="round"/>
<path d="M28.9613 80.6123C28.6318 81.2195 28.1281 82.0896 27.7068 82.9271C27.6195 83.2073 27.789 83.1935 28.8551 82.9396C29.9212 82.6858 31.8788 82.1922 33.8957 81.6837" stroke="#FBFF00" stroke-linecap="round"/>
<path d="M40.5402 80.0615C39.7351 80.9691 37.2351 82.978 35.8441 84.1439C35.3896 84.5248 35.7133 84.75 36.1448 84.8312C38.2617 84.8172 39.5242 84.6013 39.9859 84.7632C40.1428 84.9478 40.1428 85.3401 40.2583 85.7443" stroke="#FBFF00" stroke-linecap="round"/>
<path d="M52.2665 81.5888C51.8809 82.0051 51.4952 82.4213 50.834 82.9926C50.1728 83.564 49.2477 84.2778 50.5062 83.6919C51.7647 83.1061 55.2348 81.1989 58.81 79.2339" stroke="#FBFF00" stroke-linecap="round"/>
<path d="M64.0059 77.2349H64.152" stroke="#FBFF00" stroke-linecap="round"/>
<path d="M70.3059 73.4624C70.3059 73.4876 70.3059 73.5128 69.8305 74.0715C69.3552 74.6303 68.4045 75.7218 69.1324 75.8084C69.8602 75.895 72.2954 74.9437 74.8044 73.9635" stroke="#FBFF00" stroke-linecap="round"/>
<path d="M16.4371 35.3018C16.5038 35.3345 17.9482 35.3514 20.0551 35.4781C20.7621 35.5206 20.6927 35.858 20.5465 36.115C20.2327 36.6667 18.7483 37.8414 17.1276 39.2005C16.9387 39.3589 19.1191 38.6562 21.6247 37.9539C22.3726 37.7442 22.1398 38.2183 20.9877 39.2927C19.8356 40.367 17.7923 42.1259 16.8276 43.023C15.8628 43.9202 16.0385 43.9022 18.101 43.1943C20.1636 42.4864 24.1076 41.089 26.2279 40.348C28.3482 39.607 28.5251 39.5648 27.4703 40.6521C26.4155 41.7395 24.1237 43.9577 23.0788 45.0811C22.0339 46.2046 22.3054 46.166 23.9798 45.6467C25.6542 45.1274 28.7232 44.1286 30.4044 43.6035C32.0856 43.0783 32.2858 43.0571 32.3215 43.1478C32.3572 43.2385 32.2222 43.4418 30.7381 44.624C29.2539 45.8062 26.4247 47.9613 24.8532 49.184C23.2818 50.4068 23.0538 50.6319 23.0501 50.757C23.0465 50.8821 23.274 50.9004 25.9688 49.9529C28.6635 49.0055 33.8185 47.0918 34.9278 47.1618C36.0371 47.2318 32.9444 49.3435 31.2688 50.5037C29.5932 51.6639 29.4284 51.8086 31.5764 51.1008C33.7245 50.393 38.1904 48.8283 40.6325 48.0098C43.0746 47.1913 43.3577 47.1665 42.5694 47.8544C41.781 48.5423 39.9125 49.9438 38.9051 50.7159C37.8976 51.488 37.8077 51.5884 38.0009 51.6146C38.6674 51.7052 40.3174 51.0668 42.1884 50.3334C42.9085 50.0707 43.1629 50.0304 43.3024 50.0667C43.4419 50.103 43.4589 50.217 43.4014 50.4844" stroke="#FBFF00" stroke-linecap="round"/>
<path d="M20.5932 44.6011C20.3936 44.8224 20.1941 45.0437 19.9497 45.3571C19.7054 45.6705 19.4223 46.0692 19.2642 46.3316C19.106 46.594 19.0814 46.7081 19.0312 46.8753" stroke="#FBFF00" stroke-linecap="round"/>
<path d="M28.871 50.7642C28.8628 50.7889 28.8546 50.8136 28.8054 50.9018C28.7562 50.9899 28.6661 51.1407 28.6112 51.282C28.5563 51.4233 28.5392 51.5505 28.5665 51.8597" stroke="#FBFF00" stroke-linecap="round"/>
<path d="M36.2001 51.8477C36.158 51.9107 36.1159 51.9737 35.8097 52.2704C35.5035 52.567 34.9344 53.0953 34.5754 53.409C34.2163 53.7227 34.0845 53.8058 33.8989 53.8914" stroke="#FBFF00" stroke-linecap="round"/>
<path d="M24.7876 37.272C25.0645 37.065 25.3413 36.8579 26.7023 36.2915C28.0633 35.7251 30.5001 34.8055 31.8259 34.3217C33.1517 33.8379 33.2928 33.8177 32.5219 34.7694C31.751 35.721 30.0639 37.6451 29.3441 38.5993C28.6243 39.5535 28.9229 39.4795 29.344 39.3366C29.7651 39.1937 30.2997 38.9842 31.6996 38.6194C33.0996 38.2545 35.3488 37.7407 36.4764 37.5343C37.6041 37.3279 37.542 37.4447 37.0108 38.0569C35.504 39.7936 34.3252 41.0916 34.3373 41.3671C34.3448 41.5354 34.8858 41.466 36.5554 41.1436C38.225 40.8212 41.1424 40.1723 42.8005 39.8381C44.4586 39.5038 44.7689 39.5038 44.8606 39.5844C44.9523 39.6651 44.8159 39.8263 43.9883 40.5019C43.1606 41.1774 41.6458 42.3624 40.6955 43.1536C39.3658 44.2608 38.8727 44.9178 38.8339 45.2534C38.814 45.4256 39.4523 45.299 40.9531 44.8292C42.4538 44.3594 44.966 43.4729 46.4016 42.9976C47.8372 42.5223 48.12 42.485 48.2239 42.5337C48.392 42.6124 47.6373 43.3166 46.3756 44.5299C45.6133 45.263 44.6902 46.322 44.354 46.7688C44.0178 47.2155 44.3187 47.0404 44.5341 46.8998C44.7496 46.7592 44.8704 46.6585 44.9949 46.5546" stroke="#FBFF00" stroke-linecap="round"/>
<path d="M20.3398 26.5709C20.6227 26.4813 20.9055 26.3917 22.1647 25.832C23.424 25.2723 25.6511 24.2452 27.2861 23.5847C28.9211 22.9241 29.8964 22.6613 30.4146 22.58C30.9329 22.4988 30.9644 22.6072 30.2979 23.6342C29.6314 24.6613 28.266 26.6036 27.7142 27.6067C27.1625 28.6098 27.4658 28.6147 28.3472 28.3631C30.7055 27.6898 32.6486 27.0085 33.373 26.9641C33.6229 26.9488 33.6303 27.1163 33.2685 27.5459C32.9067 27.9756 32.1744 28.7053 31.0438 29.6329C29.9131 30.5605 28.4062 31.6639 27.5033 32.348C26.6005 33.0321 26.3474 33.2635 26.3204 33.4026C26.2933 33.5417 26.5001 33.5815 28.6586 33.0493C30.8171 32.5171 34.921 31.4116 39.1745 30.2473" stroke="#FBFF00" stroke-linecap="round"/>
<path d="M40.0371 32.5723C39.6839 32.8156 39.3307 33.0588 38.9452 33.3253C38.5598 33.5918 38.1527 33.8742 38.9744 33.6109C39.7961 33.3476 41.8589 32.5302 43.1315 32.0747C44.4042 31.6192 44.8242 31.5505 44.9756 31.6672C45.3093 31.9242 43.9819 33.7551 42.5877 35.9341C42.0641 36.7524 41.9559 37.0135 41.96 37.1749C41.9665 37.4344 43.3726 37.0862 45.3435 36.4865C46.6209 36.0979 47.2932 36.1215 47.4762 36.2557C47.8082 36.499 47.1883 37.0893 47.1716 37.372C47.1497 37.7426 48.5752 37.5921 49.8719 37.5553C50.2998 37.5431 50.2409 37.8576 50.0464 38.2156C49.5767 39.0799 49.0889 39.7441 49.0889 40.0977C49.4359 40.3037 49.791 40.4724 49.9706 40.8415C50.0639 41.1083 50.1619 41.5364 50.2628 41.9518" stroke="#FBFF00" stroke-linecap="round"/>
<path d="M34.4048 20.1982C33.7575 21.146 33.006 22.3569 32.5741 23.3985C31.8084 25.2452 37.0384 21.9527 37.2101 22.0178C37.5928 22.1628 36.4503 23.4869 36.0565 24.5469C36.8908 24.5342 38.9536 23.8854 41.1288 23.3298C41.9914 23.1339 42.3639 23.1127 42.7478 23.0909" stroke="#FBFF00" stroke-linecap="round"/>
<path d="M42.3913 24.3623C40.7284 26.211 39.6719 27.4238 39.5753 27.6337C39.5296 27.7332 39.582 27.8489 39.7935 27.9147C40.3761 28.0957 42.3877 27.7513 45.1814 27.3305C46.3853 27.1491 47.1716 27.1552 47.4695 27.2583C47.796 27.3713 46.0654 28.8108 44.0988 30.347C43.3999 30.893 43.3398 31.0047 43.4206 31.0571C43.6863 31.2295 44.2812 31.0497 45.3512 30.9685C47.3081 30.8201 48.8066 31.0834 49.2524 31.2922C49.4526 31.386 49.5645 31.5234 49.6373 31.6757C49.7312 32.0087 49.5438 32.5676 49.2046 33.1942C49.0748 33.448 49.0309 33.5714 49.1321 33.6912" stroke="#FBFF00" stroke-linecap="round"/>
<path d="M50.9123 33.9946C50.5505 34.5955 49.9466 35.3666 49.9982 35.5806C50.0959 35.985 51.1581 35.9726 51.9891 36.14C52.2914 36.2009 52.3161 36.3468 52.1886 36.7021C52.0611 37.0574 51.7718 37.652 51.4347 38.2514C51.0976 38.8507 50.7216 39.4368 50.4857 40.0399" stroke="#FBFF00" stroke-linecap="round"/>
<path d="M49.9326 44.5732C49.5425 44.9254 48.7715 45.6548 47.6774 46.7768C47.1532 47.3508 46.6922 47.9342 46.4184 48.2935C46.1446 48.6529 46.0719 48.7705 45.9971 48.9165" stroke="#FBFF00" stroke-linecap="round"/>
<path d="M45.0151 109.633C44.678 110.164 43.8072 111.458 43.6014 112.113C43.5204 112.371 44.2001 112.107 44.4688 112.022C44.5966 111.982 44.7195 111.993 44.7903 112.189C44.879 112.776 44.8597 113.447 44.7421 114.042C44.6623 114.369 44.5417 114.748 44.6339 115.018" stroke="#FBFF00" stroke-linecap="round"/>
<path d="M68.6982 108.06C68.6899 108.392 68.6013 109.234 68.5574 109.878C68.5123 110.538 68.5151 111.189 68.7145 111.863C68.7372 112.089 68.7472 112.339 68.7335 112.538C68.7197 112.737 68.6819 112.879 68.6429 112.758" stroke="#FBFF00" stroke-linecap="round"/>
<path d="M8.46057 37.6816C8.36397 37.8173 7.77038 38.5605 7.5032 38.9509C7.13247 39.4927 9.3437 38.1766 9.62216 38.1304C9.76588 38.1066 9.27747 38.8654 8.50732 39.8196C8.11491 40.3058 7.65739 40.7445 7.64709 40.8546C7.6368 40.9647 8.07179 40.7197 8.88916 40.3615C9.70654 40.0032 10.8931 39.5391 10.8612 39.8373C10.8294 40.1354 9.54309 41.21 9.61292 41.5052C9.68275 41.8004 11.1477 41.2837 11.9518 41.0057C12.756 40.7277 12.855 40.7041 12.3177 41.2332C11.7804 41.7623 10.6038 42.8448 10.0335 43.3675C9.46327 43.8902 9.53502 43.8202 9.68406 43.713C10.0485 43.4506 10.5668 43.2133 11.1222 43.0261C11.6656 42.8806 12.0766 42.808 12.2719 42.823C12.331 42.8473 12.3085 42.9053 12.2004 43.0223" stroke="#FF8400" stroke-linecap="round"/>
<path d="M12.8851 37.5073C12.8553 37.5821 12.8254 37.657 12.6856 37.841C12.5457 38.0251 12.2967 38.3162 12.032 38.5956C11.7672 38.875 11.4942 39.1339 11.2021 39.4223" stroke="#FF8400" stroke-linecap="round"/>
<path d="M12.962 43.1963C12.962 43.2237 12.8694 43.4979 12.7107 43.924C12.6447 44.09 12.6081 44.1541 12.5371 44.2685C12.4661 44.3829 12.3619 44.5456 12.2437 44.6913" stroke="#FF8400" stroke-linecap="round"/>
<path d="M14.3744 44.6582C14.3709 44.669 14.3673 44.6797 14.2756 44.7598C14.1838 44.8399 14.0039 44.9891 13.8871 45.0791C13.7703 45.1692 13.722 45.1956 13.5654 45.2228" stroke="#FF8400" stroke-linecap="round"/>
<path d="M6.58496 37.8457C6.58496 37.9716 6.59448 38.625 6.65514 39.6691C6.79872 40.4296 6.96603 40.8687 7.08574 41.0794C7.1334 41.1652 7.15447 41.208 7.17618 41.2629" stroke="#FF8400" stroke-linecap="round"/>
<path d="M8.06494 41.8037C8.06494 42.1333 8.08865 42.5787 8.14918 42.6932C8.34899 42.8442 8.55203 42.8722 8.6907 42.8686C8.75444 42.865 8.80469 42.8577 8.91137 42.8393" stroke="#FF8400" stroke-linecap="round"/>
<path d="M22.8316 30.2642C22.7478 30.2969 22.4925 30.5223 22.2466 30.7992C21.9941 31.0836 21.8983 31.3867 21.8431 31.6836C21.7703 32.0747 21.8482 32.5965 21.9687 32.8775C21.9972 32.9461 22.0175 33.011 22.0432 33.077C22.069 33.1429 22.0994 33.2078 22.1462 33.3201" stroke="black" stroke-linecap="round"/>
<path d="M22.3848 30.1571C22.5022 30.1366 22.8697 30.1662 23.2214 30.2052C23.8191 30.2713 24.3308 30.5121 24.6352 30.726C24.944 30.9429 25.1683 31.4467 25.3567 31.852C25.4894 32.1374 25.4418 32.5889 25.4213 33.0958C25.406 33.4746 25.1208 33.7748 24.8113 33.9856C24.5086 34.1918 24.1917 34.1477 23.9205 34.2082C23.6071 34.2781 23.3174 34.2392 23.0363 34.1624C22.7822 34.0341 22.6203 33.8804 22.5017 33.6751C22.4331 33.5409 22.3475 33.3459 22.2441 32.9909" stroke="black" stroke-linecap="round"/>
<path d="M22.6565 30.0527C22.5755 30.0806 22.3015 30.2775 22.0585 30.4953C21.8353 30.6955 21.7245 30.9636 21.6087 31.2745C21.5071 31.5473 21.4431 31.8453 21.4404 32.4144C21.4387 32.7924 21.6422 33.2221 21.8401 33.5425C22.0379 33.8628 22.4272 34.0683 22.7385 34.1446C23.2527 34.2705 23.8848 34.0715 24.1608 33.9651C24.2289 33.9391 24.303 33.9174 24.3724 33.8803C24.4418 33.8432 24.5041 33.7913 24.5684 33.7379" stroke="black" stroke-linecap="round"/>
<path d="M23.0914 31.0547C23.067 31.0725 23.0091 31.1538 22.9989 31.2176C22.9939 31.2492 23.0028 31.2806 23.0234 31.2911C23.044 31.3016 23.0795 31.2905 23.103 31.2713C23.1265 31.2522 23.1369 31.2253 23.1347 31.1449" stroke="white" stroke-linecap="round"/>
<path d="M19.6861 130.784C19.7519 132.695 19.6413 137.357 19.4387 143.061C19.3668 145.085 19.4136 145.347 19.5231 145.572C19.8176 145.98 22.6357 146.168 27.3574 146.254C29.4516 146.34 30.933 146.512 32.4592 146.689" stroke="black" stroke-linecap="round"/>
<path d="M20.437 130.75C20.622 130.859 21.0303 131.004 23.8518 131.015C26.3615 131.024 31.0549 130.687 33.4825 130.751C35.9102 130.815 35.9287 131.2 35.7786 132.062C34.9513 136.813 35.0933 140.179 35.3527 141.632C35.4934 142.731 35.5667 144.32 35.4134 145.696C35.2601 146.143 34.9534 146.083 34.5823 146.02" stroke="black" stroke-linecap="round"/>
<path d="M48.9509 130.758C48.9509 132.038 48.3683 136.342 48.0518 140.37C47.8421 143.039 48.1161 144.211 48.2059 144.738C48.2856 145.326 52.0356 145.68 57.7854 145.723C59.8233 145.73 60.0747 145.707 60.2787 145.626" stroke="black" stroke-linecap="round"/>
<path d="M48.6562 131.869C51.9679 131.762 59.2218 131.403 60.8063 131.164C61.2339 131.1 61.6764 131.13 61.9211 131.284C63.1702 132.07 62.3067 134.59 62.6518 135.72C63.1144 137.235 63.1004 138.649 63.4372 141.794C63.6455 143.739 63.4799 145.037 63.2211 145.414C62.5179 145.454 61.6936 145.405 61.0254 145.48C60.705 145.536 60.4225 145.631 60.1789 145.657" stroke="black" stroke-linecap="round"/>
<path d="M72.1185 131.361C72.1555 131.471 72.1366 133.991 72.0675 138.615C72.0086 142.561 72.0633 144.651 72.4437 145.098C74.4229 145.557 75.8693 145.525 77.7525 145.475C79.3743 145.458 82.3482 145.458 85.4684 145.289" stroke="black" stroke-linecap="round"/>
<path d="M72.7456 131.32C75.4175 131.435 81.7817 131.357 84.2902 131.283C85.063 131.261 85.5768 131.489 85.9875 131.727C87.656 132.694 86.4295 136.309 86.5412 139.553C86.5637 142.611 86.4717 143.46 86.426 144.105C86.3984 144.421 86.362 144.713 86.2694 145.345" stroke="black" stroke-linecap="round"/>
<path d="M52.6035 135.85C52.781 135.879 54.1066 135.865 54.8972 135.919C55.2154 135.94 55.1738 136.901 55.0774 137.413C54.9783 137.94 53.7476 138.045 52.9673 138.323C52.8209 138.375 52.7573 138.455 52.7095 138.551C52.2473 139.482 52.6062 141.17 52.67 141.543C52.6976 141.703 52.7616 141.795 52.9225 141.848C53.0833 141.901 53.351 141.908 54.1613 141.808C54.9717 141.708 56.3165 141.499 57.8074 141.198" stroke="black" stroke-linecap="round"/>
<path d="M58.7964 135.51C58.8013 135.529 58.8062 135.549 58.8273 135.685C58.8485 135.821 58.8857 136.074 58.9286 137.305C58.9716 138.536 59.0192 140.738 59.0683 143.007" stroke="black" stroke-linecap="round"/>
</svg>
