<svg width="105" height="160" viewBox="0 0 105 160" fill="none" xmlns="http://www.w3.org/2000/svg">
<rect width="105" height="160" rx="5.04" fill="#F1F1F2"/>
<path d="M74.1333 43.8255C73.9068 40.5277 74.195 36.4459 73.3401 33.1974C73.3177 33.1121 72.9471 32.8085 72.8643 32.7611C70.6401 31.4902 66.9643 31.376 64.4966 30.9964C60.0137 30.3067 55.3754 30.6197 50.8546 30.6197C46.0225 30.6197 41.195 30.4874 36.3797 30.8973C33.4817 31.1439 30.8466 30.9754 28.2897 32.6025C26.297 33.8706 25.9267 37.0431 25.3154 39.1063C25.0415 40.0306 24.3915 42.1588 25.4344 42.7547C27.6378 44.0138 32.26 43.8255 34.6348 43.8255C46.8498 43.8255 83.4929 44.1824 71.278 44.1824" stroke="white" stroke-width="2" stroke-linecap="round"/>
<path d="M34.873 32.7607C33.1586 34.2291 29.2541 37.5536 27.3778 39.2248C26.7566 39.7782 24.8208 40.8289 25.6329 41.0094C26.5761 41.219 30.6868 38.4658 31.522 38.0946C33.6019 37.1702 36.7823 34.6702 39.156 34.5453C40.5109 34.474 39.735 34.5903 38.4025 35.7747C38.0613 36.078 30.4593 42.6672 30.4711 42.675C31.0429 43.0562 34.33 41.1315 34.5954 41.0094C38.6896 39.1268 42.778 37.2336 46.79 35.1798C47.2408 34.949 51.6727 31.8811 49.7444 34.0298C47.5105 36.519 44.812 38.5664 42.626 41.0887C40.1382 43.9593 49.418 37.6514 52.5997 35.5764C53.0239 35.2998 57.5074 32.5105 56.4861 34.2281C54.8586 36.9653 51.8508 39.3787 50.6169 42.2784C50.508 42.5344 56.0505 39.4722 56.8232 39.0464C58.2969 38.2344 59.9078 37.6748 61.4631 37.0437C62.6256 36.572 64.9801 35.1582 66.3211 35.4178C66.3286 35.4192 62.7558 40.2363 62.4149 41.0887C62.1749 41.6886 68.1035 39.8255 68.9781 39.5421C70.6523 38.9995 71.7164 38.3534 71.0998 40.5732C70.5333 42.6124 73.0303 41.9636 74.4904 42.0405" stroke="white" stroke-width="2" stroke-linecap="round"/>
<path d="M50.5769 8.49146C48.0464 10.442 45.007 11.8444 47.7414 14.5788C49.5348 16.3722 51.3076 15.899 53.3529 14.559C55.721 13.0074 56.6156 9.85611 53.6305 8.49146C52.2646 7.86705 50.9995 9.50952 49.863 10.0777C49.3633 10.3276 48.0795 12.0606 49.3078 12.0606C50.6525 12.0606 51.9749 11.5975 53.1942 11.0692C53.806 10.8041 54.6779 10.0946 53.5908 10.9899C52.7017 11.7221 51.6476 12.1829 51.6476 13.4882" stroke="white" stroke-width="2" stroke-linecap="round"/>
<path d="M57.0009 66.6682C55.31 64.9979 53.4231 62.3853 50.7549 62.3853C49.773 62.3853 48.4987 62.7931 48.435 63.9715C48.3981 64.6543 48.3645 65.446 48.6135 66.0932C49.0842 67.3172 45.4507 66.1689 45.203 66.1328C41.1693 65.5454 36.2896 64.0471 34.555 68.6312C33.9403 70.256 34.8309 70.544 34.8723 71.7443C34.9333 73.5131 33.6125 77.0933 35.2292 78.3671C35.5022 78.5821 36.2603 78.6989 36.2603 79.1007C36.2603 80.9653 35.572 82.8612 35.4473 84.732C35.3766 85.7933 34.8784 88.9223 36.4387 89.3124C38.2828 89.7734 40.5861 89.6018 42.4468 89.3124C43.4976 89.1489 43.6189 88.6423 44.0331 89.5503C44.71 91.0344 45.3639 92.074 47.047 92.366C50.6002 92.9824 52.9779 92.8641 54.3241 89.5503C54.8685 88.2102 55.5868 88.1677 56.9216 87.8451C59.7657 87.1578 62.4302 86.1645 64.4565 83.9587C65.164 83.1884 66.2163 81.6257 65.8445 80.4689C65.5608 79.5865 64.6684 80.1545 65.091 78.7636C65.9155 76.0495 68.1645 72.0294 66.4393 69.2063C65.7616 68.0973 63.981 68.87 63.4254 67.8976C62.9111 66.9976 59.9997 66.3812 59.4993 67.382" stroke="white" stroke-width="2" stroke-linecap="round"/>
<path d="M44.866 67.0249C44.3439 67.4871 41.9218 69.1234 44.3108 68.9086C47.1905 68.6498 50.0593 67.7548 52.8767 67.1439C53.5178 67.0049 55.3036 66.5413 54.8397 67.0051C53.7267 68.1181 52.4591 69.1174 51.2508 70.1182C47.843 72.9408 43.4398 75.5946 40.7417 79.16C40.2758 79.7756 40.1049 80.38 41.1382 80.2109C44.9424 79.5884 48.8208 77.8331 52.4802 76.6814C54.98 75.8947 58.3084 74.2968 61.0064 74.1632C62.243 74.102 59.5413 76.186 58.6072 76.9987C55.0914 80.0574 51.8708 83.2665 48.8317 86.794C48.4915 87.1888 46.7376 88.7844 46.6902 89.4708C46.6181 90.5168 48.7435 89.0312 49.7438 88.7174C52.9962 87.697 56.7327 86.8469 59.4995 84.8706" stroke="white" stroke-width="2" stroke-linecap="round"/>
<path d="M42.7249 48.8221C45.0024 48.7486 42.7448 48.1937 41.8723 48.6635C41.1646 49.0446 41.2339 50.0688 42.1697 49.8135C43.2043 49.5314 43.1251 48.3894 42.7646 49.0204C42.4669 49.5414 44.2209 49.179 44.5095 49.179" stroke="#2C2C2C" stroke-width="2" stroke-linecap="round"/>
<path d="M56.6443 48.8221C57.7972 49.4465 57.8081 48.4462 57.1202 48.5445C56.2263 48.6722 54.6976 49.1472 54.5623 50.2299C54.4048 51.4903 56.3231 50.0164 56.565 49.7342C57.4788 48.6681 53.3378 51.2791 52.7183 51.6774" stroke="#2C2C2C" stroke-width="2" stroke-linecap="round"/>
<path d="M47.7212 52.0342C47.8293 55.2125 47.3979 59.7915 51.5679 59.8863C52.6534 59.9109 53.491 59.5518 54.5026 59.1725" stroke="#2C2C2C" stroke-width="2" stroke-linecap="round"/>
<path d="M28.0914 44.5391C26.7192 45.6029 25.0956 46.6372 24.205 48.1875C23.7618 48.9591 23.964 49.9338 23.3524 50.6066C22.3217 51.7403 20.6972 52.1173 19.6048 53.1843C18.4288 54.3329 18.1419 55.5342 18.3159 57.1698C18.4991 58.8914 20.0157 59.6943 18.5737 60.9967C16.2268 63.1165 15.1447 66.4669 19.0099 67.4608C19.6037 67.6135 19.8516 67.4822 19.6246 67.6393C18.2138 68.616 16.9685 70.0572 16.7098 71.8033C16.5454 72.9129 16.8992 74.1997 17.4633 75.1543C17.7026 75.5593 19.1365 76.526 19.0496 76.9389C18.5032 79.5341 14.4527 83.1398 19.2479 83.9978C21.434 84.3891 23.4398 84.0426 25.4939 83.3237C26.2634 83.0543 25.9646 83.9822 26.5051 84.1366C30.0354 85.1453 30.9467 83.4426 30.9467 80.5873" stroke="white" stroke-width="2" stroke-linecap="round"/>
<path d="M35.2295 44.5391C34.3755 47.6975 33.0179 51.2215 32.7708 54.5326C32.6974 55.5165 33.3531 55.618 33.9605 56.1982C35.0348 57.2244 36.5053 59.134 36.2209 60.7588C35.9233 62.4599 33.9165 62.8006 36.3003 63.0986" stroke="white" stroke-width="2" stroke-linecap="round"/>
<path d="M65.5668 46.3237C66.0263 48.0542 68.6341 53.4836 66.7565 55.0483C65.6003 56.0118 64.9501 56.9466 64.6547 58.4588C64.5012 59.2444 64.0702 61.5758 64.5753 62.3055C64.8098 62.6441 66.7135 62.3848 66.9944 62.3848" stroke="white" stroke-width="2" stroke-linecap="round"/>
<path d="M74.4897 45.9668C76.1826 49.9756 77.6749 55.0437 80.5374 58.4786C81.5093 59.6449 83.1705 59.8755 84.2651 60.9968C85.6991 62.4658 87.5051 64.9615 85.3755 66.6281C84.4201 67.3758 83.7083 67.0596 83.9479 68.3532C84.3905 70.7435 84.8242 73.9103 83.3332 76.007C82.1735 77.6379 78.2445 78.8994 76.3535 78.089C75.228 77.6066 75.7112 78.2013 74.5293 79.3184C73.4466 80.3418 70.0156 82.9097 68.3428 81.8564C66.7356 80.8445 65.3765 78.4324 64.1392 77.0183" stroke="white" stroke-width="2" stroke-linecap="round"/>
<path d="M65.9242 64.1694L63.0688 66.6678" stroke="white" stroke-width="2" stroke-linecap="round"/>
<path d="M33.4451 45.6099C31.2051 50.0352 28.416 53.1635 24.5222 56.2974C23.0745 57.4627 20.9575 58.6005 19.8031 60.0847C19.6405 60.2936 20.3389 60.1865 20.5962 60.1244C22.64 59.631 24.6623 59.0439 26.7034 58.5381C28.1516 58.1792 31.6659 56.5847 31.145 57.9829C30.1826 60.5661 26.5314 63.0019 24.5817 64.8237C24.0968 65.2769 22.7022 66.524 23.3524 66.3902C26.1706 65.81 28.8646 64.9633 31.7398 64.6056C31.8996 64.5857 36.519 63.6881 35.5469 65.0022C33.4487 67.8386 30.2685 70.1019 27.437 72.1206C26.7596 72.6036 18.4517 77.523 23.1342 76.8596C24.581 76.6547 33.8237 74.1229 31.6407 77.5338C30.3686 79.5215 29.1027 79.7503 32.3743 79.5167" stroke="white" stroke-width="2" stroke-linecap="round"/>
<path d="M71.9914 46.6807C73.1804 47.2439 75.3715 47.8765 74.2122 49.536C73.3349 50.7916 72.1161 51.8123 71.1784 53.0258C70.5724 53.81 70.1922 54.6711 71.6344 54.4535C72.429 54.3335 73.2807 53.9166 74.0932 53.9776C74.9245 54.0399 72.2436 56.7873 72.15 56.8924C71.0573 58.1188 70.0879 59.4374 69.0171 60.6796C67.8146 62.0745 74.7835 59.9328 75.5605 59.8072C79.0158 59.2482 74.8618 63.1168 74.1725 63.9711C72.4087 66.1572 70.4524 68.1989 69.0567 70.6534C68.8791 70.9658 67.7989 72.3811 68.8585 72.1603C71.3628 71.6386 73.7752 70.0416 76.0364 68.9283C76.1339 68.8803 79.2455 67.0216 79.6848 67.461C80.1212 67.8973 76.8173 72.1925 76.5321 72.6362C75.781 73.8046 72.6121 77.2112 75.5605 75.9476" stroke="white" stroke-width="2" stroke-linecap="round"/>
<path d="M45.5802 58.1021C45.3423 58.3962 42.099 61.7006 42.606 62.385C42.9996 62.9165 44.695 62.7013 45.2233 62.7419" stroke="#2C2C2C" stroke-width="2" stroke-linecap="round"/>
<path d="M59.1426 58.459C59.5616 60.1073 59.9095 61.5649 59.1426 63.0989" stroke="#2C2C2C" stroke-width="2" stroke-linecap="round"/>
<path d="M47.0072 13.4873C44.0729 16.5995 40.7965 19.5921 38.243 23.0447C36.9015 24.8585 35.7796 26.8275 34.3765 28.5966C33.925 29.1659 32.7325 30.9743 33.2462 30.4605C34.56 29.1468 35.5999 27.4323 36.8154 26.0189C38.4823 24.0807 40.5364 22.284 42.0105 20.1894C42.5139 19.474 43.4381 18.6588 43.4381 17.7703" stroke="#EA5666" stroke-width="2" stroke-linecap="round"/>
<path d="M55.5737 13.1304C58.4254 18.6199 60.7245 24.5027 63.4258 29.9053" stroke="#EA5666" stroke-width="2" stroke-linecap="round"/>
<path d="M48.0782 16.7002C47.7363 16.9111 39.5695 21.2116 44.1522 20.4478C46.1955 20.1072 48.2066 19.9124 50.2792 19.9124C51.5281 19.9124 52.5893 19.5413 53.7888 19.1986C58.7975 17.7676 44.4786 23.8884 39.6908 25.9403C38.6043 26.4059 36.4352 27.8426 38.9571 27.3481C43.1143 26.533 47.2285 25.573 51.3301 24.5126C52.344 24.2505 53.7769 23.5417 54.8596 23.4816C57.0327 23.3608 54.8193 25.0784 54.1061 25.8213C52.508 27.486 56.2577 26.2298 56.9218 26.7731C57.5681 27.3019 55.8927 28.1214 57.358 28.1214" stroke="#EA5666" stroke-width="2" stroke-linecap="round"/>
<path d="M37.728 53.4624V55.247" stroke="#EA5666" stroke-width="2" stroke-linecap="round"/>
<path d="M40.2261 54.1763C40.5684 55.1347 41.4042 55.8862 42.0106 56.6747" stroke="#EA5666" stroke-width="2" stroke-linecap="round"/>
<path d="M59.8564 53.1055C59.2307 54.1066 59.1426 54.5093 59.1426 55.247" stroke="#EA5666" stroke-width="2" stroke-linecap="round"/>
<path d="M64.4965 53.4624L63.0688 56.6746" stroke="#EA5666" stroke-width="2" stroke-linecap="round"/>
<path d="M24.5215 84.1567C20.5329 97.7388 16.3125 110.402 16.3125 124.488" stroke="#EA5666" stroke-width="2" stroke-linecap="round"/>
<path d="M79.1294 79.5166V79.8728" stroke="#EA5666" stroke-width="2" stroke-linecap="round"/>
<path d="M77.7021 79.5166C79.8319 86.3448 82.6184 93.2465 82.6989 100.495C82.7356 103.794 82.6766 107.048 82.342 110.33C82.0426 113.268 81.9851 116.188 81.9851 119.134" stroke="#EA5666" stroke-width="2" stroke-linecap="round"/>
<path d="M29.8757 86.2983C28.9314 88.1869 25.7637 94.1677 24.9979 96.7678C24.1007 99.8141 27.1375 97.493 27.8929 97.0454C32.0653 94.5729 36.3823 92.2878 40.7021 90.0856C42.1322 89.3565 40.9569 90.3902 40.5038 91.0175C38.5277 93.7537 36.0275 96.2158 33.8018 98.7507C31.0481 101.887 27.6489 104.536 25.5135 108.149C24.77 109.408 23.3373 110.643 25.4738 109.339C29.3944 106.946 33.1246 104.192 36.8752 101.546C40.6091 98.9123 43.8989 95.7571 47.5628 93.0797C48.3054 92.537 44.3683 98.2646 44.0333 98.6713C40.405 103.077 36.324 107.092 32.4138 111.243C31.514 112.198 30.4618 113.171 29.9551 114.415C29.5642 115.375 31.1925 113.855 31.462 113.701C37.6408 110.171 44.0694 107.171 50.0215 103.232C54.5677 100.223 58.571 96.7376 62.4738 92.9607C64.3841 91.1121 66.4715 89.5084 68.6604 88.0036C68.9883 87.7782 72.1862 86.161 72.1303 86.338C71.4176 88.595 68.3 90.8176 66.7965 92.4848C61.5577 98.2942 56.6475 104.396 51.5285 110.311C51.5134 110.328 48.2367 114.095 47.9792 114.395C47.4088 115.061 45.5751 116.115 46.3731 116.477C47.2368 116.87 48.1306 115.762 49.0103 115.407C52.1076 114.155 55.1974 112.883 58.2305 111.481C62.9133 109.315 66.9632 106.938 70.8415 103.589C71.5181 103.004 72.2366 102.491 72.983 102.003C75.026 100.667 72.5047 104.307 72.1303 105.116C70.9194 107.733 69.4762 110.198 68.1448 112.75C67.4857 114.013 69.6467 113.13 70.207 112.988C72.3337 112.448 74.303 111.344 76.3935 110.806C76.7858 110.706 76.6387 112.455 76.6314 112.71C76.5815 114.458 76.1731 114.138 78.7729 114.138" stroke="#EA5666" stroke-width="2" stroke-linecap="round"/>
<path d="M60.2129 124.131C56.0643 124.415 47.8933 124.957 43.3983 125.321C41.562 125.469 39.3516 124.927 37.9257 126.094C37.2503 126.646 36.7821 127.493 36.3196 128.216C34.6654 130.8 32.6192 133.072 30.946 135.631C30.2906 136.634 29.7081 136.949 30.9658 137.515C33.971 138.867 38.3205 138.05 41.4551 138.05C45.7381 138.05 50.0211 138.05 54.304 138.05C55.6534 138.05 56.4331 138.313 57.08 137.019C58.8733 133.433 59.7973 129.443 61.5613 125.915C61.9857 125.067 62.2776 124.004 62.5329 125.638C62.9173 128.098 63.0682 130.687 63.0682 133.173C63.0682 135.937 62.7113 138.654 62.7113 141.421C62.7113 144.001 63.3775 146.944 61.6406 149.035C61.31 149.434 59.7206 151.91 58.9637 151.574C57.7218 151.022 57.4168 148.105 57.2783 147.013C56.9806 144.665 56.6438 142.548 56.6438 140.192" stroke="#4ECEAD" stroke-width="2" stroke-linecap="round"/>
<path d="M30.5894 138.408C30.8097 142.227 31.4058 146.014 31.6601 149.829C31.6891 150.265 31.5685 150.706 31.8584 151.079C32.6779 152.132 34.862 152.211 36.0224 152.526C38.3681 153.162 40.3898 152.771 42.7839 152.705C47.6788 152.569 52.5676 151.971 57.3579 151.971" stroke="#4ECEAD" stroke-width="2" stroke-linecap="round"/>
<path d="M40.9403 125.916C40.8406 126.056 35.1414 132.939 39.473 130.516C41.119 129.595 42.6624 128.484 44.2715 127.502C45.4715 126.769 45.2428 127.567 44.7077 128.414C43.3313 130.591 41.138 132.276 39.354 134.105C37.6984 135.802 39.7419 133.724 39.929 133.55C41.6487 131.942 43.3677 130.28 45.3025 128.929C46.3824 128.176 49.0991 126.284 47.1664 129.207C45.8274 131.232 41.1662 136.789 42.9628 135.156C45.2544 133.072 48.6256 131.668 51.1718 129.901C51.2002 129.881 54.7783 127.024 55.0978 127.264C55.1864 127.33 52.7135 130.534 52.6391 130.635C51.354 132.372 52.138 131.316 50.9735 132.856C50.7899 133.098 50.1545 133.586 50.458 133.609C51.5466 133.693 53.8056 131.539 54.6418 130.892C55.1108 130.53 54.2892 132.339 54.1461 132.697" stroke="#4ECEAD" stroke-width="2" stroke-linecap="round"/>
<path d="M34.8721 141.62C34.8963 141.619 44.2234 140.66 43.6759 141.937C43.0174 143.474 40.7485 145.02 39.5516 146.141C39.0802 146.583 36.2451 149.011 38.2033 147.529C40.1358 146.067 42.2354 144.779 44.2311 143.405C45.6375 142.436 47.9664 140.171 49.7435 139.875C51.4308 139.594 47.8115 142.708 46.6899 144C45.5046 145.364 44.5751 146.373 43.3587 147.688C43.0759 147.993 41.5716 149.275 41.4353 149.889C41.213 150.889 43.2283 148.893 44.0923 148.342C45.966 147.147 47.8822 146.028 49.7038 144.753C53.0154 142.435 48.9544 147.248 48.296 148.164C42.8917 155.677 52.0039 145.296 52.0039 148.045" stroke="#4ECEAD" stroke-width="2" stroke-linecap="round"/>
<path d="M61.284 134.125C60.3618 136.515 58.9379 139.249 58.4881 141.818C58.3503 142.606 59.2354 141.342 59.4399 141.581C59.8946 142.111 59.2185 144.505 59.1425 145.189" stroke="#4ECEAD" stroke-width="2" stroke-linecap="round"/>
<path d="M73.0625 10.9897L85.9114 10.2759" stroke="#FFDB45" stroke-width="2" stroke-linecap="round"/>
<path d="M79.8433 5.99268L81.2709 18.1277" stroke="#FFDB45" stroke-width="2" stroke-linecap="round"/>
<path d="M83.7696 6.70654L75.9175 16.7001" stroke="#FFDB45" stroke-width="2" stroke-linecap="round"/>
<path d="M77.7021 9.20508L88.7665 18.8417" stroke="#FFDB45" stroke-width="2" stroke-linecap="round"/>
<path d="M11.6729 26.3364L19.8819 26.6933" stroke="#FFDB45" stroke-width="2" stroke-linecap="round"/>
<path d="M19.1686 19.9126C17.4214 24.5936 15.0603 28.7103 12.7441 33.1184" stroke="#FFDB45" stroke-width="2" stroke-linecap="round"/>
<path d="M13.1006 22.0537L18.4543 32.0473" stroke="#FFDB45" stroke-width="2" stroke-linecap="round"/>
<path d="M85.5542 49.1792L92.6925 49.893" stroke="#FFDB45" stroke-width="2" stroke-linecap="round"/>
<path d="M92.6926 46.6807L87.6958 52.7482" stroke="#FFDB45" stroke-width="2" stroke-linecap="round"/>
<path d="M86.9819 45.2529L91.2649 52.7481" stroke="#FFDB45" stroke-width="2" stroke-linecap="round"/>
<path d="M45.5796 130.198C45.4213 130.122 39.5529 126.947 39.9483 128.572C40.1532 129.415 40.8691 130.802 41.4949 131.428C42.0709 132.004 44.407 132.231 44.8658 131.428C45.4777 130.357 50.2195 126.946 50.2195 129.683C50.2195 131.003 49.7557 132.34 48.078 132.34C46.5448 132.34 46.8322 130.373 45.5003 131.705C44.187 133.019 44.1662 133.366 43.7157 134.918C43.3394 136.214 43.0812 137.507 43.0812 138.863C43.0812 139.851 44.0111 137.119 44.5089 136.266" stroke="#FFDB45" stroke-width="2" stroke-linecap="round"/>
<path d="M46.2939 130.556C47.1069 132.199 47.9964 133.961 48.7923 135.552" stroke="#FFDB45" stroke-width="2" stroke-linecap="round"/>
<path d="M47.7216 125.559L46.6509 128.771" stroke="#FFDB45" stroke-width="2" stroke-linecap="round"/>
<path d="M47.3643 131.983C47.3643 138.004 48.2081 144.395 49.8627 150.186" stroke="#FFDB45" stroke-width="2" stroke-linecap="round"/>
<path d="M49.1489 131.626C53.0051 132.949 57.6553 132.899 61.6409 133.411" stroke="#FFDB45" stroke-width="2" stroke-linecap="round"/>
<path d="M60.2139 134.125C60.9184 136.115 62.3553 138.688 62.3553 140.906" stroke="#FFDB45" stroke-width="2" stroke-linecap="round"/>
<path d="M40.2258 130.913C38.4589 131.223 36.6743 131.626 34.8721 131.626" stroke="#FFDB45" stroke-width="2" stroke-linecap="round"/>
<path d="M31.6604 121.989C26.1058 122.454 20.2031 122.525 14.707 123.615C13.298 123.895 12.9378 124.399 12.1887 125.479C11.5573 126.39 11.0968 127.503 10.4438 128.374C10.3674 128.476 14.9068 129.456 15.163 129.484C17.2635 129.716 20.647 129.314 22.5591 130.377C23.3534 130.818 24.7074 130.643 25.3945 130.119C27.5766 128.454 29.0102 126.268 30.55 124.032C30.9981 123.381 32.6008 121.913 31.819 122.029C30.4856 122.226 28.6797 123.755 27.536 124.408C26.6932 124.89 25.7174 125.36 24.998 126.034C24.8546 126.169 24.7772 126.558 24.6014 126.471C24.3608 126.35 25.9132 123.618 25.8506 123.179C25.832 123.049 19.0337 127.008 18.1373 127.383C17.5605 127.624 17.761 126.451 17.5623 126.094C17.1903 125.424 17.464 124.909 16.7493 124.408C16.3771 124.148 15.7482 125.243 15.6191 124.468C15.5221 123.886 15.8177 123.257 15.9562 122.703" stroke="#4694FF" stroke-width="2" stroke-linecap="round"/>
<path d="M11.3159 128.414C11.4786 134.514 12.0297 140.67 12.0297 146.755C12.0297 147.8 11.659 149.874 12.3867 150.82C13.2209 151.905 16.6654 151.257 17.9188 151.257C20.3577 151.257 22.7966 151.257 25.2355 151.257" stroke="#4694FF" stroke-width="2" stroke-linecap="round"/>
<path d="M27.02 129.842C27.2026 135.024 27.7309 140.211 26.9407 145.348C26.7241 146.756 26.6631 148.055 26.6631 149.472" stroke="#4694FF" stroke-width="2" stroke-linecap="round"/>
<path d="M17.0271 130.913C16.4071 131.758 14.9705 136.33 17.1064 135.513C19.0404 134.773 20.8227 133.137 22.7377 132.499C22.9248 132.437 22.6847 132.896 22.5989 133.074C21.9719 134.373 21.1284 135.582 20.398 136.822C19.5223 138.308 18.7202 139.815 17.9591 141.362C17.8563 141.571 16.3545 144.52 16.7099 144.416C19.2359 143.677 21.855 141.537 24.0464 140.192C24.7544 139.758 27.6878 137.452 28.8846 137.377C29.4985 137.338 28.3402 138.482 28.0121 139.003C27.401 139.972 26.8397 140.974 26.1879 141.917C24.8604 143.839 21.3101 146.525 21.3101 149.115" stroke="#4694FF" stroke-width="2" stroke-linecap="round"/>
<path d="M32.731 122.703L33.8017 130.198" stroke="#4694FF" stroke-width="2" stroke-linecap="round"/>
<path d="M32.7314 125.916C32.5264 125.916 32.0272 128.378 32.0176 128.414" stroke="#4694FF" stroke-width="2" stroke-linecap="round"/>
<path d="M64.853 136.266C70.3164 136.275 81.1927 136.272 87.1403 136.345C89.3232 136.372 91.5402 136.209 93.6837 136.623C93.8052 136.647 93.763 137.251 93.763 137.337C93.763 138.153 93.7666 138.667 93.0095 139.201C90.8314 140.736 87.8034 141.771 85.2368 142.413C82.6153 143.068 79.9363 143.557 77.2657 143.96C75.8823 144.168 73.4007 144.892 72.1896 143.761C71.3876 143.013 70.6563 142.381 70.0481 141.441C69.6952 140.896 69.456 140.272 69.1558 139.696C68.9679 139.336 69.0981 138.487 68.6998 138.566C68.6003 138.586 66.7565 140.678 67.6687 139.597C68.229 138.934 74.0478 134.317 74.0931 134.442C74.5267 135.634 73.7759 137.557 73.7759 138.824C73.7759 139.986 77.3204 136.179 76.8889 137.258C76.1916 139.001 72.8335 143.579 73.875 142.016C74.5262 141.04 80.0962 137.797 79.0106 139.835C78.1401 141.47 74.487 145.662 75.838 144.396C76.8553 143.442 77.9157 142.596 79.0503 141.778C79.8046 141.235 80.6008 140.707 81.3504 140.153C81.5567 140 81.9849 139.46 81.9849 139.716C81.9849 140.651 80.2594 143.02 80.7952 142.254C81.4074 141.38 82.4856 140.299 83.4125 139.835" stroke="#AC94EA" stroke-width="2" stroke-linecap="round"/>
<path d="M67.352 138.764C67.352 140.464 66.1242 145.824 68.4227 146.973" stroke="#AC94EA" stroke-width="2" stroke-linecap="round"/>
<path d="M73.7758 145.189C73.6617 146.915 74.1089 150.12 73.1413 151.693C72.7599 152.312 73.2421 154.574 73.0422 153.874C72.4449 151.783 70.7187 149.689 69.7705 147.687C69.2461 146.58 68.9075 145.042 69.1558 143.801C69.4571 142.294 70.0979 147.687 71.6344 147.687" stroke="#AC94EA" stroke-width="2" stroke-linecap="round"/>
<path d="M74.8472 153.041C79.8263 150.726 85.5834 150.363 90.5514 148.045C90.7947 147.931 91.4652 147.705 91.6221 147.509C91.8786 147.189 92.3503 147.096 92.6929 146.895C93.1795 146.608 93.3217 145.677 93.5851 145.209C94.2781 143.977 94.7806 142.538 94.4576 141.085C94.0667 139.326 91.2652 147.249 91.2652 145.447C91.2652 144.343 91.3824 143.172 91.2454 142.076C91.1682 141.459 90.443 142.599 90.4324 142.612C89.17 144.13 87.9298 145.641 86.546 147.053C86.3425 147.261 83.8611 150.046 83.7898 149.333C83.7637 149.072 83.8577 146.062 83.6907 146.062C82.0561 146.062 79.4526 149.25 78.3766 150.226C76.7065 151.74 76.9186 150.674 77.5042 149.155C77.9902 147.895 79.1134 146.09 77.524 147.846C77.1085 148.306 76.5276 148.61 76.2748 149.115" stroke="#AC94EA" stroke-width="2" stroke-linecap="round"/>
<path d="M18.8115 124.131C14.2428 119.745 14.6585 124.642 17.5623 124.587C19.2769 124.555 19.5504 124.189 20.4375 123.06C21.0521 122.278 22.3675 122.122 23.2531 122.525C24.977 123.308 22.8221 125.951 21.2306 125.479C19.9117 125.089 19.6029 124.842 18.2563 125.757C17.5241 126.254 13.2731 129.437 16.3132 127.7" stroke="#AC94EA" stroke-width="2" stroke-linecap="round"/>
<path d="M20.2388 125.559L22.0233 127.7" stroke="#AC94EA" stroke-width="2" stroke-linecap="round"/>
<path d="M20.2389 126.272C16.8766 129.915 18.0974 136.432 18.0974 141.084C18.0974 142.007 18.1867 150.319 18.4543 150.186" stroke="#AC94EA" stroke-width="2" stroke-linecap="round"/>
<path d="M23.0942 124.845C23.6964 124.957 29.1222 125.324 29.1618 126.352C29.1977 127.287 29.1618 128.233 29.1618 129.168C29.1618 130.82 29.1618 132.473 29.1618 134.125" stroke="#AC94EA" stroke-width="2" stroke-linecap="round"/>
<path d="M79.8438 138.407C78.8713 137.435 77.8659 136.652 76.7109 135.909C76.4348 135.732 75.1263 134.827 74.847 135.037C74.268 135.471 74.273 137.655 74.6884 138.189C75.8822 139.724 78.231 138.48 78.8127 137.099C79.5108 135.441 81.0497 132.547 83.4129 133.847C84.0857 134.217 84.0399 136.475 83.9086 137.079C83.6578 138.233 81.4523 138.065 80.5973 138.051C78.9012 138.022 77.385 134.713 77.385 133.212C77.385 130.626 78.9988 133.414 79.2886 134.283C79.7537 135.678 79.8438 136.953 79.8438 138.407Z" stroke="#FA6E55" stroke-width="2" stroke-linecap="round"/>
<path d="M78.4162 137.694C76.0707 140.039 78.9287 142.134 81.4698 140.747C83.3078 139.745 81.216 138.408 80.2008 138.408" stroke="#FA6E55" stroke-width="2" stroke-linecap="round"/>
<path d="M76.9884 139.835C74.4565 140.662 72.5206 140.588 71.6347 143.246C71.2067 144.53 70.9209 146.366 70.9209 147.688" stroke="#FA6E55" stroke-width="2" stroke-linecap="round"/>
<path d="M81.9849 140.906C84.3384 143.456 81.6876 147.242 83.4125 149.829" stroke="#FA6E55" stroke-width="2" stroke-linecap="round"/>
<path d="M84.4839 137.337C85.8604 136.537 87.3506 135.898 88.4099 134.839" stroke="#FA6E55" stroke-width="2" stroke-linecap="round"/>
<path d="M55.573 105.929C54.3538 106.502 45.6056 111.494 46.1347 112.175C46.9709 113.25 48.0937 113.067 49.3667 113.067C52.2336 113.067 55.4407 112.897 57.893 111.263C58.5882 110.799 58.4991 109.529 58.4085 108.804C58.2014 107.147 53.0126 107.758 51.9642 107.733C50.2202 107.692 47.8279 107.326 46.1545 108.07C45.2343 108.479 45.5795 112.484 45.5795 113.345C45.5795 117.304 51.9297 116.559 54.7006 115.922C56.5427 115.499 58.4591 114.296 57.9921 112.195C57.8127 111.387 57.7624 110.668 57.7145 109.855C57.6648 109.009 49.6671 109.475 48.6727 109.498C46.4636 109.55 45.6609 112.342 45.3019 114.257C45.1005 115.33 47.3315 115.642 48.0778 115.922" stroke="#2C2C2C" stroke-width="2" stroke-linecap="round"/>
<path d="M44.5093 110.925C36.6386 110.844 28.3932 110.249 20.5168 110.965C19.4582 111.061 22.5881 111.506 23.6497 111.56C25.815 111.669 27.9861 111.639 30.1534 111.639C33.1228 111.639 36.0909 111.996 39.0763 111.996C40.9174 111.996 42.7122 112.265 44.549 112.353C45.4194 112.394 42.8213 112.597 41.9713 112.789C38.8421 113.497 35.6749 114.587 32.4932 114.99C29.5772 115.36 26.5474 115.447 23.61 115.545C23.1059 115.562 21.6291 115.845 21.1513 115.367C20.8033 115.019 20.5542 113.12 20.9728 113.087C26.6834 112.63 32.571 113.067 38.303 113.067C40.3929 113.067 42.8802 112.629 44.8662 113.424" stroke="#2C2C2C" stroke-width="2" stroke-linecap="round"/>
<path d="M59.4995 109.855C67.4584 109.322 75.5204 108.336 83.492 108.07C84.3365 108.042 84.5273 107.961 83.5714 108.467C78.9566 110.91 74.4741 112.806 69.2948 113.146C66.9961 113.297 64.6646 113.552 62.3548 113.424C62.0554 113.407 61.8987 113.124 61.641 112.988C59.8252 112.026 65.7339 112.585 67.7878 112.532C72.0645 112.421 76.339 112.353 80.6169 112.353C82.5053 112.353 76.9656 113.322 75.1244 113.741C72.0091 114.451 69.1397 114.852 65.9636 114.852C65.4266 114.852 62.3832 114.904 63.4256 114.832C71.6021 114.268 79.8547 113.067 88.0526 113.067" stroke="#2C2C2C" stroke-width="2" stroke-linecap="round"/>
<path d="M49.863 110.212C49.0107 110.969 46.3345 112.895 47.4439 112.631C48.5387 112.37 49.7633 111.087 50.6561 110.449C53.4671 108.442 49.6438 112.282 50.4182 112.036C51.0653 111.83 55.919 108.812 54.8598 110.648C54.2545 111.697 55.6149 110.651 55.9305 111.282" stroke="#FFDB45" stroke-width="2" stroke-linecap="round"/>
<path d="M26.6631 18.4847C27.4682 18.8705 29.6671 20.3599 30.7478 20.0512C31.3436 19.8809 31.6137 18.1744 31.8185 17.6717C32.1003 16.9801 32.4526 16.3243 32.7306 15.6294" stroke="#2C2C2C" stroke-width="2" stroke-linecap="round"/>
<path d="M30.947 19.5554C29.4274 15.2785 27.7396 11.004 26.3071 6.70654" stroke="#2C2C2C" stroke-width="2" stroke-linecap="round"/>
</svg>
