<svg width="105" height="160" viewBox="0 0 244 426" fill="none" xmlns="http://www.w3.org/2000/svg">
<rect width="244" height="426" rx="15.6" fill="#C0DAFF"/>
<path d="M224 183.23C214.423 183.23 204.846 183.23 195.269 183.23C194.678 183.23 193.783 182.712 193.496 183.23C192.571 184.901 192.986 187.019 192.826 188.924C191.995 198.768 190.879 208.754 191.013 218.654C191.032 220.067 191.796 222.811 191.092 224.11C190.409 225.369 186.569 224.949 185.692 225.019C177.633 225.663 169.701 227.129 161.809 228.854C159.07 229.453 156.376 230.246 153.592 230.574C152.689 230.681 150.941 231.215 150.242 231.8C149.406 232.499 150.622 235.095 150.735 235.991C152.374 248.998 151.225 262.344 149.592 275.269C149.478 276.171 149.651 276.43 148.725 276.455C144.071 276.581 139.865 278.082 135.522 279.618C130.822 281.28 126.105 282.766 121.216 283.769C118.439 284.339 114.501 284.185 111.875 285.272C109.784 286.137 111.228 292.707 111.323 294.167C111.576 298.059 111.56 301.932 111.56 305.83C111.56 306.672 112.426 314.221 111.323 314.824C110.604 315.218 108.573 314.884 107.875 314.884C104.392 314.884 100.971 315.093 97.5097 315.516C87.3093 316.764 77.2688 318.98 67.1434 320.695C64.1894 321.196 61.0203 322 58 322" stroke="#2C2C2C" stroke-width="5" stroke-linecap="round"/>
<path d="M137.653 144.093C132.089 144.119 125.73 143.463 120.368 145.298C117.797 146.178 117.407 147.394 116.573 149.985C115.299 153.942 113.334 161.012 117.635 164.024C118.804 164.843 120.097 164.908 121.43 165.287C125.004 166.301 129.735 166.023 133.445 165.727C140.183 165.188 145.971 162.838 151.851 159.816C153.48 158.979 154.946 156.577 154.998 154.766C155.072 152.149 153.355 150.141 151.084 148.76C148.761 147.348 146.435 146.842 143.808 146.331C142.631 146.102 137.299 146.243 137.299 145.126" stroke="#FF9061" stroke-width="5" stroke-linecap="round"/>
<path d="M124.086 151C124.086 152.871 123.676 155.54 124.643 157.261C125.665 159.079 133.392 159.85 133.392 157.689C133.392 155.56 135.632 154.047 134.824 152.216" stroke="#FF9061" stroke-width="5" stroke-linecap="round"/>
<path d="M154.023 116.707C148.261 116.707 142.494 116.65 136.732 116.707C128.563 116.788 120.889 121.99 113.487 124.896C112.035 125.466 112.314 125.316 112.289 124.195C112.26 122.894 111.849 121.714 111.071 120.671C109.048 117.962 105.631 116.457 102.386 116.006C100.603 115.759 98.1415 114.625 98.1415 116.947C98.1415 119.196 97.6365 122.184 98.5345 124.275C99.7768 127.169 101.776 131.845 105.038 132.584C106.417 132.896 105.569 140.806 105.569 141.694C105.569 147.18 105.569 152.666 105.569 158.152C105.569 161.005 106.206 163.796 106.276 166.641C106.362 170.122 109.154 174.463 112.328 175.61C114.775 176.495 117.715 177.934 120.345 177.973C124.41 178.034 128.481 177.973 132.547 177.973C139.205 177.973 146.562 176.99 152.844 174.769C156.963 173.313 160.869 172.671 162.865 168.603C163.834 166.63 164.114 164.606 164.437 162.436C165.016 158.554 165.836 154.63 166.029 150.704C166.295 145.288 166.177 139.76 165.518 134.386C165.36 133.101 164.056 127.539 165.223 126.998C169.754 124.9 171 120.599 171 115.826C171 112.287 166.304 111.463 163.651 112.302C160.596 113.269 157.519 114.803 154.691 116.307C153.869 116.744 154.023 117.711 154.023 118.509" stroke="#FF9061" stroke-width="5" stroke-linecap="round"/>
<path d="M116.121 122C116.121 119.338 116.121 116.676 116.121 114.013C116.121 113.131 115.777 111.323 116.249 110.52C117.69 108.07 119.136 106.782 120.243 109.595C120.845 111.126 121.564 112.545 122.103 114.108C122.626 115.624 124 117.332 124 118.941" stroke="#FF9061" stroke-width="5" stroke-linecap="round"/>
<path d="M142 113.519C142.125 112.238 142.393 109.116 143.389 108.076C145.753 105.607 148.266 107.856 149.094 110.122C149.996 112.588 152 120.047 152 117.464" stroke="#FF9061" stroke-width="5" stroke-linecap="round"/>
<path d="M109.869 177C105.136 178.579 100.385 181.123 96.2725 183.921C92.0122 186.82 87.9096 190.009 83.8056 193.11C80.541 195.577 76.3647 198.242 73.4793 201.283C72.6591 202.147 71.7222 204.403 71.4973 205.506C70.6399 209.709 71.1379 214.67 71.2 218.859C71.267 223.384 71.0543 228.21 71.8739 232.702C73.0669 239.24 73.0644 246.027 73.8361 252.624C74.6034 259.185 76.0108 265.71 76.3334 272.313C76.5254 276.243 76.6465 280.393 77.1262 284.298C77.288 285.614 77.4037 286.827 77.4037 288.169C77.4037 288.908 76.9069 291.898 77.5821 292.431C78.2242 292.938 78.2245 295.131 78.3749 295.794C78.8055 297.693 79.4063 299.538 80.0199 301.385C80.2693 302.136 80.5852 304.092 81.3281 304.67C82.2187 305.364 85.5812 304.748 86.6002 304.748C88.8511 304.748 90.7251 303.305 92.8634 302.637C94.3285 302.179 94.2487 300.248 94.5283 298.961C95.1885 295.922 95.5986 292.918 95.5986 289.811C95.5986 285.284 94.5902 280.8 94.5283 276.282C94.4697 272.008 94.5283 267.73 94.5283 263.456C94.5283 263.029 94.3335 259.031 95.4004 260.914C97.3477 264.352 103.092 266.502 106.658 267.601C110.056 268.648 113.41 269.849 116.806 270.885C117.494 271.096 119.51 272.164 120.215 271.941C122.057 271.36 123.935 270.334 125.626 269.419C126.747 268.813 127.529 267.527 128.242 266.525C129.101 265.32 131.292 263.07 131.473 261.599C131.708 259.689 129.469 256.955 128.421 255.518C126.921 253.463 125.22 252.308 122.871 251.373C118.137 249.489 110.711 246.853 108.521 241.813C107.966 240.536 108.559 239.219 109.274 238.137C111.398 234.925 114.46 232.312 117.004 229.437C124.998 220.404 134.625 212.118 144.356 204.919C144.682 204.678 145.368 204.202 145.823 204.528C147.777 205.93 152.06 205.948 154.345 206.347C158.779 207.12 162.698 208.098 166.832 209.729C168.828 210.517 170.358 211.019 172.441 211.332C174.448 211.633 176.455 211.84 178.486 211.84C179.955 211.84 180.865 210.639 181.856 209.651C184.877 206.638 184.789 204.825 184.789 200.794C184.789 197.096 183.66 196.434 180.151 194.753C177.249 193.362 174.047 192.925 170.994 191.976C169.734 191.584 165.815 190.883 165.544 189.141C165.304 187.605 165.702 186.705 166.238 185.368C167.115 183.178 168.028 182.256 170.598 181.595C174.596 180.566 178.983 180.715 183.065 180.011C183.725 179.897 187.549 178.574 188 179.463" stroke="#FF9061" stroke-width="5" stroke-linecap="round"/>
<path d="M166 162.098C173.546 162.098 181.091 162.098 188.637 162.098C190.323 162.098 192.612 161.668 194.125 162.609C197.686 164.824 200.619 169.292 199.887 173.743C199.637 175.262 193.4 178.585 192.106 177.911" stroke="#FF9061" stroke-width="5" stroke-linecap="round"/>
<path d="M71 218.129C68.4909 218.129 65.3505 217.516 63.1164 218.961C59.259 221.456 55.4197 224.272 52.0095 227.382C50.2447 228.991 49.2098 230.839 47.9706 232.87C46.5845 235.142 43.2339 242.913 40.0481 241.093C39.2917 240.66 35.7438 240.545 35.6986 241.746C35.6316 243.523 34.1319 243.746 33.1354 245.075C32.3975 246.06 34.9044 245.287 35.1549 245.253C38.1903 244.84 34.8362 252.011 34.3587 253.278C33.789 254.789 33.1304 256.806 34.3005 254.348C34.5603 253.802 35.6683 252.535 35.6986 252.01C35.7903 250.418 36.0481 252.477 36.0481 253.06C36.0481 254.454 35.182 259.997 36.2228 260.846C36.3994 260.991 37.6326 257.871 37.7957 257.399C38.0375 256.7 38.4308 254.965 39.1161 254.546C39.4115 254.365 39.1902 255.245 39.2132 255.596C39.2592 256.301 39.4077 256.985 39.5433 257.676C39.5822 257.875 40.3576 262.136 41.4462 260.708C42.6254 259.161 41.4738 256.635 41.2909 255.002C40.9129 251.627 39.1294 248.829 38.4947 245.59" stroke="#FF9061" stroke-width="5" stroke-linecap="round"/>
<path d="M124.1 134.48C119.459 134.48 114.817 134.48 110.176 134.48C109.09 134.48 107.326 134.129 106.287 134.48C105.111 134.877 107.862 136.508 108.893 137.217C110.532 138.343 112.269 139.428 114.066 140.276C114.959 140.697 116.63 141 117.624 141C118.253 141 120.782 140.967 121.222 140.557C121.724 140.089 122.284 138.894 122.875 138.283C123.443 137.695 123.571 136.549 124.1 136.21C124.848 135.731 126.893 133.025 127.775 133.755C129.7 135.349 133.976 133.662 136.37 134.158C137.745 134.442 140.243 136.072 141.095 137.297C141.489 137.863 142.475 138.464 143.176 138.464C145.875 138.464 149.667 136.68 152.101 135.566C153.693 134.839 155.156 133.89 156.807 133.172C158.987 132.223 161.265 131.149 163.574 130.575C164.7 130.296 163.298 130.298 162.758 130.213C160.024 129.786 157.034 130.133 154.279 130.133C149.94 130.133 145.704 130.634 141.445 131.501C140.276 131.739 137.849 132.001 137.4 133.393" stroke="#2C2C2C" stroke-width="5" stroke-linecap="round"/>
<path d="M145 133.388C146.246 133.244 147.312 132.394 148.529 132.072C150.259 131.614 148.763 133.468 148.333 134.274C148.257 134.416 147.029 136.97 147.314 136.998C148.063 137.07 149.341 135.224 149.98 134.773C150.502 134.405 150.721 134.444 151 133.797" stroke="#2C2C2C" stroke-width="5" stroke-linecap="round"/>
<path d="M121 136.01C118.961 136.27 117.561 136.043 115.608 136.01C114.303 135.988 108.302 136.01 112.426 136.01C114.942 136.01 116.424 138 118.811 138" stroke="#2C2C2C" stroke-width="5" stroke-linecap="round"/>
<path d="M177 205C177 194.203 177 183.406 177 172.609C177 170.935 178.297 171.167 179.881 171.187C187.023 171.275 194.139 172.001 201.294 172.044C206.408 172.075 211.538 172.116 216.652 172.024C218.148 171.998 217.996 172 217.996 170.7C217.996 162.793 217.337 155.046 216.652 147.171C216.509 145.519 216.661 142.61 215.893 141.075C215.733 140.754 215.362 141.555 215.095 141.795C214.05 142.736 213.003 143.672 212.058 144.717C210.264 146.701 209.586 147.819 209.586 150.307" stroke="#F8596A" stroke-width="5" stroke-linecap="round"/>
<path d="M216 140C218.586 140 220.15 140.291 222.249 141.576C223.191 142.153 227.011 145.472 225.746 143.233" stroke="#F8596A" stroke-width="5" stroke-linecap="round"/>
<path d="M28 305C37.4429 295.64 46.6631 286.285 57.1268 278.025C57.6762 277.591 62.3851 274.799 61.9747 274" stroke="#F8596A" stroke-width="5" stroke-linecap="round"/>
<path d="M48 275.242C51.5162 275.242 55.9917 274.685 59.5355 275.262C60.3558 275.395 60.0619 280.787 60.1173 281.297C60.4852 284.686 61 288.058 61 291.468C61 293.128 61 297.391 61 293.232" stroke="#F8596A" stroke-width="5" stroke-linecap="round"/>
<path d="M82.0181 47.1585C79.8426 47.1585 77.0671 46.7148 74.9804 47.3122C64.5496 50.2984 70.0561 72.6161 58.0259 70.3711C54.7425 69.7583 43.5795 63.5811 44.7503 70.8322C44.9828 72.2728 45.4924 73.5387 46.9495 74.0989C50.1425 75.3264 40.0699 74.0638 36.6329 74.1758C30.3929 74.3791 31.1165 82.0443 34.9135 85.4746C41.5666 91.4853 48.4107 87.7004 55.6667 86.6276C60.3966 85.9282 67.0838 90.9241 71.5015 92.4307C76.7056 94.2055 76.9695 91.6058 80.2586 87.7421C81.2904 86.5301 81.6431 86.6316 83.1377 87.0119C87.8737 88.2167 92.7383 88.5672 97.613 88.8181C100.622 88.9731 106.648 90.2455 109.009 87.7036C111.396 85.1342 112.869 81.5105 114.407 78.4417C117.486 72.3014 121.471 73.4456 127.923 73.4456C129.418 73.4456 134.272 74.2616 135.561 73.0228C137.435 71.2213 132.766 67.0414 131.802 66.182C125.737 60.7773 120.862 60.9169 113.408 60.9169C112.937 60.9169 111.065 58.5083 110.569 58.2267C107.334 56.3915 104.026 56.0196 100.372 56.5742C97.2498 57.048 95.5698 58.1198 93.1344 59.8408C91.9248 60.6957 92.7345 59.4248 92.7345 58.7648C92.7345 53.836 88.4648 52.3392 84.1773 51.3091" stroke="white" stroke-width="5" stroke-linecap="round"/>
<path d="M201.409 61.5214C199.246 61.5214 196.575 61.0528 194.491 61.5214C189.465 62.6518 184.61 74.149 191.19 76.1518C196.193 77.6746 195.546 75.8357 196.928 80.8968C198.224 85.6437 200.521 87.9553 205.614 86.6303C211.771 85.0282 214.194 80.5477 220.274 83.9019C223.297 85.5699 225.556 86.7337 228.999 85.4045C231.529 84.4278 235.567 82.667 234.934 79.3546C233.828 73.5717 224.571 73.993 220.234 74.3724C219.206 74.4624 218.258 75.2628 218.427 73.8188C218.762 70.9472 219.864 67.2683 218.78 64.4474C218.314 63.2325 216.837 64.0387 216.422 62.7867C215.529 60.091 216.143 56.8227 214.143 54.5225C211.257 51.2048 203.633 64.6724 202.116 67.2154" stroke="white" stroke-width="5" stroke-linecap="round"/>
<path d="M44.756 136C41.6845 136.352 32.7404 136.268 32.1751 141.098C32.028 142.355 32.9843 147.462 31.6703 147.936C27.3361 149.499 21.8911 146.368 22.0017 152.994C22.1213 160.16 26.7358 162.839 33.3788 162.664C36.8861 162.571 40.3001 161.413 43.5134 160.034C44.8444 159.463 47.8154 157.059 49.4932 157.849C51.8737 158.969 53.9128 161.753 56.2108 163.19C60.3619 165.785 64.5443 161.294 68.9859 161.531C72.3374 161.71 75.2621 162.075 77.4896 158.941C79.7928 155.702 79.6324 151.911 75.8199 150.161C74.4681 149.541 68.4988 149.799 67.8986 148.705C67.2899 147.595 67.8359 144.696 67.821 143.526C67.6893 133.24 54.0298 140.48 50.5028 145.468C50.1121 146.02 50.2243 144.758 49.6097 144.011C48.0363 142.098 45.5542 142.555 43.3581 142.555" stroke="white" stroke-width="5" stroke-linecap="round"/>
</svg>
