<svg width="105" height="161" viewBox="0 0 105 161" fill="none" xmlns="http://www.w3.org/2000/svg">
<rect width="105" height="161" rx="5.0392" fill="#A3E7D8"/>
<path d="M61.492 147.028C61.5573 146.991 61.6367 146.972 61.73 146.972C61.8327 146.963 61.9073 146.972 61.954 147C61.9913 147.028 62.0287 147.033 62.066 147.014C62.1127 146.986 62.2807 146.972 62.57 146.972C62.8687 146.972 63.0507 146.991 63.116 147.028C63.1907 147.065 63.2653 147.093 63.34 147.112C63.4707 147.149 63.536 147.271 63.536 147.476C63.536 147.588 63.4987 147.681 63.424 147.756C63.2653 147.915 63.1207 147.975 62.99 147.938C62.9247 147.938 62.8687 147.947 62.822 147.966C62.766 147.994 62.5653 148.008 62.22 148.008C61.884 148.008 61.6787 147.994 61.604 147.966C61.5293 147.929 61.4593 147.929 61.394 147.966C61.338 147.994 61.1653 148.008 60.876 148.008C60.596 148.008 60.442 148.022 60.414 148.05C60.3953 148.078 60.386 148.283 60.386 148.666C60.3953 148.946 60.4047 149.114 60.414 149.17C60.4233 149.217 60.442 149.259 60.47 149.296C60.526 149.343 60.666 149.366 60.89 149.366C61.114 149.366 61.268 149.352 61.352 149.324C61.436 149.287 61.5947 149.273 61.828 149.282C62.0707 149.282 62.2013 149.277 62.22 149.268C62.2387 149.249 62.402 149.235 62.71 149.226H63.186L63.284 149.338C63.34 149.413 63.3913 149.478 63.438 149.534C63.5033 149.581 63.5313 149.665 63.522 149.786C63.522 149.898 63.4987 149.968 63.452 149.996C63.4053 150.015 63.3587 150.043 63.312 150.08C63.2747 150.117 63.0507 150.136 62.64 150.136C62.3413 150.145 62.1593 150.155 62.094 150.164C62.038 150.173 61.9913 150.197 61.954 150.234C61.842 150.337 61.73 150.327 61.618 150.206C61.5527 150.131 61.4733 150.131 61.38 150.206C61.3333 150.243 61.3053 150.262 61.296 150.262C61.2867 150.262 61.254 150.243 61.198 150.206C61.1513 150.169 61.0393 150.15 60.862 150.15C60.694 150.15 60.596 150.159 60.568 150.178C60.54 150.197 60.526 150.421 60.526 150.85C60.526 151.27 60.5447 151.503 60.582 151.55C60.6287 151.606 60.652 151.723 60.652 151.9C60.652 152.068 60.638 152.18 60.61 152.236C60.5727 152.264 60.5447 152.315 60.526 152.39C60.5167 152.465 60.484 152.516 60.428 152.544C60.3907 152.563 60.3393 152.595 60.274 152.642C60.218 152.679 60.148 152.698 60.064 152.698C59.9427 152.698 59.8307 152.651 59.728 152.558L59.644 152.446L59.616 151.956C59.5973 151.592 59.5927 151.293 59.602 151.06C59.602 150.817 59.5927 150.491 59.574 150.08C59.5553 149.669 59.5413 149.445 59.532 149.408C59.504 149.371 59.49 149.142 59.49 148.722V148.064L59.42 147.966C59.3733 147.919 59.35 147.873 59.35 147.826C59.35 147.779 59.3267 147.733 59.28 147.686C59.2427 147.63 59.2193 147.555 59.21 147.462C59.2007 147.369 59.224 147.294 59.28 147.238C59.3453 147.173 59.434 147.14 59.546 147.14C59.6113 147.14 59.9473 147.126 60.554 147.098C61.1047 147.089 61.4173 147.065 61.492 147.028ZM64.0105 148.988C64.0291 148.96 64.0945 148.946 64.2065 148.946C64.3278 148.946 64.3978 148.969 64.4165 149.016C64.4445 149.053 64.4911 149.072 64.5565 149.072C64.6031 149.072 64.6358 149.086 64.6545 149.114C64.7198 149.151 64.7525 149.273 64.7525 149.478C64.7525 149.571 64.7758 149.627 64.8225 149.646C64.8691 149.655 64.9391 149.613 65.0325 149.52C65.1258 149.417 65.2191 149.366 65.3125 149.366C65.4151 149.366 65.4898 149.343 65.5365 149.296C65.5831 149.249 65.7371 149.231 65.9985 149.24C66.2598 149.24 66.4138 149.259 66.4605 149.296C66.5071 149.343 66.5725 149.366 66.6565 149.366C66.7498 149.366 66.8245 149.394 66.8805 149.45C66.9458 149.497 66.9878 149.52 67.0065 149.52C67.0905 149.52 67.1325 149.567 67.1325 149.66C67.1325 149.697 67.1558 149.739 67.2025 149.786C67.2585 149.833 67.2865 149.893 67.2865 149.968C67.2865 150.015 67.2725 150.057 67.2445 150.094C67.2165 150.122 67.1371 150.201 67.0065 150.332C66.8851 150.444 66.7685 150.444 66.6565 150.332C66.6005 150.285 66.5351 150.248 66.4605 150.22C66.3858 150.211 66.3251 150.192 66.2785 150.164C66.2318 150.145 66.1758 150.136 66.1105 150.136C66.0638 150.136 65.9845 150.164 65.8725 150.22C65.7698 150.267 65.7045 150.309 65.6765 150.346C65.6671 150.374 65.6298 150.393 65.5645 150.402C65.4991 150.411 65.4151 150.472 65.3125 150.584C65.2098 150.696 65.1585 150.78 65.1585 150.836C65.1585 150.892 65.1351 150.943 65.0885 150.99C65.0418 151.027 65.0185 151.125 65.0185 151.284C65.0371 151.433 65.0651 151.536 65.1025 151.592C65.1398 151.648 65.1585 151.76 65.1585 151.928V152.194L65.0185 152.292C64.9531 152.385 64.8505 152.432 64.7105 152.432L64.5005 152.446L64.3745 152.32C64.2905 152.236 64.2391 152.175 64.2205 152.138C64.2018 152.091 64.1738 152.04 64.1365 151.984C64.1085 151.937 64.0945 151.723 64.0945 151.34C64.0945 150.957 64.0758 150.743 64.0385 150.696C64.0011 150.649 63.9825 150.509 63.9825 150.276C63.9825 150.061 63.9731 149.823 63.9545 149.562C63.9265 149.235 63.9451 149.044 64.0105 148.988ZM69.0866 148.624C69.2359 148.615 69.3339 148.591 69.3806 148.554C69.4272 148.507 69.5579 148.484 69.7726 148.484C69.9872 148.484 70.1226 148.507 70.1786 148.554C70.2439 148.591 70.3092 148.615 70.3746 148.624C70.4492 148.643 70.5286 148.694 70.6126 148.778C70.6966 148.862 70.7526 148.904 70.7806 148.904C70.8272 148.904 70.9252 149.016 71.0746 149.24C71.1306 149.333 71.1586 149.413 71.1586 149.478C71.1586 149.543 71.1772 149.599 71.2146 149.646C71.2612 149.683 71.2846 149.749 71.2846 149.842C71.2846 149.954 71.2986 150.043 71.3266 150.108C71.3546 150.155 71.3592 150.248 71.3406 150.388C71.3312 150.575 71.3219 150.724 71.3126 150.836C71.2939 150.976 71.2612 151.065 71.2146 151.102C71.1772 151.13 71.1586 151.172 71.1586 151.228C71.1586 151.275 71.1352 151.335 71.0886 151.41C71.0419 151.485 71.0186 151.527 71.0186 151.536C71.0186 151.564 70.9952 151.601 70.9486 151.648C70.8926 151.713 70.8646 151.769 70.8646 151.816C70.8459 151.9 70.6966 152.063 70.4166 152.306C70.3419 152.362 70.1646 152.39 69.8846 152.39C69.7819 152.39 69.6932 152.418 69.6186 152.474C69.5066 152.53 69.3806 152.516 69.2406 152.432C69.1752 152.395 69.0819 152.376 68.9606 152.376H68.7786L68.5546 152.18C68.4146 152.031 68.3212 151.947 68.2746 151.928C68.2092 151.891 68.1626 151.844 68.1346 151.788C68.1066 151.723 68.0739 151.676 68.0366 151.648C67.9992 151.62 67.9806 151.583 67.9806 151.536C67.9806 151.489 67.9572 151.438 67.9106 151.382C67.8546 151.326 67.8266 151.247 67.8266 151.144C67.8266 151.032 67.8172 150.957 67.7986 150.92C67.7239 150.789 67.6866 150.57 67.6866 150.262C67.6866 150.066 67.7099 149.935 67.7566 149.87C67.8032 149.795 67.8266 149.721 67.8266 149.646C67.8266 149.553 67.8406 149.478 67.8686 149.422C67.9059 149.357 68.0039 149.249 68.1626 149.1C68.2839 148.969 68.3632 148.904 68.4006 148.904C68.4472 148.904 68.4939 148.881 68.5406 148.834C68.5872 148.778 68.6292 148.75 68.6666 148.75C68.7039 148.75 68.7506 148.736 68.8066 148.708C68.8626 148.671 68.9559 148.643 69.0866 148.624ZM70.1086 149.478C69.9406 149.347 69.7772 149.343 69.6186 149.464C69.5532 149.511 69.4926 149.534 69.4366 149.534C69.3899 149.534 69.3339 149.553 69.2686 149.59C69.2126 149.627 69.1379 149.651 69.0446 149.66C68.9792 149.679 68.9092 149.721 68.8346 149.786C68.7692 149.842 68.7366 149.893 68.7366 149.94C68.7366 149.987 68.7132 150.038 68.6666 150.094C68.6292 150.15 68.6106 150.309 68.6106 150.57C68.6106 150.841 68.6246 150.995 68.6526 151.032C68.6899 151.069 68.7132 151.116 68.7226 151.172C68.7506 151.219 68.7972 151.279 68.8626 151.354C68.9279 151.419 68.9886 151.461 69.0446 151.48C69.1006 151.508 69.1379 151.536 69.1566 151.564C69.1846 151.592 69.2779 151.606 69.4366 151.606C69.5952 151.606 69.6792 151.597 69.6886 151.578C69.6979 151.55 69.7399 151.517 69.8146 151.48C69.8986 151.443 69.9639 151.396 70.0106 151.34C70.0479 151.293 70.0992 151.237 70.1646 151.172C70.2392 151.097 70.2766 150.976 70.2766 150.808C70.2766 150.724 70.2906 150.663 70.3186 150.626C70.3559 150.589 70.3746 150.449 70.3746 150.206C70.3746 149.963 70.3512 149.819 70.3046 149.772C70.2672 149.725 70.2486 149.683 70.2486 149.646C70.2486 149.609 70.2019 149.553 70.1086 149.478ZM71.8588 148.358C71.9148 148.311 71.9801 148.288 72.0548 148.288C72.1388 148.279 72.1994 148.293 72.2368 148.33C72.2741 148.377 72.3208 148.4 72.3768 148.4C72.4514 148.4 72.5074 148.428 72.5448 148.484C72.5914 148.577 72.6334 148.633 72.6708 148.652C72.7081 148.661 72.7921 148.666 72.9228 148.666C73.0814 148.666 73.1701 148.652 73.1888 148.624C73.2168 148.587 73.2494 148.568 73.2868 148.568C73.3334 148.568 73.3708 148.587 73.3988 148.624C73.4361 148.652 73.4781 148.666 73.5248 148.666C73.5901 148.666 73.6414 148.685 73.6788 148.722C73.7254 148.75 73.7721 148.764 73.8188 148.764C73.9121 148.764 74.0148 148.82 74.1268 148.932C74.1734 148.979 74.2341 148.997 74.3088 148.988C74.3834 148.969 74.4394 148.941 74.4768 148.904C74.5608 148.801 74.6961 148.759 74.8828 148.778C75.0694 148.797 75.1861 148.806 75.2328 148.806C75.3541 148.815 75.4381 148.843 75.4848 148.89C75.5408 148.927 75.6294 148.974 75.7508 149.03C75.8441 149.095 75.9001 149.142 75.9188 149.17C75.9374 149.189 75.9468 149.221 75.9468 149.268C75.9468 149.305 75.9701 149.357 76.0168 149.422C76.0634 149.478 76.0868 149.543 76.0868 149.618C76.0868 149.693 76.1101 149.763 76.1568 149.828C76.2128 149.884 76.2408 149.954 76.2408 150.038C76.2408 150.131 76.2501 150.206 76.2688 150.262C76.3341 150.365 76.3621 150.514 76.3528 150.71C76.3341 151.195 76.3061 151.471 76.2688 151.536C76.2501 151.564 76.2408 151.704 76.2408 151.956C76.2408 152.208 76.2268 152.343 76.1988 152.362C76.1521 152.437 76.0774 152.488 75.9748 152.516C75.8721 152.535 75.7834 152.535 75.7088 152.516C75.5688 152.451 75.4894 152.376 75.4708 152.292C75.4614 152.236 75.4334 152.18 75.3868 152.124C75.3494 152.077 75.3308 151.69 75.3308 150.962V149.87L75.2608 149.8C75.2048 149.753 75.1441 149.73 75.0788 149.73C75.0228 149.73 74.9854 149.735 74.9668 149.744C74.9481 149.753 74.9248 149.795 74.8968 149.87C74.8408 149.954 74.8128 150.052 74.8128 150.164C74.8128 150.276 74.7894 150.355 74.7428 150.402C74.6588 150.514 74.6168 150.617 74.6168 150.71C74.6168 150.747 74.6028 150.785 74.5748 150.822C74.5468 150.859 74.5328 150.934 74.5328 151.046C74.5328 151.158 74.5421 151.233 74.5608 151.27C74.5888 151.307 74.6121 151.387 74.6308 151.508C74.6308 151.573 74.6401 151.671 74.6588 151.802C74.6681 151.886 74.6354 151.965 74.5608 152.04C74.4861 152.115 74.4441 152.152 74.4348 152.152C74.4254 152.152 74.3928 152.171 74.3368 152.208C74.2901 152.245 74.2481 152.264 74.2108 152.264C74.1828 152.264 74.1408 152.245 74.0848 152.208C74.0381 152.171 73.9914 152.152 73.9448 152.152C73.8794 152.152 73.8001 152.073 73.7068 151.914L73.6228 151.788V150.906C73.6228 150.327 73.6088 150.019 73.5808 149.982C73.5528 149.935 73.5341 149.875 73.5248 149.8C73.5154 149.716 73.4921 149.655 73.4548 149.618C73.4268 149.571 73.3661 149.557 73.2728 149.576C73.1981 149.595 73.1514 149.609 73.1328 149.618C73.1234 149.627 73.1141 149.66 73.1048 149.716C73.0954 149.781 73.0721 149.828 73.0348 149.856C72.9881 149.893 72.9648 149.945 72.9648 150.01C72.9648 150.075 72.9368 150.15 72.8808 150.234C72.8341 150.309 72.8108 150.514 72.8108 150.85C72.8108 151.186 72.7874 151.377 72.7408 151.424C72.7034 151.461 72.6848 151.573 72.6848 151.76V152.082L72.5868 152.18C72.4468 152.32 72.2881 152.329 72.1108 152.208C72.0268 152.143 71.9474 152.068 71.8728 151.984C71.8074 151.909 71.7701 151.783 71.7608 151.606C71.7608 151.419 71.7608 150.743 71.7608 149.576L71.7748 148.442L71.8588 148.358ZM77.1707 151.942C77.264 151.933 77.4134 151.928 77.6187 151.928C77.8334 151.928 77.9687 151.947 78.0247 151.984C78.062 152.021 78.0994 152.045 78.1367 152.054C78.1647 152.073 78.216 152.124 78.2907 152.208C78.3747 152.292 78.4167 152.381 78.4167 152.474C78.4167 152.567 78.426 152.623 78.4447 152.642C78.4634 152.651 78.4727 152.754 78.4727 152.95C78.4727 153.146 78.454 153.281 78.4167 153.356C78.3794 153.421 78.356 153.454 78.3467 153.454C78.3374 153.454 78.3187 153.482 78.2907 153.538C78.2814 153.585 78.244 153.641 78.1787 153.706C78.1134 153.762 78.0667 153.79 78.0387 153.79C78.0107 153.79 77.978 153.813 77.9407 153.86C77.9034 153.897 77.8054 153.916 77.6467 153.916C77.488 153.916 77.39 153.897 77.3527 153.86C77.3247 153.813 77.2874 153.79 77.2407 153.79C77.194 153.79 77.1427 153.767 77.0867 153.72C77.04 153.664 76.9934 153.617 76.9467 153.58C76.9094 153.543 76.8907 153.505 76.8907 153.468C76.8907 153.421 76.8674 153.379 76.8207 153.342C76.7834 153.295 76.7647 153.253 76.7647 153.216C76.7647 153.169 76.7507 153.132 76.7227 153.104C76.6947 153.076 76.6807 152.992 76.6807 152.852C76.6807 152.703 76.6947 152.605 76.7227 152.558C76.7507 152.511 76.7694 152.465 76.7787 152.418C76.8254 152.129 76.956 151.97 77.1707 151.942ZM77.8007 152.6C77.782 152.563 77.726 152.544 77.6327 152.544C77.5394 152.544 77.4647 152.572 77.4087 152.628C77.3527 152.675 77.3247 152.749 77.3247 152.852C77.3247 152.955 77.3387 153.034 77.3667 153.09C77.3854 153.137 77.3994 153.165 77.4087 153.174C77.4274 153.183 77.4694 153.188 77.5347 153.188C77.628 153.188 77.698 153.169 77.7447 153.132C77.782 153.076 77.8054 152.987 77.8147 152.866C77.824 152.735 77.8194 152.647 77.8007 152.6ZM83.5716 145.712C83.637 145.684 83.707 145.679 83.7816 145.698C83.8656 145.707 84.0943 145.698 84.4676 145.67C84.9436 145.661 85.2516 145.731 85.3916 145.88L85.5036 145.978V146.552C85.513 146.953 85.513 147.238 85.5036 147.406C85.4943 147.602 85.4896 147.845 85.4896 148.134C85.4896 148.414 85.4663 148.587 85.4196 148.652C85.317 148.829 85.205 148.918 85.0836 148.918C84.953 148.918 84.827 148.806 84.7056 148.582L84.6076 148.442V148.022C84.6263 147.733 84.6403 147.537 84.6496 147.434C84.6776 147.331 84.6916 147.163 84.6916 146.93C84.673 146.715 84.6543 146.594 84.6356 146.566C84.5983 146.529 84.3836 146.515 83.9916 146.524C83.609 146.524 83.329 146.538 83.1516 146.566C82.7876 146.622 82.559 146.627 82.4656 146.58C82.2976 146.496 82.195 146.37 82.1576 146.202C82.1296 146.109 82.1343 146.025 82.1716 145.95C82.2183 145.866 82.2696 145.81 82.3256 145.782C82.3816 145.754 82.587 145.749 82.9416 145.768C83.3056 145.768 83.5156 145.749 83.5716 145.712ZM86.7916 145.88C86.8196 145.88 86.8336 145.88 86.8336 145.88C86.8336 145.88 86.8803 145.885 86.9736 145.894C87.0763 145.913 87.165 145.969 87.2396 146.062L87.3236 146.188L87.3376 146.566C87.3376 146.865 87.333 147.131 87.3236 147.364C87.3236 147.616 87.3376 147.775 87.3656 147.84L87.3796 147.91H87.7296C87.9443 147.901 88.117 147.924 88.2476 147.98C88.4063 148.064 88.5043 148.181 88.5416 148.33C88.5696 148.451 88.5183 148.573 88.3876 148.694C88.3223 148.741 88.1403 148.764 87.8416 148.764H87.3796L87.3656 148.834C87.3376 148.89 87.3236 149.119 87.3236 149.52L87.3376 150.094L87.2536 150.22C87.1416 150.379 87.0156 150.435 86.8756 150.388C86.7543 150.351 86.6423 150.234 86.5396 150.038L86.4556 149.884L86.4696 148.806C86.4696 147.91 86.4883 147.303 86.5256 146.986C86.535 146.855 86.5303 146.678 86.5116 146.454L86.4696 146.146L86.5396 146.034C86.605 145.959 86.661 145.917 86.7076 145.908C86.7543 145.899 86.7823 145.889 86.7916 145.88ZM83.1376 147.714C83.2123 147.686 83.3103 147.691 83.4316 147.728C83.5903 147.765 83.707 147.849 83.7816 147.98C83.8003 148.036 83.805 148.279 83.7956 148.708C83.7863 149.137 83.8003 149.375 83.8376 149.422L83.8656 149.478H84.5656L85.2376 149.464L85.3636 149.534C85.6156 149.665 85.7416 149.809 85.7416 149.968C85.7416 150.015 85.7183 150.08 85.6716 150.164C85.625 150.239 85.5736 150.29 85.5176 150.318C85.415 150.393 85.219 150.402 84.9296 150.346C84.7803 150.327 84.5003 150.323 84.0896 150.332C83.763 150.341 83.3896 150.351 82.9696 150.36C82.5496 150.369 82.307 150.36 82.2416 150.332C82.223 150.332 82.1903 150.318 82.1436 150.29C82.1063 150.262 82.069 150.229 82.0316 150.192C82.0036 150.155 81.9756 150.113 81.9476 150.066C81.9196 150.01 81.9056 149.963 81.9056 149.926C81.8683 149.758 81.9196 149.637 82.0596 149.562C82.153 149.515 82.3023 149.492 82.5076 149.492C82.573 149.492 82.6196 149.497 82.6476 149.506C82.685 149.515 82.7223 149.515 82.7596 149.506C82.8063 149.497 82.8343 149.492 82.8436 149.492C82.8623 149.483 82.881 149.469 82.8996 149.45C82.9183 149.431 82.9276 149.417 82.9276 149.408C82.937 149.389 82.9416 149.366 82.9416 149.338C82.951 149.301 82.9556 149.268 82.9556 149.24C82.9556 149.203 82.9603 149.156 82.9696 149.1C82.9696 148.876 82.965 148.638 82.9556 148.386L82.9276 148.008L82.9976 147.882C83.0443 147.789 83.091 147.733 83.1376 147.714ZM82.8716 151.158C82.937 151.121 83.0303 151.111 83.1516 151.13C83.413 151.195 83.5716 151.391 83.6276 151.718C83.6556 151.839 83.679 151.937 83.6976 152.012C83.7256 152.077 83.7396 152.241 83.7396 152.502C83.7303 152.726 83.735 152.866 83.7536 152.922C83.7816 152.978 83.8376 153.006 83.9216 153.006C85.9936 152.997 87.067 153.001 87.1416 153.02C87.1883 153.048 87.2536 153.104 87.3376 153.188C87.431 153.263 87.4776 153.337 87.4776 153.412C87.4776 153.552 87.389 153.692 87.2116 153.832L87.0856 153.902H86.5956C86.3063 153.902 85.905 153.897 85.3916 153.888C84.925 153.888 84.491 153.888 84.0896 153.888H83.4736L83.2916 153.804C83.0956 153.711 82.965 153.603 82.8996 153.482C82.8903 153.435 82.881 153.211 82.8716 152.81C82.853 152.381 82.825 152.035 82.7876 151.774C82.7596 151.494 82.7503 151.321 82.7596 151.256C82.769 151.209 82.8063 151.177 82.8716 151.158ZM94.462 145.418C94.6393 145.39 94.7933 145.437 94.924 145.558C95.0267 145.633 95.0827 145.721 95.092 145.824C95.12 145.955 95.1387 146.393 95.148 147.14C95.1573 148.139 95.176 148.89 95.204 149.394L95.218 149.8L95.134 149.926C95.0127 150.094 94.882 150.173 94.742 150.164C94.5647 150.155 94.4153 150.038 94.294 149.814L94.224 149.674V147.994C94.224 146.893 94.21 146.239 94.182 146.034C94.1727 145.81 94.1867 145.656 94.224 145.572C94.2613 145.488 94.3407 145.437 94.462 145.418ZM91.158 145.572C91.242 145.553 91.3447 145.577 91.466 145.642C91.5873 145.698 91.676 145.768 91.732 145.852C91.816 145.992 91.8207 146.137 91.746 146.286C91.6247 146.529 91.55 146.673 91.522 146.72C91.5127 146.767 91.4893 146.818 91.452 146.874C91.4147 146.902 91.396 146.935 91.396 146.972C91.396 147.009 91.3727 147.061 91.326 147.126C91.2887 147.201 91.27 147.28 91.27 147.364C91.27 147.439 91.354 147.56 91.522 147.728C91.9233 148.129 92.3153 148.423 92.698 148.61C92.838 148.685 92.9687 148.778 93.09 148.89C93.174 148.965 93.2207 149.016 93.23 149.044C93.2487 149.063 93.258 149.114 93.258 149.198C93.258 149.291 93.2207 149.375 93.146 149.45C92.95 149.618 92.7353 149.637 92.502 149.506C92.2127 149.338 92.0073 149.198 91.886 149.086C91.8673 149.067 91.788 149.011 91.648 148.918C91.508 148.825 91.34 148.694 91.144 148.526C90.9387 148.339 90.8173 148.246 90.78 148.246C90.7427 148.246 90.71 148.269 90.682 148.316C90.654 148.353 90.598 148.465 90.514 148.652C90.402 148.867 90.332 148.983 90.304 149.002C90.2947 149.021 90.2293 149.165 90.108 149.436C89.9773 149.725 89.8653 149.898 89.772 149.954C89.688 150.01 89.5573 149.996 89.38 149.912C89.1 149.772 88.96 149.618 88.96 149.45C88.96 149.347 89.044 149.175 89.212 148.932C89.296 148.801 89.366 148.675 89.422 148.554C89.4873 148.423 89.5573 148.316 89.632 148.232C89.716 148.139 89.7907 148.017 89.856 147.868C89.9213 147.709 89.9913 147.583 90.066 147.49C90.1407 147.415 90.1967 147.336 90.234 147.252C90.2713 147.168 90.2993 147.121 90.318 147.112C90.346 147.093 90.36 147.07 90.36 147.042C90.36 147.014 90.3787 146.972 90.416 146.916C90.4533 146.869 90.4813 146.813 90.5 146.748C90.528 146.683 90.556 146.627 90.584 146.58C90.6213 146.543 90.64 146.505 90.64 146.468C90.64 146.44 90.6633 146.384 90.71 146.3C90.7473 146.216 90.7753 146.132 90.794 146.048C90.8127 145.955 90.8593 145.861 90.934 145.768C91.0087 145.665 91.0833 145.6 91.158 145.572ZM93.86 151.074C93.9253 151.046 94.098 151.06 94.378 151.116C94.6113 151.135 94.784 151.228 94.896 151.396C94.9427 151.471 94.9707 151.625 94.98 151.858C94.9987 152.091 95.0173 152.231 95.036 152.278C95.064 152.334 95.078 152.399 95.078 152.474C95.078 152.707 95.1153 153.034 95.19 153.454C95.2367 153.725 95.2087 153.921 95.106 154.042C94.9753 154.219 94.8027 154.247 94.588 154.126C94.5227 154.089 94.4433 154.019 94.35 153.916C94.266 153.813 94.2053 153.729 94.168 153.664C94.1027 153.533 94.0793 153.412 94.098 153.3C94.098 153.151 94.084 152.936 94.056 152.656C94.0467 152.507 94.0373 152.409 94.028 152.362C94.0187 152.315 94.0047 152.269 93.986 152.222C93.9673 152.175 93.9487 152.147 93.93 152.138C93.9207 152.129 93.8833 152.115 93.818 152.096C93.762 152.077 93.3233 152.077 92.502 152.096C90.8967 152.115 90.0473 152.101 89.954 152.054C89.8047 151.97 89.6833 151.844 89.59 151.676C89.506 151.489 89.5153 151.335 89.618 151.214C89.702 151.121 89.8933 151.088 90.192 151.116C90.416 151.135 90.6307 151.144 90.836 151.144C91.1347 151.144 91.6993 151.135 92.53 151.116C93.37 151.097 93.8133 151.083 93.86 151.074Z" fill="black"/>
<path d="M11.794 17.224C11.8407 17.224 11.8827 17.2053 11.92 17.168C11.9573 17.1307 12.0087 17.112 12.074 17.112C12.1393 17.112 12.1907 17.1307 12.228 17.168C12.2653 17.2053 12.312 17.224 12.368 17.224C12.4333 17.224 12.4987 17.2613 12.564 17.336C12.6573 17.4573 12.704 17.588 12.704 17.728C12.704 17.924 12.648 18.0453 12.536 18.092C12.4893 18.12 12.2047 18.134 11.682 18.134C11.1593 18.134 10.8887 18.148 10.87 18.176C10.842 18.1947 10.828 18.3907 10.828 18.764C10.828 19.128 10.8467 19.3333 10.884 19.38C10.9307 19.4173 10.9633 19.744 10.982 20.36C11.0007 21.4427 11.0287 22.012 11.066 22.068C11.15 22.1893 11.136 22.3013 11.024 22.404C10.9773 22.4413 10.926 22.4973 10.87 22.572C10.8047 22.6467 10.73 22.684 10.646 22.684C10.5713 22.684 10.5107 22.6607 10.464 22.614C10.4267 22.586 10.3707 22.5487 10.296 22.502C10.1933 22.4273 10.1467 22.11 10.156 21.55C10.156 21.494 10.156 21.4333 10.156 21.368C10.156 21.2933 10.156 21.2327 10.156 21.186C10.156 21.1393 10.156 21.0927 10.156 21.046C10.1653 20.9993 10.17 20.962 10.17 20.934C10.17 20.8967 10.17 20.878 10.17 20.878C10.1887 20.5513 10.1653 20.3413 10.1 20.248C10.0813 20.2107 10.072 19.884 10.072 19.268V18.33L9.96 18.218C9.80133 18.078 9.66133 18.0733 9.54 18.204C9.50267 18.2507 9.32533 18.274 9.008 18.274H8.532L8.448 18.176C8.43867 18.1573 8.42 18.134 8.392 18.106C8.364 18.078 8.34067 18.0547 8.322 18.036C8.31267 18.0173 8.29867 17.9987 8.28 17.98C8.23333 17.9333 8.21 17.8587 8.21 17.756C8.21 17.644 8.24733 17.5507 8.322 17.476L8.434 17.392L8.98 17.35C9.4 17.3407 9.92733 17.3267 10.562 17.308C11.2433 17.2987 11.6027 17.2847 11.64 17.266C11.6867 17.238 11.738 17.224 11.794 17.224ZM14.5182 18.624C14.6675 18.6147 14.7655 18.5913 14.8122 18.554C14.8589 18.5073 14.9895 18.484 15.2042 18.484C15.4189 18.484 15.5542 18.5073 15.6102 18.554C15.6755 18.5913 15.7409 18.6147 15.8062 18.624C15.8809 18.6427 15.9602 18.694 16.0442 18.778C16.1282 18.862 16.1842 18.904 16.2122 18.904C16.2589 18.904 16.3569 19.016 16.5062 19.24C16.5622 19.3333 16.5902 19.4127 16.5902 19.478C16.5902 19.5433 16.6089 19.5993 16.6462 19.646C16.6929 19.6833 16.7162 19.7487 16.7162 19.842C16.7162 19.954 16.7302 20.0427 16.7582 20.108C16.7862 20.1547 16.7909 20.248 16.7722 20.388C16.7629 20.5747 16.7535 20.724 16.7442 20.836C16.7255 20.976 16.6929 21.0647 16.6462 21.102C16.6089 21.13 16.5902 21.172 16.5902 21.228C16.5902 21.2747 16.5669 21.3353 16.5202 21.41C16.4735 21.4847 16.4502 21.5267 16.4502 21.536C16.4502 21.564 16.4269 21.6013 16.3802 21.648C16.3242 21.7133 16.2962 21.7693 16.2962 21.816C16.2775 21.9 16.1282 22.0633 15.8482 22.306C15.7735 22.362 15.5962 22.39 15.3162 22.39C15.2135 22.39 15.1249 22.418 15.0502 22.474C14.9382 22.53 14.8122 22.516 14.6722 22.432C14.6069 22.3947 14.5135 22.376 14.3922 22.376H14.2102L13.9862 22.18C13.8462 22.0307 13.7529 21.9467 13.7062 21.928C13.6409 21.8907 13.5942 21.844 13.5662 21.788C13.5382 21.7227 13.5055 21.676 13.4682 21.648C13.4309 21.62 13.4122 21.5827 13.4122 21.536C13.4122 21.4893 13.3889 21.438 13.3422 21.382C13.2862 21.326 13.2582 21.2467 13.2582 21.144C13.2582 21.032 13.2489 20.9573 13.2302 20.92C13.1555 20.7893 13.1182 20.57 13.1182 20.262C13.1182 20.066 13.1415 19.9353 13.1882 19.87C13.2349 19.7953 13.2582 19.7207 13.2582 19.646C13.2582 19.5527 13.2722 19.478 13.3002 19.422C13.3375 19.3567 13.4355 19.2493 13.5942 19.1C13.7155 18.9693 13.7949 18.904 13.8322 18.904C13.8789 18.904 13.9255 18.8807 13.9722 18.834C14.0189 18.778 14.0609 18.75 14.0982 18.75C14.1355 18.75 14.1822 18.736 14.2382 18.708C14.2942 18.6707 14.3875 18.6427 14.5182 18.624ZM15.5402 19.478C15.3722 19.3473 15.2089 19.3427 15.0502 19.464C14.9849 19.5107 14.9242 19.534 14.8682 19.534C14.8215 19.534 14.7655 19.5527 14.7002 19.59C14.6442 19.6273 14.5695 19.6507 14.4762 19.66C14.4109 19.6787 14.3409 19.7207 14.2662 19.786C14.2009 19.842 14.1682 19.8933 14.1682 19.94C14.1682 19.9867 14.1449 20.038 14.0982 20.094C14.0609 20.15 14.0422 20.3087 14.0422 20.57C14.0422 20.8407 14.0562 20.9947 14.0842 21.032C14.1215 21.0693 14.1449 21.116 14.1542 21.172C14.1822 21.2187 14.2289 21.2793 14.2942 21.354C14.3595 21.4193 14.4202 21.4613 14.4762 21.48C14.5322 21.508 14.5695 21.536 14.5882 21.564C14.6162 21.592 14.7095 21.606 14.8682 21.606C15.0269 21.606 15.1109 21.5967 15.1202 21.578C15.1295 21.55 15.1715 21.5173 15.2462 21.48C15.3302 21.4427 15.3955 21.396 15.4422 21.34C15.4795 21.2933 15.5309 21.2373 15.5962 21.172C15.6709 21.0973 15.7082 20.976 15.7082 20.808C15.7082 20.724 15.7222 20.6633 15.7502 20.626C15.7875 20.5887 15.8062 20.4487 15.8062 20.206C15.8062 19.9633 15.7829 19.8187 15.7362 19.772C15.6989 19.7253 15.6802 19.6833 15.6802 19.646C15.6802 19.6087 15.6335 19.5527 15.5402 19.478ZM17.5984 21.942C17.6918 21.9327 17.8411 21.928 18.0464 21.928C18.2611 21.928 18.3964 21.9467 18.4524 21.984C18.4898 22.0213 18.5271 22.0447 18.5644 22.054C18.5924 22.0727 18.6438 22.124 18.7184 22.208C18.8024 22.292 18.8444 22.3807 18.8444 22.474C18.8444 22.5673 18.8538 22.6233 18.8724 22.642C18.8911 22.6513 18.9004 22.754 18.9004 22.95C18.9004 23.146 18.8818 23.2813 18.8444 23.356C18.8071 23.4213 18.7838 23.454 18.7744 23.454C18.7651 23.454 18.7464 23.482 18.7184 23.538C18.7091 23.5847 18.6718 23.6407 18.6064 23.706C18.5411 23.762 18.4944 23.79 18.4664 23.79C18.4384 23.79 18.4058 23.8133 18.3684 23.86C18.3311 23.8973 18.2331 23.916 18.0744 23.916C17.9158 23.916 17.8178 23.8973 17.7804 23.86C17.7524 23.8133 17.7151 23.79 17.6684 23.79C17.6218 23.79 17.5704 23.7667 17.5144 23.72C17.4678 23.664 17.4211 23.6173 17.3744 23.58C17.3371 23.5427 17.3184 23.5053 17.3184 23.468C17.3184 23.4213 17.2951 23.3793 17.2484 23.342C17.2111 23.2953 17.1924 23.2533 17.1924 23.216C17.1924 23.1693 17.1784 23.132 17.1504 23.104C17.1224 23.076 17.1084 22.992 17.1084 22.852C17.1084 22.7027 17.1224 22.6047 17.1504 22.558C17.1784 22.5113 17.1971 22.4647 17.2064 22.418C17.2531 22.1287 17.3838 21.97 17.5984 21.942ZM18.2284 22.6C18.2098 22.5627 18.1538 22.544 18.0604 22.544C17.9671 22.544 17.8924 22.572 17.8364 22.628C17.7804 22.6747 17.7524 22.7493 17.7524 22.852C17.7524 22.9547 17.7664 23.034 17.7944 23.09C17.8131 23.1367 17.8271 23.1647 17.8364 23.174C17.8551 23.1833 17.8971 23.188 17.9624 23.188C18.0558 23.188 18.1258 23.1693 18.1724 23.132C18.2098 23.076 18.2331 22.9873 18.2424 22.866C18.2518 22.7353 18.2471 22.6467 18.2284 22.6ZM24.0694 16.496C24.312 16.4587 24.5314 16.4587 24.7274 16.496C25.0354 16.5613 25.2407 16.6313 25.3434 16.706C25.3994 16.7433 25.4414 16.762 25.4694 16.762C25.516 16.762 25.6607 16.8833 25.9034 17.126C26.062 17.2847 26.2254 17.5507 26.3934 17.924C26.3934 17.9427 26.398 17.966 26.4074 17.994C26.426 18.0127 26.44 18.036 26.4494 18.064C26.4587 18.0827 26.468 18.106 26.4774 18.134C26.496 18.1527 26.5054 18.176 26.5054 18.204C26.58 18.3347 26.6174 18.568 26.6174 18.904C26.6267 19.2213 26.6314 19.3987 26.6314 19.436C26.6314 19.4733 26.608 19.5573 26.5614 19.688C26.496 19.828 26.4587 19.9447 26.4494 20.038C26.4494 20.0753 26.426 20.15 26.3794 20.262C26.3327 20.3647 26.2767 20.4767 26.2114 20.598C26.1554 20.71 26.1087 20.7987 26.0714 20.864C25.9314 21.0507 25.796 21.1953 25.6654 21.298C25.4134 21.4753 25.124 21.606 24.7974 21.69C24.6294 21.7273 24.494 21.7273 24.3914 21.69C23.8967 21.5593 23.6167 21.4707 23.5514 21.424C23.5234 21.396 23.4954 21.382 23.4674 21.382C23.43 21.382 23.332 21.3167 23.1734 21.186C23.1174 21.1393 23.0427 21.06 22.9494 20.948C22.8654 20.8267 22.786 20.7053 22.7114 20.584C22.646 20.4533 22.5994 20.3507 22.5714 20.276C22.5527 20.2013 22.5294 20.1547 22.5014 20.136C22.4734 20.0987 22.436 20.0053 22.3894 19.856C22.3427 19.6973 22.3194 19.4547 22.3194 19.128C22.3287 18.8013 22.3614 18.5633 22.4174 18.414C22.464 18.274 22.4967 18.1853 22.5154 18.148C22.5434 18.0827 22.562 18.022 22.5714 17.966C22.5807 17.8913 22.604 17.8353 22.6414 17.798C22.6787 17.742 22.7067 17.686 22.7254 17.63C22.7347 17.574 22.7534 17.532 22.7814 17.504C22.8094 17.4853 22.8374 17.4433 22.8654 17.378C22.9214 17.2847 23.024 17.1587 23.1734 17C23.3227 16.8413 23.4207 16.762 23.4674 16.762C23.4767 16.762 23.5 16.748 23.5374 16.72C23.6867 16.5893 23.864 16.5147 24.0694 16.496ZM25.0914 17.476C24.9887 17.4107 24.8534 17.378 24.6854 17.378C24.4987 17.378 24.382 17.378 24.3354 17.378C24.2794 17.3967 24.2 17.448 24.0974 17.532C23.9947 17.616 23.892 17.7233 23.7894 17.854C23.696 17.9753 23.6167 18.0967 23.5514 18.218C23.374 18.5913 23.2947 19.002 23.3134 19.45C23.3134 19.6833 23.3414 19.8373 23.3974 19.912C23.4067 19.9493 23.4347 20.024 23.4814 20.136C23.668 20.528 23.9434 20.738 24.3074 20.766C24.438 20.7753 24.536 20.7753 24.6014 20.766C24.6667 20.7567 24.7834 20.682 24.9514 20.542C25.1287 20.402 25.2454 20.2807 25.3014 20.178C25.4134 20.01 25.4787 19.898 25.4974 19.842C25.5254 19.7767 25.544 19.674 25.5534 19.534C25.572 19.3473 25.6 19.2073 25.6374 19.114C25.6747 19.0113 25.67 18.834 25.6234 18.582C25.5767 18.33 25.5534 18.1853 25.5534 18.148C25.544 18.1107 25.5207 18.0453 25.4834 17.952C25.4367 17.8493 25.4134 17.7933 25.4134 17.784C25.4134 17.756 25.376 17.7093 25.3014 17.644C25.2267 17.5693 25.1567 17.5133 25.0914 17.476ZM27.6534 16.58C27.6907 16.5333 27.7187 16.51 27.7374 16.51C27.7654 16.5007 27.84 16.496 27.9614 16.496C28.1107 16.5053 28.2227 16.538 28.2974 16.594C28.372 16.65 28.4234 16.706 28.4514 16.762C28.4794 16.846 28.4934 17.0653 28.4934 17.42C28.4934 17.784 28.5027 18.0127 28.5214 18.106C28.5494 18.2087 28.5587 18.3627 28.5494 18.568C28.5494 18.764 28.5634 18.876 28.5914 18.904C28.6194 18.9227 28.7687 18.9227 29.0394 18.904C29.3007 18.8947 29.45 18.8713 29.4874 18.834C29.5247 18.7967 29.5387 18.4653 29.5294 17.84C29.5107 17.2147 29.5154 16.8693 29.5434 16.804C29.5714 16.72 29.6227 16.6593 29.6974 16.622C29.7814 16.5847 29.87 16.5753 29.9634 16.594C30.122 16.6313 30.2247 16.7013 30.2714 16.804C30.3927 17.0187 30.4534 17.952 30.4534 19.604C30.4627 20.5467 30.4814 21.0787 30.5094 21.2C30.5374 21.34 30.556 21.536 30.5654 21.788C30.5747 22.04 30.598 22.2173 30.6354 22.32C30.7007 22.4693 30.7147 22.6233 30.6774 22.782C30.6494 22.9313 30.5794 23.034 30.4674 23.09C30.402 23.1273 30.3087 23.1273 30.1874 23.09C29.9727 23.0433 29.828 22.936 29.7534 22.768C29.688 22.6 29.6554 22.32 29.6554 21.928C29.6554 21.7227 29.6367 21.5593 29.5994 21.438C29.5714 21.326 29.5574 21.1767 29.5574 20.99C29.576 20.8127 29.576 20.5887 29.5574 20.318C29.548 20.038 29.5294 19.884 29.5014 19.856C29.492 19.828 29.3474 19.814 29.0674 19.814C28.7874 19.814 28.6334 19.8327 28.6054 19.87C28.5774 19.898 28.568 20.0893 28.5774 20.444C28.596 20.7893 28.6194 21.0133 28.6474 21.116C28.6847 21.2093 28.708 21.3867 28.7174 21.648C28.736 21.9 28.7267 22.054 28.6894 22.11C28.5774 22.2687 28.3814 22.3013 28.1014 22.208C27.9614 22.1427 27.868 21.9793 27.8214 21.718C27.7934 21.5967 27.7607 21.4847 27.7234 21.382C27.6954 21.2793 27.6814 21.1533 27.6814 21.004C27.7 20.8547 27.7 20.6167 27.6814 20.29C27.6627 19.954 27.6394 19.7253 27.6114 19.604C27.574 19.4827 27.5647 19.38 27.5834 19.296C27.5927 19.2213 27.5974 18.862 27.5974 18.218C27.5974 17.5647 27.588 17.1447 27.5694 16.958C27.56 16.7713 27.588 16.6453 27.6534 16.58ZM34.3724 15.138C34.4191 15.11 34.4704 15.096 34.5264 15.096C34.6011 15.096 34.6897 15.124 34.7924 15.18C34.8951 15.2267 34.9791 15.2827 35.0444 15.348C35.0911 15.404 35.1144 15.488 35.1144 15.6C35.1144 15.712 35.0724 15.8427 34.9884 15.992C34.8951 16.1693 34.8484 16.2907 34.8484 16.356C34.8577 16.4213 34.9137 16.51 35.0164 16.622C35.3337 16.93 35.5857 17.1167 35.7724 17.182C35.8657 17.21 35.9311 17.2427 35.9684 17.28C36.0151 17.308 36.1084 17.35 36.2484 17.406C36.3977 17.4527 36.5004 17.4947 36.5564 17.532C36.6031 17.5787 36.6544 17.6207 36.7104 17.658C36.7851 17.7047 36.8457 17.77 36.8924 17.854L36.9484 17.98L36.8924 18.134C36.7431 18.4233 36.5144 18.484 36.2064 18.316C36.1224 18.26 36.0664 18.232 36.0384 18.232C36.0291 18.232 35.9404 18.19 35.7724 18.106C35.6044 18.0127 35.4924 17.9613 35.4364 17.952C35.3897 17.9333 35.3431 17.9007 35.2964 17.854C35.2871 17.854 35.2544 17.8353 35.1984 17.798C35.1424 17.7607 35.1004 17.7373 35.0724 17.728C34.9044 17.6347 34.6897 17.4947 34.4284 17.308C34.3164 17.252 34.2371 17.2427 34.1904 17.28C34.1624 17.2987 34.0737 17.392 33.9244 17.56C33.4111 18.1947 33.0751 18.554 32.9164 18.638C32.8791 18.666 32.8137 18.68 32.7204 18.68C32.6271 18.68 32.5431 18.6427 32.4684 18.568C32.4404 18.5213 32.3984 18.442 32.3424 18.33C32.2864 18.218 32.2584 18.1387 32.2584 18.092C32.2584 18.0547 32.2864 17.9987 32.3424 17.924C32.3984 17.84 32.4404 17.784 32.4684 17.756C32.5057 17.728 32.5711 17.6533 32.6644 17.532C32.7671 17.4107 32.8791 17.28 33.0004 17.14C33.1217 17.0093 33.2151 16.888 33.2804 16.776C33.3551 16.6733 33.4437 16.552 33.5464 16.412C33.7984 16.132 33.9244 15.9593 33.9244 15.894C33.9244 15.8753 33.9477 15.8333 33.9944 15.768C34.0504 15.7027 34.0831 15.642 34.0924 15.586C34.1111 15.558 34.1251 15.5253 34.1344 15.488C34.1531 15.4413 34.1764 15.3993 34.2044 15.362C34.2324 15.3153 34.2604 15.2733 34.2884 15.236C34.3164 15.1987 34.3444 15.166 34.3724 15.138ZM36.4584 19.492C36.8877 19.4733 37.1351 19.492 37.2004 19.548C37.2657 19.5853 37.3031 19.604 37.3124 19.604C37.3311 19.604 37.3731 19.646 37.4384 19.73C37.5037 19.814 37.5364 19.9213 37.5364 20.052C37.5364 20.1547 37.5271 20.22 37.5084 20.248C37.4991 20.276 37.4711 20.3227 37.4244 20.388L37.2984 20.514H36.3884C35.7817 20.514 35.4644 20.5187 35.4364 20.528C35.3711 20.5653 35.3291 20.7847 35.3104 21.186C35.3011 21.5127 35.3151 21.7367 35.3524 21.858C35.3711 21.97 35.3804 22.0913 35.3804 22.222C35.3804 22.3433 35.3524 22.446 35.2964 22.53C35.2124 22.6513 35.0724 22.7027 34.8764 22.684C34.7084 22.656 34.5684 22.558 34.4564 22.39L34.3864 22.264V21.424C34.3864 20.864 34.3771 20.5747 34.3584 20.556C34.3397 20.5373 33.8824 20.5233 32.9864 20.514H31.6564L31.4744 20.416C31.3531 20.36 31.2644 20.2947 31.2084 20.22C31.1431 20.1453 31.1104 20.0567 31.1104 19.954C31.1104 19.842 31.1431 19.7533 31.2084 19.688L31.2924 19.604H31.8384C32.2024 19.6133 32.4311 19.6227 32.5244 19.632C32.6364 19.6507 32.9351 19.6553 33.4204 19.646C33.9151 19.6367 34.3117 19.6227 34.6104 19.604C34.9184 19.576 35.2264 19.562 35.5344 19.562C35.8704 19.562 36.0524 19.5527 36.0804 19.534C36.0991 19.5153 36.2251 19.5013 36.4584 19.492ZM32.0064 22.418C31.9411 21.9233 31.9551 21.6387 32.0484 21.564C32.1417 21.48 32.2817 21.48 32.4684 21.564C32.5804 21.6293 32.6644 21.69 32.7204 21.746C32.7764 21.7927 32.8137 21.8673 32.8324 21.97C32.8511 22.0633 32.8604 22.208 32.8604 22.404C32.8604 22.628 32.8697 22.796 32.8884 22.908C32.9164 23.02 32.9351 23.1553 32.9444 23.314C32.9444 23.4727 32.9631 23.5707 33.0004 23.608C33.0377 23.6453 33.0751 23.6593 33.1124 23.65C33.1591 23.6313 33.3271 23.6173 33.6164 23.608C33.8964 23.5987 34.0971 23.58 34.2184 23.552C34.3211 23.5427 34.4237 23.5427 34.5264 23.552C34.6384 23.5613 34.7551 23.5473 34.8764 23.51C34.9884 23.482 35.1751 23.4773 35.4364 23.496C35.7351 23.524 35.9311 23.5287 36.0244 23.51C36.1177 23.4913 36.2437 23.482 36.4024 23.482C36.5611 23.482 36.6824 23.5053 36.7664 23.552C36.9157 23.636 37.0137 23.7527 37.0604 23.902C37.0884 23.958 37.0837 24.0373 37.0464 24.14C36.9997 24.2427 36.9437 24.322 36.8784 24.378C36.8224 24.4433 36.7384 24.4807 36.6264 24.49C36.5237 24.4993 36.2951 24.4947 35.9404 24.476C35.4177 24.4387 34.8017 24.434 34.0924 24.462C33.7377 24.4713 33.3831 24.476 33.0284 24.476H32.5244L32.3984 24.406C32.3144 24.35 32.2677 24.308 32.2584 24.28C32.2304 24.2427 32.1977 24.2147 32.1604 24.196C32.1231 24.1587 32.0951 23.9907 32.0764 23.692C32.0484 23.3933 32.0297 23.2347 32.0204 23.216C32.0111 23.1973 32.0157 23.1413 32.0344 23.048C32.0624 22.9453 32.0531 22.7353 32.0064 22.418Z" fill="black"/>
<path d="M8.78 47.64C8.91333 47.4933 9.12 47.4733 9.4 47.58C9.68 47.66 9.86667 47.78 9.96 47.94C10 48.0333 10.02 48.4333 10.02 49.14C10.02 49.8467 10.0133 50.2333 10 50.3C9.97333 50.3933 9.98667 50.4667 10.04 50.52C10.1067 50.5733 10.2267 50.5867 10.4 50.56C10.5733 50.5333 10.7933 50.5 11.06 50.46C11.5 50.4467 11.7467 50.3733 11.8 50.24C11.8533 50.1467 11.8333 49.54 11.74 48.42C11.7267 48.22 11.7467 48.06 11.8 47.94C11.9067 47.7533 12.06 47.6533 12.26 47.64C12.4333 47.6133 12.6067 47.6533 12.78 47.76C12.9533 47.8533 13.0933 47.9867 13.2 48.16C13.2533 48.2533 13.26 48.5133 13.22 48.94C13.1933 49.3667 13.1867 49.6 13.2 49.64C13.24 49.6933 13.2667 49.9533 13.28 50.42C13.2933 50.8867 13.3133 51.1933 13.34 51.34C13.3533 51.5 13.34 51.6867 13.3 51.9C13.2733 52.1267 13.2733 52.2867 13.3 52.38C13.34 52.4733 13.36 52.7333 13.36 53.16C13.36 53.6 13.3333 53.88 13.28 54C13.1067 54.3467 12.88 54.5667 12.6 54.66C12.4667 54.6867 12.2867 54.6867 12.06 54.66C11.7267 54.6067 10.9267 54.62 9.66 54.7C9.40667 54.7133 9.18 54.6733 8.98 54.58C8.78 54.4733 8.65333 54.3133 8.6 54.1C8.56 53.98 8.54 53.5667 8.54 52.86V51.8L8.42 51.56C8.31333 51.4133 8.28 51.3 8.32 51.22C8.37333 51.1 8.42 51.0067 8.46 50.94C8.54 50.86 8.58667 50.56 8.6 50.04C8.64 49.52 8.64 49.0667 8.6 48.68C8.58667 48.3333 8.58667 48.0933 8.6 47.96C8.61333 47.8267 8.67333 47.72 8.78 47.64ZM11.84 51.82C11.7733 51.7533 11.5 51.7467 11.02 51.8C10.8333 51.8267 10.6267 51.8467 10.4 51.86C10.1333 51.9 9.98 51.9467 9.94 52C9.9 52.04 9.89333 52.16 9.92 52.36C9.96 52.6 9.98 52.7933 9.98 52.94C9.98 53.02 9.97333 53.08 9.96 53.12C9.96 53.1467 9.96667 53.18 9.98 53.22C9.99333 53.26 10 53.2867 10 53.3C10.0133 53.3 10.04 53.3067 10.08 53.32C10.1467 53.36 10.4333 53.3733 10.94 53.36C11.4467 53.3333 11.7267 53.3067 11.78 53.28C11.8067 53.24 11.8333 53 11.86 52.56C11.8867 52.12 11.88 51.8733 11.84 51.82ZM15.04 47.66C15.12 47.6467 15.2333 47.64 15.38 47.64C15.6467 47.6133 15.88 47.7067 16.08 47.92C16.24 48.0533 16.32 48.6067 16.32 49.58C16.32 50.0333 16.3467 50.2933 16.4 50.36C16.4667 50.4133 16.7333 50.44 17.2 50.44C17.7733 50.4533 18.14 50.5067 18.3 50.6C18.38 50.6533 18.4467 50.68 18.5 50.68C18.5267 50.68 18.58 50.7133 18.66 50.78C18.7933 50.8867 18.86 51.04 18.86 51.24C18.86 51.44 18.8 51.6067 18.68 51.74C18.56 51.86 18.42 51.9333 18.26 51.96C18.1 51.9733 17.8467 51.9267 17.5 51.82C17.34 51.78 17.12 51.76 16.84 51.76C16.5467 51.76 16.38 51.7933 16.34 51.86C16.3133 51.9133 16.3 52.1733 16.3 52.64C16.3267 54.36 16.38 55.3333 16.46 55.56C16.5267 55.7467 16.5133 55.94 16.42 56.14C16.3533 56.2733 16.26 56.3667 16.14 56.42C15.6867 56.5933 15.32 56.44 15.04 55.96L14.92 55.72L14.9 52.2C14.9 49.88 14.8733 48.6067 14.82 48.38C14.78 48.14 14.7867 47.9667 14.84 47.86C14.9067 47.7533 14.9733 47.6867 15.04 47.66ZM19.5523 45.92C19.7257 45.7733 19.9657 45.7467 20.2723 45.84C20.4323 45.8933 20.6323 45.9067 20.8723 45.88C21.139 45.8667 21.3323 45.8667 21.4523 45.88C21.5857 45.92 21.739 45.9133 21.9123 45.86C22.0857 45.8067 22.359 45.78 22.7323 45.78C23.1057 45.78 23.379 45.8133 23.5523 45.88C23.659 45.96 23.739 46.0267 23.7923 46.08C23.8457 46.1333 23.879 46.2 23.8923 46.28C23.9057 46.3467 23.9057 46.4533 23.8923 46.6C23.879 46.7733 23.8723 47.2067 23.8723 47.9V48.94L23.7323 49.12C23.6123 49.2933 23.4923 49.3933 23.3723 49.42C23.2523 49.4467 22.7857 49.46 21.9723 49.46C21.0123 49.46 20.519 49.4733 20.4923 49.5C20.439 49.54 20.4123 49.7867 20.4123 50.24C20.4123 50.6533 20.419 50.92 20.4323 51.04C20.4457 51.16 20.519 51.2333 20.6523 51.26C20.799 51.2867 21.2723 51.2933 22.0723 51.28C23.0057 51.2533 23.5323 51.2467 23.6523 51.26C23.7723 51.2733 23.8923 51.32 24.0123 51.4C24.2257 51.5333 24.3257 51.7267 24.3123 51.98C24.299 52.1133 24.2457 52.2333 24.1523 52.34C24.0457 52.4467 23.8923 52.5 23.6923 52.5C23.559 52.5 23.139 52.5 22.4323 52.5C20.939 52.5 20.079 52.4667 19.8523 52.4C19.439 52.2667 19.1857 52.0467 19.0923 51.74C19.0523 51.6067 19.039 51.3267 19.0523 50.9C19.079 50.4867 19.0723 50.2467 19.0323 50.18C18.9923 50.1133 18.9923 50 19.0323 49.84C19.0723 49.7067 19.0657 49.56 19.0123 49.4C18.9723 49.2667 18.9523 49.1133 18.9523 48.94C18.9523 48.7667 18.9723 48.6667 19.0123 48.64C19.0257 48.6267 19.059 48.56 19.1123 48.44C19.1657 48.32 19.2323 48.2333 19.3123 48.18C19.4857 48.06 19.7057 48.0333 19.9723 48.1C20.159 48.1533 20.5923 48.1867 21.2723 48.2L22.2723 48.24L22.4123 48.1C22.479 48.0067 22.5123 47.8267 22.5123 47.56C22.5123 47.28 22.4857 47.1267 22.4323 47.1C22.379 47.06 22.1723 47.0467 21.8123 47.06C20.839 47.1 20.2457 47.1067 20.0323 47.08C19.8323 47.0533 19.6523 46.9533 19.4923 46.78C19.3723 46.62 19.3123 46.48 19.3123 46.36C19.3123 46.1867 19.3923 46.04 19.5523 45.92ZM25.9123 46.12C26.0057 46.0933 26.079 46.08 26.1323 46.08C26.2523 46.0533 26.399 46.1 26.5723 46.22C26.759 46.3267 26.879 46.4333 26.9323 46.54C26.999 46.7533 27.0457 47.1467 27.0723 47.72C27.0723 48.1333 27.079 48.38 27.0923 48.46C27.119 48.6067 27.2723 48.66 27.5523 48.62C27.7523 48.58 27.9523 48.5733 28.1523 48.6C28.3257 48.6133 28.4857 48.6533 28.6323 48.72C28.779 48.7733 28.8923 48.8467 28.9723 48.94C29.0523 49.02 29.1123 49.1067 29.1523 49.2C29.1923 49.28 29.1923 49.3733 29.1523 49.48C29.1123 49.5867 29.039 49.6733 28.9323 49.74L28.7523 49.86H27.9723C27.4523 49.86 27.1723 49.8867 27.1323 49.94C27.0923 49.98 27.0723 50.1867 27.0723 50.56C27.0723 50.9467 27.0857 51.28 27.1123 51.56C27.1657 51.9867 27.1057 52.2733 26.9323 52.42C26.8523 52.4867 26.739 52.52 26.5923 52.52C26.3657 52.5067 26.159 52.3733 25.9723 52.12C25.839 51.9733 25.7723 51.56 25.7723 50.88C25.7723 50.6267 25.7723 49.9267 25.7723 48.78C25.7457 47.74 25.719 47.1333 25.6923 46.96C25.5723 46.52 25.6457 46.24 25.9123 46.12ZM23.4323 53.7C24.3923 53.6733 24.9323 53.64 25.0523 53.6C25.1857 53.56 25.4857 53.54 25.9523 53.54C26.4323 53.54 26.7257 53.5533 26.8323 53.58C27.059 53.6733 27.2523 53.8333 27.4123 54.06C27.4523 54.1533 27.4857 54.5333 27.5123 55.2C27.5123 55.88 27.539 56.3133 27.5923 56.5C27.659 56.7 27.7057 56.9267 27.7323 57.18C27.7857 57.58 27.7257 57.8533 27.5523 58C27.4323 58.1067 27.3323 58.1667 27.2523 58.18C27.1723 58.2067 26.979 58.22 26.6723 58.22C25.8057 58.18 25.139 58.18 24.6723 58.22C24.499 58.22 24.0923 58.2067 23.4523 58.18C22.8123 58.1667 22.479 58.1533 22.4523 58.14C22.4257 58.14 22.239 58.1133 21.8923 58.06C21.599 58.02 21.4123 57.9867 21.3323 57.96C21.2523 57.9333 21.1723 57.88 21.0923 57.8C20.8923 57.6133 20.779 57.3933 20.7523 57.14C20.7257 56.9667 20.6923 56.8133 20.6523 56.68C20.599 56.56 20.5857 56.4467 20.6123 56.34C20.6523 56.14 20.639 55.5 20.5723 54.42L20.5323 54.06L20.6723 53.88C20.7523 53.7467 20.8457 53.6733 20.9523 53.66C21.0723 53.6333 21.279 53.6333 21.5723 53.66C21.8657 53.7 22.4857 53.7133 23.4323 53.7ZM25.5123 54.92C25.1923 54.8933 24.9723 54.8733 24.8523 54.86C24.7323 54.8467 24.619 54.8533 24.5123 54.88C24.3923 54.9067 23.9723 54.92 23.2523 54.92C22.5323 54.92 22.1457 54.9333 22.0923 54.96C22.039 55 22.019 55.2733 22.0323 55.78C22.059 56.2733 22.1057 56.58 22.1723 56.7C22.239 56.8067 22.3123 56.86 22.3923 56.86C22.539 56.8733 23.179 56.8667 24.3123 56.84C25.459 56.8 26.0523 56.7733 26.0923 56.76C26.2257 56.6667 26.2457 56.3533 26.1523 55.82C26.1123 55.5667 26.1057 55.3733 26.1323 55.24C26.1457 55.1067 26.119 55.02 26.0523 54.98C25.9857 54.94 25.8057 54.92 25.5123 54.92ZM33.8327 45.3C34.206 45.2333 34.5393 45.2667 34.8327 45.4C34.9793 45.4533 35.066 45.48 35.0927 45.48C35.1727 45.48 35.3593 45.6133 35.6527 45.88C35.946 46.1467 36.1593 46.3733 36.2927 46.56C36.3993 46.7067 36.486 46.8667 36.5527 47.04L36.6927 47.3V48.06C36.6927 48.58 36.666 48.88 36.6127 48.96C36.5593 49.08 36.526 49.2 36.5127 49.32C36.4593 49.5867 36.2593 49.9067 35.9127 50.28C35.7127 50.48 35.4393 50.6933 35.0927 50.92C34.8927 51.04 34.6593 51.14 34.3927 51.22C34.1527 51.2867 33.7727 51.2667 33.2527 51.16C32.7327 51.0533 32.3327 50.8933 32.0527 50.68C31.8127 50.5067 31.5727 50.3067 31.3327 50.08C31.0927 49.84 30.9727 49.6933 30.9727 49.64C30.9727 49.5733 30.866 49.34 30.6527 48.94C30.5993 48.8333 30.566 48.58 30.5527 48.18C30.5527 47.78 30.5793 47.5267 30.6327 47.42C30.766 47.1133 30.8527 46.9267 30.8927 46.86C30.906 46.82 30.9593 46.72 31.0527 46.56C31.146 46.3467 31.4127 46.0733 31.8527 45.74L32.1527 45.5L32.5327 45.48C32.7593 45.4667 32.906 45.4333 32.9727 45.38C33.0527 45.3133 33.1793 45.2867 33.3527 45.3C33.5527 45.3133 33.7127 45.3133 33.8327 45.3ZM34.6327 46.76C34.446 46.68 34.2393 46.6533 34.0127 46.68C33.466 46.68 33.1193 46.7467 32.9727 46.88C32.9327 46.92 32.8727 46.9467 32.7927 46.96C32.5793 47.0267 32.386 47.16 32.2127 47.36C32.1327 47.4267 32.0527 47.54 31.9727 47.7C31.906 47.86 31.8727 47.9867 31.8727 48.08C31.8727 48.4933 31.926 48.8133 32.0327 49.04C32.206 49.3733 32.5593 49.6333 33.0927 49.82C33.2393 49.8867 33.3727 49.8933 33.4927 49.84C33.5727 49.8133 33.6993 49.7867 33.8727 49.76C34.0327 49.7467 34.206 49.66 34.3927 49.5C34.6593 49.3133 34.826 49.1733 34.8927 49.08C34.9593 48.9867 35.0993 48.7333 35.3127 48.32C35.3793 48.1733 35.406 47.9733 35.3927 47.72C35.3927 47.4533 35.3527 47.2667 35.2727 47.16C35.1393 46.9733 34.926 46.84 34.6327 46.76ZM34.5727 52.22C34.5727 52.22 35.0793 52.2067 36.0927 52.18C37.106 52.18 37.6527 52.2 37.7327 52.24C37.8127 52.2933 37.886 52.3333 37.9527 52.36C37.9793 52.3867 38.0127 52.4267 38.0527 52.48C38.0927 52.5333 38.126 52.5867 38.1527 52.64C38.1927 52.68 38.226 52.7333 38.2527 52.8C38.2793 52.8533 38.2927 52.9 38.2927 52.94C38.2927 53.1533 38.166 53.3333 37.9127 53.48C37.806 53.5733 37.6727 53.62 37.5127 53.62C37.366 53.62 37.2527 53.6067 37.1727 53.58C37.0927 53.54 36.7193 53.52 36.0527 53.52C35.3993 53.52 35.0193 53.5333 34.9127 53.56C34.8327 53.6 34.6927 53.6 34.4927 53.56C34.1193 53.4933 33.5593 53.4933 32.8127 53.56C32.4127 53.6 32.046 53.6267 31.7127 53.64C31.3527 53.68 31.166 53.7067 31.1527 53.72C31.0993 53.7333 30.9127 53.72 30.5927 53.68C30.2727 53.64 30.0327 53.6 29.8727 53.56C29.686 53.4933 29.546 53.4 29.4527 53.28C29.2793 53.0667 29.226 52.8467 29.2927 52.62C29.346 52.4867 29.426 52.4133 29.5327 52.4C29.6527 52.3733 29.966 52.36 30.4727 52.36C31.0593 52.3867 31.4593 52.38 31.6727 52.34C31.8593 52.2867 32.386 52.2533 33.2527 52.24C34.1193 52.2267 34.5593 52.22 34.5727 52.22ZM30.6727 54.22C30.7927 54.1533 30.9393 54.1533 31.1127 54.22C31.286 54.2733 31.4393 54.3867 31.5727 54.56C31.706 54.7333 31.7793 54.92 31.7927 55.12C31.8327 55.2667 31.866 55.3867 31.8927 55.48C31.9327 55.56 31.9593 55.86 31.9727 56.38C31.9993 56.9 32.026 57.18 32.0527 57.22C32.0793 57.26 32.286 57.2733 32.6727 57.26C33.0727 57.26 33.3527 57.24 33.5127 57.2C33.686 57.1733 33.8927 57.16 34.1327 57.16C35.3193 57.1333 36.206 57.1133 36.7927 57.1L37.4727 57.04L37.6127 57.18C37.8927 57.42 37.9393 57.7067 37.7527 58.04C37.6593 58.2 37.566 58.32 37.4727 58.4L37.3127 58.52L35.6727 58.56C34.926 58.56 34.1793 58.56 33.4327 58.56C33.0327 58.56 32.746 58.5733 32.5727 58.6C32.106 58.7467 31.686 58.7467 31.3127 58.6C30.9793 58.48 30.786 58.2733 30.7327 57.98C30.6393 57.5267 30.5927 57.1467 30.5927 56.84C30.5927 56.2267 30.5527 55.5733 30.4727 54.88C30.4593 54.6667 30.466 54.52 30.4927 54.44C30.5193 54.3467 30.5793 54.2733 30.6727 54.22ZM44.5561 45.14C44.6494 45.1133 44.8761 45.0867 45.2361 45.06C45.6094 45.06 45.8294 45.08 45.8961 45.12C45.9628 45.1333 46.0894 45.1667 46.2761 45.22C46.4761 45.26 46.6094 45.3067 46.6761 45.36C46.7428 45.3867 46.8028 45.42 46.8561 45.46C46.9094 45.46 47.0094 45.5267 47.1561 45.66C47.1961 45.7 47.2361 45.74 47.2761 45.78C47.3294 45.82 47.3628 45.8533 47.3761 45.88C47.4028 45.8933 47.4161 45.9067 47.4161 45.92C47.6694 46.1333 47.8361 46.3267 47.9161 46.5C47.9694 46.6067 48.0028 46.68 48.0161 46.72C48.1361 46.9467 48.2094 47.1133 48.2361 47.22C48.2628 47.3133 48.2761 47.52 48.2761 47.84V48.48L48.0961 48.86C47.9628 49.1267 47.8761 49.3 47.8361 49.38C47.8228 49.4467 47.7628 49.54 47.6561 49.66C47.5494 49.78 47.4361 49.8933 47.3161 50C47.1961 50.1067 47.1028 50.1667 47.0361 50.18C46.9294 50.2067 46.8561 50.24 46.8161 50.28C46.7894 50.32 46.7294 50.3467 46.6361 50.36C46.5561 50.3867 46.4761 50.4467 46.3961 50.54C46.3161 50.6333 46.2694 50.8133 46.2561 51.08C46.2561 51.3333 46.2894 51.4867 46.3561 51.54C46.4228 51.58 46.7294 51.6 47.2761 51.6C47.8494 51.6 48.3161 51.64 48.6761 51.72C48.7828 51.76 48.8828 51.8333 48.9761 51.94C49.0828 52.0333 49.1494 52.1267 49.1761 52.22C49.2428 52.5533 49.1161 52.7533 48.7961 52.82C48.7028 52.8467 48.1228 52.86 47.0561 52.86C46.0028 52.8467 45.3828 52.86 45.1961 52.9C44.9961 52.9667 44.5694 53 43.9161 53C43.2761 53 42.9028 52.9667 42.7961 52.9C42.5694 52.7933 42.4161 52.6267 42.3361 52.4C42.2561 52.1733 42.2828 51.9933 42.4161 51.86C42.5094 51.7533 42.8028 51.7133 43.2961 51.74C44.2428 51.78 44.7694 51.7467 44.8761 51.64C44.9294 51.5867 44.9628 51.4 44.9761 51.08C45.0028 50.76 44.9961 50.5733 44.9561 50.52C44.9428 50.4533 44.8894 50.4 44.7961 50.36C44.7428 50.3333 44.6161 50.2667 44.4161 50.16C44.2428 50.0533 44.1361 49.9933 44.0961 49.98C43.9228 49.9133 43.7361 49.7933 43.5361 49.62C43.3494 49.4467 43.2161 49.28 43.1361 49.12C43.0828 49.0133 43.0428 48.96 43.0161 48.96C42.9894 48.9467 42.9628 48.9133 42.9361 48.86C42.9094 48.7933 42.8761 48.72 42.8361 48.64C42.8094 48.56 42.7828 48.4867 42.7561 48.42C42.7428 48.3533 42.7361 48.2933 42.7361 48.24C42.7361 48.1467 42.7228 48.04 42.6961 47.92C42.6828 47.8133 42.6894 47.64 42.7161 47.4C42.7561 47.1467 42.8028 46.9733 42.8561 46.88C42.9094 46.7733 42.9428 46.6867 42.9561 46.62C42.9694 46.5533 43.0028 46.4867 43.0561 46.42C43.1094 46.3533 43.1428 46.28 43.1561 46.2C43.1828 46.16 43.2961 46.0333 43.4961 45.82C43.7361 45.5933 44.0028 45.4133 44.2961 45.28C44.3361 45.2533 44.4228 45.2067 44.5561 45.14ZM46.2561 46.5C45.9761 46.3533 45.6361 46.3467 45.2361 46.48C44.8894 46.56 44.6161 46.7333 44.4161 47C44.1494 47.3467 44.0161 47.6467 44.0161 47.9C44.0161 48.1133 44.0694 48.3133 44.1761 48.5C44.2428 48.66 44.3228 48.7867 44.4161 48.88C44.5094 48.96 44.6228 49.0267 44.7561 49.08C44.9028 49.12 45.0894 49.16 45.3161 49.2C45.4761 49.24 45.6361 49.2333 45.7961 49.18C45.9694 49.1267 46.0894 49.0733 46.1561 49.02C46.2228 48.9667 46.2894 48.92 46.3561 48.88C46.4094 48.8667 46.4628 48.82 46.5161 48.74C46.5828 48.66 46.6428 48.58 46.6961 48.5C46.7628 48.4067 46.7961 48.3267 46.7961 48.26C46.8228 48.18 46.8561 48.1133 46.8961 48.06C46.9494 48.0067 46.9761 47.8733 46.9761 47.66C46.9761 47.4333 46.9628 47.2733 46.9361 47.18C46.8294 46.9 46.6028 46.6733 46.2561 46.5ZM51.9761 45.74C52.0828 45.66 52.2761 45.68 52.5561 45.8C52.7561 45.88 52.8761 45.9667 52.9161 46.06C52.9694 46.14 53.0028 46.3533 53.0161 46.7C53.0294 47.1 53.0428 47.3133 53.0561 47.34C53.0828 47.3667 53.0761 47.4667 53.0361 47.64C53.0228 47.8133 53.0361 47.9933 53.0761 48.18C53.1028 48.38 53.1094 48.5467 53.0961 48.68C53.0028 49.1867 52.9694 50.0533 52.9961 51.28V52.3L52.8561 52.44C52.7894 52.5333 52.7094 52.6067 52.6161 52.66C52.4294 52.74 52.2161 52.6667 51.9761 52.44C51.8161 52.2933 51.7228 52.1533 51.6961 52.02C51.6694 51.8867 51.6561 51.5467 51.6561 51V50.04L51.5561 49.9C51.4761 49.82 51.3228 49.78 51.0961 49.78C50.8828 49.78 50.7428 49.7933 50.6761 49.82C50.6094 49.8333 50.5628 49.8933 50.5361 50C50.5228 50.0933 50.5294 50.3467 50.5561 50.76C50.5961 51.1733 50.6361 51.46 50.6761 51.62C50.6894 51.7533 50.6628 51.9267 50.5961 52.14C50.4761 52.4733 50.3028 52.64 50.0761 52.64C49.7694 52.64 49.5361 52.3667 49.3761 51.82C49.3094 51.58 49.2628 50.9467 49.2361 49.92C49.2361 48.9067 49.2494 48.32 49.2761 48.16C49.3028 48.0267 49.3161 47.6533 49.3161 47.04C49.3161 46.52 49.3294 46.2 49.3561 46.08C49.3828 45.9467 49.4561 45.8533 49.5761 45.8C49.6828 45.76 49.8161 45.76 49.9761 45.8C50.1494 45.8267 50.2894 45.8933 50.3961 46L50.5361 46.16V46.76C50.5361 47.1867 50.5361 47.56 50.5361 47.88C50.5361 48.2267 50.5761 48.4267 50.6561 48.48C50.7228 48.5333 50.8561 48.5467 51.0561 48.52C51.2561 48.5067 51.4094 48.4933 51.5161 48.48C51.6094 48.44 51.6694 48.3467 51.6961 48.2C51.7228 48.04 51.7361 47.6533 51.7361 47.04C51.7228 46.3867 51.7428 46.0133 51.7961 45.92C51.8628 45.84 51.9228 45.78 51.9761 45.74ZM48.1161 53.76C48.2094 53.76 48.3561 53.7067 48.5561 53.6C48.7694 53.4933 48.9961 53.4467 49.2361 53.46C49.4628 53.4733 49.6361 53.5 49.7561 53.54C49.8628 53.58 49.9761 53.6 50.0961 53.6C50.2561 53.6 50.4761 53.68 50.7561 53.84C51.0494 53.9867 51.3028 54.1533 51.5161 54.34C51.7028 54.5133 51.8561 54.7267 51.9761 54.98C52.0161 55.0467 52.0561 55.1333 52.0961 55.24C52.1361 55.2933 52.1561 55.4533 52.1561 55.72C52.1561 55.9867 52.1828 56.16 52.2361 56.24L52.2961 56.4L52.1361 56.74C52.0294 56.9667 51.9561 57.12 51.9161 57.2C51.8894 57.36 51.7294 57.6067 51.4361 57.94C51.0628 58.3 50.6361 58.5667 50.1561 58.74C49.7561 58.8867 49.4761 58.92 49.3161 58.84C49.1961 58.8133 48.9828 58.78 48.6761 58.74C48.2361 58.6733 47.8694 58.5533 47.5761 58.38C47.5628 58.3667 47.5428 58.3467 47.5161 58.32C47.4894 58.3067 47.4628 58.2867 47.4361 58.26C47.4228 58.2467 47.3961 58.2333 47.3561 58.22C47.3294 58.2067 47.3094 58.1867 47.2961 58.16C46.8428 57.8933 46.5361 57.5267 46.3761 57.06C46.3494 56.9533 46.3161 56.88 46.2761 56.84C46.2494 56.8133 46.2361 56.7467 46.2361 56.64C46.2361 56.5333 46.2494 56.4467 46.2761 56.38C46.3161 56.2867 46.3161 56.1733 46.2761 56.04C46.2494 55.9067 46.2628 55.74 46.3161 55.54C46.3828 55.3 46.4228 55.1533 46.4361 55.1C46.4494 55.0333 46.4761 54.98 46.5161 54.94C46.5294 54.9267 46.5628 54.88 46.6161 54.8C46.6561 54.7067 46.7494 54.58 46.8961 54.42C47.0561 54.2467 47.1694 54.16 47.2361 54.16C47.2894 54.16 47.3294 54.1467 47.3561 54.12C47.3694 54.0933 47.4428 54.0467 47.5761 53.98C47.7228 53.9133 47.8294 53.86 47.8961 53.82C47.9628 53.78 48.0361 53.76 48.1161 53.76ZM50.0961 54.82C50.0294 54.78 49.8828 54.76 49.6561 54.76C49.3628 54.7467 49.0761 54.78 48.7961 54.86C48.5294 54.94 48.2894 55.0467 48.0761 55.18C47.8628 55.3133 47.7161 55.48 47.6361 55.68C47.4628 56 47.4561 56.3333 47.6161 56.68C47.7494 57.0133 47.8961 57.2 48.0561 57.24C48.1094 57.2533 48.1494 57.28 48.1761 57.32C48.2161 57.3467 48.2894 57.38 48.3961 57.42C48.5161 57.4467 48.6361 57.4867 48.7561 57.54C48.8628 57.5933 48.9828 57.6067 49.1161 57.58C49.1294 57.58 49.1628 57.5733 49.2161 57.56C49.2694 57.5333 49.3294 57.5133 49.3961 57.5C49.4628 57.4733 49.5161 57.46 49.5561 57.46C49.7294 57.42 49.8628 57.3733 49.9561 57.32C50.0494 57.24 50.1094 57.2 50.1361 57.2C50.1628 57.2 50.2561 57.14 50.4161 57.02C50.5761 56.8867 50.6961 56.68 50.7761 56.4C50.8428 56.1733 50.8761 56.0133 50.8761 55.92C50.8761 55.8133 50.8361 55.66 50.7561 55.46C50.6894 55.3267 50.6561 55.24 50.6561 55.2C50.6561 55.1733 50.5894 55.1133 50.4561 55.02C50.3228 54.9133 50.2028 54.8467 50.0961 54.82ZM55.4623 45.14C55.5557 45.1133 55.7823 45.0867 56.1423 45.06C56.5157 45.06 56.7357 45.08 56.8023 45.12C56.869 45.1333 56.9957 45.1667 57.1823 45.22C57.3823 45.26 57.5157 45.3067 57.5823 45.36C57.649 45.3867 57.709 45.42 57.7623 45.46C57.8157 45.46 57.9157 45.5267 58.0623 45.66C58.1023 45.7 58.1423 45.74 58.1823 45.78C58.2357 45.82 58.269 45.8533 58.2823 45.88C58.309 45.8933 58.3223 45.9067 58.3223 45.92C58.5757 46.1333 58.7423 46.3267 58.8223 46.5C58.8757 46.6067 58.909 46.68 58.9223 46.72C59.0423 46.9467 59.1157 47.1133 59.1423 47.22C59.169 47.3133 59.1823 47.52 59.1823 47.84V48.48L59.0023 48.86C58.869 49.1267 58.7823 49.3 58.7423 49.38C58.729 49.4467 58.669 49.54 58.5623 49.66C58.4557 49.78 58.3423 49.8933 58.2223 50C58.1023 50.1067 58.009 50.1667 57.9423 50.18C57.8357 50.2067 57.7623 50.24 57.7223 50.28C57.6957 50.32 57.6357 50.3467 57.5423 50.36C57.4623 50.3867 57.3823 50.4467 57.3023 50.54C57.2223 50.6333 57.1757 50.8133 57.1623 51.08C57.1623 51.3333 57.1957 51.4867 57.2623 51.54C57.329 51.58 57.6357 51.6 58.1823 51.6C58.7557 51.6 59.2223 51.64 59.5823 51.72C59.689 51.76 59.789 51.8333 59.8823 51.94C59.989 52.0333 60.0557 52.1267 60.0823 52.22C60.149 52.5533 60.0223 52.7533 59.7023 52.82C59.609 52.8467 59.029 52.86 57.9623 52.86C56.909 52.8467 56.289 52.86 56.1023 52.9C55.9023 52.9667 55.4757 53 54.8223 53C54.1823 53 53.809 52.9667 53.7023 52.9C53.4757 52.7933 53.3223 52.6267 53.2423 52.4C53.1623 52.1733 53.189 51.9933 53.3223 51.86C53.4157 51.7533 53.709 51.7133 54.2023 51.74C55.149 51.78 55.6757 51.7467 55.7823 51.64C55.8357 51.5867 55.869 51.4 55.8823 51.08C55.909 50.76 55.9023 50.5733 55.8623 50.52C55.849 50.4533 55.7957 50.4 55.7023 50.36C55.649 50.3333 55.5223 50.2667 55.3223 50.16C55.149 50.0533 55.0423 49.9933 55.0023 49.98C54.829 49.9133 54.6423 49.7933 54.4423 49.62C54.2557 49.4467 54.1223 49.28 54.0423 49.12C53.989 49.0133 53.949 48.96 53.9223 48.96C53.8957 48.9467 53.869 48.9133 53.8423 48.86C53.8157 48.7933 53.7823 48.72 53.7423 48.64C53.7157 48.56 53.689 48.4867 53.6623 48.42C53.649 48.3533 53.6423 48.2933 53.6423 48.24C53.6423 48.1467 53.629 48.04 53.6023 47.92C53.589 47.8133 53.5957 47.64 53.6223 47.4C53.6623 47.1467 53.709 46.9733 53.7623 46.88C53.8157 46.7733 53.849 46.6867 53.8623 46.62C53.8757 46.5533 53.909 46.4867 53.9623 46.42C54.0157 46.3533 54.049 46.28 54.0623 46.2C54.089 46.16 54.2023 46.0333 54.4023 45.82C54.6423 45.5933 54.909 45.4133 55.2023 45.28C55.2423 45.2533 55.329 45.2067 55.4623 45.14ZM57.1623 46.5C56.8823 46.3533 56.5423 46.3467 56.1423 46.48C55.7957 46.56 55.5223 46.7333 55.3223 47C55.0557 47.3467 54.9223 47.6467 54.9223 47.9C54.9223 48.1133 54.9757 48.3133 55.0823 48.5C55.149 48.66 55.229 48.7867 55.3223 48.88C55.4157 48.96 55.529 49.0267 55.6623 49.08C55.809 49.12 55.9957 49.16 56.2223 49.2C56.3823 49.24 56.5423 49.2333 56.7023 49.18C56.8757 49.1267 56.9957 49.0733 57.0623 49.02C57.129 48.9667 57.1957 48.92 57.2623 48.88C57.3157 48.8667 57.369 48.82 57.4223 48.74C57.489 48.66 57.549 48.58 57.6023 48.5C57.669 48.4067 57.7023 48.3267 57.7023 48.26C57.729 48.18 57.7623 48.1133 57.8023 48.06C57.8557 48.0067 57.8823 47.8733 57.8823 47.66C57.8823 47.4333 57.869 47.2733 57.8423 47.18C57.7357 46.9 57.509 46.6733 57.1623 46.5ZM62.8823 45.74C62.989 45.66 63.1823 45.68 63.4623 45.8C63.6623 45.88 63.7823 45.9667 63.8223 46.06C63.8757 46.14 63.909 46.3533 63.9223 46.7C63.9357 47.1 63.949 47.3133 63.9623 47.34C63.989 47.3667 63.9823 47.4667 63.9423 47.64C63.929 47.8133 63.9423 47.9933 63.9823 48.18C64.009 48.38 64.0157 48.5467 64.0023 48.68C63.909 49.1867 63.8757 50.0533 63.9023 51.28V52.3L63.7623 52.44C63.6957 52.5333 63.6157 52.6067 63.5223 52.66C63.3357 52.74 63.1223 52.6667 62.8823 52.44C62.7223 52.2933 62.629 52.1533 62.6023 52.02C62.5757 51.8867 62.5623 51.5467 62.5623 51V50.04L62.4623 49.9C62.3823 49.82 62.229 49.78 62.0023 49.78C61.789 49.78 61.649 49.7933 61.5823 49.82C61.5157 49.8333 61.469 49.8933 61.4423 50C61.429 50.0933 61.4357 50.3467 61.4623 50.76C61.5023 51.1733 61.5423 51.46 61.5823 51.62C61.5957 51.7533 61.569 51.9267 61.5023 52.14C61.3823 52.4733 61.209 52.64 60.9823 52.64C60.6757 52.64 60.4423 52.3667 60.2823 51.82C60.2157 51.58 60.169 50.9467 60.1423 49.92C60.1423 48.9067 60.1557 48.32 60.1823 48.16C60.209 48.0267 60.2223 47.6533 60.2223 47.04C60.2223 46.52 60.2357 46.2 60.2623 46.08C60.289 45.9467 60.3623 45.8533 60.4823 45.8C60.589 45.76 60.7223 45.76 60.8823 45.8C61.0557 45.8267 61.1957 45.8933 61.3023 46L61.4423 46.16V46.76C61.4423 47.1867 61.4423 47.56 61.4423 47.88C61.4423 48.2267 61.4823 48.4267 61.5623 48.48C61.629 48.5333 61.7623 48.5467 61.9623 48.52C62.1623 48.5067 62.3157 48.4933 62.4223 48.48C62.5157 48.44 62.5757 48.3467 62.6023 48.2C62.629 48.04 62.6423 47.6533 62.6423 47.04C62.629 46.3867 62.649 46.0133 62.7023 45.92C62.769 45.84 62.829 45.78 62.8823 45.74ZM59.0223 53.76C59.1157 53.76 59.2623 53.7067 59.4623 53.6C59.6757 53.4933 59.9023 53.4467 60.1423 53.46C60.369 53.4733 60.5423 53.5 60.6623 53.54C60.769 53.58 60.8823 53.6 61.0023 53.6C61.1623 53.6 61.3823 53.68 61.6623 53.84C61.9557 53.9867 62.209 54.1533 62.4223 54.34C62.609 54.5133 62.7623 54.7267 62.8823 54.98C62.9223 55.0467 62.9623 55.1333 63.0023 55.24C63.0423 55.2933 63.0623 55.4533 63.0623 55.72C63.0623 55.9867 63.089 56.16 63.1423 56.24L63.2023 56.4L63.0423 56.74C62.9357 56.9667 62.8623 57.12 62.8223 57.2C62.7957 57.36 62.6357 57.6067 62.3423 57.94C61.969 58.3 61.5423 58.5667 61.0623 58.74C60.6623 58.8867 60.3823 58.92 60.2223 58.84C60.1023 58.8133 59.889 58.78 59.5823 58.74C59.1423 58.6733 58.7757 58.5533 58.4823 58.38C58.469 58.3667 58.449 58.3467 58.4223 58.32C58.3957 58.3067 58.369 58.2867 58.3423 58.26C58.329 58.2467 58.3023 58.2333 58.2623 58.22C58.2357 58.2067 58.2157 58.1867 58.2023 58.16C57.749 57.8933 57.4423 57.5267 57.2823 57.06C57.2557 56.9533 57.2223 56.88 57.1823 56.84C57.1557 56.8133 57.1423 56.7467 57.1423 56.64C57.1423 56.5333 57.1557 56.4467 57.1823 56.38C57.2223 56.2867 57.2223 56.1733 57.1823 56.04C57.1557 55.9067 57.169 55.74 57.2223 55.54C57.289 55.3 57.329 55.1533 57.3423 55.1C57.3557 55.0333 57.3823 54.98 57.4223 54.94C57.4357 54.9267 57.469 54.88 57.5223 54.8C57.5623 54.7067 57.6557 54.58 57.8023 54.42C57.9623 54.2467 58.0757 54.16 58.1423 54.16C58.1957 54.16 58.2357 54.1467 58.2623 54.12C58.2757 54.0933 58.349 54.0467 58.4823 53.98C58.629 53.9133 58.7357 53.86 58.8023 53.82C58.869 53.78 58.9423 53.76 59.0223 53.76ZM61.0023 54.82C60.9357 54.78 60.789 54.76 60.5623 54.76C60.269 54.7467 59.9823 54.78 59.7023 54.86C59.4357 54.94 59.1957 55.0467 58.9823 55.18C58.769 55.3133 58.6223 55.48 58.5423 55.68C58.369 56 58.3623 56.3333 58.5223 56.68C58.6557 57.0133 58.8023 57.2 58.9623 57.24C59.0157 57.2533 59.0557 57.28 59.0823 57.32C59.1223 57.3467 59.1957 57.38 59.3023 57.42C59.4223 57.4467 59.5423 57.4867 59.6623 57.54C59.769 57.5933 59.889 57.6067 60.0223 57.58C60.0357 57.58 60.069 57.5733 60.1223 57.56C60.1757 57.5333 60.2357 57.5133 60.3023 57.5C60.369 57.4733 60.4223 57.46 60.4623 57.46C60.6357 57.42 60.769 57.3733 60.8623 57.32C60.9557 57.24 61.0157 57.2 61.0423 57.2C61.069 57.2 61.1623 57.14 61.3223 57.02C61.4823 56.8867 61.6023 56.68 61.6823 56.4C61.749 56.1733 61.7823 56.0133 61.7823 55.92C61.7823 55.8133 61.7423 55.66 61.6623 55.46C61.5957 55.3267 61.5623 55.24 61.5623 55.2C61.5623 55.1733 61.4957 55.1133 61.3623 55.02C61.229 54.9133 61.109 54.8467 61.0023 54.82ZM66.3686 45.14C66.4619 45.1133 66.6886 45.0867 67.0486 45.06C67.4219 45.06 67.6419 45.08 67.7086 45.12C67.7753 45.1333 67.9019 45.1667 68.0886 45.22C68.2886 45.26 68.4219 45.3067 68.4886 45.36C68.5553 45.3867 68.6153 45.42 68.6686 45.46C68.7219 45.46 68.8219 45.5267 68.9686 45.66C69.0086 45.7 69.0486 45.74 69.0886 45.78C69.1419 45.82 69.1753 45.8533 69.1886 45.88C69.2153 45.8933 69.2286 45.9067 69.2286 45.92C69.4819 46.1333 69.6486 46.3267 69.7286 46.5C69.7819 46.6067 69.8153 46.68 69.8286 46.72C69.9486 46.9467 70.0219 47.1133 70.0486 47.22C70.0753 47.3133 70.0886 47.52 70.0886 47.84V48.48L69.9086 48.86C69.7753 49.1267 69.6886 49.3 69.6486 49.38C69.6353 49.4467 69.5753 49.54 69.4686 49.66C69.3619 49.78 69.2486 49.8933 69.1286 50C69.0086 50.1067 68.9153 50.1667 68.8486 50.18C68.7419 50.2067 68.6686 50.24 68.6286 50.28C68.6019 50.32 68.5419 50.3467 68.4486 50.36C68.3686 50.3867 68.2886 50.4467 68.2086 50.54C68.1286 50.6333 68.0819 50.8133 68.0686 51.08C68.0686 51.3333 68.1019 51.4867 68.1686 51.54C68.2353 51.58 68.5419 51.6 69.0886 51.6C69.6619 51.6 70.1286 51.64 70.4886 51.72C70.5953 51.76 70.6953 51.8333 70.7886 51.94C70.8953 52.0333 70.9619 52.1267 70.9886 52.22C71.0553 52.5533 70.9286 52.7533 70.6086 52.82C70.5153 52.8467 69.9353 52.86 68.8686 52.86C67.8153 52.8467 67.1953 52.86 67.0086 52.9C66.8086 52.9667 66.3819 53 65.7286 53C65.0886 53 64.7153 52.9667 64.6086 52.9C64.3819 52.7933 64.2286 52.6267 64.1486 52.4C64.0686 52.1733 64.0953 51.9933 64.2286 51.86C64.3219 51.7533 64.6153 51.7133 65.1086 51.74C66.0553 51.78 66.5819 51.7467 66.6886 51.64C66.7419 51.5867 66.7753 51.4 66.7886 51.08C66.8153 50.76 66.8086 50.5733 66.7686 50.52C66.7553 50.4533 66.7019 50.4 66.6086 50.36C66.5553 50.3333 66.4286 50.2667 66.2286 50.16C66.0553 50.0533 65.9486 49.9933 65.9086 49.98C65.7353 49.9133 65.5486 49.7933 65.3486 49.62C65.1619 49.4467 65.0286 49.28 64.9486 49.12C64.8953 49.0133 64.8553 48.96 64.8286 48.96C64.8019 48.9467 64.7753 48.9133 64.7486 48.86C64.7219 48.7933 64.6886 48.72 64.6486 48.64C64.6219 48.56 64.5953 48.4867 64.5686 48.42C64.5553 48.3533 64.5486 48.2933 64.5486 48.24C64.5486 48.1467 64.5353 48.04 64.5086 47.92C64.4953 47.8133 64.5019 47.64 64.5286 47.4C64.5686 47.1467 64.6153 46.9733 64.6686 46.88C64.7219 46.7733 64.7553 46.6867 64.7686 46.62C64.7819 46.5533 64.8153 46.4867 64.8686 46.42C64.9219 46.3533 64.9553 46.28 64.9686 46.2C64.9953 46.16 65.1086 46.0333 65.3086 45.82C65.5486 45.5933 65.8153 45.4133 66.1086 45.28C66.1486 45.2533 66.2353 45.2067 66.3686 45.14ZM68.0686 46.5C67.7886 46.3533 67.4486 46.3467 67.0486 46.48C66.7019 46.56 66.4286 46.7333 66.2286 47C65.9619 47.3467 65.8286 47.6467 65.8286 47.9C65.8286 48.1133 65.8819 48.3133 65.9886 48.5C66.0553 48.66 66.1353 48.7867 66.2286 48.88C66.3219 48.96 66.4353 49.0267 66.5686 49.08C66.7153 49.12 66.9019 49.16 67.1286 49.2C67.2886 49.24 67.4486 49.2333 67.6086 49.18C67.7819 49.1267 67.9019 49.0733 67.9686 49.02C68.0353 48.9667 68.1019 48.92 68.1686 48.88C68.2219 48.8667 68.2753 48.82 68.3286 48.74C68.3953 48.66 68.4553 48.58 68.5086 48.5C68.5753 48.4067 68.6086 48.3267 68.6086 48.26C68.6353 48.18 68.6686 48.1133 68.7086 48.06C68.7619 48.0067 68.7886 47.8733 68.7886 47.66C68.7886 47.4333 68.7753 47.2733 68.7486 47.18C68.6419 46.9 68.4153 46.6733 68.0686 46.5ZM73.7886 45.74C73.8953 45.66 74.0886 45.68 74.3686 45.8C74.5686 45.88 74.6886 45.9667 74.7286 46.06C74.7819 46.14 74.8153 46.3533 74.8286 46.7C74.8419 47.1 74.8553 47.3133 74.8686 47.34C74.8953 47.3667 74.8886 47.4667 74.8486 47.64C74.8353 47.8133 74.8486 47.9933 74.8886 48.18C74.9153 48.38 74.9219 48.5467 74.9086 48.68C74.8153 49.1867 74.7819 50.0533 74.8086 51.28V52.3L74.6686 52.44C74.6019 52.5333 74.5219 52.6067 74.4286 52.66C74.2419 52.74 74.0286 52.6667 73.7886 52.44C73.6286 52.2933 73.5353 52.1533 73.5086 52.02C73.4819 51.8867 73.4686 51.5467 73.4686 51V50.04L73.3686 49.9C73.2886 49.82 73.1353 49.78 72.9086 49.78C72.6953 49.78 72.5553 49.7933 72.4886 49.82C72.4219 49.8333 72.3753 49.8933 72.3486 50C72.3353 50.0933 72.3419 50.3467 72.3686 50.76C72.4086 51.1733 72.4486 51.46 72.4886 51.62C72.5019 51.7533 72.4753 51.9267 72.4086 52.14C72.2886 52.4733 72.1153 52.64 71.8886 52.64C71.5819 52.64 71.3486 52.3667 71.1886 51.82C71.1219 51.58 71.0753 50.9467 71.0486 49.92C71.0486 48.9067 71.0619 48.32 71.0886 48.16C71.1153 48.0267 71.1286 47.6533 71.1286 47.04C71.1286 46.52 71.1419 46.2 71.1686 46.08C71.1953 45.9467 71.2686 45.8533 71.3886 45.8C71.4953 45.76 71.6286 45.76 71.7886 45.8C71.9619 45.8267 72.1019 45.8933 72.2086 46L72.3486 46.16V46.76C72.3486 47.1867 72.3486 47.56 72.3486 47.88C72.3486 48.2267 72.3886 48.4267 72.4686 48.48C72.5353 48.5333 72.6686 48.5467 72.8686 48.52C73.0686 48.5067 73.2219 48.4933 73.3286 48.48C73.4219 48.44 73.4819 48.3467 73.5086 48.2C73.5353 48.04 73.5486 47.6533 73.5486 47.04C73.5353 46.3867 73.5553 46.0133 73.6086 45.92C73.6753 45.84 73.7353 45.78 73.7886 45.74ZM69.9286 53.76C70.0219 53.76 70.1686 53.7067 70.3686 53.6C70.5819 53.4933 70.8086 53.4467 71.0486 53.46C71.2753 53.4733 71.4486 53.5 71.5686 53.54C71.6753 53.58 71.7886 53.6 71.9086 53.6C72.0686 53.6 72.2886 53.68 72.5686 53.84C72.8619 53.9867 73.1153 54.1533 73.3286 54.34C73.5153 54.5133 73.6686 54.7267 73.7886 54.98C73.8286 55.0467 73.8686 55.1333 73.9086 55.24C73.9486 55.2933 73.9686 55.4533 73.9686 55.72C73.9686 55.9867 73.9953 56.16 74.0486 56.24L74.1086 56.4L73.9486 56.74C73.8419 56.9667 73.7686 57.12 73.7286 57.2C73.7019 57.36 73.5419 57.6067 73.2486 57.94C72.8753 58.3 72.4486 58.5667 71.9686 58.74C71.5686 58.8867 71.2886 58.92 71.1286 58.84C71.0086 58.8133 70.7953 58.78 70.4886 58.74C70.0486 58.6733 69.6819 58.5533 69.3886 58.38C69.3753 58.3667 69.3553 58.3467 69.3286 58.32C69.3019 58.3067 69.2753 58.2867 69.2486 58.26C69.2353 58.2467 69.2086 58.2333 69.1686 58.22C69.1419 58.2067 69.1219 58.1867 69.1086 58.16C68.6553 57.8933 68.3486 57.5267 68.1886 57.06C68.1619 56.9533 68.1286 56.88 68.0886 56.84C68.0619 56.8133 68.0486 56.7467 68.0486 56.64C68.0486 56.5333 68.0619 56.4467 68.0886 56.38C68.1286 56.2867 68.1286 56.1733 68.0886 56.04C68.0619 55.9067 68.0753 55.74 68.1286 55.54C68.1953 55.3 68.2353 55.1533 68.2486 55.1C68.2619 55.0333 68.2886 54.98 68.3286 54.94C68.3419 54.9267 68.3753 54.88 68.4286 54.8C68.4686 54.7067 68.5619 54.58 68.7086 54.42C68.8686 54.2467 68.9819 54.16 69.0486 54.16C69.1019 54.16 69.1419 54.1467 69.1686 54.12C69.1819 54.0933 69.2553 54.0467 69.3886 53.98C69.5353 53.9133 69.6419 53.86 69.7086 53.82C69.7753 53.78 69.8486 53.76 69.9286 53.76ZM71.9086 54.82C71.8419 54.78 71.6953 54.76 71.4686 54.76C71.1753 54.7467 70.8886 54.78 70.6086 54.86C70.3419 54.94 70.1019 55.0467 69.8886 55.18C69.6753 55.3133 69.5286 55.48 69.4486 55.68C69.2753 56 69.2686 56.3333 69.4286 56.68C69.5619 57.0133 69.7086 57.2 69.8686 57.24C69.9219 57.2533 69.9619 57.28 69.9886 57.32C70.0286 57.3467 70.1019 57.38 70.2086 57.42C70.3286 57.4467 70.4486 57.4867 70.5686 57.54C70.6753 57.5933 70.7953 57.6067 70.9286 57.58C70.9419 57.58 70.9753 57.5733 71.0286 57.56C71.0819 57.5333 71.1419 57.5133 71.2086 57.5C71.2753 57.4733 71.3286 57.46 71.3686 57.46C71.5419 57.42 71.6753 57.3733 71.7686 57.32C71.8619 57.24 71.9219 57.2 71.9486 57.2C71.9753 57.2 72.0686 57.14 72.2286 57.02C72.3886 56.8867 72.5086 56.68 72.5886 56.4C72.6553 56.1733 72.6886 56.0133 72.6886 55.92C72.6886 55.8133 72.6486 55.66 72.5686 55.46C72.5019 55.3267 72.4686 55.24 72.4686 55.2C72.4686 55.1733 72.4019 55.1133 72.2686 55.02C72.1353 54.9133 72.0153 54.8467 71.9086 54.82ZM15.26 104.1C15.3 104.1 15.36 104.093 15.44 104.08C15.48 104.08 15.5933 104.12 15.78 104.2C15.9933 104.307 16.1267 104.413 16.18 104.52C16.2467 104.627 16.28 104.84 16.28 105.16C16.2933 106.16 16.32 106.707 16.36 106.8C16.44 106.92 16.72 106.913 17.2 106.78C17.3333 106.74 17.46 106.747 17.58 106.8C17.7267 106.853 17.88 106.88 18.04 106.88C18.3733 106.88 18.62 106.96 18.78 107.12C18.8867 107.227 18.94 107.353 18.94 107.5C18.94 107.633 18.8867 107.747 18.78 107.84C18.7267 107.92 18.68 107.973 18.64 108C18.6133 108.013 18.5733 108.033 18.52 108.06C18.4667 108.087 18.3867 108.107 18.28 108.12C18.1733 108.133 18.0667 108.147 17.96 108.16C17.8533 108.16 17.6733 108.16 17.42 108.16C16.7667 108.173 16.4133 108.193 16.36 108.22C16.3067 108.247 16.28 108.507 16.28 109C16.28 109.493 16.3067 109.82 16.36 109.98C16.4 110.14 16.4267 110.407 16.44 110.78C16.4533 111.153 16.4267 111.413 16.36 111.56C16.2933 111.707 16.2333 111.8 16.18 111.84C16.1267 111.867 16.04 111.887 15.92 111.9C15.6267 111.94 15.3733 111.853 15.16 111.64C15.0533 111.533 14.9933 111.407 14.98 111.26C14.9667 111.1 14.96 110.94 14.96 110.78C14.96 110.633 14.94 110.513 14.9 110.42C14.7933 110.247 14.7933 110.053 14.9 109.84C14.9667 109.72 14.9933 109.113 14.98 108.02C14.94 106.273 14.9 105.26 14.86 104.98C14.7667 104.62 14.8067 104.38 14.98 104.26C15.0867 104.167 15.18 104.113 15.26 104.1ZM12.14 104.38C12.4067 104.313 12.6667 104.32 12.92 104.4C13.1733 104.467 13.36 104.567 13.48 104.7C13.56 104.82 13.6133 104.933 13.64 105.04C13.6533 105.16 13.66 105.573 13.66 106.28C13.6733 107.027 13.7 107.427 13.74 107.48C13.7667 107.547 13.7733 107.667 13.76 107.84C13.7467 108.093 13.72 108.613 13.68 109.4L13.64 110.7L13.5 110.86C13.4333 110.967 13.3267 111.053 13.18 111.12C13.0867 111.187 12.7067 111.22 12.04 111.22C11.3867 111.207 11 111.22 10.88 111.26C10.7333 111.287 10.62 111.293 10.54 111.28C10.4333 111.267 10.18 111.26 9.78 111.26C9.36667 111.26 9.09333 111.213 8.96 111.12C8.57333 110.933 8.37333 110.56 8.36 110C8.33333 109.64 8.31333 108.7 8.3 107.18C8.3 105.647 8.3 104.847 8.3 104.78C8.31333 104.687 8.37333 104.593 8.48 104.5C8.57333 104.42 8.64667 104.38 8.7 104.38C8.76667 104.367 9.01333 104.387 9.44 104.44C9.72 104.48 9.92667 104.48 10.06 104.44C10.18 104.427 10.3733 104.427 10.64 104.44C10.88 104.48 11.0867 104.48 11.26 104.44C11.4333 104.387 11.58 104.373 11.7 104.4C11.82 104.427 11.9667 104.42 12.14 104.38ZM12.14 105.68C12.1133 105.64 12.0133 105.62 11.84 105.62C11.68 105.62 11.5933 105.627 11.58 105.64C11.58 105.64 11.36 105.673 10.92 105.74C10.5067 105.793 10.2667 105.833 10.2 105.86C10.1467 105.887 10.08 105.9 10 105.9C9.90667 105.9 9.84 105.94 9.8 106.02C9.77333 106.1 9.74667 106.267 9.72 106.52C9.70667 106.867 9.7 107.06 9.7 107.1C9.7 107.113 9.7 107.18 9.7 107.3C9.71333 107.42 9.72 107.607 9.72 107.86C9.72 108.1 9.72 108.32 9.72 108.52C9.76 109.427 9.8 109.907 9.84 109.96C9.89333 110.013 10.1667 110.027 10.66 110C10.7133 109.987 10.86 110 11.1 110.04C11.5267 110.067 11.8333 109.987 12.02 109.8C12.0867 109.747 12.12 109.693 12.12 109.64C12.1333 109.573 12.16 109.373 12.2 109.04C12.28 107.707 12.3 106.827 12.26 106.4C12.22 106 12.18 105.76 12.14 105.68ZM23.5109 100.92C23.5909 100.893 23.6776 100.887 23.7709 100.9C23.7976 100.9 23.8576 100.913 23.9509 100.94C24.0576 100.953 24.1576 100.973 24.2509 101C24.3443 101.027 24.4243 101.053 24.4909 101.08C24.5576 101.107 24.6043 101.12 24.6309 101.12C24.6576 101.147 24.7243 101.18 24.8309 101.22C25.0709 101.3 25.3509 101.5 25.6709 101.82C25.8843 102.06 26.0776 102.353 26.2509 102.7C26.3443 102.873 26.3909 103.113 26.3909 103.42C26.3909 104.007 26.3776 104.367 26.3509 104.5C26.3376 104.62 26.2709 104.793 26.1509 105.02C25.9243 105.433 25.6243 105.767 25.2509 106.02C25.1309 106.087 24.9976 106.167 24.8509 106.26C24.7443 106.327 24.6509 106.367 24.5709 106.38C24.4643 106.42 24.3843 106.46 24.3309 106.5C24.2643 106.553 24.1243 106.6 23.9109 106.64C23.6976 106.667 23.5443 106.667 23.4509 106.64C23.3709 106.627 23.2243 106.607 23.0109 106.58C22.7976 106.553 22.6309 106.513 22.5109 106.46C22.3909 106.407 22.3243 106.38 22.3109 106.38C22.2176 106.38 22.0776 106.327 21.8909 106.22C21.7176 106.113 21.5309 105.98 21.3309 105.82C21.1309 105.647 20.9909 105.507 20.9109 105.4C20.8843 105.36 20.8376 105.293 20.7709 105.2C20.7043 105.107 20.6643 105.053 20.6509 105.04C20.5443 104.92 20.4709 104.753 20.4309 104.54C20.4176 104.34 20.3909 104.193 20.3509 104.1C20.2843 103.98 20.2709 103.787 20.3109 103.52C20.3643 103.253 20.4509 103.013 20.5709 102.8C20.6243 102.72 20.6576 102.64 20.6709 102.56C20.6843 102.44 20.7643 102.287 20.9109 102.1C21.0576 101.913 21.2043 101.767 21.3509 101.66C21.4709 101.567 21.5909 101.48 21.7109 101.4C21.8709 101.293 22.0176 101.233 22.1509 101.22C22.3109 101.193 22.4643 101.14 22.6109 101.06C22.7709 100.993 22.9376 100.967 23.1109 100.98C23.2843 100.993 23.4176 100.973 23.5109 100.92ZM24.9909 102.86C24.8976 102.713 24.7576 102.593 24.5709 102.5C24.3843 102.407 24.1109 102.36 23.7509 102.36C23.3909 102.347 23.1243 102.38 22.9509 102.46C22.5243 102.633 22.2376 102.793 22.0909 102.94C21.9443 103.073 21.8109 103.307 21.6909 103.64C21.6109 103.827 21.5909 104 21.6309 104.16C21.6709 104.333 21.7176 104.467 21.7709 104.56C21.7843 104.64 21.8309 104.72 21.9109 104.8C21.9909 104.867 22.0643 104.94 22.1309 105.02C22.2109 105.087 22.2776 105.12 22.3309 105.12C22.3976 105.133 22.4909 105.167 22.6109 105.22C22.8909 105.34 23.1176 105.36 23.2909 105.28C23.3443 105.24 23.4843 105.2 23.7109 105.16C23.9243 105.133 24.0709 105.087 24.1509 105.02C24.2443 104.94 24.2976 104.9 24.3109 104.9C24.3509 104.9 24.4576 104.787 24.6309 104.56C24.9509 104.187 25.1043 103.773 25.0909 103.32C25.0909 103.147 25.0576 102.993 24.9909 102.86ZM25.7909 107.46C25.9243 107.42 26.2109 107.393 26.6509 107.38C27.1043 107.38 27.3976 107.413 27.5309 107.48C27.8509 107.613 28.0109 107.833 28.0109 108.14C28.0109 108.34 27.8843 108.527 27.6309 108.7L27.4909 108.8L26.3909 108.76C25.6443 108.733 25.1643 108.733 24.9509 108.76C24.7109 108.787 24.4043 108.787 24.0309 108.76C23.6043 108.72 23.2643 108.72 23.0109 108.76C22.7443 108.787 22.5909 108.793 22.5509 108.78C22.5109 108.767 22.3576 108.773 22.0909 108.8C21.8376 108.84 21.6243 108.84 21.4509 108.8C21.2909 108.773 21.1109 108.773 20.9109 108.8C20.7376 108.84 20.4976 108.847 20.1909 108.82C19.8843 108.793 19.6509 108.747 19.4909 108.68C19.3043 108.613 19.1643 108.487 19.0709 108.3C18.9909 108.1 18.9843 107.92 19.0509 107.76C19.1043 107.64 19.1909 107.567 19.3109 107.54C19.4309 107.513 19.7376 107.513 20.2309 107.54C20.8043 107.553 21.3043 107.553 21.7309 107.54C23.5176 107.447 24.6109 107.42 25.0109 107.46C25.4109 107.487 25.6709 107.487 25.7909 107.46ZM20.4109 109.74C20.4643 109.713 20.5176 109.7 20.5709 109.7C20.7043 109.7 20.9176 109.76 21.2109 109.88C21.3709 109.947 21.6509 109.987 22.0509 110C23.1443 110.04 23.8776 110 24.2509 109.88C24.3709 109.827 24.5309 109.827 24.7309 109.88C24.9176 109.933 25.2109 109.947 25.6109 109.92C26.0243 109.92 26.3109 109.94 26.4709 109.98C26.8443 110.047 27.1109 110.247 27.2709 110.58C27.3376 110.727 27.3843 111.713 27.4109 113.54V114.48L27.2909 114.68C27.2243 114.827 27.1376 114.933 27.0309 115C26.9376 115.067 26.7509 115.1 26.4709 115.1C26.1909 115.1 26.0109 115.073 25.9309 115.02C25.7576 114.953 25.5576 114.96 25.3309 115.04C25.2109 115.08 24.5776 115.1 23.4309 115.1C22.2709 115.1 21.6376 115.08 21.5309 115.04C21.4109 115.027 21.3176 115.02 21.2509 115.02C20.9443 115.02 20.6909 114.913 20.4909 114.7C20.3443 114.607 20.2509 114.46 20.2109 114.26C20.0776 113.847 20.0309 112.587 20.0709 110.48C20.0709 110.213 20.1043 110.027 20.1709 109.92C20.2376 109.84 20.3176 109.78 20.4109 109.74ZM24.1309 111.18C23.9709 111.1 23.8243 111.1 23.6909 111.18C23.5976 111.233 23.3909 111.267 23.0709 111.28C22.7243 111.293 22.5109 111.32 22.4309 111.36C22.3509 111.387 22.1776 111.413 21.9109 111.44C21.6176 111.467 21.4509 111.52 21.4109 111.6C21.3709 111.667 21.3509 111.913 21.3509 112.34C21.3776 113.14 21.4576 113.587 21.5909 113.68C21.7376 113.773 22.2643 113.813 23.1709 113.8C23.7576 113.8 24.1176 113.773 24.2509 113.72C24.4109 113.68 24.7176 113.653 25.1709 113.64C25.6376 113.627 25.8776 113.593 25.8909 113.54C25.9576 113.433 25.9843 113.027 25.9709 112.32C25.9576 111.693 25.9243 111.36 25.8709 111.32C25.8309 111.28 25.5443 111.26 25.0109 111.26C24.4909 111.26 24.1976 111.233 24.1309 111.18ZM32.6413 101.3C33.0146 101.233 33.3479 101.267 33.6413 101.4C33.7879 101.453 33.8746 101.48 33.9013 101.48C33.9813 101.48 34.1679 101.613 34.4613 101.88C34.7546 102.147 34.9679 102.373 35.1013 102.56C35.2079 102.707 35.2946 102.867 35.3613 103.04L35.5013 103.3V104.06C35.5013 104.58 35.4746 104.88 35.4213 104.96C35.3679 105.08 35.3346 105.2 35.3213 105.32C35.2679 105.587 35.0679 105.907 34.7213 106.28C34.5213 106.48 34.2479 106.693 33.9013 106.92C33.7013 107.04 33.4679 107.14 33.2013 107.22C32.9613 107.287 32.5813 107.267 32.0613 107.16C31.5413 107.053 31.1413 106.893 30.8613 106.68C30.6213 106.507 30.3813 106.307 30.1413 106.08C29.9013 105.84 29.7813 105.693 29.7813 105.64C29.7813 105.573 29.6746 105.34 29.4613 104.94C29.4079 104.833 29.3746 104.58 29.3613 104.18C29.3613 103.78 29.3879 103.527 29.4413 103.42C29.5746 103.113 29.6613 102.927 29.7013 102.86C29.7146 102.82 29.7679 102.72 29.8613 102.56C29.9546 102.347 30.2213 102.073 30.6613 101.74L30.9613 101.5L31.3413 101.48C31.5679 101.467 31.7146 101.433 31.7813 101.38C31.8613 101.313 31.9879 101.287 32.1613 101.3C32.3613 101.313 32.5213 101.313 32.6413 101.3ZM33.4413 102.76C33.2546 102.68 33.0479 102.653 32.8213 102.68C32.2746 102.68 31.9279 102.747 31.7813 102.88C31.7413 102.92 31.6813 102.947 31.6013 102.96C31.3879 103.027 31.1946 103.16 31.0213 103.36C30.9413 103.427 30.8613 103.54 30.7813 103.7C30.7146 103.86 30.6813 103.987 30.6813 104.08C30.6813 104.493 30.7346 104.813 30.8413 105.04C31.0146 105.373 31.3679 105.633 31.9013 105.82C32.0479 105.887 32.1813 105.893 32.3013 105.84C32.3813 105.813 32.5079 105.787 32.6813 105.76C32.8413 105.747 33.0146 105.66 33.2013 105.5C33.4679 105.313 33.6346 105.173 33.7013 105.08C33.7679 104.987 33.9079 104.733 34.1213 104.32C34.1879 104.173 34.2146 103.973 34.2013 103.72C34.2013 103.453 34.1613 103.267 34.0813 103.16C33.9479 102.973 33.7346 102.84 33.4413 102.76ZM33.3813 108.22C33.3813 108.22 33.8879 108.207 34.9013 108.18C35.9146 108.18 36.4613 108.2 36.5413 108.24C36.6213 108.293 36.6946 108.333 36.7613 108.36C36.7879 108.387 36.8213 108.427 36.8613 108.48C36.9013 108.533 36.9346 108.587 36.9613 108.64C37.0013 108.68 37.0346 108.733 37.0613 108.8C37.0879 108.853 37.1013 108.9 37.1013 108.94C37.1013 109.153 36.9746 109.333 36.7213 109.48C36.6146 109.573 36.4813 109.62 36.3213 109.62C36.1746 109.62 36.0613 109.607 35.9813 109.58C35.9013 109.54 35.5279 109.52 34.8613 109.52C34.2079 109.52 33.8279 109.533 33.7213 109.56C33.6413 109.6 33.5013 109.6 33.3013 109.56C32.9279 109.493 32.3679 109.493 31.6213 109.56C31.2213 109.6 30.8546 109.627 30.5213 109.64C30.1613 109.68 29.9746 109.707 29.9613 109.72C29.9079 109.733 29.7213 109.72 29.4013 109.68C29.0813 109.64 28.8413 109.6 28.6813 109.56C28.4946 109.493 28.3546 109.4 28.2613 109.28C28.0879 109.067 28.0346 108.847 28.1013 108.62C28.1546 108.487 28.2346 108.413 28.3413 108.4C28.4613 108.373 28.7746 108.36 29.2813 108.36C29.8679 108.387 30.2679 108.38 30.4813 108.34C30.6679 108.287 31.1946 108.253 32.0613 108.24C32.9279 108.227 33.3679 108.22 33.3813 108.22ZM29.4813 110.22C29.6013 110.153 29.7479 110.153 29.9213 110.22C30.0946 110.273 30.2479 110.387 30.3813 110.56C30.5146 110.733 30.5879 110.92 30.6013 111.12C30.6413 111.267 30.6746 111.387 30.7013 111.48C30.7413 111.56 30.7679 111.86 30.7813 112.38C30.8079 112.9 30.8346 113.18 30.8613 113.22C30.8879 113.26 31.0946 113.273 31.4813 113.26C31.8813 113.26 32.1613 113.24 32.3213 113.2C32.4946 113.173 32.7013 113.16 32.9413 113.16C34.1279 113.133 35.0146 113.113 35.6013 113.1L36.2813 113.04L36.4213 113.18C36.7013 113.42 36.7479 113.707 36.5613 114.04C36.4679 114.2 36.3746 114.32 36.2813 114.4L36.1213 114.52L34.4813 114.56C33.7346 114.56 32.9879 114.56 32.2413 114.56C31.8413 114.56 31.5546 114.573 31.3813 114.6C30.9146 114.747 30.4946 114.747 30.1213 114.6C29.7879 114.48 29.5946 114.273 29.5413 113.98C29.4479 113.527 29.4013 113.147 29.4013 112.84C29.4013 112.227 29.3613 111.573 29.2813 110.88C29.2679 110.667 29.2746 110.52 29.3013 110.44C29.3279 110.347 29.3879 110.273 29.4813 110.22ZM48.9047 101.78C49.0114 101.687 49.1847 101.68 49.4247 101.76C49.678 101.827 49.858 101.947 49.9647 102.12L50.0847 102.3L50.1047 105.22V108.14L49.9247 108.28C49.818 108.387 49.6714 108.44 49.4847 108.44C49.3514 108.44 49.2647 108.433 49.2247 108.42C49.1847 108.407 49.1247 108.353 49.0447 108.26C48.898 108.127 48.8114 107.987 48.7847 107.84C48.7714 107.693 48.7514 107.56 48.7247 107.44C48.7114 107.307 48.718 107.167 48.7447 107.02C48.7847 106.86 48.778 106.66 48.7247 106.42C48.6714 106.18 48.6647 106.033 48.7047 105.98C48.718 105.927 48.7247 105.353 48.7247 104.26C48.738 103.167 48.738 102.533 48.7247 102.36C48.6847 102.133 48.7447 101.94 48.9047 101.78ZM43.5447 102C43.6647 101.933 43.798 101.933 43.9447 102C44.0114 102.027 44.198 102.053 44.5047 102.08C44.8247 102.093 45.0514 102.127 45.1847 102.18C45.238 102.193 45.3047 102.22 45.3847 102.26C45.4647 102.287 45.5114 102.3 45.5247 102.3C45.6047 102.34 45.6447 102.373 45.6447 102.4C45.6447 102.413 45.6914 102.433 45.7847 102.46C45.8914 102.513 46.058 102.667 46.2847 102.92C46.5114 103.173 46.6647 103.387 46.7447 103.56C46.838 103.747 46.8847 103.873 46.8847 103.94C46.8847 103.993 46.918 104.093 46.9847 104.24C47.0514 104.373 47.078 104.633 47.0647 105.02C47.0647 105.407 47.0447 105.64 47.0047 105.72C46.978 105.773 46.9447 105.893 46.9047 106.08C46.8514 106.28 46.7114 106.58 46.4847 106.98C46.3647 107.193 46.1714 107.407 45.9047 107.62C45.638 107.833 45.398 107.967 45.1847 108.02C45.1047 108.047 44.9914 108.093 44.8447 108.16C44.7114 108.227 44.458 108.253 44.0847 108.24C43.7247 108.2 43.4514 108.153 43.2647 108.1C43.0247 108.02 42.8447 107.947 42.7247 107.88C42.2314 107.56 41.898 107.273 41.7247 107.02C41.698 106.967 41.6514 106.9 41.5847 106.82C41.518 106.727 41.478 106.66 41.4647 106.62C41.3847 106.5 41.3247 106.373 41.2847 106.24C41.258 106.133 41.218 106.007 41.1647 105.86C41.1247 105.74 41.1047 105.533 41.1047 105.24C41.1047 104.933 41.1247 104.72 41.1647 104.6C41.218 104.493 41.258 104.327 41.2847 104.1C41.3247 103.873 41.358 103.733 41.3847 103.68C41.438 103.653 41.4714 103.593 41.4847 103.5C41.5247 103.42 41.578 103.333 41.6447 103.24C41.698 103.16 41.778 103.06 41.8847 102.94C41.938 102.86 42.018 102.773 42.1247 102.68C42.2314 102.573 42.3314 102.48 42.4247 102.4C42.5314 102.32 42.5914 102.28 42.6047 102.28C42.658 102.28 42.7114 102.247 42.7647 102.18C42.858 102.127 42.998 102.093 43.1847 102.08C43.3714 102.053 43.4914 102.027 43.5447 102ZM44.6047 103.32C44.4047 103.28 44.2847 103.26 44.2447 103.26C44.098 103.233 43.858 103.307 43.5247 103.48C43.4047 103.547 43.338 103.58 43.3247 103.58C43.2847 103.58 43.1847 103.64 43.0247 103.76C42.6514 104.08 42.4514 104.587 42.4247 105.28C42.4247 105.533 42.458 105.753 42.5247 105.94C42.7114 106.433 42.938 106.707 43.2047 106.76C43.3114 106.787 43.4114 106.82 43.5047 106.86C43.7314 106.98 43.9447 106.98 44.1447 106.86C44.2514 106.807 44.3714 106.773 44.5047 106.76C44.6514 106.733 44.7914 106.653 44.9247 106.52C45.058 106.387 45.1447 106.28 45.1847 106.2C45.238 106.12 45.3114 106.02 45.4047 105.9C45.5247 105.74 45.6114 105.533 45.6647 105.28C45.7314 105.013 45.7447 104.82 45.7047 104.7C45.6647 104.607 45.6314 104.46 45.6047 104.26C45.5914 104.073 45.538 103.913 45.4447 103.78C45.378 103.7 45.2847 103.613 45.1647 103.52C45.058 103.427 44.9847 103.38 44.9447 103.38C44.9314 103.38 44.818 103.36 44.6047 103.32ZM46.7247 108.88C46.858 108.813 47.0314 108.813 47.2447 108.88C47.3647 108.92 47.5647 108.953 47.8447 108.98C48.138 109.007 48.378 109.06 48.5647 109.14C48.9514 109.353 49.2114 109.54 49.3447 109.7C49.558 109.913 49.6914 110.073 49.7447 110.18C49.7447 110.207 49.758 110.253 49.7847 110.32C49.8247 110.373 49.8514 110.407 49.8647 110.42C49.9047 110.487 49.9247 110.553 49.9247 110.62C49.9247 110.673 49.9514 110.753 50.0047 110.86C50.0314 110.967 50.038 111.073 50.0247 111.18C49.9847 111.3 49.978 111.44 50.0047 111.6C50.0314 111.76 50.0314 111.893 50.0047 112C49.9647 112.107 49.9247 112.227 49.8847 112.36C49.8314 112.64 49.6714 112.947 49.4047 113.28C49.2847 113.44 49.1447 113.587 48.9847 113.72C48.8247 113.853 48.718 113.92 48.6647 113.92C48.6114 113.92 48.5514 113.947 48.4847 114C48.418 114.053 48.3447 114.087 48.2647 114.1C48.1847 114.127 48.098 114.167 48.0047 114.22C47.8447 114.3 47.6047 114.313 47.2847 114.26C46.6847 114.167 46.3314 114.08 46.2247 114C46.118 113.947 46.038 113.92 45.9847 113.92C45.8514 113.92 45.578 113.747 45.1647 113.4C44.818 113.133 44.618 112.893 44.5647 112.68C44.5514 112.6 44.5047 112.493 44.4247 112.36C44.3847 112.267 44.3647 112.133 44.3647 111.96C44.3647 111.787 44.3447 111.627 44.3047 111.48C44.2647 111.347 44.258 111.22 44.2847 111.1C44.3114 110.98 44.318 110.867 44.3047 110.76C44.2914 110.693 44.2914 110.607 44.3047 110.5C44.318 110.38 44.338 110.267 44.3647 110.16C44.4047 110.053 44.4447 109.987 44.4847 109.96C44.5514 109.867 44.5847 109.813 44.5847 109.8C44.5847 109.76 44.6647 109.68 44.8247 109.56C44.998 109.44 45.098 109.38 45.1247 109.38C45.1514 109.38 45.2047 109.353 45.2847 109.3C45.3647 109.247 45.4447 109.213 45.5247 109.2C45.6314 109.187 45.7447 109.14 45.8647 109.06C45.9847 108.993 46.1314 108.96 46.3047 108.96C46.478 108.96 46.618 108.933 46.7247 108.88ZM47.8447 110.22C47.4714 110.14 47.198 110.12 47.0247 110.16C46.878 110.173 46.7447 110.2 46.6247 110.24C46.278 110.307 45.9914 110.46 45.7647 110.7L45.6247 110.86V111.48V112.14L45.8447 112.36C46.1114 112.68 46.3447 112.84 46.5447 112.84C46.6247 112.84 46.738 112.853 46.8847 112.88C47.018 112.933 47.138 112.947 47.2447 112.92C47.3647 112.88 47.478 112.853 47.5847 112.84C47.8114 112.787 48.0314 112.647 48.2447 112.42C48.4714 112.193 48.6047 111.967 48.6447 111.74C48.658 111.62 48.6847 111.533 48.7247 111.48C48.7914 111.373 48.7714 111.173 48.6647 110.88C48.598 110.653 48.5047 110.5 48.3847 110.42C48.278 110.327 48.098 110.26 47.8447 110.22ZM57.975 101.78C58.0817 101.687 58.255 101.68 58.495 101.76C58.7483 101.827 58.9283 101.947 59.035 102.12L59.155 102.3L59.175 105.22V108.14L58.995 108.28C58.8883 108.387 58.7417 108.44 58.555 108.44C58.4217 108.44 58.335 108.433 58.295 108.42C58.255 108.407 58.195 108.353 58.115 108.26C57.9683 108.127 57.8817 107.987 57.855 107.84C57.8417 107.693 57.8217 107.56 57.795 107.44C57.7817 107.307 57.7883 107.167 57.815 107.02C57.855 106.86 57.8483 106.66 57.795 106.42C57.7417 106.18 57.735 106.033 57.775 105.98C57.7883 105.927 57.795 105.353 57.795 104.26C57.8083 103.167 57.8083 102.533 57.795 102.36C57.755 102.133 57.815 101.94 57.975 101.78ZM52.615 102C52.735 101.933 52.8683 101.933 53.015 102C53.0817 102.027 53.2683 102.053 53.575 102.08C53.895 102.093 54.1217 102.127 54.255 102.18C54.3083 102.193 54.375 102.22 54.455 102.26C54.535 102.287 54.5817 102.3 54.595 102.3C54.675 102.34 54.715 102.373 54.715 102.4C54.715 102.413 54.7617 102.433 54.855 102.46C54.9617 102.513 55.1283 102.667 55.355 102.92C55.5817 103.173 55.735 103.387 55.815 103.56C55.9083 103.747 55.955 103.873 55.955 103.94C55.955 103.993 55.9883 104.093 56.055 104.24C56.1217 104.373 56.1483 104.633 56.135 105.02C56.135 105.407 56.115 105.64 56.075 105.72C56.0483 105.773 56.015 105.893 55.975 106.08C55.9217 106.28 55.7817 106.58 55.555 106.98C55.435 107.193 55.2417 107.407 54.975 107.62C54.7083 107.833 54.4683 107.967 54.255 108.02C54.175 108.047 54.0617 108.093 53.915 108.16C53.7817 108.227 53.5283 108.253 53.155 108.24C52.795 108.2 52.5217 108.153 52.335 108.1C52.095 108.02 51.915 107.947 51.795 107.88C51.3017 107.56 50.9683 107.273 50.795 107.02C50.7683 106.967 50.7217 106.9 50.655 106.82C50.5883 106.727 50.5483 106.66 50.535 106.62C50.455 106.5 50.395 106.373 50.355 106.24C50.3283 106.133 50.2883 106.007 50.235 105.86C50.195 105.74 50.175 105.533 50.175 105.24C50.175 104.933 50.195 104.72 50.235 104.6C50.2883 104.493 50.3283 104.327 50.355 104.1C50.395 103.873 50.4283 103.733 50.455 103.68C50.5083 103.653 50.5417 103.593 50.555 103.5C50.595 103.42 50.6483 103.333 50.715 103.24C50.7683 103.16 50.8483 103.06 50.955 102.94C51.0083 102.86 51.0883 102.773 51.195 102.68C51.3017 102.573 51.4017 102.48 51.495 102.4C51.6017 102.32 51.6617 102.28 51.675 102.28C51.7283 102.28 51.7817 102.247 51.835 102.18C51.9283 102.127 52.0683 102.093 52.255 102.08C52.4417 102.053 52.5617 102.027 52.615 102ZM53.675 103.32C53.475 103.28 53.355 103.26 53.315 103.26C53.1683 103.233 52.9283 103.307 52.595 103.48C52.475 103.547 52.4083 103.58 52.395 103.58C52.355 103.58 52.255 103.64 52.095 103.76C51.7217 104.08 51.5217 104.587 51.495 105.28C51.495 105.533 51.5283 105.753 51.595 105.94C51.7817 106.433 52.0083 106.707 52.275 106.76C52.3817 106.787 52.4817 106.82 52.575 106.86C52.8017 106.98 53.015 106.98 53.215 106.86C53.3217 106.807 53.4417 106.773 53.575 106.76C53.7217 106.733 53.8617 106.653 53.995 106.52C54.1283 106.387 54.215 106.28 54.255 106.2C54.3083 106.12 54.3817 106.02 54.475 105.9C54.595 105.74 54.6817 105.533 54.735 105.28C54.8017 105.013 54.815 104.82 54.775 104.7C54.735 104.607 54.7017 104.46 54.675 104.26C54.6617 104.073 54.6083 103.913 54.515 103.78C54.4483 103.7 54.355 103.613 54.235 103.52C54.1283 103.427 54.055 103.38 54.015 103.38C54.0017 103.38 53.8883 103.36 53.675 103.32ZM55.795 108.88C55.9283 108.813 56.1017 108.813 56.315 108.88C56.435 108.92 56.635 108.953 56.915 108.98C57.2083 109.007 57.4483 109.06 57.635 109.14C58.0217 109.353 58.2817 109.54 58.415 109.7C58.6283 109.913 58.7617 110.073 58.815 110.18C58.815 110.207 58.8283 110.253 58.855 110.32C58.895 110.373 58.9217 110.407 58.935 110.42C58.975 110.487 58.995 110.553 58.995 110.62C58.995 110.673 59.0217 110.753 59.075 110.86C59.1017 110.967 59.1083 111.073 59.095 111.18C59.055 111.3 59.0483 111.44 59.075 111.6C59.1017 111.76 59.1017 111.893 59.075 112C59.035 112.107 58.995 112.227 58.955 112.36C58.9017 112.64 58.7417 112.947 58.475 113.28C58.355 113.44 58.215 113.587 58.055 113.72C57.895 113.853 57.7883 113.92 57.735 113.92C57.6817 113.92 57.6217 113.947 57.555 114C57.4883 114.053 57.415 114.087 57.335 114.1C57.255 114.127 57.1683 114.167 57.075 114.22C56.915 114.3 56.675 114.313 56.355 114.26C55.755 114.167 55.4017 114.08 55.295 114C55.1883 113.947 55.1083 113.92 55.055 113.92C54.9217 113.92 54.6483 113.747 54.235 113.4C53.8883 113.133 53.6883 112.893 53.635 112.68C53.6217 112.6 53.575 112.493 53.495 112.36C53.455 112.267 53.435 112.133 53.435 111.96C53.435 111.787 53.415 111.627 53.375 111.48C53.335 111.347 53.3283 111.22 53.355 111.1C53.3817 110.98 53.3883 110.867 53.375 110.76C53.3617 110.693 53.3617 110.607 53.375 110.5C53.3883 110.38 53.4083 110.267 53.435 110.16C53.475 110.053 53.515 109.987 53.555 109.96C53.6217 109.867 53.655 109.813 53.655 109.8C53.655 109.76 53.735 109.68 53.895 109.56C54.0683 109.44 54.1683 109.38 54.195 109.38C54.2217 109.38 54.275 109.353 54.355 109.3C54.435 109.247 54.515 109.213 54.595 109.2C54.7017 109.187 54.815 109.14 54.935 109.06C55.055 108.993 55.2017 108.96 55.375 108.96C55.5483 108.96 55.6883 108.933 55.795 108.88ZM56.915 110.22C56.5417 110.14 56.2683 110.12 56.095 110.16C55.9483 110.173 55.815 110.2 55.695 110.24C55.3483 110.307 55.0617 110.46 54.835 110.7L54.695 110.86V111.48V112.14L54.915 112.36C55.1817 112.68 55.415 112.84 55.615 112.84C55.695 112.84 55.8083 112.853 55.955 112.88C56.0883 112.933 56.2083 112.947 56.315 112.92C56.435 112.88 56.5483 112.853 56.655 112.84C56.8817 112.787 57.1017 112.647 57.315 112.42C57.5417 112.193 57.675 111.967 57.715 111.74C57.7283 111.62 57.755 111.533 57.795 111.48C57.8617 111.373 57.8417 111.173 57.735 110.88C57.6683 110.653 57.575 110.5 57.455 110.42C57.3483 110.327 57.1683 110.26 56.915 110.22ZM67.0453 101.78C67.152 101.687 67.3253 101.68 67.5653 101.76C67.8186 101.827 67.9986 101.947 68.1053 102.12L68.2253 102.3L68.2453 105.22V108.14L68.0653 108.28C67.9586 108.387 67.812 108.44 67.6253 108.44C67.492 108.44 67.4053 108.433 67.3653 108.42C67.3253 108.407 67.2653 108.353 67.1853 108.26C67.0386 108.127 66.952 107.987 66.9253 107.84C66.912 107.693 66.892 107.56 66.8653 107.44C66.852 107.307 66.8586 107.167 66.8853 107.02C66.9253 106.86 66.9186 106.66 66.8653 106.42C66.812 106.18 66.8053 106.033 66.8453 105.98C66.8586 105.927 66.8653 105.353 66.8653 104.26C66.8786 103.167 66.8786 102.533 66.8653 102.36C66.8253 102.133 66.8853 101.94 67.0453 101.78ZM61.6853 102C61.8053 101.933 61.9386 101.933 62.0853 102C62.152 102.027 62.3386 102.053 62.6453 102.08C62.9653 102.093 63.192 102.127 63.3253 102.18C63.3786 102.193 63.4453 102.22 63.5253 102.26C63.6053 102.287 63.652 102.3 63.6653 102.3C63.7453 102.34 63.7853 102.373 63.7853 102.4C63.7853 102.413 63.832 102.433 63.9253 102.46C64.032 102.513 64.1986 102.667 64.4253 102.92C64.652 103.173 64.8053 103.387 64.8853 103.56C64.9786 103.747 65.0253 103.873 65.0253 103.94C65.0253 103.993 65.0586 104.093 65.1253 104.24C65.192 104.373 65.2186 104.633 65.2053 105.02C65.2053 105.407 65.1853 105.64 65.1453 105.72C65.1186 105.773 65.0853 105.893 65.0453 106.08C64.992 106.28 64.852 106.58 64.6253 106.98C64.5053 107.193 64.312 107.407 64.0453 107.62C63.7786 107.833 63.5386 107.967 63.3253 108.02C63.2453 108.047 63.132 108.093 62.9853 108.16C62.852 108.227 62.5986 108.253 62.2253 108.24C61.8653 108.2 61.592 108.153 61.4053 108.1C61.1653 108.02 60.9853 107.947 60.8653 107.88C60.372 107.56 60.0386 107.273 59.8653 107.02C59.8386 106.967 59.792 106.9 59.7253 106.82C59.6586 106.727 59.6186 106.66 59.6053 106.62C59.5253 106.5 59.4653 106.373 59.4253 106.24C59.3986 106.133 59.3586 106.007 59.3053 105.86C59.2653 105.74 59.2453 105.533 59.2453 105.24C59.2453 104.933 59.2653 104.72 59.3053 104.6C59.3586 104.493 59.3986 104.327 59.4253 104.1C59.4653 103.873 59.4986 103.733 59.5253 103.68C59.5786 103.653 59.612 103.593 59.6253 103.5C59.6653 103.42 59.7186 103.333 59.7853 103.24C59.8386 103.16 59.9186 103.06 60.0253 102.94C60.0786 102.86 60.1586 102.773 60.2653 102.68C60.372 102.573 60.472 102.48 60.5653 102.4C60.672 102.32 60.732 102.28 60.7453 102.28C60.7986 102.28 60.852 102.247 60.9053 102.18C60.9986 102.127 61.1386 102.093 61.3253 102.08C61.512 102.053 61.632 102.027 61.6853 102ZM62.7453 103.32C62.5453 103.28 62.4253 103.26 62.3853 103.26C62.2386 103.233 61.9986 103.307 61.6653 103.48C61.5453 103.547 61.4786 103.58 61.4653 103.58C61.4253 103.58 61.3253 103.64 61.1653 103.76C60.792 104.08 60.592 104.587 60.5653 105.28C60.5653 105.533 60.5986 105.753 60.6653 105.94C60.852 106.433 61.0786 106.707 61.3453 106.76C61.452 106.787 61.552 106.82 61.6453 106.86C61.872 106.98 62.0853 106.98 62.2853 106.86C62.392 106.807 62.512 106.773 62.6453 106.76C62.792 106.733 62.932 106.653 63.0653 106.52C63.1986 106.387 63.2853 106.28 63.3253 106.2C63.3786 106.12 63.452 106.02 63.5453 105.9C63.6653 105.74 63.752 105.533 63.8053 105.28C63.872 105.013 63.8853 104.82 63.8453 104.7C63.8053 104.607 63.772 104.46 63.7453 104.26C63.732 104.073 63.6786 103.913 63.5853 103.78C63.5186 103.7 63.4253 103.613 63.3053 103.52C63.1986 103.427 63.1253 103.38 63.0853 103.38C63.072 103.38 62.9586 103.36 62.7453 103.32ZM64.8653 108.88C64.9986 108.813 65.172 108.813 65.3853 108.88C65.5053 108.92 65.7053 108.953 65.9853 108.98C66.2786 109.007 66.5186 109.06 66.7053 109.14C67.092 109.353 67.352 109.54 67.4853 109.7C67.6986 109.913 67.832 110.073 67.8853 110.18C67.8853 110.207 67.8986 110.253 67.9253 110.32C67.9653 110.373 67.992 110.407 68.0053 110.42C68.0453 110.487 68.0653 110.553 68.0653 110.62C68.0653 110.673 68.092 110.753 68.1453 110.86C68.172 110.967 68.1786 111.073 68.1653 111.18C68.1253 111.3 68.1186 111.44 68.1453 111.6C68.172 111.76 68.172 111.893 68.1453 112C68.1053 112.107 68.0653 112.227 68.0253 112.36C67.972 112.64 67.812 112.947 67.5453 113.28C67.4253 113.44 67.2853 113.587 67.1253 113.72C66.9653 113.853 66.8586 113.92 66.8053 113.92C66.752 113.92 66.692 113.947 66.6253 114C66.5586 114.053 66.4853 114.087 66.4053 114.1C66.3253 114.127 66.2386 114.167 66.1453 114.22C65.9853 114.3 65.7453 114.313 65.4253 114.26C64.8253 114.167 64.472 114.08 64.3653 114C64.2586 113.947 64.1786 113.92 64.1253 113.92C63.992 113.92 63.7186 113.747 63.3053 113.4C62.9586 113.133 62.7586 112.893 62.7053 112.68C62.692 112.6 62.6453 112.493 62.5653 112.36C62.5253 112.267 62.5053 112.133 62.5053 111.96C62.5053 111.787 62.4853 111.627 62.4453 111.48C62.4053 111.347 62.3986 111.22 62.4253 111.1C62.452 110.98 62.4586 110.867 62.4453 110.76C62.432 110.693 62.432 110.607 62.4453 110.5C62.4586 110.38 62.4786 110.267 62.5053 110.16C62.5453 110.053 62.5853 109.987 62.6253 109.96C62.692 109.867 62.7253 109.813 62.7253 109.8C62.7253 109.76 62.8053 109.68 62.9653 109.56C63.1386 109.44 63.2386 109.38 63.2653 109.38C63.292 109.38 63.3453 109.353 63.4253 109.3C63.5053 109.247 63.5853 109.213 63.6653 109.2C63.772 109.187 63.8853 109.14 64.0053 109.06C64.1253 108.993 64.272 108.96 64.4453 108.96C64.6186 108.96 64.7586 108.933 64.8653 108.88ZM65.9853 110.22C65.612 110.14 65.3386 110.12 65.1653 110.16C65.0186 110.173 64.8853 110.2 64.7653 110.24C64.4186 110.307 64.132 110.46 63.9053 110.7L63.7653 110.86V111.48V112.14L63.9853 112.36C64.252 112.68 64.4853 112.84 64.6853 112.84C64.7653 112.84 64.8786 112.853 65.0253 112.88C65.1586 112.933 65.2786 112.947 65.3853 112.92C65.5053 112.88 65.6186 112.853 65.7253 112.84C65.952 112.787 66.172 112.647 66.3853 112.42C66.612 112.193 66.7453 111.967 66.7853 111.74C66.7986 111.62 66.8253 111.533 66.8653 111.48C66.932 111.373 66.912 111.173 66.8053 110.88C66.7386 110.653 66.6453 110.5 66.5253 110.42C66.4186 110.327 66.2386 110.26 65.9853 110.22Z" fill="#1A1C20"/>
</svg>
