<svg width="105" height="160" viewBox="0 0 243 426" fill="none" xmlns="http://www.w3.org/2000/svg">
<rect width="243" height="426" rx="15.6" fill="#F1F1F2"/>
<path d="M165.532 139.372C165.071 132.66 165.658 124.352 163.918 117.74C163.872 117.566 163.118 116.948 162.949 116.852C158.422 114.265 150.94 114.033 145.918 113.26C136.793 111.856 127.353 112.493 118.151 112.493C108.316 112.493 98.4903 112.224 88.6894 113.058C82.7907 113.56 77.4274 113.217 72.2231 116.529C68.1672 119.11 67.4136 125.567 66.1693 129.767C65.6119 131.648 64.2889 135.98 66.4115 137.193C70.8962 139.755 80.3042 139.372 85.1378 139.372C110 139.372 184.582 140.099 159.72 140.099" stroke="white" stroke-width="2.44316" stroke-linecap="round"/>
<path d="M85.6214 116.852C82.132 119.84 74.1846 126.607 70.3658 130.008C69.1014 131.135 65.1613 133.273 66.8143 133.641C68.734 134.067 77.1009 128.463 78.8008 127.708C83.0342 125.826 89.5074 120.738 94.3388 120.484C97.0967 120.339 95.5172 120.575 92.8052 122.986C92.1107 123.603 76.6379 137.015 76.6618 137.031C77.8257 137.807 84.5161 133.889 85.0563 133.641C93.3895 129.809 101.711 125.955 109.877 121.775C110.795 121.306 119.815 115.061 115.89 119.435C111.343 124.501 105.851 128.668 101.402 133.802C96.338 139.645 115.226 126.806 121.702 122.582C122.565 122.019 131.691 116.342 129.612 119.838C126.3 125.409 120.178 130.322 117.666 136.224C117.444 136.745 128.726 130.512 130.298 129.645C133.298 127.992 136.577 126.854 139.742 125.569C142.108 124.609 146.901 121.731 149.63 122.26C149.645 122.263 142.373 132.067 141.679 133.802C141.191 135.023 153.258 131.231 155.038 130.654C158.446 129.55 160.611 128.235 159.356 132.753C158.203 136.903 163.286 135.583 166.258 135.739" stroke="white" stroke-width="2.44316" stroke-linecap="round"/>
<path d="M117.586 67.4529C112.435 71.4231 106.249 74.2774 111.814 79.843C115.465 83.4933 119.073 82.53 123.236 79.8026C128.056 76.6446 129.877 70.2305 123.801 67.4529C121.021 66.182 118.446 69.5251 116.133 70.6816C115.116 71.1902 112.502 74.7175 115.003 74.7175C117.74 74.7175 120.431 73.775 122.913 72.6995C124.158 72.16 125.933 70.7159 123.72 72.5381C121.91 74.0285 119.765 74.9664 119.765 77.6233" stroke="white" stroke-width="2.44316" stroke-linecap="round"/>
<path d="M130.661 185.865C127.22 182.465 123.379 177.147 117.949 177.147C115.95 177.147 113.356 177.978 113.227 180.376C113.151 181.766 113.083 183.377 113.59 184.695C114.548 187.186 107.152 184.849 106.648 184.775C98.4381 183.58 88.5061 180.53 84.9756 189.86C83.7243 193.167 85.5371 193.754 85.6213 196.197C85.7455 199.797 83.0571 207.084 86.3478 209.676C86.9034 210.114 88.4464 210.352 88.4464 211.17C88.4464 214.965 87.0456 218.824 86.7917 222.632C86.6477 224.792 85.6337 231.16 88.8097 231.954C92.563 232.893 97.2511 232.543 101.038 231.954C103.177 231.622 103.424 230.59 104.267 232.439C105.645 235.459 106.976 237.575 110.401 238.17C117.634 239.424 122.473 239.183 125.213 232.439C126.321 229.711 127.783 229.624 130.5 228.968C136.289 227.569 141.712 225.547 145.836 221.058C147.276 219.49 149.418 216.309 148.661 213.954C148.084 212.158 146.268 213.315 147.128 210.484C148.806 204.959 153.384 196.777 149.872 191.031C148.493 188.774 144.869 190.346 143.738 188.367C142.691 186.535 136.765 185.281 135.747 187.318" stroke="white" stroke-width="2.44316" stroke-linecap="round"/>
<path d="M105.962 186.591C104.9 187.532 99.9695 190.863 104.832 190.425C110.693 189.899 116.533 188.077 122.267 186.834C123.572 186.551 127.207 185.607 126.263 186.551C123.997 188.816 121.417 190.85 118.958 192.887C112.022 198.632 103.059 204.034 97.5676 211.291C96.6194 212.544 96.2715 213.774 98.3748 213.43C106.118 212.163 114.012 208.59 121.46 206.246C126.548 204.645 133.322 201.392 138.814 201.12C141.331 200.996 135.832 205.238 133.931 206.892C126.775 213.117 120.22 219.649 114.034 226.829C113.341 227.633 109.772 230.88 109.675 232.277C109.528 234.406 113.854 231.382 115.89 230.744C122.51 228.667 130.115 226.936 135.747 222.914" stroke="white" stroke-width="2.44316" stroke-linecap="round"/>
<path d="M101.604 149.542C106.239 149.392 101.644 148.263 99.8683 149.219C98.4278 149.994 98.5689 152.079 100.474 151.56C102.579 150.985 102.418 148.661 101.684 149.945C101.079 151.006 104.649 150.268 105.236 150.268" stroke="#2C2C2C" stroke-width="2.44316" stroke-linecap="round"/>
<path d="M129.935 149.542C132.281 150.813 132.304 148.777 130.903 148.977C129.084 149.237 125.973 150.204 125.697 152.408C125.377 154.973 129.281 151.973 129.773 151.399C131.633 149.229 123.205 154.543 121.944 155.354" stroke="#2C2C2C" stroke-width="2.44316" stroke-linecap="round"/>
<path d="M111.773 156.081C111.993 162.55 111.115 171.87 119.603 172.063C121.812 172.113 123.517 171.382 125.576 170.61" stroke="#2C2C2C" stroke-width="2.44316" stroke-linecap="round"/>
<path d="M71.819 140.825C69.026 142.99 65.7214 145.095 63.9087 148.251C63.0066 149.821 63.4182 151.805 62.1733 153.174C60.0755 155.482 56.769 156.249 54.5456 158.421C52.1521 160.759 51.5681 163.204 51.9223 166.533C52.295 170.037 55.3819 171.671 52.4469 174.322C47.6702 178.637 45.4677 185.456 53.3348 187.479C54.5433 187.79 55.0479 187.523 54.5859 187.842C51.7144 189.83 49.1797 192.764 48.6532 196.318C48.3186 198.576 49.0387 201.195 50.1868 203.138C50.6739 203.963 53.5925 205.93 53.4155 206.771C52.3035 212.053 44.0592 219.392 53.8191 221.138C58.2688 221.934 62.3512 221.229 66.532 219.766C68.0984 219.218 67.4901 221.106 68.5903 221.421C75.7757 223.474 77.6306 220.008 77.6306 214.197" stroke="white" stroke-width="2.44316" stroke-linecap="round"/>
<path d="M86.348 140.825C84.6098 147.254 81.8465 154.426 81.3435 161.166C81.1941 163.168 82.5287 163.375 83.765 164.556C85.9516 166.644 88.9447 170.531 88.3659 173.838C87.76 177.301 83.6756 177.994 88.5273 178.601" stroke="white" stroke-width="2.44316" stroke-linecap="round"/>
<path d="M148.096 144.457C149.032 147.979 154.34 159.03 150.518 162.214C148.165 164.175 146.841 166.078 146.24 169.156C145.928 170.755 145.05 175.5 146.079 176.986C146.556 177.675 150.431 177.147 151.002 177.147" stroke="white" stroke-width="2.44316" stroke-linecap="round"/>
<path d="M166.258 143.73C169.704 151.89 172.741 162.205 178.567 169.197C180.546 171.571 183.927 172.04 186.155 174.322C189.074 177.312 192.749 182.392 188.415 185.784C186.47 187.306 185.022 186.662 185.509 189.295C186.41 194.16 187.293 200.606 184.258 204.874C181.898 208.193 173.901 210.761 170.052 209.111C167.761 208.129 168.744 209.34 166.339 211.614C164.135 213.696 157.152 218.923 153.747 216.779C150.476 214.72 147.709 209.81 145.191 206.932" stroke="white" stroke-width="2.44316" stroke-linecap="round"/>
<path d="M148.823 180.78L143.011 185.865" stroke="white" stroke-width="2.44316" stroke-linecap="round"/>
<path d="M82.7159 143.004C78.1567 152.012 72.4797 158.379 64.5546 164.758C61.6079 167.129 57.2989 169.445 54.9492 172.466C54.6185 172.891 56.0398 172.673 56.5636 172.547C60.7235 171.543 64.8396 170.348 68.994 169.318C71.9417 168.588 79.0945 165.342 78.0343 168.188C76.0756 173.446 68.6439 178.404 64.6757 182.112C63.6885 183.034 60.8502 185.573 62.1734 185.3C67.9095 184.119 73.3929 182.396 79.2451 181.668C79.5703 181.627 88.9725 179.8 86.9939 182.475C82.7233 188.248 76.2504 192.855 70.4873 196.964C69.1084 197.947 52.1987 207.96 61.7295 206.609C64.6742 206.192 83.4865 201.039 79.0433 207.982C76.4541 212.027 73.8776 212.493 80.5366 212.017" stroke="white" stroke-width="2.44316" stroke-linecap="round"/>
<path d="M161.173 145.183C163.593 146.329 168.052 147.617 165.693 150.995C163.907 153.55 161.426 155.628 159.518 158.098C158.284 159.694 157.511 161.447 160.446 161.004C162.063 160.76 163.797 159.911 165.451 160.035C167.143 160.162 161.686 165.754 161.495 165.968C159.271 168.464 157.298 171.148 155.119 173.676C152.671 176.515 166.856 172.156 168.437 171.9C175.47 170.763 167.015 178.637 165.612 180.376C162.022 184.825 158.04 188.981 155.199 193.977C154.838 194.613 152.639 197.493 154.796 197.044C159.893 195.982 164.803 192.731 169.406 190.465C169.604 190.368 175.937 186.585 176.832 187.479C177.72 188.367 170.995 197.109 170.415 198.012C168.886 200.391 162.436 207.324 168.437 204.752" stroke="white" stroke-width="2.44316" stroke-linecap="round"/>
<path d="M107.415 168.43C106.931 169.029 100.329 175.754 101.361 177.147C102.163 178.229 105.613 177.791 106.689 177.874" stroke="#2C2C2C" stroke-width="2.44316" stroke-linecap="round"/>
<path d="M135.02 169.156C135.873 172.511 136.581 175.478 135.02 178.6" stroke="#2C2C2C" stroke-width="2.44316" stroke-linecap="round"/>
<path d="M110.32 77.6233C104.348 83.9578 97.679 90.0489 92.4818 97.0761C89.7513 100.768 87.4677 104.776 84.6118 108.376C83.6929 109.535 81.2657 113.216 82.3114 112.17C84.9854 109.496 87.102 106.007 89.5759 103.13C92.9688 99.1847 97.1497 95.5279 100.15 91.2645C101.175 89.8084 103.056 88.1492 103.056 86.3407" stroke="#EA5666" stroke-width="2.44316" stroke-linecap="round"/>
<path d="M127.755 76.897C133.56 88.0703 138.239 100.044 143.737 111.04" stroke="#EA5666" stroke-width="2.44316" stroke-linecap="round"/>
<path d="M112.5 84.1611C111.804 84.5905 95.1817 93.3435 104.509 91.7889C108.668 91.0957 112.761 90.6992 116.98 90.6992C119.522 90.6992 121.682 89.9439 124.123 89.2463C134.318 86.3336 105.174 98.7917 95.4284 102.968C93.217 103.916 88.8022 106.84 93.9352 105.834C102.397 104.175 110.771 102.221 119.119 100.062C121.183 99.5289 124.099 98.0862 126.303 97.9638C130.726 97.718 126.221 101.214 124.769 102.726C121.516 106.114 129.148 103.557 130.5 104.663C131.816 105.74 128.405 107.408 131.388 107.408" stroke="#EA5666" stroke-width="2.44316" stroke-linecap="round"/>
<path d="M91.4326 158.986V162.618" stroke="#EA5666" stroke-width="2.44316" stroke-linecap="round"/>
<path d="M96.5181 160.439C97.2148 162.39 98.9159 163.919 100.15 165.524" stroke="#EA5666" stroke-width="2.44316" stroke-linecap="round"/>
<path d="M136.473 158.26C135.199 160.297 135.02 161.117 135.02 162.618" stroke="#EA5666" stroke-width="2.44316" stroke-linecap="round"/>
<path d="M145.917 158.986L143.011 165.524" stroke="#EA5666" stroke-width="2.44316" stroke-linecap="round"/>
<path d="M64.5541 221.461C56.4359 249.105 47.8457 274.88 47.8457 303.55" stroke="#EA5666" stroke-width="2.44316" stroke-linecap="round"/>
<path d="M175.701 212.017V212.744" stroke="#EA5666" stroke-width="2.44316" stroke-linecap="round"/>
<path d="M172.796 212.018C177.131 225.916 182.802 239.963 182.966 254.717C183.041 261.432 182.921 268.054 182.24 274.735C181.63 280.714 181.513 286.658 181.513 292.654" stroke="#EA5666" stroke-width="2.44316" stroke-linecap="round"/>
<path d="M75.4504 225.82C73.5284 229.664 67.0808 241.837 65.5222 247.129C63.696 253.329 69.8771 248.605 71.4145 247.694C79.907 242.662 88.6937 238.011 97.4861 233.528C100.397 232.044 98.0047 234.148 97.0825 235.425C93.0604 240.994 87.9715 246.006 83.4414 251.165C77.8366 257.548 70.918 262.939 66.5715 270.295C65.0582 272.856 62.1422 275.371 66.4908 272.716C74.4707 267.846 82.0631 262.241 89.6969 256.856C97.2968 251.494 103.993 245.072 111.45 239.622C112.962 238.518 104.948 250.176 104.266 251.004C96.8814 259.971 88.5751 268.142 80.6163 276.591C78.7849 278.535 76.6433 280.516 75.6118 283.048C74.8162 285.001 78.1304 281.909 78.6791 281.595C91.2553 274.409 104.34 268.304 116.455 260.286C125.708 254.162 133.856 247.068 141.8 239.38C145.688 235.618 149.937 232.353 154.392 229.291C155.059 228.832 161.568 225.54 161.454 225.901C160.004 230.494 153.658 235.018 150.598 238.412C139.935 250.236 129.941 262.656 119.522 274.694C119.491 274.729 112.822 282.396 112.298 283.008C111.137 284.362 107.405 286.507 109.029 287.246C110.787 288.045 112.606 285.79 114.396 285.066C120.701 282.519 126.99 279.93 133.163 277.075C142.694 272.668 150.937 267.83 158.831 261.012C160.208 259.823 161.671 258.777 163.19 257.784C167.348 255.065 162.216 262.473 161.454 264.12C158.99 269.447 156.052 274.464 153.342 279.658C152.001 282.23 156.399 280.431 157.54 280.142C161.868 279.045 165.877 276.797 170.131 275.703C170.93 275.498 170.631 279.058 170.616 279.577C170.514 283.136 169.683 282.483 174.975 282.483" stroke="#EA5666" stroke-width="2.44316" stroke-linecap="round"/>
<path d="M137.199 302.824C128.755 303.402 112.124 304.506 102.975 305.245C99.2375 305.547 94.7384 304.445 91.8362 306.819C90.4615 307.944 89.5087 309.667 88.5672 311.138C85.2003 316.399 81.0355 321.023 77.63 326.232C76.296 328.272 75.1104 328.914 77.6704 330.066C83.7869 332.818 92.6398 331.156 99.02 331.156C107.737 331.156 116.455 331.156 125.172 331.156C127.919 331.156 129.506 331.69 130.823 329.057C134.473 321.757 136.353 313.637 139.944 306.456C140.807 304.729 141.402 302.566 141.921 305.891C142.704 310.899 143.011 316.168 143.011 321.227C143.011 326.853 142.284 332.385 142.284 338.017C142.284 343.268 143.64 349.258 140.105 353.514C139.432 354.324 136.197 359.365 134.657 358.68C132.129 357.557 131.508 351.621 131.226 349.398C130.62 344.618 129.935 340.311 129.935 335.514" stroke="#4ECEAD" stroke-width="2.44316" stroke-linecap="round"/>
<path d="M76.9038 331.882C77.3523 339.655 78.5655 347.363 79.0832 355.129C79.1423 356.015 78.8968 356.913 79.4868 357.671C81.1548 359.816 85.6002 359.977 87.962 360.617C92.7365 361.912 96.8515 361.116 101.724 360.981C111.687 360.704 121.638 359.487 131.388 359.487" stroke="#4ECEAD" stroke-width="2.44316" stroke-linecap="round"/>
<path d="M97.9708 306.456C97.768 306.741 86.168 320.751 94.9843 315.819C98.3347 313.945 101.476 311.684 104.751 309.684C107.194 308.194 106.728 309.818 105.639 311.541C102.838 315.972 98.3733 319.402 94.7421 323.124C91.3724 326.578 95.5317 322.35 95.9125 321.994C99.4128 318.722 102.912 315.339 106.85 312.59C109.048 311.056 114.577 307.205 110.643 313.155C107.918 317.278 98.4307 328.587 102.087 325.263C106.752 321.023 113.613 318.164 118.796 314.568C118.854 314.528 126.136 308.712 126.787 309.2C126.967 309.335 121.934 315.856 121.782 316.061C119.167 319.597 120.762 317.448 118.392 320.581C118.019 321.075 116.725 322.067 117.343 322.115C119.559 322.285 124.157 317.901 125.859 316.586C126.813 315.848 125.141 319.53 124.85 320.258" stroke="#4ECEAD" stroke-width="2.44316" stroke-linecap="round"/>
<path d="M85.6211 338.42C85.6705 338.417 104.655 336.466 103.54 339.066C102.2 342.194 97.5818 345.34 95.1457 347.622C94.1863 348.521 88.4157 353.463 92.4013 350.447C96.3348 347.47 100.608 344.85 104.67 342.052C107.533 340.081 112.273 335.471 115.89 334.869C119.324 334.296 111.958 340.634 109.675 343.263C107.262 346.041 105.37 348.094 102.895 350.77C102.319 351.392 99.2572 354.001 98.9798 355.25C98.5273 357.286 102.629 353.223 104.388 352.102C108.201 349.67 112.102 347.392 115.809 344.797C122.55 340.079 114.284 349.875 112.944 351.738C101.944 367.031 120.491 345.903 120.491 351.496" stroke="#4ECEAD" stroke-width="2.44316" stroke-linecap="round"/>
<path d="M139.379 323.165C137.502 328.029 134.604 333.593 133.688 338.824C133.408 340.427 135.209 337.854 135.625 338.339C136.551 339.419 135.175 344.293 135.02 345.685" stroke="#4ECEAD" stroke-width="2.44316" stroke-linecap="round"/>
<path d="M163.352 72.5384L189.504 71.0854" stroke="#FFDB45" stroke-width="2.44316" stroke-linecap="round"/>
<path d="M177.154 62.3677L180.06 87.0671" stroke="#FFDB45" stroke-width="2.44316" stroke-linecap="round"/>
<path d="M185.145 63.8206L169.163 84.1613" stroke="#FFDB45" stroke-width="2.44316" stroke-linecap="round"/>
<path d="M172.796 68.9058L195.316 88.52" stroke="#FFDB45" stroke-width="2.44316" stroke-linecap="round"/>
<path d="M38.4019 103.775L55.1103 104.502" stroke="#FFDB45" stroke-width="2.44316" stroke-linecap="round"/>
<path d="M53.6572 90.6992C50.1011 100.227 45.2952 108.606 40.5811 117.578" stroke="#FFDB45" stroke-width="2.44316" stroke-linecap="round"/>
<path d="M41.3071 95.0581L52.2039 115.399" stroke="#FFDB45" stroke-width="2.44316" stroke-linecap="round"/>
<path d="M188.778 150.268L203.307 151.721" stroke="#FFDB45" stroke-width="2.44316" stroke-linecap="round"/>
<path d="M203.307 145.183L193.136 157.533" stroke="#FFDB45" stroke-width="2.44316" stroke-linecap="round"/>
<path d="M191.684 142.278L200.401 157.533" stroke="#FFDB45" stroke-width="2.44316" stroke-linecap="round"/>
<path d="M107.415 315.173C107.092 315.018 95.1482 308.555 95.953 311.864C96.3699 313.578 97.8271 316.402 99.1009 317.676C100.273 318.848 105.028 319.31 105.962 317.676C107.207 315.496 116.859 308.553 116.859 314.124C116.859 316.811 115.915 319.532 112.5 319.532C109.379 319.532 109.964 315.53 107.253 318.241C104.58 320.914 104.538 321.621 103.621 324.779C102.855 327.417 102.33 330.05 102.33 332.81C102.33 334.821 104.222 329.26 105.235 327.523" stroke="#FFDB45" stroke-width="2.44316" stroke-linecap="round"/>
<path d="M108.868 315.9C110.523 319.244 112.333 322.831 113.953 326.07" stroke="#FFDB45" stroke-width="2.44316" stroke-linecap="round"/>
<path d="M111.774 305.729L109.595 312.268" stroke="#FFDB45" stroke-width="2.44316" stroke-linecap="round"/>
<path d="M111.047 318.806C111.047 331.061 112.764 344.068 116.132 355.855" stroke="#FFDB45" stroke-width="2.44316" stroke-linecap="round"/>
<path d="M114.68 318.08C122.528 320.771 131.993 320.669 140.106 321.712" stroke="#FFDB45" stroke-width="2.44316" stroke-linecap="round"/>
<path d="M137.2 323.165C138.634 327.216 141.558 332.453 141.558 336.967" stroke="#FFDB45" stroke-width="2.44316" stroke-linecap="round"/>
<path d="M96.5184 316.627C92.9222 317.259 89.2898 318.08 85.6216 318.08" stroke="#FFDB45" stroke-width="2.44316" stroke-linecap="round"/>
<path d="M79.0835 298.465C67.7778 299.412 55.7638 299.556 44.577 301.774C41.7093 302.343 40.9761 303.369 39.4514 305.568C38.1662 307.422 37.229 309.688 35.8999 311.46C35.7443 311.668 44.9837 313.663 45.5052 313.72C49.7805 314.193 56.6671 313.374 60.559 315.537C62.1758 316.435 64.9316 316.079 66.3302 315.012C70.7715 311.622 73.6894 307.174 76.8234 302.622C77.7357 301.297 80.9976 298.31 79.4064 298.546C76.6925 298.948 73.0168 302.058 70.6889 303.389C68.9735 304.369 66.9874 305.325 65.5231 306.698C65.2313 306.972 65.0736 307.765 64.7159 307.586C64.2262 307.341 67.386 301.779 67.2585 300.886C67.2206 300.621 53.3835 308.679 51.559 309.442C50.385 309.933 50.7931 307.547 50.3886 306.819C49.6315 305.456 50.1885 304.407 48.7339 303.389C47.9763 302.858 46.6963 305.087 46.4335 303.51C46.2361 302.325 46.8378 301.045 47.1196 299.918" stroke="#4694FF" stroke-width="2.44316" stroke-linecap="round"/>
<path d="M37.6758 311.542C38.0068 323.956 39.1287 336.486 39.1287 348.873C39.1287 351 38.3741 355.221 39.8551 357.147C41.5531 359.354 48.5641 358.035 51.1152 358.035C56.0793 358.035 61.0434 358.035 66.0075 358.035" stroke="#4694FF" stroke-width="2.44316" stroke-linecap="round"/>
<path d="M69.6391 314.447C70.0107 324.994 71.086 335.553 69.4776 346.008C69.0368 348.873 68.9126 351.518 68.9126 354.402" stroke="#4694FF" stroke-width="2.44316" stroke-linecap="round"/>
<path d="M49.2984 316.626C48.0364 318.347 45.1124 327.653 49.4599 325.99C53.3963 324.484 57.0238 321.154 60.9217 319.855C61.3024 319.728 60.8137 320.664 60.6392 321.026C59.3629 323.669 57.646 326.13 56.1594 328.653C54.377 331.678 52.7445 334.747 51.1953 337.895C50.9861 338.321 47.9295 344.322 48.6527 344.111C53.7941 342.606 59.125 338.251 63.5854 335.514C65.0263 334.63 70.9968 329.936 73.4328 329.783C74.6823 329.705 72.3247 332.034 71.6571 333.093C70.4131 335.066 69.2708 337.105 67.9441 339.025C65.242 342.936 58.0159 348.403 58.0159 353.676" stroke="#4694FF" stroke-width="2.44316" stroke-linecap="round"/>
<path d="M81.2632 299.918L83.4425 315.173" stroke="#4694FF" stroke-width="2.44316" stroke-linecap="round"/>
<path d="M81.263 306.456C80.8458 306.456 79.8296 311.468 79.8101 311.541" stroke="#4694FF" stroke-width="2.44316" stroke-linecap="round"/>
<path d="M146.643 327.523C157.763 327.541 179.901 327.535 192.006 327.685C196.449 327.74 200.962 327.407 205.325 328.25C205.572 328.298 205.486 329.527 205.486 329.703C205.486 331.365 205.493 332.41 203.952 333.497C199.519 336.622 193.356 338.729 188.132 340.035C182.796 341.369 177.344 342.363 171.908 343.183C169.092 343.607 164.041 345.08 161.576 342.779C159.944 341.255 158.455 339.97 157.217 338.057C156.499 336.947 156.012 335.676 155.401 334.505C155.019 333.772 155.284 332.043 154.473 332.205C154.27 332.246 150.518 336.502 152.374 334.304C153.515 332.953 165.358 323.557 165.45 323.81C166.333 326.237 164.805 330.15 164.805 332.73C164.805 335.094 172.019 327.346 171.141 329.541C169.722 333.09 162.887 342.407 165.006 339.227C166.332 337.239 177.669 330.639 175.459 334.788C173.687 338.115 166.252 346.648 169.002 344.07C171.072 342.129 173.231 340.407 175.54 338.743C177.075 337.637 178.696 336.562 180.222 335.434C180.642 335.123 181.513 334.023 181.513 334.546C181.513 336.448 178.001 341.27 179.092 339.712C180.338 337.931 182.532 335.731 184.419 334.788" stroke="#AC94EA" stroke-width="2.44316" stroke-linecap="round"/>
<path d="M151.728 332.609C151.728 336.068 149.23 346.978 153.908 349.317" stroke="#AC94EA" stroke-width="2.44316" stroke-linecap="round"/>
<path d="M164.804 345.685C164.572 349.199 165.482 355.722 163.513 358.922C162.736 360.184 163.718 364.786 163.311 363.362C162.095 359.107 158.582 354.844 156.652 350.77C155.585 348.517 154.895 345.386 155.401 342.86C156.014 339.793 157.318 350.77 160.446 350.77" stroke="#AC94EA" stroke-width="2.44316" stroke-linecap="round"/>
<path d="M166.984 361.666C177.118 356.953 188.836 356.215 198.948 351.496C199.443 351.265 200.808 350.806 201.127 350.406C201.649 349.754 202.609 349.565 203.307 349.155C204.297 348.573 204.587 346.678 205.123 345.725C206.533 343.217 207.556 340.289 206.898 337.33C206.103 333.75 200.401 349.877 200.401 346.209C200.401 343.962 200.639 341.579 200.36 339.348C200.203 338.092 198.727 340.412 198.706 340.438C196.136 343.529 193.612 346.603 190.795 349.478C190.381 349.901 185.331 355.57 185.186 354.119C185.132 353.586 185.324 347.46 184.984 347.46C181.657 347.46 176.358 353.949 174.168 355.936C170.768 359.019 171.2 356.848 172.392 353.756C173.381 351.191 175.667 347.517 172.432 351.093C171.587 352.027 170.404 352.646 169.89 353.675" stroke="#AC94EA" stroke-width="2.44316" stroke-linecap="round"/>
<path d="M52.9309 302.824C43.6319 293.897 44.4779 303.863 50.3883 303.752C53.8781 303.686 54.4348 302.942 56.2403 300.644C57.4913 299.052 60.1687 298.735 61.9712 299.555C65.4799 301.149 61.0939 306.528 57.8547 305.568C55.1701 304.773 54.5416 304.271 51.8009 306.133C50.3104 307.145 41.6581 313.624 47.8458 310.088" stroke="#AC94EA" stroke-width="2.44316" stroke-linecap="round"/>
<path d="M55.8364 305.729L59.4687 310.088" stroke="#AC94EA" stroke-width="2.44316" stroke-linecap="round"/>
<path d="M55.8366 307.183C48.993 314.597 51.4779 327.862 51.4779 337.33C51.4779 339.208 51.6596 356.127 52.2043 355.855" stroke="#AC94EA" stroke-width="2.44316" stroke-linecap="round"/>
<path d="M61.6479 304.277C62.8735 304.505 73.9172 305.252 73.9977 307.344C74.0708 309.247 73.9977 311.172 73.9977 313.075C73.9977 316.438 73.9977 319.802 73.9977 323.165" stroke="#AC94EA" stroke-width="2.44316" stroke-linecap="round"/>
<path d="M177.155 331.882C175.175 329.903 173.129 328.308 170.778 326.797C170.216 326.436 167.553 324.595 166.984 325.021C165.806 325.905 165.816 330.351 166.661 331.438C169.091 334.562 173.872 332.031 175.056 329.219C176.477 325.844 179.609 319.954 184.419 322.6C185.789 323.353 185.695 327.949 185.428 329.178C184.917 331.527 180.429 331.185 178.688 331.156C175.236 331.098 172.15 324.363 172.15 321.308C172.15 316.044 175.435 321.718 176.025 323.488C176.971 326.327 177.155 328.922 177.155 331.882Z" stroke="#FA6E55" stroke-width="2.44316" stroke-linecap="round"/>
<path d="M174.249 330.429C169.475 335.203 175.292 339.466 180.464 336.644C184.205 334.604 179.948 331.882 177.881 331.882" stroke="#FA6E55" stroke-width="2.44316" stroke-linecap="round"/>
<path d="M171.343 334.788C166.19 336.471 162.25 336.32 160.447 341.73C159.575 344.343 158.994 348.079 158.994 350.77" stroke="#FA6E55" stroke-width="2.44316" stroke-linecap="round"/>
<path d="M181.513 336.967C186.303 342.157 180.908 349.862 184.419 355.128" stroke="#FA6E55" stroke-width="2.44316" stroke-linecap="round"/>
<path d="M186.599 329.703C189.4 328.074 192.433 326.774 194.59 324.618" stroke="#FA6E55" stroke-width="2.44316" stroke-linecap="round"/>
<path d="M127.755 265.775C125.274 266.942 107.468 277.103 108.545 278.488C110.247 280.676 112.532 280.304 115.123 280.304C120.958 280.304 127.486 279.959 132.477 276.631C133.893 275.688 133.711 273.102 133.527 271.627C133.105 268.254 122.544 269.497 120.41 269.447C116.86 269.364 111.991 268.62 108.585 270.133C106.712 270.966 107.415 279.116 107.415 280.869C107.415 288.928 120.34 287.411 125.98 286.115C129.729 285.254 133.63 282.805 132.679 278.528C132.314 276.885 132.212 275.422 132.114 273.766C132.013 272.044 115.735 272.992 113.711 273.039C109.214 273.145 107.581 278.828 106.85 282.725C106.44 284.911 110.981 285.546 112.5 286.115" stroke="#2C2C2C" stroke-width="2.44316" stroke-linecap="round"/>
<path d="M105.235 275.945C89.2154 275.78 72.433 274.568 56.4015 276.026C54.2469 276.222 60.6174 277.128 62.7782 277.236C67.1855 277.458 71.6045 277.398 76.0158 277.398C82.0595 277.398 88.1007 278.124 94.1771 278.124C97.9245 278.124 101.578 278.673 105.316 278.851C107.088 278.935 101.8 279.348 100.069 279.739C93.7005 281.179 87.254 283.398 80.7781 284.219C74.8429 284.971 68.6761 285.149 62.6975 285.349C61.6713 285.383 58.6655 285.958 57.693 284.985C56.9847 284.277 56.4777 280.412 57.3298 280.344C68.9529 279.414 80.9364 280.304 92.6031 280.304C96.8569 280.304 101.92 279.413 105.962 281.03" stroke="#2C2C2C" stroke-width="2.44316" stroke-linecap="round"/>
<path d="M135.747 273.766C151.946 272.681 168.355 270.674 184.581 270.133C186.299 270.076 186.688 269.91 184.742 270.94C175.349 275.913 166.226 279.773 155.684 280.465C151.005 280.772 146.26 281.291 141.558 281.03C140.949 280.996 140.63 280.42 140.106 280.142C136.41 278.186 148.436 279.322 152.617 279.214C161.321 278.988 170.022 278.851 178.729 278.851C182.572 278.851 171.297 280.822 167.549 281.676C161.209 283.121 155.368 283.936 148.904 283.936C147.811 283.936 141.616 284.042 143.738 283.896C160.38 282.748 177.177 280.304 193.863 280.304" stroke="#2C2C2C" stroke-width="2.44316" stroke-linecap="round"/>
<path d="M116.132 274.492C114.397 276.034 108.95 279.954 111.208 279.416C113.437 278.886 115.929 276.275 117.746 274.977C123.468 270.89 115.686 278.707 117.262 278.205C118.579 277.786 128.458 271.643 126.302 275.38C125.07 277.516 127.839 275.387 128.482 276.672" stroke="#FFDB45" stroke-width="2.44316" stroke-linecap="round"/>
<path d="M68.9121 87.7936C70.5509 88.5788 75.0264 91.6103 77.226 90.9819C78.4386 90.6354 78.9885 87.162 79.4053 86.1389C79.9789 84.7311 80.696 83.3964 81.2618 81.9819" stroke="#2C2C2C" stroke-width="2.44316" stroke-linecap="round"/>
<path d="M77.6309 89.9729C74.5378 81.2677 71.1027 72.5676 68.187 63.8206" stroke="#2C2C2C" stroke-width="2.44316" stroke-linecap="round"/>
</svg>
