<svg width="105" height="160" viewBox="0 0 105 160" fill="none" xmlns="http://www.w3.org/2000/svg">
<rect width="105" height="160" rx="5.0392" fill="#A3E7D8"/>
<path d="M41.6543 151V143.93H46.1855V144.994H42.9238V146.928H45.873V147.992H42.9238V151H41.6543ZM47.123 151V145.697H48.334V146.576H48.3926C48.583 145.966 49.0908 145.619 49.7012 145.619C49.8379 145.619 50.0332 145.634 50.1504 145.648V146.801C50.0381 146.762 49.7793 146.728 49.5742 146.723C48.8809 146.728 48.373 147.206 48.373 147.875V151H47.123ZM53.0312 151.107C51.4834 151.107 50.4922 150.009 50.4922 148.373C50.4922 146.723 51.4834 145.629 53.0312 145.629C54.584 145.629 55.5752 146.723 55.5703 148.373C55.5752 150.009 54.584 151.107 53.0312 151.107ZM51.752 148.363C51.752 149.335 52.1768 150.111 53.041 150.111C53.8906 150.111 54.3154 149.335 54.3105 148.363C54.3154 147.392 53.8906 146.61 53.041 146.615C52.1768 146.61 51.752 147.392 51.752 148.363ZM56.5371 151V145.697H57.7285V146.596H57.7969C58.0166 145.99 58.5488 145.629 59.252 145.629C59.9697 145.629 60.4873 145.995 60.6875 146.596H60.7461C60.9756 146.01 61.5664 145.629 62.3379 145.629C63.3096 145.629 63.9932 146.254 63.9883 147.436V151H62.748V147.631C62.748 146.972 62.3477 146.674 61.8398 146.674C61.2295 146.674 60.873 147.089 60.873 147.689V151H59.6621V147.582C59.6572 147.03 59.2959 146.674 58.7637 146.674C58.2266 146.674 57.7871 147.118 57.7871 147.777V151H56.5371ZM65.9512 151.078C65.5312 151.078 65.1846 150.736 65.1895 150.316C65.1846 149.906 65.5312 149.569 65.9512 149.564C66.3564 149.569 66.7031 149.906 66.7031 150.316C66.7031 150.736 66.3564 151.078 65.9512 151.078ZM76.9375 145.873V146.752H70.7656V143.461H71.8496V145.873H76.9375ZM69.75 148.754V147.865H77.8164V148.754H74.291V151.869H73.1973V148.754H69.75ZM85.4531 143.578V144.369C85.4482 145.194 85.4482 146.098 85.2188 147.348H86.4395V148.227H82.9336V151.879H81.8398V148.227H78.3926V147.348H84.1152C84.3594 146.146 84.3691 145.243 84.3691 144.457H79.3398V143.578H85.4531ZM94.6523 143.041V151.869H93.6172V143.041H94.6523ZM86.9668 149.232C88.793 148.153 89.6328 146.771 89.7988 144.994H87.416V144.115H90.873C90.873 144.97 90.7656 145.771 90.5264 146.518H91.752V143.256H92.7773V151.449H91.752V147.387H90.1699C89.6572 148.397 88.8271 149.281 87.582 150.004L86.9668 149.232Z" fill="black"/>
<path d="M9.3418 16.9941V15.9297H14.9766V16.9941H12.7988V23H11.5293V16.9941H9.3418ZM17.457 23.1074C15.9092 23.1074 14.918 22.0088 14.918 20.373C14.918 18.7227 15.9092 17.6289 17.457 17.6289C19.0098 17.6289 20.001 18.7227 19.9961 20.373C20.001 22.0088 19.0098 23.1074 17.457 23.1074ZM16.1777 20.3633C16.1777 21.335 16.6025 22.1113 17.4668 22.1113C18.3164 22.1113 18.7412 21.335 18.7363 20.3633C18.7412 19.3916 18.3164 18.6104 17.4668 18.6152C16.6025 18.6104 16.1777 19.3916 16.1777 20.3633ZM21.7344 23.0781C21.3145 23.0781 20.9678 22.7363 20.9727 22.3164C20.9678 21.9062 21.3145 21.5693 21.7344 21.5645C22.1396 21.5693 22.4863 21.9062 22.4863 22.3164C22.4863 22.7363 22.1396 23.0781 21.7344 23.0781ZM33.1895 15.041V23.8691H32.1543V19.3965H31.2461V23.4395H30.2207V15.1973H31.2461V18.498H32.1543V15.041H33.1895ZM25.3867 21.3008C26.6953 20.5586 27.2227 19.0205 27.2227 17.2969V16.877H25.6504V16.0078H29.7227V16.877H28.2773V17.2969C28.2773 18.8643 28.8047 20.3145 30.1133 20.9883L29.4785 21.8184C28.6387 21.3643 28.0869 20.5879 27.7744 19.6309C27.4766 20.7295 26.9248 21.6133 26.0508 22.1309L25.3867 21.3008ZM41.5684 15.0508V21.7695H40.4844V20.0312H39.1758V19.1621H40.4844V18.1758H39.1758V17.2969H40.4844V15.0508H41.5684ZM34.1953 16.8965V16.0273H36.168V15.041H37.252V16.0273H39.127V16.8965H34.1953ZM34.6543 18.9766C34.6494 17.9658 35.5039 17.2578 36.6953 17.2578C37.8965 17.2578 38.7607 17.9658 38.7656 18.9766C38.7607 19.9922 37.8965 20.6904 36.6953 20.6953C35.5039 20.6904 34.6494 19.9922 34.6543 18.9766ZM35.6699 18.9766C35.665 19.5283 36.0898 19.8555 36.6953 19.8555C37.3057 19.8555 37.7354 19.5283 37.7402 18.9766C37.7354 18.4395 37.3057 18.1123 36.6953 18.1074C36.0898 18.1123 35.665 18.4395 35.6699 18.9766ZM35.748 23.6934V21.1934H36.8516V22.8145H41.7637V23.6934H35.748Z" fill="black"/>
<path d="M18.4961 39.5176V40.2793H17.1387V44.8203H16.2109V36.0801H17.1387V39.5176H18.4961ZM10.6543 42.623V36.9297H11.5723V41.8516C12.793 41.8467 14.0674 41.7441 15.459 41.4609L15.5664 42.2422C14.0674 42.54 12.6904 42.6279 11.377 42.623H10.6543ZM23.9434 38.3066C23.9336 39.8545 24.8369 41.4414 26.1406 42.0762L25.5645 42.8184C24.6123 42.3203 23.875 41.3438 23.4893 40.1768C23.0986 41.417 22.332 42.4668 21.3359 42.9844L20.7598 42.2324C22.1025 41.5879 23.0107 39.9082 23.0156 38.3066V36.8125H23.9434V38.3066ZM26.7949 44.8301V36.0801H27.7227V39.5664H29.1289V40.3574H27.7227V44.8301H26.7949ZM36.5449 36.0801V40.582H35.627V36.0801H36.5449ZM29.3281 39.8008C30.6953 39.3467 31.5303 38.1992 31.5352 36.9883V36.3145H32.4824V36.9883C32.4775 38.1602 33.3174 39.2246 34.6602 39.6445L34.2012 40.3672C33.1807 40.0352 32.4141 39.3467 32.0186 38.458C31.623 39.415 30.8418 40.1768 29.7969 40.5332L29.3281 39.8008ZM30.8027 41.7344V41.002H36.5547V43.1895H31.7305V44H36.8477V44.7422H30.832V42.4863H35.6367V41.7344H30.8027ZM38.6875 44.0684C38.3066 44.0635 37.9893 43.7559 37.9941 43.375C37.9893 42.9941 38.3066 42.6816 38.6875 42.6816C39.0635 42.6816 39.376 42.9941 39.3809 43.375C39.376 43.7559 39.0635 44.0635 38.6875 44.0684ZM41.0742 44.0684C40.6934 44.0635 40.376 43.7559 40.3809 43.375C40.376 42.9941 40.6934 42.6816 41.0742 42.6816C41.4502 42.6816 41.7627 42.9941 41.7676 43.375C41.7627 43.7559 41.4502 44.0635 41.0742 44.0684ZM43.4609 44.0684C43.0801 44.0635 42.7627 43.7559 42.7676 43.375C42.7627 42.9941 43.0801 42.6816 43.4609 42.6816C43.8369 42.6816 44.1494 42.9941 44.1543 43.375C44.1494 43.7559 43.8369 44.0635 43.4609 44.0684ZM54.2305 36.0801V44.8496H53.3027V39.6641H50.6953V38.9023H53.3027V36.0801H54.2305ZM47.3945 42.7402V37.0469H48.332V41.9688C49.582 41.9492 50.7588 41.8711 52.0332 41.6172L52.1504 42.3789C50.7393 42.667 49.4697 42.7451 48.0977 42.7402H47.3945ZM61.9531 38.6875V39.6445H65.5078V40.3965H57.5V39.6445H61.0352V38.6875H61.9531ZM57.9102 38.5117C59.4678 38.4043 60.7129 37.7988 60.8643 37.0469H58.2422V36.334H64.7754V37.0469H62.124C62.2754 37.8037 63.5059 38.4043 65.0879 38.5117L64.7852 39.2051C63.2422 39.0732 61.9629 38.5117 61.5039 37.6377C61.0352 38.5068 59.7559 39.0732 58.2129 39.2051L57.9102 38.5117ZM58.2422 42.1836V41.4707H61.0352V40.6992H61.9531V41.4707H64.7461V42.1836H58.2422ZM58.8379 43.707C58.833 42.9502 59.7852 42.5596 61.4844 42.5547C63.1836 42.5596 64.1553 42.9502 64.1602 43.707C64.1553 44.4736 63.1836 44.874 61.4844 44.8691C59.7852 44.874 58.833 44.4736 58.8379 43.707ZM59.7852 43.707C59.7754 44.0586 60.3906 44.2441 61.4844 44.2344C62.5977 44.2441 63.1982 44.0586 63.2031 43.707C63.1982 43.3555 62.5977 43.1943 61.4844 43.1895C60.3906 43.1943 59.7754 43.3555 59.7852 43.707ZM68.2461 36.7344C69.5547 36.7393 70.4873 37.9307 70.4922 39.8008C70.4873 41.6904 69.5547 42.8818 68.2461 42.877C66.9375 42.8818 66.0049 41.6904 66.0098 39.8008C66.0049 37.9307 66.9375 36.7393 68.2461 36.7344ZM66.8984 39.8008C66.8936 41.1924 67.4502 42.0469 68.2461 42.0469C69.0566 42.0469 69.6035 41.1924 69.6035 39.8008C69.6035 38.4287 69.0566 37.5693 68.2461 37.5645C67.4502 37.5693 66.8936 38.4287 66.8984 39.8008ZM71.791 44.8301V36.0801H72.7188V39.5078H74.125V40.2891H72.7188V44.8301H71.791ZM81.1113 36.0801V39.625H82.5176V40.3965H81.1113V44.8301H80.1934V36.0801H81.1113ZM74.2461 38.209V37.4473H76.4043V36.1973H77.332V37.4473H79.4316V38.209H74.2461ZM74.6953 40.8848C74.6953 39.6934 75.6133 38.8535 76.873 38.8535C78.1279 38.8535 79.0459 39.6934 79.0508 40.8848C79.0459 42.0859 78.1279 42.9209 76.873 42.9258C75.6133 42.9209 74.6953 42.0859 74.6953 40.8848ZM75.584 40.8848C75.5791 41.6465 76.126 42.1543 76.873 42.1445C77.6152 42.1543 78.1572 41.6465 78.1621 40.8848C78.1572 40.1377 77.6152 39.6201 76.873 39.6152C76.126 39.6201 75.5791 40.1377 75.584 40.8848ZM89.7676 36.9199V37.7793C89.7627 38.8584 89.7627 40.0693 89.4355 41.8613L88.498 41.7637C88.835 40.0693 88.835 38.8291 88.8398 37.7793V37.6719H83.5273V36.9199H89.7676ZM82.6875 43.6484V42.877H85.7246V39.791H86.6426V42.877H90.666V43.6484H82.6875ZM13.3594 55.8613C13.3594 56.6133 13.7305 57.4092 14.5264 57.8828C15.3271 57.3701 15.7227 56.5352 15.7227 55.8613V55.4414H16.6309V55.8613C16.626 56.7695 17.2266 57.6484 18.3691 58.0195L17.9102 58.7031C17.0459 58.4053 16.4551 57.8193 16.1523 57.1064C15.874 57.8096 15.3516 58.4492 14.5508 58.7812C13.7109 58.4639 13.1787 57.8438 12.9102 57.1309C12.5928 57.8193 12.0166 58.4004 11.1914 58.7031L10.7227 58.0195C11.8457 57.6191 12.4561 56.7061 12.4609 55.8613V55.4414H13.3594V55.8613ZM10.498 52.6387C10.5029 51.4131 11.4893 50.5732 12.832 50.5684C14.1699 50.5732 15.1562 51.4131 15.1562 52.6387C15.1562 53.8496 14.1699 54.6895 12.832 54.6895C11.4893 54.6895 10.5029 53.8496 10.498 52.6387ZM11.4062 52.6387C11.4014 53.4004 12.002 53.918 12.832 53.918C13.6523 53.918 14.248 53.4004 14.248 52.6387C14.248 51.8721 13.6523 51.3545 12.832 51.3594C12.002 51.3545 11.4014 51.8721 11.4062 52.6387ZM16.6504 55.0703V50.0898H17.5781V55.0703H16.6504ZM21.8203 55.8516C21.8203 56.6084 22.1963 57.4043 22.9873 57.8877C23.7881 57.3652 24.1689 56.5156 24.1738 55.8516V55.3828H25.082V55.8516C25.082 56.7549 25.6777 57.6533 26.8398 58.0195L26.3613 58.7129C25.502 58.4053 24.916 57.8193 24.6133 57.0967C24.335 57.7998 23.8125 58.4541 23.002 58.791C22.1719 58.4736 21.6396 57.8535 21.3662 57.1357C21.0537 57.8242 20.4727 58.4053 19.6523 58.7129L19.2031 58.0195C20.3213 57.6289 20.9219 56.7012 20.9316 55.8516V55.3828H21.8203V55.8516ZM18.8516 52.6289C18.8467 51.418 19.8184 50.5586 21.1367 50.5586C22.2695 50.5586 23.168 51.2275 23.3682 52.2188H25.082V50.0801H26.0098V55.041H25.082V52.9805H23.3828C23.2021 53.9961 22.2939 54.6895 21.1367 54.6895C19.8184 54.6895 18.8467 53.835 18.8516 52.6289ZM19.7402 52.6289C19.7354 53.3857 20.3262 53.918 21.1367 53.918C21.9277 53.918 22.5186 53.3857 22.5234 52.6289C22.5186 51.8574 21.9277 51.335 21.1367 51.3398C20.3262 51.335 19.7354 51.8574 19.7402 52.6289ZM29.4805 50.7344C30.6719 50.7393 31.5361 51.7451 31.6777 53.3613H33.4844V50.0801H34.4023V58.8496H33.4844V54.1133H31.6875C31.585 55.8223 30.7012 56.8818 29.4805 56.877C28.1768 56.8818 27.2539 55.6904 27.2637 53.8008C27.2539 51.9307 28.1768 50.7393 29.4805 50.7344ZM28.1426 53.8008C28.1475 55.1924 28.6895 56.0469 29.4805 56.0469C30.2715 56.0469 30.8135 55.1924 30.8184 53.8008C30.8135 52.4287 30.2715 51.5693 29.4805 51.5645C28.6895 51.5693 28.1475 52.4287 28.1426 53.8008ZM36.4961 58.0684C36.1152 58.0635 35.7979 57.7559 35.8027 57.375C35.7979 56.9941 36.1152 56.6816 36.4961 56.6816C36.8721 56.6816 37.1846 56.9941 37.1895 57.375C37.1846 57.7559 36.8721 58.0635 36.4961 58.0684ZM38.8828 58.0684C38.502 58.0635 38.1846 57.7559 38.1895 57.375C38.1846 56.9941 38.502 56.6816 38.8828 56.6816C39.2588 56.6816 39.5713 56.9941 39.5762 57.375C39.5713 57.7559 39.2588 58.0635 38.8828 58.0684ZM41.2695 58.0684C40.8887 58.0635 40.5713 57.7559 40.5762 57.375C40.5713 56.9941 40.8887 56.6816 41.2695 56.6816C41.6455 56.6816 41.958 56.9941 41.9629 57.375C41.958 57.7559 41.6455 58.0635 41.2695 58.0684ZM43.6562 58.0684C43.2754 58.0635 42.958 57.7559 42.9629 57.375C42.958 56.9941 43.2754 56.6816 43.6562 56.6816C44.0322 56.6816 44.3447 56.9941 44.3496 57.375C44.3447 57.7559 44.0322 58.0635 43.6562 58.0684ZM54.6113 50.0801V58.8301H53.7227V54.3477H52.5996V58.3809H51.7305V50.2559H52.5996V53.5859H53.7227V50.0801H54.6113ZM47.5312 56.6035V51.1152H48.459V55.7881C49.2646 55.7783 50.1484 55.7148 51.1445 55.5195L51.2422 56.3301C50.041 56.5449 49.04 56.6084 48.0977 56.6035H47.5312ZM62.3301 50.0801V53.5664H63.6875V54.3379H62.3301V58.8203H61.4023V50.0801H62.3301ZM55.5234 56.4863C57.7158 55.3926 58.9072 53.8105 59.0977 51.7695H55.9629V50.998H60.0449C60.0352 53.5273 58.9219 55.7881 56.041 57.209L55.5234 56.4863ZM73.1973 52.9609V53.7129H67.1133V50.5098H68.041V52.9609H73.1973ZM66.0977 55.6855V54.9238H74.1055V55.6855H70.5215V58.8301H69.6035V55.6855H66.0977ZM81.4824 50.5293V51.2422C81.4873 51.9746 81.4873 52.7949 81.2773 53.8984H82.498V54.6406H78.9922V56.6719H78.0645V54.6406H74.4902V53.8984H80.3301C80.5596 52.8096 80.5645 52.0039 80.5645 51.2812H75.4961V50.5293H81.4824ZM75.4766 58.6445V55.8809H76.4043V57.8926H81.6582V58.6445H75.4766ZM86.1055 52.6582C86.1006 54.123 87.0625 55.6367 88.4102 56.2129L87.9023 56.9355C86.8721 56.4814 86.0518 55.5146 85.6465 54.3477C85.2412 55.5977 84.4209 56.6621 83.4004 57.1602L82.8633 56.4277C84.1816 55.8076 85.1582 54.167 85.168 52.6582V51.7305H83.166V50.959H88.0977V51.7305H86.1055V52.6582ZM89.2012 58.8301V50.0801H90.1289V58.8301H89.2012ZM17.1973 64.0801V65.9062H18.4668V66.6777H17.1973V68.5039H16.2695V64.0801H17.1973ZM10.459 66.3359C10.4492 65.1787 11.4307 64.3877 12.7539 64.3828C14.082 64.3877 15.0488 65.1787 15.0488 66.3359C15.0488 67.4834 14.082 68.2891 12.7539 68.2891C11.4307 68.2891 10.4492 67.4834 10.459 66.3359ZM11.3574 66.3359C11.3525 67.0488 11.9482 67.5469 12.7539 67.5469C13.5596 67.5469 14.1504 67.0488 14.1504 66.3359C14.1504 65.623 13.5596 65.1396 12.7539 65.1445C11.9482 65.1396 11.3525 65.623 11.3574 66.3359ZM11.543 69.627V68.9043H17.1973V71.1211H12.4707V71.9805H17.5V72.7227H11.5625V70.4277H16.2793V69.627H11.543ZM28.1914 64.0801V72.8301H27.2734V68.3086H25.3105V67.5469H27.2734V64.0801H28.1914ZM20.8867 70.4766C23.2061 69.3438 24.2363 67.7666 24.3975 65.7598H21.2773V65.0176H25.3398C25.3301 67.5518 24.3438 69.7393 21.375 71.209L20.8867 70.4766ZM38.3652 64.0801V66.0527H39.6348V66.8047H38.3652V68.7285H37.4375V64.0801H38.3652ZM31.5 68.1426C33.7021 67.6982 34.8496 66.668 34.9766 65.4277H31.8906V64.6855H36.002C36.002 66.917 34.4932 68.3379 31.8906 68.8945L31.5 68.1426ZM32.75 72.7227V69.0996H38.4043V69.8027H33.6777V70.5547H38.3066V71.2285H33.6777V72.0195H38.5996V72.7227H32.75ZM43.8672 64.6074C45.7031 64.6074 47.0996 65.5791 47.0996 67.0488C47.0996 68.5283 45.7031 69.4951 43.8672 69.4902C42.0361 69.4951 40.6396 68.5283 40.6445 67.0488C40.6396 65.5791 42.0361 64.6074 43.8672 64.6074ZM39.8828 71.6973V70.9258H47.8906V71.6973H39.8828ZM41.5332 67.0488C41.5283 68.0693 42.5244 68.7285 43.8672 68.7285C45.2051 68.7285 46.1963 68.0693 46.2012 67.0488C46.1963 66.0332 45.2051 65.3545 43.8672 65.3594C42.5244 65.3545 41.5283 66.0332 41.5332 67.0488ZM52.7383 64.8223V65.5645H54.6426V64.0898H55.5703V70.4668H54.6426V68.2012H52.7383V68.9629H48.6758V64.8223H52.7383ZM49.5938 68.2305H51.8301V65.5742H49.5938V68.2305ZM49.8574 72.6445V69.8809H50.7949V71.8926H55.7656V72.6445H49.8574ZM52.7383 67.4395H54.6426V66.3262H52.7383V67.4395ZM61.5547 72H59.2598V64.9297H61.623C63.708 64.9297 64.9482 66.2529 64.9531 68.4551C64.9482 70.6621 63.708 72 61.5547 72ZM60.334 71.0625H61.4961C63.0977 71.0576 63.8887 70.125 63.8887 68.4551C63.8887 66.79 63.0977 65.8672 61.5547 65.8672H60.334V71.0625ZM65.9141 64.9297H67.2227L69.459 70.4082H69.5469L71.7832 64.9297H73.0918V72H72.0664V66.8926H71.998L69.9277 71.9902H69.0781L66.998 66.8828H66.9395V72H65.9141V64.9297ZM80.4043 65.5254V66.2773H76.0586V65.5254H77.7773V64.334H78.6953V65.5254H80.4043ZM76.3418 68.8164C76.3369 67.6396 77.1377 66.8047 78.2363 66.8047C79.3447 66.8047 80.1357 67.6396 80.1406 68.8164C80.1357 70.0127 79.3447 70.8525 78.2363 70.8477C77.1377 70.8525 76.3369 70.0127 76.3418 68.8164ZM77.1621 68.8164C77.1572 69.5586 77.6064 70.0566 78.2363 70.0566C78.8662 70.0566 79.3203 69.5586 79.3203 68.8164C79.3203 68.0889 78.8662 67.5811 78.2363 67.5762C77.6064 67.5811 77.1572 68.0889 77.1621 68.8164ZM80.8047 72.4199V64.2754H81.6836V67.7227H82.6895V64.0801H83.5684V72.8301H82.6895V68.4844H81.6836V72.4199H80.8047ZM87.7715 65.5352C87.7715 66.3066 88.6016 66.9951 89.8906 67.2246L89.5098 67.9375C88.4893 67.7324 87.7129 67.249 87.3174 66.6045C86.9219 67.3076 86.1309 67.8398 85.0566 68.0645L84.666 67.3516C86.0039 67.0977 86.8291 66.3652 86.834 65.5352V65.4375H84.9883V64.6953H89.6367V65.4375H87.7715V65.5352ZM84.4316 68.6992C86.0625 68.7041 88.2793 68.6846 90.1934 68.416L90.252 69.1094C89.4219 69.251 88.5625 69.3389 87.7227 69.3926V72.5566H86.7949V69.4365C85.9893 69.4707 85.2275 69.4756 84.5586 69.4805L84.4316 68.6992ZM88.9141 70.7891V70.0762H90.8477V64.0898H91.7852V72.8301H90.8477V70.7891H88.9141ZM11.9336 78.9297L11.8457 83.959H10.8789L10.791 78.9297H11.9336ZM10.6738 85.375C10.6689 84.9941 10.9863 84.6816 11.3672 84.6816C11.7432 84.6816 12.0557 84.9941 12.0605 85.375C12.0557 85.7559 11.7432 86.0635 11.3672 86.0684C10.9863 86.0635 10.6689 85.7559 10.6738 85.375ZM14.418 78.9297L14.3301 83.959H13.3633L13.2754 78.9297H14.418ZM13.1582 85.375C13.1533 84.9941 13.4707 84.6816 13.8516 84.6816C14.2275 84.6816 14.54 84.9941 14.5449 85.375C14.54 85.7559 14.2275 86.0635 13.8516 86.0684C13.4707 86.0635 13.1533 85.7559 13.1582 85.375ZM22.6387 83.6074L18.0488 85.8242V84.7695L21.3984 83.2412V83.1924L18.0488 81.6641V80.5996L22.6387 82.8262V83.6074ZM27.6914 86V86.8789H23.1992V86H27.6914ZM28.252 83.6074V82.8262L32.8418 80.5996V81.6641L29.4922 83.1875V83.2461L32.8418 84.7695V85.8242L28.252 83.6074ZM37.1367 83.5195C36.4824 82.8652 36.1309 82.0498 36.1211 81.1562C36.1309 79.8477 37.1074 78.8027 38.377 78.8027C39.0947 78.8027 39.7197 79.1299 40.125 79.6523C40.5449 79.1299 41.165 78.8027 41.8926 78.8027C43.1523 78.8027 44.1338 79.8477 44.1387 81.1562C44.1338 82.0498 43.7822 82.8652 43.123 83.5195L40.125 86.5176L37.1367 83.5195ZM54.1367 78.0801V86.8301H53.1992V78.0801H54.1367ZM46.9492 84.4863C49.2734 83.3779 50.4111 81.8008 50.5918 79.7598H47.3691V79.0176H51.5293C51.5293 81.5811 50.4404 83.7979 47.4375 85.2383L46.9492 84.4863ZM62.0703 78.0801V81.4688H63.4766V82.2305H62.0703V86.8496H61.1426V78.0801H62.0703ZM55.625 84.6719V78.9199H59.7168V79.6719H56.5527V83.9004C58.0225 83.8955 59.1211 83.832 60.3711 83.6074L60.4883 84.3887C59.1162 84.6328 57.9541 84.6768 56.3281 84.6719H55.625ZM70.9121 78.0801V86.8496H69.9844V78.0801H70.9121ZM64.1348 79.623V78.8711H68.2363V82.0645H65.0918V83.9785C66.5127 83.9736 67.748 83.9053 69.2129 83.666L69.3008 84.4277C67.7529 84.6865 66.4346 84.7451 64.8867 84.75H64.1445V81.3223H67.2891V79.623H64.1348ZM79.1191 78.9199V79.7793C79.1143 80.8584 79.1143 82.0693 78.7871 83.8613L77.8496 83.7637C78.1865 82.0693 78.1865 80.8291 78.1914 79.7793V79.6719H72.8789V78.9199H79.1191ZM72.0391 85.6484V84.877H75.0762V81.791H75.9941V84.877H80.0176V85.6484H72.0391ZM85.6602 83.8613C85.6602 84.6133 86.0312 85.4092 86.8271 85.8828C87.6279 85.3701 88.0234 84.5352 88.0234 83.8613V83.4414H88.9316V83.8613C88.9268 84.7695 89.5273 85.6484 90.6699 86.0195L90.2109 86.7031C89.3467 86.4053 88.7559 85.8193 88.4531 85.1064C88.1748 85.8096 87.6523 86.4492 86.8516 86.7812C86.0117 86.4639 85.4795 85.8438 85.2109 85.1309C84.8936 85.8193 84.3174 86.4004 83.4922 86.7031L83.0234 86.0195C84.1465 85.6191 84.7568 84.7061 84.7617 83.8613V83.4414H85.6602V83.8613ZM82.7988 80.6387C82.8037 79.4131 83.79 78.5732 85.1328 78.5684C86.4707 78.5732 87.457 79.4131 87.457 80.6387C87.457 81.8496 86.4707 82.6895 85.1328 82.6895C83.79 82.6895 82.8037 81.8496 82.7988 80.6387ZM83.707 80.6387C83.7021 81.4004 84.3027 81.918 85.1328 81.918C85.9531 81.918 86.5488 81.4004 86.5488 80.6387C86.5488 79.8721 85.9531 79.3545 85.1328 79.3594C84.3027 79.3545 83.7021 79.8721 83.707 80.6387ZM88.9512 83.0703V78.0898H89.8789V83.0703H88.9512ZM14.3066 92.2266C16.2793 92.2217 17.4268 92.7539 17.4316 93.7305C17.4268 94.7119 16.2793 95.2441 14.3066 95.2441C12.334 95.2441 11.1768 94.7119 11.1816 93.7305C11.1768 92.7539 12.334 92.2217 14.3066 92.2266ZM10.3223 96.5234V95.7812H18.3008V96.5234H10.3223ZM11.2793 97.8906V97.1973H17.2949V99.248H12.1973V100.029H17.5391V100.742H11.2891V98.5742H16.377V97.8906H11.2793ZM12.1484 93.7305C12.1436 94.2725 12.915 94.5508 14.3066 94.5508C15.708 94.5508 16.4795 94.2725 16.4746 93.7305C16.4795 93.2129 15.708 92.9102 14.3066 92.9102C12.915 92.9102 12.1436 93.2129 12.1484 93.7305ZM26.2344 92.0801V100.83H25.3555V92.0801H26.2344ZM18.6855 98.3008C20.541 97.1973 21.4297 95.7275 21.5908 93.9258H19.0957V93.1641H22.5137C22.5088 94.0186 22.3916 94.834 22.123 95.5957H23.5098V92.3047H24.3887V100.4H23.5098V96.3379H21.8008C21.2832 97.3535 20.4482 98.2422 19.2129 98.9648L18.6855 98.3008ZM36.6035 92.0801V100.85H35.6758V95.6641H33.0684V94.9023H35.6758V92.0801H36.6035ZM29.7676 98.7402V93.0469H30.7051V97.9688C31.9551 97.9492 33.1318 97.8711 34.4062 97.6172L34.5234 98.3789C33.1123 98.667 31.8428 98.7451 30.4707 98.7402H29.7676ZM44.5078 92.0801V95.5664H45.8652V96.3379H44.5078V100.82H43.5801V92.0801H44.5078ZM37.7012 98.4863C39.8936 97.3926 41.085 95.8105 41.2754 93.7695H38.1406V92.998H42.2227C42.2129 95.5273 41.0996 97.7881 38.2188 99.209L37.7012 98.4863ZM55.1504 92.0801V93.9062H56.4199V94.6777H55.1504V96.5039H54.2227V92.0801H55.1504ZM48.4121 94.3359C48.4023 93.1787 49.3838 92.3877 50.707 92.3828C52.0352 92.3877 53.002 93.1787 53.002 94.3359C53.002 95.4834 52.0352 96.2891 50.707 96.2891C49.3838 96.2891 48.4023 95.4834 48.4121 94.3359ZM49.3105 94.3359C49.3057 95.0488 49.9014 95.5469 50.707 95.5469C51.5127 95.5469 52.1035 95.0488 52.1035 94.3359C52.1035 93.623 51.5127 93.1396 50.707 93.1445C49.9014 93.1396 49.3057 93.623 49.3105 94.3359ZM49.4961 97.627V96.9043H55.1504V99.1211H50.4238V99.9805H55.4531V100.723H49.5156V98.4277H54.2324V97.627H49.4961ZM59.0117 92.7344C60.3203 92.7393 61.2529 93.9307 61.2578 95.8008C61.2529 97.6904 60.3203 98.8818 59.0117 98.877C57.7031 98.8818 56.7705 97.6904 56.7754 95.8008C56.7705 93.9307 57.7031 92.7393 59.0117 92.7344ZM57.6641 95.8008C57.6592 97.1924 58.2158 98.0469 59.0117 98.0469C59.8223 98.0469 60.3691 97.1924 60.3691 95.8008C60.3691 94.4287 59.8223 93.5693 59.0117 93.5645C58.2158 93.5693 57.6592 94.4287 57.6641 95.8008ZM62.5566 100.83V92.0801H63.4844V95.5078H64.8906V96.2891H63.4844V100.83H62.5566ZM70.2461 92.4902V93.2129H68.3857C68.4443 93.7891 69.2695 94.2725 70.5 94.4043L70.1875 95.0781C69.1377 94.9316 68.3369 94.5459 67.9414 93.9893C67.5508 94.6143 66.7305 95.0586 65.6367 95.2441L65.3047 94.5605C66.5742 94.3896 67.3848 93.8428 67.4385 93.2129H65.5977V92.4902H70.2461ZM65.0117 95.6055C66.6768 95.6055 68.8203 95.6055 70.666 95.3809L70.7148 96.0254C69.9238 96.1426 69.1035 96.2158 68.293 96.2598V97.5879H67.375V96.3037C66.5742 96.3281 65.8125 96.3379 65.1289 96.3379L65.0117 95.6055ZM65.4609 100.02C66.5742 99.6973 67.2041 98.877 67.209 98.0664V97.9199H68.0879V98.0664C68.0928 98.75 68.4785 99.4971 69.2695 99.9268C70.0605 99.4824 70.4561 98.7305 70.4609 98.0664V97.9199H71.3691V98.0664C71.3594 98.9062 71.9697 99.707 73.1172 100.02L72.6777 100.713C71.8037 100.444 71.208 99.9023 70.9053 99.2236C70.627 99.9023 70.0996 100.498 69.2695 100.791C68.4541 100.498 67.9268 99.917 67.6533 99.248C67.3359 99.9121 66.7402 100.449 65.9004 100.713L65.4609 100.02ZM69.6797 97.2559V96.6211H71.418V92.0801H72.3457V97.666H71.418V97.2559H69.6797ZM77.4375 92.6074C79.2734 92.6074 80.6699 93.5791 80.6699 95.0488C80.6699 96.5283 79.2734 97.4951 77.4375 97.4902C75.6064 97.4951 74.21 96.5283 74.2148 95.0488C74.21 93.5791 75.6064 92.6074 77.4375 92.6074ZM73.4531 99.6973V98.9258H81.4609V99.6973H73.4531ZM75.1035 95.0488C75.0986 96.0693 76.0947 96.7285 77.4375 96.7285C78.7754 96.7285 79.7666 96.0693 79.7715 95.0488C79.7666 94.0332 78.7754 93.3545 77.4375 93.3594C76.0947 93.3545 75.0986 94.0332 75.1035 95.0488ZM86.3086 92.8223V93.5645H88.2129V92.0898H89.1406V98.4668H88.2129V96.2012H86.3086V96.9629H82.2461V92.8223H86.3086ZM83.1641 96.2305H85.4004V93.5742H83.1641V96.2305ZM83.4277 100.645V97.8809H84.3652V99.8926H89.3359V100.645H83.4277ZM86.3086 95.4395H88.2129V94.3262H86.3086V95.4395ZM14.7656 108.688V109.645H18.3203V110.396H10.3125V109.645H13.8477V108.688H14.7656ZM10.7227 108.512C12.2803 108.404 13.5254 107.799 13.6768 107.047H11.0547V106.334H17.5879V107.047H14.9365C15.0879 107.804 16.3184 108.404 17.9004 108.512L17.5977 109.205C16.0547 109.073 14.7754 108.512 14.3164 107.638C13.8477 108.507 12.5684 109.073 11.0254 109.205L10.7227 108.512ZM11.0547 112.184V111.471H13.8477V110.699H14.7656V111.471H17.5586V112.184H11.0547ZM11.6504 113.707C11.6455 112.95 12.5977 112.56 14.2969 112.555C15.9961 112.56 16.9678 112.95 16.9727 113.707C16.9678 114.474 15.9961 114.874 14.2969 114.869C12.5977 114.874 11.6455 114.474 11.6504 113.707ZM12.5977 113.707C12.5879 114.059 13.2031 114.244 14.2969 114.234C15.4102 114.244 16.0107 114.059 16.0156 113.707C16.0107 113.355 15.4102 113.194 14.2969 113.189C13.2031 113.194 12.5879 113.355 12.5977 113.707ZM22.5918 106.715C22.5918 107.364 22.4844 107.96 22.2744 108.502H23.5195V106.266H24.3984V110.982H23.5195V109.254H21.8887C21.332 110.118 20.4482 110.807 19.2422 111.314L18.7734 110.621C20.5117 109.928 21.4639 108.858 21.6348 107.467H19.1738V106.715H22.5918ZM19.1934 114.107C20.3115 113.707 20.9414 112.779 20.9414 111.93V111.402H21.8301V111.93C21.8203 112.691 22.1963 113.478 22.9873 113.956C23.7881 113.434 24.1738 112.584 24.1836 111.93V111.402H25.082V111.93C25.0771 112.838 25.6875 113.736 26.8203 114.107L26.3711 114.791C25.5068 114.483 24.916 113.893 24.6133 113.17C24.3398 113.873 23.8174 114.522 23.002 114.859C22.167 114.542 21.6396 113.912 21.376 113.189C21.0635 113.888 20.4824 114.479 19.6621 114.791L19.1934 114.107ZM25.2969 111.119V106.09H26.1758V111.119H25.2969ZM33.9238 106.08V109.469H35.3301V110.23H33.9238V114.85H32.9961V106.08H33.9238ZM27.4785 112.672V106.92H31.5703V107.672H28.4062V111.9C29.876 111.896 30.9746 111.832 32.2246 111.607L32.3418 112.389C30.9697 112.633 29.8076 112.677 28.1816 112.672H27.4785ZM44.6641 108.609V109.381H38.8047V108.609H41.2852V107.467H42.2129V108.609H44.6641ZM39.5371 111.568C39.5322 110.626 40.4648 109.942 41.7344 109.947C43.0137 109.942 43.9414 110.626 43.9512 111.568C43.9414 112.53 43.0137 113.209 41.7344 113.209C40.4648 113.209 39.5322 112.53 39.5371 111.568ZM40.4844 111.568C40.4844 112.091 41.0215 112.428 41.7344 112.428C42.4619 112.428 42.9941 112.091 42.9941 111.568C42.9941 111.065 42.4619 110.724 41.7344 110.729C41.0215 110.724 40.4844 111.065 40.4844 111.568ZM53.0566 108.609V109.381H47.1973V108.609H49.6777V107.467H50.6055V108.609H53.0566ZM47.9297 111.568C47.9248 110.626 48.8574 109.942 50.127 109.947C51.4062 109.942 52.334 110.626 52.3438 111.568C52.334 112.53 51.4062 113.209 50.127 113.209C48.8574 113.209 47.9248 112.53 47.9297 111.568ZM48.877 111.568C48.877 112.091 49.4141 112.428 50.127 112.428C50.8545 112.428 51.3867 112.091 51.3867 111.568C51.3867 111.065 50.8545 110.724 50.127 110.729C49.4141 110.724 48.877 111.065 48.877 111.568Z" fill="#1A1C20"/>
</svg>
