<svg width="105" height="160" viewBox="0 0 105 160" fill="none" xmlns="http://www.w3.org/2000/svg">
<rect width="105" height="160" rx="5.0392" fill="#91BFFF"/>
<rect width="105" height="160" rx="5.0392" fill="#91BFFF"/>
<path d="M18.0771 19.3291V25.3057H16.9639V19.3291H18.0771ZM9.58105 22.3408C9.58691 20.8584 10.7705 19.8506 12.3818 19.8564C13.9873 19.8506 15.1709 20.8584 15.1709 22.3408C15.1709 23.7822 13.9873 24.8018 12.3818 24.8018C10.7705 24.8018 9.58691 23.7822 9.58105 22.3408ZM10.6709 22.3408C10.665 23.2432 11.3857 23.8643 12.3818 23.8643C13.3662 23.8643 14.0811 23.2432 14.0811 22.3408C14.0811 21.4092 13.3662 20.7881 12.3818 20.7939C11.3857 20.7881 10.665 21.4092 10.6709 22.3408ZM11.1748 29.6885V25.833H18.0771V29.6885H11.1748ZM12.2764 28.7861H16.9873V26.7236H12.2764V28.7861ZM28.5115 19.3174V29.8174H27.4451V24.4268H26.1912V29.3018H25.1365V19.5166H26.1912V23.4893H27.4451V19.3174H28.5115ZM19.3006 26.8525C20.8357 25.9912 21.5506 24.1807 21.5506 22.0947V21.415H19.5818V20.5127H24.4568V21.415H22.6287V22.0947C22.6287 23.9814 23.3377 25.6924 24.867 26.4775L24.2107 27.333C23.1795 26.7705 22.4881 25.792 22.1131 24.585C21.7557 25.9619 21.0643 27.0635 19.992 27.6963L19.3006 26.8525ZM31.1295 19.915V21.4971H33.7545V19.915H34.8561V21.9189H37.1529V19.3174H38.2662V25.3994H37.1529V22.8447H34.8561V24.8604H30.0162V19.915H31.1295ZM31.1295 23.9697H33.7545V22.376H31.1295V23.9697ZM31.3404 29.6885V25.8916H38.2662V29.6885H31.3404ZM32.442 28.7861H37.1764V26.7822H32.442V28.7861ZM48.2787 19.3174V29.8408H47.1654V19.3174H48.2787ZM39.9467 23.7822C39.9467 21.5381 41.0775 20.1084 42.6654 20.1025C44.224 20.1084 45.3725 21.5381 45.3725 23.7822C45.3725 26.0498 44.224 27.4795 42.6654 27.4736C41.0775 27.4795 39.9467 26.0498 39.9467 23.7822ZM41.0248 23.7822C41.0189 25.4521 41.6869 26.4775 42.6654 26.4775C43.6264 26.4775 44.2943 25.4521 44.2943 23.7822C44.2943 22.1357 43.6264 21.1045 42.6654 21.0986C41.6869 21.1045 41.0189 22.1357 41.0248 23.7822ZM55.5725 20.4189V21.3096H49.6662V20.4189H52.1271V19.2236H53.2287V20.4189H55.5725ZM50.2521 23.7471C50.2521 22.5752 51.2365 21.7959 52.6662 21.79C54.0783 21.7959 55.0861 22.5752 55.092 23.7471C55.0861 24.9189 54.0783 25.6924 52.6662 25.6924C51.2365 25.6924 50.2521 24.9189 50.2521 23.7471ZM51.2951 23.7471C51.2893 24.4268 51.8342 24.8545 52.6662 24.8486C53.4865 24.8545 54.049 24.4268 54.0607 23.7471C54.049 23.0674 53.4865 22.6338 52.6662 22.6338C51.8342 22.6338 51.2893 23.0674 51.2951 23.7471ZM51.3537 27.9893C51.3478 26.8467 52.6955 26.1846 54.9162 26.1846C57.1135 26.1846 58.467 26.8467 58.467 27.9893C58.467 29.1318 57.1135 29.7998 54.9162 29.7939C52.6955 29.7998 51.3478 29.1318 51.3537 27.9893ZM52.5139 27.9893C52.508 28.5986 53.4045 28.9502 54.9162 28.9385C56.3986 28.9502 57.2834 28.5986 57.2834 27.9893C57.2834 27.374 56.3986 27.04 54.9162 27.04C53.4045 27.04 52.508 27.374 52.5139 27.9893ZM55.5959 24.7314V23.8291L57.2951 23.8291V22.6689H55.6076V21.7666H57.2951V19.3174H58.4084V26.0791H57.2951V24.7314L55.5959 24.7314ZM68.1912 20.2432V21.1572H64.1014V23.1846H67.7928V24.0752H64.1014V26.4307C65.9353 26.4189 67.2654 26.3545 68.824 26.1025L68.9412 27.0049C67.2771 27.2744 65.8357 27.3271 63.8553 27.333H62.9998V20.2432H68.1912ZM69.9607 29.8174V19.3174H71.0857V29.8174H69.9607ZM81.4146 19.3291V26.4189H80.36V19.3291H81.4146ZM72.4732 25.3291C73.9322 24.7197 74.8756 23.9287 75.4205 22.9854L72.6607 23.2783L72.4967 22.3643L75.7838 22.1768C75.901 21.8252 75.9713 21.4619 76.0064 21.0752H72.9771V20.1729H77.0904C77.0904 20.9463 76.9967 21.6729 76.7857 22.3408H78.2506V19.5049H79.3053V25.4814H78.2506V23.2432H76.4107C75.7838 24.4326 74.6998 25.4111 73.0123 26.1377L72.4732 25.3291ZM73.7271 28.9033C75.7135 28.6104 77.2955 27.4385 77.2896 26.1143V25.8096H78.3912V26.1143C78.3912 27.4385 79.9732 28.6104 81.9537 28.9033L81.5201 29.7705C79.8912 29.501 78.5025 28.6982 77.8463 27.5791C77.1842 28.6982 75.7955 29.501 74.1725 29.7705L73.7271 28.9033ZM88.1459 20.0791V20.9697H84.2201V22.1299H87.8529V23.0088H84.2201V24.2041C86.3178 24.2158 87.5424 24.1807 88.9662 23.9346L89.0834 24.8369C87.5658 25.083 86.2592 25.124 83.9623 25.1182H83.0951V20.0791H88.1459ZM84.1146 27.8604C84.1146 26.6357 85.4564 25.9268 87.6889 25.9268C89.8861 25.9268 91.2572 26.6357 91.2631 27.8604C91.2572 29.0967 89.8861 29.7998 87.6889 29.7939C85.4564 29.7998 84.1146 29.0967 84.1146 27.8604ZM85.2279 27.8604C85.2221 28.5459 86.1244 28.9326 87.6889 28.9385C89.224 28.9326 90.1557 28.5459 90.1498 27.8604C90.1557 27.1924 89.224 26.7998 87.6889 26.8057C86.1244 26.7998 85.2221 27.1924 85.2279 27.8604ZM90.0912 25.7861V19.3291H91.2045V25.7861H90.0912ZM18.4053 36.3174V46.8174H17.3389V36.3174H18.4053ZM9.4873 40.8525C9.4873 38.5791 10.3779 37.1553 11.749 37.1611C13.0264 37.1553 13.8877 38.3682 14.0166 40.3369H15.2061L15.2061 36.5166H16.2725V46.3018H15.2061V41.2393H14.0225C13.9229 43.29 13.0498 44.5615 11.749 44.5557C10.3779 44.5615 9.4873 43.1318 9.4873 40.8525ZM10.5186 40.8525C10.5186 42.5225 10.9932 43.5068 11.749 43.501C12.5225 43.5068 13.0029 42.5225 13.0029 40.8525C13.0029 39.1768 12.5225 38.1982 11.749 38.2041C10.9932 38.1982 10.5186 39.1768 10.5186 40.8525ZM25.7975 37.8877C25.7916 39.3584 26.7467 40.6709 28.3404 41.1924L27.7311 42.0596C26.5768 41.6377 25.7271 40.8291 25.2701 39.7744C24.8189 40.9756 23.9049 41.9189 22.6334 42.376L22.0357 41.4854C23.7115 40.9111 24.6842 39.5107 24.6959 37.9346V36.9033H25.7975V37.8877ZM23.7584 44.8135C23.7525 43.542 25.1002 42.8037 27.3092 42.8096C29.5064 42.8037 30.8541 43.542 30.86 44.8135C30.8541 46.0791 29.5064 46.7998 27.3092 46.7939C25.1002 46.7998 23.7525 46.0791 23.7584 44.8135ZM24.86 44.8135C24.8541 45.5107 25.7682 45.9209 27.3092 45.915C28.8385 45.9209 29.7525 45.5107 29.7584 44.8135C29.7525 44.0928 28.8385 43.6768 27.3092 43.6768C25.7682 43.6768 24.8541 44.0928 24.86 44.8135ZM27.4967 39.3643V38.4502H29.7115V36.3174H30.8248V42.5166H29.7115V39.3643H27.4967ZM36.8764 42.915C39.1498 42.915 40.5854 43.6357 40.5912 44.8603C40.5854 46.0791 39.1498 46.7998 36.8764 46.7939C34.6264 46.7998 33.185 46.0791 33.185 44.8603C33.185 43.6357 34.6264 42.915 36.8764 42.915ZM32.1537 42.0478V41.1455H35.9857V39.1768H37.0756V41.1455H41.7045V42.0478H32.1537ZM33.267 37.7236V36.833H40.5092V37.7119C40.515 38.5498 40.515 39.417 40.2162 40.501L39.1264 40.3838C39.4076 39.3115 39.4076 38.5381 39.4076 37.7236H33.267ZM34.2982 44.8603C34.2865 45.54 35.2885 45.9326 36.8764 45.9385C38.4818 45.9326 39.4779 45.54 39.4896 44.8603C39.4779 44.1689 38.4818 43.7646 36.8764 43.7588C35.2885 43.7646 34.2865 44.1689 34.2982 44.8603ZM51.1662 36.3291V42.8213H50.1115V40.0557H48.9162V42.6689H47.8732V36.4814H48.9162V39.1533H50.1115V36.3291H51.1662ZM42.1545 38.3447V37.4541H44.2756V36.3643H45.3771V37.4541H47.4631V38.3447H42.1545ZM42.5646 40.6299C42.5646 39.5225 43.5021 38.8135 44.8146 38.8135C46.1564 38.8135 47.0881 39.5225 47.0881 40.6299C47.0881 41.7021 46.1564 42.4346 44.8146 42.4346C43.5021 42.4346 42.5646 41.7021 42.5646 40.6299ZM42.8576 45.8447C44.1877 45.4228 44.9377 44.3916 44.9436 43.4424V43.126H46.0334V43.4424C46.0275 44.2978 46.4611 45.1885 47.3986 45.7158C48.3478 45.1416 48.8107 44.1924 48.8107 43.4424V43.126H49.9123V43.4424C49.9064 44.4502 50.6389 45.458 51.9982 45.8447L51.4709 46.6885C50.4279 46.3486 49.7189 45.6689 49.3498 44.8369C49.0275 45.6514 48.4006 46.4072 47.4279 46.7822C46.4201 46.4189 45.7873 45.71 45.465 44.8838C45.0842 45.6748 44.3752 46.3428 43.385 46.6885L42.8576 45.8447ZM43.5607 40.6299C43.5607 41.2275 44.0705 41.6084 44.8146 41.6143C45.5705 41.6084 46.0861 41.2275 46.0803 40.6299C46.0861 40.0029 45.5705 39.6279 44.8146 39.6338C44.0705 39.6279 43.5607 40.0029 43.5607 40.6299ZM55.1318 37.1025C56.5615 37.1084 57.5986 38.3154 57.7686 40.2549H59.9365V36.3174H61.0381V46.8408H59.9365V41.1572H57.7803C57.6572 43.208 56.5967 44.4795 55.1318 44.4736C53.5674 44.4795 52.46 43.0498 52.4717 40.7822C52.46 38.5381 53.5674 37.1084 55.1318 37.1025ZM53.5264 40.7822C53.5322 42.4521 54.1826 43.4775 55.1318 43.4775C56.0811 43.4775 56.7314 42.4521 56.7373 40.7822C56.7314 39.1357 56.0811 38.1045 55.1318 38.0986C54.1826 38.1045 53.5322 39.1357 53.5264 40.7822ZM71.9646 44.5791V45.5049H62.3553V44.5791H64.6521V41.8369C63.7908 41.3623 63.2635 40.6123 63.2693 39.6689C63.2635 38.0166 64.8865 36.9326 67.1365 36.9268C69.3924 36.9326 71.0154 38.0166 71.0154 39.6689C71.0154 40.5947 70.5115 41.3389 69.6678 41.8135V44.5791H71.9646ZM64.3475 39.6689C64.3475 40.7939 65.49 41.5264 67.1365 41.5322C68.7713 41.5264 69.9314 40.7939 69.9373 39.6689C69.9314 38.5381 68.7713 37.8174 67.1365 37.8174C65.49 37.8174 64.3475 38.5381 64.3475 39.6689ZM65.7537 44.5791H68.5428V42.2471C68.115 42.3467 67.6404 42.3994 67.1365 42.3994C66.6443 42.3994 66.1756 42.3467 65.7537 42.2471V44.5791ZM73.6217 45.9033C73.1646 45.8975 72.7838 45.5283 72.7896 45.0713C72.7838 44.6143 73.1646 44.2393 73.6217 44.2393C74.0728 44.2393 74.4478 44.6143 74.4537 45.0713C74.4478 45.5283 74.0728 45.8975 73.6217 45.9033ZM76.4857 45.9033C76.0287 45.8975 75.6478 45.5283 75.6537 45.0713C75.6478 44.6143 76.0287 44.2393 76.4857 44.2393C76.9369 44.2393 77.3119 44.6143 77.3178 45.0713C77.3119 45.5283 76.9369 45.8975 76.4857 45.9033ZM17.749 53.7978V54.6768C17.7373 55.5088 17.7373 56.376 17.4678 57.4658L16.3545 57.3369C16.6357 56.2705 16.6357 55.4971 16.6357 54.6885H10.4951V53.7978H17.749ZM9.38184 58.9072V58.0049H13.2139V56.1064H14.3037V58.0049H18.9326V58.9072H9.38184ZM10.542 63.6768L10.542 59.9619H17.7256V60.8525H11.667V62.7744H17.8662L17.8662 63.6768H10.542ZM27.3912 54.2432V59.1416H22.4811V54.2432H27.3912ZM23.5709 58.2627H26.3014V55.1455H23.5709V58.2627ZM23.6646 63.5947L23.6646 60.2666H24.7779V62.6924H30.7662V63.5947H23.6646ZM29.2076 61.0049V53.3057H30.3209V56.4463H31.8443V57.3838H30.3209V61.0049H29.2076ZM41.9506 57.4424V58.3564H40.3217V63.8057H39.2084V53.3174H40.3217V57.4424H41.9506ZM32.5404 61.1689V54.3369H33.642V60.2432C35.1068 60.2373 36.6361 60.1143 38.3061 59.7744L38.435 60.7119C36.6361 61.0693 34.9838 61.1748 33.4076 61.1689H32.5404ZM51.8225 61.5791V62.5049H42.2131V61.5791H44.51V58.8369C43.6486 58.3623 43.1213 57.6123 43.1271 56.6689C43.1213 55.0166 44.7443 53.9326 46.9943 53.9268C49.2502 53.9326 50.8732 55.0166 50.8732 56.6689C50.8732 57.5947 50.3693 58.3389 49.5256 58.8135V61.5791H51.8225ZM44.2053 56.6689C44.2053 57.7939 45.3478 58.5264 46.9943 58.5322C48.6291 58.5264 49.7893 57.7939 49.7951 56.6689C49.7893 55.5381 48.6291 54.8174 46.9943 54.8174C45.3478 54.8174 44.2053 55.5381 44.2053 56.6689ZM45.6115 61.5791H48.4006V59.2471C47.9728 59.3467 47.4982 59.3994 46.9943 59.3994C46.5021 59.3994 46.0334 59.3467 45.6115 59.2471V61.5791ZM53.4795 62.9033C53.0225 62.8975 52.6416 62.5283 52.6475 62.0713C52.6416 61.6143 53.0225 61.2393 53.4795 61.2393C53.9307 61.2393 54.3057 61.6143 54.3115 62.0713C54.3057 62.5283 53.9307 62.8975 53.4795 62.9033ZM14.4678 73.5752C14.3857 72.7842 13.6943 72.333 12.7217 72.333C11.6846 72.333 11.0283 72.8662 11.0225 73.5869C11.0225 74.3896 11.8955 74.7061 12.5693 74.8643L13.3896 75.0869C14.4736 75.3506 15.833 75.9424 15.8389 77.4775C15.833 78.9131 14.6904 79.9619 12.6865 79.9619C10.7881 79.9619 9.59277 79.0127 9.51074 77.4658H10.7998C10.876 78.3916 11.6963 78.8311 12.6865 78.8369C13.7705 78.8311 14.5557 78.2861 14.5615 77.4541C14.5557 76.7158 13.8525 76.417 12.9561 76.1768L11.9482 75.9072C10.583 75.5322 9.73926 74.8408 9.7334 73.6572C9.73926 72.1924 11.04 71.2197 12.7568 71.2197C14.4795 71.2197 15.6807 72.2041 15.7217 73.5752H14.4678ZM19.5584 79.9502C17.6834 79.9502 16.5291 78.6553 16.535 76.6807C16.5291 74.7236 17.701 73.376 19.4764 73.376C20.9236 73.376 22.3006 74.2725 22.3006 76.5752V77.0205H17.7771C17.8123 78.2334 18.5271 78.9189 19.5701 78.9189C20.2791 78.9189 20.742 78.6143 20.9529 78.2275H22.2186C21.9373 79.2588 20.9588 79.9502 19.5584 79.9502ZM17.783 76.083H21.0701C21.0701 75.1162 20.4432 74.4014 19.4881 74.4072C18.4861 74.4014 17.8357 75.1865 17.783 76.083ZM23.2428 79.8213V73.458H24.4498V74.4658H24.5201C24.7545 73.7861 25.3932 73.3584 26.1373 73.3643C26.2896 73.3584 26.5357 73.376 26.6646 73.3877V74.583C26.5592 74.5596 26.2662 74.5068 26.0084 74.5127C25.1412 74.5068 24.4967 75.1103 24.4967 75.9424V79.8213H23.2428ZM29.8334 79.9502C27.9584 79.9502 26.8041 78.6553 26.81 76.6807C26.8041 74.7236 27.976 73.376 29.7514 73.376C31.1986 73.376 32.5756 74.2725 32.5756 76.5752V77.0205H28.0521C28.0873 78.2334 28.8021 78.9189 29.8451 78.9189C30.5541 78.9189 31.017 78.6143 31.2279 78.2275H32.4936C32.2123 79.2588 31.2338 79.9502 29.8334 79.9502ZM28.058 76.083H31.3451C31.3451 75.1162 30.7182 74.4014 29.7631 74.4072C28.7611 74.4014 28.1107 75.1865 28.058 76.083ZM34.7717 76.0478V79.8213H33.5178V73.458H34.7248V74.501H34.7951C35.0939 73.8154 35.7209 73.376 36.6701 73.376C37.9768 73.376 38.8439 74.2021 38.8381 75.7783V79.8213H37.5959V75.9307C37.59 75.0049 37.092 74.4541 36.2482 74.4541C35.3869 74.4541 34.7717 75.0342 34.7717 76.0478ZM39.7686 78.0283C39.7627 76.5752 40.999 76.2002 42.1475 76.1182C42.5693 76.0947 43.5244 76.042 43.8174 76.0303L43.8115 75.5205C43.8174 74.7998 43.3721 74.3838 42.5225 74.3838C41.7842 74.3838 41.3389 74.7236 41.21 75.1924H39.9678C40.0791 74.1377 41.0635 73.376 42.5693 73.376C43.583 73.376 45.0596 73.7451 45.0654 75.5908L45.0654 79.8213H43.8467L43.8467 78.9541H43.7998C43.5537 79.4287 42.9678 79.9619 41.9131 79.9619C40.7061 79.9619 39.7627 79.2705 39.7686 78.0283ZM40.9873 78.04C40.9873 78.6494 41.4912 78.96 42.1943 78.9658C43.2139 78.96 43.8232 78.2803 43.8232 77.5244L43.8174 76.9443C43.5303 76.9619 42.6221 77.0264 42.3232 77.0439C41.5029 77.1025 40.9873 77.4131 40.9873 78.04ZM48.6561 79.9502C47.1209 79.9443 45.9959 78.708 45.9959 76.6572C45.9959 74.583 47.1385 73.376 48.6678 73.376C49.8514 73.376 50.2791 74.0908 50.5076 74.4893H50.5662V71.3369H51.8201L51.8201 79.8213H50.6014L50.6014 78.8252H50.5076C50.2732 79.2412 49.8162 79.9443 48.6561 79.9502ZM47.2732 76.6338C47.2674 77.9111 47.8416 78.8779 48.9373 78.8838C50.0037 78.8779 50.6014 77.9697 50.6014 76.6338C50.6014 75.3096 50.0154 74.4365 48.9373 74.4424C47.8299 74.4365 47.2674 75.3799 47.2732 76.6338ZM55.8912 79.9502C54.0162 79.9502 52.8619 78.6553 52.8678 76.6807C52.8619 74.7236 54.0338 73.376 55.8092 73.376C57.2564 73.376 58.6334 74.2725 58.6334 76.5752V77.0205H54.11C54.1451 78.2334 54.86 78.9189 55.9029 78.9189C56.6119 78.9189 57.0748 78.6143 57.2857 78.2275H58.5514C58.2701 79.2588 57.2916 79.9502 55.8912 79.9502ZM54.1158 76.083H57.4029C57.4029 75.1162 56.776 74.4014 55.8209 74.4072C54.8189 74.4014 54.1686 75.1865 54.1158 76.083ZM63.1498 75.1924C63.0326 74.6885 62.6342 74.3603 61.9428 74.3603C61.2279 74.3603 60.7182 74.7295 60.724 75.2158C60.7182 75.5908 61.017 75.8603 61.7201 76.0244L62.7279 76.2588C63.8998 76.5225 64.4682 77.0791 64.474 77.9814C64.4682 79.1299 63.4955 79.9502 61.8725 79.9502C60.3432 79.9502 59.4408 79.2705 59.2826 78.0869H60.56C60.6713 78.6611 61.1049 78.9482 61.8607 78.9424C62.6693 78.9482 63.1908 78.6084 63.1967 78.0752C63.1908 77.665 62.8861 77.4014 62.2123 77.2432L61.2162 77.0322C60.0678 76.7803 59.4701 76.165 59.4701 75.2861C59.4701 74.1553 60.4545 73.376 61.9311 73.376C63.349 73.376 64.2338 74.0967 64.3568 75.1924H63.1498ZM70.4951 79.9385C68.79 79.9385 67.7412 78.9307 67.7412 77.5713C67.7412 76.5518 68.4092 75.9307 69.3818 75.2686C68.8428 74.6123 68.4502 74.0146 68.4443 73.2588C68.4502 72.0811 69.2939 71.2432 70.5889 71.2432C71.8955 71.2432 72.6982 72.0986 72.6982 73.0947C72.6982 73.9033 72.2764 74.4951 71.5732 75.0049L70.9873 75.4326L72.6865 77.46C72.9033 77.0381 73.0381 76.5342 73.0381 75.9658H74.1631C74.1631 77.1436 73.8232 77.8994 73.4541 78.3799L74.667 79.8213H73.2607L72.6865 79.1475C72.1064 79.6865 71.2627 79.9385 70.4951 79.9385ZM68.9951 77.5361C68.9893 78.2627 69.5869 78.8838 70.5068 78.8838C71.0225 78.8838 71.5498 78.6846 71.9834 78.3271L70.085 76.1006L69.874 76.2588C69.2061 76.751 68.9893 77.2666 68.9951 77.5361ZM69.6162 73.2705C69.6162 73.7041 69.9209 74.1377 70.3076 74.6123L70.8232 74.2432C71.2861 73.9385 71.5615 73.6279 71.5615 73.1299C71.5615 72.7314 71.1865 72.2861 70.6123 72.2861C70.0264 72.292 69.6162 72.7842 69.6162 73.2705ZM9.85059 96.8213L9.85059 88.3369H12.9561C14.7666 88.3369 15.6396 89.3037 15.6396 90.5635C15.6396 91.624 14.9893 92.1572 14.21 92.3564V92.4385C15.0537 92.4853 15.9678 93.2236 15.9678 94.5361C15.9678 95.8369 15.0771 96.8213 13.0967 96.8213H9.85059ZM11.1396 95.7197H12.9795C14.1982 95.7139 14.6904 95.1807 14.6904 94.4775C14.6904 93.6631 14.0459 93.0127 13.0264 93.0127H11.1396V95.7197ZM11.1396 92.0049H12.8506C13.7061 91.999 14.374 91.4834 14.374 90.6689C14.374 89.9658 13.8877 89.4385 12.874 89.4385H11.1396V92.0049ZM19.6404 96.9502C17.8357 96.9502 16.658 95.6377 16.6639 93.6689C16.658 91.6885 17.8357 90.376 19.6404 90.376C21.4334 90.376 22.6053 91.6885 22.6053 93.6689C22.6053 95.6377 21.4334 96.9502 19.6404 96.9502ZM17.9178 93.6689C17.9178 94.8818 18.4744 95.9072 19.6404 95.9072C20.7889 95.9072 21.3396 94.8818 21.3396 93.6689C21.3396 92.4502 20.7889 91.4131 19.6404 91.4072C18.4744 91.4131 17.9178 92.4502 17.9178 93.6689ZM25.9146 96.9502C24.3795 96.9443 23.2545 95.708 23.2545 93.6572C23.2545 91.583 24.3971 90.376 25.9264 90.376C27.11 90.376 27.5377 91.0908 27.7662 91.4893H27.8248V88.3369H29.0787V96.8213H27.86V95.8252H27.7662C27.5318 96.2412 27.0748 96.9443 25.9146 96.9502ZM24.5318 93.6338C24.526 94.9111 25.1002 95.8779 26.1959 95.8838C27.2623 95.8779 27.86 94.9697 27.86 93.6338C27.86 92.3096 27.274 91.4365 26.1959 91.4424C25.0885 91.4365 24.526 92.3799 24.5318 93.6338ZM31.1811 99.2119C30.9232 99.206 30.6713 99.2002 30.5131 99.1768V98.1338C30.6537 98.1455 30.8998 98.1514 31.0756 98.1572C31.4623 98.1514 31.7846 98.1279 32.0834 97.3252L32.2357 96.9033L29.9037 90.458H31.2396L32.8451 95.3916H32.9154L34.5209 90.458H35.8686L33.2436 97.665C32.8744 98.6728 32.2299 99.206 31.1811 99.2119ZM39.3232 96.8213V88.3369H42.3467C44.3213 88.3369 45.2881 89.4326 45.2881 90.9971C45.2881 92.1396 44.7725 93.001 43.7412 93.3936L45.6162 96.8213H44.1514L42.4287 93.6221H42.3467H40.6123V96.8213H39.3232ZM40.6123 92.5088H42.2178C43.4658 92.5029 43.9873 91.9521 43.9873 90.9971C43.9873 90.042 43.4658 89.4443 42.2178 89.4385H40.6123V92.5088ZM48.9256 96.9502C47.1209 96.9502 45.9432 95.6377 45.949 93.6689C45.9432 91.6885 47.1209 90.376 48.9256 90.376C50.7186 90.376 51.8904 91.6885 51.8904 93.6689C51.8904 95.6377 50.7186 96.9502 48.9256 96.9502ZM47.2029 93.6689C47.2029 94.8818 47.7596 95.9072 48.9256 95.9072C50.074 95.9072 50.6248 94.8818 50.6248 93.6689C50.6248 92.4502 50.074 91.4131 48.9256 91.4072C47.7596 91.4131 47.2029 92.4502 47.2029 93.6689ZM54.0748 88.3369V96.8213H52.8209V88.3369H54.0748ZM56.5521 88.3369V96.8213H55.2982V88.3369H56.5521ZM61.3498 92.1924C61.2326 91.6885 60.8342 91.3603 60.1428 91.3603C59.4279 91.3603 58.9182 91.7295 58.924 92.2158C58.9182 92.5908 59.217 92.8603 59.9201 93.0244L60.9279 93.2588C62.0998 93.5225 62.6682 94.0791 62.674 94.9814C62.6682 96.1299 61.6955 96.9502 60.0725 96.9502C58.5432 96.9502 57.6408 96.2705 57.4826 95.0869H58.76C58.8713 95.6611 59.3049 95.9482 60.0607 95.9424C60.8693 95.9482 61.3908 95.6084 61.3967 95.0752C61.3908 94.665 61.0861 94.4014 60.4123 94.2432L59.4162 94.0322C58.2678 93.7803 57.6701 93.165 57.6701 92.2861C57.6701 91.1553 58.6545 90.376 60.1311 90.376C61.549 90.376 62.4338 91.0967 62.5568 92.1924H61.3498ZM74.0975 87.3174V89.626H75.6209V90.5518H74.0975V92.6494H72.9842V87.3174H74.0975ZM66.2576 92.3096V87.9971H71.1678V92.3096H66.2576ZM66.9021 97.5361V93.5635H67.992V96.6221C68.6072 96.5928 69.3162 96.5049 69.9842 96.2822L70.1482 97.1611C69.1697 97.4951 68.2264 97.5361 67.4412 97.5361H66.9021ZM67.3475 91.4189H70.0779V88.8877H67.3475V91.4189ZM69.785 94.501V93.6807H71.9061V92.8018H72.9959V93.6807H75.0818V94.501H69.785ZM70.4529 96.3174C70.4412 95.4092 71.2498 94.8525 72.4334 94.8408C73.5936 94.8525 74.4139 95.4092 74.4139 96.3174C74.4139 97.2256 73.5936 97.7939 72.4334 97.7939C71.2498 97.7939 70.4412 97.2256 70.4529 96.3174ZM71.4373 96.3174C71.4373 96.7627 71.8533 97.0322 72.4334 97.0322C73.0018 97.0322 73.4119 96.7627 73.4178 96.3174C73.4119 95.8838 73.0018 95.626 72.4334 95.6143C71.8533 95.626 71.4373 95.8838 71.4373 96.3174ZM81.7662 88.1143V88.7002C81.7545 89.4033 81.7545 90.4463 81.4967 91.8057L80.3951 91.7002C80.6236 90.54 80.6588 89.6904 80.6705 89.0283H76.4693V88.1143H81.7662ZM75.8365 92.708C76.4811 92.708 77.2135 92.7021 77.9811 92.6846V90.4697H79.0826V92.6494C80.2076 92.6025 81.3678 92.5205 82.4225 92.3682L82.4928 93.1768C80.3014 93.5635 77.7936 93.6045 75.942 93.6103L75.8365 92.708ZM77.4303 97.5947V94.4893H78.5436V96.6924H84.567V97.5947H77.4303ZM83.0904 95.2041V87.3174H84.2271V90.6572H85.6686V91.5947H84.2271V95.2041H83.0904ZM18.9678 110.493V111.372H14.6787V114.817H13.5889V111.372H9.3584V110.493H18.9678ZM10.5537 109.298V104.739H11.6553V106.11H16.6475V104.739H17.7607V109.298H10.5537ZM11.6553 108.407H16.6475V107.001H11.6553V108.407ZM12.6162 130.938C11.0107 130.938 9.80371 129.96 9.74512 128.606H10.999C11.0693 129.327 11.7607 129.854 12.6162 129.86C13.6475 129.854 14.3857 129.11 14.3857 128.103C14.3857 127.071 13.624 126.321 12.5576 126.31C11.8779 126.31 11.3564 126.538 11.0693 127.06H9.85059L10.4014 122.337H15.2061V123.438H11.4678L11.1865 125.817H11.2686C11.6201 125.478 12.2178 125.249 12.8623 125.243C14.4619 125.249 15.6396 126.433 15.6396 128.067C15.6396 129.737 14.3857 130.938 12.6162 130.938ZM17.2381 130.903C16.7811 130.897 16.4002 130.528 16.4061 130.071C16.4002 129.614 16.7811 129.239 17.2381 129.239C17.6893 129.239 18.0643 129.614 18.0701 130.071C18.0643 130.528 17.6893 130.897 17.2381 130.903ZM19.2701 130.821V129.884L22.2115 126.919C23.1432 125.952 23.6061 125.413 23.6061 124.669C23.6061 123.831 22.9264 123.298 22.0357 123.298C21.0924 123.298 20.4947 123.896 20.4889 124.798H19.2701C19.2584 123.245 20.442 122.22 22.0592 122.22C23.6939 122.22 24.8248 123.257 24.8365 124.634C24.8248 125.583 24.3795 126.339 22.7857 127.903L21.0631 129.649V129.72H24.9771V130.821H19.2701ZM29.1186 130.938C27.3607 130.938 26.1127 129.995 26.06 128.606H27.3725C27.4193 129.351 28.1576 129.825 29.1068 129.825C30.1322 129.825 30.8764 129.269 30.8764 128.442C30.8764 127.604 30.1791 127.007 28.9662 127.001H28.2396V125.946H28.9662C29.933 125.952 30.6068 125.413 30.6068 124.599C30.6068 123.825 30.0268 123.298 29.1303 123.298C28.2807 123.298 27.5189 123.772 27.4896 124.54H26.2475C26.2826 123.157 27.56 122.22 29.142 122.22C30.8119 122.22 31.8607 123.274 31.849 124.528C31.8607 125.495 31.2631 126.187 30.349 126.415V126.474C31.5092 126.638 32.183 127.417 32.1771 128.489C32.183 129.901 30.8764 130.938 29.1186 130.938ZM33.5646 127.587C33.5764 125.378 34.2033 123.544 35.299 121.974H36.4475C35.6389 123.134 34.8654 125.495 34.8654 127.587C34.8654 129.685 35.6389 132.046 36.4475 133.212H35.299C34.2033 131.636 33.5764 129.802 33.5646 127.587ZM42.0186 124.575C41.9365 123.784 41.2451 123.333 40.2725 123.333C39.2353 123.333 38.5791 123.866 38.5732 124.587C38.5732 125.39 39.4463 125.706 40.1201 125.864L40.9404 126.087C42.0244 126.351 43.3838 126.942 43.3896 128.478C43.3838 129.913 42.2412 130.962 40.2373 130.962C38.3389 130.962 37.1436 130.013 37.0615 128.466H38.3506C38.4268 129.392 39.2471 129.831 40.2373 129.837C41.3213 129.831 42.1064 129.286 42.1123 128.454C42.1064 127.716 41.4033 127.417 40.5068 127.177L39.499 126.907C38.1338 126.532 37.29 125.841 37.2842 124.657C37.29 123.192 38.5908 122.22 40.3076 122.22C42.0303 122.22 43.2314 123.204 43.2725 124.575H42.0186ZM45.1287 130.821H43.7576L46.8045 122.337H48.2928L51.3514 130.821H49.9803L49.2068 128.583H45.9021L45.1287 130.821ZM46.2713 127.505H48.8318L47.5779 123.884H47.5193L46.2713 127.505ZM50.6881 123.45V122.337H57.2623V123.45H54.6256V130.821H53.3365V123.45H50.6881ZM60.6771 127.587C60.6654 129.802 60.0385 131.636 58.9428 133.212H57.7943C58.6029 132.046 59.3764 129.685 59.3764 127.587C59.3764 125.495 58.6029 123.134 57.7943 121.974H58.9428C60.0385 123.544 60.6654 125.378 60.6771 127.587ZM62.5217 126.356C62.9143 125.923 63.3889 125.7 63.9162 125.7C64.8303 125.7 65.6389 126.368 66.5295 126.368C67.0627 126.368 67.5314 126.128 67.9006 125.665V126.79C67.508 127.224 67.0334 127.446 66.5061 127.446C65.592 127.446 64.7775 126.778 63.8811 126.778C63.3596 126.778 62.8908 127.019 62.5217 127.481V126.356ZM72.3584 130.938C70.7529 130.938 69.5459 129.96 69.4873 128.606H70.7412C70.8115 129.327 71.5029 129.854 72.3584 129.86C73.3896 129.854 74.1279 129.11 74.1279 128.103C74.1279 127.071 73.3662 126.321 72.2998 126.31C71.6201 126.31 71.0986 126.538 70.8115 127.06H69.5928L70.1436 122.337H74.9482V123.438H71.21L70.9287 125.817H71.0107C71.3623 125.478 71.96 125.249 72.6045 125.243C74.2041 125.249 75.3818 126.433 75.3818 128.067C75.3818 129.737 74.1279 130.938 72.3584 130.938ZM76.9803 130.903C76.5232 130.897 76.1424 130.528 76.1482 130.071C76.1424 129.614 76.5232 129.239 76.9803 129.239C77.4314 129.239 77.8064 129.614 77.8123 130.071C77.8064 130.528 77.4314 130.897 76.9803 130.903ZM79.0123 130.821V129.884L81.9537 126.919C82.8853 125.952 83.3482 125.413 83.3482 124.669C83.3482 123.831 82.6686 123.298 81.7779 123.298C80.8346 123.298 80.2369 123.896 80.2311 124.798H79.0123C79.0006 123.245 80.1842 122.22 81.8014 122.22C83.4361 122.22 84.567 123.257 84.5787 124.634C84.567 125.583 84.1217 126.339 82.5279 127.903L80.8053 129.649V129.72H84.7193V130.821H79.0123ZM85.474 129.169V128.126L89.224 122.337H90.8178V128.079H91.9779V129.169H90.8178V130.821H89.599V129.169H85.474ZM86.8334 128.079H89.599V123.872H89.5053L86.8334 128.009V128.079ZM10.0029 144.587C10.0146 142.378 10.6416 140.544 11.7373 138.974H12.8857C12.0771 140.134 11.3037 142.495 11.3037 144.587C11.3037 146.685 12.0771 149.046 12.8857 150.212H11.7373C10.6416 148.636 10.0146 146.802 10.0029 144.587ZM18.4568 141.575C18.3748 140.784 17.6834 140.333 16.7107 140.333C15.6736 140.333 15.0174 140.866 15.0115 141.587C15.0115 142.39 15.8846 142.706 16.5584 142.864L17.3787 143.087C18.4627 143.351 19.8221 143.942 19.8279 145.478C19.8221 146.913 18.6795 147.962 16.6756 147.962C14.7771 147.962 13.5818 147.013 13.4998 145.466H14.7889C14.865 146.392 15.6854 146.831 16.6756 146.837C17.7596 146.831 18.5447 146.286 18.5506 145.454C18.5447 144.716 17.8416 144.417 16.9451 144.177L15.9373 143.907C14.5721 143.532 13.7283 142.841 13.7225 141.657C13.7283 140.192 15.0291 139.22 16.7459 139.22C18.4686 139.22 19.6697 140.204 19.7107 141.575H18.4568ZM26.36 139.337H27.649V144.915C27.6549 146.696 26.3131 147.962 24.2857 147.962C22.2408 147.962 20.9049 146.696 20.9107 144.915V139.337H22.1998V144.81C22.1939 145.958 22.9967 146.784 24.2857 146.79C25.5689 146.784 26.36 145.958 26.36 144.81V139.337ZM35.9271 139.337V147.821H34.7436L30.4428 141.622H30.3725V147.821H29.0834V139.337H30.2787L34.5795 145.548H34.6615V139.337H35.9271ZM39.7639 144.587C39.7521 146.802 39.1252 148.636 38.0295 150.212H36.8811C37.6896 149.046 38.4631 146.685 38.4631 144.587C38.4631 142.495 37.6896 140.134 36.8811 138.974H38.0295C39.1252 140.544 39.7521 142.378 39.7639 144.587Z" fill="#1A1C20"/>
<path d="M43.1131 148.661H55.1131V136.661H43.1131V148.661ZM54.8131 148.661H66.8131V136.661H54.8131V148.661ZM66.5131 148.661H78.5131L78.5131 136.661H66.5131V148.661Z" fill="#3C3E41"/>
</svg>
