<svg width="105" height="160" viewBox="0 0 105 160" fill="none" xmlns="http://www.w3.org/2000/svg">
<rect width="105" height="160" rx="5.0392" fill="#EDE1FA"/>
<path d="M53.5132 90.5313C53.5611 88.8318 53.8763 84.6505 55.0551 80.8859C55.393 79.807 56.5659 79.0164 57.9554 78.063C59.965 76.6843 63.8143 77.4496 65.7812 77.6997C68.5269 78.0486 71.6001 75.1251 76.2301 74.3944C82.1449 73.4609 84.9155 75.2919 88.9564 77.503C91.4282 78.8556 92.6113 80.976 93.6162 83.0837C94.97 85.9231 90.0941 90.3836 87.7848 92.8678C86.3605 94.3999 88.7959 96.794 90.242 99.5954C91.1691 101.391 90.3778 104.369 88.76 107.416C88.184 108.5 88.2074 109.467 87.984 110.242C87.091 113.342 79.7046 111.474 74.6681 110.256C70.2286 109.183 67.2594 105.408 65.6834 104.33C64.0364 103.204 62.3214 104.861 60.6271 105.662C58.3308 106.747 55.6494 106.601 52.6699 106.278C51.0061 106.098 50.159 104.277 49.5103 102.97C48.7713 101.482 49.6784 98.6811 50.2611 96.2161C50.5899 95.4799 51.0697 94.9849 51.6786 94.5148C51.9836 94.2436 52.2804 93.9063 52.8352 92.8701" stroke="#A7A7A7" stroke-linecap="round"/>
<path d="M69.358 83.8795C69.2117 84.2395 68.9274 87.6428 69.3138 90.265C69.3647 90.6098 69.6109 90.734 69.8493 90.6998C71.3058 90.4909 71.9529 88.2545 72.2821 86.5404C72.357 86.1508 72.2237 85.8288 72.05 85.5722C71.6924 85.0439 70.838 84.8239 69.9283 84.6773C69.0801 84.5405 68.1792 84.8875 67.3115 85.2748C66.5304 85.6235 65.8995 86.5438 65.3491 87.6444C64.916 88.5104 65.0816 89.4761 65.3874 90.2405C65.5196 90.5711 65.9314 90.6023 66.284 90.5743C67.017 90.5161 67.8177 89.9412 68.6335 89.2005C69.4565 88.4532 69.7509 87.3555 69.9535 86.3942C70.1621 85.4042 69.7844 84.5689 69.3607 83.9934C69.126 83.6748 68.7216 83.4089 68.1938 83.2823C67.666 83.1557 66.9938 83.2037 66.4423 83.4719C65.3426 84.0067 64.912 85.243 64.7068 86.4115C64.459 87.8225 64.8373 88.9601 65.154 89.5305C65.4586 90.0789 66.1708 90.2228 66.8797 90.2868C67.7353 90.3641 68.5951 89.9854 69.3596 89.3174C70.3284 88.4709 70.5985 87.1493 70.6527 86.061C70.7121 84.8659 69.9691 83.6882 69.0298 82.7017C68.1212 81.7476 66.6332 81.5991 65.2409 81.595C63.9408 81.5912 62.9011 82.0648 62.1947 82.5158C60.9688 83.2986 61.3691 85.9732 61.72 87.7634C61.8447 88.4 62.5382 88.742 63.1896 89.0086C63.8484 89.2783 64.8362 88.8763 65.9376 88.3879C67.0091 87.9127 67.6759 87.1315 68.0083 86.2988C68.3723 85.3871 68.0293 84.3354 67.5799 83.4522C67.1272 82.5625 66.3068 82.1133 65.7011 81.7894C65.0681 81.4509 64.322 81.5233 63.6866 81.6352C62.9756 81.7604 62.587 82.416 62.3517 82.948C62.0481 83.6344 62.1097 84.4686 62.1502 85.1272C62.1823 85.65 62.5198 86.0097 62.8769 86.2647C63.2314 86.518 63.8211 86.4702 64.4556 86.3758C65.1428 86.2735 65.6928 85.5564 66.1597 84.9066C66.5317 84.3889 66.5311 83.6452 66.4512 82.7555C66.3595 81.7348 65.7835 80.9229 65.277 80.4197C64.8862 80.0315 64.3335 80.0086 63.7755 80.04C63.4809 80.0565 63.1678 80.134 62.8765 80.4173C61.5134 81.7426 62.0911 83.24 62.2292 83.7383C62.2979 83.986 62.5168 84.1672 62.7673 84.2677C63.2999 84.4815 64.1284 84.1479 64.9538 83.7037C65.5927 83.36 65.865 82.5681 65.9957 81.6817C66.2188 80.1689 64.9961 79.2512 64.4456 78.8367C64.1879 78.6427 63.8562 78.6697 63.6204 78.7512C63.1704 78.9068 62.9465 79.4194 62.7265 80.1624C62.335 81.4844 62.4934 82.6014 62.7384 83.0188C63.0394 83.5319 63.691 83.6225 64.1459 83.5727C64.396 83.5453 64.6431 83.3152 64.8027 83.1144C65.0937 82.7483 65.0375 82.1122 64.8477 81.3875C64.6382 80.5876 63.8875 80.0995 63.3459 79.6819C63.0666 79.4665 62.709 79.3422 62.3299 79.4414C61.4529 79.6708 60.9321 80.5339 60.6075 81.0899C60.3166 81.5882 60.3345 82.332 60.4319 83.003C60.4694 83.2608 60.7242 83.2854 60.9035 83.2178C61.2935 83.0707 61.4575 82.5251 61.5392 81.9911C61.6201 81.4624 61.5045 80.8691 61.3436 80.3002C61.2694 80.038 61.1124 79.8624 60.9284 79.8709C60.7443 79.8793 60.5128 80.0855 60.3645 80.324C59.7977 81.2357 60.1613 82.2154 60.3953 82.7374C60.5054 82.9829 60.8435 83.0367 61.0939 83.057C61.3443 83.0772 61.5595 83.0232 61.7262 82.8706C61.893 82.7179 62.0047 82.4681 62.0467 82.2318C62.2178 81.2675 60.9274 80.1027 59.8224 79.1773C59.6011 78.992 59.3682 78.9967 59.166 79.0725C58.002 79.5089 57.7015 81.6927 57.5868 82.7257C57.5609 82.9585 57.7716 83.1905 58.1306 83.2236C59.0767 83.3109 59.901 82.7174 60.29 82.3373C60.6281 82.0068 60.6194 81.3852 60.6066 80.7757C60.5943 80.1922 60.1264 79.7205 59.7119 79.3468C59.5109 79.1656 59.2349 79.1223 58.9258 79.2697C57.4476 79.9746 57.3309 81.7973 57.173 83.1211C57.141 83.3887 57.2378 83.6051 57.3538 83.7801C57.4699 83.9551 57.6464 84.0839 57.9947 84.1329C58.8496 84.2533 59.8033 83.9068 60.564 83.4628C61.2484 83.0634 61.558 82.4433 61.7281 81.9499C61.8987 81.455 61.6726 80.9728 61.391 80.5528C61.0299 80.014 60.5617 79.671 60.1041 79.5646C59.6086 79.4495 59.0912 79.6763 58.6507 80.0035C57.6869 80.7194 57.699 82.0737 57.7852 82.6533C57.8244 82.9165 57.9659 83.0941 58.4151 83.1785C59.6259 83.4061 60.8779 82.972 61.6833 82.4217C62.4628 81.889 62.8268 81.1454 63.0176 80.5586C63.1135 80.2636 63.0825 79.9404 63.0203 79.7C62.9581 79.4597 62.8337 79.3033 62.6305 79.1901C62.4274 79.0769 62.1492 79.0116 61.9142 79.0346C61.4765 79.0775 60.8898 79.7573 60.163 80.626C59.6048 81.2932 59.4712 82.0651 59.5838 82.6793C59.6272 82.9158 59.9218 82.9026 60.2614 82.6564C60.6011 82.4103 61.0483 81.9068 61.2627 81.2579C61.7143 79.891 61.2779 78.8388 60.9732 78.5437C60.8287 78.4038 60.5998 78.4176 60.388 78.4613C59.4148 78.6621 58.6792 80.7809 58.2427 83.2487C58.1609 83.7115 58.3693 83.9588 58.6032 83.9787C58.8372 83.9986 59.183 83.7909 59.4292 83.5225C59.6755 83.254 59.8118 82.9312 59.8395 82.5786C59.8672 82.2259 59.7823 81.8533 59.647 81.579C59.5116 81.3047 59.3284 81.1401 59.1018 81.0238C58.6366 80.7851 57.99 80.8929 57.3594 81.1519C56.8189 81.374 56.4793 82.074 56.1923 82.8452C55.9728 83.4352 56.021 83.9464 56.1785 84.3326C56.2663 84.5482 56.6507 84.6259 56.9587 84.5122C57.2667 84.3984 57.5583 84.0454 57.7085 83.731C57.9666 83.1909 57.6959 82.5567 57.3687 81.9884C57.2208 81.7316 57.0432 81.5803 56.8595 81.6655C55.3864 82.3483 55.9551 84.8017 56.0979 85.3134C56.1713 85.5763 56.4173 85.7826 56.8375 85.8884C57.2578 85.9942 57.8885 85.9771 58.3393 85.8582C58.7902 85.7392 59.042 85.5188 59.2145 85.2728C59.543 84.804 59.4951 84.1658 59.3022 83.6093C59.215 83.3578 58.9868 83.241 58.6255 83.1558C58.2642 83.0707 57.7352 83.0392 57.2896 83.1593C56.4364 83.3891 55.9846 84.1154 55.6757 84.9082C55.2137 86.0943 55.2351 87.2113 55.3274 87.8173C55.3735 88.12 55.6042 88.3697 55.8413 88.5225C56.0784 88.6753 56.3625 88.7128 56.6311 88.5922C56.8996 88.4716 57.144 88.1918 57.2834 87.9401C57.4229 87.6884 57.45 87.4732 57.3625 87.224C57.2751 86.9748 57.0722 86.6982 56.8703 86.5345C56.6684 86.3708 56.4736 86.3285 56.27 86.5249C54.8925 87.8536 55.2594 90.1336 55.3209 90.9276C55.3463 91.2554 55.5056 91.4108 55.7593 91.4932C56.013 91.5756 56.3937 91.5754 56.7165 91.4658C57.3445 91.2527 57.7264 90.498 58.0037 89.6634C58.1404 89.252 58.1399 88.8277 58.0259 88.4199C57.9119 88.0121 57.6516 87.624 57.3604 87.4067C57.0692 87.1895 56.7552 87.1549 56.486 87.1505C56.2169 87.1461 56.0022 87.173 55.754 87.3932C54.1302 88.8347 54.3392 91.9395 54.6311 93.2275C54.6912 93.4925 54.9562 93.6008 55.1587 93.6733C55.3612 93.7459 55.5764 93.7459 55.7792 93.6793C56.9762 93.2862 58.0144 90.6142 58.4056 87.2988C58.4613 86.8264 58.2346 87.0115 58.0595 87.3147C57.1206 88.9415 56.6713 92.2263 56.7914 93.8648C56.9028 95.3843 59.1195 90.4581 59.3435 88.2293C59.5561 86.1139 58.687 94.5454 58.8359 95.3956C58.9054 95.7924 59.1433 96.0763 59.35 96.1101C60.6626 96.3244 60.9742 92.7209 61.251 89.054C61.2939 88.4861 61.0471 88.6193 60.8893 89.2277C59.9739 92.7561 60.6444 96.0461 61.2343 97.5105C61.3366 97.7644 61.6656 97.8477 61.9456 97.9215C62.525 98.0742 63.2911 97.7398 64.0759 97.1801C64.8149 96.653 65.1415 95.6597 65.3644 94.5211C65.6222 93.204 65.2131 91.8777 64.7591 90.8794C64.5567 90.4344 64.3123 90.1631 64.169 90.3085C62.7669 91.7306 65.0142 94.9086 66.526 96.9772C67.2007 97.9004 68.1059 98.0711 68.5836 97.9985C69.6566 97.8353 69.9737 95.0849 69.8378 92.417C69.7613 90.9168 68.5644 89.8456 67.7792 89.2457C67.4758 89.0138 67.2418 89.1182 67.0859 89.4054C65.6563 92.0375 67.1807 96.6484 67.9097 97.5081C68.2257 97.8808 69.1415 97.2903 70.0558 96.5724C71.5118 94.3905 72.0317 92.1146 72.0418 90.6076C72.0118 90.0242 71.9106 89.809 71.6696 89.4027" stroke="#A7A7A7" stroke-width="3" stroke-linecap="round"/>
<path d="M71.4286 89.9397C71.6162 90.2979 71.8851 90.6797 72.3199 91.0362C72.8371 91.4603 73.736 91.4123 74.6308 91.2821C75.555 91.1475 76.3782 90.3773 77.1818 89.5932C77.9698 88.8245 78.3787 87.8141 78.679 86.8153C79 85.7481 78.9504 84.9023 78.9013 84.5484C78.883 84.4161 78.7543 84.4119 78.6183 84.4631C78.2917 84.5859 77.8409 85.1726 77.3188 86.0124C76.8485 86.7689 76.7499 87.5076 76.7616 88.0474C76.7672 88.3044 76.9251 88.512 77.1304 88.6844C77.5714 89.0548 78.3462 89.1142 79.107 89.0879C79.6689 89.0684 80.675 88.6185 82.0405 87.9315C83.0948 87.401 83.541 86.5004 83.7919 85.7407C84.0354 85.0032 83.7421 84.4152 83.513 84.1439C83.2806 83.8689 82.674 83.876 81.959 83.9687C81.2773 84.057 80.6444 84.565 80.0135 85.0934C79.4263 85.5852 79.1015 86.2328 78.8891 86.7955C78.79 87.0583 78.8365 87.3144 78.9159 87.5126C78.9953 87.7107 79.1389 87.8533 79.3664 87.9504C79.8756 88.1679 80.7491 88.0031 81.7732 87.6677C82.7494 87.3481 83.5924 86.6592 84.4924 85.9291C86.2928 84.4687 86.4714 83.5273 86.478 83.2932C86.4806 83.1988 86.3353 83.1789 86.1641 83.22C85.2164 83.4481 84.5761 84.7078 84.2205 85.7939C84.1357 86.0528 84.204 86.3308 84.2627 86.512C84.3213 86.6933 84.4222 86.7813 84.5771 86.8404C85.2368 87.0921 86.8462 86.3568 88.2229 85.4655C88.7036 85.1542 88.92 84.7007 89.0728 84.4283C89.1381 84.3119 89.1415 84.2211 89.0507 84.1898C88.9599 84.1586 88.7653 84.1848 88.5897 84.289C87.838 84.7351 87.8016 85.4866 87.7486 85.7523C87.725 85.8704 87.7512 85.961 87.8398 85.9919C88.076 86.074 88.3695 85.8735 88.5729 85.6831C89.1001 85.1896 89.3729 84.1836 89.4464 83.2997C89.4879 82.8 89.2418 82.3981 89.315 82.0944C89.4867 81.382 90.8574 83.2821 90.9895 83.7677C91.0469 83.9788 90.9577 84.1989 90.8826 84.3991C90.814 84.582 90.167 85.1052 88.8839 86.1786C88.1642 86.7806 87.393 87.5998 86.7763 88.1672C85.7758 89.0879 85.0527 89.5582 84.5024 89.9792C83.284 90.9113 83.0671 91.7165 83.0253 91.8057C83.0177 91.822 83.0954 91.6468 83.3098 90.8605C83.5242 90.0743 83.8878 88.6484 84.0842 87.5989C84.2805 86.5493 84.2986 85.9193 84.2293 85.2167C84.0844 83.7475 83.569 82.6558 82.9391 82.0531C82.2583 81.4017 81.2266 81.2608 80.303 81.1982C79.4215 81.1384 78.5457 81.4646 77.728 81.9086C76.9719 82.3193 76.5288 82.9158 76.2795 83.4249C76.0545 83.8845 76.2161 84.3304 76.3863 84.6329C76.5847 84.9855 77.1133 85.1298 77.8539 85.1582C78.924 85.1991 79.9042 84.7794 80.5831 84.3736C81.2437 83.9788 81.6178 83.3354 81.8102 82.7215C81.9873 82.1568 81.6798 81.602 81.3318 81.1781C80.6661 80.3672 79.2032 80.468 77.8379 80.7602C77.073 80.9239 76.3979 81.43 75.7957 81.8122C74.6899 82.514 74.2412 83.6219 74.2816 83.8182C74.3225 84.0166 74.6722 84.1104 75.0973 84.1872C76.3138 84.4071 77.7837 83.4179 78.5587 82.4997C78.7237 82.3042 78.6727 82.0372 78.6114 81.8128C78.4841 81.3465 77.9557 80.9836 77.1854 80.7145C76.1873 80.3657 74.9782 80.5805 73.912 80.6939C72.9122 80.8003 72.0133 81.1916 71.2253 81.5247C70.5828 81.7964 70.176 82.1196 69.9355 82.3997C69.8259 82.5273 69.7885 82.6621 69.7732 82.7689C69.7579 82.8757 69.7778 82.9598 69.8803 82.9957C70.526 83.222 71.2227 82.3306 71.6482 81.8703C71.8201 81.6843 71.8112 81.5198 71.7593 81.4029C71.6525 81.1626 71.2817 81.0739 70.643 81.0015C69.4821 80.87 68.3316 80.9902 67.3868 81.1487C66.8466 81.2393 66.1956 81.4185 65.8715 81.4642C65.5473 81.5099 65.573 81.434 65.6128 81.3581C65.6947 81.2022 65.8102 81.0484 66.1299 80.9173C67.5131 80.3504 68.4139 80.6599 68.8278 80.451C69.226 80.2501 69.2568 79.6823 70.3777 79.0476C71.196 78.5843 72.841 77.956 73.7806 77.5473C74.9422 77.0421 75.6178 76.7061 76.5756 76.2909C77.5982 75.8476 78.3735 75.9156 78.9893 76.006C80.3166 76.2007 81.3326 76.532 81.7121 76.6666C82.1412 76.8188 83.1385 77.0007 84.3354 77.2502C84.9136 77.3707 85.344 77.687 86.1152 78.1717C87.124 78.8059 87.8658 79.1512 88.0509 79.3351C88.2262 79.5092 88.344 79.8265 88.4573 80.1691C88.6573 80.7744 87.7904 81.7424 87.191 82.3439C86.5389 82.9983 85.3537 83.3292 83.6517 83.8193C82.4724 84.1589 80.6055 84.507 78.8418 85.0288C77.0782 85.5506 75.4624 86.1906 74.3997 86.6798C72.8335 87.4008 72.0939 88.1415 71.5506 88.8192C71.0375 89.4592 70.9901 90.17 70.9975 90.606C71.0007 90.7972 71.0838 90.9216 71.2321 91.0476C71.5781 91.3416 72.1175 91.4222 72.6649 91.3908C73.2393 91.3579 73.7869 91.0388 74.3113 90.5129C75.7826 89.0375 75.4299 87.34 75.3379 87.2099C75.0487 86.8014 73.8592 88.9724 73.5157 90.1311C73.4388 90.3906 73.7118 90.779 73.908 91.0069C74.253 91.4078 74.9317 91.3599 75.6415 91.3172C76.4609 91.268 77.2437 90.9672 78.6096 90.3415C79.6353 89.8716 81.2952 89.0048 82.3203 88.524C83.6512 87.8996 84.4721 87.873 85.3409 87.9334C86.109 87.9868 86.607 88.1868 86.8666 88.308C87.0871 88.411 87.1475 88.7945 87.2735 89.1142C87.3974 89.4284 87.9451 88.8324 88.2427 88.4703C89.3243 87.1544 89.3245 85.8265 89.2948 85.4973C89.2656 85.1723 88.7087 86.2061 88.5411 86.6412C88.051 87.9125 87.3471 89.5908 87.4069 90.4127C87.483 91.4605 87.9248 92.5063 87.9312 93.2353C87.9381 94.0291 87.57 94.9063 86.9283 96.9129C86.7644 97.4252 86.0733 98.3591 84.8112 99.9453C84.2083 100.703 83.5458 101.251 82.9326 101.775C81.7608 102.775 81.2321 103.216 81.4352 103.095C81.8112 102.871 81.8843 102.375 82.022 101.872C82.2958 100.873 82.3519 99.6202 82.2443 98.4522C82.1396 97.3154 81.7311 96.3248 81.2444 95.5046C80.3733 94.0364 79.3459 93.7647 79.0623 93.7036C78.926 93.6743 78.7986 93.6829 78.6236 93.8006C78.1837 94.0966 77.858 94.6669 77.4956 95.4958C76.8997 96.8585 76.6862 97.9406 76.7454 98.3136C76.7764 98.5095 76.9228 98.6924 77.0868 98.79C77.4158 98.9858 77.9998 98.7536 78.5755 98.4922C78.9991 98.2998 79.56 97.5354 80.3232 96.3832C80.9861 95.3823 81.1168 94.4174 81.0892 93.6532C81.0589 92.8135 80.4244 92.2008 79.9146 91.8337C79.5408 91.5647 78.9372 91.5116 78.1773 91.6014C77.4985 91.6815 77.0888 92.2959 76.758 92.8546C76.3669 93.5153 76.3124 94.3562 76.322 95.1877C76.3329 96.1251 76.7091 96.9408 77.2153 97.5142C77.7314 98.0988 78.4877 98.1813 79.3497 98.0868C79.9574 98.0201 80.8694 97.6613 81.4971 97.1182C82.1248 96.5751 82.4301 95.7937 82.446 95.0005C82.462 94.2074 82.1793 93.4262 81.8113 92.8281C81.1401 91.7376 79.924 91.1095 78.6253 90.5149C77.2711 89.895 75.8695 89.7486 74.7726 89.6123C74.265 89.5659 73.8572 89.5659 73.5741 89.584C73.291 89.6021 73.1451 89.6382 72.9249 89.8132" stroke="#A7A7A7" stroke-width="6" stroke-linecap="round"/>
<path d="M61.5517 92.5958C61.2219 93.342 60.477 95.4776 60.4892 97.0159C60.4914 97.2979 60.6712 97.3825 60.8087 97.3663C61.1355 97.3277 61.3915 96.9033 61.5911 96.5012C61.6927 96.2965 61.6892 96.0459 61.6052 95.8507C61.5212 95.6555 61.3298 95.512 60.7873 95.6734C59.2883 96.1196 58.0171 97.1351 57.214 97.8688C56.4231 98.5912 56.042 99.4571 55.829 100.089C55.7328 100.375 55.7803 100.623 55.8514 100.791C55.9226 100.958 56.0464 101.047 56.1973 101.092C57.0042 101.335 58.3381 100.764 59.2477 99.9416C59.4882 99.7242 59.4302 99.2731 59.3837 98.9553C59.2974 98.366 58.8299 97.9533 58.3326 97.6578C57.819 97.3526 57.039 97.497 56.302 97.665C54.9552 97.9719 54.3765 99.773 54.1364 100.861C54.0884 101.079 54.2758 101.246 54.4304 101.33C54.7412 101.5 55.5824 101.227 56.6597 100.805C57.511 100.473 57.9372 99.5739 58.2813 98.6816C58.607 97.8374 58.3634 96.8734 57.98 96.0357C57.2718 94.4882 54.6784 94.5049 53.5418 94.6575C52.8552 94.7497 52.6272 95.6336 52.4961 96.287C52.4141 96.6954 52.4515 97.283 52.482 97.6494C52.5124 98.0158 52.5733 98.1492 52.8615 98.2266C54.8628 98.7644 56.5917 96.9712 56.9212 96.5552C57.0616 96.3779 57.0882 96.2256 57.0052 96.097C56.9222 95.9685 56.7135 95.8572 56.3655 95.8924C54.5834 96.0727 53.483 97.822 52.5326 99.4402C51.4275 101.322 52.0257 103.333 52.2845 103.925C52.4068 104.205 52.7044 104.337 53.1426 104.379C54.1962 104.478 55.1995 103.973 55.8073 103.472C56.2061 103.143 56.4734 102.208 56.6623 100.884C56.797 99.9391 56.1949 99.3282 55.8632 98.9455C55.7208 98.7813 55.5902 98.7159 55.4285 98.7075C54.3733 98.653 53.8232 100.936 53.7526 102.01C53.7381 102.232 53.9184 102.38 54.3161 102.495C55.3606 102.796 56.8504 102.669 58.8355 102.281C60.0649 102.041 61.6894 101.461 62.8569 101.054C65.9895 99.9617 67.2025 98.8287 67.5142 98.4141C67.6872 98.1841 67.711 97.8035 67.6605 97.5522C67.61 97.3009 67.4388 97.1622 67.1816 97.0793C65.8979 96.6658 63.4981 98.0763 61.5564 99.6569C60.6922 100.36 60.4649 101.308 60.3888 101.847C60.356 102.079 60.4455 102.234 60.5977 102.319C60.9507 102.517 61.6759 102.3 62.9601 101.693C65.1818 100.643 66.9317 98.9467 68.0765 97.7011C69.1822 96.4981 69.7399 94.9885 69.9858 93.4286C70.2492 91.7574 69.4958 90.417 68.8171 89.6615C67.6381 88.3491 66.2115 88.5735 65.5971 88.7013C64.4825 88.9333 64.0887 90.8763 63.6713 92.1468C63.5372 92.5551 63.73 92.5296 63.9925 92.3257C64.6665 91.8023 65.2376 90.9851 65.6274 90.1639C66.0286 89.3188 65.8345 88.3346 65.534 87.4782C65.2239 86.5945 64.3423 86.0158 63.4725 85.568C62.6129 85.1255 61.6613 85.1923 60.8583 85.3294C60.0306 85.4706 59.4362 86.2046 58.9665 86.9308C58.5054 87.6435 58.3397 88.5801 58.3156 89.4598C58.3054 89.8329 58.4423 90.0543 58.5654 90.1813C58.7777 90.4006 59.2811 90.2871 59.9336 90.0631C61.5614 89.5045 62.7535 87.6599 63.2084 86.5752C63.3275 86.2911 63.1679 85.8257 63.0688 85.5569C62.9697 85.288 62.8165 85.2052 62.642 85.1846C61.452 85.0441 60.4778 87.664 59.8473 89.5656C59.4272 90.8327 59.0801 92.7965 58.8529 94.1856C58.322 97.4313 58.7209 98.5696 58.3591 99.3058C58.239 99.443 58.13 99.5321 58.1155 99.5219C58.101 99.5117 58.1841 99.3996 58.3849 99.2069" stroke="#A7A7A7" stroke-width="6" stroke-linecap="round"/>
<path d="M65.0461 87.7969C65.0461 88.2451 64.998 89.4329 64.7795 90.214C64.673 90.5949 64.4599 90.9168 64.1191 91.3138C62.8367 92.8074 60.1858 92.7481 59.1274 92.63C58.2456 92.5316 57.4679 92.3174 56.8373 92.6017C56.1357 92.9179 55.2213 93.4479 54.3878 93.702C53.8029 93.8803 53.4512 94.457 52.8665 95.6196C52.4356 96.4764 52.2223 97.8775 52.3949 98.8509C52.6501 100.29 54.0972 102.357 54.8654 103.152C55.8151 104.135 56.8717 104.416 57.8321 104.504C59.3125 104.64 60.5103 104.356 61.7745 103.873C62.162 103.708 62.5911 103.525 63.1278 103.267C63.6646 103.008 64.2959 102.679 65.1531 102.172" stroke="#A7A7A7" stroke-width="6" stroke-linecap="round"/>
<path d="M64.5942 102.527C64.5942 103.063 64.7768 104.24 65.6426 105.59C66.1342 106.357 67.8486 106.848 69.708 107.063C71.6238 107.285 73.5718 106.119 74.1873 105.316C74.2755 105.093 74.2982 104.887 74.31 104.658C74.3217 104.428 74.3217 104.183 74.3217 103.931" stroke="#A7A7A7" stroke-width="6" stroke-linecap="round"/>
<path d="M73.5418 90.5957C73.1943 90.5957 72.4235 91.2069 71.3747 92.4235C70.4543 93.4914 69.7918 95.6252 68.9644 98.3392C68.2431 100.705 68.5361 102.318 68.7954 102.939C68.9056 103.203 69.0878 103.307 69.3033 103.358C70.3935 103.612 71.8715 102.338 73.2699 101.02C73.9804 100.35 74.2774 99.4132 74.4216 98.5638C74.5528 97.7914 74.2448 97.0831 73.8804 96.5303C73.7108 96.273 73.4684 96.1391 73.1486 96.1098C72.8289 96.0805 72.4127 96.1794 72.1379 96.3028C71.0236 96.8032 70.1102 100.079 69.8313 102.35C69.7869 102.711 69.9275 102.951 70.064 103.126C71.0007 104.325 74.3177 103.321 75.8008 102.49C76.5201 102.087 76.638 101.12 76.7207 100.384C76.7614 100.023 76.6667 99.6769 76.5688 99.5356C76.4709 99.3943 76.3388 99.4661 76.2121 99.6559C75.4375 100.817 75.4749 102.869 75.6712 104.777C75.7612 105.651 76.4879 106.336 77.2258 106.943C77.9636 107.551 78.831 107.609 79.3996 107.593C79.6655 107.585 79.8745 107.454 80.0195 107.217C80.3564 106.665 80.2579 105.787 80.0873 104.888C79.9046 103.926 79.2889 103.136 78.6972 102.569C78.4331 102.316 78.1659 102.221 77.9184 102.17C77.6709 102.12 77.4316 102.141 77.205 102.251C76.9783 102.362 76.7715 102.562 76.631 102.8C76.3514 103.276 76.3754 104.301 76.4543 105.495C76.5029 106.233 77.0412 106.763 77.7132 107.285C78.2701 107.716 79.0854 107.868 79.7774 107.8C80.0296 107.775 79.9181 107.309 79.7487 106.995C79.4042 106.357 78.6936 105.966 77.9834 105.689C76.4405 105.085 74.8998 105.948 74.3065 106.413C73.6562 106.923 73.7228 107.861 73.7931 108.476C73.867 109.122 74.3533 109.609 74.8155 109.964C75.3021 110.338 76.0653 110.327 76.8144 110.303C77.5834 110.278 78.2931 109.799 78.9113 109.385C79.4387 109.032 79.5843 108.475 79.5805 108.025C79.5771 107.626 79.1134 107.106 78.6785 106.649C78.5533 106.517 78.5234 106.705 78.562 106.89C78.6458 107.291 78.887 107.648 79.2354 107.952C79.718 108.373 80.5246 108.445 81.2738 108.509C82.0202 108.574 82.9306 108.2 83.8343 107.64C84.5395 107.203 84.7535 106.393 84.8908 105.677C85.0132 105.039 84.777 104.473 84.5275 104.079C84.4152 103.901 84.2114 103.862 84.0349 103.839C83.6873 103.794 83.1822 104.074 82.5933 104.583C81.3607 105.648 81.2362 107.605 81.2826 108.863C81.2916 109.107 81.5106 109.237 81.823 109.32C83.915 109.878 86.5297 107.854 87.288 106.769C88.0506 105.677 86.4611 104.077 85.6519 103.266C85.5099 103.124 85.3713 103.083 85.168 103.14C83.8318 103.519 83.4256 105.793 83.3854 107.112C83.3754 107.44 83.4918 107.776 83.6215 108.012C84.1114 108.904 86.1318 108.52 87.9253 107.935C88.6967 107.683 89.0878 107.164 89.2881 106.543C89.9996 104.337 88.9306 103.053 88.7043 102.899C88.6143 102.837 88.5019 103.006 88.5064 103.145C88.5109 103.284 88.6171 103.438 88.7733 103.427C89.178 103.401 89.6428 102.043 90.0754 100.072C90.4691 98.278 90.0246 97.0952 89.8111 96.8367C89.7282 96.7362 89.5113 97.0266 89.4233 97.254C89.2517 97.6974 89.3886 98.1094 89.5652 98.3926C89.6647 98.5521 89.8802 98.673 90.1997 98.7103C90.9562 98.7986 91.6326 98.4566 92.0235 98.1214C92.3957 97.8023 92.491 97.2461 92.5537 96.68C92.7159 95.2162 91.6579 93.8019 91.1368 93.4469C90.8478 93.2501 90.4414 93.3457 90.19 93.2563C90.0839 92.5725 90.0423 92.1437 89.9852 91.8753C89.9281 91.7483 89.8139 91.6403 89.6962 91.5289" stroke="#A7A7A7" stroke-width="6" stroke-linecap="round"/>
<path d="M58.251 85.7008C58.3183 85.4792 58.7207 84.6454 61.1043 82.442C61.9649 81.8428 62.9722 81.352 63.9598 80.9526C64.9474 80.5532 65.8848 80.2601 66.8505 79.958" stroke="#969696" stroke-width="0.2" stroke-linecap="round"/>
<path d="M74.2451 81.5601C75.2142 81.5597 77.1238 82.0312 79.4974 82.9091C81.6995 84.2803 82.5604 85.3686 83.0369 86.1752C83.2179 86.508 83.2752 86.6855 83.3343 86.8684" stroke="#969696" stroke-width="0.2" stroke-linecap="round"/>
<path d="M80.6072 95.8569C80.5842 96.1011 80.5611 96.3453 80.4449 96.7488C80.3287 97.1523 80.1201 97.7079 79.8235 98.4444C79.5269 99.1809 79.1487 100.081 78.7202 101.243" stroke="#969696" stroke-width="0.2" stroke-linecap="round"/>
<path d="M53.7812 98.7207C54.0905 98.9572 55.5263 99.7887 58.5519 101.129C60.252 101.881 62.4847 102.288 64.5471 102.575C66.6095 102.863 68.4847 102.893 69.6912 102.882C70.8977 102.872 71.3785 102.82 71.7318 102.752C72.0851 102.684 72.2962 102.601 72.702 102.219" stroke="#969696" stroke-width="0.2" stroke-linecap="round"/>
<path d="M67.8555 92.5305C67.9045 92.5305 67.9535 92.5305 68.826 92.3078C69.6986 92.0851 71.3932 91.6397 72.4541 91.3183C73.5151 90.9968 73.891 90.8127 74.2784 90.623" stroke="#969696" stroke-width="0.2" stroke-linecap="round"/>
<path d="M82.1143 81.3474C82.1347 81.3372 82.1551 81.327 82.9294 80.972C83.7037 80.617 85.2312 79.9176 86.9288 79.166" stroke="#969696" stroke-width="0.2" stroke-linecap="round"/>
<path d="M83.7026 94.1533C83.7231 94.1533 83.7435 94.1533 84.3738 94.5883C85.0041 95.0233 86.2436 95.8933 87.2392 96.5471C88.2348 97.2009 88.949 97.6122 89.9655 98.0905" stroke="#969696" stroke-width="0.2" stroke-linecap="round"/>
<path d="M61.5298 84.167C61.6586 83.9973 62.3403 83.3992 63.608 82.441C64.2604 81.9934 64.9315 81.6244 65.5913 81.3125C66.2512 81.0005 66.8797 80.7569 67.5271 80.5059" stroke="#E5E5E5" stroke-width="0.2" stroke-linecap="round"/>
<path d="M79.6426 76.2144C80.3242 76.2144 81.2094 76.2923 82.0034 76.4935C82.3364 76.5621 82.8594 76.6516 83.5967 76.865C84.334 77.0784 85.2698 77.4129 86.554 77.9492" stroke="#E5E5E5" stroke-width="0.2" stroke-linecap="round"/>
<path d="M89.1904 89.1948C89.2313 89.2353 89.4532 89.517 89.8798 90.1562C90.3501 91.0228 90.6875 91.7704 90.8236 92.2167C90.8742 92.4182 90.8872 92.5692 90.9006 92.7248" stroke="#E5E5E5" stroke-width="0.2" stroke-linecap="round"/>
<path d="M84.0645 105.306C84.1155 105.316 84.1666 105.326 84.6249 105.294C85.0832 105.262 85.9471 105.188 86.5675 105.095C87.1879 105.002 87.5385 104.892 87.8998 104.779" stroke="#E5E5E5" stroke-width="0.2" stroke-linecap="round"/>
<path d="M50.4863 104.013C50.5251 104.013 50.5639 104.013 50.8522 104.006C51.1405 104 51.6772 103.987 52.3476 103.934" stroke="#E5E5E5" stroke-width="0.2" stroke-linecap="round"/>
<path d="M53.0859 94.4238C53.3692 94.4936 53.6525 94.5634 54.6417 94.846C55.6309 95.1287 57.3174 95.622 58.3084 95.8877C59.2994 96.1533 59.544 96.1764 59.7959 96.2001" stroke="#E5E5E5" stroke-width="0.2" stroke-linecap="round"/>
<path d="M75.9443 108.283C76.5853 108.562 77.3493 108.61 78.0437 108.61" stroke="#E5E5E5" stroke-width="0.2" stroke-linecap="round"/>
<path d="M28.3956 48.5571C27.9057 49.7303 26.8443 51.8465 25.4769 54.6699C24.5138 57.0685 23.22 59.7276 22.1615 61.7065C22.0133 61.9983 21.93 62.262 21.7944 62.5835" stroke="#FF0000" stroke-width="2" stroke-linecap="round"/>
<path d="M28.375 49.1221C30.6068 49.2235 34.9657 49.6747 36.5467 50.227C38.7975 51.0133 40.5397 51.559 45.7698 53.1483C48.062 53.8449 49.067 54.8745 49.9198 55.7963C50.8153 56.7642 50.3256 58.4016 50.1423 59.5984C49.4699 61.3036 48.4271 63.783 47.3309 66.0232C46.8598 67.0648 46.5618 67.9132 46.1045 69.329" stroke="#FF0000" stroke-width="2" stroke-linecap="round"/>
<path d="M46.2603 69.3257C46.9437 69.4398 49.1135 69.96 53.738 70.7508C56.3476 71.1971 57.5833 71.8898 58.5942 72.3911C59.458 73.2005 59.8745 73.8091 59.9653 74.3418C59.9893 74.6127 59.9683 74.885 59.7836 75.6066" stroke="#FF0000" stroke-width="2" stroke-linecap="round"/>
<path d="M23.3801 62.0256C22.0363 61.4432 18.4119 59.6272 15.7742 58.3182C14.5147 57.6931 13.533 57.7604 13.056 57.9204C11.6417 58.3947 11.1506 60.3406 10.6606 61.587C9.93472 63.4331 9.61481 65.0515 8.86994 68.8596C8.27317 71.9105 8.05378 73.7775 7.69043 75.1993C7.26468 76.8652 7.05561 77.807 7.09757 78.5487C7.1584 79.6238 8.89904 80.0545 10.3211 80.6452C11.4168 80.9461 12.5626 81.2558 16.2914 82.771C17.4516 82.9974 18.617 82.8422 19.8177 82.6823" stroke="#FF0000" stroke-width="2" stroke-linecap="round"/>
<path d="M19.4745 82.9856C19.3431 82.9522 19.0326 82.6908 18.5721 82.1181C18.0475 81.4657 17.995 80.3726 18.1039 79.389C18.148 78.9911 18.3632 78.8323 18.5646 78.7021C19.4417 78.1353 21.6587 78.085 23.1774 78.3057C23.8942 78.41 24.4397 78.9399 24.8556 79.3275C25.2953 79.7372 25.4608 80.3282 25.4894 80.8899C25.342 81.901 24.7795 82.764 24.0651 83.4611C23.7516 83.7197 23.5374 83.7852 23.267 83.8526" stroke="#FF0000" stroke-width="2" stroke-linecap="round"/>
<path d="M24.9502 84.6756C25.3049 84.625 29.1958 85.1677 32.2367 85.9286C33.456 86.2337 34.3208 86.8179 35.3843 87.1405C35.6426 87.2119 35.8599 87.2776 36.0871 87.3361C36.3143 87.3946 36.5449 87.4439 36.9851 87.3934" stroke="#FF0000" stroke-width="2" stroke-linecap="round"/>
<path d="M37.1873 87.3927C37.0579 86.9797 36.8544 85.3541 37.2735 84.008C37.6262 82.8751 39.5456 83.2724 40.1236 83.3629C40.6541 83.446 40.9272 84.0184 41.1716 84.4577C41.4519 85.5472 41.2638 87.1675 40.6524 88.3014C40.4681 88.4616 40.2699 88.5605 39.966 88.6117" stroke="#FF0000" stroke-width="2" stroke-linecap="round"/>
<path d="M39.9663 88.6113C41.071 88.7821 44.2065 89.3907 45.5464 89.7386C46.5437 89.9975 47.7871 90.5776 49.056 91.1466C49.8141 91.4705 50.5743 91.7496 51.2015 91.9043C51.4968 91.9638 51.7452 91.9847 52.0012 91.905" stroke="#FF0000" stroke-width="2" stroke-linecap="round"/>
<path d="M34.3573 62.4751C33.104 63.5225 32.4185 64.7331 31.9935 66.0039C31.792 66.6064 32.0353 67.1993 32.2518 67.6122C32.3502 67.7998 32.5158 67.8881 32.6713 67.9407C32.9776 68.0441 33.7255 67.6179 34.7304 66.8446C35.5934 66.1804 36.0496 64.9498 36.4845 63.6309C36.8864 62.4123 36.3546 61.1255 35.7441 60.0686C35.2124 59.1481 34.2803 58.8023 33.6082 58.6926C33.2999 58.6422 33.049 58.9411 32.8482 59.2855C31.3508 61.8537 31.7575 65.7234 31.8878 66.2629C31.944 66.4955 32.086 66.6122 32.284 66.6633C32.7445 66.7821 33.2594 66.5175 33.8168 66.0665C35.2792 64.2665 35.7037 62.77 35.7578 61.9974C35.756 61.6161 35.6948 61.2569 35.4928 60.7816" stroke="#FF0000" stroke-width="2" stroke-linecap="round"/>
<path d="M35.9286 62.004C35.5068 64.5614 35.4736 67.0058 35.5672 67.6696C35.6064 67.9474 35.7352 68.0851 35.8897 68.0961C36.2645 68.1228 36.761 67.3708 37.2512 66.0764C37.9437 64.2483 37.4373 62.6655 37.0957 62.0412C36.7055 61.3279 35.8919 60.9075 35.1657 60.5839C34.491 60.2832 33.8478 60.4409 33.3859 60.6986C32.275 61.3181 32.1546 63.5169 32.1049 65.0149C32.0958 65.29 32.2329 65.4674 32.5379 65.4733C33.3819 65.4895 34.3266 64.7319 35.0967 63.9351C35.7959 63.2118 36.0235 62.1337 36.0694 61.0168C36.1107 60.0108 35.6607 59.1969 35.1776 58.5763C34.9402 58.2713 34.6214 58.0683 34.3691 57.943C34.1168 57.8176 33.9158 57.797 33.6068 58.0055C31.9621 59.1153 31.7163 61.3 31.7672 62.9248C31.7811 63.3708 32.9012 62.253 33.6308 61.4186C34.354 60.5916 34.5097 59.5415 34.3903 58.5947C34.2627 57.5829 33.4419 56.8356 32.7251 56.2883C32.0484 55.7717 31.2825 55.7639 30.7384 55.8281C30.1896 55.8929 29.8287 56.4117 29.5738 56.9607C29.3021 57.5458 29.1605 58.4799 29.0496 59.4572C29.0059 59.8421 29.0393 60.0064 29.2979 60.0581C30.0381 60.2061 30.8712 59.6988 31.4463 59.1127C32.0043 58.544 32.2099 57.7936 32.2265 57.1205C32.2417 56.5019 31.7583 55.9873 31.3405 55.5019C31.1208 55.2468 30.7976 55.0566 30.4076 55.0835C28.5068 55.2146 27.6594 57.3216 27.3573 58.1379C27.3113 58.262 27.6707 58.2528 27.862 58.2061C28.8832 57.9572 30.0391 55.6249 30.5702 54.0524C30.6616 53.7818 30.6125 53.5685 30.5681 53.3719C30.5237 53.1752 30.4348 52.9893 30.29 52.9979C29.4255 53.0489 29.4478 54.0875 29.4052 54.1888C28.9523 55.2661 29.4364 51.8713 29.4322 51.6645C29.4037 50.2531 32.8577 52.2844 34.7167 52.5453C36.372 52.7776 37.3111 52.676 39.2572 53.1762C42.029 53.8886 43.0406 54.6842 44.1124 55.2057C45.0485 55.6613 46.1546 55.7937 46.8871 56.1328C47.0439 56.2054 47.1262 56.4021 47.1858 56.5586C47.4493 57.251 46.714 58.8591 46.1279 60.2982C45.4427 61.9809 45.4581 62.7617 45.1182 63.8853C44.4376 66.1346 44.336 67.2501 44.3673 66.9513C44.6044 64.6916 44.5392 62.4627 44.2959 61.3466C44.0381 60.1636 43.4618 59.2842 42.8667 58.7618C42.2357 58.2078 41.3753 58.3408 40.8254 58.4815C40.218 58.6369 39.858 59.3761 39.5675 60.4351C39.0994 62.1416 39.3425 63.7018 39.53 64.4233C39.6078 64.723 39.7486 64.8579 39.9293 64.7933C42.026 64.0436 43.1894 59.6908 43.3001 58.5596C43.3558 57.9898 41.9965 58.1631 41.0883 58.2812C40.2232 58.3937 39.5647 58.9351 38.9753 59.6872C37.4288 61.6605 37.751 62.9693 37.8883 63.3775C37.9579 63.5844 38.3004 63.6405 38.5615 63.6527C38.8226 63.6649 39.0618 63.5931 39.2888 63.4245C39.7805 63.0591 39.9848 62.3676 40.0271 61.579C40.143 59.4178 37.8808 57.3157 36.2146 56.189C35.9139 55.9857 35.6829 56.0156 35.4704 56.09C34.2629 56.5131 33.9279 59.16 33.7426 61.3807C33.7014 61.8744 33.7711 62.2669 33.8694 62.5642C33.9677 62.8616 34.134 63.0538 34.4152 63.1658C35.053 63.4199 35.9293 63.0967 36.7913 62.5309C37.7212 61.9204 38.1856 60.9509 38.4274 60.1052C38.6919 59.1807 37.9174 57.8521 36.8861 56.5332C36.0805 55.503 34.8491 55.2192 33.7527 55.0014C32.677 54.7877 31.4681 55.2804 30.3017 55.9062C29.2271 56.4829 28.4743 57.6973 27.734 58.9762C26.4229 61.2415 26.798 62.9565 26.911 63.5137C26.9623 63.7667 27.1536 63.9162 27.3904 63.9966C27.918 64.1757 28.9096 63.7147 30.0854 62.9312C31.1824 62.2002 31.5888 60.9887 31.7704 60.0071C31.9352 59.1158 31.2807 58.2711 30.4728 57.5921C29.6275 56.8816 28.4086 56.9023 27.485 56.9079C27.0655 56.9105 26.7521 57.0472 26.4782 57.282C24.8337 58.6912 25.3166 62.3297 25.8905 63.9976C26.2603 65.0721 28.9299 63.9926 31.0205 62.8963C31.4678 62.6617 31.6759 62.3313 31.7889 62.0533C31.9019 61.7753 31.8758 61.4984 31.7263 61.2203C31.3985 60.6105 30.5952 60.2528 29.7498 60.0271C28.9619 59.8169 28.1874 59.989 27.4926 60.328C25.5675 61.2672 25.1658 64.6888 25.1991 66.8919C25.2065 67.3779 25.4692 67.7583 25.7051 68.0556C26.1548 68.6223 27.0502 68.803 28.1084 68.8326C30.6043 68.9025 32.9541 66.4288 34.0995 64.5459C34.3359 64.1572 34.1871 63.7131 34.0984 63.4309C34.0096 63.1488 33.8564 62.9882 33.5985 62.9083C33.3406 62.8283 32.9826 62.8338 32.6653 62.9402C31.2825 63.4042 30.515 65.7984 29.8285 68.5272C29.506 69.8091 29.6499 71.0209 29.8288 71.9713C29.9072 72.3874 30.1215 72.6304 30.3686 72.7997C30.8749 73.1467 31.8369 72.9761 33.0049 72.5388C34.2692 72.0654 35.296 70.833 36.2957 69.5599C37.33 68.2427 37.3783 66.9581 37.2207 66.415C37.1505 66.1733 36.9587 66.0533 36.7205 65.9727C36.1874 65.7924 35.4523 66.0097 34.674 66.5251C33.7065 67.1659 33.2234 68.4966 32.6645 69.6606C31.4985 72.0888 32.0518 74.5438 32.8 75.8204C33.1068 76.3439 34.2092 76.0752 35.323 75.6586C37.647 74.7894 38.0253 71.1184 38.0097 69.0376C38.0067 68.6386 37.7772 68.3913 37.5819 68.3053C37.3866 68.2194 37.1452 68.3123 36.9066 68.5608C35.5679 69.9551 35.1493 72.6691 34.8911 74.4825C34.841 74.8343 34.9891 75.1054 35.1905 75.2552C36.2717 76.0597 38.7703 73.9957 40.3798 72.027C41.1657 71.0657 40.7026 69.7262 40.2627 68.8461C39.8426 68.0056 38.9041 67.6575 38.1787 67.4734C37.8609 67.3928 37.6144 67.506 37.4044 67.6692C36.3226 68.5097 36.7826 71.702 37.3117 73.9975C37.41 74.4239 37.6635 74.6883 37.8587 74.8719C38.0539 75.0554 38.2553 75.127 38.4786 75.128C38.702 75.129 38.9412 75.0572 39.1647 74.9188C40.5364 74.0692 40.9175 71.0982 40.7775 68.7607C40.7474 68.2577 40.5973 67.948 40.5017 67.9475C38.616 67.9384 40.2514 73.4153 41.1449 75.2292C41.3454 75.6363 41.7838 75.79 42.1714 75.9043C42.9627 76.1375 43.9066 75.773 44.8033 75.2106C45.6937 74.6522 46.0868 73.6683 46.2709 72.8598C46.3554 72.4883 46.2383 72.1655 46.0514 71.8967C45.8645 71.6279 45.5645 71.4152 45.1932 71.3056C44.4142 71.0756 43.7029 71.3152 43.274 71.6721C42.7563 72.1028 42.7484 74.0203 42.7001 76.463C42.6663 78.1732 43.0812 79.3547 43.438 80.2068C43.5893 80.5681 43.8076 80.7249 44.0234 80.8133C44.2392 80.9017 44.4784 80.9015 44.7193 80.7956C45.2435 80.5653 45.6777 79.7843 46.0553 78.7719C46.9845 76.2809 45.2506 73.9359 44.7636 73.499C44.5445 73.3024 44.2805 73.2869 44.0733 73.3259C43.8662 73.365 43.6979 73.4925 43.5962 73.811C43.0545 75.5061 43.8071 77.3917 44.5413 78.891C44.6956 79.2061 44.9424 79.3801 45.1467 79.5056C45.351 79.6311 45.5524 79.6752 45.7638 79.6381C46.8081 79.455 47.4443 77.0245 47.671 75.2504C47.5672 75.3312 47.2929 76.691 47.0002 78.6492C46.9007 79.4726 46.9007 79.9501 47.1461 80.3356" stroke="#FF0000" stroke-width="5" stroke-linecap="round"/>
<path d="M47.1219 73.0303C48.2516 72.9781 50.5883 73.0391 51.4395 73.1857C53.1305 73.4771 53.8545 73.4585 54.2859 73.563C54.7348 73.6718 55.4181 73.6726 56.0302 73.7794C56.2602 73.8195 56.4498 73.9921 56.5849 74.1274C56.8552 74.398 55.8416 74.6969 55.3249 74.8932C54.6032 75.1676 53.9645 75.4025 53.3346 75.6345C51.8539 76.1797 50.5064 76.848 50.1072 77.1372C49.9221 77.2713 49.8529 77.5344 49.7916 77.7746C49.7384 77.9831 50.9867 77.587 53.0003 76.7814C54.4558 76.1991 54.9362 75.8829 55.4184 75.6847C55.9007 75.4865 56.5079 75.3401 57.1541 75.3321C58.1303 75.3201 54.5292 76.3096 54.0269 76.7606C53.5626 77.1774 53.394 77.7627 53.1579 78.1424C52.9012 78.5553 52.7303 78.9788 52.6568 79.6114C52.5929 80.1611 52.6118 80.79 52.5032 81.4532C52.3716 82.2577 51.8956 83.4353 51.3003 84.7124C50.8914 85.5894 50.4615 85.9345 50.2259 86.1891C50.0828 86.3437 49.9241 86.5782 49.8601 86.0572C49.641 84.2731 49.8658 82.6627 49.7923 82.1195C49.7235 81.6105 49.3361 81.0489 48.9482 80.5757C48.1369 79.5862 46.9015 83.3574 46.912 83.522C46.9225 83.684 47.3282 83.223 47.5585 82.7587C47.8457 82.1795 47.6031 81.2241 47.2139 80.1769C46.8002 79.0635 45.7951 78.51 44.9808 78.2007C44.0417 77.844 43.0883 77.9799 42.4381 78.1212C41.8734 78.244 41.5911 78.7997 41.3925 79.3504C40.8369 80.8918 41.2272 82.1945 41.3411 82.4304C41.3953 82.5429 41.5017 82.6067 41.6399 82.6347C41.954 82.6983 42.3864 82.4969 42.843 82.1911C43.3181 81.8729 43.5458 81.1797 43.6833 80.3586C43.8355 79.4493 43.4673 78.4269 42.9884 77.4637C42.5397 76.5613 41.7952 76.0764 41.1612 75.7679C40.4827 75.4377 39.6362 75.4911 38.7865 75.6481C36.9302 75.9911 36.1664 77.5656 35.8425 78.4371C35.7807 78.6034 35.8615 78.7552 35.9529 78.8849C36.1507 79.1656 36.6566 79.2635 37.288 79.2691C38.6729 79.2812 39.6731 78.3814 40.1297 77.78C40.3363 77.5079 40.3361 77.2005 40.2697 76.9113C40.1297 76.3025 39.2658 75.6197 38.1979 74.9661C37.4451 74.5055 36.7851 74.6789 36.404 74.8126C35.5817 75.101 35.5602 78.0584 35.7855 79.5133C35.838 79.8528 36.5184 79.6633 37.1713 79.4207C38.2753 79.0106 39.0225 78.0681 39.3226 77.3025C39.4651 76.9391 39.4009 76.5669 39.2665 76.278C39.001 75.7074 38.1914 75.5041 37.3072 75.4341C36.4002 75.3622 35.5145 75.7146 34.7226 76.2057C33.9057 76.7122 33.4572 77.6021 33.1187 78.3671C32.8112 79.0623 32.8817 79.7265 32.9755 80.1818C33.0183 80.3899 33.1824 80.5134 33.3411 80.6061C33.6593 80.7919 34.3795 80.738 35.3843 80.5533C36.3741 80.3715 37.246 79.677 37.9805 78.9184C38.6293 78.2482 38.555 77.1534 38.2495 76.0691C37.9008 74.8315 36.6663 74.1429 35.6686 73.6938C34.6976 73.2567 33.5972 73.2398 32.6084 73.3405C31.7413 73.4289 31.2223 74.1428 30.8852 74.7767C30.5297 75.4453 30.5597 76.2514 30.5345 76.8974C30.5233 77.1863 30.5388 77.3966 30.7484 77.2993C31.4749 76.9619 32.034 76.0209 32.5151 75.1905C33.1101 74.1633 33.197 72.8804 33.1028 71.7776C33.0179 70.7846 32.3044 70.1506 31.5873 69.7739C30.8035 69.3622 29.476 69.5538 28.1244 69.8113C27.1921 69.989 26.7194 70.6578 26.3945 71.2415C26.1015 71.7679 26.1661 72.3367 26.2347 72.7381C26.2647 72.9133 26.3774 73.0083 26.4773 73.0648C26.5771 73.1214 26.6845 73.1309 26.798 73.0988C27.6184 72.8669 28.5121 71.0655 28.8388 69.4578C28.9162 69.0768 28.7514 68.7119 28.5728 68.4079C28.3941 68.1039 28.1184 67.864 27.7337 67.7115C26.8637 67.5013 25.4232 67.672 23.6388 68.1792C22.795 68.4563 22.0764 68.7731 21.3359 69.0996" stroke="#FF0000" stroke-width="5" stroke-linecap="round"/>
<path d="M21.9595 66.7846C18.6602 67.4912 22.897 71.0909 24.003 68.8968C24.768 67.3791 22.8541 65.3672 21.647 64.7869C19.6347 63.8196 17.574 64.8634 16.5223 66.6771C14.745 69.7421 18.6466 68.1119 19.4783 66.6495C20.2834 65.2337 16.094 66.0607 15.4863 66.0607" stroke="#FF0000" stroke-width="5" stroke-linecap="round"/>
<path d="M15.3514 64.5886C15.1615 64.5407 14.5251 64.8045 13.6682 65.362C13.3189 65.5893 13.2685 65.8718 13.3303 66.0584C13.392 66.245 13.5995 66.37 13.8236 66.4324C14.2688 66.5564 14.8846 66.2359 15.5112 65.7529C15.9949 65.38 16.1888 64.7789 16.2959 64.0626C16.4218 63.221 15.9657 62.4813 15.5054 62.0177C15.2925 61.8032 15.0748 61.6801 14.8709 61.6826C14.6671 61.6851 14.4717 61.8296 14.3711 62.0598C14.1503 62.5646 14.3421 63.1124 14.5324 63.4644C14.6279 63.641 14.8144 63.7549 15.0229 63.7954C15.2313 63.836 15.4799 63.7846 15.6892 63.6853C15.8985 63.5861 16.061 63.4405 16.1349 63.2312C16.2088 63.022 16.1892 62.7536 16.0997 62.5121C15.7377 61.5342 14.3568 61.0322 13.4755 60.8323C13.3741 60.8093 13.493 61.1072 13.6526 61.2522C13.8121 61.3971 14.0365 61.4783 14.1925 61.4219C14.3484 61.3655 14.4292 61.169 14.6663 61.0375C16.2121 60.1804 18.0769 61.3403 18.5016 61.5634C18.7665 61.7026 19.1462 61.8666 18.4574 61.7914C15.9853 61.5214 13.8838 61.1274 13.3372 61.2769C13.0893 61.3447 12.9097 61.4255 12.7628 61.5743C12.1201 62.2253 12.5541 63.331 12.6673 64.2593C12.9303 66.4162 12.3932 69.9519 11.9681 72.3154C11.7987 73.2569 11.796 74.0016 11.4561 74.8261C11.013 75.901 10.6215 76.473 10.6498 76.6199C10.837 77.5889 11.5467 72.4261 11.9142 70.0029C11.9765 69.5915 12.2817 69.1268 12.2234 69.3691C11.5706 72.0798 11.1278 73.7707 11.4152 74.7016C12.1364 77.0382 16.1223 73.8945 15.6871 73.9805C14.5666 74.202 13.2456 75.3701 12.2164 75.8515C11.4482 76.2107 10.6653 76.5315 9.86653 77.0068C9.51974 77.2131 9.16451 77.349 9.18921 77.4178C9.43253 78.0965 10.893 76.8785 11.7266 76.6262C12.7514 76.3159 13.9103 77.766 15.8229 78.564C16.3763 78.7948 17.1571 78.5886 17.3645 78.4259C18.2841 77.7046 15.659 76.8473 15.0977 75.9089C14.7643 75.3513 14.7083 73.9681 14.8472 72.2401C15.0186 70.107 17.6728 69.5137 19.0205 69.0147C19.9925 68.6548 22.0904 71.3373 23.0841 73.085C23.3472 73.5477 21.2277 73.1484 20.621 73.2174C20.0143 73.2863 20.1877 73.515 20.4382 73.6758C20.963 74.0125 21.7881 74.0431 22.3134 74.0837C23.1145 74.1455 20.6281 74.3493 20.159 74.3581C19.969 74.3617 20.0333 73.8842 20.2417 73.7314C20.7301 73.3731 22.8324 73.7381 25.3199 73.8578C27.3434 73.9552 28.2311 76.8743 28.791 77.2914C29.5855 77.8831 27.6747 75.3317 27.4052 75.2756C25.7019 74.9206 27.7679 78.9519 28.3591 80.7427C28.5219 81.2357 29.4624 80.4875 29.8434 80.2331C30.0303 80.1084 29.6194 80.898 29.5563 81.2426C29.1338 83.5488 35.5751 82.7028 36.2171 82.8125C36.6922 82.8937 36.3788 81.8241 36.6041 81.5105C37.0712 80.8604 38.3841 80.7874 38.5561 80.5408C40.0291 78.4287 33.2619 79.6871 31.9949 79.7819C30.9435 79.8605 30.5299 80.8509 28.8583 81.5796C27.9054 81.9949 27.1607 82.0147 27.1474 82.1543C27.0158 83.535 29.5123 82.0136 30.8909 82.1433C31.9185 82.2399 33.2565 82.6876 35.336 82.866C35.6881 82.9655 35.7419 83.151 35.7395 83.3641C35.7372 83.5773 35.6769 83.8124 35.7075 83.5552" stroke="#FF0000" stroke-width="5" stroke-linecap="round"/>
<path d="M43.5484 84.2207C43.5417 84.4313 43.3932 85.295 43.0455 86.1396C42.9708 86.3209 42.8911 86.456 42.961 86.5145C43.6306 87.0745 45.0731 86.5982 45.9077 86.7164C46.9884 86.8695 47.665 87.3556 48.738 87.549C49.3223 87.6351 49.6799 87.7367 49.9375 87.8004C50.0708 87.8155 50.2092 87.7954 50.3809 87.9854" stroke="#FF0000" stroke-width="5" stroke-linecap="round"/>
<path d="M50.8849 86.439C50.8849 86.4914 50.9006 86.9494 50.9489 87.684C50.9815 87.9876 51.0305 88.1507 51.0269 88.2881C51.0233 88.4255 50.9656 88.5321 50.6992 88.642" stroke="#FF0000" stroke-width="5" stroke-linecap="round"/>
<path d="M20.9606 76.9919C20.7453 76.8556 18.9422 76.6376 16.8314 76.9035C15.7205 77.0434 15.2002 78.0938 13.8511 80.0518C12.9067 81.4223 12.9495 83.3126 13.4967 85.1318C13.8562 86.327 15.3014 87.0418 16.6248 87.5758C18.8564 88.4763 21.2211 87.7897 22.1219 87.4975C23.4883 87.0541 24.6659 84.8225 25.5219 83.0297C25.8196 82.4062 25.8252 81.8241 25.696 81.0509C24.9057 79.2385 24.0165 78.3286 22.2621 77.3423C21.9113 77.1887 21.7701 77.179 21.539 77.2547" stroke="black" stroke-width="5" stroke-linecap="round"/>
<path d="M42.5957 82.8357C41.6776 82.8069 39.5831 82.8786 38.0718 84.0249C37.2692 84.6336 36.7983 85.5178 36.2565 86.1224C35.7441 86.6943 35.4221 87.635 35.2328 88.5302C35.0381 89.4506 35.3779 90.3994 35.6575 91.0274C35.8924 91.5548 36.299 91.916 36.8031 92.2212C38.5277 93.2655 41.0378 92.5761 41.6141 92.3856C42.2081 92.1893 42.8002 91.482 43.9404 89.5204C44.7158 88.1866 44.2285 86.3646 44.0009 85.533C43.8829 85.1016 43.5656 84.7951 43.2583 84.5052C42.3627 83.6604 39.7312 84.6954 38.5785 85.3722C37.3512 86.0928 36.9314 88.7781 36.7872 90.1443C36.7223 90.7589 36.9578 91.3205 37.221 91.7921C37.4449 92.1933 37.8381 92.4236 38.2512 92.5518C38.6575 92.6779 39.7477 91.9346 41.0835 91.0249C42.1077 90.3273 42.1196 88.1061 42.2872 86.1927C42.3175 85.8462 42.2119 85.6482 42.0893 85.4632C41.8312 85.0735 41.2385 84.8455 40.5577 84.7043C39.9504 84.5784 39.3493 84.7468 38.8053 84.9554C37.7959 85.3426 37.2899 86.6839 36.914 88.3224C36.6914 89.2925 37.0082 90.1346 37.4644 90.6493C38.3691 91.6702 40.1032 91.4641 41.1553 91.2734C42.2581 91.0735 43.0404 89.5477 43.5729 88.2441C43.8412 87.5874 43.7585 86.8607 43.6995 86.1954C43.6359 85.4792 43.0756 84.7468 42.4026 84.0759C41.8069 83.4821 40.9682 83.4012 40.1769 83.3663C39.2245 83.3244 38.253 83.7097 37.3825 84.1524C36.4726 84.6152 35.9881 85.5078 35.6701 86.2775C34.9908 87.9214 35.8603 89.7878 36.6236 90.9386C37.5073 92.2708 40.1585 91.9553 42.0399 91.7399C42.963 91.6342 43.6143 91.0678 44.1038 90.5885C45.1895 89.5252 44.9352 87.6434 44.5632 85.9696C44.3264 84.9044 43.8574 84.2638 43.5749 84.082C42.773 83.5659 41.2988 84.7588 39.9649 85.8974C39.3258 86.4429 39.1221 87.2867 39.0243 88.0468C38.8301 89.556 39.878 90.9365 40.8637 91.7861C41.8631 92.6475 43.6752 92.2032 44.6285 91.7254C45.1417 91.4681 45.3179 90.8047 45.4325 90.1715C45.8408 87.9167 44.8264 85.2488 44.5356 84.7855C44.4411 84.6781 44.3264 84.575 44.1727 84.4905C44.019 84.406 43.8297 84.3432 43.4242 84.4449" stroke="black" stroke-width="5" stroke-linecap="round"/>
<path d="M18.797 81.7688C18.5991 81.7027 17.9623 81.9374 17.5383 82.4249C17.2195 82.7915 17.2373 83.4315 17.2223 83.9698C17.2098 84.4168 17.4227 84.763 17.7076 85.0237C18.0361 85.3244 18.6272 85.2464 19.1253 85.1027C19.8623 84.8902 20.2159 83.8276 20.4612 82.7688C20.5793 82.2589 20.405 81.7812 20.1778 81.3973C19.9173 80.9572 19.2358 80.8161 18.6039 80.7564C18.1349 80.7121 17.679 80.9698 17.2641 81.336C16.9331 81.6281 17.1759 82.5029 17.4961 83.4334C17.89 84.578 20.2807 84.8596 21.7129 84.7762C22.3544 84.7389 22.7416 84.3639 22.9373 84.0694C23.4415 83.3107 23.0054 81.7572 22.415 80.451C22.2861 80.1659 22.0105 80.0487 21.8334 79.9606C21.0543 79.5731 19.403 80.518 18.2369 81.3858C17.9747 81.5809 17.8239 81.8244 17.7238 82.0006C17.6237 82.1768 17.6069 82.3111 17.7183 82.4473C18.3564 83.227 19.8751 82.7658 21.1268 82.3297C21.4561 82.2149 21.7182 81.9543 21.8545 81.7469C21.9909 81.5395 21.9713 81.3424 21.876 81.1325C21.6101 80.7056 21.1873 80.3069 20.7555 80.0119C20.5709 79.8921 20.4562 79.8329 20.3097 79.7432" stroke="black" stroke-width="5" stroke-linecap="round"/>
<path d="M49.1347 61.4482C49.1347 61.7005 49.0389 62.6562 48.8598 63.318C48.7118 63.8653 48.5265 64.5031 47.4023 66.524C47.0523 67.1533 46.8253 67.4284 46.772 67.5398C46.4223 68.2705 47.7024 65.3642 47.9652 64.164C48.0689 63.735 48.2642 63.0985 48.3789 62.6375C48.4937 62.1765 48.5219 61.9104 48.6069 61.5242" stroke="#A3EEFF" stroke-width="5" stroke-linecap="round"/>
<path d="M33.9353 68.3726C33.8968 68.7382 33.6302 70.0197 33.2219 71.2385C32.7758 72.5702 32.4098 75.0067 32.3056 76.1277C32.2138 76.7532 32.0573 77.3447 31.9743 77.9651C31.9461 78.2611 31.9461 78.519 31.9106 78.9755" stroke="black" stroke-linecap="round"/>
<path d="M18.3804 81.4873C18.2897 81.6127 18.1055 82.141 18.1669 82.4669C18.1954 82.6185 18.3508 82.7013 18.5882 82.7297C19.1699 82.7993 19.67 82.5913 19.9033 82.4135C20.3006 82.1106 20.1227 81.4659 20.0644 81.2393C20.0366 81.131 19.9265 81.0678 19.8288 81.0632C19.619 81.0532 19.4453 81.2815 19.3019 81.4974C18.9606 82.0112 19.022 82.48 19.0759 82.6537C19.1024 82.7392 19.2376 82.7628 19.3999 82.7076C19.8051 82.57 20.0596 82.2623 20.1621 82.0785C20.2128 81.9877 20.2142 81.8797 20.1644 81.7623C20.0491 81.4904 19.7746 81.312 19.5316 81.19C19.2696 81.0584 18.919 81.1609 18.6197 81.3306C18.3984 81.456 18.3262 81.795 18.2616 82.1622C18.2108 82.451 18.269 82.6773 18.372 82.8399C18.4262 82.9255 18.5626 82.9532 18.7266 82.8915C19.1355 82.7376 19.3936 82.298 19.486 81.927C19.5709 81.5862 19.1804 81.2275 18.8237 80.9377C18.6678 80.8111 18.5109 80.7975 18.3587 80.8252C18.0349 80.8839 17.8323 81.1236 17.7178 81.3277C17.3704 81.9471 17.5955 82.8987 17.8243 83.2663C17.9398 83.4519 18.3058 83.5046 18.7897 83.5116C19.9016 83.5275 20.5353 82.5483 20.7703 82.0132C20.9661 81.5672 20.5648 81.0958 20.1853 80.6479C20.0285 80.4629 19.8083 80.3772 19.5904 80.3039C19.4783 80.2661 19.3488 80.2789 19.2146 80.3442C18.5037 80.6898 18.2786 81.7756 18.2558 82.3678C18.2504 82.5077 18.3411 82.6491 18.4427 82.7426C18.6481 82.9315 18.9875 82.9007 19.2894 82.8587C19.5975 82.8158 19.8999 82.6136 20.1397 82.3735C20.3087 82.2043 20.2517 81.9238 20.1284 81.5573C19.9062 80.8966 19.3627 80.4794 19.0965 80.2693C18.894 80.1095 18.615 80.0904 18.2986 80.1043C17.9381 80.1201 17.6631 80.4016 17.4635 80.6814C16.9618 81.3846 17.0435 82.4738 17.1448 83.2067C17.1639 83.3447 17.2278 83.4298 17.3212 83.5069C17.7928 83.8963 18.7405 83.6447 19.5755 83.4089C19.7484 83.3601 19.8374 83.2509 19.9095 83.1055C20.2314 82.4553 19.8875 81.6956 19.603 81.131C19.461 80.8493 19.0311 80.8277 18.6998 80.8263C18.1455 80.824 17.376 81.8774 17.007 82.6886C16.882 82.9636 17.0831 83.2777 17.325 83.5461C17.6239 83.8778 18.116 83.9864 18.5142 84.0392C19.0937 84.1162 19.7913 83.5797 20.3025 82.9893C20.527 82.73 20.6157 82.3384 20.7099 81.9404C20.8015 81.5535 20.5703 81.1333 20.2784 80.7709C19.7452 80.1091 18.5934 80.2618 17.6949 80.4042C17.2714 80.4713 17.0068 80.8828 16.8214 81.2046C16.5042 81.7551 16.822 82.6746 17.0579 83.2691C17.1805 83.5782 17.4349 83.8167 17.7163 84.0071C18.0383 84.2249 18.5224 84.2267 18.9927 84.2104C19.4179 84.1957 19.8542 83.9707 20.2555 83.6649C20.5594 83.4334 20.6219 82.7247 20.6187 81.8653C20.6168 81.3671 20.3869 81.0993 20.1955 80.8822C20.0163 80.679 19.6404 80.6232 19.1964 80.6034C18.7837 80.5851 18.431 80.725 18.1195 80.9375C17.423 81.4125 17.2259 82.2927 17.1945 83.0566C17.1783 83.452 17.3865 83.7521 17.6272 83.9292C18.3207 84.4394 19.3624 83.9314 20.0486 83.5575C20.365 83.3852 20.5037 82.9676 20.5722 82.5451C20.6936 81.7962 20.0764 80.8912 19.4451 80.2107C18.8965 80.1728 18.3611 80.4095 18.0708 80.6014C17.9153 80.7186 17.7428 80.876 17.4568 81.1686" stroke="white" stroke-linecap="round"/>
<path d="M39.7147 86.6539C39.197 87.337 38.8936 88.061 38.9567 88.3968C38.9882 88.5647 39.146 88.6906 39.3609 88.7602C39.8549 88.9202 40.3105 88.7741 40.5466 88.6577C40.7577 88.5536 40.8919 88.2342 40.9653 87.8069C41.0236 87.4672 40.8221 87.1177 40.5649 86.8007C40.4531 86.6629 40.3299 86.6159 40.1889 86.5897C39.8847 86.5331 39.5726 86.6676 39.3236 86.8709C39.0748 87.0741 38.9854 87.4075 38.9144 87.7837C38.8167 88.3023 38.9302 88.7526 39.1074 89.0162C39.4852 89.5784 40.4125 89.6826 41.3084 89.7008C41.51 89.7049 41.6831 89.6483 41.7773 89.5396C42.2045 89.0468 41.2658 87.7368 40.6427 86.9197C40.5368 86.7809 40.3574 86.76 40.1928 86.7839C39.8295 86.8365 39.412 87.2891 38.9928 87.7722C38.7067 88.1019 38.6739 88.4395 38.7106 88.712C38.7277 88.839 38.8208 88.9262 38.9933 89.0194C40.082 89.6074 41.5935 89.0809 42.2926 88.6108C42.4228 88.5233 42.3941 88.3887 42.3435 88.225C42.0667 87.33 41.2585 86.7078 40.5898 86.3247C40.2752 86.1445 39.9126 86.2056 39.6414 86.2546C39.5165 86.2772 39.4305 86.35 39.3568 86.4435C38.7447 87.2204 39.155 88.7566 39.2712 88.934C39.666 89.5364 40.9209 89.3764 41.6006 89.1544C41.7732 89.098 41.8838 88.9304 41.9503 88.7779C42.0834 88.4729 41.9549 88.1232 41.8087 87.8288C41.4346 87.0754 40.4499 86.5663 39.9277 86.48C39.3285 86.381 38.6031 87.4711 38.3002 88.2481C38.1037 88.7522 38.2873 89.2292 38.4174 89.4769C38.7382 90.0878 40.1094 89.9036 40.8527 89.6429C41.1748 89.53 41.3728 89.3338 41.5033 89.1541C41.6461 88.9575 41.5972 88.6216 41.5329 88.2719C41.4657 87.9061 41.1578 87.504 40.8234 87.131C40.6804 86.9715 40.4923 86.9774 40.3301 87.0148C39.994 87.0922 39.7362 87.4265 39.5399 87.7749C39.3722 88.0726 39.3528 88.3963 39.3822 88.7014C39.4153 89.0453 39.7722 89.2497 40.0636 89.378C40.7382 89.6751 42.0328 89.1483 42.5762 88.6998C43.0351 88.321 41.9754 87.4003 41.4416 86.9475C41.2148 86.7551 40.9001 86.7346 40.5984 86.7267C40.2947 86.7188 40.0403 86.8454 39.8331 86.9827C39.3503 87.3025 39.3232 88.1906 39.356 88.8313C39.3636 88.9806 39.5622 89.0999 39.6843 89.1762C40.1154 89.4458 40.9827 89.045 41.9185 88.4909C42.1157 88.3741 42.1554 88.205 42.1847 88.085C42.2378 87.868 42.1359 87.622 41.9267 87.2924C41.6109 86.7948 41.068 86.4672 40.625 86.2649C39.8742 85.9221 39.0665 86.2137 38.4931 86.5797C37.7916 87.0273 38.014 88.4554 38.3752 89.5488C38.6408 90.3524 40.1221 89.9703 40.8634 89.7327C41.0458 89.6743 41.1838 89.5134 41.2696 89.398C41.3553 89.2825 41.3682 89.18 41.3675 88.8971C41.3667 88.6142 41.3518 88.154 41.2933 87.7446" stroke="white" stroke-linecap="round"/>
<path d="M40.1479 87.6929C40.1625 87.7216 40.1699 87.8676 40.2193 88.0064C40.2361 88.0535 40.3675 87.8944 40.3715 87.8269C40.3754 87.7594 40.2815 87.7477 40.2286 87.7942C40.1757 87.8406 40.1666 87.9456 40.2451 88.0098" stroke="white" stroke-linecap="round"/>
<path d="M39.3037 86.6729C39.5727 86.607 40.0382 86.7201 40.5287 86.9486C41.0587 87.1954 41.6924 87.3163 41.9943 87.5776C42.3178 87.8576 42.3316 88.3776 42.3255 89.2365C42.3234 89.5256 42.0964 89.6694 41.8652 89.8105C41.1881 90.0359 40.6874 90.0066 40.2027 89.9879C40.0865 89.9698 39.9722 89.9263 39.8329 89.8815" stroke="white" stroke-linecap="round"/>
<path d="M4.46436 70.252C4.57701 70.304 5.08365 70.5284 6.13684 70.7551C6.38584 70.8021 6.55474 70.8351 6.70053 70.8771C6.84631 70.9191 6.96385 70.9692 7.16978 71.0625" stroke="white" stroke-linecap="round"/>
<path d="M4.00515 70.4751C3.64225 71.4568 3.29883 72.6627 3.34857 73.3161C3.42151 74.2743 5.21677 73.5152 5.64586 73.6505C6.08738 73.7487 6.38117 73.8082 6.62774 73.829C6.76234 73.8361 6.91618 73.8361 6.99093 73.7937" stroke="white" stroke-linecap="round"/>
<path d="M3.8096 71.2728C3.77829 71.3535 3.73345 71.9605 3.81391 72.6592C3.8598 73.0576 4.49874 72.0062 4.57978 71.8618C4.65692 71.7243 4.45128 72.3405 4.47195 72.5464C4.51987 73.0238 5.10242 71.7024 5.14662 71.475C5.23463 71.0222 4.88993 72.3517 4.87124 72.553C4.86174 72.6553 4.86489 72.7591 4.95385 72.6776C5.27908 72.3796 5.4599 71.9267 5.55077 71.8362C5.71001 71.6777 5.60229 72.3589 5.63976 72.4766C5.69171 72.6398 6.04301 72.0771 6.27861 71.9927C6.42493 71.9403 6.37733 72.6048 6.49639 72.6396C6.61545 72.6744 6.83915 72.2475 6.93257 72.1109C7.02598 71.9743 6.98233 72.141 6.94514 72.1812C6.90795 72.2214 6.87853 72.1302 6.81813 72.1425C6.75772 72.1548 6.66722 72.2732 6.58472 72.2919C6.42099 72.3289 6.28192 71.8084 6.11028 71.4352C6.0659 71.3387 5.89606 71.6456 5.79454 71.7424C5.50869 72.0151 4.96751 71.3936 4.50487 71.2056C3.79775 70.9182 6.58517 71.635 6.67875 71.7685C7.10133 72.3716 5.60245 72.7606 5.53408 72.8482C5.39551 73.0258 4.71039 72.9151 4.68366 72.9295C4.20788 73.185 6.21154 72.894 6.55897 72.8857C6.62928 72.884 5.9721 73.0614 5.74475 73.1512C5.51741 73.241 5.60886 73.2823 5.70543 73.2973C5.802 73.3124 5.90092 73.2999 6.0004 73.2758C6.09987 73.2517 6.19689 73.2164 6.0697 73.0412" stroke="white" stroke-linecap="round"/>
<path d="M56.5034 66.7341C56.5034 66.5984 56.9545 64.1635 57.6684 60.5231C57.919 59.2454 57.9918 59.134 58.5176 59.6107C59.0434 60.0874 60.0325 61.1582 60.5734 61.7673C61.1143 62.3765 61.1771 62.4916 61.9526 62.0148C62.728 61.5379 64.2143 60.4655 65.5776 59.6018C66.941 58.7381 68.1365 58.1156 68.7287 58.0014C69.3209 57.8871 69.2735 58.3 69.105 58.9656C68.7033 60.5518 67.8911 62.4159 67.1597 64.0114C66.7297 64.9492 66.7258 65.5171 66.7208 65.882C66.7186 66.0497 66.7931 66.1788 68.4907 66.259C70.1883 66.3391 73.5263 66.3654 75.1194 66.5183C76.7124 66.6711 76.4596 66.9497 75.5536 67.6941C74.6476 68.4384 73.0961 69.64 72.2451 70.3311C71.3942 71.0222 71.2908 71.1663 71.1842 71.4296" stroke="#E7FF0B" stroke-linecap="round"/>
<path d="M38.0574 97.7158C37.8781 98.3006 37.3952 99.3025 36.7261 100.467C36.3287 101.158 34.7827 102.527 32.9095 104.328C32.3875 104.951 32.7359 104.985 33.8187 104.775C34.9016 104.565 36.7083 104.109 38.6571 103.64" stroke="#E7FF0B" stroke-linecap="round"/>
<path d="M39.5859 103.516C39.7333 103.849 40.3735 105.197 41.5465 106.576C42.1551 106.779 42.791 105.972 43.2212 105.454C43.6513 104.936 43.8566 104.731 44.068 104.519" stroke="#E7FF0B" stroke-linecap="round"/>
<path d="M44.3354 104.672C45.5058 105.696 47.376 107.201 47.71 107.221C47.8763 106.726 48.0032 106.076 48.1435 105.596C48.1977 105.378 48.2176 105.211 48.2671 104.981" stroke="#E7FF0B" stroke-linecap="round"/>
<path d="M51.3667 44.2632C51.3667 45.1215 51.1891 46.9183 50.6809 48.3423C50.584 48.6138 50.5531 48.7624 50.6494 48.7296C51.4596 48.0642 53.0326 47.1067 54.6931 46.2031C55.3079 45.8746 55.4601 45.8101 55.6169 45.7438" stroke="white" stroke-linecap="round"/>
<path d="M55.6167 45.7433C55.8907 46.1268 57.4727 46.7886 60.992 47.2748C62.2857 47.4535 63.0308 47.2466 63.8868 46.741C65.6907 45.6754 67.2741 44.2622 68.1728 43.3732C68.7283 42.8237 69.1327 41.8705 69.6835 40.2695C70.3644 38.2901 70.4084 36.1535 70.3914 34.5024C70.3784 33.248 69.6982 31.8332 68.9756 30.3527C68.5579 29.4968 68.075 28.9296 67.2647 28.1291C66.0644 26.9431 64.3996 26.0599 62.0952 25.2991C60.5874 24.8014 58.2554 24.5547 56.1942 24.3534C54.133 24.1521 52.3782 24.1256 50.8815 24.1867C48.1933 24.2963 46.7705 24.614 46.2324 24.8164C44.7258 25.383 44.1054 26.1431 43.3959 26.9675C42.6319 27.8552 41.4929 29.6265 40.6976 31.9458C40.3543 32.9466 40.5821 33.8661 40.7591 34.928C41.0661 36.7696 41.7998 38.5303 42.3458 39.6115C42.9861 40.8794 44.827 42.0209 47.0057 43.1462C47.934 43.536 49.7437 44.1729 51.1444 44.5005C51.3311 44.5171 51.4826 44.519 51.6387 44.5209" stroke="white" stroke-linecap="round"/>
<path d="M55.6848 33.9252C55.6551 34.4502 55.6912 35.3013 55.8247 35.5836C55.8978 35.7383 56.0808 35.8591 56.25 35.9286C56.5748 36.0621 57.1145 35.9218 57.8106 35.6763C58.5993 35.3982 59.1559 34.6244 59.5257 33.7803C59.727 33.3207 59.6101 32.6821 59.3276 32.1034C58.7242 30.8673 57.7199 30.3157 57.0989 30.057C56.2549 29.7055 55.3535 29.7842 54.7031 30.029C53.342 30.5415 53.3639 32.8696 53.3301 34.7675C53.323 35.1649 53.3986 35.4707 53.4944 35.7121C53.5902 35.9534 53.7347 36.1204 54.0477 36.2036C55.7169 36.6469 57.6318 35.0519 59.0152 33.434C59.3371 33.0576 59.2342 32.5041 59.1133 32.0517C58.6179 30.1985 56.5704 29.3985 55.0715 29.0002C54.3923 28.8197 53.7796 29.0685 53.2579 29.4287C51.4577 30.6716 51.411 33.9976 51.4542 35.4519C51.4618 35.7086 51.5907 35.8899 51.721 36.0053C51.977 36.2319 52.5469 36.1256 53.2728 35.884C54.1404 35.5952 54.7568 34.9167 55.1642 34.3428C55.3658 34.0589 55.4043 33.6956 55.3815 33.3504C55.2812 31.832 53.2277 30.5569 50.6576 29.3953C49.948 29.0746 49.2111 29.3621 48.4187 29.7021C47.7236 30.0003 47.4529 30.8207 47.2417 31.5557C47.0443 32.2426 47.1091 33.0136 47.2409 33.7329C47.3403 34.2758 47.6974 34.6334 48.0697 34.9077C48.45 35.1878 49.0788 35.0293 49.7046 34.7846C50.3914 34.5161 50.9632 33.4293 51.5244 32.1931C52.4431 30.1693 51.917 28.193 51.6756 27.8862C51.4319 27.5764 50.8463 27.5628 50.2455 27.5736C49.0518 27.5951 47.9317 28.8984 47.157 30.3351C46.7919 31.0122 46.9651 31.7776 47.0682 32.367C47.1188 32.6568 47.2852 32.9004 47.5072 33.0916C47.9714 33.4913 48.8177 33.5097 49.7214 33.4086C50.5448 33.3164 51.3038 32.7886 51.9821 32.2232C52.5116 31.7819 52.6503 30.9685 52.6383 30.0149C52.6258 29.0297 51.7283 28.1287 50.7895 27.3488C49.9716 26.6692 48.9436 26.5328 48.0405 26.4631C47.2397 26.4012 46.4844 26.695 45.8561 27.1377C44.7578 27.9117 45.0863 30.2408 45.517 31.6976C45.5888 31.9406 45.7572 32.0145 45.9007 32.075C46.2029 32.2023 46.6402 32.1299 47.1147 32.0128C47.5899 31.8956 47.9464 31.4982 48.1988 31.0284C48.8434 29.8286 48.3186 28.1277 47.9272 27.6558C47.313 26.9153 46.2104 28.9022 45.7478 29.7426C45.3194 30.5206 45.2702 31.1948 45.2866 31.6291C45.2952 31.8586 45.4188 32.0952 45.5936 32.2425C45.952 32.5448 46.6187 32.4875 47.2184 32.3735C47.497 32.3205 47.6471 32.0314 47.7228 31.7773C47.8743 31.2692 47.6142 30.7185 47.3364 30.272C47.108 29.9047 46.7338 29.694 46.3471 29.5261C45.9652 29.3603 45.5509 29.4583 45.223 29.5809C44.3766 29.8974 44.4124 31.5495 44.5557 32.4723C44.6106 32.8264 44.8888 33.083 45.1896 33.2682C45.4768 33.4451 45.88 33.2326 46.2007 33.0493C46.5587 32.8447 46.5949 32.2518 46.586 31.7173C46.5775 31.2018 46.1943 30.6737 45.8328 30.2219C45.6842 30.0361 45.488 30.0513 45.2855 30.2234C43.7452 31.5323 43.9975 34.1171 44.0804 34.4932C44.1193 34.6698 44.2571 34.7857 44.4349 34.8494C44.8333 34.9922 45.5113 34.8448 46.1948 34.6968C46.4731 34.6365 46.5926 34.5281 46.6617 34.3187C47.1093 32.9623 45.5683 31.6799 45.1435 31.4593C44.922 31.3443 44.6219 31.3841 44.3928 31.4942C43.007 32.1601 43.7184 34.8017 43.8327 35.0389C43.8843 35.1457 44.0838 35.0987 44.242 35.0322C44.5744 34.8927 44.8964 34.4377 45.2055 33.7934C45.5426 33.0907 45.3551 32.2411 45.1745 31.5655C45.0919 31.2565 44.9397 31.0434 44.7805 30.9971C44.6213 30.9508 44.4372 31.0848 44.2962 31.307C43.6304 32.3562 43.8722 34.6068 44.2033 35.7739C44.3156 36.1697 44.9735 36.0839 45.3596 36.0571C45.5393 36.0447 45.6799 35.9768 45.8162 35.8376C46.1295 35.5176 46.209 34.9042 46.1075 34.1127C45.9743 33.0739 45.406 32.283 45.0606 31.8583C44.9168 31.6814 44.7823 31.631 44.6465 31.6115C44.5108 31.5921 44.3638 31.6175 44.2343 31.7403C43.3885 32.5424 43.6467 35.6778 44.0224 37.6631C44.1763 38.4762 44.8768 39.0227 45.5733 39.4152C46.4118 39.8878 47.3208 39.8175 47.8792 39.7205C48.1376 39.6756 48.3179 39.5216 48.4529 39.3699C48.7119 39.0787 48.7204 38.6725 48.6185 38.1811C48.2182 36.2511 46.5768 34.9641 46.1938 34.8331C46.0064 34.769 45.7975 34.859 45.6442 35.0729C45.2718 35.5925 45.2618 36.5537 45.2841 37.4956C45.3028 38.2859 45.7379 38.8683 46.1293 39.3591C47.0407 40.5018 50.0918 40.6189 52.3864 40.3903C52.7371 40.3553 52.9428 40.1552 53.0739 40.0168C53.2983 39.7799 53.2567 39.4148 53.1736 39.0458C53.0782 38.6217 52.7142 38.1389 52.3322 37.8443C51.9452 37.5458 51.6602 38.7748 51.549 39.6125C51.3982 40.7475 51.6989 41.6829 52.0619 42.0885C52.3099 42.3658 52.9326 42.2342 53.6489 42.0365C54.007 41.9376 54.2771 41.6272 54.3211 41.3199C54.4171 40.6494 53.7728 40.1575 53.4548 39.9446C53.3166 39.852 53.1696 39.8924 53.1075 40.3153C53.0453 40.7383 53.0581 41.5686 53.1204 41.9415C53.1724 42.2527 53.5049 42.2283 53.639 42.5183C53.9456 43.1811 53.4516 43.9826 53.2851 44.3681C53.1842 44.6018 54.7401 42.9834 56.5379 41.8592C57.0725 41.525 57.1662 42.4675 57.3116 42.811C57.457 43.1545 57.7346 43.0742 57.9712 42.9809C58.8397 42.6383 59.2586 42.0795 59.3212 41.999C59.5109 41.7549 59.1896 42.8176 59.3699 43.3396C59.5272 43.7948 60.0032 44.1675 60.553 44.5037C61.5583 45.1183 63.1627 44.1749 64.5456 43.2422C64.8865 43.0123 65.0385 42.5931 65.0946 42.139C65.2171 41.1479 64.5693 40.1494 63.8066 39.3931C63.1462 38.7381 62.5118 38.6328 62.2241 38.5992C62.0736 38.5817 61.9112 38.5905 61.7975 38.7497C61.503 39.1619 61.5602 39.8241 61.587 40.3087C61.5987 40.5216 61.6672 40.662 61.848 40.6866C62.3361 40.7529 63.0775 40.0635 63.816 39.1439C64.4827 38.3136 64.5531 37.3076 64.5769 36.4216C64.6272 34.5554 63.57 34.0241 63.3173 33.8553C63.1969 33.775 63.0469 33.7873 62.9354 33.8601C62.2803 34.2882 62.2803 35.9865 62.3215 37.218C62.3309 37.4993 62.6022 37.7324 62.8189 37.871C63.7896 38.4917 65.5556 37.5408 66.4367 36.7827C67.1194 36.1954 66.7206 34.9305 66.2667 33.9678C65.2956 31.908 63.8845 31.302 63.3721 31.1385C63.1517 31.0682 62.9714 31.2237 62.8466 31.8027C62.1882 34.8556 62.8313 35.962 63.0844 36.3489C63.3209 36.7105 63.9141 36.7613 64.5488 36.737C65.2378 36.7106 65.796 36.2604 66.2127 35.8452C66.6474 35.4119 66.707 34.6602 66.6462 33.8389C66.497 31.8256 65.2225 30.7172 64.6739 30.2169C64.4867 30.0462 64.3438 30.2415 64.2552 30.4371C63.8315 31.3719 63.8857 32.2817 63.9554 32.6391C63.9827 32.7794 64.1645 32.7737 64.3073 32.7412C64.6044 32.6737 64.8843 32.3691 65.0964 31.8798C65.3809 31.2233 64.8478 30.4385 64.3289 29.9058C63.553 29.1094 61.2909 28.994 59.7768 29.1644C59.5565 29.1891 59.4672 29.4046 59.4093 29.5472C59.3002 29.8161 59.3694 30.1195 59.4455 30.4112C59.5317 30.7418 59.7986 30.9739 60.0643 31.1796C60.4299 31.4626 61.1326 31.4354 61.8325 31.274C62.3134 31.1631 62.5786 30.6953 62.7859 30.2471C62.9293 29.9372 62.6823 29.2287 62.2761 28.2242C61.9118 27.3235 61.1186 26.8283 60.4553 26.491C59.8996 26.2084 59.279 26.2164 58.6904 26.2781C58.1331 26.3365 57.7294 26.7775 57.3983 27.2125C57.0413 27.6816 56.9317 28.2848 56.888 28.7718C56.8694 28.9798 56.8999 29.1112 57.0017 29.1771C57.1035 29.243 57.2864 29.2401 57.4225 29.1776C57.5586 29.1151 57.6425 28.9931 57.6768 28.8591C57.7455 28.5913 57.4299 28.1352 56.8321 27.5709C55.4154 26.2336 53.2904 27.0135 52.5802 27.3203C52.4432 27.3795 52.3937 27.5513 52.4561 27.5217C52.5185 27.4922 52.7213 27.2981 52.7954 27.0888C52.9381 26.6854 52.631 26.3074 52.8284 26.0867C54.1641 24.5934 56.2809 26.1358 58.8196 26.3407C62.244 26.6171 63.1459 27.2467 64.4708 28.0722C65.8061 28.9042 67.0036 30.2636 67.2583 30.8949C67.6038 31.751 67.9761 32.6968 68.4935 33.8408C68.8051 34.5296 68.7808 35.4675 68.6618 36.3505C68.5619 37.092 67.9842 37.9371 67.7136 38.5488C67.4563 39.1307 67.0544 39.7393 66.7504 40.4052C66.478 41.0019 65.3697 39.1791 63.3308 38.434C62.2164 38.0267 60.5384 38.0307 58.6994 38.0513C57.3855 38.066 56.6964 38.4211 56.4633 38.6112C56.3646 38.6917 56.4682 38.8716 56.5936 38.9347C56.7189 38.9978 56.9045 38.9722 57.0307 38.8968C57.1569 38.8213 57.2181 38.6967 57.1819 38.6023C57.1456 38.5079 57.0101 38.4474 56.9037 38.4782C56.7973 38.5089 56.724 38.6328 56.6799 38.7801C56.6359 38.9273 56.6233 39.0942 56.7081 39.2294C56.897 39.5303 57.2905 39.6491 57.4938 39.8549C57.5704 39.9761 57.5933 40.1316 57.6164 40.2786C57.6396 40.4256 57.6625 40.5596 57.7469 40.9976" stroke="white" stroke-width="5" stroke-linecap="round"/>
<path d="M46.8717 31.1709C46.7753 31.1904 46.4328 31.4108 46.141 31.8212C45.8456 32.2367 45.8382 33.2551 45.9476 33.9734C46.0492 34.6407 46.7391 35.193 47.1159 35.3496C47.3156 35.4326 47.6436 35.2974 47.9912 35.1637C48.4886 34.9722 48.788 33.8657 48.9069 33.0874C49.0681 32.0328 48.7811 31.6937 48.5934 31.4453C48.479 31.3568 48.0685 31.2475 47.4315 31.176C47.1435 31.1736 46.927 31.24 46.5321 31.3084" stroke="black" stroke-linecap="round"/>
<path d="M50.7957 31.1841C50.7957 31.3064 50.7957 31.5546 50.7868 31.8808C50.7779 32.0219 50.7601 32.1134 50.7456 32.6528C50.7311 33.1922 50.7205 34.1768 50.7095 35.1403" stroke="black" stroke-linecap="round"/>
<path d="M50.769 31.127C50.8653 31.1426 51.2127 31.4786 51.8198 32.1713C52.9075 33.4124 53.2094 33.7777 53.4076 33.8911C53.9526 34.2031 54.2888 32.5927 54.6051 32.1083C54.7525 31.8824 54.9063 31.6821 55.0631 31.5363C55.1311 31.4732 55.1872 31.4455 55.2477 31.474C55.3083 31.5025 55.3745 31.5914 55.4193 31.6853C55.4856 31.8751 55.4626 32.987 55.4039 34.5747C55.3903 35.1495 55.4095 35.2554 55.4296 35.4048" stroke="black" stroke-linecap="round"/>
<path d="M60.5383 32.2997C60.4842 32.2373 60.0914 32.0056 59.3754 31.7918C58.7574 31.6072 58.0224 32.208 57.7282 32.5603C57.3737 32.9848 57.2356 34.0307 57.2473 35.2012C57.2529 35.7624 57.6476 36.1213 57.8429 36.3528C57.9993 36.5382 58.2267 36.6445 58.4806 36.7017C58.6674 36.7438 58.8299 36.7039 58.9756 36.6534C59.3236 36.3427 59.8154 35.5256 59.9108 35.0869C59.9149 35.0094 59.9149 34.9198 59.9149 34.8275" stroke="black" stroke-linecap="round"/>
<path d="M59.9419 34.7211L59.9828 34.6938" stroke="black" stroke-linecap="round"/>
<path d="M58.7915 34.3589C58.8005 34.3677 58.8549 34.4059 59.4131 34.5226C59.9215 34.6057 60.8871 34.7373 61.5318 34.8051C62.1764 34.8728 62.4709 34.8728 62.7342 34.8862" stroke="black" stroke-linecap="round"/>
<path d="M65.0127 32.7017C65.0229 33.1181 65.021 33.9502 64.8183 34.686C64.7546 34.8721 64.6927 35.0093 64.6569 35.111C64.6211 35.2127 64.6131 35.2747 64.605 35.3654" stroke="black" stroke-linecap="round"/>
<path d="M64.6968 37.4917C64.7013 37.4961 64.7058 37.5005 64.7749 37.4731C64.8441 37.4457 64.9778 37.3863 65.1156 37.3252" stroke="black" stroke-linecap="round"/>
<path d="M67.5728 33.7505C67.5957 33.8773 67.5973 34.05 67.5655 34.2962C67.5107 34.6017 67.3875 35.0312 67.1957 35.5438C67.0932 35.7989 66.9803 36.0435 66.8506 36.3764" stroke="black" stroke-linecap="round"/>
<path d="M66.8376 36.498L66.8071 36.5629" stroke="black" stroke-linecap="round"/>
<path d="M66.7861 37.9341V38.0952" stroke="black" stroke-linecap="round"/>
<path d="M78.2456 60.0004C78.4225 60.0004 79.8618 59.7853 81.5761 59.5258C82.159 59.4375 82.1791 59.614 82.1791 59.9037C82.1636 60.6364 82.1094 61.2523 82.026 61.5463C81.9808 61.6806 81.9299 61.7848 81.8325 61.9371" stroke="black" stroke-linecap="round"/>
<path d="M79.0142 61.4848C79.073 61.4923 79.1319 61.4997 79.5451 61.4585C79.9584 61.4173 80.7243 61.3272 81.176 61.2808C81.6277 61.2344 81.742 61.2344 81.8597 61.2344" stroke="black" stroke-linecap="round"/>
<path d="M80.1525 62.1387C80.1525 62.1919 80.1525 62.2451 80.1525 62.3686C80.1525 62.492 80.1525 62.6841 80.1374 62.8351C80.1224 62.9861 80.0922 63.0902 79.9707 63.2425" stroke="black" stroke-linecap="round"/>
<path d="M78.9849 63.6889C79.0135 63.6889 79.0422 63.6889 79.6283 63.5749C80.2144 63.461 81.3572 63.2331 81.9992 63.1109C82.6412 62.9887 82.7479 62.9791 82.8579 62.9692" stroke="black" stroke-linecap="round"/>
<path d="M84.2239 59.8701C84.2239 60.1324 84.1742 60.6038 84.099 61.1645C84.0735 61.389 84.0735 61.4915 84.0593 61.6403C84.045 61.7891 84.0166 61.9812 84.0103 62.224" stroke="black" stroke-linecap="round"/>
<path d="M84.1016 62.0409C84.1469 62.0409 84.4385 62.0409 84.8984 62.0276C85.09 62.0142 85.1967 61.9874 85.3078 61.9699C85.4188 61.9523 85.531 61.9448 85.6467 61.937" stroke="black" stroke-linecap="round"/>
<path d="M83.8584 63.9517C83.8013 63.9706 83.6694 64.0753 83.4733 64.2942C83.256 64.5367 83.2136 65.0426 83.2623 65.6157C83.3009 66.0704 83.6247 66.3134 83.8758 66.4406C84.3658 66.6888 84.7464 66.4338 84.945 66.357C85.4755 66.1522 85.2326 65.101 85.1367 64.8581C85.065 64.745 84.9468 64.6523 84.8081 64.6046C84.6694 64.5569 84.5138 64.5569 84.3535 64.5569" stroke="black" stroke-linecap="round"/>
<path d="M84.1997 64.1943C84.2148 64.1943 84.2299 64.1943 84.3139 64.1943C84.3978 64.1943 84.5502 64.1943 84.6816 64.2353C84.8129 64.2762 84.9186 64.3581 85.0275 64.5324" stroke="black" stroke-linecap="round"/>
<path d="M87.4907 63.7432C87.5295 63.6045 87.9616 63.0693 88.5504 62.7057C88.6664 62.6341 88.7828 62.6277 88.9023 62.6571C89.168 62.7223 89.5049 63.0975 89.9356 63.4785C90.3372 63.6575 90.7482 63.6283 91.1353 63.4727C91.3091 63.3846 91.4366 63.278 91.6367 62.9852" stroke="black" stroke-linecap="round"/>
</svg>
