<svg width="105" height="160" viewBox="0 0 105 160" fill="none" xmlns="http://www.w3.org/2000/svg">
<rect width="105" height="160" rx="5.0392" fill="#A3E7D8"/>
<path d="M52.5889 152V145.637H56.667V146.595H53.7314V148.335H56.3857V149.293H53.7314V152H52.5889ZM57.5107 152V147.228H58.6006V148.019H58.6533C58.8247 147.469 59.2817 147.157 59.8311 147.157C59.9541 147.157 60.1299 147.17 60.2354 147.184V148.221C60.1343 148.186 59.9014 148.155 59.7168 148.15C59.0928 148.155 58.6357 148.585 58.6357 149.188V152H57.5107ZM62.8281 152.097C61.4351 152.097 60.543 151.108 60.543 149.636C60.543 148.15 61.4351 147.166 62.8281 147.166C64.2256 147.166 65.1177 148.15 65.1133 149.636C65.1177 151.108 64.2256 152.097 62.8281 152.097ZM61.6768 149.627C61.6768 150.501 62.0591 151.2 62.8369 151.2C63.6016 151.2 63.9839 150.501 63.9795 149.627C63.9839 148.752 63.6016 148.049 62.8369 148.054C62.0591 148.049 61.6768 148.752 61.6768 149.627ZM65.9834 152V147.228H67.0557V148.036H67.1172C67.3149 147.491 67.7939 147.166 68.4268 147.166C69.0728 147.166 69.5386 147.496 69.7188 148.036H69.7715C69.978 147.509 70.5098 147.166 71.2041 147.166C72.0786 147.166 72.6938 147.729 72.6895 148.792V152H71.5732V148.968C71.5732 148.375 71.2129 148.106 70.7559 148.106C70.2065 148.106 69.8857 148.48 69.8857 149.021V152H68.7959V148.924C68.7915 148.427 68.4663 148.106 67.9873 148.106C67.5039 148.106 67.1084 148.506 67.1084 149.1V152H65.9834ZM74.4561 152.07C74.0781 152.07 73.7661 151.763 73.7705 151.385C73.7661 151.016 74.0781 150.712 74.4561 150.708C74.8208 150.712 75.1328 151.016 75.1328 151.385C75.1328 151.763 74.8208 152.07 74.4561 152.07ZM84.1416 144.846V146.568H85.2578V147.377H84.1416V149.319H83.166V144.846H84.1416ZM78.2178 148.836V145.232H79.2021V148.032C80.2173 148.019 81.2939 147.926 82.4541 147.702L82.5684 148.502C81.25 148.766 80.0283 148.836 78.877 148.836H78.2178ZM79 152.677V149.706H84.1416V152.677H79ZM79.958 151.903H83.1836V150.471H79.958V151.903ZM92.0254 145.241V145.892C92.0298 146.524 92.0298 147.245 91.8628 148.177H92.9131V148.968H91.0234V150.761H90.0742V148.968H89.0195V150.761H88.0615V148.968H85.6533V148.177H90.874C91.041 147.289 91.0498 146.617 91.0498 146.006H86.541V145.241H92.0254ZM86.4707 152.624V150.075H87.4463V151.833H92.2363V152.624H86.4707Z" fill="black"/>
<path d="M9.30762 12.5947V11.6367H14.3789V12.5947H12.4189V18H11.2764V12.5947H9.30762ZM16.6113 18.0967C15.2183 18.0967 14.3262 17.1079 14.3262 15.6357C14.3262 14.1504 15.2183 13.166 16.6113 13.166C18.0088 13.166 18.9009 14.1504 18.8965 15.6357C18.9009 17.1079 18.0088 18.0967 16.6113 18.0967ZM15.46 15.627C15.46 16.5015 15.8423 17.2002 16.6201 17.2002C17.3848 17.2002 17.7671 16.5015 17.7627 15.627C17.7671 14.7524 17.3848 14.0493 16.6201 14.0537C15.8423 14.0493 15.46 14.7524 15.46 15.627ZM20.4609 18.0703C20.083 18.0703 19.771 17.7627 19.7754 17.3848C19.771 17.0156 20.083 16.7124 20.4609 16.708C20.8257 16.7124 21.1377 17.0156 21.1377 17.3848C21.1377 17.7627 20.8257 18.0703 20.4609 18.0703ZM26.877 13.0957C26.877 14.3965 27.6416 15.7676 28.9248 16.3037L28.3887 17.0771C27.4482 16.6685 26.7627 15.8379 26.3979 14.8271C26.0332 15.917 25.3345 16.8311 24.4072 17.2705L23.8447 16.5059C25.0972 15.9258 25.8794 14.4448 25.8838 13.0957V12.4277H24.1348V11.6191H28.6172V12.4277H26.877V13.0957ZM29.5049 18.7822V10.8369H30.4893V18.7822H29.5049ZM33.8643 11.2852C34.5059 11.2808 35.064 11.5181 35.4375 11.918H37.3359V10.8369H38.3115V15.5127H37.3359V14.502H35.4331C35.0552 14.8931 34.5015 15.1304 33.8643 15.126C32.6646 15.1304 31.7637 14.3262 31.7637 13.21C31.7637 12.085 32.6646 11.2808 33.8643 11.2852ZM32.6953 13.21C32.6953 13.8604 33.1831 14.2998 33.8643 14.2998C34.5234 14.2998 35.0112 13.8604 35.0156 13.21C35.0112 12.5376 34.5234 12.1201 33.8643 12.1201C33.1831 12.1201 32.6953 12.5376 32.6953 13.21ZM32.9238 17.2266C32.915 16.2466 33.9565 15.6753 35.6221 15.6797C37.292 15.6753 38.3335 16.2466 38.3379 17.2266C38.3335 18.2021 37.292 18.7734 35.6221 18.7734C33.9565 18.7734 32.915 18.2021 32.9238 17.2266ZM33.8818 17.2266C33.873 17.7319 34.519 18.0044 35.6221 18.0088C36.7471 18.0044 37.3799 17.7319 37.3799 17.2266C37.3799 16.708 36.7471 16.4312 35.6221 16.4268C34.519 16.4312 33.873 16.708 33.8818 17.2266ZM35.877 12.7002C35.9209 12.8628 35.9473 13.0298 35.9473 13.21C35.9473 13.3857 35.9209 13.5527 35.8813 13.7109H37.3359V12.7002H35.877Z" fill="black"/>
<path d="M11.6587 27.9937C11.655 29.0923 12.3765 30.2275 13.3872 30.6597L13.0063 31.2017C12.2336 30.8611 11.6184 30.136 11.3145 29.2607C11.0105 30.1982 10.3953 30.9966 9.62988 31.3701L9.22705 30.8208C10.2158 30.3557 10.9482 29.1252 10.9556 27.9937V27.2979H9.4541V26.7192H13.1528V27.2979H11.6587V27.9937ZM13.9805 32.6226V26.0601H14.6763V32.6226H13.9805ZM17.3525 26.4409C17.8982 26.4373 18.3633 26.6423 18.6709 26.9829H20.3115V26.0601H21.0073V29.9346H20.3115V29.0483H18.6672C18.3596 29.3853 17.8945 29.5867 17.3525 29.583C16.3638 29.5867 15.6277 28.9312 15.6313 28.0156C15.6277 27.0891 16.3638 26.4373 17.3525 26.4409ZM16.2979 28.0156C16.2942 28.5906 16.7373 28.9971 17.3525 28.9897C17.9495 28.9971 18.3926 28.5906 18.3926 28.0156C18.3926 27.426 17.9495 27.0342 17.3525 27.0415C16.7373 27.0342 16.2942 27.426 16.2979 28.0156ZM16.5908 31.3481C16.5872 30.5461 17.4368 30.0774 18.8101 30.0811C20.176 30.0774 21.0256 30.5461 21.0293 31.3481C21.0256 32.1465 20.176 32.6116 18.8101 32.6079C17.4368 32.6116 16.5872 32.1465 16.5908 31.3481ZM17.272 31.3481C17.2683 31.7986 17.8469 32.0623 18.8101 32.0586C19.7732 32.0623 20.3481 31.7986 20.3481 31.3481C20.3481 30.8794 19.7732 30.6194 18.8101 30.6157C17.8469 30.6194 17.2683 30.8794 17.272 31.3481ZM18.9895 27.5396C19.0334 27.686 19.0591 27.8472 19.0591 28.0156C19.0591 28.1768 19.0334 28.3342 18.9895 28.4771H20.3115V27.5396H18.9895ZM23.5884 26.5508C24.5698 26.5544 25.2693 27.448 25.2729 28.8506C25.2693 30.2678 24.5698 31.1614 23.5884 31.1577C22.6069 31.1614 21.9075 30.2678 21.9111 28.8506C21.9075 27.448 22.6069 26.5544 23.5884 26.5508ZM22.5776 28.8506C22.574 29.8943 22.9915 30.5352 23.5884 30.5352C24.1963 30.5352 24.6064 29.8943 24.6064 28.8506C24.6064 27.8215 24.1963 27.177 23.5884 27.1733C22.9915 27.177 22.574 27.8215 22.5776 28.8506ZM26.2471 32.6226V26.0601H26.9429V28.6309H27.9976V29.2168H26.9429V32.6226H26.2471ZM34.9248 26.0527V28.0156H35.877V28.6016H34.9248V30.8794H34.229V26.0527H34.9248ZM29.8711 28.1401C29.8638 27.1843 30.6255 26.5105 31.6143 26.5068C32.6067 26.5105 33.3574 27.1843 33.3647 28.1401C33.3574 29.0959 32.6067 29.7771 31.6143 29.7734C30.6255 29.7771 29.8638 29.0959 29.8711 28.1401ZM30.5522 28.1401C30.5449 28.7517 31.0137 29.1655 31.6143 29.1655C32.2222 29.1655 32.6799 28.7517 32.6836 28.1401C32.6799 27.5286 32.2222 27.1147 31.6143 27.1147C31.0137 27.1147 30.5449 27.5286 30.5522 28.1401ZM30.7646 32.4834V30.374H31.4604V31.9194H35.2031V32.4834H30.7646ZM37.1543 26.4409V29.0923C38.2126 29.0886 38.9744 29.0374 39.835 28.8652L39.9155 29.4292C38.978 29.6196 38.1504 29.6709 36.9639 29.6636H36.4512V26.4409H37.1543ZM37.1177 31.3774C37.114 30.5864 37.9563 30.1213 39.3369 30.1177C40.7102 30.1213 41.5525 30.5864 41.5562 31.3774C41.5525 32.1611 40.7102 32.6189 39.3369 32.6226C37.9563 32.6189 37.114 32.1611 37.1177 31.3774ZM37.8062 31.3774C37.8025 31.8132 38.3738 32.0659 39.3369 32.0659C40.2927 32.0659 40.864 31.8132 40.8677 31.3774C40.864 30.927 40.2927 30.6707 39.3369 30.667C38.3738 30.6707 37.8025 30.927 37.8062 31.3774ZM39.0513 28.4697V27.9351H40.8384V27.3198H39.0513V26.7778H40.8384V26.0601H41.5342V30.0591H40.8384V28.4697H39.0513ZM43.5366 31.4946L42.9507 33.5161H42.3281L42.7163 31.4946H43.5366ZM48.0249 27.2393C48.0212 28.0779 48.6035 28.8726 49.6069 29.2095L49.2554 29.7515C48.512 29.4951 47.9663 28.9824 47.6807 28.3379C47.395 29.0447 46.8237 29.605 46.0547 29.876L45.6812 29.334C46.7065 28.9861 47.3254 28.1365 47.3291 27.2319V27.0562H45.8862V26.4922H49.4385V27.0562H48.0249V27.2393ZM46.5527 30.9014V30.3374H50.8887V32.6226H50.1929V30.9014H46.5527ZM50.1929 30.0151V26.0601H50.8887V27.7446H51.8408V28.3306H50.8887V30.0151H50.1929ZM57.498 26.0674V30.916H56.8022V28.6821H55.0005V28.1255H56.8022V27.437H55.0005V26.8804H56.8022V26.0674H57.498ZM52.415 29.9785V26.5215H53.1035V29.3926C53.9751 29.3889 54.8027 29.3413 55.7402 29.1655L55.8135 29.7368C54.7734 29.9309 53.8835 29.9712 52.9204 29.9785H52.415ZM53.2207 32.4834V30.4912H53.9238V31.9194H57.6665V32.4834H53.2207ZM65.3994 26.0601V32.6372H64.7036V26.0601H65.3994ZM60.1919 28.8506C60.1919 27.448 60.8987 26.5544 61.8911 26.5508C62.8652 26.5544 63.583 27.448 63.583 28.8506C63.583 30.2678 62.8652 31.1614 61.8911 31.1577C60.8987 31.1614 60.1919 30.2678 60.1919 28.8506ZM60.8657 28.8506C60.8621 29.8943 61.2795 30.5352 61.8911 30.5352C62.4917 30.5352 62.9092 29.8943 62.9092 28.8506C62.9092 27.8215 62.4917 27.177 61.8911 27.1733C61.2795 27.177 60.8621 27.8215 60.8657 28.8506ZM69.5845 26.5142V29.3706H66.5156V26.5142H69.5845ZM67.1968 28.8066H68.9033V27.0708H67.1968V28.8066ZM67.2261 32.542V30.1323H71.4155V32.542H67.2261ZM67.9072 31.978H70.7271V30.689H67.9072V31.978ZM70.7197 29.832V26.0601H71.4155V27.6274H72.3677V28.1914H71.4155V29.832H70.7197ZM76.9189 26.1919V28.6968H77.6147V26.0601H78.2739V32.6226H77.6147V29.2681H76.9189V32.3076H76.2744V26.1919H76.9189ZM72.7222 30.9526V26.873H74.1431V27.4443H73.3594V30.3594C73.5901 30.3484 73.8611 30.3154 74.165 30.2422L74.2236 30.8281C73.6963 30.9417 73.2935 30.9526 72.9932 30.9526H72.7222ZM74.4141 30.9526V26.873H75.8716V27.4443H75.0439V30.363C75.3223 30.3557 75.6372 30.3228 75.9814 30.2275L76.04 30.8135C75.5127 30.9453 75.0806 30.9526 74.6924 30.9526H74.4141ZM80.9062 26.9756C80.9099 27.3638 81.2432 27.8948 81.8401 28.1841C82.426 27.9021 82.7556 27.3857 82.752 26.9756V26.8657H81.9683V26.2944H84.4292V26.8657H83.4551V26.9756C83.4551 27.47 83.8689 28.012 84.6636 28.2427L84.3486 28.7407C83.7224 28.5576 83.3049 28.1768 83.0925 27.719C82.8838 28.1804 82.47 28.5979 81.8364 28.792C81.1956 28.5942 80.7817 28.1584 80.5693 27.697C80.3533 28.1438 79.9358 28.5466 79.3096 28.7407L79.0166 28.2427C79.793 27.9973 80.2214 27.4187 80.2178 26.9756V26.8657H79.2363V26.2944H81.7046V26.8657H80.9062V26.9756ZM78.8481 29.7368V29.1655H84.8467V29.7368H78.8481ZM79.5659 32.542V30.3301H84.0996V32.542H79.5659ZM80.2544 31.978H83.4258V30.8794H80.2544V31.978ZM91.1411 29.9199V30.4692H88.4604V32.6226H87.7793V30.4692H85.1353V29.9199H91.1411ZM85.8823 29.1729V26.3237H86.5708V27.1807H89.6909V26.3237H90.3867V29.1729H85.8823ZM86.5708 28.6162H89.6909V27.7373H86.5708V28.6162ZM14.7129 36.0601V42.6372H14.0244V39.0557H12.7207V38.4844H14.0244V36.0601H14.7129ZM9.54199 41.0845V36.646H12.6108V37.21H10.2451V38.4844H12.3325V39.041H10.2451V40.5059C11.3438 40.5059 12.1055 40.4729 12.9771 40.3228L13.0503 40.8867C12.0945 41.0405 11.2705 41.0808 10.0547 41.0845H9.54199ZM18.4951 40.1836C19.916 40.1836 20.8132 40.634 20.8169 41.3994C20.8132 42.1611 19.916 42.6116 18.4951 42.6079C17.0889 42.6116 16.188 42.1611 16.188 41.3994C16.188 40.634 17.0889 40.1836 18.4951 40.1836ZM15.5435 39.6416V39.0776H17.9385V37.8472H18.6196V39.0776H21.5127V39.6416H15.5435ZM16.2393 36.939V36.3823H20.7656V36.9316C20.7693 37.4553 20.7693 37.9973 20.5825 38.6748L19.9014 38.6016C20.0771 37.9314 20.0771 37.448 20.0771 36.939H16.2393ZM16.8838 41.3994C16.8765 41.8242 17.5027 42.0696 18.4951 42.0732C19.4985 42.0696 20.1211 41.8242 20.1284 41.3994C20.1211 40.9673 19.4985 40.7146 18.4951 40.7109C17.5027 40.7146 16.8765 40.9673 16.8838 41.3994ZM27.8291 39.9199V40.4692H25.1484V42.6226H24.4673V40.4692H21.8232V39.9199H27.8291ZM22.5703 39.1729V36.3237H23.2588V37.1807H26.3789V36.3237H27.0747V39.1729H22.5703ZM23.2588 38.6162H26.3789V37.7373H23.2588V38.6162ZM32.1782 37.73C32.1709 38.9275 32.896 40.136 33.9141 40.5864L33.4966 41.1357C32.7422 40.7769 32.1453 40.0408 31.8376 39.1436C31.5337 40.1067 30.9294 40.8977 30.1421 41.2822L29.7173 40.6963C30.75 40.2385 31.4751 38.9824 31.4751 37.73V36.6094H32.1782V37.73ZM34.5073 42.6372V36.0601H35.2031V42.6372H34.5073ZM38.3555 37.2393C38.3518 38.0779 38.9341 38.8726 39.9375 39.2095L39.5859 39.7515C38.8425 39.4951 38.2969 38.9824 38.0112 38.3379C37.7256 39.0447 37.1543 39.605 36.3853 39.876L36.0117 39.334C37.0371 38.9861 37.656 38.1365 37.6597 37.2319V37.0562H36.2168V36.4922H39.769V37.0562H38.3555V37.2393ZM36.8833 40.9014V40.3374H41.2192V42.6226H40.5234V40.9014H36.8833ZM40.5234 40.0151V36.0601H41.2192V37.7446H42.1714V38.3306H41.2192V40.0151H40.5234ZM47.5137 36.0674V38.1768H48.4658V38.7554H47.5137V40.9746H46.8179V36.0674H47.5137ZM42.3647 37.3931V36.8291H43.9761V36.0601H44.6719V36.8291H46.2759V37.3931H42.3647ZM42.7236 38.9458C42.72 38.1951 43.3682 37.7043 44.3203 37.708C45.2615 37.7043 45.9097 38.1951 45.9097 38.9458C45.9097 39.6892 45.2615 40.1726 44.3203 40.1763C43.3682 40.1726 42.72 39.6892 42.7236 38.9458ZM43.3535 42.4834V40.5864H44.0493V41.9194H47.792V42.4834H43.3535ZM43.3975 38.9458C43.3901 39.3743 43.7637 39.6379 44.3203 39.6343C44.877 39.6379 45.2505 39.3743 45.2578 38.9458C45.2505 38.5137 44.877 38.2463 44.3203 38.2427C43.7637 38.2463 43.3901 38.5137 43.3975 38.9458ZM55.7666 36.0674V40.4766H55.0708V38.4478H53.7305V37.8765H55.0708V36.0674H55.7666ZM50.3906 39.5464C51.936 39.0776 52.8113 38.228 52.9431 37.1367H50.7275V36.5728H53.6865C53.6865 38.2866 52.6208 39.4878 50.6982 40.0957L50.3906 39.5464ZM51.0864 42.0439C52.3206 41.8462 53.2581 41.0991 53.2617 40.2056V39.9346H53.9502V40.2056C53.9502 41.0918 54.8767 41.8242 56.1108 42.0366L55.8252 42.5859C54.8291 42.4065 53.9978 41.9084 53.6023 41.187C53.2031 41.9121 52.3608 42.4138 51.3574 42.6006L51.0864 42.0439ZM63.3896 36.0601V37.5396H64.3418V38.1035H63.3896V39.5464H62.6938V36.0601H63.3896ZM58.2407 39.1069C59.8923 38.7737 60.7529 38.001 60.8481 37.0708H58.5337V36.5142H61.6172C61.6172 38.1877 60.4856 39.2534 58.5337 39.6709L58.2407 39.1069ZM59.1782 42.542V39.8247H63.4189V40.3521H59.874V40.916H63.3457V41.4214H59.874V42.0146H63.5654V42.542H59.1782ZM70.5117 39.4878V40.0444H64.5278V39.4878H70.5117ZM65.1724 37.5908C65.1687 36.7668 66.0879 36.2761 67.5161 36.2798C68.937 36.2761 69.8562 36.7668 69.8599 37.5908C69.8562 38.4185 68.937 38.9202 67.5161 38.9238C66.0879 38.9202 65.1687 38.4185 65.1724 37.5908ZM65.2822 42.4834V40.5791H65.9854V41.9194H69.8379V42.4834H65.2822ZM65.8901 37.5908C65.8865 38.0779 66.509 38.3525 67.5161 38.3525C68.5195 38.3525 69.1458 38.0779 69.1421 37.5908C69.1458 37.1221 68.5195 36.8364 67.5161 36.8364C66.509 36.8364 65.8865 37.1221 65.8901 37.5908ZM76.4619 36.0601V42.6226H75.7881V36.0601H76.4619ZM71.0566 41.0771V36.8438H73.5469V37.415H71.7378V40.4985C72.5947 40.4912 73.1733 40.4546 73.8545 40.3081L73.9131 40.894C73.1624 41.0442 72.5142 41.0771 71.4888 41.0771H71.0566ZM73.1001 39.1069V38.5283H74.4478V36.1992H75.1069V42.293H74.4478V39.1069H73.1001ZM84.2241 36.0601V39.4585H83.5356V38.0449H82.1001V39.2168H79.0752V36.3604H79.771V37.2319H81.4116V36.3604H82.1001V37.4736H83.5356V36.0601H84.2241ZM79.771 38.6675H81.4116V37.7812H79.771V38.6675ZM79.9321 40.3081V39.7515H84.2241V41.3701H80.6426V41.9854H84.4585V42.542H79.9468V40.8574H83.5356V40.3081H79.9321ZM90.6357 36.0601V42.6226H89.9326V38.9897H88.8706V38.3818H89.9326V36.0601H90.6357ZM84.9302 40.6523C85.7468 40.0334 85.9409 38.8945 85.9482 38.001V36.624H86.6001V38.001C86.5964 38.6931 86.699 39.6233 87.1897 40.2898C87.6694 39.6379 87.7646 38.7188 87.772 38.001V36.624H88.4385V38.001C88.4312 38.9128 88.6179 40.0481 89.4492 40.6523L89.0098 41.1504C88.5374 40.8025 88.259 40.2495 88.1016 39.6379C87.9478 40.2678 87.6731 40.8464 87.186 41.2017C86.699 40.8464 86.4243 40.2678 86.2705 39.6416C86.113 40.2422 85.8457 40.7842 85.3989 41.1284L84.9302 40.6523ZM11.4829 46.6973V52H10.6699V47.5029H10.6406L9.37354 48.3306V47.5615L10.6919 46.6973H11.4829ZM17.8872 46.0674V50.916H17.1914V48.6821H15.3896V48.1255H17.1914V47.437H15.3896V46.8804H17.1914V46.0674H17.8872ZM12.8042 49.9785V46.5215H13.4927V49.3926C14.3643 49.3889 15.1919 49.3413 16.1294 49.1655L16.2026 49.7368C15.1626 49.9309 14.2727 49.9712 13.3096 49.9785H12.8042ZM13.6099 52.4834V50.4912H14.313V51.9194H18.0557V52.4834H13.6099ZM24.145 46.0601V52.6372H23.4492V46.0601H24.145ZM18.9375 48.8506C18.9375 47.448 19.6443 46.5544 20.6367 46.5508C21.6108 46.5544 22.3286 47.448 22.3286 48.8506C22.3286 50.2678 21.6108 51.1614 20.6367 51.1577C19.6443 51.1614 18.9375 50.2678 18.9375 48.8506ZM19.6113 48.8506C19.6077 49.8943 20.0251 50.5352 20.6367 50.5352C21.2373 50.5352 21.6548 49.8943 21.6548 48.8506C21.6548 47.8215 21.2373 47.177 20.6367 47.1733C20.0251 47.177 19.6077 47.8215 19.6113 48.8506ZM29.0654 47.9937C29.0618 49.0923 29.7832 50.2275 30.7939 50.6597L30.4131 51.2017C29.6404 50.8611 29.0251 50.136 28.7212 49.2607C28.4172 50.1982 27.802 50.9966 27.0366 51.3701L26.6338 50.8208C27.6226 50.3557 28.355 49.1252 28.3623 47.9937V47.2979H26.8608V46.7192H30.5596V47.2979H29.0654V47.9937ZM31.3872 52.6226V46.0601H32.083V52.6226H31.3872ZM38.0991 46.0674V47.5688H39.0586V48.1475H38.0991V49.7148H37.4033V46.0674H38.0991ZM33.1919 52.0513C34.0269 51.751 34.4883 51.0479 34.4883 50.4106V49.9858H35.1548V50.4106C35.1511 50.9783 35.4258 51.5862 36.0227 51.9487C36.6306 51.5569 36.9089 50.916 36.9126 50.4106V49.9858H37.5938V50.4106C37.5938 51.0991 38.0405 51.7693 38.8975 52.0513L38.5459 52.5713C37.9014 52.3406 37.4692 51.8938 37.2458 51.3481C37.0408 51.8792 36.6526 52.3699 36.041 52.6299C35.4075 52.3845 35.012 51.9158 34.8105 51.3701C34.5798 51.8938 34.1514 52.3369 33.5435 52.5713L33.1919 52.0513ZM33.2432 49.334V46.4629H33.939V48.7554C34.8289 48.7517 35.7554 48.6748 36.7661 48.4771L36.854 49.0483C35.748 49.2681 34.7446 49.3376 33.7778 49.334H33.2432ZM40.2334 46.7412V50.3887C40.9072 50.3777 41.5408 50.3374 42.2695 50.1836L42.3647 50.7769C41.5115 50.9563 40.7827 50.9893 39.9697 50.9893H39.5376V46.7412H40.2334ZM41.376 48.792V48.2207H42.8115V46.2065H43.4707V52.3003H42.8115V48.792H41.376ZM44.2178 52.6226V46.0601H44.877V52.6226H44.2178ZM52.6465 46.0601V49.9639H51.9507V48.3013H50.7275V47.73H51.9507V46.0601H52.6465ZM47.1753 49.3706C48.1934 49.0154 48.8196 48.1292 48.8159 47.2246V47.0781H47.395V46.5142H50.9326V47.0781H49.5264V47.2173C49.5227 48.0486 50.116 48.8579 51.1084 49.1948L50.7495 49.7441C50.0134 49.4915 49.4714 48.9641 49.1858 48.3159C48.9001 49.0483 48.3252 49.6379 47.5415 49.9272L47.1753 49.3706ZM48.23 51.3848C48.2263 50.6047 49.0686 50.1506 50.4492 50.147C51.8225 50.1506 52.6648 50.6047 52.6685 51.3848C52.6648 52.1648 51.8225 52.6189 50.4492 52.6226C49.0686 52.6189 48.2263 52.1648 48.23 51.3848ZM48.9185 51.3848C48.9148 51.8279 49.4861 52.0806 50.4492 52.0732C51.405 52.0806 51.9763 51.8279 51.98 51.3848C51.9763 50.938 51.405 50.6853 50.4492 50.689C49.4861 50.6853 48.9148 50.938 48.9185 51.3848ZM58.9116 46.0674V50.8721H58.2158V46.0674H58.9116ZM53.5063 49.3926C54.5354 49.0117 55.1433 48.0669 55.147 47.0781V46.4263H55.8574V47.0781C55.8538 48.0376 56.4617 48.9165 57.4761 49.2681L57.1172 49.8247C56.3591 49.5427 55.7988 48.9861 55.5059 48.2756C55.2166 49.0374 54.6489 49.6453 53.8799 49.9419L53.5063 49.3926ZM54.6196 52.4834V50.418H55.3228V51.9194H59.1094V52.4834H54.6196ZM61.1631 49.9053V50.667H62.1885V49.9053H62.833V52.542H60.5112V49.9053H61.1631ZM59.8594 47.8545C59.8557 46.9573 60.5771 46.3384 61.5806 46.3384C62.4448 46.3384 63.115 46.8254 63.2578 47.5615H64.5396V46.0601H65.2354V49.5391H64.5396V48.1328H63.2615C63.126 48.8835 62.4521 49.3816 61.5806 49.3779C60.5771 49.3816 59.8557 48.759 59.8594 47.8545ZM60.5259 47.8545C60.5222 48.4221 60.9617 48.8103 61.5806 48.814C62.1885 48.8103 62.6206 48.4221 62.6206 47.8545C62.6206 47.2942 62.1885 46.9133 61.5806 46.917C60.9617 46.9133 60.5222 47.2942 60.5259 47.8545ZM61.1631 52H62.1885V51.1943H61.1631V52ZM62.8696 52.0659C63.6606 51.74 64.0488 51.0515 64.0488 50.396V49.8613H64.7373V50.396C64.7336 51.0845 65.1218 51.7803 65.9312 52.0659L65.5723 52.5933C64.979 52.3662 64.5945 51.9377 64.3857 51.4177C64.1697 51.9231 63.7852 52.3589 63.2212 52.5933L62.8696 52.0659ZM71.3687 47.979V48.5356H66.8496V46.2944H67.5381V47.979H71.3687ZM66.0513 49.9199V49.3633H72.0571V49.9199H66.0513ZM66.7983 52.4688V50.5425H67.4941V51.8975H71.4126V52.4688H66.7983ZM77.3291 46.9902C77.3291 48.0596 78.468 49.0703 79.7314 49.2974L79.4092 49.876C78.3582 49.6489 77.395 48.9604 76.9702 48.0376C76.5381 48.9568 75.575 49.6416 74.5239 49.876L74.2163 49.2974C75.4614 49.063 76.593 48.0596 76.5967 46.9902V46.4922H77.3291V46.9902ZM73.9966 51.7583V51.1797H80.0024V51.7583H73.9966ZM83.1914 46.8218C83.1914 47.4443 83.1255 48.0486 82.957 48.6162H83.8872V46.2285H84.5464V52.3003H83.8872V49.1802H82.7446C82.3784 49.9822 81.7485 50.6963 80.7085 51.2749L80.313 50.7915C81.2651 50.2605 81.8401 49.6196 82.166 48.8909L80.4082 49.0703L80.313 48.4697L82.3601 48.3452C82.4407 48.0413 82.4919 47.7227 82.5139 47.3931H80.6353V46.8218H83.1914ZM85.2715 52.6226V46.0601H85.9307V52.6226H85.2715ZM92.5693 48.7554V49.312H89.918V49.8979H91.8149V51.4507H87.9917V52.022H91.998V52.5566H87.3105V50.9526H91.1265V50.418H87.3032V49.8979H89.2295V49.312H86.5854V48.7554H92.5693ZM86.8931 47.957C88.0796 47.8582 89.0098 47.4004 89.1526 46.8218H87.1348V46.2725H92.0347V46.8218H89.9949C90.134 47.3967 91.0752 47.8582 92.269 47.957L92.042 48.4844C90.9141 48.3782 89.9692 47.9717 89.5737 47.3491C89.1782 47.9717 88.2407 48.3782 87.1128 48.4844L86.8931 47.957ZM14.8887 56.0601V62.6226H14.2222V56.0601H14.8887ZM9.31494 58.8945C9.31494 57.4736 9.87158 56.5837 10.7285 56.5874C11.5269 56.5837 12.0652 57.3418 12.1458 58.5723H12.8892V56.1846H13.5557V62.3003H12.8892V59.1362H12.1494C12.0872 60.418 11.5415 61.2126 10.7285 61.209C9.87158 61.2126 9.31494 60.3191 9.31494 58.8945ZM9.95947 58.8945C9.95947 59.9382 10.2561 60.5535 10.7285 60.5498C11.2119 60.5535 11.5122 59.9382 11.5122 58.8945C11.5122 57.8472 11.2119 57.2356 10.7285 57.2393C10.2561 57.2356 9.95947 57.8472 9.95947 58.8945ZM22.8267 56.0601V62.6226H22.1602V59.2021H21.3472V62.3003H20.688V56.1846H21.3472V58.6309H22.1602V56.0601H22.8267ZM17.3994 60.894V56.7998H19.9482V60.894H17.3994ZM18.0586 60.3374H19.2964V57.3491H18.0586V60.3374ZM25.3345 56.2798C26.3232 56.2871 27.052 56.8914 27.0557 57.752C27.052 58.6162 26.3232 59.2168 25.3345 59.2168C24.3347 59.2168 23.6096 58.6162 23.606 57.752C23.6096 56.8914 24.3347 56.2871 25.3345 56.2798ZM24.2871 57.752C24.2834 58.2939 24.7302 58.6528 25.3345 58.6528C25.9351 58.6528 26.3818 58.2939 26.3818 57.752C26.3818 57.2173 25.9351 56.8584 25.3345 56.8657C24.7302 56.8584 24.2834 57.2173 24.2871 57.752ZM24.6021 60.2568V59.7002H28.916V61.3555H25.2979V61.9854H29.1357V62.542H24.624V60.8354H28.2275V60.2568H24.6021ZM28.2202 59.3999V56.0601H28.916V59.3999H28.2202ZM33.4336 57.8398C33.4336 58.9275 33.884 60.0261 34.7739 60.5059L34.3638 61.0552C33.7449 60.7073 33.3237 60.0811 33.093 59.334C32.8513 60.1506 32.4009 60.8464 31.7637 61.2236L31.3242 60.7183C32.2617 60.1726 32.7598 59.0007 32.7598 57.8838V56.6606H33.4336V57.8398ZM34.9351 62.3003V56.1846H35.6016V58.6748H36.3926V56.0601H37.0591V62.6226H36.3926V59.2388H35.6016V62.3003H34.9351ZM38.7173 56.4482V57.481H40.3579V56.4482H41.0464V57.0854H42.4819V56.0601H43.1777V59.9639H42.4819V58.9897H41.0464V59.6123H38.0215V56.4482H38.7173ZM38.7173 59.0483H40.3579V58.0303H38.7173V59.0483ZM38.7319 60.8501V60.2935H43.1777V62.6226H42.4819V60.8501H38.7319ZM41.0464 58.4258H42.4819V57.6494H41.0464V58.4258ZM49.2158 56.0601V58.7261H50.168V59.2974H49.2158V62.6226H48.52V56.0601H49.2158ZM43.9424 60.7769C44.9019 59.7771 45.2498 58.6492 45.3193 57.3345H44.1768V56.7632H45.9785C45.9749 58.4038 45.6819 59.8979 44.4917 61.165L43.9424 60.7769ZM45.8174 61.2163C46.7952 60.0737 47.0808 58.7334 47.1321 57.3345H46.1909V56.7632H47.7876C47.7876 58.4221 47.5789 60.1726 46.374 61.5972L45.8174 61.2163ZM52.7124 57.9937C52.7087 59.0923 53.4302 60.2275 54.4409 60.6597L54.0601 61.2017C53.2874 60.8611 52.6721 60.136 52.3682 59.2607C52.0642 60.1982 51.449 60.9966 50.6836 61.3701L50.2808 60.8208C51.2695 60.3557 52.002 59.1252 52.0093 57.9937V57.2979H50.5078V56.7192H54.2065V57.2979H52.7124V57.9937ZM55.0342 62.6226V56.0601H55.73V62.6226H55.0342ZM60.5259 57.2393C60.5222 58.0779 61.1045 58.8726 62.1079 59.2095L61.7563 59.7515C61.0129 59.4951 60.4673 58.9824 60.1816 58.3379C59.896 59.0447 59.3247 59.605 58.5557 59.876L58.1821 59.334C59.2075 58.9861 59.8264 58.1365 59.8301 57.2319V57.0562H58.3872V56.4922H61.9395V57.0562H60.5259V57.2393ZM59.0537 60.9014V60.3374H63.3896V62.6226H62.6938V60.9014H59.0537ZM62.6938 60.0151V56.0601H63.3896V57.7446H64.3418V58.3306H63.3896V60.0151H62.6938ZM66.3442 56.3604C67.2085 56.353 67.8787 56.8547 68.0215 57.5908H69.3032V56.0601H69.999V59.583H69.3032V58.1621H68.0251C67.8896 58.9165 67.2158 59.4219 66.3442 59.4219C65.3408 59.4219 64.6194 58.7883 64.623 57.8838C64.6194 56.9902 65.3408 56.353 66.3442 56.3604ZM65.2896 57.8838C65.2859 58.4441 65.7253 58.8359 66.3442 58.8359C66.9521 58.8359 67.3843 58.4441 67.3843 57.8838C67.3843 57.3198 66.9521 56.9353 66.3442 56.939C65.7253 56.9353 65.2859 57.3198 65.2896 57.8838ZM65.7217 62.542V59.8979H66.4102V60.6597H69.3032V59.8979H69.999V62.542H65.7217ZM66.4102 61.9707H69.3032V61.209H66.4102V61.9707ZM75.9785 56.0674V58.1768H76.9307V58.7554H75.9785V60.9746H75.2827V56.0674H75.9785ZM70.8296 57.3931V56.8291H72.4409V56.0601H73.1367V56.8291H74.7407V57.3931H70.8296ZM71.1885 58.9458C71.1848 58.1951 71.833 57.7043 72.7852 57.708C73.7263 57.7043 74.3745 58.1951 74.3745 58.9458C74.3745 59.6892 73.7263 60.1726 72.7852 60.1763C71.833 60.1726 71.1848 59.6892 71.1885 58.9458ZM71.8184 62.4834V60.5864H72.5142V61.9194H76.2568V62.4834H71.8184ZM71.8623 58.9458C71.855 59.3743 72.2285 59.6379 72.7852 59.6343C73.3418 59.6379 73.7153 59.3743 73.7227 58.9458C73.7153 58.5137 73.3418 58.2463 72.7852 58.2427C72.2285 58.2463 71.855 58.5137 71.8623 58.9458ZM82.229 56.0601V58.6016H83.2837V59.1729H82.229V62.6372H81.5332V56.0601H82.229ZM77.395 61.0039V56.6899H80.4639V57.2539H78.0908V60.4253C79.1931 60.4216 80.0171 60.374 80.9546 60.2056L81.0425 60.7915C80.0134 60.9746 79.1418 61.0076 77.9224 61.0039H77.395ZM88.7212 56.6899V57.3345C88.7175 58.1438 88.7175 59.052 88.4722 60.396L87.769 60.3228C88.0217 59.052 88.0217 58.1218 88.0254 57.3345V57.2539H84.041V56.6899H88.7212ZM83.4111 61.7363V61.1577H85.689V58.8433H86.3774V61.1577H89.395V61.7363H83.4111ZM14.5518 66.6899V67.3345C14.5481 68.1438 14.5481 69.052 14.3027 70.396L13.5996 70.3228C13.8523 69.052 13.8523 68.1218 13.856 67.3345V67.2539H9.87158V66.6899H14.5518ZM9.2417 71.7363V71.1577H11.5195V68.8433H12.208V71.1577H15.2256V71.7363H9.2417ZM17.543 67.3198C17.543 68.0376 18.0007 68.7627 18.854 69.085L18.4878 69.6196C17.8762 69.3853 17.4478 68.9385 17.2134 68.4001C16.9717 69.0081 16.5249 69.5354 15.8877 69.8101L15.5068 69.2681C16.3931 68.8835 16.8691 68.0486 16.8691 67.3198V66.4702H17.543V67.3198ZM16.7153 71.4214C16.708 70.6743 17.5613 70.2312 18.9346 70.2275C20.3042 70.2312 21.1648 70.6743 21.1685 71.4214C21.1648 72.1685 20.3042 72.6116 18.9346 72.6079C17.5613 72.6116 16.708 72.1685 16.7153 71.4214ZM17.4038 71.4214C17.3965 71.8389 17.9788 72.0806 18.9346 72.0732C19.8867 72.0806 20.469 71.8389 20.4727 71.4214C20.469 71.0002 19.8867 70.7585 18.9346 70.7622C17.9788 70.7585 17.3965 71.0002 17.4038 71.4214ZM19.0591 69.8979V66.1846H19.7036V67.7739H20.4727V66.0674H21.1318V70.103H20.4727V68.3452H19.7036V69.8979H19.0591ZM26.9429 66.0601V68.7188H27.9976V69.2974H26.9429V72.6226H26.2544V66.0601H26.9429ZM21.7939 67.6567V67.0854H23.4126V66.1479H24.1084V67.0854H25.6831V67.6567H21.7939ZM22.1309 69.6636C22.1309 68.77 22.8193 68.1401 23.7642 68.1401C24.7053 68.1401 25.3938 68.77 25.3975 69.6636C25.3938 70.5645 24.7053 71.1907 23.7642 71.1943C22.8193 71.1907 22.1309 70.5645 22.1309 69.6636ZM22.7974 69.6636C22.7937 70.2349 23.2039 70.6157 23.7642 70.6084C24.3208 70.6157 24.7273 70.2349 24.731 69.6636C24.7273 69.1033 24.3208 68.7151 23.7642 68.7114C23.2039 68.7151 22.7937 69.1033 22.7974 69.6636ZM33.4351 67.979V68.5356H28.916V66.2944H29.6045V67.979H33.4351ZM28.1177 69.9199V69.3633H34.1235V69.9199H28.1177ZM28.8647 72.4688V70.5425H29.5605V71.8975H33.479V72.4688H28.8647ZM41.5342 66.0601V69.3999H40.8384V68.1475H39.4761V67.5835H40.8384V66.0601H41.5342ZM36.1582 68.9897C37.689 68.6309 38.5496 67.8875 38.6704 66.9243H36.5098V66.353H39.4175C39.4175 68.012 38.3042 69.0813 36.3999 69.5537L36.1582 68.9897ZM37.2422 70.2275V69.6782H41.5342V71.3408H37.9453V72H41.7319V72.5566H37.2568V70.8135H40.8384V70.2275H37.2422ZM49.4722 66.0601V69.7368H48.7764V68.9897H47.1174C46.8098 69.3047 46.3484 69.4915 45.8174 69.4878C44.814 69.4915 44.0925 68.8726 44.0962 67.9644C44.0925 67.0598 44.814 66.4263 45.8174 66.4263C46.3521 66.4263 46.8135 66.6167 47.1211 66.939H48.7764V66.0601H49.4722ZM44.7627 67.9644C44.759 68.5393 45.2021 68.9165 45.8174 68.9165C46.4143 68.9165 46.8574 68.5393 46.8574 67.9644C46.8574 67.3894 46.4143 67.0012 45.8174 67.0049C45.2021 67.0012 44.759 67.3894 44.7627 67.9644ZM44.9824 72.52V71.9561H45.9639V70.5938H45.0483V70.0298H49.5234V70.5938H48.6152V71.9561H49.604V72.52H44.9824ZM46.645 71.9561H47.9268V70.5938H46.645V71.9561ZM47.4507 67.4956C47.4983 67.6421 47.5239 67.7996 47.5239 67.9644C47.5239 68.1255 47.4983 68.2756 47.458 68.4185H48.7764V67.4956H47.4507ZM55.9424 66.0601V72.6226H55.2759V66.0601H55.9424ZM50.3687 68.8945C50.3687 67.4736 50.9253 66.5837 51.7822 66.5874C52.5806 66.5837 53.1189 67.3418 53.1995 68.5723H53.9429V66.1846H54.6094V72.3003H53.9429V69.1362H53.2031C53.1409 70.418 52.5952 71.2126 51.7822 71.209C50.9253 71.2126 50.3687 70.3191 50.3687 68.8945ZM51.0132 68.8945C51.0132 69.9382 51.3098 70.5535 51.7822 70.5498C52.2656 70.5535 52.5659 69.9382 52.5659 68.8945C52.5659 67.8472 52.2656 67.2356 51.7822 67.2393C51.3098 67.2356 51.0132 67.8472 51.0132 68.8945ZM58.9556 67.73C58.9556 68.9312 59.6294 70.1287 60.6328 70.5791L60.208 71.1357C59.4646 70.7622 58.9006 70.0225 58.6113 69.1252C58.322 70.0701 57.7507 70.8684 56.9927 71.2603L56.5532 70.6963C57.5713 70.2092 58.2488 68.9458 58.2524 67.73V66.6094H58.9556V67.73ZM59.9077 68.8066V68.2427H61.3726V66.0601H62.061V72.6372H61.3726V68.8066H59.9077ZM70.5337 71.231V71.8096H64.5278V71.231H67.1719V69.8833H65.2163V66.5068H65.9121V67.6348H69.1348V66.5068H69.8232V69.8833H67.8604V71.231H70.5337ZM65.9121 69.3193H69.1348V68.1987H65.9121V69.3193ZM74.1694 66.6167V67.1733H75.5977V66.0674H76.2935V70.8501H75.5977V69.1509H74.1694V69.7222H71.1226V66.6167H74.1694ZM71.811 69.1729H73.4883V67.1807H71.811V69.1729ZM72.0088 72.4834V70.4106H72.7119V71.9194H76.4399V72.4834H72.0088ZM74.1694 68.5796H75.5977V67.7446H74.1694V68.5796ZM82.6714 68.8359V69.4072H81.2871V70.623C81.895 70.5974 82.5066 70.5571 83.0815 70.4912L83.1328 71.0039C81.6863 71.22 80.1335 71.2419 78.8848 71.2456L78.7969 70.667C79.3499 70.667 79.9614 70.6633 80.5913 70.6487V69.4072H79.2729V66.668H82.6421V67.2319H79.9614V68.8359H82.6714ZM83.4917 72.6372V66.0601H84.1875V72.6372H83.4917ZM90.6943 66.0601V72.6226H90.0352V66.0601H90.6943ZM85.0327 70.7256C86.4243 69.8979 87.0908 68.7957 87.2117 67.4443H85.3403V66.873H87.9038C87.9001 67.5139 87.8123 68.1255 87.6108 68.6968H88.6509V66.2285H89.3101V72.3003H88.6509V69.2534H87.3691C86.981 70.0151 86.3547 70.6816 85.4282 71.2236L85.0327 70.7256ZM12.5596 76.7119V80.9746H9.49072V76.7119H12.5596ZM10.1719 80.4106H11.8711V77.2612H10.1719V80.4106ZM13.6582 82.6226V76.0601H14.354V78.6309H15.4087V79.2168H14.354V82.6226H13.6582ZM18.5244 76.1992C19.9636 76.1956 20.8645 76.6643 20.8682 77.459C20.8645 78.239 19.9636 78.7004 18.5244 78.6968C17.0889 78.7004 16.177 78.239 16.1807 77.459C16.177 76.6643 17.0889 76.1956 18.5244 76.1992ZM15.5361 79.7661V79.2021H21.52V79.7661H15.5361ZM16.2539 82.542V80.3521H20.7876V82.542H16.2539ZM16.8984 77.459C16.8948 77.8948 17.5137 78.1511 18.5244 78.1548C19.5278 78.1511 20.1541 77.8948 20.1504 77.459C20.1541 77.0049 19.5278 76.7449 18.5244 76.7485C17.5137 76.7449 16.8948 77.0049 16.8984 77.459ZM16.9424 81.978H20.1138V80.9087H16.9424V81.978ZM25.2319 76.5508C26.2134 76.5544 26.9128 77.448 26.9165 78.8506C26.9128 80.2678 26.2134 81.1614 25.2319 81.1577C24.2505 81.1614 23.551 80.2678 23.5547 78.8506C23.551 77.448 24.2505 76.5544 25.2319 76.5508ZM24.2212 78.8506C24.2175 79.8943 24.635 80.5352 25.2319 80.5352C25.8398 80.5352 26.25 79.8943 26.25 78.8506C26.25 77.8215 25.8398 77.177 25.2319 77.1733C24.635 77.177 24.2175 77.8215 24.2212 78.8506ZM27.8906 82.6226V76.0601H28.5864V78.6309H29.6411V79.2168H28.5864V82.6226H27.8906ZM33.4966 76.5435V77.1074H32.874V78.9128C33.1853 78.8872 33.4893 78.8579 33.7822 78.8213L33.8262 79.3413C32.5042 79.5537 30.9624 79.583 29.8491 79.583L29.7686 79.0044C30.0176 79.0044 30.2886 79.0007 30.5742 79.0007V77.1074H29.9517V76.5435H33.4966ZM30.0103 82.022C30.8416 81.7217 31.3103 81.0259 31.3066 80.3887V80.0884H31.9731V80.3887C31.9695 80.9563 32.2478 81.5496 32.8447 81.9158C33.449 81.5203 33.7346 80.8867 33.7383 80.3887V80.0884H34.4194V80.3887C34.4194 81.0735 34.8662 81.74 35.7231 82.022L35.3716 82.542C34.7307 82.3076 34.2949 81.8682 34.0715 81.3298C33.8628 81.8572 33.4709 82.3479 32.8594 82.6006C32.2332 82.3589 31.8376 81.8901 31.6362 81.3518C31.3982 81.8718 30.9661 82.3113 30.3545 82.542L30.0103 82.022ZM31.248 78.9897C31.5557 78.9824 31.8743 78.9714 32.1929 78.9531V77.1074H31.248V78.9897ZM34.229 79.8247V76.0601H34.9248V77.6421H35.877V78.2207H34.9248V79.8247H34.229ZM37.8428 76.5508C38.7363 76.5544 39.3845 77.3088 39.4907 78.521H40.8457V76.0601H41.5342V82.6372H40.8457V79.085H39.498C39.4211 80.3667 38.7583 81.1614 37.8428 81.1577C36.865 81.1614 36.1729 80.2678 36.1802 78.8506C36.1729 77.448 36.865 76.5544 37.8428 76.5508ZM36.8394 78.8506C36.843 79.8943 37.2495 80.5352 37.8428 80.5352C38.436 80.5352 38.8425 79.8943 38.8462 78.8506C38.8425 77.8215 38.436 77.177 37.8428 77.1733C37.2495 77.177 36.843 77.8215 36.8394 78.8506ZM49.6406 76.0601V82.6226H48.9668V79.2388H48.1611V82.3076H47.5093V76.2139H48.1611V78.6675H48.9668V76.0601H49.6406ZM44.0229 80.7988C44.9897 80.2642 45.572 79.6196 45.8979 78.8835L44.1328 79.0703L44.0449 78.4624L46.092 78.3379C46.1726 78.0413 46.2202 77.73 46.2422 77.4077H44.3745V76.8438H46.9233C46.9197 78.5979 46.4216 80.1873 44.4331 81.2969L44.0229 80.7988ZM55.73 76.0601V82.6226H55.0342V76.0601H55.73ZM50.3906 80.8281C51.405 80.374 52.0789 79.2681 52.0825 78.1694V77.7373H50.5884V77.1807H52.0752V76.1919H52.7637V77.1807H54.2358V77.7373H52.7637V78.1694C52.7673 79.2168 53.4558 80.2861 54.4775 80.7183L54.0967 81.2529C53.3386 80.9233 52.738 80.2385 52.4341 79.4109C52.1375 80.2898 51.5405 81.0186 50.7788 81.3628L50.3906 80.8281ZM60.7749 76.7632V79.0996H59.1123V80.4473C59.8264 80.4436 60.5076 80.4143 61.3169 80.2715L61.3755 80.8428C60.4636 81.0076 59.7166 81.0259 58.8926 81.0332H58.4385V78.543H60.1084V77.3271H58.4312V76.7632H60.7749ZM61.0825 78.9458V78.3818H61.8589V76.2065H62.5181V82.2856H61.8589V78.9458H61.0825ZM63.1992 82.6226V76.0601H63.8657V82.6226H63.1992ZM69.999 76.0601V82.6372H69.3105V79.0557H68.0068V78.4844H69.3105V76.0601H69.999ZM64.8281 81.0845V76.646H67.897V77.21H65.5312V78.4844H67.6187V79.041H65.5312V80.5059C66.6299 80.5059 67.3916 80.4729 68.2632 80.3228L68.3364 80.8867C67.3806 81.0405 66.5566 81.0808 65.3408 81.0845H64.8281ZM78.4644 78.5576V79.1143H72.4658V78.5576H74.2273C74.4324 77.8142 74.4836 77.2576 74.4946 76.8657H73.0225V76.3091H75.1831V76.5361C75.1794 76.906 75.1794 77.6055 74.9341 78.5576H76.8274C77.0142 77.8179 77.0471 77.2759 77.0544 76.8657H75.6079V76.3091H77.7393V76.6313C77.7319 77.0525 77.7319 77.697 77.5305 78.5576H78.4644ZM73.2056 82.542V79.7368H77.7393V80.2642H73.9014V80.8647H77.5708V81.3701H73.9014V82H77.7759V82.542H73.2056ZM84.8906 78.6382V79.2095H83.8726V82.6152H83.1768V76.0601H83.8726V78.6382H84.8906ZM79.0093 80.9673V76.6973H79.6978V80.3887C80.6133 80.385 81.5691 80.3081 82.6128 80.0957L82.6934 80.6816C81.5691 80.905 80.5364 80.9709 79.5513 80.9673H79.0093ZM90.3647 76.6899V77.3345C90.3611 78.1438 90.3611 79.052 90.1157 80.396L89.4126 80.3228C89.6653 79.052 89.6653 78.1218 89.6689 77.3345V77.2539H85.6846V76.6899H90.3647ZM85.0547 81.7363V81.1577H87.3325V78.8433H88.021V81.1577H91.0386V81.7363H85.0547ZM14.5591 89.085V89.6416H12.5742V91.2456H15.2476V91.8169H9.2417V91.2456H11.8857V89.6416H9.98877V86.5654H14.5005V87.1294H10.6846V89.085H14.5591ZM22.6289 86.375V86.9316H20.6294C20.6697 87.6458 21.6145 88.2756 22.834 88.4258L22.5703 88.9751C21.446 88.8286 20.5232 88.3049 20.1716 87.5688C19.8127 88.3049 18.8936 88.8286 17.7729 88.9751L17.5093 88.4258C18.7361 88.2756 19.6736 87.6421 19.7065 86.9316H17.729V86.375H22.6289ZM17.1724 89.9639V89.3999H23.1782V89.9639H20.5708V91.2383H19.8823V89.9639H17.1724ZM17.9194 92.4834V90.6084H18.6152V91.9194H22.5117V92.4834H17.9194ZM28.9087 86.0601V92.6372H28.2129V86.0601H28.9087ZM23.8403 91.0625V86.6094H24.5361V88.2939H26.3013V86.6094H26.9897V91.0625H23.8403ZM24.5361 90.4912H26.3013V88.8433H24.5361V90.4912ZM33.6973 87.0488C33.6899 87.8032 34.3015 88.5137 35.3086 88.7993L34.979 89.3413C34.2209 89.1252 33.657 88.6565 33.3604 88.0596C33.071 88.7371 32.4814 89.2607 31.6758 89.5024L31.3389 88.9604C32.3679 88.6492 32.9905 87.8838 32.9941 87.0562V86.9683H31.5586V86.4116H35.1108V86.9683H33.6973V87.0488ZM32.3276 90.2642V89.7222H36.5684V91.3555H33.0234V92.0146H36.7954V92.5566H32.3423V90.8501H35.8799V90.2642H32.3276ZM35.8726 89.4365V86.0601H36.5684V87.4443H37.5205V88.0156H36.5684V89.4365H35.8726ZM40.9512 87.144V87.708H37.6919V87.144H38.981V86.2505H39.6694V87.144H40.9512ZM37.9043 89.6123C37.9006 88.7297 38.5012 88.1035 39.3252 88.1035C40.1565 88.1035 40.7498 88.7297 40.7534 89.6123C40.7498 90.5095 40.1565 91.1394 39.3252 91.1357C38.5012 91.1394 37.9006 90.5095 37.9043 89.6123ZM38.5195 89.6123C38.5159 90.1689 38.8528 90.5425 39.3252 90.5425C39.7976 90.5425 40.1382 90.1689 40.1382 89.6123C40.1382 89.0667 39.7976 88.6858 39.3252 88.6821C38.8528 88.6858 38.5159 89.0667 38.5195 89.6123ZM41.2515 92.3149V86.2065H41.9106V88.792H42.665V86.0601H43.3242V92.6226H42.665V89.3633H41.9106V92.3149H41.2515ZM46.3667 87.73C46.3667 88.9312 47.0405 90.1287 48.0439 90.5791L47.6191 91.1357C46.8757 90.7622 46.3118 90.0225 46.0225 89.1252C45.7332 90.0701 45.1619 90.8684 44.4038 91.2603L43.9644 90.6963C44.9824 90.2092 45.6599 88.9458 45.6636 87.73V86.6094H46.3667V87.73ZM47.3188 88.8066V88.2427H48.7837V86.0601H49.4722V92.6372H48.7837V88.8066H47.3188ZM57.3955 86.0674V91.0405H56.6997V90.4106H55.3813V89.9199H56.6997V86.0674H57.3955ZM51.9097 89.063C53.1218 89.052 54.7588 89.041 56.1577 88.8652L56.2017 89.3633C55.6414 89.4585 55.0518 89.5171 54.4731 89.5574V90.8354H53.7773V89.594C53.1401 89.6196 52.5286 89.6196 51.9976 89.6196L51.9097 89.063ZM52.4224 87.4736C52.4187 86.7778 53.0815 86.3164 54.0557 86.3164C55.0151 86.3164 55.6816 86.7778 55.6816 87.4736C55.6816 88.1731 55.0151 88.6162 54.0557 88.6162C53.0852 88.6162 52.4187 88.1731 52.4224 87.4736ZM52.8179 92.4834V90.5571H53.5063V91.9194H57.5566V92.4834H52.8179ZM53.0815 87.4736C53.0779 87.8618 53.4734 88.1035 54.0557 88.1035C54.616 88.1035 55.0188 87.8618 55.0225 87.4736C55.0188 87.0818 54.616 86.8291 54.0557 86.8364C53.4734 86.8291 53.0779 87.0818 53.0815 87.4736ZM63.3457 86.0601V88.7188H64.4004V89.2974H63.3457V92.6226H62.6572V86.0601H63.3457ZM58.1968 87.6567V87.0854H59.8154V86.1479H60.5112V87.0854H62.0859V87.6567H58.1968ZM58.5337 89.6636C58.5337 88.77 59.2222 88.1401 60.167 88.1401C61.1082 88.1401 61.7966 88.77 61.8003 89.6636C61.7966 90.5645 61.1082 91.1907 60.167 91.1943C59.2222 91.1907 58.5337 90.5645 58.5337 89.6636ZM59.2002 89.6636C59.1965 90.2349 59.6067 90.6157 60.167 90.6084C60.7236 90.6157 61.1301 90.2349 61.1338 89.6636C61.1301 89.1033 60.7236 88.7151 60.167 88.7114C59.6067 88.7151 59.1965 89.1033 59.2002 89.6636ZM69.8379 87.979V88.5356H65.3188V86.2944H66.0073V87.979H69.8379ZM64.5205 89.9199V89.3633H70.5264V89.9199H64.5205ZM65.2676 92.4688V90.5425H65.9634V91.8975H69.8818V92.4688H65.2676ZM77.6953 86.375V86.8511C77.699 87.3528 77.699 87.9204 77.5342 88.6821L76.8457 88.6089C76.9995 87.8984 77.0068 87.3894 77.0068 86.9243H73.1689V86.375H77.6953ZM72.4731 89.6562V89.0996H74.8682V87.8105H75.5493V89.0996H78.4424V89.6562H72.4731ZM72.8833 92.0513C74.1541 91.8792 75.0769 91.2126 75.0806 90.4033V90.1396H75.7837V90.4033C75.78 91.2126 76.7029 91.8792 77.9956 92.0513L77.7319 92.5933C76.6956 92.4358 75.835 91.978 75.4321 91.3042C75.0256 91.978 74.165 92.4358 73.1323 92.5933L72.8833 92.0513ZM85.5601 86.0527V87.6421H86.5122V88.2134H85.5601V89.7222H84.8643V86.0527H85.5601ZM80.3892 89.312C81.9529 88.8909 82.8757 88.0596 82.9966 87.0269H80.6968V86.4629H83.7583C83.7583 88.1511 82.6084 89.356 80.6528 89.8687L80.3892 89.312ZM80.6528 92.0439C81.4878 91.7363 81.9492 91.0479 81.9492 90.4033V89.9712H82.6157V90.4033C82.6121 90.9746 82.8867 91.5715 83.4836 91.9414C84.0916 91.5422 84.3699 90.9087 84.3735 90.4033V89.9712H85.0547V90.4033C85.0547 91.0955 85.5015 91.7583 86.3584 92.0439L86.0068 92.5493C85.3623 92.3223 84.9302 91.8828 84.7104 91.3408C84.5054 91.8718 84.1135 92.3589 83.502 92.6079C82.8684 92.3735 82.4729 91.9084 82.2715 91.3628C82.0408 91.8865 81.6123 92.3223 81.0044 92.5493L80.6528 92.0439ZM89.6865 86.4556C91.0635 86.4556 92.1108 87.1843 92.1108 88.2866C92.1108 89.3962 91.0635 90.1213 89.6865 90.1177C88.3132 90.1213 87.2659 89.3962 87.2695 88.2866C87.2659 87.1843 88.3132 86.4556 89.6865 86.4556ZM86.6982 91.7729V91.1943H92.7041V91.7729H86.6982ZM87.936 88.2866C87.9324 89.052 88.6794 89.5464 89.6865 89.5464C90.6899 89.5464 91.4333 89.052 91.437 88.2866C91.4333 87.5249 90.6899 87.0159 89.6865 87.0195C88.6794 87.0159 87.9324 87.5249 87.936 88.2866ZM12.5889 96.6167V97.1733H14.0171V96.0674H14.7129V100.85H14.0171V99.1509H12.5889V99.7222H9.54199V96.6167H12.5889ZM10.2305 99.1729H11.9077V97.1807H10.2305V99.1729ZM10.4282 102.483V100.411H11.1313V101.919H14.8594V102.483H10.4282ZM12.5889 98.5796H14.0171V97.7446H12.5889V98.5796ZM20.5122 98.0156V98.7334H23.1782V99.2974H17.1724V98.7334H19.8237V98.0156H20.5122ZM17.48 97.8838C18.6482 97.8032 19.582 97.3491 19.6956 96.7852H17.729V96.2505H22.6289V96.7852H20.6404C20.7539 97.3528 21.6768 97.8032 22.8633 97.8838L22.6362 98.4038C21.479 98.3049 20.5195 97.8838 20.1753 97.2283C19.8237 97.8801 18.8643 98.3049 17.707 98.4038L17.48 97.8838ZM17.729 100.638V100.103H19.8237V99.5244H20.5122V100.103H22.6069V100.638H17.729ZM18.1758 101.78C18.1721 101.213 18.8862 100.92 20.1606 100.916C21.4351 100.92 22.1638 101.213 22.1675 101.78C22.1638 102.355 21.4351 102.656 20.1606 102.652C18.8862 102.656 18.1721 102.355 18.1758 101.78ZM18.8862 101.78C18.8789 102.044 19.3403 102.183 20.1606 102.176C20.9956 102.183 21.446 102.044 21.4497 101.78C21.446 101.517 20.9956 101.396 20.1606 101.392C19.3403 101.396 18.8789 101.517 18.8862 101.78ZM26.3818 96.5361C26.3818 97.0232 26.3013 97.47 26.1438 97.8765H27.0776V96.1992H27.7368V99.7368H27.0776V98.4404H25.8545C25.437 99.0886 24.7742 99.605 23.8696 99.9858L23.5181 99.4658C24.8218 98.9458 25.5359 98.1438 25.6641 97.1001H23.8184V96.5361H26.3818ZM23.833 102.081C24.6716 101.78 25.144 101.084 25.144 100.447V100.052H25.8105V100.447C25.8032 101.019 26.0852 101.608 26.6785 101.967C27.2791 101.575 27.5684 100.938 27.5757 100.447V100.052H28.2495V100.447C28.2458 101.128 28.7036 101.802 29.5532 102.081L29.2163 102.593C28.5681 102.363 28.125 101.919 27.8979 101.377C27.6929 101.905 27.301 102.392 26.6895 102.645C26.0632 102.406 25.6677 101.934 25.47 101.392C25.2356 101.916 24.7998 102.359 24.1846 102.593L23.833 102.081ZM28.4106 99.8394V96.0674H29.0698V99.8394H28.4106ZM34.8809 96.0601V98.6016H35.9355V99.1729H34.8809V102.637H34.1851V96.0601H34.8809ZM30.0469 101.004V96.6899H33.1157V97.2539H30.7427V100.425C31.845 100.422 32.6689 100.374 33.6064 100.206L33.6943 100.792C32.6653 100.975 31.7937 101.008 30.5742 101.004H30.0469ZM43.3242 96.0601V102.623H42.6577V99.2607H41.8154V102.286H41.1636V96.1919H41.8154V98.6895H42.6577V96.0601H43.3242ZM38.0142 100.953V96.8364H38.71V100.341C39.3142 100.334 39.9771 100.286 40.7241 100.14L40.7974 100.748C39.8965 100.909 39.1458 100.956 38.439 100.953H38.0142ZM49.1133 96.0601V98.6748H50.1313V99.2534H49.1133V102.615H48.4175V96.0601H49.1133ZM44.0083 100.865C45.6526 100.044 46.5461 98.8579 46.689 97.3271H44.3379V96.7485H47.3994C47.3921 98.6455 46.5571 100.341 44.3965 101.407L44.0083 100.865ZM57.2563 99.085V99.6416H55.2715V101.246H57.9448V101.817H51.939V101.246H54.583V99.6416H52.686V96.5654H57.1978V97.1294H53.3818V99.085H57.2563ZM60.2036 96.4775C61.2144 96.4775 61.9651 97.1147 61.9688 98.0376C61.9651 98.8506 61.3828 99.4402 60.5552 99.572V100.612C61.1375 100.583 61.7197 100.539 62.2617 100.469L62.313 100.989C60.925 101.231 59.3979 101.242 58.2627 101.231L58.1528 100.66C58.6619 100.656 59.2478 100.652 59.8594 100.638V99.572C59.0134 99.4475 58.4348 98.8542 58.4385 98.0376C58.4348 97.1147 59.1746 96.4775 60.2036 96.4775ZM59.1123 98.0376C59.1086 98.6199 59.5737 99.0081 60.2036 99.0044C60.8262 99.0081 61.2839 98.6199 61.2876 98.0376C61.2839 97.4517 60.8262 97.0708 60.2036 97.0635C59.5737 97.0708 59.1086 97.4517 59.1123 98.0376ZM62.6572 102.623V96.0601H63.353V98.7261H64.3638V99.312H63.353V102.623H62.6572ZM70.5117 98.7554V99.312H67.8604V99.8979H69.7573V101.451H65.9341V102.022H69.9404V102.557H65.2529V100.953H69.0688V100.418H65.2456V99.8979H67.1719V99.312H64.5278V98.7554H70.5117ZM64.8354 97.957C66.022 97.8582 66.9521 97.4004 67.095 96.8218H65.0771V96.2725H69.9771V96.8218H67.9373C68.0764 97.3967 69.0176 97.8582 70.2114 97.957L69.9844 98.4844C68.8564 98.3782 67.9116 97.9717 67.5161 97.3491C67.1206 97.9717 66.1831 98.3782 65.0552 98.4844L64.8354 97.957ZM75.8276 96.6387C75.824 97.5103 76.8896 98.3269 78.1787 98.499L77.9077 99.0703C76.8347 98.8982 75.8936 98.3416 75.4651 97.5688C75.0366 98.3416 74.0955 98.8982 73.0298 99.0703L72.7515 98.499C74.0369 98.3269 75.0989 97.5212 75.1025 96.6387V96.2798H75.8276V96.6387ZM72.4658 100.286V99.7148H78.4497V100.286H75.7837V102.623H75.1025V100.286H72.4658ZM82.6816 100.396C82.6816 100.96 82.96 101.557 83.5569 101.912C84.1575 101.528 84.4541 100.901 84.4541 100.396V100.081H85.1353V100.396C85.1316 101.077 85.582 101.736 86.439 102.015L86.0947 102.527C85.4465 102.304 85.0034 101.865 84.7764 101.33C84.5676 101.857 84.1758 102.337 83.5752 102.586C82.9453 102.348 82.5461 101.883 82.3447 101.348C82.1067 101.865 81.6746 102.3 81.0557 102.527L80.7041 102.015C81.5464 101.714 82.0042 101.03 82.0078 100.396V100.081H82.6816V100.396ZM80.5356 97.979C80.5393 97.0598 81.2791 96.4299 82.2861 96.4263C83.2896 96.4299 84.0293 97.0598 84.0293 97.979C84.0293 98.8872 83.2896 99.5171 82.2861 99.5171C81.2791 99.5171 80.5393 98.8872 80.5356 97.979ZM81.2168 97.979C81.2131 98.5503 81.6636 98.9385 82.2861 98.9385C82.9014 98.9385 83.3481 98.5503 83.3481 97.979C83.3481 97.4041 82.9014 97.0159 82.2861 97.0195C81.6636 97.0159 81.2131 97.4041 81.2168 97.979ZM85.1499 99.8027V96.0674H85.8457V99.8027H85.1499ZM92.0083 97.979V98.5356H87.4893V96.2944H88.1777V97.979H92.0083ZM86.6909 99.9199V99.3633H92.6968V99.9199H86.6909ZM87.438 102.469V100.542H88.1338V101.897H92.0522V102.469H87.438ZM15.2402 109.92V110.469H12.5596V112.623H11.8784V110.469H9.23438V109.92H15.2402ZM9.98145 109.173V106.324H10.6699V107.181H13.79V106.324H14.4858V109.173H9.98145ZM10.6699 108.616H13.79V107.737H10.6699V108.616ZM21.5347 109.495V110.052H18.9272V111.26H18.2388V110.052H15.5288V109.495H21.5347ZM16.2759 112.483V110.689H16.9644V111.919H20.8682V112.483H16.2759ZM16.3198 108.917V106.265H17.0083V107.063H20.0479V106.265H20.7437V108.917H16.3198ZM17.0083 108.36H20.0479V107.583H17.0083V108.36ZM27.2651 106.06V112.637H26.5693V106.06H27.2651ZM22.0576 108.851C22.0576 107.448 22.7644 106.554 23.7568 106.551C24.731 106.554 25.4487 107.448 25.4487 108.851C25.4487 110.268 24.731 111.161 23.7568 111.158C22.7644 111.161 22.0576 110.268 22.0576 108.851ZM22.7314 108.851C22.7278 109.894 23.1453 110.535 23.7568 110.535C24.3574 110.535 24.7749 109.894 24.7749 108.851C24.7749 107.822 24.3574 107.177 23.7568 107.173C23.1453 107.177 22.7278 107.822 22.7314 108.851ZM32.0464 110.396C32.0464 110.96 32.3247 111.557 32.9216 111.912C33.5222 111.528 33.8188 110.901 33.8188 110.396V110.081H34.5V110.396C34.4963 111.077 34.9468 111.736 35.8037 112.015L35.4595 112.527C34.8113 112.304 34.3682 111.865 34.1411 111.33C33.9324 111.857 33.5405 112.337 32.9399 112.586C32.3101 112.348 31.9109 111.883 31.7095 111.348C31.4714 111.865 31.0393 112.3 30.4204 112.527L30.0688 112.015C30.9111 111.714 31.3689 111.03 31.3726 110.396V110.081H32.0464V110.396ZM29.9004 107.979C29.9041 107.06 30.6438 106.43 31.6509 106.426C32.6543 106.43 33.394 107.06 33.394 107.979C33.394 108.887 32.6543 109.517 31.6509 109.517C30.6438 109.517 29.9041 108.887 29.9004 107.979ZM30.5815 107.979C30.5779 108.55 31.0283 108.938 31.6509 108.938C32.2661 108.938 32.7129 108.55 32.7129 107.979C32.7129 107.404 32.2661 107.016 31.6509 107.02C31.0283 107.016 30.5779 107.404 30.5815 107.979ZM34.5146 109.803V106.067H35.2104V109.803H34.5146ZM39.0513 106.456C40.4282 106.456 41.4756 107.184 41.4756 108.287C41.4756 109.396 40.4282 110.121 39.0513 110.118C37.678 110.121 36.6306 109.396 36.6343 108.287C36.6306 107.184 37.678 106.456 39.0513 106.456ZM36.063 111.773V111.194H42.0688V111.773H36.063ZM37.3008 108.287C37.2971 109.052 38.0442 109.546 39.0513 109.546C40.0547 109.546 40.7981 109.052 40.8018 108.287C40.7981 107.525 40.0547 107.016 39.0513 107.02C38.0442 107.016 37.2971 107.525 37.3008 108.287ZM45.7046 106.617V107.173H47.1328V106.067H47.8286V110.85H47.1328V109.151H45.7046V109.722H42.6577V106.617H45.7046ZM43.3462 109.173H45.0234V107.181H43.3462V109.173ZM43.5439 112.483V110.411H44.2471V111.919H47.9751V112.483H43.5439ZM45.7046 108.58H47.1328V107.745H45.7046V108.58ZM55.7666 106.067V110.887H55.0708V108.426H53.7891C53.6426 109.213 52.9614 109.751 52.1118 109.751C51.123 109.751 50.387 109.067 50.3906 108.111C50.387 107.151 51.123 106.478 52.1118 106.478C52.9834 106.478 53.6755 107.034 53.8 107.854H55.0708V106.067H55.7666ZM51.0571 108.111C51.0535 108.726 51.5076 109.147 52.1118 109.151C52.7014 109.147 53.1519 108.726 53.1519 108.111C53.1519 107.496 52.7014 107.089 52.1118 107.085C51.5076 107.089 51.0535 107.496 51.0571 108.111ZM51.5039 112.483V110.396H52.1997V111.919H55.9424V112.483H51.5039ZM62.2222 106.06V112.623H61.5557V106.06H62.2222ZM56.4946 110.813C57.4248 110.253 57.8972 109.059 57.9009 107.891V107.364H56.6924V106.8H59.6953V107.364H58.5674V107.891C58.5674 109.012 59.0215 110.136 59.9443 110.667L59.5269 111.18C58.9006 110.806 58.4722 110.136 58.2415 109.345C58.0071 110.202 57.5603 110.934 56.9194 111.333L56.4946 110.813ZM59.2119 108.953V108.382H60.23V106.199H60.8892V112.293H60.23V108.953H59.2119ZM69.0146 108.638V109.209H67.9966V112.615H67.3008V106.06H67.9966V108.638H69.0146ZM63.1333 110.967V106.697H63.8218V110.389C64.7373 110.385 65.6931 110.308 66.7368 110.096L66.8174 110.682C65.6931 110.905 64.6604 110.971 63.6753 110.967H63.1333ZM76.2935 106.06V109.737H75.5977V108.99H73.9387C73.6311 109.305 73.1697 109.491 72.6387 109.488C71.6353 109.491 70.9138 108.873 70.9175 107.964C70.9138 107.06 71.6353 106.426 72.6387 106.426C73.1733 106.426 73.6348 106.617 73.9424 106.939H75.5977V106.06H76.2935ZM71.584 107.964C71.5803 108.539 72.0234 108.917 72.6387 108.917C73.2356 108.917 73.6787 108.539 73.6787 107.964C73.6787 107.389 73.2356 107.001 72.6387 107.005C72.0234 107.001 71.5803 107.389 71.584 107.964ZM71.8037 112.52V111.956H72.7852V110.594H71.8696V110.03H76.3447V110.594H75.4365V111.956H76.4253V112.52H71.8037ZM73.4663 111.956H74.748V110.594H73.4663V111.956ZM74.272 107.496C74.3196 107.642 74.3452 107.8 74.3452 107.964C74.3452 108.125 74.3196 108.276 74.2793 108.418H75.5977V107.496H74.272ZM82.7637 106.06V112.623H82.0972V106.06H82.7637ZM77.1899 108.895C77.1899 107.474 77.7466 106.584 78.6035 106.587C79.4019 106.584 79.9402 107.342 80.0208 108.572H80.7642V106.185H81.4307V112.3H80.7642V109.136H80.0244C79.9622 110.418 79.4165 111.213 78.6035 111.209C77.7466 111.213 77.1899 110.319 77.1899 108.895ZM77.8345 108.895C77.8345 109.938 78.1311 110.553 78.6035 110.55C79.0869 110.553 79.3872 109.938 79.3872 108.895C79.3872 107.847 79.0869 107.236 78.6035 107.239C78.1311 107.236 77.8345 107.847 77.8345 108.895ZM85.7769 107.73C85.7769 108.931 86.4507 110.129 87.4541 110.579L87.0293 111.136C86.2859 110.762 85.7219 110.022 85.4326 109.125C85.1433 110.07 84.572 110.868 83.814 111.26L83.3745 110.696C84.3926 110.209 85.0701 108.946 85.0737 107.73V106.609H85.7769V107.73ZM86.729 108.807V108.243H88.1938V106.06H88.8823V112.637H88.1938V108.807H86.729ZM14.5591 119.085V119.642H12.5742V121.246H15.2476V121.817H9.2417V121.246H11.8857V119.642H9.98877V116.565H14.5005V117.129H10.6846V119.085H14.5591ZM17.5063 116.478C18.5171 116.478 19.2678 117.115 19.2715 118.038C19.2678 118.851 18.6855 119.44 17.8579 119.572V120.612C18.4402 120.583 19.0225 120.539 19.5645 120.469L19.6157 120.989C18.2278 121.231 16.7007 121.242 15.5654 121.231L15.4556 120.66C15.9646 120.656 16.5505 120.652 17.1621 120.638V119.572C16.3162 119.448 15.7375 118.854 15.7412 118.038C15.7375 117.115 16.4773 116.478 17.5063 116.478ZM16.415 118.038C16.4114 118.62 16.8765 119.008 17.5063 119.004C18.1289 119.008 18.5867 118.62 18.5903 118.038C18.5867 117.452 18.1289 117.071 17.5063 117.063C16.8765 117.071 16.4114 117.452 16.415 118.038ZM19.96 122.623V116.06H20.6558V118.726H21.6665V119.312H20.6558V122.623H19.96ZM27.8145 118.755V119.312H25.1631V119.898H27.0601V121.451H23.2368V122.022H27.2432V122.557H22.5557V120.953H26.3716V120.418H22.5483V119.898H24.4746V119.312H21.8306V118.755H27.8145ZM22.1382 117.957C23.3247 117.858 24.2549 117.4 24.3977 116.822H22.3799V116.272H27.2798V116.822H25.24C25.3792 117.397 26.3203 117.858 27.5142 117.957L27.2871 118.484C26.1592 118.378 25.2144 117.972 24.8188 117.349C24.4233 117.972 23.4858 118.378 22.3579 118.484L22.1382 117.957ZM33.7646 116.06V122.623H33.1055V116.06H33.7646ZM28.103 120.726C29.4946 119.898 30.1611 118.796 30.282 117.444H28.4106V116.873H30.9741C30.9705 117.514 30.8826 118.125 30.6812 118.697H31.7212V116.229H32.3804V122.3H31.7212V119.253H30.4395C30.0513 120.015 29.425 120.682 28.4985 121.224L28.103 120.726ZM38.5972 117.327C38.5935 117.946 39.1831 118.488 40.1426 118.689L39.8569 119.231C39.1025 119.059 38.5459 118.682 38.2566 118.184C37.9746 118.726 37.4106 119.14 36.6343 119.319L36.3413 118.777C37.3118 118.569 37.8977 117.983 37.9014 117.327H36.4878V116.778H37.9014V116.075H38.5972V116.778H40.0034V117.327H38.5972ZM36.0557 119.722C37.3008 119.722 38.9487 119.711 40.377 119.532L40.4282 120.037C39.8276 120.136 39.2087 120.198 38.6045 120.235V122.425H37.9087V120.271C37.2788 120.297 36.6782 120.301 36.1509 120.301L36.0557 119.722ZM40.8311 122.623V116.067H41.5195V122.623H40.8311ZM44.1738 116.36C45.0381 116.353 45.7083 116.855 45.8511 117.591H47.1328V116.06H47.8286V119.583H47.1328V118.162H45.8547C45.7192 118.917 45.0454 119.422 44.1738 119.422C43.1704 119.422 42.449 118.788 42.4526 117.884C42.449 116.99 43.1704 116.353 44.1738 116.36ZM43.1191 117.884C43.1155 118.444 43.5549 118.836 44.1738 118.836C44.7817 118.836 45.2139 118.444 45.2139 117.884C45.2139 117.32 44.7817 116.935 44.1738 116.939C43.5549 116.935 43.1155 117.32 43.1191 117.884ZM43.5513 122.542V119.898H44.2397V120.66H47.1328V119.898H47.8286V122.542H43.5513ZM44.2397 121.971H47.1328V121.209H44.2397V121.971ZM53.7642 116.06V118.719H54.8188V119.297H53.7642V122.623H53.0757V116.06H53.7642ZM48.6152 117.657V117.085H50.2339V116.148H50.9297V117.085H52.5044V117.657H48.6152ZM48.9521 119.664C48.9521 118.77 49.6406 118.14 50.5854 118.14C51.5266 118.14 52.2151 118.77 52.2188 119.664C52.2151 120.564 51.5266 121.191 50.5854 121.194C49.6406 121.191 48.9521 120.564 48.9521 119.664ZM49.6187 119.664C49.615 120.235 50.0251 120.616 50.5854 120.608C51.1421 120.616 51.5486 120.235 51.5522 119.664C51.5486 119.103 51.1421 118.715 50.5854 118.711C50.0251 118.715 49.615 119.103 49.6187 119.664ZM58.2935 116.617V117.173H59.7217V116.067H60.4175V120.85H59.7217V119.151H58.2935V119.722H55.2466V116.617H58.2935ZM55.9351 119.173H57.6123V117.181H55.9351V119.173ZM56.1328 122.483V120.411H56.8359V121.919H60.564V122.483H56.1328ZM58.2935 118.58H59.7217V117.745H58.2935V118.58ZM68.8901 121.216V121.788H62.8843V121.216H65.5137V119.656H66.2021V121.216H68.8901ZM63.0894 119.202C64.3528 118.99 65.4807 118.016 65.4844 116.976V116.478H66.2168V116.976C66.2168 118.016 67.3594 118.99 68.6265 119.202L68.3262 119.773C67.2605 119.565 66.2864 118.906 65.8542 118.008C65.4221 118.902 64.4553 119.565 63.397 119.773L63.0894 119.202ZM74.4888 116.69V117.334C74.4851 118.144 74.4851 119.052 74.2397 120.396L73.5366 120.323C73.7893 119.052 73.7893 118.122 73.793 117.334V117.254H69.8086V116.69H74.4888ZM69.1787 121.736V121.158H71.4565V118.843H72.145V121.158H75.1626V121.736H69.1787ZM80.9297 116.06V122.623H80.2266V116.06H80.9297ZM75.5391 120.865C77.2822 120.033 78.1355 118.851 78.271 117.32H75.854V116.763H78.9741C78.9741 118.686 78.1575 120.348 75.9053 121.429L75.5391 120.865ZM84.9565 117.137C84.9492 117.616 85.0627 118.29 85.5132 118.766C85.9453 118.298 86.0625 117.638 86.0625 117.137V116.558H86.729V117.137C86.7327 117.858 86.9963 118.664 87.7397 119.07L87.3662 119.583C86.8682 119.305 86.5642 118.847 86.3921 118.327C86.2419 118.814 85.9709 119.268 85.5059 119.539C85.0334 119.268 84.7625 118.807 84.616 118.316C84.4438 118.832 84.1436 119.301 83.6675 119.583L83.2793 119.07C84.0264 118.646 84.301 117.789 84.3047 117.137V116.558H84.9565V117.137ZM83.3232 120.718C83.8726 120.718 84.5024 120.715 85.1616 120.696V119.62H85.8647V120.667C86.4434 120.638 87.0293 120.594 87.5786 120.521L87.6299 121.033C86.1687 121.29 84.5977 121.293 83.4185 121.29L83.3232 120.718ZM87.9448 122.623V116.06H88.6479V118.733H89.5415V119.312H88.6479V122.623H87.9448ZM90.4526 122.051C90.167 122.048 89.929 121.817 89.9326 121.531C89.929 121.246 90.167 121.011 90.4526 121.011C90.7346 121.011 90.969 121.246 90.9727 121.531C90.969 121.817 90.7346 122.048 90.4526 122.051ZM11.5415 127.415C11.5415 128.173 12.1348 128.876 13.1382 129.166L12.8159 129.708C12.0579 129.488 11.4976 129.023 11.2046 128.426C10.9153 129.081 10.344 129.59 9.56396 129.832L9.22705 129.29C10.2305 128.993 10.853 128.246 10.853 127.415V127.349H9.4248V126.792H10.853V126.031H11.5488V126.792H12.9697V127.349H11.5415V127.415ZM10.2085 132.542V130.228H14.3979V132.542H10.2085ZM10.8896 131.978H13.7095V130.777H10.8896V131.978ZM13.7021 129.935V126.06H14.3979V127.686H15.3501V128.265H14.3979V129.935H13.7021ZM20.9707 126.06V132.623H20.2749V126.06H20.9707ZM15.6313 130.828C16.6458 130.374 17.3196 129.268 17.3232 128.169V127.737H15.8291V127.181H17.3159V126.192H18.0044V127.181H19.4766V127.737H18.0044V128.169C18.0081 129.217 18.6965 130.286 19.7183 130.718L19.3374 131.253C18.5793 130.923 17.9788 130.239 17.6748 129.411C17.3782 130.29 16.7812 131.019 16.0195 131.363L15.6313 130.828ZM27.1479 129.085V129.642H25.1631V131.246H27.8364V131.817H21.8306V131.246H24.4746V129.642H22.5776V126.565H27.0894V127.129H23.2734V129.085H27.1479ZM31.314 127.137C31.3066 127.616 31.4202 128.29 31.8706 128.766C32.3027 128.298 32.4199 127.638 32.4199 127.137V126.558H33.0864V127.137C33.0901 127.858 33.3538 128.664 34.0972 129.07L33.7236 129.583C33.2256 129.305 32.9216 128.847 32.7495 128.327C32.5994 128.814 32.3284 129.268 31.8633 129.539C31.3909 129.268 31.1199 128.807 30.9734 128.316C30.8013 128.832 30.501 129.301 30.0249 129.583L29.6367 129.07C30.3838 128.646 30.6584 127.789 30.6621 127.137V126.558H31.314V127.137ZM29.6807 130.718C30.23 130.718 30.8599 130.715 31.519 130.696V129.62H32.2222V130.667C32.8008 130.638 33.3867 130.594 33.936 130.521L33.9873 131.033C32.5261 131.29 30.9551 131.293 29.7759 131.29L29.6807 130.718ZM34.3022 132.623V126.06H35.0054V128.733H35.8989V129.312H35.0054V132.623H34.3022ZM36.8101 132.051C36.5244 132.048 36.2864 131.817 36.29 131.531C36.2864 131.246 36.5244 131.011 36.8101 131.011C37.092 131.011 37.3264 131.246 37.3301 131.531C37.3264 131.817 37.092 132.048 36.8101 132.051ZM42.397 126.456C43.7996 126.459 44.8213 127.151 44.8213 128.199C44.8213 129.18 43.9644 129.836 42.7412 129.935V131.224H45.4146V131.802H39.4087V131.224H42.0527V129.935C40.8369 129.836 39.9763 129.18 39.98 128.199C39.9763 127.151 41.0017 126.459 42.397 126.456ZM40.6538 128.199C40.6538 128.935 41.3862 129.393 42.397 129.4C43.415 129.393 44.1438 128.935 44.1475 128.199C44.1438 127.488 43.415 127.02 42.397 127.027C41.3862 127.02 40.6538 127.488 40.6538 128.199ZM49.021 126.712V130.975H45.9521V126.712H49.021ZM46.6333 130.411H48.3325V127.261H46.6333V130.411ZM50.1196 132.623V126.06H50.8154V128.631H51.8701V129.217H50.8154V132.623H50.1196ZM55.4106 126.727C55.4033 128.664 54.8101 130.381 52.415 131.561L52.0342 131.041C53.2207 130.458 53.9275 129.751 54.3157 128.92L52.1733 129.122L52.0708 128.521L54.5317 128.356C54.6306 128.019 54.6855 127.664 54.7112 127.291H52.415V126.727H55.4106ZM56.4141 132.615V126.06H57.1099V128.682H58.1279V129.253H57.1099V132.615H56.4141ZM60.2915 127.854C60.2915 128.902 60.731 130.019 61.6099 130.557L61.2217 131.092C60.6064 130.722 60.1926 130.066 59.9656 129.308C59.7275 130.14 59.2734 130.85 58.6362 131.238L58.2041 130.718C59.1306 130.162 59.6213 129.001 59.6177 127.884V126.661H60.2915V127.854ZM60.8994 128.946V128.367H61.9175V126.185H62.5767V132.3H61.9175V128.946H60.8994ZM63.2725 132.623V126.06H63.939V132.623H63.2725ZM69.9038 129.085V129.642H67.9189V131.246H70.5923V131.817H64.5864V131.246H67.2305V129.642H65.3335V126.565H69.8452V127.129H66.0293V129.085H69.9038ZM74.0698 127.137C74.0625 127.616 74.176 128.29 74.6265 128.766C75.0586 128.298 75.1758 127.638 75.1758 127.137V126.558H75.8423V127.137C75.8459 127.858 76.1096 128.664 76.853 129.07L76.4795 129.583C75.9814 129.305 75.6775 128.847 75.5054 128.327C75.3552 128.814 75.0842 129.268 74.6191 129.539C74.1467 129.268 73.8757 128.807 73.7292 128.316C73.5571 128.832 73.2568 129.301 72.7808 129.583L72.3926 129.07C73.1396 128.646 73.4143 127.789 73.418 127.137V126.558H74.0698V127.137ZM72.4365 130.718C72.9858 130.718 73.6157 130.715 74.2749 130.696V129.62H74.978V130.667C75.5566 130.638 76.1426 130.594 76.6919 130.521L76.7432 131.033C75.282 131.29 73.7109 131.293 72.5317 131.29L72.4365 130.718ZM77.0581 132.623V126.06H77.7612V128.733H78.6548V129.312H77.7612V132.623H77.0581ZM79.5659 132.051C79.2803 132.048 79.0422 131.817 79.0459 131.531C79.0422 131.246 79.2803 131.011 79.5659 131.011C79.8479 131.011 80.0823 131.246 80.0859 131.531C80.0823 131.817 79.8479 132.048 79.5659 132.051ZM88.1484 129.188V129.751H86.603V130.513H87.416V132.623H86.7129V131.062H82.8311V130.513H83.6953V129.751H82.1646V129.188H88.1484ZM82.8091 127.474C82.8054 126.679 83.7173 126.203 85.1528 126.207C86.5847 126.203 87.4929 126.679 87.4966 127.474C87.4929 128.265 86.5847 128.744 85.1528 128.741C83.7173 128.744 82.8054 128.265 82.8091 127.474ZM83.5269 127.474C83.5232 127.931 84.1421 128.199 85.1528 128.199C86.1562 128.199 86.7825 127.931 86.7788 127.474C86.7825 127.02 86.1562 126.752 85.1528 126.756C84.1421 126.752 83.5232 127.02 83.5269 127.474ZM84.3911 130.513H85.9219V129.751H84.3911V130.513ZM93.8862 126.06V132.623H93.1904V126.06H93.8862ZM88.4956 130.835C89.0376 130.832 89.6528 130.828 90.2974 130.813V130.154C89.532 130.052 89.0339 129.601 89.0376 128.96C89.0339 128.221 89.6785 127.734 90.627 127.73C91.5864 127.734 92.2419 128.221 92.2456 128.96C92.2419 129.594 91.7476 130.041 90.9858 130.151V130.788C91.5938 130.759 92.209 130.715 92.7876 130.638L92.8389 131.158C91.3813 131.399 89.792 131.418 88.5908 131.414L88.4956 130.835ZM88.6348 127.4V126.844H90.2974V126.075H90.9932V126.844H92.6411V127.4H88.6348ZM89.6968 128.96C89.6895 129.378 90.0776 129.638 90.627 129.634C91.1946 129.638 91.5791 129.378 91.5791 128.96C91.5791 128.539 91.1946 128.272 90.627 128.272C90.0776 128.272 89.6895 128.539 89.6968 128.96ZM14.5591 139.085V139.642H12.5742V141.246H15.2476V141.817H9.2417V141.246H11.8857V139.642H9.98877V136.565H14.5005V137.129H10.6846V139.085H14.5591ZM18.7251 137.137C18.7178 137.616 18.8313 138.29 19.2817 138.766C19.7139 138.298 19.8311 137.638 19.8311 137.137V136.558H20.4976V137.137C20.5012 137.858 20.7649 138.664 21.5083 139.07L21.1348 139.583C20.6367 139.305 20.3328 138.847 20.1606 138.327C20.0105 138.814 19.7395 139.268 19.2744 139.539C18.802 139.268 18.531 138.807 18.3845 138.316C18.2124 138.832 17.9121 139.301 17.436 139.583L17.0479 139.07C17.7949 138.646 18.0696 137.789 18.0732 137.137V136.558H18.7251V137.137ZM17.0918 140.718C17.6411 140.718 18.271 140.715 18.9302 140.696V139.62H19.6333V140.667C20.2119 140.638 20.7979 140.594 21.3472 140.521L21.3984 141.033C19.9373 141.29 18.3662 141.293 17.187 141.29L17.0918 140.718ZM21.7134 142.623V136.06H22.4165V138.733H23.3101V139.312H22.4165V142.623H21.7134ZM24.2212 142.051C23.9355 142.048 23.6975 141.817 23.7012 141.531C23.6975 141.246 23.9355 141.011 24.2212 141.011C24.5032 141.011 24.7375 141.246 24.7412 141.531C24.7375 141.817 24.5032 142.048 24.2212 142.051Z" fill="#1A1C20"/>
</svg>
