<svg width="105" height="160" viewBox="0 0 105 160" fill="none" xmlns="http://www.w3.org/2000/svg">
<rect width="105" height="160" rx="5.0392" fill="#FFDBF0"/>
<path d="M35.7784 52.1763C33.6853 53.4697 31.4131 56.0201 30.3204 58.0243C29.9571 58.6906 30.0283 62.2752 30.1828 68.2579C30.3176 73.4816 31.4081 76.5878 32.0012 78.1194C33.2552 81.3582 35.1644 82.8404 39.1532 85.0663C40.9452 86.0664 44.1701 86.7137 46.985 87.3266C49.7999 87.9395 52.2418 88.2068 54.4147 88.2978C58.4138 88.4652 62.7844 87.4876 66.7255 86.323C69.2779 85.5688 70.6513 83.9331 73.2897 79.7592C74.276 78.1988 75.0454 75.8327 75.6465 73.767C76.2477 71.7013 76.4833 69.9101 76.6101 67.0533C76.9084 60.3334 76.6726 56.0532 76.4221 55.4845C75.7603 53.9819 72.0793 52.7256 66.8659 50.9509C63.8289 49.917 59.802 49.2379 56.1464 48.7651C52.4909 48.2923 49.2788 48.2062 46.5925 48.3281C39.2388 49.3287 37.2007 50.441 35.4694 51.6464C34.8043 52.1529 34.5725 52.4457 34.0271 53.3758" stroke="#FF0000" stroke-linecap="round"/>
<path d="M16.1909 52.1729C16.9671 52.4032 17.7434 52.6336 19.6992 53.0637C21.6551 53.4938 24.767 54.1167 27.9733 54.7585" stroke="#FF0000" stroke-linecap="round"/>
<path d="M23.3945 73.7852C23.3748 73.8247 23.355 73.8642 21.9472 75.466C20.5394 77.0678 17.7442 80.2308 16.0899 82.1894C14.4356 84.1481 14.007 84.8066 13.4341 85.808" stroke="#FF0000" stroke-linecap="round"/>
<path d="M29.8244 89.4409C29.8034 89.5249 29.7824 89.6089 28.5533 93.2289C27.3241 96.8489 24.8874 104.002 22.3594 112.139" stroke="#FF0000" stroke-linecap="round"/>
<path d="M53.6362 97.4819C53.6207 97.6404 53.6052 97.7989 53.3728 100.359C53.1405 102.918 52.6918 107.874 52.1709 112.981" stroke="#FF0000" stroke-linecap="round"/>
<path d="M72.5132 96.8008C74.444 98.4397 76.3748 100.079 78.587 101.749C80.7992 103.419 83.2343 105.07 85.7666 106.642" stroke="#FF0000" stroke-linecap="round"/>
<path d="M82.9292 86.5666C83.1008 86.5666 83.2725 86.5666 85.7456 86.5125C88.2188 86.4585 92.9882 86.3503 97.8707 86.1094" stroke="#FF0000" stroke-linecap="round"/>
<path d="M94.6677 48.6714C94.5671 48.7719 94.4666 48.8724 92.731 50.264C90.9955 51.6556 87.6279 54.3353 84.0386 57.1868" stroke="#FF0000" stroke-linecap="round"/>
<path d="M72.8263 35.4531C72.7958 35.5445 72.7654 35.6359 72.4734 36.5189C72.1814 37.4018 71.6288 39.0735 71.2801 40.4616C70.9313 41.8498 70.803 42.9037 70.6709 44.1522" stroke="#FF0000" stroke-linecap="round"/>
<path d="M49.25 32.3833C49.3455 34.4146 49.4409 36.4459 49.532 37.6732C49.623 38.9005 49.7066 39.2623 50.016 40.2377" stroke="#FF0000" stroke-linecap="round"/>
<path d="M22.4995 35.4521C22.5073 35.4676 22.515 35.4831 23.3531 36.5222C24.1911 37.5613 25.8593 39.6235 27.3064 41.1717C28.7536 42.7198 29.9293 43.6914 31.2334 44.898" stroke="#FF0000" stroke-linecap="round"/>
<path d="M38.6694 63.0854C38.7987 63.7765 39.3212 65.0907 40.2732 66.3046C41.3996 67.7408 43.3584 68.0121 45.1182 68.0675C46.6908 68.117 47.8145 67.5609 48.8366 66.8536C49.0539 66.6289 49.2243 66.3883 49.4003 65.9776C49.5763 65.5668 49.7527 64.9932 49.9684 64.1696" stroke="black" stroke-linecap="round"/>
<path d="M59.2687 63.7861C59.2293 64.5756 59.3394 65.7865 60.0405 67.0438C60.658 68.1513 62.0773 68.4967 63.2001 68.8784C64.531 69.3309 65.6862 68.7121 66.6357 68.2161C67.3799 67.4659 67.7398 66.6847 67.8752 66.0718C67.9293 65.773 67.9538 65.4992 68.0214 64.9734" stroke="black" stroke-linecap="round"/>
<path d="M52.7089 77.2437C52.2964 77.2203 51.0254 77.3951 50.1286 78.1445C49.1296 78.9792 49.4758 80.828 49.7178 82.2105C49.8257 82.8278 50.3921 83.227 50.9196 83.5412C52.0032 84.1865 53.3127 83.9153 54.501 83.5686C55.1081 83.3914 55.632 82.956 56.1011 82.5266C57.0578 81.651 56.5153 79.6796 56.0531 78.5075C55.88 78.2628 55.6534 78.0889 55.2487 77.9354C54.8441 77.7819 54.2683 77.6542 53.1326 77.4537" stroke="#FF0000" stroke-linecap="round"/>
<path d="M52.5413 71.7954C52.1419 72.4934 50.5468 74.1389 49.3051 75.0227C47.3937 76.3832 40.0447 77.2935 36.8626 78.251C35.151 78.766 34.1526 80.7627 33.6858 82.0969C33.1412 83.6531 33.9042 84.839 34.6633 86.0958C35.524 87.5208 39.7724 87.3016 43.11 86.9561C45.3483 86.7244 47.364 84.8677 49.4113 81.9896C50.4147 79.9855 50.9467 78.6265 51.3396 77.3946C51.6639 76.4461 52.242 74.8412 53.0521 72.742" stroke="#1DC3EC" stroke-linecap="round"/>
<path d="M68.1509 34.5356C68.2633 34.5737 70.9847 34.7911 75.0243 35.3022C76.4245 35.4793 76.4086 36.0381 75.8734 37.0491C73.159 42.1767 70.7747 43.929 70.4336 45.1258C73.4407 45.6372 76.3266 45.7738 77.178 45.8698C77.5627 45.91 77.8515 45.9331 78.0669 45.9218" stroke="#18008D" stroke-width="2" stroke-linecap="round"/>
<path d="M79.8713 21.4722C79.8353 21.6096 81.1733 21.697 83.2001 21.8595C83.8838 21.9143 83.8131 22.28 83.5729 22.8614C82.2649 26.0277 80.9914 28.0526 81.331 29.194C81.8623 29.6368 83.1221 29.8029 84.0032 29.9104C84.8843 30.0178 85.3486 30.0616 85.7874 30.1145" stroke="#18008D" stroke-width="2" stroke-linecap="round"/>
<path d="M87.6982 13.6826C87.7422 13.6826 89.0953 13.7936 91.0659 14.1292C91.7348 14.2431 91.6158 14.6886 91.4822 15.0039C90.801 16.1422 89.7515 17.4235 89.2911 18.6901C89.4865 19.1691 90.5531 19.3155 92.1943 19.8311" stroke="#18008D" stroke-width="2" stroke-linecap="round"/>
</svg>
