<svg width="105" height="160" viewBox="0 0 105 160" fill="none" xmlns="http://www.w3.org/2000/svg">
<rect width="105" height="160" rx="5.0392" fill="white"/>
<path d="M25.3871 49.4213C25.2581 57.0006 24.8273 64.6503 25.0888 72.2351C25.1292 73.4077 25.2449 74.5742 25.3169 75.7449C25.3371 76.0717 25.1335 78.771 25.3871 78.9739C27.0529 80.3065 35.6897 79.3926 36.4781 79.3775C44.9722 79.2153 53.4917 79.0897 61.9769 78.6405C65.9091 78.4323 69.7739 78.1666 73.7173 78.1666C76.7825 78.1666 79.8477 78.1666 82.913 78.1666C84.0909 78.1666 83.8255 77.5026 83.8255 76.4468C83.8255 72.0344 84.4255 67.7674 83.7553 63.3552C83.0726 58.8606 82.8779 54.412 82.8779 49.8775C82.8779 48.4354 83.1678 46.555 82.562 45.1919C82.2486 44.4869 76.5756 45.9457 76.1039 46.0168C64.9172 47.7008 53.7041 46.6927 42.4799 47.526C36.5744 47.9644 30.6412 47.9385 24.7554 48.4736" stroke="#FA6E55" stroke-width="1.26353" stroke-linecap="round"/>
<path d="M37.3911 54.4756C37.4393 55.2677 36.9989 63.6398 39.7252 62.0568C40.3301 61.7055 41.0718 61.2978 41.4976 60.7231C42.8513 58.8956 40.5723 57.4424 39.2864 56.3709" stroke="#FA6E55" stroke-width="1.26353" stroke-linecap="round"/>
<path d="M38.3385 62.3726C37.1342 66.2547 36.0458 70.1628 35.1797 74.0602" stroke="#FA6E55" stroke-width="1.26353" stroke-linecap="round"/>
<path d="M41.1811 63.3203C41.0203 68.0641 40.8652 72.8028 40.8652 77.5351" stroke="#FA6E55" stroke-width="1.26353" stroke-linecap="round"/>
<path d="M48.1308 57.9502C49.2989 59.1431 52.8895 62.1776 50.9387 64.0397C49.5272 65.387 48.9568 65.0938 47.8149 63.952" stroke="#FA6E55" stroke-width="1.26353" stroke-linecap="round"/>
<path d="M48.4468 57.0024H52.5533" stroke="#FA6E55" stroke-width="1.26353" stroke-linecap="round"/>
<path d="M56.0278 58.582C56.031 58.7266 55.7823 63.8212 56.8351 63.566C57.1152 63.4981 57.5278 62.8089 57.5897 62.5306C57.8476 61.3698 56.3271 60.2064 55.7119 59.5297" stroke="#FA6E55" stroke-width="1.26353" stroke-linecap="round"/>
<path d="M62.3456 59.5295C61.8829 60.9178 64.9078 63.1453 64.9078 61.2493C64.9078 59.4706 62.9095 58.6497 61.7139 59.8454" stroke="#FA6E55" stroke-width="1.26353" stroke-linecap="round"/>
<path d="M68.6636 59.5298C69.262 60.1063 73.0859 64.2648 73.0859 61.1794C73.0859 59.49 70.2128 59.6942 68.9795 59.5298" stroke="#FA6E55" stroke-width="1.26353" stroke-linecap="round"/>
<path d="M40.5498 61.7407L40.8657 64.2678" stroke="#FA6E55" stroke-width="1.26353" stroke-linecap="round"/>
<path d="M40.2337 57.0027C33.86 56.6385 43.5781 57.0027 35.3199 57.0027C33.8472 57.0027 36.187 55.1142 36.5659 54.6511C37.9281 52.9862 38.0379 58.5359 38.9701 55.7392" stroke="#FA6E55" stroke-width="1.26353" stroke-linecap="round"/>
<path d="M37.0747 64.2681C38.2713 64.8312 39.2403 65.9587 40.2335 66.7951" stroke="#FA6E55" stroke-width="1.26353" stroke-linecap="round"/>
<path d="M38.9702 66.4791L40.2337 63.3203" stroke="#FA6E55" stroke-width="1.26353" stroke-linecap="round"/>
<path d="M79.7192 118.6C79.7192 108.93 80.14 99.1131 79.7192 89.4335C79.6404 87.6229 43.0601 88.5911 34.9691 88.5911C31.5081 88.5911 27.9678 88.3815 24.5098 88.5911C23.6752 88.6417 24.1237 92.8205 24.1237 93.3995C24.1237 99.294 24.2552 104.74 22.8602 110.475C22.3149 112.716 21.8034 115.004 21.351 117.266C21.2738 117.652 21 118.376 21 118.74C21 119.652 38.0051 119.232 39.1106 119.232C49.3183 119.232 59.526 119.232 69.7337 119.232C72.4773 119.232 75.2208 119.232 77.9643 119.232C78.4451 119.232 80.0141 119.534 79.0874 118.916" stroke="#4ECEAD" stroke-width="1.26353" stroke-linecap="round"/>
<path d="M31.3892 98.0672C33.7221 98.0672 36.0761 98.1412 38.4088 98.0497C39.0564 98.0243 39.0224 97.8322 38.7072 97.9619C38.2497 98.1503 36.0895 99.4042 35.6361 98.9096C34.9308 98.1402 34.2322 96.1329 34.2322 95.0664C34.2322 94.1856 34.2898 95.0588 34.2497 95.5402C34.0635 97.7752 37.6731 96.8778 34.3725 98.8745C33.617 99.3316 32.6305 99.4661 32.3369 100.384C31.9324 101.648 31.8319 102.479 33.2845 102.735C36.6773 103.334 37.5598 99.3174 36.3029 96.8037C36.0164 96.2307 35.7373 94.5574 34.548 95.6806C33.7614 96.4235 34.2021 96.4144 34.8639 96.8037C35.8419 97.379 36.4664 99.5309 36.689 100.594C36.8722 101.47 36.6297 103.216 35.9695 103.876C35.451 104.395 32.8253 104.271 32.2316 103.894C30.8282 103 31.1144 100.102 32.5474 99.4712C34.3732 98.6678 35.5397 98.1196 34.548 100.103C34.4156 100.368 33.5735 102.157 33.9865 102.419C34.6204 102.823 35.9667 101.018 35.9871 100.489C36.0109 99.8691 34.4038 100.969 34.2672 101.068C33.5914 101.556 33.3 102.778 33.46 103.578C33.6196 104.376 34.1676 104.603 34.6533 103.771C34.9539 103.255 33.5616 103.748 33.4249 103.894C31.6449 105.792 30.7652 110.919 30.5117 113.51C30.4146 114.504 30.4556 115.366 30.1959 116.318C29.6466 118.332 32.181 112.636 32.9686 110.703" stroke="#4ECEAD" stroke-width="1.26353" stroke-linecap="round"/>
<path d="M35.8117 102.49C36.5236 106.38 37.292 110.269 37.9 114.177C38.0032 114.841 38.0478 115.267 37.9527 115.897C37.8742 116.417 37.9592 117.995 37.6368 118.389C37.4268 118.646 34.7592 117.519 34.5481 117.406C32.8509 116.501 33.2937 113.297 33.2846 111.721C33.2701 109.199 33.2352 106.682 33.5303 104.174C33.7065 102.676 33.2508 106.615 33.2144 106.842C32.7204 109.93 32.6528 112.951 32.6528 116.073C32.6528 117.952 32.6528 116.058 32.6528 115.441" stroke="#4ECEAD" stroke-width="1.26353" stroke-linecap="round"/>
<path d="M32.6529 97.7518C32.9073 97.0452 33.9414 95.1416 33.3549 95.6108C31.965 96.7227 31.0123 98.0616 32.846 95.839C33.501 95.045 35.4283 92.3144 35.8293 94.1191C35.9463 94.6455 36.3308 95.8431 36.6015 96.3303C37.2072 97.4206 37.0365 95.4563 36.268 94.944C35.8498 94.6651 34.0258 94.2194 33.6006 94.7509C33.3409 95.0755 32.16 92.2997 33.7936 92.0484C34.5485 91.9322 36.0559 91.4065 36.1277 92.6977C36.2113 94.2037 36.2934 92.7665 36.0575 92.2063C35.7663 91.5149 33.8109 93.7509 33.4251 94.1367C33.2024 94.3594 33.9178 93.6278 34.2324 93.6453C34.8755 93.6811 35.0347 94.9557 35.18 95.4002C35.5583 96.5572 35.7005 97.6089 36.3733 95.9267C36.7428 95.0031 37.1707 96.7893 37.321 97.1902C37.5954 97.9221 38.0327 96.9708 37.7773 96.4883C37.563 96.0836 36.8188 95.4124 36.4435 95.2247" stroke="#4ECEAD" stroke-width="1.26353" stroke-linecap="round"/>
<path d="M43.7083 100.279L41.4971 109.439" stroke="#4ECEAD" stroke-width="1.26353" stroke-linecap="round"/>
<path d="M47.4995 103.438C47.8492 104.486 49.7107 109.029 49.7107 105.508C49.7107 104.219 48.9901 104.089 47.8154 103.753" stroke="#4ECEAD" stroke-width="1.26353" stroke-linecap="round"/>
<path d="M52.2373 103.437C52.3443 103.657 53.55 106.913 54.3783 106.351C54.8948 106 54.549 104.833 54.3783 104.42C54.0119 103.535 53.0469 103.391 52.2373 103.122" stroke="#4ECEAD" stroke-width="1.26353" stroke-linecap="round"/>
<path d="M56.3438 103.754C57.2673 104.974 60.7051 110.114 61.9595 106.351C62.548 104.585 58.8592 103.545 57.6073 103.754" stroke="#4ECEAD" stroke-width="1.26353" stroke-linecap="round"/>
<path d="M63.9253 104.069C64.1337 104.736 64.4535 107.228 65.5047 107.228C66.5155 107.228 67.9293 105.885 68.0142 104.894C68.1967 102.764 65.3186 102.341 63.9253 102.805" stroke="#4ECEAD" stroke-width="1.26353" stroke-linecap="round"/>
</svg>
