<svg width="108" height="162" viewBox="0 0 108 162" fill="none" xmlns="http://www.w3.org/2000/svg">
<rect x="2.16162" width="104.838" height="160" rx="5.0392" fill="#F7F3FD"/>
<path d="M25.0082 72.3468C24.9463 71.7921 24.394 71.5132 24.1012 71.0759C22.5657 68.7828 21.4961 65.9428 20.4565 63.4174C19.8869 62.0338 18.1783 55.4914 19.5663 55.4914C21.8403 55.4914 24.0611 55.1904 26.3518 55.1904C32.472 55.1904 38.9526 57.9343 44.5921 60.0731C45.1465 60.2834 45.1804 60.5077 45.7342 60.3072C48.2236 59.406 51.5033 59.7053 54.1321 59.7053C55.9825 59.7053 57.7713 60.0062 59.6076 60.0062C62.4644 60.0062 65.719 61.1397 68.3414 62.1132C69.5173 62.5497 69.8276 63.5123 71.0287 62.7151C72.7063 61.6017 74.1199 61.0155 76.1011 60.2738C80.1508 58.7576 84.2779 56.948 88.53 56.06C89.4019 55.8778 89.3718 56.0738 89.5545 56.7288C90.0361 58.4548 90.008 60.965 90.008 62.782C90.008 65.1956 88.8163 67.545 88.1773 69.7716C87.776 71.1698 86.302 72.5626 85.5403 73.8517C84.8393 75.0382 85.6409 75.2802 86.6656 76.1091C87.9765 77.1695 89.0926 78.7409 90.1592 80.0387C91.9904 82.267 93.0081 87.038 93.3168 89.8041C93.5319 91.732 93.6359 93.5629 93.6359 95.5229C93.6359 103.522 88.3455 112.07 81.3078 115.923C77.3334 118.099 72.9763 119.883 68.7109 121.408C65.6687 122.495 62.6975 122.788 59.5404 123.281C55.4295 123.923 50.8633 124.254 46.7084 124.083C42.0878 123.894 37.4694 123.407 33.003 122.16C31.5917 121.766 29.2576 121.216 28.3337 119.836C27.9649 119.285 27.4498 118.831 27.1244 118.264C26.7186 117.557 25.8281 116.552 25.2433 115.923C23.7982 114.369 22.9803 112.192 22.2872 110.221C21.114 106.884 20.0414 103.786 19.3312 100.339C18.8298 97.9053 19.264 94.9923 19.264 92.513C19.264 86.9832 18.9629 81.3708 20.171 75.9586C20.4594 74.6661 21.3986 73.3387 22.5896 72.7146C23.1058 72.4441 24.7674 71.8061 24.7058 71.7448" stroke="black" stroke-width="2" stroke-linecap="round"/>
<path d="M30.1476 90.105C26.1038 91.5195 21.5963 91.3606 17.6011 92.9811C16.0282 93.6191 13.5962 94.6936 12.915 95.8238" stroke="black" stroke-width="2" stroke-linecap="round"/>
<path d="M34.9847 97.9307C28.626 99.5663 23.0927 102.489 17.4835 105.857C16.5092 106.442 13.5912 107.863 14.7289 107.863" stroke="black" stroke-width="2" stroke-linecap="round"/>
<path d="M37.706 107.562C31.8117 111.162 26.4801 115.641 21.0781 119.903" stroke="black" stroke-width="2" stroke-linecap="round"/>
<path d="M81.8447 86.1926C87.1849 86.0652 92.5307 85.8974 97.8679 86.1926" stroke="black" stroke-width="2" stroke-linecap="round"/>
<path d="M80.938 95.5229C87.2756 95.9015 93.5397 96.9474 99.6821 98.5328" stroke="black" stroke-width="2" stroke-linecap="round"/>
<path d="M79.4263 102.747C84.8616 105.546 89.951 108.49 95.08 111.709C95.5452 112.001 96.1228 112.214 96.3565 112.679" stroke="black" stroke-width="2" stroke-linecap="round"/>
<path d="M40.7285 83.1825C41.022 83.5801 42.4747 85.721 43.1807 86.1924C43.4311 86.3596 43.568 85.6521 43.5166 85.3564C43.4448 84.9429 43.2748 84.3538 42.8448 84.1524C42.348 83.9196 42.2445 85.2049 42.2401 85.4232C42.2056 87.1404 43.1904 88.3201 43.4326 85.9082C43.4859 85.3783 43.1499 81.6726 42.3913 83.0321C41.8878 83.9344 42.9466 87.8327 43.3823 87.0954C43.8074 86.3759 43.5777 81.7262 42.8448 82.0455C41.8268 82.4889 42.6098 87.1961 42.996 87.9649C43.419 88.8073 43.9494 88.5553 44.0373 87.6806C44.1478 86.5804 43.7441 85.6805 43.3151 84.7042C42.5973 83.0708 41.9624 84.9853 41.9378 85.8914C41.8925 87.5625 42.023 88.9607 44.1213 88.5335C45.1753 88.3188 45.9079 87.8963 46.1032 86.7944C46.2143 86.1677 46.4544 84.7128 45.7169 84.3865C44.0623 83.6544 43.2926 85.0587 43.1639 86.6606C43.0981 87.4794 44.2847 91.5749 45.0282 89.4364C45.5098 88.0513 45.4259 86.0432 44.6587 84.7544C44.316 84.1785 43.4887 82.8535 42.9792 83.6507C42.532 84.3503 42.2702 88.2963 43.2983 86.4767C43.6795 85.8019 44.2169 84.7731 44.0373 83.9685C43.9455 83.5573 44.3132 84.1572 44.6587 84.3865" stroke="black" stroke-width="2" stroke-linecap="round"/>
<path d="M67.3334 81.3765C67.3073 81.6547 66.1396 89.355 67.4845 86.9448C67.9517 86.1076 67.6357 84.5695 67.6357 83.6172C67.6357 82.3028 67.4843 82.9371 67.199 83.9516C66.8374 85.2375 66.6815 87.6724 67.2662 88.9012C68.2227 90.9117 71.536 88.113 71.1964 86.3261C71.1045 85.8426 70.9776 83.6239 70.4742 84.7376C69.9596 85.876 69.3031 89.5754 69.7688 88.4163C70.235 87.2557 70.1533 85.752 69.9871 84.5202C69.9186 84.0121 69.3939 81.7903 68.9962 83.2159C68.5587 84.7837 68.7318 86.0533 68.845 87.6304C68.9477 89.0623 69.7093 86.7001 69.7352 86.3261C69.8539 84.6128 69.8872 82.7338 69.3825 81.0755C68.9317 79.5945 68.1421 83.7438 68.0892 84.1021C67.9603 84.9749 67.479 87.1982 68.3075 87.9314C68.5302 88.1285 68.845 86.1406 68.845 85.8913" stroke="black" stroke-width="2" stroke-linecap="round"/>
<path d="M60.38 97.0278C57.7781 97.3796 57.0543 97.856 56.4665 99.9039C56.2455 100.674 56.6036 102.035 57.0544 102.596C57.7269 103.433 62.1698 103.669 63.0337 102.981C64.4378 101.862 66.4008 100.232 64.9148 98.3823C63.9484 97.1796 60.33 97.0278 58.8684 97.0278" stroke="black" stroke-width="2" stroke-linecap="round"/>
<path d="M42.5425 82.5801C42.1664 84.2185 41.15 89.0422 43.8862 89.8205C44.9995 90.1372 46.4728 89.5617 46.4728 87.9979C46.4728 86.3269 46.3138 85.1113 45.8849 83.6168C45.4111 81.9658 43.6392 82.2791 42.2402 82.2791" stroke="black" stroke-width="2" stroke-linecap="round"/>
<path d="M69.1472 80.4733C68.7213 80.3673 68.9209 79.7402 69.1472 80.0218C69.3234 80.241 69.4083 80.621 69.6007 80.7743C70.0482 81.1307 70.3261 81.7349 70.3565 82.2792C70.3885 82.8541 70.8808 86.6309 70.4236 86.1252C69.7267 85.3541 69.2029 82.9778 69.1472 81.9782C69.122 81.5267 69.1361 80.186 68.5425 80.9247C68.3599 81.152 67.5831 82.0827 67.9379 81.3762" stroke="black" stroke-width="2" stroke-linecap="round"/>
<path d="M59.7752 99.7368C62.9891 99.6283 59.9886 98.7044 59.4729 99.603C59.126 100.207 59.0445 100.792 59.7752 101.175C60.3636 101.483 65.6319 101.623 64.5452 100.406C63.7673 99.5343 60.886 99.9727 59.7752 100.038C59.1777 100.073 59.5203 100.866 59.792 101.091C60.3513 101.555 61.6402 100.983 62.0259 100.489C63.2707 98.8959 59.1303 99.1348 58.4148 99.1348C57.6221 99.1348 57.659 99.7158 57.659 100.339C57.659 101.266 58.5662 101.242 59.3385 101.242C60.4231 101.242 61.567 101.452 62.4962 100.874C62.7604 100.709 63.3763 99.989 62.9328 99.7368C62.3304 99.394 61.8616 99.607 61.2197 99.8036C60.6874 99.9667 59.7752 101.194 59.7752 100.64" stroke="#FFDB45" stroke-width="2" stroke-linecap="round"/>
<path d="M77.0077 65.4238C75.5881 67.1198 72.4949 70.3611 73.1447 72.9485C73.2377 73.3189 73.7984 73.2602 74.0516 73.1826C74.533 73.0352 75.3616 72.6717 75.7984 72.6476C77.4765 72.5547 78.9297 71.928 79.4935 70.3065C80.5767 67.1912 80.1339 65.4238 76.7054 65.4238" stroke="black" stroke-width="2" stroke-linecap="round"/>
<path d="M81.5423 67.8317C85.459 67.089 88.9457 67.3254 93.0306 67.4638C94.726 67.5213 96.3562 67.2111 96.3562 69.3534C96.3562 72.4937 96.6798 77.2854 92.8627 78.6673C89.8029 79.775 85.4548 79.5526 83.0539 77.1624C81.8016 75.9155 78.519 73.6482 78.519 71.7446" stroke="black" stroke-width="2" stroke-linecap="round"/>
<path d="M78.8218 65.7252C83.2611 64.4223 88.1844 62.7153 92.8799 62.7153C93.8924 62.7153 94.7497 63.0163 95.752 63.0163C97.6896 63.0163 98.6665 64.8913 99.5479 66.3272C101.363 69.2846 101.046 72.4128 100.892 75.7247C100.727 79.2512 95.8286 81.4609 92.9303 81.9117C89.942 82.3766 86.9523 82.7281 84.1293 81.9786C81.7965 81.3593 79.3993 79.96 77.159 78.9687C74.8689 77.9554 74.8916 74.4829 74.8916 72.347" stroke="black" stroke-width="2" stroke-linecap="round"/>
<path d="M77.3102 65.4241C76.6691 63.9652 75.9821 61.5112 74.1357 61.5112C73.5311 61.5112 72.9264 61.5112 72.3218 61.5112C71.1098 61.5112 70.7893 62.6324 70.4239 63.4509C69.7719 64.9113 69.3179 71.4438 71.8683 71.4438" stroke="black" stroke-width="2" stroke-linecap="round"/>
<path d="M79.7284 64.8223C79.5278 61.5266 79.3594 57.5958 77.3434 54.8228C76.6402 53.8556 75.8767 54.1376 74.908 53.8362C73.7302 53.4698 72.1321 53.3848 70.8938 53.3848C68.2309 53.3848 66.2277 53.4233 63.9907 54.7225C60.1406 56.9585 59.4727 61.5448 59.4727 65.7253C59.4727 68.3312 61.3381 72.347 64.461 72.347C66.0131 72.347 67.8503 73.25 69.5837 73.25C70.6522 73.25 73.8434 73.551 72.7749 73.551" stroke="black" stroke-width="2" stroke-linecap="round"/>
<path d="M75.7981 57.8991C75.8365 57.9811 77.6121 62.4733 77.6121 61.0595C77.6121 60.8165 77.6121 60.1084 77.6121 60.7585C77.6121 61.5086 77.9144 62.0582 77.9144 62.7149C77.9144 64.3916 77.9717 62.2656 77.8976 61.5277C77.8105 60.6606 77.5834 59.1118 77.1586 58.3506C76.8881 57.8659 76.6486 56.3544 75.9661 56.9961C75.4917 57.4423 75.1548 57.8292 74.74 58.3339C74.442 58.6965 73.9842 59.9896 73.9842 59.5211C73.9842 58.4275 72.2387 59.5284 71.3976 59.9391C71.1448 60.0626 69.0187 61.2495 68.9119 61.1431C68.8852 61.1166 70.6463 59.6094 70.8266 59.4709C72.2709 58.3617 72.0687 58.4799 71.1121 59.8555C69.6761 61.9207 73.4228 58.881 73.8498 58.267C75.5837 55.7735 70.3627 55.9922 69.315 56.8457C67.8994 57.9987 67.6412 58.568 69.9532 58.0663C71.1232 57.8125 72.3963 57.4832 73.4971 56.9961C73.8916 56.8216 73.1445 56.6616 72.7581 57.0463C71.9372 57.8635 71.1655 59.0813 70.793 60.1732C70.5234 60.9635 70.633 61.6033 71.0281 60.5411C71.7216 58.6769 71.3562 58.5024 69.147 58.869C67.0302 59.2202 65.0189 59.9303 63.2853 61.1933C62.3749 61.8565 60.6879 63.2979 62.7814 61.8621C64.8313 60.4562 66.8785 58.9536 68.6431 57.1968C69.2137 56.6287 69.2826 56.2787 69.0798 57.364C69.0515 57.5158 68.642 59.1334 69.0294 58.9191C70.0175 58.3726 71.1346 57.9937 71.9519 57.1801C73.0118 56.1249 71.4096 55.3762 70.6754 55.0564C69.6083 54.5917 68.6948 54.8892 70.6586 54.8892C71.1338 54.8892 73.0355 54.6115 73.3795 55.0397C73.4147 55.0834 75.2302 55.5183 74.5217 55.4912C72.4099 55.4103 70.3149 55.1902 68.1728 55.1902C66.3985 55.1902 65.1439 56.0086 64.5449 57.665C64.3473 58.2116 64.3098 58.6594 64.3098 59.2368C64.3098 59.9556 64.9349 58.7817 65.2336 58.4844C65.5815 58.138 67.8238 56.1275 66.2581 56.4109C64.6356 56.7046 62.8798 57.8494 62.7982 59.6382C62.6468 62.9529 64.4172 58.4598 64.3098 57.4978C64.1858 56.3863 63.2944 59.505 62.9661 60.5746C62.5315 61.9907 62.1556 63.8612 62.6638 65.3068C62.9942 66.2464 63.7907 63.7984 63.8395 63.6179C64.0046 63.0073 64.0075 61.096 64.0075 61.7284C64.0075 63.0271 64.0075 64.3258 64.0075 65.6245C64.0075 67.5092 65.1784 65.267 65.7878 64.5543C67.5869 62.4501 69.311 60.3591 70.7594 57.9994C71.1455 57.3704 70.8494 59.0682 70.793 59.2368C70.5844 59.8597 70.1043 60.2998 70.054 60.9759C69.9519 62.3474 70.054 60.7999 70.054 60.307C70.054 59.8649 69.9606 57.3494 69.6173 58.0329C68.9173 59.4267 68.5838 60.8448 68.5423 62.4139C68.5157 63.4236 68.5423 61.8783 68.5423 61.6615C68.5423 60.3038 67.9317 61.0489 67.3498 61.8454C66.5565 62.9314 66.2625 65.2949 66.6612 62.7149C66.7592 62.081 66.7284 60.1506 66.7284 60.7919C66.7284 61.8332 66.5122 62.8335 66.4429 63.8687C66.2641 66.5383 66.6532 59.5772 65.9558 61.5611C65.5076 62.8359 65.2168 65.8453 65.2168 62.9156C65.2168 61.176 65.1265 64.7936 65.2336 65.2733C65.5865 66.8545 67.0694 63.17 67.2659 62.5477C67.9158 60.4888 67.771 66.9171 68.1728 65.3569C68.7673 63.0487 68.24 64.569 68.24 66.1596C68.24 67.3115 68.1758 68.4862 68.24 69.6377C68.2833 70.4128 68.6736 71.3948 69.2982 71.8784C70.0028 72.424 68.2252 71.2244 67.9377 71.1426C65.2448 70.3766 63.5684 68.0667 61.8912 66.0258C61.3824 65.4067 60.4245 64.6048 60.1444 63.852C59.9926 63.4438 60.0773 62.5477 60.0773 62.5477C60.0773 62.5477 60.6519 64.0836 60.6819 64.8887C60.724 66.0206 60.7989 68.5901 61.8912 69.2698C63.4833 70.2605 65.8214 69.1721 65.8214 67.1127C65.8214 65.9701 65.8214 69.398 65.8214 70.5406C65.8214 71.3685 66.7625 69.1443 66.9971 68.3501C67.1564 67.8111 67.3593 65.3699 66.7284 66.9957C66.3518 67.966 66.0976 68.8303 66.1237 69.8718C66.1513 70.9686 67.0048 68.8725 67.0307 68.4337C67.0413 68.2542 67.3284 67.9855 67.3163 68.0157C67.0806 68.6021 66.7462 69.1844 66.4429 69.738C65.9848 70.5741 65.0846 69.8321 64.461 69.4872C63.7374 69.087 63.7052 69.4075 63.7052 70.2396C63.7052 71.3254 64.677 71.1426 65.5191 71.1426" stroke="#FF0000" stroke-width="2" stroke-linecap="round"/>
<path d="M73.9848 63.0161C73.125 63.5298 70.2832 67.7518 71.3983 68.5844C71.8274 68.9048 74.612 64.4729 74.5727 64.6883C74.3213 66.0645 73.7448 67.5396 73.3634 68.8687C73.3425 68.9414 73.6661 66.9209 74.052 66.2601C74.2404 65.9376 75.7279 63.6181 75.4964 63.6181" stroke="#FF0000" stroke-width="2" stroke-linecap="round"/>
<path d="M77.6124 68.7348C77.3539 69.228 76.1927 70.4492 76.5879 70.0558C77.1028 69.5431 77.6428 68.827 77.898 68.1496C78.4085 66.794 76.3295 69.8266 76.0336 70.3066C75.66 70.9128 75.108 71.4503 74.9083 72.146C74.7121 72.8298 75.7241 70.9777 76.1008 70.3735C76.5035 69.7276 77.6124 66.329 77.6124 68.1328" stroke="#FF0000" stroke-width="2" stroke-linecap="round"/>
<path d="M78.8218 72.0453C78.912 76.4465 83.8984 78.6671 87.8915 78.6671C89.5561 78.6671 91.6609 79.0392 93.1822 78.3661C96.1351 77.0595 97.8682 74.1489 97.8682 70.9919C97.8682 67.4247 92.1246 65.4236 89.2352 65.4236C87.1245 65.4236 85.0138 65.4236 82.9031 65.4236C81.8902 65.4236 79.8878 66.0256 81.8618 66.0256C82.9998 66.0256 84.1915 65.9121 85.3049 66.1761C86.633 66.4909 87.4257 66.4446 85.3385 66.6108C84.3442 66.69 81.5371 67.0543 82.3489 66.4771C83.6572 65.5467 86.1927 65.4236 87.7403 65.4236C91.3633 65.4236 94.9597 65.3491 96.6589 68.9017C100.908 77.7862 85.3805 79.741 79.2417 78.3828C77.6555 78.0319 76.8303 77.0705 76.3864 75.5234C76.0967 74.514 76.189 75.1667 76.5543 75.9749C77.3938 77.8321 78.4504 79.6529 80.4678 80.4563C83.6064 81.7062 86.6267 81.978 89.991 81.978C94.6987 81.978 97.8682 77.2089 97.8682 72.7142C97.8682 70.1936 97.1634 69.6136 94.7778 68.2997C91.3278 66.3997 87.8378 65.2491 83.8941 64.8885C82.6795 64.7775 81.4509 64.8216 80.2326 64.8216C79.9985 64.8216 78.9441 64.8362 80.2326 64.8049C83.7257 64.7201 87.2195 64.6425 90.7132 64.5875C93.1229 64.5496 95.4213 64.737 97.801 64.8216C98.2842 64.8388 97.7804 64.7745 97.6331 64.8885C97.3814 65.0834 98.0289 67.1022 98.1034 67.5305C98.5521 70.1115 99.1518 74.0811 98.1034 76.5602C97.7937 77.2924 97.4279 77.4631 96.6589 77.4631C93.5219 77.4631 90.4428 77.125 87.354 76.5602C84.2174 75.9866 80.8915 74.4879 81.2404 70.8414C81.2785 70.4423 82.6515 68.7001 82.2145 70.0053C82.0331 70.5472 80.6447 74.2921 81.5427 72.3463C81.8221 71.7408 82.3097 69.7936 82.1473 70.4401C81.8923 71.4556 81.0211 72.3687 80.4006 73.1824C79.5036 74.3586 80.7232 71.5927 80.8709 71.2761C81.9334 68.9977 79.9712 73.5114 81.6435 72.3798C83.3821 71.2032 84.0723 68.9194 85.7416 67.7144C86.3128 67.3022 86.061 69.104 86.0104 69.8046C85.881 71.5932 85.5787 73.3642 85.4729 75.1556C85.3664 76.9576 86.3508 71.5171 87.522 70.1391C87.8872 69.7094 87.4067 71.2612 87.2869 71.8112C86.9077 73.5517 86.5687 75.2977 86.1447 77.0284C85.6002 79.2511 87.3894 72.6099 88.2946 70.507C88.8073 69.316 89.3742 66.2601 89.6383 69.002C89.8399 71.0958 89.028 77.3914 89.1008 75.2893C89.1601 73.5776 89.7432 71.8792 90.3773 70.3063C90.6092 69.731 92.1186 66.7188 92.1241 66.8282C92.2101 68.5411 91.6832 70.2859 91.8553 71.9785C91.9109 72.5245 92.2688 73.4389 92.4432 73.9349C92.5003 74.0974 92.5371 74.4563 92.6951 74.3864C93.3779 74.0842 93.2428 72.9985 93.4341 72.2794C93.5729 71.7581 93.938 70.2017 93.938 70.7411C93.938 72.625 93.938 74.509 93.938 76.3929C93.938 76.9838 93.901 78.7551 93.938 78.1654C94.0706 76.0528 94.919 73.9159 95.4496 71.8781C96.6584 67.2364 95.466 74.6368 96.0543 75.2224C96.2724 75.4396 96.1713 74.6192 96.239 74.3195C96.4629 73.329 96.7056 72.341 96.8941 71.343C97.1969 69.7389 96.866 64.8769 97.2636 66.4603C97.6559 68.0225 97.5167 69.5796 98.1706 71.1257C98.5548 72.0341 99.0775 72.6732 99.0775 73.6841C99.0775 74.146 98.5007 74.9379 98.137 75.2224C96.8357 76.2403 96.2724 76.694 94.677 77.0116C92.8453 77.3764 90.8348 77.4631 88.9664 77.4631C86.9873 77.4631 84.3498 76.7751 82.6008 75.8077C81.5843 75.2455 79.7997 74.3084 78.721 75.2392C78.0711 75.7999 77.2171 78.1063 78.5194 75.791C78.8434 75.2151 80.0151 71.3173 79.9135 72.4299C79.8939 72.645 79.2921 73.6253 79.1409 74.3028C78.9329 75.2347 78.0214 73.6564 77.6125 73.2493C76.6837 72.3247 76.8594 73.6633 77.159 74.3195C78.3531 76.9349 81.3304 72.4154 81.5259 70.8581C81.7203 69.3097 81.716 69.9335 81.19 71.2427C80.6787 72.5152 80.0457 73.7943 79.7455 75.1388C79.5635 75.9544 80.5518 73.6732 80.938 72.9316C81.1186 72.5849 82.1473 69.7086 82.1473 70.7578C82.1473 73.1311 82.2542 75.5344 81.9962 77.8979C81.7652 80.0134 82.6002 76.1942 82.6848 75.9415C83.5817 73.2628 84.5564 70.3564 85.876 67.8482C86.1808 67.2689 85.9333 69.8348 85.9264 69.9217C85.7237 72.4641 85.6601 75.0181 85.4897 77.5635C85.3417 79.7736 86.8111 73.332 87.3876 71.1925C87.7234 69.9465 87.1871 74.6725 87.1357 75.1556C87.0753 75.7233 86.4394 80.0919 86.867 77.112C87.219 74.6589 87.6007 72.2153 87.8915 69.7545C88.0762 68.1913 88.1892 70.1325 88.1602 70.5571C88.0078 72.7954 87.7861 75.1117 87.438 77.3294C87.2249 78.6874 87.3125 76.0414 87.3204 75.9247C87.5048 73.2172 88.0298 70.5426 88.177 67.8315C88.21 67.2241 88.1938 66.7461 88.1938 67.6476C88.1938 70.3075 87.9263 72.9364 87.5892 75.5736C87.4405 76.7363 87.1459 77.9876 87.1189 79.1687C87.1139 79.388 87.3768 78.7983 87.4212 78.5835C87.9556 75.9993 88.4962 68.1027 88.4962 70.7411C88.4962 71.9836 88.5172 73.2279 88.4794 74.47C88.4451 75.5963 87.7953 78.8327 88.345 77.8477C89.8762 75.1037 90.1789 65.5895 90.5956 68.701C91.019 71.8625 89.8738 81.4232 90.3269 78.2658C90.6301 76.1525 91.2427 74.0708 91.7881 72.0119C92.0891 70.8759 92.4264 67.7623 92.4264 70.7578C92.4264 73.8478 92.0333 77.1948 92.4432 80.2556C92.5181 80.8148 92.6715 79.1505 92.7959 78.6002C93.1161 77.1831 93.4613 75.7728 93.77 74.3529C93.9569 73.4936 94.0482 71.7784 94.5427 70.9752C95.2059 69.8977 94.8012 73.4913 94.845 74.7542C94.9821 78.7145 95.1473 74.3014 95.1473 73.3998C95.1473 72.2016 95.385 70.7982 95.6848 69.6374C95.7822 69.2602 96.1552 67.4576 96.4238 68.6341C97.1099 71.6396 97.6807 74.3093 97.5659 77.3962C97.476 79.8123 91.0979 82.0665 89.1008 81.3091C87.5642 80.7263 85.7566 80.1821 84.4316 79.2022C84.1052 78.9608 82.1422 77.5126 83.1215 78.8009C83.9915 79.9454 85.0237 81.0016 86.2455 81.7773C86.3724 81.8578 87.954 82.4365 87.1525 82.2121C85.9814 81.8841 83.8045 81.1916 83.0543 80.2724C80.6792 77.3621 81.7404 71.1402 82.2145 67.7312C82.2728 67.3123 82.7019 66.2504 82.2481 67.263C81.3756 69.2099 80.4529 71.1443 79.5608 73.0821C79.3535 73.5323 78.6295 71.6176 78.5194 71.3765C78.0164 70.2746 77.4855 69.2488 76.7727 68.2663C76.4217 67.7825 75.609 66.1952 75.7985 66.7613C76.2117 67.9954 77.6821 70.5325 77.1758 67.564C76.7416 65.0185 74.3129 57.6391 74.9587 60.1396C75.2922 61.4308 75.8134 63.7997 76.7727 64.7547C77.372 65.3514 76.3898 63.1066 76.1008 62.3134C75.8699 61.6795 75.3603 59.8952 75.5634 61.678C76.0082 65.5833 77.5561 69.332 79.0233 72.9483C79.6028 74.3767 80.3937 76.5874 81.6099 77.6972C81.8123 77.882 81.6611 74.4329 81.6435 74.3195C81.3478 72.4174 80.7611 70.6011 80.0982 68.8014C79.897 68.2548 80.0532 67.9566 80.0311 67.2295C79.9917 65.937 79.6011 66.538 78.9897 67.0289C78.8961 67.104 84.0553 67.7882 84.6331 67.8315C85.9318 67.9288 89.8288 68.0234 88.5297 68.1158C85.2801 68.3469 81.6075 67.801 78.4523 67.263C74.5873 66.6039 71.0124 65.4625 67.283 64.3534C65.9469 63.9561 67.4368 65.1853 67.6693 65.457C68.9137 66.9114 70.3045 68.8727 72.0362 69.8046C73.304 70.4869 69.1799 66.9211 69.2817 67.6643C69.3607 68.2409 70.5002 69.2401 70.7766 69.5037C72.5294 71.175 74.5145 72.5823 76.6383 73.7509C78.446 74.7457 84.2207 76.9493 82.4497 75.8913C80.3308 74.6256 77.2756 75.122 74.8915 74.8211C73.8115 74.6848 72.7206 74.5014 71.6331 74.4532C71.2616 74.4368 70.8487 74.183 70.8941 74.2191C72.5903 75.5701 67.136 72.0494 65.2507 70.9752C63.6949 70.0886 64.8299 70.2394 65.9226 70.2394C67.7365 70.2394 69.5505 70.2394 71.3644 70.2394C72.4111 70.2394 74.7141 70.4611 72.2042 70.0387C70.2802 69.715 64.4415 69.3364 66.3928 69.3364C69.6666 69.3364 70.3567 68.2728 70.3567 65.1226" stroke="#FF0000" stroke-width="2" stroke-linecap="round"/>
<path d="M70.3564 65.1228V64.8218" stroke="#FF0000" stroke-width="2" stroke-linecap="round"/>
<path d="M70.0543 61.5109C70.6755 63.057 71.4085 66.3433 73.3127 67.029C74.4702 67.4459 71.6458 65.0857 71.3979 63.8854C71.1559 62.7135 72.8473 63.637 73.1447 63.785C73.4046 63.9144 73.3978 63.2641 73.5142 62.9991C73.6745 62.6345 74.0834 61.6809 73.5478 62.4807C73.1103 63.1341 72.3486 65.3602 72.4897 64.5877C72.664 63.6331 72.9572 62.67 73.0775 61.7116C73.2751 60.138 72.7361 64.8757 72.792 66.4605C72.8123 67.0359 72.8601 70.124 73.5814 68.534C74.1119 67.3646 74.8442 66.3019 75.3618 65.1228C75.7206 64.3052 76.1401 61.79 76.3863 62.648C77.0149 64.8384 76.7047 67.4283 77.1757 69.6878C77.2394 69.9932 78.217 72.6592 78.217 71.9117C78.217 71.2332 78.1538 65.5408 77.6292 65.5408C77.5774 65.5408 77.6381 68.6619 77.6124 68.9687C77.5697 69.4785 77.6424 67.03 77.9147 67.4638C78.4796 68.3635 80.1903 73.0367 79.0904 69.3868C78.6197 67.8248 76.4898 63.4084 77.0077 64.9555C77.6338 66.8255 78.3482 68.9511 79.4096 70.6242C79.8484 71.3159 79.481 70.4968 79.3928 70.3399C78.664 69.0442 77.7469 67.9244 76.6046 66.9621C76.1479 66.5774 74.7095 65.1042 74.2868 66.2264C73.6796 67.8384 73.3255 70.3655 74.1357 71.9786C74.8621 73.4251 74.2868 65.5122 74.2868 67.1293C74.2868 69.1625 74.3484 71.2732 74.6563 73.2829C74.9718 75.3416 74.8915 70.8352 74.8915 70.7412C74.8915 70.1887 75.3885 63.6328 74.6563 63.4506C74.4164 63.3909 74.5892 63.9401 74.5892 64.1864C74.5892 65.3569 74.5892 66.5274 74.5892 67.6979C74.5892 68.0267 74.5892 67.0402 74.5892 66.7113C74.5892 65.4516 74.5892 64.1919 74.5892 62.9322C74.5892 62.1402 75.0136 60.831 73.9173 60.9089C72.3096 61.0233 71.5143 63.1838 71.146 64.4873C70.4144 67.077 71.4604 62.5819 71.5659 61.9457C71.7128 61.0596 71.3846 58.523 71.885 59.2702C72.3481 59.9618 71.4145 61.9921 71.3308 62.8152C71.2181 63.9232 71.5659 65.0117 71.5659 66.1261C71.5659 66.8686 70.3344 65.2856 69.752 64.8218" stroke="#FF0000" stroke-width="2" stroke-linecap="round"/>
<path d="M64.6128 68.4337C66.826 69.6109 69.14 70.5316 71.3983 71.6108C71.5478 71.6823 70.6715 71.4527 70.4241 71.4436C68.9766 71.3902 71.9757 72.0062 72.3053 72.0289C76.5329 72.3191 71.0905 71.6716 71.2471 70.6577C71.7455 67.4328 70.8524 63.9535 70.9784 60.6916C71.0167 59.7012 71.2639 56.7408 71.2639 57.7319C71.2639 58.57 70.9997 59.9473 71.4151 60.6916C71.5077 60.8576 71.8686 59.6668 71.8686 59.4041" stroke="#FF0000" stroke-width="2" stroke-linecap="round"/>
<path d="M80.6357 66.6279C78.2762 64.4631 75.2859 61.0278 72.9097 64.0695C71.9303 65.3231 71.2637 67.1278 71.2637 68.7348C71.2637 70.4547 72.3341 72.1052 73.8166 72.9486C75.4847 73.8976 76.475 73.8516 78.5195 73.8516C80.6501 73.8516 83.2868 73.2363 84.8683 71.7447C85.5394 71.1117 86.5406 67.9598 85.6241 67.2299C85.2939 66.9669 85.2499 66.199 84.7003 66.0426C84.2042 65.9015 82.8765 65.6435 82.5169 65.357C82.0085 64.9522 81.1445 65.1229 80.4846 65.1229C78.7296 65.1229 76.98 64.822 75.1939 64.822" stroke="black" stroke-width="2" stroke-linecap="round"/>
<path d="M86.0774 68.1328C89.2127 68.2054 89.1006 69.2275 89.1006 71.7447C89.1006 75.3581 83.6231 73.6442 81.5425 73.2496" stroke="black" stroke-width="2" stroke-linecap="round"/>
<path d="M73.0777 63.317C71.8968 61.9313 66.0393 59.3369 65.8219 63.016C65.7689 63.9142 65.0277 65.5738 65.9731 66.3269C67.5469 67.5803 68.4419 67.8318 70.3568 67.8318" stroke="black" stroke-width="2" stroke-linecap="round"/>
<path d="M64.6128 72.3467C66.0651 72.8094 67.6342 72.6477 69.1477 72.6477C70.4322 72.6477 71.4472 72.9487 72.7756 72.9487" stroke="black" stroke-width="2" stroke-linecap="round"/>
<path d="M73.0776 72.9491C73.8692 75.8649 74.7649 77.3029 76.9407 79.0358C78.5514 80.3187 81.2272 80.5964 83.2391 81.1427C86.2148 81.9507 91.5195 83.6844 94.845 82.2129C95.9022 81.7451 96.4867 81.6821 97.3308 80.8417C98.3636 79.8135 98.3856 78.5358 99.0776 77.3302C100.011 75.7045 100.589 74.4947 100.589 72.4976C100.589 70.6335 101.013 68.5611 99.7494 67.1635C95.7552 62.745 88.9317 63.3737 83.659 65.1234" stroke="black" stroke-width="2" stroke-linecap="round"/>
<path d="M79.1241 63.9191C79.9271 60.6072 79.1953 56.1379 76.1009 54.3543C74.8472 53.6317 73.3092 53.0835 71.8683 53.0835C70.3977 53.0835 68.9363 53.6855 67.4846 53.6855C62.3175 53.6855 61.2869 60.0226 61.2869 63.9191C61.2869 66.1925 61.4621 68.376 62.5634 70.2398C63.1927 71.3049 64.6727 71.7448 65.8218 71.7448C67.4932 71.7448 70.827 72.0458 70.827 72.0458C70.827 72.0458 69.412 71.7448 68.6939 71.7448C65.7495 71.7448 62.6861 69.6221 61.8748 66.7952C61.5821 65.7754 60.94 64.8479 60.6991 63.7686C60.4448 62.6294 60.6823 61.1752 60.6823 60.0062" stroke="black" stroke-width="2" stroke-linecap="round"/>
<path d="M16.4423 24.6973C16.3709 27.9135 16.3033 31.1297 16.2397 34.3461" stroke="black" stroke-width="2" stroke-linecap="round"/>
<path d="M17.4512 29.9238H22.4989" stroke="black" stroke-width="2" stroke-linecap="round"/>
<path d="M23.5083 25.0996C23.8206 28.0822 23.7109 31.1034 23.7109 34.1007C23.7109 34.6611 23.8247 35.2826 23.5083 35.7535" stroke="black" stroke-width="2" stroke-linecap="round"/>
<path d="M24.5181 31.3314C25.8363 33.0583 29.0191 34.2192 30.8782 32.7385C31.4131 32.3125 31.1944 31.6195 30.9343 31.1304C30.5741 30.453 29.7628 30.5273 29.061 30.5273C25.8669 30.5273 25.9172 33.9569 26.1782 36.4685C26.2419 37.0817 26.464 38.7208 27.1429 39.0147C28.1722 39.4602 29.8769 38.9463 30.9455 38.769C32.3675 38.5331 32.7964 38.3617 32.7964 36.9599" stroke="black" stroke-width="2" stroke-linecap="round"/>
<path d="M44.9106 25.9038C45.0052 29.3875 45.1132 39.8416 45.1132 36.3567" stroke="black" stroke-width="2" stroke-linecap="round"/>
<path d="M40.0649 26.9087C40.0794 30.3946 40.2675 33.8781 40.2675 37.3616" stroke="black" stroke-width="2" stroke-linecap="round"/>
<path d="M53.3908 30.125C51.6235 31.0866 49.9057 33.5951 50.3621 35.7535C50.4484 36.1617 50.928 36.5302 51.3268 36.5575C52.3005 36.6244 53.1997 36.3403 54.1535 36.2002C55.21 36.045 58.6721 35.523 57.8776 33.7433C57.4303 32.7413 57.2287 32.0242 56.2175 31.5768C55.6125 31.3091 54.4574 31.5321 53.7946 31.5321" stroke="black" stroke-width="2" stroke-linecap="round"/>
<path d="M68.5342 30.3262C69.6907 32.0302 71.047 33.6987 73.0996 32.3363C73.5632 32.0286 74.0963 31.6224 74.5915 31.3759C74.9725 31.1862 75.7059 30.8041 76.1282 30.7394C78.0881 30.4392 79.0405 32.7384 80.6487 32.7384" stroke="black" stroke-width="2" stroke-linecap="round"/>
<path d="M81.4124 140.869C78.4901 139.068 76.5472 136.408 75.1692 133.286C73.3796 129.231 70.494 118.555 74.0039 114.722C77.0372 111.41 84.8078 117.705 86.3236 120.151C86.8161 120.945 88.2113 126.257 90.1527 125.496C92.2242 124.683 93.3319 121.722 95.3137 120.565C96.7823 119.708 101.047 119.833 101.39 122.14C102.018 126.358 98.9515 131.082 96.1461 133.825C91.5596 138.309 87.8143 138.872 82.1615 140.123" stroke="#F92D2D" stroke-width="3" stroke-linecap="round"/>
<path d="M67.9272 131.918C71.76 131.766 75.3867 131.029 79.1648 130.427" stroke="#F92D2D" stroke-width="3" stroke-linecap="round"/>
<path d="M64.9307 126.697C68.5274 125.595 71.711 125.206 75.4191 125.206" stroke="#F92D2D" stroke-width="3" stroke-linecap="round"/>
<path d="M94.1479 131.173C96.6422 132.592 97.9842 135.549 99.3922 137.886" stroke="#F92D2D" stroke-width="3" stroke-linecap="round"/>
<path d="M88.9038 134.902C90.0812 137.211 91.32 139.408 92.6497 141.615" stroke="#F92D2D" stroke-width="3" stroke-linecap="round"/>
<path d="M43.2046 122.968C38.5145 130.416 34.0031 137.897 32.5496 146.711C32.3082 148.175 31.8639 150.752 33.0491 152.056C34.5352 153.692 36.1783 157.136 37.9603 158.023" stroke="#131314" stroke-width="3" stroke-linecap="round"/>
<path d="M51.4453 131.918C54.29 132.114 56.9482 133.184 59.8111 133.286C64.6154 133.457 69.3455 132.192 74.1286 131.96C80.1865 131.666 81.7739 137.065 77.4583 141.615C71.5343 147.859 61.5536 145.821 55.2744 141.2C52.5363 139.185 53.1071 137.336 52.1945 134.156" stroke="#131314" stroke-width="3" stroke-linecap="round"/>
<path d="M90.4023 138.631C90.6213 139.721 91.7778 141.927 92.6499 142.361" stroke="#131314" stroke-width="3" stroke-linecap="round"/>
<path d="M97.1446 136.394C97.1446 142.404 99.4743 151.063 94.1479 155.04" stroke="#131314" stroke-width="3" stroke-linecap="round"/>
<path d="M79.9142 143.852C79.4986 148.311 79.7214 152.296 76.9175 155.786" stroke="#131314" stroke-width="3" stroke-linecap="round"/>
<path d="M43.9536 126.697C43.6376 129.005 42.2987 135.84 42.9963 133.617C43.2271 132.882 43.6041 130.896 44.3698 132.582C45.0837 134.153 44.9675 133.608 45.5352 131.67C47.1796 126.057 47.1671 130.949 46.0762 133.576C44.5128 137.342 42.7579 136.955 39.625 138.383C38.0929 139.081 37.3731 144.69 38.1267 143.189C38.589 142.269 38.1294 140.845 38.8759 140.04C39.1731 139.719 42.0289 139.132 42.1223 139.667C42.4286 141.421 41.2706 144.761 40.0412 146.007C39.0753 146.986 37.5385 145.499 37.9186 144.515C37.9658 144.393 41.0885 143.044 41.1234 143.024C44.1636 141.265 44.9123 143.128 45.119 146.173C45.2764 148.493 44.7221 145.679 44.9109 145.178C45.2633 144.243 46.7593 149.865 46.867 150.026C47.4934 150.962 47.2541 146.802 48.3654 147.001C49.8241 147.263 52.9088 152.531 50.6129 152.968C47.3025 153.599 49.1491 151.004 49.3643 150.399C51.2167 145.192 54.5472 148.608 52.0696 149.281C51.8855 149.331 54.0415 149.485 54.3588 149.571C56.6257 150.184 57.9427 151.614 59.9359 152.471C61.118 152.979 62.6428 152.803 63.8899 152.803C65.702 152.803 63.2656 151.029 63.2656 149.736C63.2656 146.233 70.0878 144.269 71.3816 147.582C71.5884 148.111 72.5856 149.049 72.4222 149.653C72.0942 150.866 70.5084 149.861 71.8395 151.228C72.1327 151.529 73.6744 152.931 72.5054 153.341C71.5285 153.685 68.4294 152.644 69.4255 152.927C69.9044 153.063 71.7811 153.76 70.6741 154.626C66.9769 157.518 59.6409 155.741 55.6074 154.792C53.4802 154.291 52.3533 153.867 54.8582 153.921C56.2747 153.952 60.5122 153.865 59.1035 153.714C55.882 153.369 52.3341 153.31 49.1146 153.673C45.9487 154.03 50.2146 155.539 49.6972 155.579C46.6455 155.813 43.4949 154.769 40.4574 154.626C36.3498 154.433 41.2147 158.274 42.6217 158.935C42.6523 158.95 40.0834 154.171 40.0829 154.17C37.9088 150.082 39.4562 152.763 40.6239 152.098C41.1238 151.814 37.4741 138.447 39.1672 144.515C40.3745 148.843 32.3979 143.803 35.13 146.67C38.6266 150.339 36.3734 146.864 37.4191 145.303C38.3826 143.864 44.2617 151.637 43.7871 146.007C43.5844 143.602 38.7195 125.164 46.7838 131.587C48.9216 133.29 49.3853 135.917 51.154 137.678C51.9232 138.444 51.2763 135.509 51.4869 134.446C52.0279 131.718 52.6463 129.677 54.8582 127.775C57.0416 125.898 60.623 125.195 63.2656 126.532C65.1249 127.472 59.0721 127.764 59.1035 127.858C59.4842 128.995 63.525 129.692 62.3499 129.432C61.9624 129.347 59.0692 128.272 59.9359 128.272C63.3395 128.272 66.4183 121.317 63.0159 121.228C61.0131 121.175 48.0644 121.76 47.2416 123.217C46.3227 124.843 53.4324 128.365 51.7783 129.267C45.4561 132.713 46.7628 139.411 50.1135 144.847C50.8146 145.984 51.8224 147.093 49.6972 145.841C48.5504 145.166 45.3116 143.775 46.5757 143.355C47.6507 142.998 51.6832 145.074 52.7772 145.51C57.981 147.582 64.4602 153.039 70.5909 151.725C71.5397 151.522 78.2551 150.106 77.0837 148.99C75.5435 147.524 72.4376 150.277 75.2108 148.659C79.7598 146.004 75.64 147.232 75.4189 149.653C75.1853 152.211 75.3345 154.906 74.0038 157.236C73.6855 157.794 68.4989 161.291 68.8428 158.894C69.0837 157.215 71.4619 156.005 72.1724 154.543C73.1008 152.633 67.9204 153.707 65.8045 153.963C61.9477 154.429 58.1392 154.728 54.2755 155.04C49.5534 155.421 54.9107 156.611 53.8593 158.355C53.1621 159.512 49.5423 159.122 48.4486 158.811C44.396 157.658 56.906 158.611 61.0597 157.899C62.0864 157.723 67.526 157.172 65.0137 154.709C63.9931 153.708 63.1997 152.393 61.9337 151.725C57.9022 149.6 47.0056 145.892 50.9459 143.604C54.0727 141.788 61.4964 147.222 64.5975 148.162C65.5187 148.441 71.569 150.204 67.4277 149.156C62.1526 147.821 51.3109 146.176 48.2405 140.993C47.1187 139.099 46.9503 136.715 46.9503 134.57C46.9503 131.836 49.0653 140.318 49.1978 140.703C49.769 142.363 50.9931 143.869 51.5286 145.468C51.6528 145.839 49.398 144.561 49.5724 144.474C50.3921 144.066 54.7882 147.368 55.0247 148.493C56.937 157.589 42.3381 150.994 39.2504 148.866C36.2824 146.82 42.8378 155.338 45.7017 157.526C46.8547 158.407 38.7175 156.254 37.2526 155.496C34.7486 154.2 37.0345 144.101 37.544 142.195C39.5197 134.804 43.1922 129.239 50.6129 126.946C51.7666 126.59 61.0956 123.358 58.4792 124.584C55.1262 126.155 47.322 127.308 54.109 130.095C60.2931 132.635 58.4132 130.116 63.4321 125.952" stroke="#2F84F4" stroke-width="3" stroke-linecap="round"/>
<path d="M31.9665 147.582C29.8264 146.897 27.3759 145.87 25.0991 145.924C22.9968 145.974 15.6346 148.794 16.9414 151.974C18.2204 155.087 25.9755 156.682 28.9698 157.278" stroke="#141515" stroke-width="3" stroke-linecap="round"/>
<path d="M76.168 117.747H76.9171" stroke="#FF2020" stroke-width="3" stroke-linecap="round"/>
<path d="M79.9141 122.968C80.6043 123.054 80.4102 123.21 80.6632 123.714" stroke="#FF2020" stroke-width="3" stroke-linecap="round"/>
<path d="M74.6699 119.985C74.888 120.685 76.4173 125.633 76.8342 126.863C77.4421 128.658 76.8982 126.627 77.1255 126.325C77.7661 125.474 79.7871 129.31 77.9996 125.537C77.32 124.103 78.4522 123.872 78.832 121.435C79.7396 115.612 81.4167 120.011 80.7465 120.648C78.9797 122.327 80.7061 124.377 82.5779 124.377C83.3128 124.377 85.3008 126.828 84.3259 128.77C84.0371 129.345 81.582 125.958 80.7465 130.013C80.2441 132.451 80.0772 131.8 80.1639 131.836C81.5947 132.433 83.8769 135.317 85.1583 135.317C86.4473 135.317 88.0516 133.453 88.7377 132.665C91.0408 130.019 89.0486 131.271 87.7388 131.422C85.7305 131.652 83.0269 126.924 82.2449 125.579C81.4205 124.161 83.2642 128.694 83.7432 130.261C84.3738 132.324 84.3861 133.235 86.074 131.794C88.5482 129.683 91.1098 130.253 93.7322 128.687C94.7549 128.076 98.0041 124.74 94.6895 125.247C93.7958 125.384 98.6428 122.706 98.1024 125.289C97.5236 128.055 89.8221 133.371 91.6512 129.308C94.2532 123.529 85.5204 131.138 84.4924 126.532C83.0527 120.082 90.186 127.873 83.2438 122.181C81.4381 120.701 78.5819 116.841 78.2493 120.897C77.9763 124.226 77.5152 128.11 80.372 130.427C82.814 132.408 87.5345 138.478 90.9852 135.234C91.7178 134.545 92.2534 133.17 90.9852 132.665C88.514 131.68 85.2352 135.728 83.66 137.14" stroke="#FF2020" stroke-width="3" stroke-linecap="round"/>
<path d="M2 137.139C7.84142 137.285 13.5947 139.046 19.3975 139.046C24.6364 139.046 29.9835 137.81 34.9636 136.394" stroke="#FF2020" stroke-width="3" stroke-linecap="round"/>
<path d="M99.3926 140.123H106.135" stroke="#FF2020" stroke-width="3" stroke-linecap="round"/>
<path d="M4.24742 140.869C5.25921 144.898 5.66958 140.941 4.2058 147.499C4.15243 147.738 3.43471 146.214 4.41391 150.151C5.91161 156.173 7.30697 147.899 7.66032 146.422C9.19147 140.019 9.4084 147.63 9.4084 149.695C9.4084 151.019 8.41556 144.626 8.15977 145.925C7.63225 148.603 6.85598 149.158 7.74357 146.38C8.24855 144.8 10.3314 148.004 10.9067 148.576C11.4717 149.139 10.558 148.043 10.5738 147.416C10.6008 146.34 11.854 145.691 11.4062 144.889C10.3845 143.058 29.0631 142.478 30.5517 141.781C31.6074 141.286 28.2195 141.695 27.0556 141.615C24.0471 141.409 29.5496 138.997 30.302 138.797C33.2116 138.025 36.8619 142.989 34.9635 143.107C32.6324 143.252 30.0296 142.361 27.5967 142.361C24.4751 142.361 21.3535 142.361 18.232 142.361C14.3424 142.361 12.3013 143.763 8.07653 142.692C7.28129 142.491 10.909 144.603 10.4073 143.604C10.1632 143.118 6.05195 142.481 7.07763 141.284C8.34658 139.802 14.1207 141.127 12.7381 139.75C10.8634 137.884 17.7964 141.527 19.9801 143.024C21.2903 143.922 16.6918 144.133 16.2758 145.22C15.4758 147.311 10.2462 152.412 12.1554 154.129C16.1008 157.677 12.5339 152.448 11.9889 155.704C11.9178 156.128 9.32479 155.452 10.8235 155.911C13.0294 156.587 15.4136 157.182 17.7325 157.278C22.937 157.494 16.4801 157.035 14.2364 155.952C11.9004 154.825 12.8916 142.636 15.1521 151.228C15.6088 152.965 16.1506 154.41 17.7325 155.372C18.062 155.573 20.7938 156.638 19.5639 156.201C14.5704 154.425 9.51499 155.381 7.45222 149.322C6.98222 147.942 7.15537 135.694 5.37118 141.615C3.58408 147.546 4.56562 137.508 3.74798 139.543C1.86705 144.225 1.56794 146.504 4.16418 150.565C5.94264 153.348 6.33552 155.192 9.49164 157.112C11.0058 158.034 5.53564 157.416 4.24742 156.201C3.01272 155.036 3.37034 151.954 3.58149 150.483C4.36182 145.044 9.85374 143.853 14.5694 143.853C19.559 143.853 24.9546 141.955 29.7193 143.853" stroke="#FF2020" stroke-width="3" stroke-linecap="round"/>
<path d="M100.891 143.106C100.891 144.579 99.7753 153.06 100.641 153.921C102.416 155.689 101.698 149.019 102.555 146.67C103.34 144.522 104.184 147.638 104.595 148.286C105.484 149.688 105.731 144.028 105.219 143.935C104.591 143.822 103.445 145.817 102.555 144.267C101.663 142.711 104.012 147.618 104.137 149.405C104.246 150.967 105.087 156.449 102.389 156.449C100.721 156.449 101.239 156.032 101.473 155.04C101.707 154.051 98.9772 154.344 98.4766 154.253C97.956 154.159 98.651 153.036 98.4766 153.631C97.6755 156.366 98.3709 158.69 101.307 156.283C103.428 154.544 103.748 149.462 103.887 146.836C104.046 143.836 102.555 153.238 100.141 155.04" stroke="#FF2020" stroke-width="3" stroke-linecap="round"/>
<path d="M75.4189 156.532C79.1768 156.532 82.9575 156.993 86.6565 157.651C90.5806 158.348 92.1535 156.431 95.6466 155.04" stroke="#222222" stroke-width="3" stroke-linecap="round"/>
</svg>
