<svg width="105" height="160" viewBox="0 0 105 160" fill="none" xmlns="http://www.w3.org/2000/svg">
<rect width="105" height="160" rx="5.0392" fill="#FFCAE9"/>
<path d="M24.7907 38.7592C25.0307 38.7592 25.2467 38.8178 25.4387 38.9352C25.636 39.0525 25.7907 39.2098 25.9027 39.4072C26.02 39.5992 26.0787 39.8152 26.0787 40.0552C26.0787 40.2898 26.02 40.5058 25.9027 40.7032C25.7907 40.9005 25.636 41.0578 25.4387 41.1752C25.2467 41.2925 25.028 41.3512 24.7827 41.3512C24.548 41.3512 24.332 41.2925 24.1347 41.1752C23.9374 41.0578 23.78 40.9005 23.6627 40.7032C23.5507 40.5058 23.4947 40.2898 23.4947 40.0552C23.4947 39.8152 23.5507 39.5992 23.6627 39.4072C23.78 39.2098 23.9374 39.0525 24.1347 38.9352C24.332 38.8178 24.5507 38.7592 24.7907 38.7592ZM24.7907 40.7752C24.988 40.7752 25.156 40.7058 25.2947 40.5672C25.4334 40.4232 25.5027 40.2525 25.5027 40.0552C25.5027 39.9218 25.4707 39.8018 25.4067 39.6952C25.3427 39.5832 25.2547 39.4952 25.1427 39.4312C25.036 39.3672 24.9187 39.3352 24.7907 39.3352C24.6574 39.3352 24.5374 39.3672 24.4307 39.4312C24.324 39.4952 24.236 39.5832 24.1667 39.6952C24.1027 39.8018 24.0707 39.9218 24.0707 40.0552C24.0707 40.1885 24.1027 40.3112 24.1667 40.4232C24.236 40.5298 24.324 40.6152 24.4307 40.6792C24.5374 40.7432 24.6574 40.7752 24.7907 40.7752ZM27.6627 34.9432C27.6627 35.0765 27.6974 35.1938 27.7667 35.2952C27.8414 35.3965 27.932 35.4472 28.0387 35.4472C28.14 35.4472 28.228 35.3992 28.3027 35.3032C28.3774 35.2018 28.4147 35.0818 28.4147 34.9432C28.4147 34.8045 28.3774 34.6845 28.3027 34.5832C28.228 34.4818 28.14 34.4312 28.0387 34.4312C27.932 34.4312 27.8414 34.4818 27.7667 34.5832C27.6974 34.6845 27.6627 34.8045 27.6627 34.9432ZM27.2467 34.9432C27.2467 34.7512 27.2814 34.5778 27.3507 34.4232C27.42 34.2632 27.516 34.1378 27.6387 34.0472C27.7614 33.9512 27.8947 33.9032 28.0387 33.9032C28.188 33.9032 28.3214 33.9512 28.4387 34.0472C28.5614 34.1378 28.6574 34.2632 28.7267 34.4232C28.8014 34.5778 28.8387 34.7512 28.8387 34.9432C28.8387 35.1352 28.8014 35.3112 28.7267 35.4712C28.6574 35.6258 28.5614 35.7512 28.4387 35.8472C28.3214 35.9378 28.188 35.9832 28.0387 35.9832C27.8947 35.9832 27.7614 35.9378 27.6387 35.8472C27.516 35.7512 27.42 35.6232 27.3507 35.4632C27.2814 35.3032 27.2467 35.1298 27.2467 34.9432ZM31.4627 34.9432C31.4627 35.0765 31.4974 35.1938 31.5667 35.2952C31.6414 35.3965 31.732 35.4472 31.8387 35.4472C31.94 35.4472 32.028 35.3992 32.1027 35.3032C32.1774 35.2018 32.2147 35.0818 32.2147 34.9432C32.2147 34.8045 32.1774 34.6845 32.1027 34.5832C32.028 34.4818 31.94 34.4312 31.8387 34.4312C31.732 34.4312 31.6414 34.4818 31.5667 34.5832C31.4974 34.6845 31.4627 34.8045 31.4627 34.9432ZM31.0467 34.9432C31.0467 34.7512 31.0814 34.5778 31.1507 34.4232C31.22 34.2632 31.316 34.1378 31.4387 34.0472C31.5614 33.9512 31.6947 33.9032 31.8387 33.9032C31.988 33.9032 32.1214 33.9512 32.2387 34.0472C32.3614 34.1378 32.4574 34.2632 32.5267 34.4232C32.6014 34.5778 32.6387 34.7512 32.6387 34.9432C32.6387 35.1352 32.6014 35.3112 32.5267 35.4712C32.4574 35.6258 32.3614 35.7512 32.2387 35.8472C32.1214 35.9378 31.988 35.9832 31.8387 35.9832C31.6947 35.9832 31.5614 35.9378 31.4387 35.8472C31.316 35.7512 31.22 35.6232 31.1507 35.4632C31.0814 35.3032 31.0467 35.1298 31.0467 34.9432ZM36.6707 36.9272C36.884 36.9272 37.0654 37.0045 37.2147 37.1592C37.3694 37.3085 37.4467 37.4898 37.4467 37.7032C37.4467 37.9165 37.3694 38.1005 37.2147 38.2552C37.0654 38.4045 36.884 38.4792 36.6707 38.4792C36.452 38.4792 36.2654 38.4045 36.1107 38.2552C35.9614 38.1005 35.8867 37.9165 35.8867 37.7032C35.8867 37.4845 35.9614 37.3005 36.1107 37.1512C36.2654 37.0018 36.452 36.9272 36.6707 36.9272ZM39.9907 38.7592C40.2307 38.7592 40.4467 38.8178 40.6387 38.9352C40.836 39.0525 40.9907 39.2098 41.1027 39.4072C41.22 39.5992 41.2787 39.8152 41.2787 40.0552C41.2787 40.2898 41.22 40.5058 41.1027 40.7032C40.9907 40.9005 40.836 41.0578 40.6387 41.1752C40.4467 41.2925 40.228 41.3512 39.9827 41.3512C39.748 41.3512 39.532 41.2925 39.3347 41.1752C39.1374 41.0578 38.98 40.9005 38.8627 40.7032C38.7507 40.5058 38.6947 40.2898 38.6947 40.0552C38.6947 39.8152 38.7507 39.5992 38.8627 39.4072C38.98 39.2098 39.1374 39.0525 39.3347 38.9352C39.532 38.8178 39.7507 38.7592 39.9907 38.7592ZM39.9907 40.7752C40.188 40.7752 40.356 40.7058 40.4947 40.5672C40.6334 40.4232 40.7027 40.2525 40.7027 40.0552C40.7027 39.9218 40.6707 39.8018 40.6067 39.6952C40.5427 39.5832 40.4547 39.4952 40.3427 39.4312C40.236 39.3672 40.1187 39.3352 39.9907 39.3352C39.8574 39.3352 39.7374 39.3672 39.6307 39.4312C39.524 39.4952 39.436 39.5832 39.3667 39.6952C39.3027 39.8018 39.2707 39.9218 39.2707 40.0552C39.2707 40.1885 39.3027 40.3112 39.3667 40.4232C39.436 40.5298 39.524 40.6152 39.6307 40.6792C39.7374 40.7432 39.8574 40.7752 39.9907 40.7752ZM44.2707 36.9272C44.484 36.9272 44.6654 37.0045 44.8147 37.1592C44.9694 37.3085 45.0467 37.4898 45.0467 37.7032C45.0467 37.9165 44.9694 38.1005 44.8147 38.2552C44.6654 38.4045 44.484 38.4792 44.2707 38.4792C44.052 38.4792 43.8654 38.4045 43.7107 38.2552C43.5614 38.1005 43.4867 37.9165 43.4867 37.7032C43.4867 37.4845 43.5614 37.3005 43.7107 37.1512C43.8654 37.0018 44.052 36.9272 44.2707 36.9272ZM46.6627 34.9432C46.6627 35.0765 46.6974 35.1938 46.7667 35.2952C46.8414 35.3965 46.932 35.4472 47.0387 35.4472C47.14 35.4472 47.228 35.3992 47.3027 35.3032C47.3774 35.2018 47.4147 35.0818 47.4147 34.9432C47.4147 34.8045 47.3774 34.6845 47.3027 34.5832C47.228 34.4818 47.14 34.4312 47.0387 34.4312C46.932 34.4312 46.8414 34.4818 46.7667 34.5832C46.6974 34.6845 46.6627 34.8045 46.6627 34.9432ZM46.2467 34.9432C46.2467 34.7512 46.2814 34.5778 46.3507 34.4232C46.42 34.2632 46.516 34.1378 46.6387 34.0472C46.7614 33.9512 46.8947 33.9032 47.0387 33.9032C47.188 33.9032 47.3214 33.9512 47.4387 34.0472C47.5614 34.1378 47.6574 34.2632 47.7267 34.4232C47.8014 34.5778 47.8387 34.7512 47.8387 34.9432C47.8387 35.1352 47.8014 35.3112 47.7267 35.4712C47.6574 35.6258 47.5614 35.7512 47.4387 35.8472C47.3214 35.9378 47.188 35.9832 47.0387 35.9832C46.8947 35.9832 46.7614 35.9378 46.6387 35.8472C46.516 35.7512 46.42 35.6232 46.3507 35.4632C46.2814 35.3032 46.2467 35.1298 46.2467 34.9432ZM50.4627 34.9432C50.4627 35.0765 50.4974 35.1938 50.5667 35.2952C50.6414 35.3965 50.732 35.4472 50.8387 35.4472C50.94 35.4472 51.028 35.3992 51.1027 35.3032C51.1774 35.2018 51.2147 35.0818 51.2147 34.9432C51.2147 34.8045 51.1774 34.6845 51.1027 34.5832C51.028 34.4818 50.94 34.4312 50.8387 34.4312C50.732 34.4312 50.6414 34.4818 50.5667 34.5832C50.4974 34.6845 50.4627 34.8045 50.4627 34.9432ZM50.0467 34.9432C50.0467 34.7512 50.0814 34.5778 50.1507 34.4232C50.22 34.2632 50.316 34.1378 50.4387 34.0472C50.5614 33.9512 50.6947 33.9032 50.8387 33.9032C50.988 33.9032 51.1214 33.9512 51.2387 34.0472C51.3614 34.1378 51.4574 34.2632 51.5267 34.4232C51.6014 34.5778 51.6387 34.7512 51.6387 34.9432C51.6387 35.1352 51.6014 35.3112 51.5267 35.4712C51.4574 35.6258 51.3614 35.7512 51.2387 35.8472C51.1214 35.9378 50.988 35.9832 50.8387 35.9832C50.6947 35.9832 50.5614 35.9378 50.4387 35.8472C50.316 35.7512 50.22 35.6232 50.1507 35.4632C50.0814 35.3032 50.0467 35.1298 50.0467 34.9432ZM55.1907 38.7592C55.4307 38.7592 55.6467 38.8178 55.8387 38.9352C56.036 39.0525 56.1907 39.2098 56.3027 39.4072C56.42 39.5992 56.4787 39.8152 56.4787 40.0552C56.4787 40.2898 56.42 40.5058 56.3027 40.7032C56.1907 40.9005 56.036 41.0578 55.8387 41.1752C55.6467 41.2925 55.428 41.3512 55.1827 41.3512C54.948 41.3512 54.732 41.2925 54.5347 41.1752C54.3374 41.0578 54.18 40.9005 54.0627 40.7032C53.9507 40.5058 53.8947 40.2898 53.8947 40.0552C53.8947 39.8152 53.9507 39.5992 54.0627 39.4072C54.18 39.2098 54.3374 39.0525 54.5347 38.9352C54.732 38.8178 54.9507 38.7592 55.1907 38.7592ZM55.1907 40.7752C55.388 40.7752 55.556 40.7058 55.6947 40.5672C55.8334 40.4232 55.9027 40.2525 55.9027 40.0552C55.9027 39.9218 55.8707 39.8018 55.8067 39.6952C55.7427 39.5832 55.6547 39.4952 55.5427 39.4312C55.436 39.3672 55.3187 39.3352 55.1907 39.3352C55.0574 39.3352 54.9374 39.3672 54.8307 39.4312C54.724 39.4952 54.636 39.5832 54.5667 39.6952C54.5027 39.8018 54.4707 39.9218 54.4707 40.0552C54.4707 40.1885 54.5027 40.3112 54.5667 40.4232C54.636 40.5298 54.724 40.6152 54.8307 40.6792C54.9374 40.7432 55.0574 40.7752 55.1907 40.7752ZM23.8627 45.9432C23.8627 46.0765 23.8974 46.1938 23.9667 46.2952C24.0414 46.3965 24.132 46.4472 24.2387 46.4472C24.34 46.4472 24.428 46.3992 24.5027 46.3032C24.5774 46.2018 24.6147 46.0818 24.6147 45.9432C24.6147 45.8045 24.5774 45.6845 24.5027 45.5832C24.428 45.4818 24.34 45.4312 24.2387 45.4312C24.132 45.4312 24.0414 45.4818 23.9667 45.5832C23.8974 45.6845 23.8627 45.8045 23.8627 45.9432ZM23.4467 45.9432C23.4467 45.7512 23.4814 45.5778 23.5507 45.4232C23.62 45.2632 23.716 45.1378 23.8387 45.0472C23.9614 44.9512 24.0947 44.9032 24.2387 44.9032C24.388 44.9032 24.5214 44.9512 24.6387 45.0472C24.7614 45.1378 24.8574 45.2632 24.9267 45.4232C25.0014 45.5778 25.0387 45.7512 25.0387 45.9432C25.0387 46.1352 25.0014 46.3112 24.9267 46.4712C24.8574 46.6258 24.7614 46.7512 24.6387 46.8472C24.5214 46.9378 24.388 46.9832 24.2387 46.9832C24.0947 46.9832 23.9614 46.9378 23.8387 46.8472C23.716 46.7512 23.62 46.6232 23.5507 46.4632C23.4814 46.3032 23.4467 46.1298 23.4467 45.9432ZM28.852 52.3369C27.973 52.3369 27.3949 51.7588 27.391 50.876C27.3949 50.001 27.973 49.415 28.852 49.415C29.7309 49.415 30.3168 50.001 30.3207 50.876C30.3168 51.7588 29.7309 52.3369 28.852 52.3369ZM28.3051 50.876C28.3051 51.2041 28.5277 51.4268 28.852 51.4229C29.1762 51.4268 29.3988 51.2041 29.3988 50.876C29.3988 50.5557 29.1762 50.333 28.852 50.3291C28.5277 50.333 28.3051 50.5557 28.3051 50.876ZM42.3738 45.29V52.5166H41.1082V45.29H42.3738ZM36.0379 48.5166C36.8621 48.5244 37.7957 48.5166 38.7371 48.4775C38.8777 47.7705 38.9168 47.2119 38.9285 46.751H36.6004V45.7588H40.1785V46.2432C40.1746 46.7627 40.1746 47.4658 40.0145 48.3994C40.2684 48.3799 40.5184 48.3564 40.7645 48.3291L40.8582 49.251C40.2371 49.3408 39.6082 49.3994 38.991 49.4424V52.1494H37.7332V49.5049C37.1941 49.5244 36.6707 49.5283 36.1785 49.5322L36.0379 48.5166ZM51.447 49.7592C51.687 49.7592 51.903 49.8178 52.095 49.9352C52.2923 50.0525 52.447 50.2098 52.559 50.4072C52.6763 50.5992 52.735 50.8152 52.735 51.0552C52.735 51.2898 52.6763 51.5058 52.559 51.7032C52.447 51.9005 52.2923 52.0578 52.095 52.1752C51.903 52.2925 51.6843 52.3512 51.439 52.3512C51.2043 52.3512 50.9883 52.2925 50.791 52.1752C50.5936 52.0578 50.4363 51.9005 50.319 51.7032C50.207 51.5058 50.151 51.2898 50.151 51.0552C50.151 50.8152 50.207 50.5992 50.319 50.4072C50.4363 50.2098 50.5936 50.0525 50.791 49.9352C50.9883 49.8178 51.207 49.7592 51.447 49.7592ZM51.447 51.7752C51.6443 51.7752 51.8123 51.7058 51.951 51.5672C52.0896 51.4232 52.159 51.2525 52.159 51.0552C52.159 50.9218 52.127 50.8018 52.063 50.6952C51.999 50.5832 51.911 50.4952 51.799 50.4312C51.6923 50.3672 51.575 50.3352 51.447 50.3352C51.3136 50.3352 51.1936 50.3672 51.087 50.4312C50.9803 50.4952 50.8923 50.5832 50.823 50.6952C50.759 50.8018 50.727 50.9218 50.727 51.0552C50.727 51.1885 50.759 51.3112 50.823 51.4232C50.8923 51.5298 50.9803 51.6152 51.087 51.6792C51.1936 51.7432 51.3136 51.7752 51.447 51.7752ZM54.319 45.9432C54.319 46.0765 54.3536 46.1938 54.423 46.2952C54.4976 46.3965 54.5883 46.4472 54.695 46.4472C54.7963 46.4472 54.8843 46.3992 54.959 46.3032C55.0336 46.2018 55.071 46.0818 55.071 45.9432C55.071 45.8045 55.0336 45.6845 54.959 45.5832C54.8843 45.4818 54.7963 45.4312 54.695 45.4312C54.5883 45.4312 54.4976 45.4818 54.423 45.5832C54.3536 45.6845 54.319 45.8045 54.319 45.9432ZM53.903 45.9432C53.903 45.7512 53.9376 45.5778 54.007 45.4232C54.0763 45.2632 54.1723 45.1378 54.295 45.0472C54.4176 44.9512 54.551 44.9032 54.695 44.9032C54.8443 44.9032 54.9776 44.9512 55.095 45.0472C55.2176 45.1378 55.3136 45.2632 55.383 45.4232C55.4576 45.5778 55.495 45.7512 55.495 45.9432C55.495 46.1352 55.4576 46.3112 55.383 46.4712C55.3136 46.6258 55.2176 46.7512 55.095 46.8472C54.9776 46.9378 54.8443 46.9832 54.695 46.9832C54.551 46.9832 54.4176 46.9378 54.295 46.8472C54.1723 46.7512 54.0763 46.6232 54.007 46.4632C53.9376 46.3032 53.903 46.1298 53.903 45.9432ZM31.1627 56.9432C31.1627 57.0765 31.1974 57.1938 31.2667 57.2952C31.3414 57.3965 31.432 57.4472 31.5387 57.4472C31.64 57.4472 31.728 57.3992 31.8027 57.3032C31.8774 57.2018 31.9147 57.0818 31.9147 56.9432C31.9147 56.8045 31.8774 56.6845 31.8027 56.5832C31.728 56.4818 31.64 56.4312 31.5387 56.4312C31.432 56.4312 31.3414 56.4818 31.2667 56.5832C31.1974 56.6845 31.1627 56.8045 31.1627 56.9432ZM30.7467 56.9432C30.7467 56.7512 30.7814 56.5778 30.8507 56.4232C30.92 56.2632 31.016 56.1378 31.1387 56.0472C31.2614 55.9512 31.3947 55.9032 31.5387 55.9032C31.688 55.9032 31.8214 55.9512 31.9387 56.0472C32.0614 56.1378 32.1574 56.2632 32.2267 56.4232C32.3014 56.5778 32.3387 56.7512 32.3387 56.9432C32.3387 57.1352 32.3014 57.3112 32.2267 57.4712C32.1574 57.6258 32.0614 57.7512 31.9387 57.8472C31.8214 57.9378 31.688 57.9832 31.5387 57.9832C31.3947 57.9832 31.2614 57.9378 31.1387 57.8472C31.016 57.7512 30.92 57.6232 30.8507 57.4632C30.7814 57.3032 30.7467 57.1298 30.7467 56.9432ZM36.3707 58.9272C36.584 58.9272 36.7654 59.0045 36.9147 59.1592C37.0694 59.3085 37.1467 59.4898 37.1467 59.7032C37.1467 59.9165 37.0694 60.1005 36.9147 60.2552C36.7654 60.4045 36.584 60.4792 36.3707 60.4792C36.152 60.4792 35.9654 60.4045 35.8107 60.2552C35.6614 60.1005 35.5867 59.9165 35.5867 59.7032C35.5867 59.4845 35.6614 59.3005 35.8107 59.1512C35.9654 59.0018 36.152 58.9272 36.3707 58.9272ZM39.6907 60.7592C39.9307 60.7592 40.1467 60.8178 40.3387 60.9352C40.536 61.0525 40.6907 61.2098 40.8027 61.4072C40.92 61.5992 40.9787 61.8152 40.9787 62.0552C40.9787 62.2898 40.92 62.5058 40.8027 62.7032C40.6907 62.9005 40.536 63.0578 40.3387 63.1752C40.1467 63.2925 39.928 63.3512 39.6827 63.3512C39.448 63.3512 39.232 63.2925 39.0347 63.1752C38.8374 63.0578 38.68 62.9005 38.5627 62.7032C38.4507 62.5058 38.3947 62.2898 38.3947 62.0552C38.3947 61.8152 38.4507 61.5992 38.5627 61.4072C38.68 61.2098 38.8374 61.0525 39.0347 60.9352C39.232 60.8178 39.4507 60.7592 39.6907 60.7592ZM39.6907 62.7752C39.888 62.7752 40.056 62.7058 40.1947 62.5672C40.3334 62.4232 40.4027 62.2525 40.4027 62.0552C40.4027 61.9218 40.3707 61.8018 40.3067 61.6952C40.2427 61.5832 40.1547 61.4952 40.0427 61.4312C39.936 61.3672 39.8187 61.3352 39.6907 61.3352C39.5574 61.3352 39.4374 61.3672 39.3307 61.4312C39.224 61.4952 39.136 61.5832 39.0667 61.6952C39.0027 61.8018 38.9707 61.9218 38.9707 62.0552C38.9707 62.1885 39.0027 62.3112 39.0667 62.4232C39.136 62.5298 39.224 62.6152 39.3307 62.6792C39.4374 62.7432 39.5574 62.7752 39.6907 62.7752ZM43.9707 58.9272C44.184 58.9272 44.3654 59.0045 44.5147 59.1592C44.6694 59.3085 44.7467 59.4898 44.7467 59.7032C44.7467 59.9165 44.6694 60.1005 44.5147 60.2552C44.3654 60.4045 44.184 60.4792 43.9707 60.4792C43.752 60.4792 43.5654 60.4045 43.4107 60.2552C43.2614 60.1005 43.1867 59.9165 43.1867 59.7032C43.1867 59.4845 43.2614 59.3005 43.4107 59.1512C43.5654 59.0018 43.752 58.9272 43.9707 58.9272ZM46.3627 56.9432C46.3627 57.0765 46.3974 57.1938 46.4667 57.2952C46.5414 57.3965 46.632 57.4472 46.7387 57.4472C46.84 57.4472 46.928 57.3992 47.0027 57.3032C47.0774 57.2018 47.1147 57.0818 47.1147 56.9432C47.1147 56.8045 47.0774 56.6845 47.0027 56.5832C46.928 56.4818 46.84 56.4312 46.7387 56.4312C46.632 56.4312 46.5414 56.4818 46.4667 56.5832C46.3974 56.6845 46.3627 56.8045 46.3627 56.9432ZM45.9467 56.9432C45.9467 56.7512 45.9814 56.5778 46.0507 56.4232C46.12 56.2632 46.216 56.1378 46.3387 56.0472C46.4614 55.9512 46.5947 55.9032 46.7387 55.9032C46.888 55.9032 47.0214 55.9512 47.1387 56.0472C47.2614 56.1378 47.3574 56.2632 47.4267 56.4232C47.5014 56.5778 47.5387 56.7512 47.5387 56.9432C47.5387 57.1352 47.5014 57.3112 47.4267 57.4712C47.3574 57.6258 47.2614 57.7512 47.1387 57.8472C47.0214 57.9378 46.888 57.9832 46.7387 57.9832C46.5947 57.9832 46.4614 57.9378 46.3387 57.8472C46.216 57.7512 46.12 57.6232 46.0507 57.4632C45.9814 57.3032 45.9467 57.1298 45.9467 56.9432ZM24.7907 71.7592C25.0307 71.7592 25.2467 71.8178 25.4387 71.9352C25.636 72.0525 25.7907 72.2098 25.9027 72.4072C26.02 72.5992 26.0787 72.8152 26.0787 73.0552C26.0787 73.2898 26.02 73.5058 25.9027 73.7032C25.7907 73.9005 25.636 74.0578 25.4387 74.1752C25.2467 74.2925 25.028 74.3512 24.7827 74.3512C24.548 74.3512 24.332 74.2925 24.1347 74.1752C23.9374 74.0578 23.78 73.9005 23.6627 73.7032C23.5507 73.5058 23.4947 73.2898 23.4947 73.0552C23.4947 72.8152 23.5507 72.5992 23.6627 72.4072C23.78 72.2098 23.9374 72.0525 24.1347 71.9352C24.332 71.8178 24.5507 71.7592 24.7907 71.7592ZM24.7907 73.7752C24.988 73.7752 25.156 73.7058 25.2947 73.5672C25.4334 73.4232 25.5027 73.2525 25.5027 73.0552C25.5027 72.9218 25.4707 72.8018 25.4067 72.6952C25.3427 72.5832 25.2547 72.4952 25.1427 72.4312C25.036 72.3672 24.9187 72.3352 24.7907 72.3352C24.6574 72.3352 24.5374 72.3672 24.4307 72.4312C24.324 72.4952 24.236 72.5832 24.1667 72.6952C24.1027 72.8018 24.0707 72.9218 24.0707 73.0552C24.0707 73.1885 24.1027 73.3112 24.1667 73.4232C24.236 73.5298 24.324 73.6152 24.4307 73.6792C24.5374 73.7432 24.6574 73.7752 24.7907 73.7752ZM27.6627 67.9432C27.6627 68.0765 27.6974 68.1938 27.7667 68.2952C27.8414 68.3965 27.932 68.4472 28.0387 68.4472C28.14 68.4472 28.228 68.3992 28.3027 68.3032C28.3774 68.2018 28.4147 68.0818 28.4147 67.9432C28.4147 67.8045 28.3774 67.6845 28.3027 67.5832C28.228 67.4818 28.14 67.4312 28.0387 67.4312C27.932 67.4312 27.8414 67.4818 27.7667 67.5832C27.6974 67.6845 27.6627 67.8045 27.6627 67.9432ZM27.2467 67.9432C27.2467 67.7512 27.2814 67.5778 27.3507 67.4232C27.42 67.2632 27.516 67.1378 27.6387 67.0472C27.7614 66.9512 27.8947 66.9032 28.0387 66.9032C28.188 66.9032 28.3214 66.9512 28.4387 67.0472C28.5614 67.1378 28.6574 67.2632 28.7267 67.4232C28.8014 67.5778 28.8387 67.7512 28.8387 67.9432C28.8387 68.1352 28.8014 68.3112 28.7267 68.4712C28.6574 68.6258 28.5614 68.7512 28.4387 68.8472C28.3214 68.9378 28.188 68.9832 28.0387 68.9832C27.8947 68.9832 27.7614 68.9378 27.6387 68.8472C27.516 68.7512 27.42 68.6232 27.3507 68.4632C27.2814 68.3032 27.2467 68.1298 27.2467 67.9432ZM31.4627 67.9432C31.4627 68.0765 31.4974 68.1938 31.5667 68.2952C31.6414 68.3965 31.732 68.4472 31.8387 68.4472C31.94 68.4472 32.028 68.3992 32.1027 68.3032C32.1774 68.2018 32.2147 68.0818 32.2147 67.9432C32.2147 67.8045 32.1774 67.6845 32.1027 67.5832C32.028 67.4818 31.94 67.4312 31.8387 67.4312C31.732 67.4312 31.6414 67.4818 31.5667 67.5832C31.4974 67.6845 31.4627 67.8045 31.4627 67.9432ZM31.0467 67.9432C31.0467 67.7512 31.0814 67.5778 31.1507 67.4232C31.22 67.2632 31.316 67.1378 31.4387 67.0472C31.5614 66.9512 31.6947 66.9032 31.8387 66.9032C31.988 66.9032 32.1214 66.9512 32.2387 67.0472C32.3614 67.1378 32.4574 67.2632 32.5267 67.4232C32.6014 67.5778 32.6387 67.7512 32.6387 67.9432C32.6387 68.1352 32.6014 68.3112 32.5267 68.4712C32.4574 68.6258 32.3614 68.7512 32.2387 68.8472C32.1214 68.9378 31.988 68.9832 31.8387 68.9832C31.6947 68.9832 31.5614 68.9378 31.4387 68.8472C31.316 68.7512 31.22 68.6232 31.1507 68.4632C31.0814 68.3032 31.0467 68.1298 31.0467 67.9432ZM36.6707 69.9272C36.884 69.9272 37.0654 70.0045 37.2147 70.1592C37.3694 70.3085 37.4467 70.4898 37.4467 70.7032C37.4467 70.9165 37.3694 71.1005 37.2147 71.2552C37.0654 71.4045 36.884 71.4792 36.6707 71.4792C36.452 71.4792 36.2654 71.4045 36.1107 71.2552C35.9614 71.1005 35.8867 70.9165 35.8867 70.7032C35.8867 70.4845 35.9614 70.3005 36.1107 70.1512C36.2654 70.0018 36.452 69.9272 36.6707 69.9272ZM39.9907 71.7592C40.2307 71.7592 40.4467 71.8178 40.6387 71.9352C40.836 72.0525 40.9907 72.2098 41.1027 72.4072C41.22 72.5992 41.2787 72.8152 41.2787 73.0552C41.2787 73.2898 41.22 73.5058 41.1027 73.7032C40.9907 73.9005 40.836 74.0578 40.6387 74.1752C40.4467 74.2925 40.228 74.3512 39.9827 74.3512C39.748 74.3512 39.532 74.2925 39.3347 74.1752C39.1374 74.0578 38.98 73.9005 38.8627 73.7032C38.7507 73.5058 38.6947 73.2898 38.6947 73.0552C38.6947 72.8152 38.7507 72.5992 38.8627 72.4072C38.98 72.2098 39.1374 72.0525 39.3347 71.9352C39.532 71.8178 39.7507 71.7592 39.9907 71.7592ZM39.9907 73.7752C40.188 73.7752 40.356 73.7058 40.4947 73.5672C40.6334 73.4232 40.7027 73.2525 40.7027 73.0552C40.7027 72.9218 40.6707 72.8018 40.6067 72.6952C40.5427 72.5832 40.4547 72.4952 40.3427 72.4312C40.236 72.3672 40.1187 72.3352 39.9907 72.3352C39.8574 72.3352 39.7374 72.3672 39.6307 72.4312C39.524 72.4952 39.436 72.5832 39.3667 72.6952C39.3027 72.8018 39.2707 72.9218 39.2707 73.0552C39.2707 73.1885 39.3027 73.3112 39.3667 73.4232C39.436 73.5298 39.524 73.6152 39.6307 73.6792C39.7374 73.7432 39.8574 73.7752 39.9907 73.7752ZM44.2707 69.9272C44.484 69.9272 44.6654 70.0045 44.8147 70.1592C44.9694 70.3085 45.0467 70.4898 45.0467 70.7032C45.0467 70.9165 44.9694 71.1005 44.8147 71.2552C44.6654 71.4045 44.484 71.4792 44.2707 71.4792C44.052 71.4792 43.8654 71.4045 43.7107 71.2552C43.5614 71.1005 43.4867 70.9165 43.4867 70.7032C43.4867 70.4845 43.5614 70.3005 43.7107 70.1512C43.8654 70.0018 44.052 69.9272 44.2707 69.9272ZM46.6627 67.9432C46.6627 68.0765 46.6974 68.1938 46.7667 68.2952C46.8414 68.3965 46.932 68.4472 47.0387 68.4472C47.14 68.4472 47.228 68.3992 47.3027 68.3032C47.3774 68.2018 47.4147 68.0818 47.4147 67.9432C47.4147 67.8045 47.3774 67.6845 47.3027 67.5832C47.228 67.4818 47.14 67.4312 47.0387 67.4312C46.932 67.4312 46.8414 67.4818 46.7667 67.5832C46.6974 67.6845 46.6627 67.8045 46.6627 67.9432ZM46.2467 67.9432C46.2467 67.7512 46.2814 67.5778 46.3507 67.4232C46.42 67.2632 46.516 67.1378 46.6387 67.0472C46.7614 66.9512 46.8947 66.9032 47.0387 66.9032C47.188 66.9032 47.3214 66.9512 47.4387 67.0472C47.5614 67.1378 47.6574 67.2632 47.7267 67.4232C47.8014 67.5778 47.8387 67.7512 47.8387 67.9432C47.8387 68.1352 47.8014 68.3112 47.7267 68.4712C47.6574 68.6258 47.5614 68.7512 47.4387 68.8472C47.3214 68.9378 47.188 68.9832 47.0387 68.9832C46.8947 68.9832 46.7614 68.9378 46.6387 68.8472C46.516 68.7512 46.42 68.6232 46.3507 68.4632C46.2814 68.3032 46.2467 68.1298 46.2467 67.9432ZM50.4627 67.9432C50.4627 68.0765 50.4974 68.1938 50.5667 68.2952C50.6414 68.3965 50.732 68.4472 50.8387 68.4472C50.94 68.4472 51.028 68.3992 51.1027 68.3032C51.1774 68.2018 51.2147 68.0818 51.2147 67.9432C51.2147 67.8045 51.1774 67.6845 51.1027 67.5832C51.028 67.4818 50.94 67.4312 50.8387 67.4312C50.732 67.4312 50.6414 67.4818 50.5667 67.5832C50.4974 67.6845 50.4627 67.8045 50.4627 67.9432ZM50.0467 67.9432C50.0467 67.7512 50.0814 67.5778 50.1507 67.4232C50.22 67.2632 50.316 67.1378 50.4387 67.0472C50.5614 66.9512 50.6947 66.9032 50.8387 66.9032C50.988 66.9032 51.1214 66.9512 51.2387 67.0472C51.3614 67.1378 51.4574 67.2632 51.5267 67.4232C51.6014 67.5778 51.6387 67.7512 51.6387 67.9432C51.6387 68.1352 51.6014 68.3112 51.5267 68.4712C51.4574 68.6258 51.3614 68.7512 51.2387 68.8472C51.1214 68.9378 50.988 68.9832 50.8387 68.9832C50.6947 68.9832 50.5614 68.9378 50.4387 68.8472C50.316 68.7512 50.22 68.6232 50.1507 68.4632C50.0814 68.3032 50.0467 68.1298 50.0467 67.9432ZM55.1907 71.7592C55.4307 71.7592 55.6467 71.8178 55.8387 71.9352C56.036 72.0525 56.1907 72.2098 56.3027 72.4072C56.42 72.5992 56.4787 72.8152 56.4787 73.0552C56.4787 73.2898 56.42 73.5058 56.3027 73.7032C56.1907 73.9005 56.036 74.0578 55.8387 74.1752C55.6467 74.2925 55.428 74.3512 55.1827 74.3512C54.948 74.3512 54.732 74.2925 54.5347 74.1752C54.3374 74.0578 54.18 73.9005 54.0627 73.7032C53.9507 73.5058 53.8947 73.2898 53.8947 73.0552C53.8947 72.8152 53.9507 72.5992 54.0627 72.4072C54.18 72.2098 54.3374 72.0525 54.5347 71.9352C54.732 71.8178 54.9507 71.7592 55.1907 71.7592ZM55.1907 73.7752C55.388 73.7752 55.556 73.7058 55.6947 73.5672C55.8334 73.4232 55.9027 73.2525 55.9027 73.0552C55.9027 72.9218 55.8707 72.8018 55.8067 72.6952C55.7427 72.5832 55.6547 72.4952 55.5427 72.4312C55.436 72.3672 55.3187 72.3352 55.1907 72.3352C55.0574 72.3352 54.9374 72.3672 54.8307 72.4312C54.724 72.4952 54.636 72.5832 54.5667 72.6952C54.5027 72.8018 54.4707 72.9218 54.4707 73.0552C54.4707 73.1885 54.5027 73.3112 54.5667 73.4232C54.636 73.5298 54.724 73.6152 54.8307 73.6792C54.9374 73.7432 55.0574 73.7752 55.1907 73.7752ZM23.8627 78.9432C23.8627 79.0765 23.8974 79.1938 23.9667 79.2952C24.0414 79.3965 24.132 79.4472 24.2387 79.4472C24.34 79.4472 24.428 79.3992 24.5027 79.3032C24.5774 79.2018 24.6147 79.0818 24.6147 78.9432C24.6147 78.8045 24.5774 78.6845 24.5027 78.5832C24.428 78.4818 24.34 78.4312 24.2387 78.4312C24.132 78.4312 24.0414 78.4818 23.9667 78.5832C23.8974 78.6845 23.8627 78.8045 23.8627 78.9432ZM23.4467 78.9432C23.4467 78.7512 23.4814 78.5778 23.5507 78.4232C23.62 78.2632 23.716 78.1378 23.8387 78.0472C23.9614 77.9512 24.0947 77.9032 24.2387 77.9032C24.388 77.9032 24.5214 77.9512 24.6387 78.0472C24.7614 78.1378 24.8574 78.2632 24.9267 78.4232C25.0014 78.5778 25.0387 78.7512 25.0387 78.9432C25.0387 79.1352 25.0014 79.3112 24.9267 79.4712C24.8574 79.6258 24.7614 79.7512 24.6387 79.8472C24.5214 79.9378 24.388 79.9832 24.2387 79.9832C24.0947 79.9832 23.9614 79.9378 23.8387 79.8472C23.716 79.7512 23.62 79.6232 23.5507 79.4632C23.4814 79.3032 23.4467 79.1298 23.4467 78.9432ZM28.852 85.3369C27.973 85.3369 27.3949 84.7588 27.391 83.876C27.3949 83.001 27.973 82.415 28.852 82.415C29.7309 82.415 30.3168 83.001 30.3207 83.876C30.3168 84.7588 29.7309 85.3369 28.852 85.3369ZM28.3051 83.876C28.3051 84.2041 28.5277 84.4268 28.852 84.4229C29.1762 84.4268 29.3988 84.2041 29.3988 83.876C29.3988 83.5557 29.1762 83.333 28.852 83.3291C28.5277 83.333 28.3051 83.5557 28.3051 83.876ZM38.1004 78.7744C38.7371 78.7705 39.2723 79.1064 39.616 79.6963H40.9988V78.29H42.241V85.54H40.9988V82.8994H39.7059C39.3738 83.6025 38.7957 84.001 38.1004 84.001C36.9832 84.001 36.1785 82.9971 36.1785 81.376C36.1785 79.7783 36.9832 78.7705 38.1004 78.7744ZM37.3816 81.376C37.3777 82.3916 37.6707 82.8564 38.1004 82.8525C38.5418 82.8564 38.8152 82.3916 38.8191 81.376C38.8152 80.376 38.5418 79.9033 38.1004 79.9072C37.6707 79.9033 37.3777 80.376 37.3816 81.376ZM39.9598 80.6963C39.9949 80.9072 40.0145 81.1338 40.0145 81.376C40.0145 81.5596 40.0027 81.7393 39.9832 81.9072H40.9988V80.6963H39.9598ZM51.447 82.7592C51.687 82.7592 51.903 82.8178 52.095 82.9352C52.2923 83.0525 52.447 83.2098 52.559 83.4072C52.6763 83.5992 52.735 83.8152 52.735 84.0552C52.735 84.2898 52.6763 84.5058 52.559 84.7032C52.447 84.9005 52.2923 85.0578 52.095 85.1752C51.903 85.2925 51.6843 85.3512 51.439 85.3512C51.2043 85.3512 50.9883 85.2925 50.791 85.1752C50.5936 85.0578 50.4363 84.9005 50.319 84.7032C50.207 84.5058 50.151 84.2898 50.151 84.0552C50.151 83.8152 50.207 83.5992 50.319 83.4072C50.4363 83.2098 50.5936 83.0525 50.791 82.9352C50.9883 82.8178 51.207 82.7592 51.447 82.7592ZM51.447 84.7752C51.6443 84.7752 51.8123 84.7058 51.951 84.5672C52.0896 84.4232 52.159 84.2525 52.159 84.0552C52.159 83.9218 52.127 83.8018 52.063 83.6952C51.999 83.5832 51.911 83.4952 51.799 83.4312C51.6923 83.3672 51.575 83.3352 51.447 83.3352C51.3136 83.3352 51.1936 83.3672 51.087 83.4312C50.9803 83.4952 50.8923 83.5832 50.823 83.6952C50.759 83.8018 50.727 83.9218 50.727 84.0552C50.727 84.1885 50.759 84.3112 50.823 84.4232C50.8923 84.5298 50.9803 84.6152 51.087 84.6792C51.1936 84.7432 51.3136 84.7752 51.447 84.7752ZM54.319 78.9432C54.319 79.0765 54.3536 79.1938 54.423 79.2952C54.4976 79.3965 54.5883 79.4472 54.695 79.4472C54.7963 79.4472 54.8843 79.3992 54.959 79.3032C55.0336 79.2018 55.071 79.0818 55.071 78.9432C55.071 78.8045 55.0336 78.6845 54.959 78.5832C54.8843 78.4818 54.7963 78.4312 54.695 78.4312C54.5883 78.4312 54.4976 78.4818 54.423 78.5832C54.3536 78.6845 54.319 78.8045 54.319 78.9432ZM53.903 78.9432C53.903 78.7512 53.9376 78.5778 54.007 78.4232C54.0763 78.2632 54.1723 78.1378 54.295 78.0472C54.4176 77.9512 54.551 77.9032 54.695 77.9032C54.8443 77.9032 54.9776 77.9512 55.095 78.0472C55.2176 78.1378 55.3136 78.2632 55.383 78.4232C55.4576 78.5778 55.495 78.7512 55.495 78.9432C55.495 79.1352 55.4576 79.3112 55.383 79.4712C55.3136 79.6258 55.2176 79.7512 55.095 79.8472C54.9776 79.9378 54.8443 79.9832 54.695 79.9832C54.551 79.9832 54.4176 79.9378 54.295 79.8472C54.1723 79.7512 54.0763 79.6232 54.007 79.4632C53.9376 79.3032 53.903 79.1298 53.903 78.9432ZM31.1627 89.9432C31.1627 90.0765 31.1974 90.1938 31.2667 90.2952C31.3414 90.3965 31.432 90.4472 31.5387 90.4472C31.64 90.4472 31.728 90.3992 31.8027 90.3032C31.8774 90.2018 31.9147 90.0818 31.9147 89.9432C31.9147 89.8045 31.8774 89.6845 31.8027 89.5832C31.728 89.4818 31.64 89.4312 31.5387 89.4312C31.432 89.4312 31.3414 89.4818 31.2667 89.5832C31.1974 89.6845 31.1627 89.8045 31.1627 89.9432ZM30.7467 89.9432C30.7467 89.7512 30.7814 89.5778 30.8507 89.4232C30.92 89.2632 31.016 89.1378 31.1387 89.0472C31.2614 88.9512 31.3947 88.9032 31.5387 88.9032C31.688 88.9032 31.8214 88.9512 31.9387 89.0472C32.0614 89.1378 32.1574 89.2632 32.2267 89.4232C32.3014 89.5778 32.3387 89.7512 32.3387 89.9432C32.3387 90.1352 32.3014 90.3112 32.2267 90.4712C32.1574 90.6258 32.0614 90.7512 31.9387 90.8472C31.8214 90.9378 31.688 90.9832 31.5387 90.9832C31.3947 90.9832 31.2614 90.9378 31.1387 90.8472C31.016 90.7512 30.92 90.6232 30.8507 90.4632C30.7814 90.3032 30.7467 90.1298 30.7467 89.9432ZM36.3707 91.9272C36.584 91.9272 36.7654 92.0045 36.9147 92.1592C37.0694 92.3085 37.1467 92.4898 37.1467 92.7032C37.1467 92.9165 37.0694 93.1005 36.9147 93.2552C36.7654 93.4045 36.584 93.4792 36.3707 93.4792C36.152 93.4792 35.9654 93.4045 35.8107 93.2552C35.6614 93.1005 35.5867 92.9165 35.5867 92.7032C35.5867 92.4845 35.6614 92.3005 35.8107 92.1512C35.9654 92.0018 36.152 91.9272 36.3707 91.9272ZM39.6907 93.7592C39.9307 93.7592 40.1467 93.8178 40.3387 93.9352C40.536 94.0525 40.6907 94.2098 40.8027 94.4072C40.92 94.5992 40.9787 94.8152 40.9787 95.0552C40.9787 95.2898 40.92 95.5058 40.8027 95.7032C40.6907 95.9005 40.536 96.0578 40.3387 96.1752C40.1467 96.2925 39.928 96.3512 39.6827 96.3512C39.448 96.3512 39.232 96.2925 39.0347 96.1752C38.8374 96.0578 38.68 95.9005 38.5627 95.7032C38.4507 95.5058 38.3947 95.2898 38.3947 95.0552C38.3947 94.8152 38.4507 94.5992 38.5627 94.4072C38.68 94.2098 38.8374 94.0525 39.0347 93.9352C39.232 93.8178 39.4507 93.7592 39.6907 93.7592ZM39.6907 95.7752C39.888 95.7752 40.056 95.7058 40.1947 95.5672C40.3334 95.4232 40.4027 95.2525 40.4027 95.0552C40.4027 94.9218 40.3707 94.8018 40.3067 94.6952C40.2427 94.5832 40.1547 94.4952 40.0427 94.4312C39.936 94.3672 39.8187 94.3352 39.6907 94.3352C39.5574 94.3352 39.4374 94.3672 39.3307 94.4312C39.224 94.4952 39.136 94.5832 39.0667 94.6952C39.0027 94.8018 38.9707 94.9218 38.9707 95.0552C38.9707 95.1885 39.0027 95.3112 39.0667 95.4232C39.136 95.5298 39.224 95.6152 39.3307 95.6792C39.4374 95.7432 39.5574 95.7752 39.6907 95.7752ZM43.9707 91.9272C44.184 91.9272 44.3654 92.0045 44.5147 92.1592C44.6694 92.3085 44.7467 92.4898 44.7467 92.7032C44.7467 92.9165 44.6694 93.1005 44.5147 93.2552C44.3654 93.4045 44.184 93.4792 43.9707 93.4792C43.752 93.4792 43.5654 93.4045 43.4107 93.2552C43.2614 93.1005 43.1867 92.9165 43.1867 92.7032C43.1867 92.4845 43.2614 92.3005 43.4107 92.1512C43.5654 92.0018 43.752 91.9272 43.9707 91.9272ZM46.3627 89.9432C46.3627 90.0765 46.3974 90.1938 46.4667 90.2952C46.5414 90.3965 46.632 90.4472 46.7387 90.4472C46.84 90.4472 46.928 90.3992 47.0027 90.3032C47.0774 90.2018 47.1147 90.0818 47.1147 89.9432C47.1147 89.8045 47.0774 89.6845 47.0027 89.5832C46.928 89.4818 46.84 89.4312 46.7387 89.4312C46.632 89.4312 46.5414 89.4818 46.4667 89.5832C46.3974 89.6845 46.3627 89.8045 46.3627 89.9432ZM45.9467 89.9432C45.9467 89.7512 45.9814 89.5778 46.0507 89.4232C46.12 89.2632 46.216 89.1378 46.3387 89.0472C46.4614 88.9512 46.5947 88.9032 46.7387 88.9032C46.888 88.9032 47.0214 88.9512 47.1387 89.0472C47.2614 89.1378 47.3574 89.2632 47.4267 89.4232C47.5014 89.5778 47.5387 89.7512 47.5387 89.9432C47.5387 90.1352 47.5014 90.3112 47.4267 90.4712C47.3574 90.6258 47.2614 90.7512 47.1387 90.8472C47.0214 90.9378 46.888 90.9832 46.7387 90.9832C46.5947 90.9832 46.4614 90.9378 46.3387 90.8472C46.216 90.7512 46.12 90.6232 46.0507 90.4632C45.9814 90.3032 45.9467 90.1298 45.9467 89.9432ZM24.7907 104.759C25.0307 104.759 25.2467 104.818 25.4387 104.935C25.636 105.052 25.7907 105.21 25.9027 105.407C26.02 105.599 26.0787 105.815 26.0787 106.055C26.0787 106.29 26.02 106.506 25.9027 106.703C25.7907 106.9 25.636 107.058 25.4387 107.175C25.2467 107.292 25.028 107.351 24.7827 107.351C24.548 107.351 24.332 107.292 24.1347 107.175C23.9374 107.058 23.78 106.9 23.6627 106.703C23.5507 106.506 23.4947 106.29 23.4947 106.055C23.4947 105.815 23.5507 105.599 23.6627 105.407C23.78 105.21 23.9374 105.052 24.1347 104.935C24.332 104.818 24.5507 104.759 24.7907 104.759ZM24.7907 106.775C24.988 106.775 25.156 106.706 25.2947 106.567C25.4334 106.423 25.5027 106.252 25.5027 106.055C25.5027 105.922 25.4707 105.802 25.4067 105.695C25.3427 105.583 25.2547 105.495 25.1427 105.431C25.036 105.367 24.9187 105.335 24.7907 105.335C24.6574 105.335 24.5374 105.367 24.4307 105.431C24.324 105.495 24.236 105.583 24.1667 105.695C24.1027 105.802 24.0707 105.922 24.0707 106.055C24.0707 106.188 24.1027 106.311 24.1667 106.423C24.236 106.53 24.324 106.615 24.4307 106.679C24.5374 106.743 24.6574 106.775 24.7907 106.775ZM27.6627 100.943C27.6627 101.076 27.6974 101.194 27.7667 101.295C27.8414 101.396 27.932 101.447 28.0387 101.447C28.14 101.447 28.228 101.399 28.3027 101.303C28.3774 101.202 28.4147 101.082 28.4147 100.943C28.4147 100.804 28.3774 100.684 28.3027 100.583C28.228 100.482 28.14 100.431 28.0387 100.431C27.932 100.431 27.8414 100.482 27.7667 100.583C27.6974 100.684 27.6627 100.804 27.6627 100.943ZM27.2467 100.943C27.2467 100.751 27.2814 100.578 27.3507 100.423C27.42 100.263 27.516 100.138 27.6387 100.047C27.7614 99.9512 27.8947 99.9032 28.0387 99.9032C28.188 99.9032 28.3214 99.9512 28.4387 100.047C28.5614 100.138 28.6574 100.263 28.7267 100.423C28.8014 100.578 28.8387 100.751 28.8387 100.943C28.8387 101.135 28.8014 101.311 28.7267 101.471C28.6574 101.626 28.5614 101.751 28.4387 101.847C28.3214 101.938 28.188 101.983 28.0387 101.983C27.8947 101.983 27.7614 101.938 27.6387 101.847C27.516 101.751 27.42 101.623 27.3507 101.463C27.2814 101.303 27.2467 101.13 27.2467 100.943ZM31.4627 100.943C31.4627 101.076 31.4974 101.194 31.5667 101.295C31.6414 101.396 31.732 101.447 31.8387 101.447C31.94 101.447 32.028 101.399 32.1027 101.303C32.1774 101.202 32.2147 101.082 32.2147 100.943C32.2147 100.804 32.1774 100.684 32.1027 100.583C32.028 100.482 31.94 100.431 31.8387 100.431C31.732 100.431 31.6414 100.482 31.5667 100.583C31.4974 100.684 31.4627 100.804 31.4627 100.943ZM31.0467 100.943C31.0467 100.751 31.0814 100.578 31.1507 100.423C31.22 100.263 31.316 100.138 31.4387 100.047C31.5614 99.9512 31.6947 99.9032 31.8387 99.9032C31.988 99.9032 32.1214 99.9512 32.2387 100.047C32.3614 100.138 32.4574 100.263 32.5267 100.423C32.6014 100.578 32.6387 100.751 32.6387 100.943C32.6387 101.135 32.6014 101.311 32.5267 101.471C32.4574 101.626 32.3614 101.751 32.2387 101.847C32.1214 101.938 31.988 101.983 31.8387 101.983C31.6947 101.983 31.5614 101.938 31.4387 101.847C31.316 101.751 31.22 101.623 31.1507 101.463C31.0814 101.303 31.0467 101.13 31.0467 100.943ZM36.6707 102.927C36.884 102.927 37.0654 103.004 37.2147 103.159C37.3694 103.308 37.4467 103.49 37.4467 103.703C37.4467 103.916 37.3694 104.1 37.2147 104.255C37.0654 104.404 36.884 104.479 36.6707 104.479C36.452 104.479 36.2654 104.404 36.1107 104.255C35.9614 104.1 35.8867 103.916 35.8867 103.703C35.8867 103.484 35.9614 103.3 36.1107 103.151C36.2654 103.002 36.452 102.927 36.6707 102.927ZM39.9907 104.759C40.2307 104.759 40.4467 104.818 40.6387 104.935C40.836 105.052 40.9907 105.21 41.1027 105.407C41.22 105.599 41.2787 105.815 41.2787 106.055C41.2787 106.29 41.22 106.506 41.1027 106.703C40.9907 106.9 40.836 107.058 40.6387 107.175C40.4467 107.292 40.228 107.351 39.9827 107.351C39.748 107.351 39.532 107.292 39.3347 107.175C39.1374 107.058 38.98 106.9 38.8627 106.703C38.7507 106.506 38.6947 106.29 38.6947 106.055C38.6947 105.815 38.7507 105.599 38.8627 105.407C38.98 105.21 39.1374 105.052 39.3347 104.935C39.532 104.818 39.7507 104.759 39.9907 104.759ZM39.9907 106.775C40.188 106.775 40.356 106.706 40.4947 106.567C40.6334 106.423 40.7027 106.252 40.7027 106.055C40.7027 105.922 40.6707 105.802 40.6067 105.695C40.5427 105.583 40.4547 105.495 40.3427 105.431C40.236 105.367 40.1187 105.335 39.9907 105.335C39.8574 105.335 39.7374 105.367 39.6307 105.431C39.524 105.495 39.436 105.583 39.3667 105.695C39.3027 105.802 39.2707 105.922 39.2707 106.055C39.2707 106.188 39.3027 106.311 39.3667 106.423C39.436 106.53 39.524 106.615 39.6307 106.679C39.7374 106.743 39.8574 106.775 39.9907 106.775ZM44.2707 102.927C44.484 102.927 44.6654 103.004 44.8147 103.159C44.9694 103.308 45.0467 103.49 45.0467 103.703C45.0467 103.916 44.9694 104.1 44.8147 104.255C44.6654 104.404 44.484 104.479 44.2707 104.479C44.052 104.479 43.8654 104.404 43.7107 104.255C43.5614 104.1 43.4867 103.916 43.4867 103.703C43.4867 103.484 43.5614 103.3 43.7107 103.151C43.8654 103.002 44.052 102.927 44.2707 102.927ZM46.6627 100.943C46.6627 101.076 46.6974 101.194 46.7667 101.295C46.8414 101.396 46.932 101.447 47.0387 101.447C47.14 101.447 47.228 101.399 47.3027 101.303C47.3774 101.202 47.4147 101.082 47.4147 100.943C47.4147 100.804 47.3774 100.684 47.3027 100.583C47.228 100.482 47.14 100.431 47.0387 100.431C46.932 100.431 46.8414 100.482 46.7667 100.583C46.6974 100.684 46.6627 100.804 46.6627 100.943ZM46.2467 100.943C46.2467 100.751 46.2814 100.578 46.3507 100.423C46.42 100.263 46.516 100.138 46.6387 100.047C46.7614 99.9512 46.8947 99.9032 47.0387 99.9032C47.188 99.9032 47.3214 99.9512 47.4387 100.047C47.5614 100.138 47.6574 100.263 47.7267 100.423C47.8014 100.578 47.8387 100.751 47.8387 100.943C47.8387 101.135 47.8014 101.311 47.7267 101.471C47.6574 101.626 47.5614 101.751 47.4387 101.847C47.3214 101.938 47.188 101.983 47.0387 101.983C46.8947 101.983 46.7614 101.938 46.6387 101.847C46.516 101.751 46.42 101.623 46.3507 101.463C46.2814 101.303 46.2467 101.13 46.2467 100.943ZM50.4627 100.943C50.4627 101.076 50.4974 101.194 50.5667 101.295C50.6414 101.396 50.732 101.447 50.8387 101.447C50.94 101.447 51.028 101.399 51.1027 101.303C51.1774 101.202 51.2147 101.082 51.2147 100.943C51.2147 100.804 51.1774 100.684 51.1027 100.583C51.028 100.482 50.94 100.431 50.8387 100.431C50.732 100.431 50.6414 100.482 50.5667 100.583C50.4974 100.684 50.4627 100.804 50.4627 100.943ZM50.0467 100.943C50.0467 100.751 50.0814 100.578 50.1507 100.423C50.22 100.263 50.316 100.138 50.4387 100.047C50.5614 99.9512 50.6947 99.9032 50.8387 99.9032C50.988 99.9032 51.1214 99.9512 51.2387 100.047C51.3614 100.138 51.4574 100.263 51.5267 100.423C51.6014 100.578 51.6387 100.751 51.6387 100.943C51.6387 101.135 51.6014 101.311 51.5267 101.471C51.4574 101.626 51.3614 101.751 51.2387 101.847C51.1214 101.938 50.988 101.983 50.8387 101.983C50.6947 101.983 50.5614 101.938 50.4387 101.847C50.316 101.751 50.22 101.623 50.1507 101.463C50.0814 101.303 50.0467 101.13 50.0467 100.943ZM55.1907 104.759C55.4307 104.759 55.6467 104.818 55.8387 104.935C56.036 105.052 56.1907 105.21 56.3027 105.407C56.42 105.599 56.4787 105.815 56.4787 106.055C56.4787 106.29 56.42 106.506 56.3027 106.703C56.1907 106.9 56.036 107.058 55.8387 107.175C55.6467 107.292 55.428 107.351 55.1827 107.351C54.948 107.351 54.732 107.292 54.5347 107.175C54.3374 107.058 54.18 106.9 54.0627 106.703C53.9507 106.506 53.8947 106.29 53.8947 106.055C53.8947 105.815 53.9507 105.599 54.0627 105.407C54.18 105.21 54.3374 105.052 54.5347 104.935C54.732 104.818 54.9507 104.759 55.1907 104.759ZM55.1907 106.775C55.388 106.775 55.556 106.706 55.6947 106.567C55.8334 106.423 55.9027 106.252 55.9027 106.055C55.9027 105.922 55.8707 105.802 55.8067 105.695C55.7427 105.583 55.6547 105.495 55.5427 105.431C55.436 105.367 55.3187 105.335 55.1907 105.335C55.0574 105.335 54.9374 105.367 54.8307 105.431C54.724 105.495 54.636 105.583 54.5667 105.695C54.5027 105.802 54.4707 105.922 54.4707 106.055C54.4707 106.188 54.5027 106.311 54.5667 106.423C54.636 106.53 54.724 106.615 54.8307 106.679C54.9374 106.743 55.0574 106.775 55.1907 106.775ZM23.8627 111.943C23.8627 112.076 23.8974 112.194 23.9667 112.295C24.0414 112.396 24.132 112.447 24.2387 112.447C24.34 112.447 24.428 112.399 24.5027 112.303C24.5774 112.202 24.6147 112.082 24.6147 111.943C24.6147 111.804 24.5774 111.684 24.5027 111.583C24.428 111.482 24.34 111.431 24.2387 111.431C24.132 111.431 24.0414 111.482 23.9667 111.583C23.8974 111.684 23.8627 111.804 23.8627 111.943ZM23.4467 111.943C23.4467 111.751 23.4814 111.578 23.5507 111.423C23.62 111.263 23.716 111.138 23.8387 111.047C23.9614 110.951 24.0947 110.903 24.2387 110.903C24.388 110.903 24.5214 110.951 24.6387 111.047C24.7614 111.138 24.8574 111.263 24.9267 111.423C25.0014 111.578 25.0387 111.751 25.0387 111.943C25.0387 112.135 25.0014 112.311 24.9267 112.471C24.8574 112.626 24.7614 112.751 24.6387 112.847C24.5214 112.938 24.388 112.983 24.2387 112.983C24.0947 112.983 23.9614 112.938 23.8387 112.847C23.716 112.751 23.62 112.623 23.5507 112.463C23.4814 112.303 23.4467 112.13 23.4467 111.943ZM28.852 118.337C27.973 118.337 27.3949 117.759 27.391 116.876C27.3949 116.001 27.973 115.415 28.852 115.415C29.7309 115.415 30.3168 116.001 30.3207 116.876C30.3168 117.759 29.7309 118.337 28.852 118.337ZM28.3051 116.876C28.3051 117.204 28.5277 117.427 28.852 117.423C29.1762 117.427 29.3988 117.204 29.3988 116.876C29.3988 116.556 29.1762 116.333 28.852 116.329C28.5277 116.333 28.3051 116.556 28.3051 116.876ZM42.366 111.306V118.509H41.0848V117.048H39.741V116.118H41.0848V111.306H42.366ZM36.0535 114.876C37.3816 114.876 39.1512 114.868 40.6863 114.665L40.7566 115.571C40.1707 115.681 39.573 115.751 38.9832 115.798V118.306H37.7098V115.864C37.1746 115.88 36.6629 115.884 36.1941 115.884L36.0535 114.876ZM36.5223 113.071C36.5223 112.192 37.3191 111.552 38.4051 111.556C39.4637 111.552 40.2723 112.192 40.2723 113.071C40.2723 113.978 39.4637 114.587 38.4051 114.587C37.3191 114.587 36.5223 113.978 36.5223 113.071ZM37.702 113.071C37.702 113.462 37.9832 113.638 38.4051 113.634C38.7996 113.638 39.0809 113.462 39.0848 113.071C39.0809 112.696 38.8035 112.493 38.4051 112.485C37.9793 112.493 37.702 112.696 37.702 113.071ZM51.447 115.759C51.687 115.759 51.903 115.818 52.095 115.935C52.2923 116.052 52.447 116.21 52.559 116.407C52.6763 116.599 52.735 116.815 52.735 117.055C52.735 117.29 52.6763 117.506 52.559 117.703C52.447 117.9 52.2923 118.058 52.095 118.175C51.903 118.292 51.6843 118.351 51.439 118.351C51.2043 118.351 50.9883 118.292 50.791 118.175C50.5936 118.058 50.4363 117.9 50.319 117.703C50.207 117.506 50.151 117.29 50.151 117.055C50.151 116.815 50.207 116.599 50.319 116.407C50.4363 116.21 50.5936 116.052 50.791 115.935C50.9883 115.818 51.207 115.759 51.447 115.759ZM51.447 117.775C51.6443 117.775 51.8123 117.706 51.951 117.567C52.0896 117.423 52.159 117.252 52.159 117.055C52.159 116.922 52.127 116.802 52.063 116.695C51.999 116.583 51.911 116.495 51.799 116.431C51.6923 116.367 51.575 116.335 51.447 116.335C51.3136 116.335 51.1936 116.367 51.087 116.431C50.9803 116.495 50.8923 116.583 50.823 116.695C50.759 116.802 50.727 116.922 50.727 117.055C50.727 117.188 50.759 117.311 50.823 117.423C50.8923 117.53 50.9803 117.615 51.087 117.679C51.1936 117.743 51.3136 117.775 51.447 117.775ZM54.319 111.943C54.319 112.076 54.3536 112.194 54.423 112.295C54.4976 112.396 54.5883 112.447 54.695 112.447C54.7963 112.447 54.8843 112.399 54.959 112.303C55.0336 112.202 55.071 112.082 55.071 111.943C55.071 111.804 55.0336 111.684 54.959 111.583C54.8843 111.482 54.7963 111.431 54.695 111.431C54.5883 111.431 54.4976 111.482 54.423 111.583C54.3536 111.684 54.319 111.804 54.319 111.943ZM53.903 111.943C53.903 111.751 53.9376 111.578 54.007 111.423C54.0763 111.263 54.1723 111.138 54.295 111.047C54.4176 110.951 54.551 110.903 54.695 110.903C54.8443 110.903 54.9776 110.951 55.095 111.047C55.2176 111.138 55.3136 111.263 55.383 111.423C55.4576 111.578 55.495 111.751 55.495 111.943C55.495 112.135 55.4576 112.311 55.383 112.471C55.3136 112.626 55.2176 112.751 55.095 112.847C54.9776 112.938 54.8443 112.983 54.695 112.983C54.551 112.983 54.4176 112.938 54.295 112.847C54.1723 112.751 54.0763 112.623 54.007 112.463C53.9376 112.303 53.903 112.13 53.903 111.943ZM31.1627 122.943C31.1627 123.076 31.1974 123.194 31.2667 123.295C31.3414 123.396 31.432 123.447 31.5387 123.447C31.64 123.447 31.728 123.399 31.8027 123.303C31.8774 123.202 31.9147 123.082 31.9147 122.943C31.9147 122.804 31.8774 122.684 31.8027 122.583C31.728 122.482 31.64 122.431 31.5387 122.431C31.432 122.431 31.3414 122.482 31.2667 122.583C31.1974 122.684 31.1627 122.804 31.1627 122.943ZM30.7467 122.943C30.7467 122.751 30.7814 122.578 30.8507 122.423C30.92 122.263 31.016 122.138 31.1387 122.047C31.2614 121.951 31.3947 121.903 31.5387 121.903C31.688 121.903 31.8214 121.951 31.9387 122.047C32.0614 122.138 32.1574 122.263 32.2267 122.423C32.3014 122.578 32.3387 122.751 32.3387 122.943C32.3387 123.135 32.3014 123.311 32.2267 123.471C32.1574 123.626 32.0614 123.751 31.9387 123.847C31.8214 123.938 31.688 123.983 31.5387 123.983C31.3947 123.983 31.2614 123.938 31.1387 123.847C31.016 123.751 30.92 123.623 30.8507 123.463C30.7814 123.303 30.7467 123.13 30.7467 122.943ZM36.3707 124.927C36.584 124.927 36.7654 125.004 36.9147 125.159C37.0694 125.308 37.1467 125.49 37.1467 125.703C37.1467 125.916 37.0694 126.1 36.9147 126.255C36.7654 126.404 36.584 126.479 36.3707 126.479C36.152 126.479 35.9654 126.404 35.8107 126.255C35.6614 126.1 35.5867 125.916 35.5867 125.703C35.5867 125.484 35.6614 125.3 35.8107 125.151C35.9654 125.002 36.152 124.927 36.3707 124.927ZM39.6907 126.759C39.9307 126.759 40.1467 126.818 40.3387 126.935C40.536 127.052 40.6907 127.21 40.8027 127.407C40.92 127.599 40.9787 127.815 40.9787 128.055C40.9787 128.29 40.92 128.506 40.8027 128.703C40.6907 128.9 40.536 129.058 40.3387 129.175C40.1467 129.292 39.928 129.351 39.6827 129.351C39.448 129.351 39.232 129.292 39.0347 129.175C38.8374 129.058 38.68 128.9 38.5627 128.703C38.4507 128.506 38.3947 128.29 38.3947 128.055C38.3947 127.815 38.4507 127.599 38.5627 127.407C38.68 127.21 38.8374 127.052 39.0347 126.935C39.232 126.818 39.4507 126.759 39.6907 126.759ZM39.6907 128.775C39.888 128.775 40.056 128.706 40.1947 128.567C40.3334 128.423 40.4027 128.252 40.4027 128.055C40.4027 127.922 40.3707 127.802 40.3067 127.695C40.2427 127.583 40.1547 127.495 40.0427 127.431C39.936 127.367 39.8187 127.335 39.6907 127.335C39.5574 127.335 39.4374 127.367 39.3307 127.431C39.224 127.495 39.136 127.583 39.0667 127.695C39.0027 127.802 38.9707 127.922 38.9707 128.055C38.9707 128.188 39.0027 128.311 39.0667 128.423C39.136 128.53 39.224 128.615 39.3307 128.679C39.4374 128.743 39.5574 128.775 39.6907 128.775ZM43.9707 124.927C44.184 124.927 44.3654 125.004 44.5147 125.159C44.6694 125.308 44.7467 125.49 44.7467 125.703C44.7467 125.916 44.6694 126.1 44.5147 126.255C44.3654 126.404 44.184 126.479 43.9707 126.479C43.752 126.479 43.5654 126.404 43.4107 126.255C43.2614 126.1 43.1867 125.916 43.1867 125.703C43.1867 125.484 43.2614 125.3 43.4107 125.151C43.5654 125.002 43.752 124.927 43.9707 124.927ZM46.3627 122.943C46.3627 123.076 46.3974 123.194 46.4667 123.295C46.5414 123.396 46.632 123.447 46.7387 123.447C46.84 123.447 46.928 123.399 47.0027 123.303C47.0774 123.202 47.1147 123.082 47.1147 122.943C47.1147 122.804 47.0774 122.684 47.0027 122.583C46.928 122.482 46.84 122.431 46.7387 122.431C46.632 122.431 46.5414 122.482 46.4667 122.583C46.3974 122.684 46.3627 122.804 46.3627 122.943ZM45.9467 122.943C45.9467 122.751 45.9814 122.578 46.0507 122.423C46.12 122.263 46.216 122.138 46.3387 122.047C46.4614 121.951 46.5947 121.903 46.7387 121.903C46.888 121.903 47.0214 121.951 47.1387 122.047C47.2614 122.138 47.3574 122.263 47.4267 122.423C47.5014 122.578 47.5387 122.751 47.5387 122.943C47.5387 123.135 47.5014 123.311 47.4267 123.471C47.3574 123.626 47.2614 123.751 47.1387 123.847C47.0214 123.938 46.888 123.983 46.7387 123.983C46.5947 123.983 46.4614 123.938 46.3387 123.847C46.216 123.751 46.12 123.623 46.0507 123.463C45.9814 123.303 45.9467 123.13 45.9467 122.943Z" fill="#1A1C20"/>
<path d="M46.5698 148.918V141.848H51.1011V142.913H47.8394V144.846H50.7886V145.911H47.8394V148.918H46.5698ZM52.0386 148.918V143.616H53.2495V144.495H53.3081C53.4985 143.884 54.0063 143.538 54.6167 143.538C54.7534 143.538 54.9487 143.552 55.0659 143.567V144.719C54.9536 144.68 54.6948 144.646 54.4897 144.641C53.7964 144.646 53.2886 145.125 53.2886 145.793V148.918H52.0386ZM57.9468 149.026C56.3989 149.026 55.4077 147.927 55.4077 146.292C55.4077 144.641 56.3989 143.547 57.9468 143.547C59.4995 143.547 60.4907 144.641 60.4858 146.292C60.4907 147.927 59.4995 149.026 57.9468 149.026ZM56.6675 146.282C56.6675 147.253 57.0923 148.03 57.9565 148.03C58.8062 148.03 59.231 147.253 59.2261 146.282C59.231 145.31 58.8062 144.529 57.9565 144.534C57.0923 144.529 56.6675 145.31 56.6675 146.282ZM61.4526 148.918V143.616H62.644V144.514H62.7124C62.9321 143.909 63.4644 143.547 64.1675 143.547C64.8853 143.547 65.4028 143.914 65.603 144.514H65.6616C65.8911 143.928 66.4819 143.547 67.2534 143.547C68.2251 143.547 68.9087 144.172 68.9038 145.354V148.918H67.6636V145.549C67.6636 144.89 67.2632 144.592 66.7554 144.592C66.145 144.592 65.7886 145.007 65.7886 145.608V148.918H64.5776V145.5C64.5728 144.949 64.2114 144.592 63.6792 144.592C63.1421 144.592 62.7026 145.037 62.7026 145.696V148.918H61.4526ZM70.8667 148.997C70.4468 148.997 70.1001 148.655 70.105 148.235C70.1001 147.825 70.4468 147.488 70.8667 147.483C71.272 147.488 71.6187 147.825 71.6187 148.235C71.6187 148.655 71.272 148.997 70.8667 148.997ZM79.2651 141.692C79.2603 142.8 80.5054 143.928 82.3901 144.172L81.9604 145.051C80.4614 144.827 79.27 144.089 78.6938 143.093C78.1177 144.089 76.9312 144.827 75.4468 145.051L75.0171 144.172C76.8823 143.928 78.1226 142.81 78.1226 141.692V141.243H79.2651V141.692ZM74.6655 146.711V145.813H82.7124V146.711H79.2065V149.788H78.1323V146.711H74.6655ZM88.0151 141.692V145.891H83.7573V141.692H88.0151ZM84.8218 149.553V146.672H85.9155V148.674H90.9058V149.553H84.8218ZM84.8315 145.022H86.9409V142.561H84.8315V145.022ZM89.5679 147.268V140.969H90.6616V147.268H89.5679Z" fill="black"/>
<path d="M11.3511 12.7954V11.8677H16.8296V12.7954H14.6323V18.938H13.5581V12.7954H11.3511ZM19.3101 19.0454C17.8062 19.0454 16.8247 17.9517 16.8296 16.311C16.8247 14.6606 17.8062 13.5669 19.3101 13.5669C20.8042 13.5669 21.7808 14.6606 21.7808 16.311C21.7808 17.9517 20.8042 19.0454 19.3101 19.0454ZM17.8745 16.311C17.8745 17.3218 18.3384 18.1763 19.3101 18.1763C20.2671 18.1763 20.7261 17.3218 20.7261 16.311C20.7261 15.2954 20.2671 14.4312 19.3101 14.4263C18.3384 14.4312 17.8745 15.2954 17.8745 16.311ZM23.4897 19.0063C23.1089 19.0015 22.7915 18.6938 22.7964 18.313C22.7915 17.9321 23.1089 17.6196 23.4897 17.6196C23.8657 17.6196 24.1782 17.9321 24.1831 18.313C24.1782 18.6938 23.8657 19.0015 23.4897 19.0063ZM28.6069 16.4575C27.9526 15.8032 27.6011 14.9878 27.5913 14.0942C27.6011 12.7856 28.5776 11.7407 29.8472 11.7407C30.5649 11.7407 31.1899 12.0679 31.5952 12.5903C32.0151 12.0679 32.6353 11.7407 33.3628 11.7407C34.6226 11.7407 35.604 12.7856 35.6089 14.0942C35.604 14.9878 35.2524 15.8032 34.5933 16.4575L31.5952 19.4556L28.6069 16.4575Z" fill="black"/>
</svg>
