<svg width="105" height="160" viewBox="0 0 105 160" fill="none" xmlns="http://www.w3.org/2000/svg">
<rect width="105" height="160" rx="5.0392" fill="#FFD2B6"/>
<path d="M24.6692 79.8265C24.9027 79.7078 25.3411 79.3618 25.7156 79.0032C26.2815 78.4613 27.3636 78.07 27.9291 77.8327C28.901 77.4247 30.4906 77.3965 31.2321 77.3091C31.8155 77.2404 33.2463 76.8308 34.2484 76.406C34.9781 76.0968 35.7757 75.5314 36.5484 75.3523C37.5453 75.1214 38.123 75.2092 39.1014 75.148C40.6139 75.0534 42.1556 75.1885 42.8342 75.2095C43.4628 75.229 44.3669 74.9855 45.2455 74.6673C45.7886 74.4706 46.3792 74.1665 47.7515 73.8709C49.4888 73.4966 51.2534 74.0422 51.9139 74.3692C53.1885 75.0003 54.3832 75.3518 55.7798 75.1952C57.0285 75.0552 57.9038 74.7167 58.5849 74.6861C61.3492 74.5621 62.1471 75.2799 62.7572 75.7479C63.0061 75.9388 63.9206 75.9538 65.628 75.8146C69.0057 75.5391 70.4482 75.8642 70.961 76.2851C71.1818 76.4663 71.4128 76.8436 71.4667 77.0316C71.5206 77.2196 71.354 77.2438 71.4616 77.2537C72.4681 77.346 72.9169 77.6921 73.5207 78.0351C74.6645 78.6846 76.8132 78.3016 78.4194 78.4003C79.8847 78.4902 80.888 79.7055 81.7257 80.2065C82.2369 80.5123 82.5889 80.9115 83.1458 81.1748C84.0487 81.6016 85.278 81.4111 85.8498 81.5824C86.6434 81.8201 88.225 82.6786 89.0283 83.108C89.5478 83.3857 89.4491 84.3809 89.8801 84.788C90.5028 85.3762 90.946 85.6595 91.5055 86.3433C92.0251 86.9784 92.3646 87.9174 92.5778 88.853C92.895 90.2446 93.1882 90.868 93.5724 91.6172C94.2589 92.9559 94.3274 93.6185 94.4369 94.3583C94.6669 95.9134 94.461 96.8936 94.3693 97.6C94.2696 98.3672 94.0609 98.8697 93.6355 99.3011C93.1715 99.7717 92.6245 100.372 91.3333 101.979C90.8301 102.605 89.4005 104.239 88.257 105.391C87.5137 106.14 86.3869 106.331 85.4633 106.653C84.6088 106.95 83.5077 107.328 82.2013 107.915C81.4295 108.261 79.9835 108.648 79.0875 108.902C77.5298 109.344 75.0949 109.651 73.4065 110.049C72.9162 110.165 72.293 110.353 71.1605 110.568C69.6381 110.857 67.8607 111.138 66.3202 111.453C65.2639 111.67 63.1194 111.832 60.458 112.084C59.1411 112.209 58.6253 112.323 57.9721 112.431C57.5824 112.495 57.1716 112.549 55.6694 112.552C54.3686 112.555 51.975 112.477 50.3174 112.416C48.6598 112.355 47.8109 112.292 46.9922 112.207C46.1735 112.122 45.4108 112.017 44.3224 111.896C41.8451 111.621 39.731 111.403 38.4838 111.219C36.874 110.982 36.3178 110.879 35.4756 110.584C34.2901 110.169 31.2812 109.787 30.0644 109.506C29.7669 109.438 29.4896 109.341 28.6206 108.977C26.5475 108.109 24.9325 107.462 24.4204 107.265C23.2122 106.8 21.8636 106.791 20.8127 106.603C20.2254 106.498 19.5957 106.051 19.0456 105.602C18.5217 105.175 17.6439 104.26 16.991 103.662C16.3615 103.086 15.3152 103.009 14.8249 102.78C13.841 102.321 12.7944 101.232 12.1792 100.906C11.6571 100.629 11.2035 100.074 10.8262 99.5582C10.347 98.9026 10.1783 97.6135 9.94655 96.629C9.7422 95.7609 10.1096 94.8499 9.90923 94.1059C9.67512 93.2365 9.81239 92.4492 10.0195 91.8998C10.3318 91.0714 11.2022 90.7373 11.4196 90.2335C11.7723 89.4159 12.0539 87.7297 12.4643 86.5094C12.7553 85.6442 14.7971 86.3536 15.654 86.0546C17.624 85.367 18.0615 84.4212 18.3919 83.6462C18.7136 82.8914 18.6137 82.0875 18.8167 81.477C19.0264 80.846 19.9107 80.528 20.8059 80.3032C22.0299 79.9957 23.3133 80.2642 24.5781 80.1831C24.7137 80.2268 24.5239 80.3738 24.3451 80.4852C24.1662 80.5966 24.0041 80.668 23.8371 80.7415" stroke="black" stroke-linecap="round"/>
<path d="M12.834 101.835C12.9443 102.943 13.2572 105.445 13.5767 106.095C14.2381 107.439 14.624 108.111 15.5304 109.422C16.4927 110.813 17.654 111.942 18.3143 112.604C18.6584 112.949 19.2031 113.536 20.6722 114.83C21.6408 115.683 23.1882 116.787 24.3033 117.544C26.0353 118.719 27.3378 119.186 28.8632 119.635C29.8179 119.916 31.1715 120.189 33.2375 120.607C35.3035 121.025 38.0491 121.55 43.4118 121.818C48.7744 122.086 56.6709 122.08 62.202 121.806C67.733 121.531 70.6594 120.987 72.5219 120.611C75.104 120.089 76.4776 119.572 78.009 118.814C78.9093 118.368 79.9749 117.637 81.2616 116.708C82.5484 115.779 84.0023 114.634 85.3835 113.551C86.7647 112.468 88.0291 111.481 88.8398 110.802C90.0064 109.825 90.4721 109.136 90.7804 108.556C91.7163 106.797 91.9159 103.736 92.0715 102.99C92.1272 102.745 92.2204 102.407 92.3883 101.933C92.4898 101.677 92.6241 101.39 92.7685 100.861" stroke="black" stroke-linecap="round"/>
<path d="M12.5921 92.5709C13.6089 91.735 15.4885 90.2017 15.8677 89.6032C16.2604 88.9833 16.0926 88.1647 16.3912 87.7656C16.9651 86.9985 18.5521 86.8983 19.522 86.6014C20.366 86.343 21.3803 85.2656 21.9642 84.5155C22.3636 84.0026 22.28 83.3183 22.6798 82.8436C23.3204 82.0829 24.852 82.0202 28.1585 81.7293C29.2512 81.6331 30.0515 81.38 31.3921 80.9599C35.034 79.8187 35.4285 79.4721 35.7744 79.0677C35.9602 78.8505 36.199 78.6831 36.4705 78.5495C36.7769 78.3986 38.2272 78.3399 40.2007 78.2614C41.0573 78.2273 42.416 78.0957 44.391 77.9624C45.843 77.8644 46.4911 77.4939 47.4869 77.3132C49.4345 76.9598 50.2574 77.5631 52.016 77.8303C53.1155 77.9973 55.1568 77.9723 56.3119 78.0187C57.467 78.0651 57.6852 78.0761 58.6265 78.1354C59.5678 78.1947 61.2254 78.3021 62.8281 78.5431C64.4307 78.784 65.9281 79.1553 66.8997 79.3638C69.3014 79.8791 71.2161 80.2134 72.053 80.554C72.2857 80.6487 73.6615 81.4457 74.6838 81.7868C75.2254 81.9675 76.2563 81.723 77.1297 81.844C77.8198 81.9396 78.3558 82.1452 78.5814 82.2653C79.0084 82.4927 79.184 83.1112 80.1165 83.5005C82.5595 84.5205 83.5616 84.2382 84.3238 84.384C85.0913 84.5308 85.763 84.6299 86.0735 84.7622C86.5657 84.972 86.9326 85.8993 87.4749 86.4076C88.1164 87.009 88.5132 87.1965 88.6327 87.4029C88.8928 87.852 88.6868 88.5355 88.8993 89.1771C89.2855 90.343 89.5142 91.7818 89.717 92.3416C89.8123 92.6048 90.1939 92.6673 90.4194 92.8175C91.0614 93.2452 90.6565 94.7844 90.5278 95.8553C90.3565 97.2798 90.4115 99.0599 90.2679 99.2969C89.8252 100.027 88.6031 100.443 87.7022 100.725C86.7517 101.023 86.1201 101.294 85.3617 101.941C84.804 102.417 84.2423 103.252 83.6595 103.698C83.1954 104.054 81.9432 104.254 79.9072 105.132C78.6669 105.667 77.9376 106.131 77.533 106.221C76.8173 106.38 75.2285 106.299 73.0947 106.394C70.0502 106.53 69.4387 106.956 68.912 107.401C68.3485 107.877 68.0843 108.532 67.3672 108.742C66.5277 108.988 64.4126 108.649 62.0069 108.396C60.0465 108.189 57.6182 108.281 56.4434 108.458C55.3755 108.618 54.1563 108.752 53.1963 108.473C52.6855 108.324 51.435 108.253 49.258 108.212C45.2324 108.137 44.7778 107.886 43.6524 107.77C41.5365 107.551 39.6655 107.698 38.7503 107.549C36.849 107.237 36.5169 106.215 33.4462 105.85C31.9325 105.67 29.589 105.761 28.318 105.759C27.0469 105.757 26.9098 105.771 26.8155 105.704C26.3635 105.382 26.1659 104.839 24.3565 103.985C23.3761 103.522 22.855 102.862 21.866 102.441C20.5681 101.888 19.092 101.711 17.906 101.443C17.1409 101.27 15.6505 99.7455 14.8041 98.8505C14.4566 98.483 14.2428 97.9983 14.1245 97.5119C14.0005 97.0018 14.1013 96.0767 14.1338 95.1555C14.1555 94.5394 13.901 94.0131 13.6482 93.5896C13.5236 93.3811 13.4303 93.1384 13.2432 92.9386C13.1382 92.8485 13.013 92.7814 12.8076 92.7583C12.6022 92.7352 12.3205 92.7582 12.0303 92.7818" stroke="black" stroke-linecap="round"/>
<path d="M17.5947 87.4565C17.5947 87.4594 17.5947 87.4622 17.6271 87.5884C17.6594 87.7146 17.7242 87.964 17.7983 88.1747C17.8725 88.3853 17.9541 88.5495 18.2742 88.9561" stroke="black" stroke-linecap="round"/>
<path d="M13.2944 92.217C13.6766 92.0669 14.9456 91.6199 15.8888 91.1674C18.0526 90.1292 18.8167 89.2677 19.3939 88.8548C20.0495 88.3859 21.1652 87.85 22.0658 87.44C23.0129 87.0089 24.1144 86.1966 25.0045 85.6744C25.6028 85.3234 27.535 84.8753 28.7709 84.4544C29.107 84.2412 29.5554 84.0048 30.0341 83.8201C30.2463 83.7465 30.3958 83.714 30.7345 83.6016" stroke="black" stroke-linecap="round"/>
<path d="M19.4404 94.2271C20.832 93.3669 22.7942 92.0225 23.2701 91.683C23.9971 91.1645 24.564 90.9275 25.3755 90.7058C25.8851 90.5666 26.4596 90.4149 27.1796 90.0987C28.1879 89.6558 29.7851 88.761 31.4892 87.9348C32.6808 87.3405 33.8342 86.7825 36.4768 85.6426C37.0456 85.4296 37.3248 85.3795 37.598 85.3271" stroke="black" stroke-linecap="round"/>
<path d="M28.5581 81.5278C28.7586 81.6372 30.1942 82.1256 32.0927 82.9958C34.7614 84.219 35.1411 84.6209 37.3785 85.5063C38.3739 85.8374 39.8448 86.2091 41.6203 86.6533C42.3386 86.8419 42.686 86.956 43.0288 87.0736" stroke="black" stroke-linecap="round"/>
<path d="M36.0327 79.2817C36.0405 79.2856 37.4732 79.6745 39.9316 80.3525C42.3393 81.0166 43.0144 81.3594 43.8355 81.7802C44.5857 82.212 45.8706 82.9543 46.9231 83.4641C47.1373 83.5628 47.3212 83.6387 47.3945 83.7102" stroke="black" stroke-linecap="round"/>
<path d="M22.0825 84.9912C22.1025 84.9912 22.26 85.023 22.6245 85.1265C22.8418 85.1981 23.1248 85.3086 23.3516 85.3763C23.5785 85.444 23.7406 85.4655 23.9723 85.4979" stroke="black" stroke-linecap="round"/>
<path d="M44.6182 81.742C44.771 81.7016 46.0296 81.1653 47.1737 80.5381C48.0631 80.0505 48.9736 79.9462 49.8676 79.7388C51.5004 79.412 52.277 79.3069 52.76 79.0548C52.8669 78.9605 52.9733 78.8391 53.1582 78.4683" stroke="black" stroke-linecap="round"/>
<path d="M39.5371 79.6162C39.5398 79.6083 39.5425 79.6003 39.7153 79.499C39.8881 79.3978 40.2309 79.2034 40.5862 79.0703C40.9415 78.9371 41.299 78.8709 41.9153 78.7676" stroke="black" stroke-linecap="round"/>
<path d="M32.0342 88.2998C32.0342 88.313 32.0625 88.4449 32.2417 88.7113C33.1859 90.1144 35.9564 90.0721 37.1042 90.2376C38.3541 90.4178 39.5279 90.5733 40.8964 90.8819C42.5648 91.258 43.5103 91.6939 44.4349 92.0671C45.1562 92.3583 45.5961 92.6137 46.1393 92.968C47.0369 93.5535 47.8005 94.1016 48.6513 94.6248C48.9293 94.7745 49.346 94.9733 49.6231 95.1205C49.9002 95.2677 50.0251 95.3573 50.2871 95.5762" stroke="black" stroke-linecap="round"/>
<path d="M24.6699 91.5332C25.1981 91.5558 26.2754 91.5782 27.0668 91.7576C27.8347 91.9318 28.6091 92.657 29.6349 92.9285C30.3485 93.1174 31.5854 93.3664 32.968 93.8428C34.3209 94.309 35.7165 94.4517 37.5698 95.0116C38.1426 95.1846 39.3386 95.4249 40.952 95.7713C42.5909 96.1232 43.8084 97.1449 44.3249 97.67C44.4197 97.7967 44.4765 97.9143 44.5408 98.0233C44.605 98.1323 44.6751 98.2292 44.8524 98.5293" stroke="black" stroke-linecap="round"/>
<path d="M39.0898 90.076C39.0898 90.0709 39.2612 89.9147 40.2278 89.3029C42.3585 87.9544 44.3249 87.0086 45.0533 86.5157C45.7453 86.0474 47.1027 85.3424 49.4557 84.2513C52.6844 82.7541 53.3439 82.5099 54.3209 82.1716C54.84 81.963 55.2169 81.8055 55.4526 81.7217C55.5715 81.6824 55.6894 81.65 55.8206 81.6152" stroke="black" stroke-linecap="round"/>
<path d="M45.6807 91.6542C46.0684 91.3465 47.0906 90.734 48.2513 90.2473C48.7982 90.0179 49.8523 89.5624 51.0974 88.926C51.6817 88.6272 52.4169 88.1306 53.6259 87.4083C54.6827 86.777 55.9004 86.4734 57.0115 86.0757C58.8188 85.2494 60.163 84.4588 60.5944 84.1907C60.7834 84.0764 60.9117 84.0064 61.0635 83.915" stroke="black" stroke-linecap="round"/>
<path d="M38.8397 95.9922C38.3403 96.176 36.2388 97.322 34.8829 98.3586C34.216 98.8685 32.837 99.3681 30.4291 100.108C29.3025 100.455 28.4127 101.15 27.8628 101.51C27.1378 101.984 26.5935 102.499 26.1542 102.841C25.934 102.997 25.7311 103.167 25.5591 103.356C25.4761 103.455 25.402 103.558 25.2241 103.759" stroke="black" stroke-linecap="round"/>
<path d="M31.3795 94.1802C31.2731 94.3065 30.3649 95.0183 29.4175 95.5301C28.0871 96.249 26.2806 96.7567 25.0015 97.2786C24.3371 97.5497 23.4764 97.9798 21.7937 98.904C20.446 99.6442 20.0554 100.327 19.673 100.714C19.5762 100.802 19.4807 100.881 19.3534 100.922C19.2261 100.964 19.0697 100.965 18.8979 100.961" stroke="black" stroke-linecap="round"/>
<path d="M14.1382 92.8706C15.0746 93.0047 17.4753 93.4509 19.8823 94.3682C21.318 95.065 22.1109 95.4014 23.4742 96.4677C23.7743 96.6996 23.9669 96.7936 24.2532 96.9885" stroke="black" stroke-linecap="round"/>
<path d="M15.1753 98.1152C15.7134 98.288 17.1893 98.8614 17.8575 99.3624C18.0898 99.5466 18.3438 99.6874 18.666 99.8278C18.8428 99.9069 19.0463 100.002 19.4772 100.247" stroke="black" stroke-linecap="round"/>
<path d="M30.689 100.386C31.3705 100.617 32.9582 101.212 33.6884 101.463C35.4895 102.081 37.2351 102.044 38.8695 102.547C42.0055 103.513 42.748 104.699 43.3825 105.148C44.1825 105.714 45.213 105.836 45.7295 106.055C46.2825 106.296 46.8954 106.729 47.3832 107.125C47.4876 107.21 47.5835 107.291 47.5216 107.429" stroke="black" stroke-linecap="round"/>
<path d="M25.502 103.907C25.8633 104.016 26.509 104.302 27.4987 104.591C27.7489 104.655 27.9367 104.703 28.0914 104.745C28.2461 104.786 28.3622 104.821 28.607 104.906" stroke="black" stroke-linecap="round"/>
<path d="M40.439 102.278C40.7075 102.148 41.3993 101.836 43.7496 100.587C44.7418 100.06 45.4115 99.2522 46.5263 98.5893C48.2056 97.5907 48.7113 97.2972 49.3135 97.0668C50.1729 96.7381 51.0339 96.092 52.8708 94.3787C54.0358 93.2922 54.6051 93.0336 55.0313 92.7171C55.2203 92.5367 55.4172 92.3752 55.6428 92.2515C55.7676 92.1914 55.9133 92.1366 56.278 92.02" stroke="black" stroke-linecap="round"/>
<path d="M46.0981 105.778C46.3769 105.647 48.1115 104.476 49.5306 103.159C50.9095 101.88 52.0807 100.883 53.3715 100.076C55.1791 98.9465 55.9757 98.8688 57.9985 97.9513C59.8887 97.0939 60.4471 96.2688 61.0356 95.8533C61.7296 95.4566 62.4682 95.0731 62.6901 94.9389C62.7982 94.8689 62.8971 94.795 63.2383 94.5703" stroke="black" stroke-linecap="round"/>
<path d="M51.2783 89.479C51.3774 89.5623 51.916 89.8427 56.8081 91.3276C58.349 91.7953 59.3293 92.2079 60.7453 92.9844C61.9558 93.6482 64.2787 94.6173 65.7388 95.1253C66.6521 95.4255 67.4397 95.7569 67.857 95.9465C68.0344 96.0274 68.142 96.0772 68.2247 96.1164" stroke="black" stroke-linecap="round"/>
<path d="M56.7671 86.6221C56.8452 86.6912 57.8577 87.147 60.2566 88.0007C63.4513 89.1377 65.5652 89.3333 65.8084 89.3793C66.0484 89.4247 67.2455 90.0548 69.0147 91.0307C70.4423 92.1361 71.0069 92.7165 71.2165 92.8666C71.3259 92.9301 71.4413 92.9679 71.4229 92.7539" stroke="black" stroke-linecap="round"/>
<path d="M51.5942 79.8862C51.6771 80.0069 52.4314 80.364 53.9169 80.6627C56.0926 81.1001 57.3567 81.8171 57.9776 82.0856C58.4473 82.2888 59.8206 82.5707 61.8097 82.9625C64.3941 83.4715 65.0407 84.0614 65.7021 84.6603C66.3103 85.3354 66.6726 85.5676 66.9632 85.6926C67.1146 85.7537 67.2738 85.81 67.4932 85.9845" stroke="black" stroke-linecap="round"/>
<path d="M62.374 78.6396C62.6231 78.9217 64.1273 80.0366 66.2038 81.1221C67.3166 81.7038 68.3025 81.678 69.0113 81.9691C69.3591 82.1642 69.872 82.385 70.5258 82.6273C70.8398 82.7552 71.1179 82.8931 71.4642 83.2385" stroke="black" stroke-linecap="round"/>
<path d="M65.9458 80.5362C65.9647 80.5362 66.3117 80.3881 66.9125 80.0964C67.176 79.9528 67.3555 79.8182 67.4982 79.7158C67.641 79.6133 67.7416 79.5472 67.8611 79.479" stroke="black" stroke-linecap="round"/>
<path d="M63.4854 88.4633C64.1453 87.894 66.0561 86.7381 67.1928 86.1023C67.9657 85.67 68.7218 85.267 69.2479 85.0254C70.2228 84.5776 71.9857 83.5703 73.4414 82.722C73.6976 82.5851 73.8276 82.5094 73.9563 82.444C74.0849 82.3787 74.2083 82.3259 74.4683 82.2144" stroke="black" stroke-linecap="round"/>
<path d="M69.1562 90.6417C69.6164 90.4657 71.0785 89.9162 73.3668 88.9978C75.3432 88.2044 76.3489 87.5147 77.07 86.9018C77.6265 86.4053 78.5697 85.5322 79.2136 84.9559C79.8575 84.3796 80.1734 84.1267 80.7713 83.6787" stroke="black" stroke-linecap="round"/>
<path d="M51.6841 101.816C52.0415 102.062 52.4875 102.337 53.3265 102.701C54.7424 103.316 56.9263 103.822 58.8856 104.366C60.2656 104.749 61.2855 105.174 62.2961 105.502C63.9038 106.024 65.5874 106.564 66.4864 107.095C66.7517 107.277 66.9212 107.47 67.0851 107.688C67.1798 107.787 67.2977 107.863 67.1427 107.888" stroke="black" stroke-linecap="round"/>
<path d="M57.4238 98.2642C57.7894 98.4228 59.8162 99.1175 61.8752 99.7829C62.6576 100.036 64.2515 100.448 66.3291 101.058C68.4619 101.684 69.5678 102.346 71.5816 103.451C72.5492 103.982 73.3616 104.635 73.7696 104.984C74.315 105.292 74.9395 105.593 74.9596 105.62C74.7773 105.573 74.2041 105.401 73.6137 105.224" stroke="black" stroke-linecap="round"/>
<path d="M53.4507 108.196C53.6996 107.951 54.7441 107.069 55.786 106.356C56.4073 105.931 56.9192 105.504 57.3375 105.165C57.4485 105.093 57.5577 105.037 57.7061 104.977C57.8545 104.918 58.0388 104.858 58.2394 104.796" stroke="black" stroke-linecap="round"/>
<path d="M65.3327 106.955C65.2827 107.015 65.1462 107.126 64.8742 107.297C64.7128 107.387 64.5041 107.485 64.3272 107.585C64.1502 107.684 64.0115 107.782 63.8228 107.942" stroke="black" stroke-linecap="round"/>
<path d="M64.543 99.7739C65.7421 98.7022 67.7991 96.7028 68.7111 95.844C69.0993 95.4786 69.8902 95.1432 72.4518 93.3553C73.8967 92.436 75.3306 91.5185 75.9676 91.1823C76.1577 91.0949 76.4193 90.9857 76.8214 90.8418" stroke="black" stroke-linecap="round"/>
<path d="M74.5225 88.9492C74.8975 89.2039 76.1408 89.6522 77.1811 89.9002C77.8359 90.0563 79.1587 90.4246 80.7551 90.8833C81.7632 91.173 83.028 91.4263 84.4647 91.8263C85.9023 92.5111 87.2017 93.3623 87.7876 93.6737C88.0424 93.8042 88.2108 93.8787 88.3056 93.9225" stroke="black" stroke-linecap="round"/>
<path d="M79.1006 85.5171C79.2439 85.7622 79.6992 86.0478 80.9053 86.3388C82.5681 86.63 83.7642 86.8353 84.622 87.063C85.3452 87.2643 86.6531 87.6399 88.1183 87.9741" stroke="black" stroke-linecap="round"/>
<path d="M85.528 85.4307C85.4929 85.4307 85.3359 85.4796 85.0804 85.6016C84.964 85.6745 84.8742 85.77 84.7787 85.8823C84.6831 85.9946 84.5843 86.1208 84.4492 86.2896" stroke="black" stroke-linecap="round"/>
<path d="M70.7656 102.703C71.1629 102.124 71.8879 101.276 73.0229 100.55C73.7063 100.114 74.5543 99.5865 75.4678 98.69C76.6481 97.5316 77.3366 96.5123 77.669 96.2291C78.267 95.7673 80.0423 94.5198 82.2192 93.0371C82.9965 92.5188 83.1091 92.4758 83.5334 92.3423" stroke="black" stroke-linecap="round"/>
<path d="M79.6094 95.9731C80.5114 96.2668 82.9417 97.1129 83.9801 97.6344C85.2062 98.2501 87.1345 98.9533 87.7124 99.215C88.0286 99.306 88.6448 99.4027 89.1191 99.498C89.1553 99.5341 88.7762 99.5449 88.3856 99.5561" stroke="black" stroke-linecap="round"/>
<path d="M73.6963 99.7451C74.6261 99.8878 77.3544 100.576 78.8687 101.112C80.5437 101.705 81.2755 102.24 81.8012 102.536C82.4697 102.843 82.8311 103.108 82.9215 103.279C82.9101 103.343 82.7824 103.36 82.6382 103.377" stroke="black" stroke-linecap="round"/>
<path d="M79.9434 101.952C79.584 102.135 78.8765 102.578 77.7383 103.255C76.8949 103.927 76.2467 104.485 75.971 104.698C75.8261 104.811 75.6712 104.936 75.5044 104.916" stroke="black" stroke-linecap="round"/>
<path d="M84.9155 97.757C85.3647 97.3857 87.0696 95.8033 87.8921 95.0336C88.2888 94.6866 88.911 94.2135 89.5311 93.7502C89.7602 93.5546 89.816 93.439 89.7489 93.0176" stroke="black" stroke-linecap="round"/>
<path d="M13.8609 87.7739C13.8496 87.7778 13.8383 87.7816 13.7243 87.9144C13.6102 88.0471 13.3937 88.3087 13.6577 88.3415C13.9216 88.3744 14.6724 88.1707 14.9999 88.1135C15.3274 88.0563 15.2087 88.1519 14.9591 88.3185C14.34 88.7316 13.8247 89.0673 13.6178 89.2836C13.52 89.3858 13.4767 89.507 13.5064 89.5916C13.5724 89.7795 13.9934 89.7835 14.224 89.8356C15.028 90.0172 12.7289 90.5927 12.3044 91.2241C11.5045 92.4139 11.1569 92.6953 10.9515 92.9039C10.8537 93.0033 10.7769 93.0972 11.0102 93.0525C11.2436 93.0079 11.7914 92.8238 12.0424 92.7817C12.2387 92.7487 11.7209 93.5015 11.0118 94.3874C10.7442 94.7217 10.6818 94.8365 11.0855 94.7767C11.4891 94.7168 12.3653 94.4826 12.7299 94.4479C13.0945 94.4133 12.921 94.5852 12.6891 94.7874C12.1826 95.2288 11.761 95.5711 11.7452 95.7248C11.7342 95.831 12.1711 95.6993 12.3584 95.7301C12.5457 95.761 12.5862 95.8829 12.4867 96.1071C12.2251 96.6962 11.6812 97.2149 11.4697 97.5653C11.1293 98.1291 12.5943 98.0085 13.4785 98.8324C13.7499 99.0853 14.0559 99.3041 13.9894 99.2663C12.7128 98.54 12.055 97.8648 11.7291 97.0515C11.159 95.6288 13.3957 100.141 14.5236 101.268C14.8696 101.613 15.236 101.703 15.4108 101.721C17.0008 101.886 12.1413 98.1426 11.9468 97.7193C11.727 97.2411 12.3767 98.8726 13.4827 100.385C14.222 101.395 15.9663 102.094 17.6648 102.73C17.8449 102.797 17.7102 102.54 17.587 102.401C17.3838 102.171 17.1368 101.978 17.0125 101.829C16.8957 101.69 17.7335 102.154 19.2425 102.596C22.1454 103.446 23.8666 103.688 23.5022 103.603C22.7763 103.435 22.0195 103.481 21.8659 103.517C21.6855 103.559 22.6232 104.437 22.7657 105.044C23.3169 107.391 18.6909 103.891 18.9332 104.071C20.7071 105.393 23.9083 106.12 23.5719 105.909C22.4127 105.179 20.9207 104.933 20.4851 104.517C20.2437 104.287 19.9656 104.168 19.843 104.142C19.724 104.116 21.3423 104.663 23.7428 105.291C25.6413 105.787 26.7613 105.891 27.8249 106.146C28.6492 106.345 30.0204 106.8 30.214 107.002C30.4076 107.203 29.3742 107.169 28.9531 107.177C28.7454 107.182 30.8003 107.427 33.0349 107.664C33.4632 107.709 32.4178 107.836 31.9905 107.931C30.1946 108.334 36.0574 108.797 36.1156 108.913C36.7252 110.127 41.526 109.024 42.658 109.217C43.79 109.411 41.8782 109.742 42.8452 109.89C43.8123 110.037 47.7161 109.992 48.3572 110.106C48.9983 110.219 46.2584 110.493 47.0781 110.421C47.8977 110.349 52.3599 109.922 54.557 109.76C56.754 109.597 56.5507 109.71 55.847 110.011C55.1433 110.313 53.9455 110.799 53.5894 111.036C53.2334 111.273 53.7554 111.246 53.9545 111.232C54.1536 111.218 54.0138 111.218 53.8698 111.218" stroke="#D47E00" stroke-linecap="round"/>
<path d="M25.2939 106.633C25.301 106.633 27.2185 106.924 30.7633 107.403C33.67 107.795 35.1623 107.84 35.5947 108.09C35.8744 108.252 36.2946 108.452 37.2535 108.699C38.2124 108.945 39.7021 109.224 43.5008 109.481C47.2994 109.738 53.362 109.964 56.5461 110.092C59.8526 110.224 61.3001 110.185 61.876 110.342C62.6305 110.547 58.2735 111.115 57.6416 111.207C56.5689 111.363 60.9995 110.499 61.0443 110.45C62.5326 108.815 57.1598 110.338 57.3093 110.068C57.6208 109.505 58.8223 109.415 60.1509 109.292C62.5761 109.069 65.0164 109.266 65.9531 109.318C66.1649 109.329 65.0642 109.784 64.9805 110.15C64.783 111.016 68.6329 110.075 70.1385 109.979C71.8061 109.872 72.1133 109.721 72.4297 109.49C72.8337 109.196 73.0841 108.836 73.2298 108.602C73.301 108.488 73.3186 108.355 73.2736 108.233C73.2286 108.111 73.1082 107.996 72.966 107.935C72.6815 107.814 71.6862 108.332 71.1453 108.675C70.8955 108.834 72.7946 107.842 73.2868 107.744C73.7791 107.646 73.3435 108.184 73.2463 108.457C74.724 108.425 77.2144 107.703 77.8432 107.422C78.131 107.283 78.355 107.15 78.6495 106.907" stroke="#D47E00" stroke-linecap="round"/>
<path d="M78.4268 107.071C78.4268 107.086 78.4268 107.102 78.4768 107.156C79.0533 107.78 81.2752 106.109 82.0844 105.47C82.2341 105.352 82.3064 105.168 82.318 105.141C82.3595 105.045 81.2634 106.186 79.7653 107.566C79.1848 108.101 78.9504 108.279 79.7403 107.7C80.5302 107.122 82.3467 105.776 83.1959 105.24C84.0451 104.705 83.8719 105.02 83.5488 105.495C83.2257 105.971 82.758 106.596 82.5815 106.813C82.405 107.029 82.5338 106.818 83.6366 105.564C84.7394 104.31 86.8123 102.019 87.8615 101.042C88.9107 100.066 88.8733 100.473 88.6962 101.328C88.5191 102.183 88.2033 103.473 88.2923 103.534C89.3581 104.261 89.5791 100.823 89.8458 100.45C90.2007 99.9548 89.581 102.285 89.2442 103.407C89.2234 103.476 90.2434 101.417 91.707 98.591C92.2278 97.5855 92.2777 97.4397 92.2365 97.9434C92.1953 98.4472 92.0563 99.6023 92.1544 99.3827C92.2525 99.1631 92.592 97.5339 92.7462 97.1515C92.9004 96.7691 92.8591 97.6829 92.6823 97.3295C91.76 95.4871 91.8227 93.4846 91.7439 93.3745C91.595 93.1664 91.7458 94.0512 91.8293 94.23C92.5493 95.7725 91.8056 89.5794 91.7419 89.23C91.7062 89.0343 92.084 90.3424 92.2328 90.7496C92.3816 91.1567 92.3974 91.0173 92.4055 90.8838C92.4378 90.3532 92.3017 89.8184 91.9221 89.0107C91.8601 88.8788 92.3111 91.018 92.9706 93.4444C93.1241 94.0089 93.2344 94.7439 93.1876 96.3297C92.395 97.5643 91.8538 98.039 91.5511 98.2535C91.4068 98.364 91.2812 98.4781 91.1518 98.5957" stroke="#D47E00" stroke-linecap="round"/>
<path d="M84.1948 106.587C84.6622 106.224 85.1295 105.861 85.6186 105.466C86.1077 105.072 86.6044 104.657 86.9185 104.405C87.2326 104.153 87.3491 104.077 87.4332 103.641" stroke="#D47E00" stroke-linecap="round"/>
<path d="M15.1592 87.4281C15.3583 87.2905 16.6424 86.6392 18.5044 85.689C20.1085 84.8703 20.6533 83.1461 20.7265 82.9035C20.7738 82.7468 20.4328 83.2998 20.4074 83.2158C20.3451 83.0101 20.6119 82.4543 20.7741 82.1532C21.0957 81.8178 21.5756 81.7944 22.1227 81.6774C22.2394 81.6011 22.3351 81.4725 22.5393 81.2002" stroke="#D47E00" stroke-linecap="round"/>
<path d="M21.7662 82.0361C21.4133 82.3233 20.4886 82.7617 19.9268 83.0883C19.6716 83.2366 19.7494 83.5966 19.7751 83.8393C19.7883 83.9638 19.8322 84.0868 19.9175 84.1887C20.0983 84.4047 20.6534 84.4326 21.2769 84.3615C21.52 84.3027 21.6143 84.198 21.6977 84.0706C21.781 83.9432 21.8505 83.7963 22.0779 83.437" stroke="#D47E00" stroke-linecap="round"/>
<path d="M23.4683 81.2443C24.4137 81.2902 26.7307 81.3134 26.6006 81.3066C26.0483 81.2778 24.5203 81.5681 24.1305 81.4944C22.4951 81.185 26.1894 80.0571 26.4446 79.5086C26.5104 79.3673 26.5101 79.1714 26.5213 79.3209C26.5691 79.9579 26.6163 80.6007 26.8694 80.8118C27.3693 81.2288 28.026 80.7107 28.6539 80.3179C29.0394 80.0768 29.2908 79.7092 29.4181 79.5526C29.5131 79.4356 29.2599 79.9759 29.3146 80.1909C29.4837 80.8552 31.1053 80.0791 32.0791 79.7318C32.5621 79.5595 32.9291 79.1749 33.1926 78.8403C33.3061 78.6961 33.3095 78.5556 33.3028 78.4293C33.296 78.303 33.2613 78.1828 33.1736 78.1464C32.9633 78.0592 32.6502 78.3533 32.3809 78.6205C32.2579 78.7425 32.1873 78.8608 32.2163 78.9618C32.2453 79.0628 32.3824 79.149 32.5153 79.1652C32.6481 79.1814 32.7727 79.125 32.8851 79.0341C32.9975 78.9431 33.094 78.8193 33.101 78.7047C33.108 78.5901 33.0226 78.4885 32.8705 78.4259C32.1768 78.1405 31.3466 78.4769 30.4863 78.8301C30.0622 79.0042 29.7575 79.2983 29.5616 79.5385C29.4715 79.6491 29.5115 79.8078 29.6013 79.885C30.4101 80.5805 33.3439 79.3547 35.0142 78.719C35.993 78.3464 36.4818 77.6295 36.7328 77.1286C36.9859 76.6237 37.1695 76.0711 37.2627 75.7161C37.4149 75.1365 38.2844 76.6451 39.0635 76.9739C39.899 77.3265 41.1571 77.2451 41.5186 77.1865C42.1123 77.0901 39.6343 76.6051 39.0108 76.6855C37.4691 76.8844 43.5718 76.9618 44.8573 76.6166C45.098 76.552 45.1192 76.3636 45.0979 76.2375C45.0767 76.1113 44.9906 75.998 44.8653 75.9224C44.74 75.8468 44.5781 75.8124 44.4193 75.8091C44.2605 75.8057 44.1097 75.8346 44.1335 75.9045C44.6043 77.2884 47.9469 75.9116 48.4494 75.672C48.5451 75.6264 48.4321 75.441 48.2986 75.3698C47.9943 75.2073 47.5596 75.3692 47.2398 75.5459C47.0993 75.6236 47.0585 75.7614 47.0597 75.9019C47.061 76.0424 47.1199 76.2031 47.2058 76.3251C47.5687 76.8404 48.5594 76.8244 49.7782 76.7707C50.3862 76.7439 50.8119 76.565 51.072 76.4392C51.1964 76.379 51.276 76.2723 51.314 76.1501C51.3945 75.8911 51.215 75.6004 51.0004 75.3708C50.5069 74.843 49.6376 74.7093 49.4192 74.7853C49.1053 74.8945 49.2017 75.4219 49.3052 75.7602C49.4616 76.2716 49.9338 76.5577 50.2512 76.7029C50.9212 77.0094 51.5767 76.8848 51.81 76.8097C52.0362 76.7369 52.1212 76.3387 52.1681 75.8943C52.2082 75.5145 52.0959 75.2033 51.9802 75.069C51.9361 75.0178 51.8275 75.1918 51.8005 75.3169C51.7489 75.5564 51.9183 75.811 52.1306 76.0874C52.7178 76.852 53.9307 76.91 54.6796 76.8308C54.8226 76.8156 54.9144 76.7002 55.0587 76.7311C55.8473 76.9001 56.8878 77.1076 57.5633 76.9809C57.572 76.9356 57.4252 76.8812 57.2875 76.8463C57.1498 76.8114 57.0257 76.7975 56.7967 76.7726" stroke="#D47E00" stroke-linecap="round"/>
<path d="M56.7764 76.6875C56.8546 76.6763 58.8162 76.7233 61.8474 76.8184C62.9575 76.8533 63.1977 76.8914 63.0047 76.7902C62.2149 76.3761 60.0537 75.848 57.8931 75.3414C57.2087 75.1809 57.3429 75.2982 57.7919 75.5093C59.9034 76.5016 60.8593 76.9308 61.8526 77.5507C63.2391 78.4161 64.0973 78.1706 64.6617 78.1333C64.8787 78.119 64.9364 77.9837 64.8828 77.8445C64.6084 77.1311 63.6038 76.9667 62.9248 76.7445C62.0772 76.4672 66.5455 78.3429 67.7406 78.5428C68.4757 78.6658 66.2554 77.5078 66.1964 77.4277C65.9555 77.1003 67.9027 77.7569 69.373 78.0383C69.8635 78.1321 69.8649 77.9037 69.8259 77.7513C69.6641 77.1176 69.0667 76.7752 68.8614 76.7043C68.6848 76.6433 68.8281 77.148 68.9418 77.4049C69.2535 78.109 70.4025 78.7357 71.496 79.3146C71.9276 79.543 72.2965 79.5514 72.4685 79.4742C72.6838 79.3778 72.3538 78.9271 72.1114 78.6555C71.9115 78.4317 71.6165 78.2844 71.3985 78.2166C71.007 78.0947 72.0236 79.0759 73.5429 79.9797C74.2454 80.3976 74.7539 80.4778 74.9809 80.4532C75.0886 80.4415 75.1498 80.3103 75.153 80.1785C75.1561 80.0468 75.0913 79.8875 75.028 79.8821C74.8364 79.8655 74.8538 80.3126 74.9073 80.5933C74.9743 80.9449 75.2446 81.2348 75.5381 81.4198C75.8076 81.5896 76.1225 81.4974 76.3381 81.4021C76.4442 81.3552 76.5057 81.2426 76.5396 81.0706C76.6204 80.6601 76.497 80.2609 76.3811 80.1077C76.3497 80.0661 76.2978 80.2096 76.3448 80.386C76.5706 81.2332 77.3317 81.5254 77.9965 81.7775C78.1668 81.842 78.3505 81.8427 78.4937 81.8217C78.6369 81.8007 78.741 81.7363 78.8165 81.6409C79.1906 81.1679 78.9201 80.288 78.7498 79.7803C78.3554 78.604 81.4137 82.0904 83.093 82.8212C83.4394 82.972 83.6123 82.9902 83.7459 82.9722C83.8794 82.9542 83.9764 82.8795 83.9385 82.7692C83.8304 82.4553 83.4246 82.316 83.2527 82.2973C83.0986 82.2805 83.3739 82.7642 83.6752 83.1192C84.2851 83.8379 85.7367 84.1456 87.0276 84.3819C87.0552 84.3869 86.841 84.544 86.7879 84.8201C86.731 85.1164 87.0878 85.4384 87.4632 85.7052C87.9186 86.0289 88.3367 85.9631 88.5394 86.078C88.8547 86.2567 88.8116 86.8335 89.0116 87.168C89.4729 87.9393 90.828 88.2813 91.2855 88.6496C90.78 89.8549 90.6485 90.333 90.2687 90.608C89.9002 90.7411 89.1751 90.8612 88.4279 90.9849" stroke="#D47E00" stroke-linecap="round"/>
<path d="M14.5532 103.843C14.5451 103.851 14.3536 104.077 14.142 104.402C14.0625 104.524 14.9036 104.33 15.5731 104.2C15.7197 104.172 15.1669 104.638 14.825 104.889C14.6711 105.002 15.9925 105.086 17.387 105.067C17.7137 105.063 16.6039 105.837 15.8871 106.455C15.6974 106.619 17.38 106.489 17.9825 106.478C18.585 106.467 18.4447 106.582 18.0037 106.796C17.5627 107.011 16.8252 107.322 16.9877 107.442C17.1502 107.561 18.235 107.48 18.2348 107.693C18.2345 107.906 17.1162 108.414 17.5277 108.537C17.9393 108.66 19.9144 108.382 20.8768 108.272C21.8392 108.162 21.729 108.229 20.715 108.569C19.7009 108.909 17.7864 109.521 17.0061 109.801C16.2258 110.081 16.6378 110.009 17.0625 109.931" stroke="#D47E00" stroke-linecap="round"/>
<path d="M21.8947 109.143C21.8877 109.143 20.1822 109.596 18.8071 110.053C16.1776 110.928 24.236 109.048 24.4437 109.028C24.7875 108.993 22.1167 110.289 21.1485 111.157C20.5041 111.735 25.6303 110.421 27.2539 110.14C28.8775 109.86 28.3979 110.097 27.1195 110.586C25.8411 111.074 23.7784 111.805 22.7853 112.19C21.7922 112.576 21.9312 112.593 23.8673 112.341C25.8034 112.089 29.5323 111.567 29.8865 111.721C30.2406 111.875 27.1068 112.721 25.3546 113.219C23.3268 113.841 22.962 114.06 22.9016 114.218C22.922 114.286 23.0458 114.327 23.3002 114.356" stroke="#D47E00" stroke-linecap="round"/>
<path d="M29.5719 112.762C27.8147 113.514 24.9252 114.974 24.805 115.185C24.7442 115.291 24.6336 115.364 26.7105 115.079C28.7873 114.793 33.0421 114.138 35.1396 113.847C37.2372 113.556 37.0485 113.649 35.2483 114.072C33.4482 114.495 30.0422 115.246 28.2179 115.659C26.3936 116.072 26.2541 116.124 26.1276 116.193C26.0011 116.261 25.892 116.345 28.6133 116.266C31.3347 116.187 36.8899 115.942 38.1325 116.132C36.1369 116.954 32.7305 117.709 32.5734 117.931C32.4864 118.05 32.3845 118.183 32.415 118.293" stroke="#D47E00" stroke-linecap="round"/>
<path d="M32.3199 111.95C32.2852 111.962 31.5109 112.473 30.4456 113.242C30.1154 113.481 30.2981 113.519 31.5827 113.361C32.8672 113.202 35.2701 112.874 36.658 112.649C38.046 112.425 38.3462 112.314 38.459 112.342C38.6535 112.39 37.634 113.244 37.818 113.91C38.7889 117.427 44.102 113.646 43.73 113.955C43.2188 114.378 41.0842 115.087 38.5127 115.966C37.6856 116.249 37.851 116.263 40.4702 115.914C43.0895 115.566 48.1632 114.87 50.6876 114.601C53.2119 114.331 53.033 114.508 52.6069 114.774C52.1808 115.041 51.513 115.391 50.0702 115.943C48.6275 116.495 46.4301 117.239 44.0994 118.08" stroke="#D47E00" stroke-linecap="round"/>
<path d="M45.0736 116.434C45.0068 116.483 44.94 116.531 43.7222 116.777C42.5043 117.022 40.1374 117.463 38.8021 117.73C37.4669 117.997 37.235 118.077 37.0863 118.188C36.8258 118.383 36.724 118.707 36.7592 118.91C36.7851 119.06 37.2473 119.021 38.5722 118.938C42.1818 118.712 44.3854 118.544 43.7687 118.842C43.3031 119.068 42.4931 119.369 42.1843 119.556C41.8754 119.743 42.0835 119.789 44.17 119.52C46.2565 119.252 50.2151 118.668 51.9923 118.66C53.7696 118.652 53.2454 119.237 52.9727 119.48C52.7 119.722 52.6948 119.603 52.6893 119.48" stroke="#D47E00" stroke-linecap="round"/>
<path d="M53.5784 114.592C52.9647 115.424 51.7742 116.66 51.9814 117.176C52.3989 118.215 56.1271 115.473 57.6608 114.823C59.1946 114.173 59.1051 114.327 58.2776 115.04C57.4501 115.754 55.8873 117.021 56.3898 117.012C56.8923 117.002 59.5074 115.679 60.8212 115.072C62.1349 114.466 62.0681 114.616 61.3035 115.418C60.5389 116.219 59.0786 117.666 58.0474 118.613C57.0162 119.561 56.4583 119.965 56.2401 120.112C56.171 120.159 58.1336 119.139 61.0023 117.787C62.037 117.299 62.2323 117.248 62.2939 117.309C62.094 117.906 59.6435 120.547 58.8351 121.378C58.9283 121.259 58.9887 121.145 59.051 121.027" stroke="#D47E00" stroke-linecap="round"/>
<path d="M65.4633 113.555C64.761 114.413 62.6504 116.417 63.2093 116.383C64.5669 116.3 67.6459 114.2 69.2825 113.417C70.9191 112.635 70.9026 112.752 70.8208 112.981C70.2986 114.438 68.5119 116.315 67.2304 117.478C67.1203 117.578 67.2438 117.493 68.6448 116.831C70.0457 116.168 72.7209 114.93 74.0632 114.352C75.4055 113.774 75.3337 113.893 75.0975 114.186C74.4779 114.955 73.2884 116.035 71.9409 117.079C71.0199 117.792 69.8996 118.238 68.5708 118.714C67.3461 119.04 66.1969 119.235 65.3933 119.244C65.1402 119.185 65.2011 118.996 65.2947 118.755" stroke="#D47E00" stroke-linecap="round"/>
<path d="M65.3467 117.683C65.0952 117.801 63.2818 118.725 60.9217 119.913C60.6487 120.05 63.0383 118.956 66.0871 117.846C67.1018 117.477 67.1048 117.708 67.0099 117.995C66.7398 118.67 66.4746 119.181 66.635 119.176C66.88 119.06 67.4573 118.714 68.052 118.358" stroke="#D47E00" stroke-linecap="round"/>
<path d="M74.0061 111.769C73.5331 112.408 73.06 113.046 72.7684 113.451C72.4767 113.855 72.3808 114.006 73.7026 113.447C75.0244 112.887 77.7669 111.613 79.2571 110.904C80.7472 110.195 80.902 110.091 80.9329 110.147C81.3028 110.817 79.1844 112.612 77.7273 114.482C77.5366 114.727 79.9253 113.675 81.8667 112.988C82.4852 112.769 82.4296 113.047 82.3224 113.249C81.593 114.129 80.6175 114.949 79.3947 115.545C78.4576 115.958 76.8778 116.594 75.2662 117.249" stroke="#D47E00" stroke-linecap="round"/>
<path d="M77.5378 114.576C76.1246 115.489 73.1175 117.314 72.6982 117.504C71.7655 117.927 75.4221 116.449 75.7258 116.464C76.3534 116.495 75.1963 117.654 74.988 117.889C75.143 117.74 75.6213 117.322 76.2536 116.846C76.5824 116.611 76.9273 116.391 77.2827 116.163" stroke="#D47E00" stroke-linecap="round"/>
<path d="M83.48 109.195C82.6322 109.667 80.7277 110.798 80.3215 111.149C80.2365 111.223 81.9103 110.803 83.9585 110.278C84.6384 110.104 84.6378 110.349 84.5667 110.599C84.4052 111.165 84.1212 111.594 84.0099 111.746C83.5083 112.43 85.9436 110.835 86.123 110.844C85.7899 111.595 85.1143 112.592 85.0118 112.689C84.9942 112.678 85.0467 112.543 85.1008 112.404" stroke="#D47E00" stroke-linecap="round"/>
<path d="M87.2022 107.231C87.1266 107.369 86.7457 108.138 86.2917 109.153C85.5641 110.781 90.7842 106.103 90.8199 106.154C90.2353 107.328 89.8234 108.006 89.5828 108.237C89.4131 108.345 89.1467 108.436 88.8722 108.53" stroke="#D47E00" stroke-linecap="round"/>
<path d="M16.0498 92.0718C16.1153 92.0073 16.682 91.6771 18.3356 90.9408C21.0659 89.7249 23.0226 89.2691 23.3274 89.0915C24.4816 88.419 26.0927 87.7085 27.375 86.8491C28.3984 86.1632 30.0274 84.896 30.8199 84.4847C31.3984 84.1846 27.3588 85.0245 26.2032 85.6236C23.7942 86.8725 23.3317 87.811 21.783 88.5483C20.7683 89.0313 20.4324 89.4809 19.6185 90.0696C19.014 90.5069 18.63 91.3285 18.3879 91.9135C18.3036 92.1173 18.7306 92.2596 19.0123 92.3359C19.4866 92.4644 20.3403 91.6255 23.95 90.0487C24.8611 89.6508 25.4547 89.3357 27.1328 88.6204C28.8109 87.9051 31.5525 86.7923 32.9805 86.1394C34.4085 85.4865 34.4399 85.3273 34.3799 84.8153" stroke="#D47E00" stroke-linecap="round"/>
<path d="M33.3579 82.0146C33.4023 82.0295 34.8414 82.5834 37.5352 83.7171C39.9864 84.7487 41.4141 85.7438 41.9199 85.9747C41.922 85.8735 41.6911 85.6592 41.4434 85.4412C41.295 85.2982 41.1007 85.0897 40.9005 84.8749" stroke="#D47E00" stroke-linecap="round"/>
<path d="M33.7427 81.614C33.8264 81.6558 33.91 81.6977 35.0311 82.0741C36.1521 82.4505 38.308 83.1602 39.5847 83.6194C40.8613 84.0786 41.1933 84.2658 41.4462 84.427C41.6991 84.5881 41.8629 84.7175 41.433 84.3684C39.9763 83.1854 37.986 81.7613 36.6358 80.9327C36.3272 80.7433 38.6066 81.6299 41.9776 82.9245C43.3787 83.5148 43.9387 83.9149 44.448 84.2866C44.5948 84.3745 44.515 84.2581 44.2782 83.8462" stroke="#D47E00" stroke-linecap="round"/>
<path d="M44.7623 79.1539C44.5023 79.3036 44.0012 79.7429 43.3483 80.1711C43.2584 80.23 43.44 79.6832 43.4474 79.4868C43.4547 79.2905 43.3195 79.3047 43.15 79.3838C42.9804 79.4629 42.7807 79.6063 42.6019 79.7529C42.4232 79.8995 42.2713 80.045 42.7114 79.9555C43.1514 79.866 44.188 79.537 44.6826 79.4321C45.0901 79.3456 44.8214 79.7777 45.4313 79.7888C48.149 79.8381 49.8105 78.5455 49.5538 78.6334C49.4054 78.6719 49.2202 78.6979 48.814 78.7062C48.4078 78.7146 47.7863 78.7046 47.4422 78.5781" stroke="#D47E00" stroke-linecap="round"/>
<path d="M55.4854 79.1142C55.9882 79.3729 56.491 79.6315 57.9385 80.0452C59.386 80.4588 61.763 81.0197 63.1819 81.3852C65.8583 82.0746 67.4835 83.212 68.2491 83.6693C68.3649 83.7384 68.4452 83.8581 68.1527 83.7177C67.1546 83.2384 65.6507 82.4993 64.1318 81.9976C62.9211 81.5978 61.366 81.3206 59.7344 80.8694C57.9479 80.3755 56.2917 80.0736 55.6756 79.7688C55.5856 79.7242 55.6925 79.5552 55.785 79.4758C56.8634 78.5499 59.5996 79.3651 60.3014 79.4866C61.5519 79.7031 62.6155 80.2157 65.3232 81.8761C66.3093 82.4009 67.9971 83.1867 69.3382 83.781C69.4216 83.829 69.266 83.8094 69.1057 83.7893" stroke="#D47E00" stroke-linecap="round"/>
<path d="M55.1946 83.2197C55.1759 83.2384 53.7278 83.6825 50.4954 84.9633C48.6515 85.694 46.5962 87.0546 45.4299 87.7594C44.2635 88.4641 44.1 88.5909 43.9373 88.7524C43.7746 88.914 43.6177 89.1066 44.9252 88.4554C46.2326 87.8042 49.0092 86.3035 50.6501 85.436C53.2351 84.0694 53.7874 83.8787 54.9172 83.5704C55.36 83.4496 56.0029 83.4204 56.2748 83.4161C56.4479 83.4133 54.8393 83.9965 51.9478 84.9914C50.525 85.481 49.2631 86.1343 48.1728 86.7325C47.0826 87.3308 46.2204 87.9038 45.6599 88.3118C45.0993 88.7198 44.8667 88.9454 46.9036 88.2267C48.9406 87.508 53.2543 85.8383 55.7206 84.844C58.1868 83.8497 58.675 83.5815 57.7774 83.7374C56.8799 83.8934 54.5817 84.4816 52.9242 85.0315C51.2666 85.5814 50.3194 86.0753 49.5035 86.5724C46.4797 88.4145 45.2194 90.1434 44.9875 90.343C44.8532 90.4481 44.6852 90.5611 45.3127 90.2822C45.9403 90.0034 47.3684 89.3293 48.7906 88.588" stroke="#D47E00" stroke-linecap="round"/>
<path d="M31.213 89.2891C31.5441 89.648 32.5459 90.3862 33.6136 90.782C34.3227 91.0449 35.4348 91.0367 36.6407 91.1322C37.6334 91.2108 38.637 91.6016 39.7533 92.11C40.8678 92.6176 41.8807 93.3196 43.0609 93.9859C45.7736 95.5175 46.658 96.3604 46.7793 96.4438C47.5183 96.952 45.0133 95.2528 43.1967 94.6832C41.5878 94.1788 38.547 93.3589 36.2049 92.5943C33.8629 91.8297 32.3024 91.1765 31.3154 90.8409C29.9961 90.3923 29.4265 90.5201 29.2224 90.6034C28.6696 90.8291 30.5891 91.6253 32.8281 92.3087C33.5086 92.5164 34.3746 92.8081 36.1764 93.259C38.8582 93.9302 40.6636 94.3015 41.0992 94.5033C42.3836 95.1608 44.6988 96.4615 45.8959 97.1911C46.0556 97.3072 46.2658 97.4807 46.3181 97.6636" stroke="#D47E00" stroke-linecap="round"/>
<path d="M15.5752 94.0591C15.7828 94.1632 16.7887 94.6122 18.5902 95.3052C19.4251 95.6264 19.9207 96.4239 20.7046 97.0587C20.8776 97.1989 20.9529 97.3356 20.9194 97.3711C20.23 98.1005 18.467 96.3756 17.4271 96.194C16.8975 96.1016 16.2798 96.0782 15.7224 95.7751C15.4696 95.6376 15.4487 95.296 15.4819 95.1749C15.6477 94.5686 18.1572 96.6201 19.1803 97.3012C19.2848 97.3707 19.3017 97.5261 19.3544 97.7221C19.4071 97.9182 19.4631 98.1834 18.8995 98.114C18.336 98.0446 17.1512 97.6325 16.2387 97.2716" stroke="#D47E00" stroke-linecap="round"/>
<path d="M32.6113 94.7983C32.5105 95.0056 31.558 96.0167 28.6117 97.9215C27.2061 98.8302 25.608 99.1251 24.3447 99.475C23.2193 99.7867 22.795 100.106 22.4227 100.245C21.6759 100.524 25.861 97.8303 26.877 97.3701C27.5412 97.0692 28.3614 97.2927 28.7315 97.3023C29.4154 97.3201 25.2236 98.7243 23.4093 99.4146C22.6927 99.6874 22.5447 100.336 22.5348 100.569C22.5123 101.099 23.5029 101.424 24.0149 101.708C24.1266 101.771 24.2832 101.723 24.4075 101.66C25.127 101.295 25.547 100.251 28.2915 98.5242C28.7906 98.2102 28.6854 98.2665 28.0956 98.4828C25.1886 99.5488 24.6278 99.9704 24.3491 100.434C24.1485 100.768 26.607 99.6423 28.9033 98.608C29.6274 98.2819 29.505 98.4748 28.7716 98.977C28.0383 99.4792 26.7102 100.314 26.1218 100.725C25.5334 101.136 25.7249 101.098 26.4396 100.749C28.4091 99.7897 30.034 98.7758 30.8378 98.0827C32.5121 96.639 32.8935 96.1494 32.9987 96.0674C33.3202 95.8169 31.6666 96.3206 31.0596 96.7859C29.4702 98.0042 36.2088 95.5523 36.2923 95.5619C34.9614 96.4217 34.2103 96.9312 33.8084 97.3692C33.7263 97.4072 33.6062 97.369 33.4825 97.3297" stroke="#D47E00" stroke-linecap="round"/>
<path d="M56.2557 89.307C56.5874 89.6518 58.1943 90.4964 60.8328 91.6227C64.4059 93.148 65.0986 92.9483 66.3376 93.4366C66.7438 93.5967 67.1999 93.7922 67.6243 93.8642C67.8157 93.8967 66.7482 93.2163 64.9286 92.3566C63.7195 91.7853 61.853 91.1108 60.6963 90.7063C58.6274 89.9828 57.926 90.0091 56.9698 89.8663C55.5464 89.6537 54.7374 89.4915 53.9655 89.2707C53.6993 89.1946 53.4842 89.0987 53.4112 88.9524C53.2186 88.5668 54.8854 88.7579 56.5579 89.0481C57.0326 89.1305 57.5441 89.3751 57.6365 89.3664C57.9809 89.3341 56.5638 88.7168 55.8922 88.3557C55.6479 88.2243 55.6765 88.0753 56.2095 88.1753C57.8254 88.4785 59.1112 89.0374 59.6399 89.3292C61.1591 90.1678 62.2082 90.5826 62.4403 90.577C63.0186 90.5631 60.4883 89.6706 59.9545 89.5053C58.8615 89.167 62.7762 89.7639 64.2387 90.13C65.2747 90.3892 66.285 91.1536 67.4848 91.8822C68.0132 92.2031 68.3345 92.4943 67.492 92.4665C66.6495 92.4387 64.6224 92.1008 63.7721 92.0028C62.9218 91.9048 63.3098 92.0568 63.7473 92.1945C65.2913 92.6209 66.3254 92.9184 67.5099 93.2586C67.9474 93.398 68.0527 93.4696 68.2089 93.5585" stroke="#D47E00" stroke-linecap="round"/>
<path d="M75.8969 83.3394C75.6773 83.5153 75.4576 83.6912 74.3109 84.4474C73.1641 85.2037 71.0969 86.535 69.9123 87.3479C68.7277 88.1608 68.4883 88.4148 68.4206 88.4796C68.3625 88.5351 68.8645 88.0425 70.0946 87.1217C72.5957 85.2493 74.3536 84.0329 74.4062 83.9232C74.4812 83.7667 72.3253 84.6545 69.4562 85.6449C67.2726 86.3987 66.5533 87.2195 66.2277 87.5688C66.0866 87.7201 66.0669 87.8788 66.145 87.9499C66.3528 88.139 68.9033 87.2251 71.3663 86.4045C73.2122 85.7894 67.4011 87.9394 67.3299 88.0236C67.2152 88.1595 69.3027 87.2908 71.7405 86.5214C72.4982 86.2822 72.3422 86.5645 71.7961 87.1248C71.2501 87.6852 70.334 88.5698 69.912 88.9629C69.6057 89.2484 70.5767 88.3531 71.8929 87.3192C72.2049 87.074 72.0006 87.7951 72.4127 87.84C74.9303 88.1142 76.3006 85.3726 76.5481 84.9935C76.8346 84.5547 76.9534 84.1209 76.8868 83.9872C76.3597 82.9289 74.9692 84.693 74.5219 84.9799C72.8594 86.0464 78.7924 82.9308 78.5935 83.0915C78.3892 83.2715 78.1256 83.538 77.8209 83.8184C77.6739 83.9293 77.5424 83.9768 77.2318 84.0661" stroke="#D47E00" stroke-linecap="round"/>
<path d="M57.9421 93.6873C57.5134 93.9752 57.0847 94.2632 55.3745 95.2554C53.6643 96.2475 50.6855 97.9351 48.908 98.9585C45.8422 100.723 45.066 101.709 44.4732 102.184C44.2649 102.35 43.9482 102.385 43.6127 102.375C43.4609 102.371 43.351 102.31 44.9336 101.596C46.5163 100.883 49.7961 99.5052 51.5651 98.7456C53.8555 97.7622 54.1307 96.971 54.5879 96.4211C54.91 96.0337 55.4119 95.8515 55.6695 95.761C56.0743 95.6188 54.9509 96.8714 52.3552 98.864C51.0146 99.893 49.4101 100.492 48.0791 101.048C47.058 101.474 46.6151 101.959 46.0302 102.669C45.9266 102.794 46.7925 102.123 47.0781 101.928C47.3638 101.733 47.303 101.836 47.1976 101.995C46.9496 102.37 46.6833 102.78 46.6497 102.965C46.4636 103.986 48.0537 101.711 48.4039 101.09C48.6539 100.647 49.1452 100.211 51.6213 98.7619C53.7986 97.4875 57.9892 95.3731 60.0717 94.3147C62.1541 93.2564 62.0382 93.3831 61.4891 93.6793C59.988 94.4889 58.8234 94.9986 58.5518 95.2009C58.4095 95.3175 58.2583 95.4623 58.5268 95.371C58.7954 95.2796 59.4883 94.9477 60.2022 94.6057" stroke="#D47E00" stroke-linecap="round"/>
<path d="M31.7685 102.92C32.4599 103.056 34.7661 103.627 37.8235 104.431C39.5403 104.882 40.7307 105.53 41.4572 105.908C41.4905 105.925 41.3275 105.938 39.9967 105.613C38.6659 105.288 36.1388 104.646 34.4772 104.274C31.24 103.548 30.7467 103.757 30.4643 103.758C30.2111 103.758 30.0554 103.472 29.9228 103.259C29.8563 103.153 29.8211 103.031 29.8592 102.94C29.9443 102.736 30.3461 102.672 30.7184 102.582C31.0104 102.512 30.0308 102.82 28.4068 103.267C27.8982 103.407 28.0015 103.252 28.0946 103.125C28.1878 102.998 28.2603 102.874 28.1944 102.801C28.1286 102.728 27.9222 102.711 27.9284 102.658C27.9598 102.389 29.2285 102.265 30.558 102.073C31.1701 101.985 31.8383 102.486 32.9663 102.916C34.1362 103.362 36.289 103.587 38.6664 103.931C40.5203 104.426 41.7804 105.159 43.3771 105.907C43.7135 106.038 43.8696 106.065 44.1158 106.085" stroke="#D47E00" stroke-linecap="round"/>
<path d="M55.7041 101.691C56.9755 101.916 58.2469 102.14 59.724 102.382C61.2011 102.624 62.8454 102.877 64.0789 103.151C66.1131 103.603 67.2966 104.272 67.4075 104.488C67.548 104.761 66.0683 104.084 64.5614 103.675C63.0544 103.267 61.1071 102.819 60.0065 102.525C58.3338 102.079 57.8791 101.531 57.5497 101.101C57.4755 101.004 57.4762 100.867 57.5631 100.809C57.65 100.75 57.8491 100.759 59.6964 101.197C61.5438 101.636 65.0334 102.504 64.3413 102.427C63.6491 102.351 58.6694 101.303 56.0501 100.737C53.4308 100.172 53.3228 100.12 53.3448 100.07C53.4262 99.8852 55.0645 100.034 57.6668 100.316C58.892 100.449 59.9026 100.728 61.0714 101.116C63.5636 101.943 65.138 102.786 65.676 103.149C66.5848 103.761 67.4464 103.891 68.1592 104.275C68.5235 104.471 69.1621 104.757 68.9909 104.829C67.9136 105.281 65.8534 104.556 63.9953 104.458C63.0833 104.41 62.2453 104.214 61.8762 104.163C61.6371 104.129 63.6494 104.685 66.5594 105.35C68.2307 105.733 69.4056 105.348 69.9105 105.203C70.2249 105.113 70.715 105.189 71.0883 105.156C71.015 105.009 68.9762 104.272 65.9738 103.267C64.8552 102.894 64.5589 102.799 64.2639 102.561" stroke="#D47E00" stroke-linecap="round"/>
<path d="M77.6358 92.9411C77.3974 93.04 77.159 93.1389 75.8669 94.1228C74.5747 95.1067 72.2361 96.9727 70.9863 98.0005C69.7364 99.0283 69.6461 99.1614 70.6868 98.3779C71.7274 97.5945 73.9016 95.8906 75.2329 94.7819C77.042 93.2754 77.517 92.5868 77.575 92.4346C77.5882 92.4002 77.3671 92.5789 76.0791 93.3977C74.7911 94.2164 72.3915 95.7021 71.8184 96.0475C71.2453 96.393 72.5715 95.5533 72.5103 95.5284C70.8992 94.8719 68.9086 97.571 68.2064 98.1729C67.7439 98.5693 69.897 97.0221 70.279 96.6209C70.313 96.5852 69.554 97.731 68.6586 99.1041C68.5243 99.3101 70.8122 98.3294 73.2105 97.2712C73.9769 96.933 73.8569 97.0647 73.1892 97.5667C72.5214 98.0687 71.3169 98.954 71.0433 99.2309C70.7697 99.5078 71.4637 99.1494 71.7751 99.0586C72.0866 98.9677 71.9945 99.1551 71.9084 99.3118C71.7537 99.5935 71.303 100.092 70.7946 100.62C70.7364 100.681 71.2543 100.275 72.8637 99.0713C74.0464 98.1868 75.9194 96.6767 77.0541 95.7421C78.546 94.5132 79.0456 93.8897 79.245 93.6158C79.8985 92.7178 76.9899 95.1639 76.4077 95.3889C76.2507 95.4495 76.6966 94.6082 77.1541 93.9026C76.6975 94.1894 75.9556 94.7058 75.9802 94.6092C76.1263 94.4465 76.5439 94.0527 76.9742 93.647" stroke="#D47E00" stroke-linecap="round"/>
<path d="M79.1092 88.0416C79.1114 88.0646 80.5669 88.5904 83.1904 89.4745C85.1719 90.1422 86.3159 90.3645 86.6414 90.4552C86.7445 90.4839 84.6931 89.6371 81.913 88.6982C80.9316 88.3667 80.8103 88.3653 80.8352 88.3929C80.981 88.5546 82.5875 88.8089 83.5897 88.906C83.9958 88.9454 81.0404 88.1706 81.1067 88.0494C82.2823 85.9012 86.2588 88.6984 86.8786 88.8955C87.6923 89.1544 88.1458 89.6276 88.2704 89.9164C88.4275 90.2803 88.4328 90.762 88.3574 91.0345C88.2656 91.3664 87.3593 90.5049 87.0421 90.4129C86.8688 90.3626 87.9788 90.9042 88.2533 91.1007C88.5278 91.2972 88.2676 91.2853 86.2011 90.9444C84.1345 90.6035 80.2695 89.934 76.2393 89.2069" stroke="#D47E00" stroke-linecap="round"/>
<path d="M89.5744 95.5664C88.9022 96.2392 88.429 96.7341 88.3016 96.8795C88.1655 97.0347 88.781 96.3668 89.1062 96.1474C89.2235 96.0683 88.9731 96.7801 88.7966 97.2848C88.7577 97.3963 89.1715 97.1998 89.3581 97.1869C89.5446 97.174 89.581 97.3468 89.5997 97.5515C89.6184 97.7562 89.6184 97.9874 89.5348 98.3492" stroke="#D47E00" stroke-linecap="round"/>
<path d="M79.1439 98.0913C80.7482 98.5321 83.7709 99.348 83.2584 99.1298C81.1791 98.2446 79.9762 98.5555 79.6424 98.3695C79.3261 98.1932 81.335 98.6773 84.4699 100.106C85.776 100.701 86.5625 100.9 86.837 100.936C86.9706 100.954 85.5208 100.199 83.8093 99.5336C82.2976 98.9463 79.6181 98.9927 78.4562 98.7021C78.2917 98.6609 80.2129 99.628 81.7793 100.396C81.8967 100.453 80.5672 99.9454 80.7802 100.007C80.9932 100.068 82.7707 100.741 83.6099 101.092C84.4491 101.443 84.2962 101.451 84.1387 101.459" stroke="#D47E00" stroke-linecap="round"/>
<path d="M57.9138 106.257C57.6279 106.304 57.2595 106.402 57.3582 106.402C57.686 106.404 58.5454 106.111 58.9285 106.056C59.3117 106.002 59.1843 106.12 59.0257 106.247C58.8671 106.373 58.6812 106.505 58.702 106.526C59.1994 107.033 59.9999 106.232 60.3828 106.289C60.6625 106.331 60.7105 106.721 60.96 106.782C61.0879 106.794 61.2185 106.766 61.3528 106.723C61.4871 106.679 61.6211 106.621 61.7591 106.561" stroke="#D47E00" stroke-linecap="round"/>
<path d="M45.1211 115.673C45.1211 115.824 45.1178 116.366 45.2149 117.157C45.2566 117.497 45.5198 117.661 45.7592 117.73C46.722 118.007 48.557 116.274 49.9971 115.38C50.1929 115.259 48.7592 117.196 48.0612 118.072C47.3631 118.948 47.3054 119.058 48.6137 118.289C49.922 117.521 52.5983 115.87 53.5884 115.725C54.5785 115.581 53.8014 116.993 53.4778 117.712C53.1542 118.43 53.3077 118.412 54.155 117.756C55.0022 117.101 56.5387 115.808 56.94 116.019C57.3414 116.23 56.561 117.985 57.36 117.688C58.1589 117.392 60.5609 114.992 61.8555 113.684C63.1502 112.376 63.2647 112.234 63.0989 113.156C62.5719 116.084 61.9905 118.388 62.0651 118.759C62.0936 118.9 62.4079 118.779 63.4417 118.158C64.4755 117.538 66.2973 116.38 67.5719 115.494C68.8466 114.608 69.5189 114.028 69.8722 114.449C70.2254 114.87 70.2393 116.308 70.3017 117.027C70.3641 117.746 70.4748 117.702 71.7455 116.783C73.0162 115.864 75.4436 114.072 76.8604 113.052C78.2772 112.033 78.6098 111.84 78.8255 111.784C79.0412 111.727 79.13 111.812 79.1602 112.297C79.1904 112.782 79.1593 113.664 79.1931 114.157C79.2269 114.649 79.3265 114.726 79.45 114.797" stroke="#D47E00" stroke-linecap="round"/>
<path d="M24.0596 92.4585C24.0216 92.4871 23.4299 92.9111 22.6803 93.468C22.6319 93.5039 23.7124 93.1424 24.7512 92.9012C25.049 92.832 24.9086 93.0476 24.6894 93.2436C24.2036 93.6783 23.6112 94.0421 23.5036 94.1579C23.3834 94.2875 24.2984 93.8391 24.6153 93.788C24.9322 93.737 24.922 93.9123 24.8005 94.1237C24.6789 94.335 24.4463 94.577 24.2315 94.7841C24.0167 94.9913 23.8267 95.1564 24.3141 95.0455C24.8014 94.9347 25.9719 94.5428 26.5159 94.4369C27.0599 94.3309 26.9419 94.5228 26.785 94.7337C26.4517 95.1814 25.9791 95.636 25.6477 95.9169C25.0389 96.4328 27.2128 94.4415 27.373 93.8886C27.4814 93.5147 26.5685 93.0254 26.2789 92.8308C25.9893 92.6361 26.0756 92.7699 26.2168 92.9111C26.9064 93.4177 27.4652 93.6196 28.0017 93.8142C28.1524 93.8865 28.3195 93.983 28.498 94.0842" stroke="#FFCD83" stroke-linecap="round"/>
<path d="M38.5906 97.6262C38.4418 97.7088 37.5946 98.2312 36.6206 98.9009C36.4569 99.0134 38.0444 98.4629 39.2382 97.946C39.4182 97.8681 37.8623 99.1091 36.7195 100.089C36.5222 100.259 38.9364 99.2074 39.8949 98.8443C40.8533 98.4812 40.7518 98.6965 40.4683 99.1015C39.7562 100.119 39.0367 100.908 39.0123 100.96C38.5754 101.892 41.4754 99.0489 43.0902 98.1045C43.5965 97.8084 43.5528 98.0443 43.3739 98.3824C43.195 98.7204 42.9042 99.1944 42.8039 99.2647C42.0164 99.8166 42.8856 97.4748 42.6852 97.1466C42.486 96.8202 41.9723 96.7939 41.7017 96.8353C41.4007 96.8814 42.1829 97.7047 42.5427 98.2857C42.3399 98.6276 40.6066 98.7841 38.5317 98.8558C37.9382 98.8827 38.2776 98.8906 38.6044 98.9227" stroke="#FFCD83" stroke-linecap="round"/>
<path d="M51.3211 103.377C51.3319 103.377 50.3022 104.11 49.4406 104.791C49.2983 104.903 51.0281 103.88 51.6954 103.549C52.3627 103.218 52.2405 103.442 51.7103 103.99C51.1801 104.539 50.2456 105.406 49.8751 105.74C49.7389 105.862 50.3812 105.296 51.2851 104.672C51.7518 104.35 52.2774 104.08 51.7878 104.67C51.2982 105.259 49.7884 106.733 49.3055 107.152C48.0265 108.261 51.783 104.991 52.6296 104.689C52.9301 104.582 53.0394 104.9 53.0457 105.22C53.0521 105.54 52.9703 105.936 53.1175 105.969C53.7152 106.099 54.6162 104.899 55.4309 104.4C55.5656 104.318 54.9278 105.286 54.3745 105.861C54.563 105.443 54.8767 104.731 54.8917 104.265C54.8848 104.035 54.8482 103.817 54.7254 103.294" stroke="#FFCD83" stroke-linecap="round"/>
<path d="M51.2304 91.5672C50.1991 92.0252 49.2388 92.5335 48.6186 92.8398C48.4196 92.9381 48.6927 92.0975 48.7945 91.5976C48.8266 91.4398 48.5184 91.4866 48.3275 91.5703C48.1365 91.654 47.9953 91.7757 47.8634 91.9077C47.7315 92.0397 47.6132 92.1782 48.1518 92.047C48.6904 91.9159 49.8895 91.5108 50.3217 91.6197C50.754 91.7287 50.383 92.3638 50.5987 92.5096C50.8144 92.6553 51.6281 92.2925 51.6109 92.5338C51.5937 92.7752 50.7209 93.6318 50.6019 93.9104C50.3881 94.4107 52.7922 93.2138 54.1215 92.5913C54.5519 92.3898 54.2116 91.9924 53.9723 91.7584C53.212 91.0149 52.5753 90.6929 52.1791 90.537C52.0202 90.4744 51.9007 90.7463 51.87 90.9407C51.8892 91.3205 52.1021 91.6475 52.1759 91.7228C52.0883 91.6621 51.747 91.4007 51.3953 91.1314" stroke="#FFCD83" stroke-linecap="round"/>
<path d="M36.7646 87.4033C36.7215 87.4249 36.1698 87.7504 35.6959 88.0771C35.6491 88.1094 36.4079 87.7901 36.7212 87.8071C37.0344 87.824 36.9845 88.1662 37.0562 88.3593C37.1779 88.6873 37.7073 88.5573 37.9359 88.5726C37.9804 88.6514 37.8797 88.8742 38.0786 88.7594C38.2775 88.6446 38.779 88.1853 39.2956 87.7122" stroke="#FFCD83" stroke-linecap="round"/>
<path d="M49.7002 80.9927C49.4593 81.093 48.6315 81.6584 47.8814 82.217C47.8296 82.2555 48.4671 81.8222 48.7714 81.7046C49.0327 81.6037 48.8445 82.3911 48.9547 82.7023C49.0414 82.9471 49.8676 82.1773 50.192 82.0331C50.7271 82.2696 51.7273 82.0184 52.6452 81.7922C52.8665 81.7646 53.0704 81.7589 53.2804 81.753" stroke="#FFCD83" stroke-linecap="round"/>
<path d="M62.6657 84.6138C62.2286 85.4949 61.7273 86.2468 61.3686 86.6058C60.9383 87.0363 62.1856 85.536 62.2632 85.2538C62.3724 84.8568 61.3878 84.943 60.8246 85.0236C60.0636 85.1326 59.2646 85.6666 59.0199 85.9056C58.9047 86.018 59.9118 85.551 60.2724 85.4982C60.6331 85.4454 60.599 85.6774 60.5351 85.9467C60.4712 86.216 60.3785 86.5155 60.4288 86.6153C60.5398 86.8356 61.2 86.2036 61.6888 85.9628C61.8445 85.8862 61.8554 86.4109 61.9633 86.643C62.1451 87.0344 62.7928 86.8511 63.2293 86.8683C63.3816 87.0187 63.3933 87.4567 63.5749 87.4819C63.7565 87.5071 64.1076 87.1063 64.4693 86.6933" stroke="#FFCD83" stroke-linecap="round"/>
<path d="M68.3218 80.9172C69.2039 81.2272 70.277 81.5719 71.1326 81.7519C71.3646 81.8007 71.2062 81.5464 71.019 81.3947C70.293 80.8058 69.2436 80.7085 68.5658 80.6395C68.3735 80.62 68.4924 80.8187 68.6889 80.9664C69.1568 81.2525 70.2232 81.6565 71.3529 82.1708C71.6959 82.4236 71.5712 82.6598 71.1628 83.2532" stroke="#FFCD83" stroke-linecap="round"/>
<path d="M61.4294 96.7124C61.3778 96.9157 62.0857 96.3635 63.0174 95.6443C63.1811 95.518 62.852 96.1343 62.7704 96.3475C62.7179 96.4844 63.3278 96.0692 63.4269 96.1731C63.6519 96.4092 62.8683 97.2986 62.7795 97.6639C62.6907 98.0291 62.9719 97.915 63.2054 97.7904C63.439 97.6658 63.6166 97.5342 63.7145 97.6455C63.8125 97.7569 63.8254 98.1151 64.1591 98.0575C64.4928 97.9999 65.1468 97.5155 65.8206 97.0165" stroke="#FFCD83" stroke-linecap="round"/>
<path d="M71.5526 91.1333C71.5076 91.3726 71.4627 91.6118 71.565 91.6444C71.9303 91.7606 72.3568 91.2229 72.5548 91.2447C72.6631 91.2566 72.4231 91.6557 72.6731 91.5475C73.577 90.9105 74.4306 90.2041 74.7633 90.0605C74.9162 90.0786 75.0367 90.281 75.1868 90.9553" stroke="#FFCD83" stroke-linecap="round"/>
<path d="M76.5974 100.994C76.4203 101.154 75.4229 101.785 74.1067 102.525C73.712 102.747 73.8094 102.535 74.0475 102.201C74.2856 101.866 74.6454 101.385 74.4306 101.597C74.2157 101.808 73.4154 102.727 73.1556 103.156C72.8958 103.584 73.2009 103.494 73.5082 103.311C73.8155 103.128 74.1157 102.854 74.2816 102.821C74.4475 102.788 74.47 103.005 74.5714 103.145C74.6727 103.285 74.8523 103.34 75.1838 103.218C75.5153 103.097 75.9931 102.796 76.5248 102.387C77.0564 101.978 77.6274 101.47 78.2157 100.947" stroke="#FFCD83" stroke-linecap="round"/>
<path d="M83.0099 95.1385C82.5859 95.5883 82.1619 96.038 82.1834 96.0206C83.5956 94.8794 83.9322 93.8238 83.9039 93.6219C83.8413 93.1753 83.1212 94.34 82.9005 94.8675C82.7802 95.155 82.7048 95.5067 82.813 95.6768C82.9212 95.8469 83.231 95.8309 83.4798 95.7479C83.7287 95.6649 83.9072 95.5153 84.0305 95.3404C84.1538 95.1655 84.2166 94.9699 84.1898 94.7931C84.163 94.6163 84.0447 94.4643 83.8932 94.4224C83.5712 94.3333 83.1778 94.7486 82.8298 95.2077C82.6587 95.4335 82.5761 95.6981 82.5615 95.9206C82.5468 96.143 82.6224 96.3288 82.7699 96.4249C83.4286 96.8542 84.129 96.3361 84.4567 96.1393C84.6287 96.0361 84.7263 95.8084 84.7776 95.5995C84.8289 95.3906 84.8089 95.1774 84.7416 94.9806C84.6743 94.7837 84.5604 94.6096 84.3979 94.604C84.2354 94.5985 84.0277 94.7668 83.8558 94.9926C83.6838 95.2185 83.5539 95.4969 83.6156 95.6591C83.6773 95.8213 83.9346 95.8589 84.137 95.7967C84.3394 95.7345 84.479 95.5712 84.5531 95.3939C84.6272 95.2166 84.6315 95.0301 84.6359 94.838" stroke="#FFCD83" stroke-linecap="round"/>
<path d="M41.2112 55.9152C43.9718 61.4711 45.0705 62.7139 46.448 63.9968C46.7709 64.2975 46.9817 64.6383 47.2369 64.7601C47.4922 64.8819 47.7649 64.7952 48.0355 64.4502C49.7042 62.3224 50.401 59.0374 51.293 57.8954C51.6689 57.4142 52.9271 58.1319 55.7575 58.2859C61.5543 58.6013 66.4645 58.4098 68.4198 58.1811C71.2021 57.8558 75.2576 54.6746 77.9199 52.0334C78.5658 51.3926 79.6578 48.8797 81.379 44.7931C83.7781 39.0973 82.791 35.9234 82.0598 34.2041C81.3452 32.524 78.3971 30.8589 73.6834 28.5403C70.7065 27.076 66.1924 25.7994 62.0908 24.8265C57.9893 23.8535 54.3477 23.4202 51.1567 23.2404C45.3442 22.9129 42.1335 23.2965 40.357 23.6848C36.9673 24.4258 32.9752 26.239 29.7156 28.0422C25.8949 30.1559 23.841 33.2213 22.1595 36.2427C20.7968 38.6913 21.1471 41.7625 21.4023 43.8199C21.6542 45.8497 23.2935 47.3455 24.9003 48.5466C26.9647 50.0897 29.6571 51.1088 31.6786 51.8359C35.5795 53.3054 38.9338 54.8751 39.497 55.0681C39.788 55.1653 40.0896 55.2611 40.3713 55.1287" stroke="black" stroke-linecap="round"/>
<path d="M28.748 39.8525C29.1302 41.8223 29.9879 43.8415 30.8328 44.4333C31.0654 44.5961 31.4424 44.4887 31.7184 44.3962C32.7603 44.0469 33.1821 42.6476 33.7 40.9197C33.8414 40.448 33.8877 39.96 33.9506 40.0064C35.7645 41.347 35.2286 44.8797 35.8738 45.9022C36.1236 46.298 36.4432 46.2752 36.7006 46.1759C37.2017 45.8582 37.8119 45.0261 38.535 43.5758C38.899 42.7329 39.2569 41.6725 39.8216 39.9885" stroke="black" stroke-linecap="round"/>
<path d="M44.3213 34.7788C44.298 38.7102 44.3496 45.4546 44.6562 44.7093C45.4845 42.6956 46.4445 41.9418 47.0021 41.6288C47.5084 41.8538 47.9813 42.8907 48.339 44.239C48.4693 44.8071 48.4953 45.1394 48.5222 45.4479" stroke="black" stroke-linecap="round"/>
<path d="M52.8384 39.8516C52.861 40.8091 53.0423 41.8421 53.3892 42.7676C53.5382 43.1652 53.7465 43.3689 54.0533 43.4116C55.8456 43.661 57.3283 42.0199 58.2376 41.0595C58.467 40.8172 58.5921 40.5425 58.7154 40.2789C58.8387 40.0153 58.9296 39.7483 59.0468 40.7247C59.4299 43.9165 59.3971 46.5592 59.1998 47.184C59.055 47.4739 58.8196 47.7087 58.1282 48.0126C57.4368 48.3164 56.2965 48.6822 54.5317 48.9342" stroke="black" stroke-linecap="round"/>
<path d="M64.8599 35.1137C66.1623 35.0447 68.7274 35.1262 69.0214 35.5378C69.3532 36.0021 69.0246 36.675 68.7762 37.1541C68.2746 38.1212 67.0285 38.5818 66.4439 39.6694C66.3809 40.0838 66.3668 40.6509 66.3981 41.0632C66.4293 41.4754 66.5062 41.7155 66.7046 42.6598" stroke="black" stroke-linecap="round"/>
<path d="M70.5816 46.6121C70.0697 46.6045 68.9702 46.7753 68.5259 47.1C68.3182 47.2519 68.2913 47.5379 68.3861 47.6367C68.4809 47.7355 68.7353 47.6795 68.9549 47.5548C69.1745 47.4301 69.3516 47.2385 69.4605 46.9955C69.5694 46.7524 69.6047 46.4637 69.5058 46.2457C69.4069 46.0277 69.1728 45.8891 68.8463 45.9165C68.0771 45.9811 67.313 46.5943 66.8938 47.0194C66.7657 47.1492 67.1295 47.2898 67.3555 47.2373C67.5815 47.1849 67.7406 46.9824 67.7444 46.9968C67.7482 47.0112 67.5919 47.2485 67.6248 47.4395C67.6577 47.6306 67.8844 47.7682 68.1744 47.7764C68.4643 47.7847 68.8106 47.6594 69.8265 47.2182" stroke="black" stroke-linecap="round"/>
</svg>
