<svg width="105" height="160" viewBox="0 0 243 426" fill="none" xmlns="http://www.w3.org/2000/svg">
<rect width="243" height="426" rx="15.6" fill="#FFDBF0"/>
<path d="M68.884 154.373C64.2419 157.699 59.8554 161.143 55.8994 165.032C46.5768 174.197 43.8228 188.493 40.1845 199.5C34.4508 216.846 26.7304 234.824 40.4879 250.604C64.1869 277.787 97.9243 287.766 137.083 277.899C152.746 273.953 169.119 268.186 180.163 257.876C191.282 247.495 203.917 236.273 212.806 224.504C218.1 217.494 220.688 207.939 218.995 199.799C217.628 193.226 213.271 187.771 210.257 181.668C202.244 165.442 185.194 155.965 166.329 148.944C145.335 141.131 120.565 132.847 97.0373 137.338C88.4204 138.983 79.3649 144.527 73.8593 150.338C72.6655 151.598 72.9478 153.278 71.4323 154.572C69.9294 155.855 66.7507 157.063 69.9761 157.063" stroke="#FF9061" stroke-width="5" stroke-linecap="round"/>
<path d="M105.389 137.048C97.8409 137.048 91.127 137.531 83.8888 139.93C83.6091 140.022 74.3471 143.892 77.4267 144.913C80.8024 146.031 85.6659 145.153 89.1431 145.153C90.7489 145.153 92.8471 145.446 94.4578 144.913C99.1549 143.356 104.016 140.063 108.952 139.449C109.117 139.429 107.737 140.435 107.443 140.71C102.98 144.885 98.2485 148.971 94.3974 153.738C92.0916 156.592 90.2584 159.778 88.056 162.683C86.9086 164.197 83.1037 167.122 83.1037 169.227C83.1037 170.06 84.4346 168.208 85.1571 167.786C88.6775 165.732 92.2356 163.736 95.8469 161.843C99.2562 160.056 101.668 159.462 103.94 156.439C105.103 154.892 108.975 152.087 109.194 150.016C109.325 148.783 109.194 147.471 109.194 146.233C109.194 144.493 109.076 144.884 109.738 146.233C111.717 150.272 114.272 153.524 117.226 156.92C117.62 157.372 124.341 166.157 125.38 163.944C126.374 161.826 123.856 156.727 123.085 154.819C121.934 151.969 120.645 147.455 118.434 145.153C117.204 143.872 115.011 143.101 113.542 142.031C113.306 141.858 115.837 141.911 115.837 141.911C119.423 141.947 123.002 142.243 126.588 142.331C136.215 142.568 145.783 142.326 155.396 141.911C157.622 141.814 155.231 140.602 154.429 140.29C145.543 136.833 132.345 138.336 123.326 140.29C118.132 141.415 112.552 141.428 107.261 141.791C105.241 141.929 105.313 141.761 106.054 140.29C107.22 137.97 106.974 134.819 107.986 132.305C109.059 129.637 111.912 121.747 111.912 124.62C111.912 127.194 111.916 129.698 111.489 132.245C111.119 134.45 110.823 136.817 110.04 138.909C109.628 140.007 108.612 144.536 108.107 143.532" stroke="#39E7BA" stroke-width="5" stroke-linecap="round"/>
<path d="M87.1007 151.402C84.0223 157.114 80.8527 162.792 77.8255 168.525C77.632 168.892 70.5924 180.539 75.1766 177.173C86.5329 168.834 96.1182 157.295 108.441 150.215C110.463 149.054 107.094 154.411 105.888 156.291C101.821 162.63 97.6572 168.771 93.4101 175.024C86.9007 184.608 80.1168 194.068 74.0523 203.886C72.0366 207.149 70.3893 210.784 67.9507 213.831C66.1408 216.092 62.4597 219.405 61.5548 222.039C60.9651 223.756 59.7307 225.23 58.6788 226.758C58.3332 227.26 63.3029 221.77 65.0591 220.465C75.8359 212.451 85.8642 203.707 96.3654 195.406C104.767 188.764 112.058 180.524 120.878 174.402C124.936 171.586 121.975 174.31 119.897 175.963C101.11 190.899 85.2854 209.834 70.9607 228.252C63.0395 238.436 57.2065 249.583 49.9624 260.105C49.064 261.41 40.3986 272.244 45.6802 267.069C61.28 251.783 78.1743 237.661 94.983 223.509C112.636 208.644 130.154 193.396 149.495 180.358C152.934 178.04 156.907 176.377 160.397 174.055C163.189 172.196 174.938 165.208 165.653 170.949C143.622 184.57 124.519 201.439 106.644 219.414C95.8124 230.307 84.64 241.947 76.8573 254.84C75.7026 256.753 67.0876 265.736 73.5207 261.579C97.6943 245.959 120.474 228.535 144.891 213.208C154.998 206.864 186.628 189.764 176.027 195.359C171.443 197.779 167.207 201.511 163.239 204.607C148.979 215.732 135.548 227.603 122.418 239.835C112.544 249.034 102.746 258.335 93.5832 268.131C91.4674 270.393 84.6464 275.561 87.8309 275.337C89.8473 275.196 93.8424 272.82 95.2964 272.132C105.752 267.188 115.818 261.69 125.754 255.879C141.439 246.705 157.115 237.373 172.58 227.882C174.965 226.417 168.175 231.269 166.048 233.042C157.241 240.386 148.999 248.209 141.012 256.295C136.766 260.593 131.923 265.087 128.243 269.839C125.867 272.908 137.862 267.261 137.962 267.215C150.483 261.326 161.678 252.704 174.529 247.493C178.109 246.042 164.589 256.993 163.986 257.536C158.37 262.587 153.031 267.885 148.015 273.433C147.207 274.326 144.171 276.85 144.09 278.188C144.022 279.327 154.352 272.407 154.849 272.024" stroke="#FF9061" stroke-width="5" stroke-linecap="round"/>
<path d="M114.43 208.49C115.283 210.382 117.513 216.208 120.583 213.184C122.432 211.363 123.137 210.289 122.93 207.8C122.751 205.654 116.062 204.871 115.14 206.715" stroke="#2C2C2C" stroke-width="5" stroke-linecap="round"/>
<path d="M123.66 200.325C120.717 204.501 117.166 208.683 115.022 213.361C114.857 213.721 114.785 214.525 114.785 214.525" stroke="#2C2C2C" stroke-width="5" stroke-linecap="round"/>
<path d="M135.02 203.875C137.181 207.52 139.176 209.342 143.422 209.2C145.571 209.129 146.201 205.606 145.098 204.014C142.825 200.731 138.944 201.17 135.73 202.455" stroke="#2C2C2C" stroke-width="5" stroke-linecap="round"/>
<path d="M144.96 196.065C143.156 200.218 142.442 204.304 139.714 208.056C138.3 209.999 137.002 211.991 135.651 213.973C135.223 214.6 135.375 213.35 135.375 213.105" stroke="#2C2C2C" stroke-width="5" stroke-linecap="round"/>
<path d="M120.82 226.95C120.838 231.541 120.113 237.018 121.53 241.505C121.679 241.977 122.256 243.699 121.885 242.215" stroke="#2C2C2C" stroke-width="5" stroke-linecap="round"/>
<path d="M120.11 226.95C127.98 226.95 135.514 225.353 143.303 224.267C145.692 223.935 148.048 223.366 150.443 223.084C151.703 222.936 151.333 224.723 151.35 225.569C151.423 229.259 152.576 232.797 152.75 236.456C152.791 237.321 153.249 239.921 152.573 240.597C151.966 241.204 149.738 240.78 149.023 240.795C145.521 240.867 142.07 241.585 138.629 242.175C134.512 242.881 130.665 242.925 126.48 242.925C125.022 242.925 124.015 243.418 124.015 241.86" stroke="#2C2C2C" stroke-width="5" stroke-linecap="round"/>
<path d="M122.24 236.18C127.388 236.18 132.787 236.624 137.919 235.983C140.107 235.709 142.288 235.304 144.487 235.135C146.554 234.976 148.587 235.171 150.64 234.76" stroke="#2C2C2C" stroke-width="5" stroke-linecap="round"/>
<path d="M128.63 226.95V234.76" stroke="#2C2C2C" stroke-width="5" stroke-linecap="round"/>
<path d="M127.565 235.47C127.565 237.958 127.92 245.413 127.92 242.925" stroke="#2C2C2C" stroke-width="5" stroke-linecap="round"/>
<path d="M135.02 226.595C135.02 229.369 135.02 232.143 135.02 234.918C135.02 235.972 134.977 237.002 135.217 238.034C135.354 238.621 135.421 238.844 135.513 239.454C135.741 240.959 135.47 239.635 135.375 239.73" stroke="#2C2C2C" stroke-width="5" stroke-linecap="round"/>
<path d="M143.895 225.175C143.895 229.026 143.498 233.128 144.25 236.89" stroke="#2C2C2C" stroke-width="5" stroke-linecap="round"/>
<path d="M130.76 189.32C127.984 189.793 125.233 189.583 122.437 189.675C117.279 189.844 112.188 192.152 108.592 195.789C107.009 197.39 106.548 198.928 105.752 200.917C104.982 202.843 103.727 204.419 103.346 206.439C102.459 211.142 100.461 217.447 103.78 221.546C105.359 223.496 107.616 224.763 109.282 226.615C112.626 230.33 111.646 236.292 112.655 240.834C114.622 249.686 126.475 249.498 133.442 249.315C135.257 249.267 137.352 247.992 139.083 247.461C141.012 246.869 142.919 246.397 144.684 245.41C147.731 243.705 150.815 242.125 153.756 240.164C156.769 238.155 156.645 231.512 155.807 228.488C155.138 226.071 153.174 223.799 153.125 221.27C153.091 219.53 152.952 217.676 153.145 215.945C153.362 213.991 155.354 212.023 156.32 210.403C157.912 207.733 158.232 205.402 158.075 202.337C157.887 198.673 153.53 194.328 150.64 192.357C147.93 190.509 144.883 188.827 141.785 187.742C138.31 186.526 133.87 187.207 130.405 187.9" stroke="#2C2C2C" stroke-width="5" stroke-linecap="round"/>
<path d="M103.07 204.585C97.4936 203.112 92.3995 199.79 87.5485 196.775C87.2177 196.569 86.6005 196.706 86.4637 196.341C85.7577 194.458 86.4213 191.815 86.0101 189.793C85.4436 187.008 81.9885 185.899 79.8568 187.703C78.2006 189.104 78.6098 192.253 78.141 194.171C78.0567 194.516 72.0922 203.663 72.3426 203.796C74.4094 204.89 77.0334 202.449 79.1271 202.83C82.5162 203.446 85.4785 204.166 88.7318 205.315C92.9067 206.788 96.3461 209.207 100.585 210.62" stroke="#2C2C2C" stroke-width="5" stroke-linecap="round"/>
<path d="M151.705 192.16C151.094 191.985 154.363 188.454 154.743 187.979C155.864 186.577 156.604 184.785 157.504 183.246C158.048 182.314 158.973 181.216 159.279 180.169C159.702 178.716 158.601 176.981 158.214 175.633C157.677 173.763 159.095 173.825 160.501 173.483C161.492 173.242 164.484 171.878 165.333 173.01C165.84 173.685 165.55 175.116 165.55 175.909C165.55 177.708 165.513 178.899 167.069 179.952C168.4 180.852 171.566 181.609 172.216 183.206C172.455 183.791 173.184 186.498 172.571 187.111C172.292 187.391 170.952 187.19 170.639 187.19C168.653 187.19 166.668 187.19 164.683 187.19C164.306 187.19 162.842 186.639 162.73 187.032C162.313 188.493 161.129 189.128 159.949 190.168C159.138 190.883 158.545 192.118 157.681 192.712C156.307 193.657 155.023 194.523 153.835 195.71" stroke="#2C2C2C" stroke-width="5" stroke-linecap="round"/>
<path d="M111.235 230.145C108.398 233.029 106.55 236.222 104.096 239.414C102.483 241.511 100.27 245.709 97.3902 246.317C93.9573 247.042 90.376 244.976 86.8191 245.646C83.058 246.355 82.8323 251.129 86.0499 252.845C87.6734 253.711 89.7625 253.944 91.0791 255.33C91.9139 256.209 92.2355 257.973 92.6174 259.097C93.4753 261.623 94.2704 262.805 97.0352 262.805C99.0749 262.805 100.94 262.302 100.94 260.083C100.94 259.073 100.68 257.674 101.019 256.691C101.463 255.402 102.36 254.387 102.912 253.18C103.956 250.903 105.406 248.399 107.172 246.633C108.333 245.472 110.88 243.527 110.88 241.86" stroke="#2C2C2C" stroke-width="5" stroke-linecap="round"/>
<path d="M157.74 229.435C162.133 229.435 166.267 229.259 170.5 230.105C173.624 230.73 172.526 226.081 174.898 224.662C177.179 223.298 179.939 221.805 180.42 225.293C180.69 227.249 179.992 228.355 179.474 230.145C178.35 234.027 181.252 234.935 182.59 238.034C183.055 239.112 183.655 240.161 183.655 241.347C183.655 241.97 182.963 244.302 182.235 244.345C180.051 244.473 177.421 243.361 175.845 241.86C174.958 241.015 172.898 240.116 172.67 238.862C172.466 237.742 171.765 237.365 170.954 236.614C169.867 235.608 167.805 236.432 166.516 236.515C165.019 236.612 163.5 236.535 162 236.535C160.792 236.535 155.406 237.343 154.9 235.825" stroke="#2C2C2C" stroke-width="5" stroke-linecap="round"/>
<path d="M152.06 248.605C152.06 251.025 151.073 256.375 155.058 256.375C157.457 256.375 156.478 251.62 155.768 250.498C154.917 249.154 153.487 248.263 152.77 246.83" stroke="#B072F8" stroke-width="5" stroke-linecap="round"/>
<path d="M163.42 250.025C163.42 255.922 163.271 261.839 163.44 267.735C163.547 271.492 165.311 275.397 166.97 278.701C167.858 280.469 169.591 281.664 171.486 280.279C176.175 276.853 173.491 270.697 172.177 266.473C170.238 260.242 166.632 255.029 163.775 249.315" stroke="#B072F8" stroke-width="5" stroke-linecap="round"/>
<path d="M134.665 280.2C130.34 282.093 124.019 283.742 120.82 287.537C116.906 292.18 121.846 293.283 125.632 293.867C128.847 294.364 134.544 294.099 136.756 297.003C137.579 298.084 137.847 301.898 139.043 302.387C140.493 302.98 142.287 302.929 143.816 302.92C148.196 302.894 152.542 302.399 156.853 301.638C160.732 300.953 164.591 299.833 168.548 299.725C169.76 299.692 171.617 299.395 172.749 300.001C176.622 302.076 180.092 302.627 184.523 302.565C193.165 302.444 202.096 300.749 209.846 296.845C211.526 295.999 214.515 294.717 211.779 293.414C208.577 291.889 206.372 289.311 203.535 287.3C202.391 286.488 201.764 286.179 202.509 284.795C203.521 282.917 205.197 281.337 206.533 279.687C209.496 276.027 201.033 275.433 199.157 275.23C194.083 274.681 190.045 272.369 190.045 267.065C190.045 260.461 183.349 259.852 177.975 259.255" stroke="#B072F8" stroke-width="5" stroke-linecap="round"/>
<path d="M148.865 278.425C148.082 278.734 147.113 278.757 146.518 279.352C145.971 279.899 147.97 278.816 148.707 278.582C150.935 277.876 153.142 277.087 155.413 276.531C158.342 275.814 167.544 273.338 162.828 279.687C159.829 283.725 155.471 286.756 152.257 290.652C151.069 292.092 150.094 293.743 148.944 295.228C148.454 295.859 148.385 295.916 148.963 295.603C151.218 294.382 153.776 293.615 156.162 292.723C162.497 290.357 168.836 287.939 175.076 285.327C178.264 283.993 177.144 284.79 175.174 286.629C170.489 291.004 165.617 295.185 161.014 299.646C160.287 300.349 159.589 301.098 158.785 301.717C157.523 302.687 161.384 299.876 162.71 298.995C169.072 294.769 175.853 291.279 182.728 287.97C184.71 287.016 186.745 285.975 188.861 285.327C189.057 285.268 189.592 285.201 189.473 285.367C188.349 286.94 186.387 288.274 185.864 290.219C185.608 291.169 189.554 290.188 189.611 290.179C194.244 289.488 198.956 288.445 203.673 288.739C205.143 288.831 202.844 290.642 202.588 290.869C200.866 292.4 199.026 293.792 197.145 295.11" stroke="#B072F8" stroke-width="5" stroke-linecap="round"/>
<path d="M58.6949 245.41C56.1067 243.243 55.2302 241.067 54.001 237.994C53.1566 235.883 52.2854 233.585 52.226 231.289C52.0736 225.394 52.6452 217.503 56.2099 212.553C57.8847 210.226 58.2091 214.39 58.3202 215.195C58.6155 217.336 58.6949 219.468 58.6949 221.625C58.6949 224.378 58.6053 227.168 59.1091 229.888C59.9478 234.417 62.7354 238.356 64.8877 242.353C65.7108 243.881 63.2496 245.704 62.5999 245.055" stroke="white" stroke-width="5" stroke-linecap="round"/>
<path d="M67.9251 253.575C67.9251 255.751 67.2015 258.407 69.6212 259.452C72.2504 260.588 74.6747 259.389 75.2618 256.336C75.5916 254.621 72.8457 252.479 71.554 251.603C70.7314 251.045 70.4567 252.109 70.0551 252.51" stroke="white" stroke-width="5" stroke-linecap="round"/>
</svg>
