<svg width="105" height="160" viewBox="0 0 105 160" fill="none" xmlns="http://www.w3.org/2000/svg">
<rect width="105" height="160" rx="5.0392" fill="#91BFFF"/>
<rect width="105" height="160" rx="5.0392" fill="#91BFFF"/>
<path d="M14.7461 24H10.7178V13.3945H14.7168C17.9834 13.3945 20.0195 15.3794 20.0195 18.6973C20.0195 22.0078 17.9834 24 14.7461 24ZM13.501 21.627H14.6436C16.2769 21.627 17.207 20.9312 17.207 18.6973C17.207 16.4561 16.2769 15.7676 14.5703 15.7676H13.501V21.627ZM24.8154 24.1465C22.2812 24.1465 20.7358 22.6157 20.7285 20.0449C20.7358 17.584 22.3032 15.9434 24.7568 15.9434C27.1152 15.9434 28.6753 17.4595 28.6826 20.0156V20.6748H23.4678V20.7773C23.4678 21.605 23.9878 22.1836 24.874 22.1836C25.4819 22.1836 25.958 21.9272 26.1338 21.4658H28.668C28.397 23.1064 26.9907 24.1465 24.8154 24.1465ZM23.4678 19.1221H26.1191C26.1118 18.4043 25.5552 17.8989 24.8154 17.9062C24.0757 17.8989 23.4897 18.4043 23.4678 19.1221ZM37.2139 16.0459L34.5332 24H31.3252L28.6445 16.0459H31.5596L32.8926 21.3633H32.9658L34.3135 16.0459H37.2139ZM41.2187 24.1465C38.6846 24.1465 37.1392 22.6157 37.1318 20.0449C37.1392 17.584 38.7065 15.9434 41.1602 15.9434C43.5186 15.9434 45.0786 17.4595 45.0859 20.0156V20.6748H39.8711V20.7773C39.8711 21.605 40.3911 22.1836 41.2773 22.1836C41.8853 22.1836 42.3613 21.9272 42.5371 21.4658H45.0713C44.8003 23.1064 43.394 24.1465 41.2187 24.1465ZM39.8711 19.1221H42.5225C42.5151 18.4043 41.9585 17.8989 41.2187 17.9062C40.479 17.8989 39.8931 18.4043 39.8711 19.1221ZM48.666 13.3945V24H45.8975V13.3945H48.666ZM53.5645 24.1465C51.001 24.1465 49.4702 22.4912 49.4629 20.0449C49.4702 17.5986 51.001 15.9434 53.5645 15.9434C56.1279 15.9434 57.6587 17.5986 57.6514 20.0449C57.6587 22.4912 56.1279 24.1465 53.5645 24.1465ZM52.29 20.0303C52.2974 21.29 52.7661 22.0884 53.5791 22.0957C54.3555 22.0884 54.8315 21.29 54.8242 20.0303C54.8315 18.7559 54.3555 17.9575 53.5791 17.9648C52.7661 17.9575 52.2974 18.7559 52.29 20.0303ZM58.4775 26.9883V16.0459H61.2168V17.4229H61.29C61.5903 16.6392 62.3228 15.9434 63.5312 15.9434C65.1279 15.9434 66.6514 17.1665 66.6514 20.0303C66.6514 22.7695 65.2231 24.1099 63.5019 24.1025C62.3667 24.1099 61.6123 23.4873 61.29 22.6963H61.2461V26.9883H58.4775ZM61.1875 20.0156C61.1802 21.2168 61.6782 21.9712 62.5059 21.9785C63.3262 21.9712 63.8022 21.2314 63.8096 20.0156C63.8022 18.8145 63.3335 18.0747 62.5059 18.082C61.6709 18.0747 61.1802 18.8071 61.1875 20.0156ZM71.2861 24.1465C68.7519 24.1465 67.2065 22.6157 67.1992 20.0449C67.2065 17.584 68.7739 15.9434 71.2275 15.9434C73.5859 15.9434 75.146 17.4595 75.1533 20.0156V20.6748H69.9385V20.7773C69.9385 21.605 70.4585 22.1836 71.3447 22.1836C71.9526 22.1836 72.4287 21.9272 72.6045 21.4658H75.1387C74.8677 23.1064 73.4614 24.1465 71.2861 24.1465ZM69.9385 19.1221H72.5898C72.5825 18.4043 72.0259 17.8989 71.2861 17.9062C70.5464 17.8989 69.9604 18.4043 69.9385 19.1221ZM75.9648 24V16.0459H78.6455V17.54H78.7334C79.019 16.4414 79.6929 15.936 80.5498 15.9434C80.7915 15.936 81.0478 15.98 81.2676 16.0312V18.4189C80.9966 18.3237 80.5278 18.2725 80.2275 18.2725C79.3633 18.2725 78.7261 18.8877 78.7334 19.8105V24H75.9648ZM18.707 42.4492V45.0977H20.1836V46.1641H18.707V48.8242H17.4062L17.4062 42.4492H18.707ZM10.7148 48.2031V43.1172H12.0039V44.6172H14.4766V43.1172H15.7656L15.7656 48.2031H10.7148ZM11.6523 50.3594V49.3164H18.707V53.043H17.4062V50.3594H11.6523ZM12.0039 47.1719H14.4766V45.6367H12.0039V47.1719ZM30.0789 48.3555V49.4102H25.8719V53.0312H24.5828V49.4102H20.4227V48.3555H30.0789ZM20.9266 46.6211C23.0066 46.3574 24.4012 45.2383 24.4949 44.0781H21.3133V43.0469H29.1883V44.0781H26.0066C26.0945 45.2383 27.4773 46.3574 29.575 46.6211L29.1062 47.6406C27.3016 47.3828 25.8953 46.5566 25.2508 45.4141C24.6004 46.5566 23.2059 47.3828 21.4187 47.6406L20.9266 46.6211ZM40.15 47.9219V48.9648H30.4937V47.9219H40.15ZM31.4898 44.9336C31.4898 43.5918 32.9957 42.7832 35.3102 42.7891C37.6187 42.7832 39.1246 43.5918 39.1305 44.9336C39.1246 46.2812 37.6187 47.1016 35.3102 47.1016C32.9957 47.1016 31.4898 46.2812 31.4898 44.9336ZM31.6891 52.832V49.75H32.9898V51.7773H39.0602V52.832H31.6891ZM32.8492 44.9336C32.8375 45.6543 33.7691 46.041 35.3102 46.0352C36.857 46.041 37.7828 45.6543 37.7828 44.9336C37.7828 44.2363 36.857 43.832 35.3102 43.832C33.7691 43.832 32.8375 44.2363 32.8492 44.9336ZM47.3312 47.8516V49.082H43.5109V47.8516H47.3312ZM56.4695 43.5156H58.0047V49.0586C57.9988 50.8809 56.6277 52.1289 54.5594 52.1289C52.4793 52.1289 51.1199 50.8809 51.1141 49.0586V43.5156H52.6375V48.9297C52.6434 50.002 53.3875 50.7637 54.5594 50.7695C55.7312 50.7637 56.4695 50.002 56.4695 48.9297V43.5156ZM60.7984 43.5156V52H59.275V43.5156H60.7984ZM65.4672 43.1172L62.7367 53.2773H61.4242L64.1664 43.1172H65.4672ZM71.4367 43.5156H72.9719V49.0586C72.966 50.8809 71.5949 52.1289 69.5266 52.1289C67.4465 52.1289 66.0871 50.8809 66.0812 49.0586V43.5156H67.6047V48.9297C67.6105 50.002 68.3547 50.7637 69.5266 50.7695C70.6984 50.7637 71.4367 50.002 71.4367 48.9297V43.5156ZM75.5195 43.5156L77.3828 46.6328H77.4531L79.3398 43.5156H81.0742L78.4609 47.7578L81.1211 52H79.3516L77.4531 48.9062H77.3828L75.4844 52L73.7266 52L76.4102 47.7578L73.7617 43.5156L75.5195 43.5156ZM15.9531 60.0937C15.959 62.8418 14.0898 64.7519 10.9375 65.5664L10.4219 64.5586C12.8887 63.9199 14.3359 62.6719 14.5527 61.125H11.0312V60.0937H15.9531ZM12.1797 69.9023V65.8477H19.1758V69.9023H12.1797ZM13.4687 68.8711H17.8984V66.8789H13.4687V68.8711ZM17.8633 65.3906V59.4609H19.1758V65.3906H17.8633ZM25.9422 60.3281C25.9363 61.6582 27.4305 63.0117 29.6922 63.3047L29.1766 64.3594C27.3777 64.0898 25.948 63.2051 25.2566 62.0098C24.5652 63.2051 23.1414 64.0898 21.3602 64.3594L20.8445 63.3047C23.0828 63.0117 24.5711 61.6699 24.5711 60.3281V59.7891H25.9422V60.3281ZM20.4227 66.3516V65.2734H30.0789V66.3516H25.8719V70.043H24.5828V66.3516H20.4227ZM36.1422 60.3281V65.3672H31.0328V60.3281H36.1422ZM32.3102 69.7617V66.3047H33.6227V68.707H39.6109V69.7617H32.3102ZM32.3219 64.3242H34.8531V61.3711H32.3219V64.3242ZM38.0055 67.0195V59.4609H39.318V67.0195H38.0055ZM47.3312 64.8516V66.082H43.5109V64.8516H47.3312ZM51.1141 69V60.5156H56.5516V61.793H52.6375V64.1133H56.1766V65.3906H52.6375V69H51.1141ZM57.5406 69V60.5156H63.0602V61.793H59.0641V64.1133H62.7672V65.3906H59.0641V67.7109H63.0836V69H57.5406ZM18.707 76.4492V79.0977H20.1836V80.1641H18.707V82.8242H17.4062V76.4492H18.707ZM10.7148 82.2031V77.1172H12.0039V78.6172H14.4766V77.1172H15.7656V82.2031H10.7148ZM11.6523 84.3594V83.3164H18.707V87.043H17.4062V84.3594H11.6523ZM12.0039 81.1719H14.4766V79.6367H12.0039V81.1719ZM24.4187 79.4609C24.4187 81.1953 25.4383 83.0234 27.1492 83.7383L26.4344 84.7695C25.1805 84.2246 24.2664 83.1172 23.7801 81.7695C23.2937 83.2227 22.3621 84.4414 21.1258 85.0273L20.3758 84.0078C22.0457 83.2344 23.0887 81.2598 23.0945 79.4609V78.5703H20.7625V77.4922H26.7391V78.5703H24.4187V79.4609ZM27.9227 87.043V76.4492H29.2352V87.043H27.9227ZM33.4352 77.0469C34.2906 77.041 35.0348 77.3574 35.5328 77.8906H38.0641V76.4492H39.3648V82.6836H38.0641V81.3359H35.527C35.023 81.8574 34.2848 82.1738 33.4352 82.168C31.8355 82.1738 30.6344 81.1016 30.6344 79.6133C30.6344 78.1133 31.8355 77.041 33.4352 77.0469ZM31.8766 79.6133C31.8766 80.4805 32.527 81.0664 33.4352 81.0664C34.3141 81.0664 34.9645 80.4805 34.9703 79.6133C34.9645 78.7168 34.3141 78.1602 33.4352 78.1602C32.527 78.1602 31.8766 78.7168 31.8766 79.6133ZM32.1812 84.9687C32.1695 83.6621 33.5582 82.9004 35.7789 82.9062C38.0055 82.9004 39.3941 83.6621 39.4 84.9687C39.3941 86.2695 38.0055 87.0312 35.7789 87.0312C33.5582 87.0312 32.1695 86.2695 32.1812 84.9687ZM33.4586 84.9687C33.4469 85.6426 34.3082 86.0059 35.7789 86.0117C37.2789 86.0059 38.1227 85.6426 38.1227 84.9687C38.1227 84.2773 37.2789 83.9082 35.7789 83.9023C34.3082 83.9082 33.4469 84.2773 33.4586 84.9687ZM36.1187 78.9336C36.1773 79.1504 36.2125 79.373 36.2125 79.6133C36.2125 79.8477 36.1773 80.0703 36.1246 80.2812H38.0641V78.9336H36.1187ZM47.3312 81.8516V83.082H43.5109V81.8516H47.3312ZM51.1141 86V77.5156H56.5516V78.793H52.6375V81.1133H56.1766V82.3906H52.6375V86H51.1141ZM57.5406 86V77.5156H63.0602V78.793H59.0641V81.1133H62.7672V82.3906H59.0641V84.7109H63.0836V86H57.5406ZM18.918 102.777V103.832H11.5469V100.773H12.8477V102.777H18.918ZM10.3516 100.059V99.0039H14.5234V97.4102H15.8125V99.0039H20.0078V100.059H10.3516ZM10.9023 97.0469C13.0762 96.7246 14.5 95.4531 14.5 94.1172V93.7422H15.8242V94.1172C15.8242 95.5 17.2187 96.748 19.4336 97.0469L18.918 98.0664C17.1895 97.7793 15.8242 96.9648 15.1562 95.8047C14.4883 96.959 13.1348 97.791 11.418 98.0664L10.9023 97.0469ZM24.3016 94.9727C24.2957 96.4141 25.1395 97.7324 26.7977 98.2539L26.0945 99.2734C24.9402 98.8633 24.1316 98.0898 23.6805 97.0879C23.2117 98.2422 22.327 99.1504 21.0437 99.6016L20.3523 98.5469C22.1043 97.9727 22.9832 96.5605 22.9891 95.0312V94.0234H24.3016V94.9727ZM22.1102 102.004C22.0984 100.715 23.4754 99.959 25.7078 99.9648C27.952 99.959 29.323 100.715 29.3289 102.004C29.323 103.293 27.952 104.031 25.7078 104.031C23.4754 104.031 22.0984 103.293 22.1102 102.004ZM23.3992 102.004C23.3934 102.648 24.2371 103.006 25.7078 103.012C27.1902 103.006 28.0281 102.648 28.0281 102.004C28.0281 101.336 27.1902 100.979 25.7078 100.973C24.2371 100.979 23.3934 101.336 23.3992 102.004ZM25.8836 96.5664V95.5H27.993V93.4492H29.2937V99.6836H27.993V96.5664H25.8836ZM35.3102 94.0469C37.5836 94.0527 39.2652 95.1836 39.2594 96.9062C39.2652 98.4941 37.9 99.5547 35.9547 99.748V101.687H40.1734V102.754H30.4937V101.687H34.6656V99.748C32.7437 99.5547 31.3785 98.4941 31.3844 96.9062C31.3785 95.1836 33.0543 94.0527 35.3102 94.0469ZM32.6617 96.9062C32.6559 98.0488 33.7633 98.7344 35.3102 98.7344C36.8805 98.7344 37.982 98.0488 37.982 96.9062C37.982 95.7988 36.8805 95.0957 35.3102 95.1016C33.7633 95.0957 32.6559 95.7988 32.6617 96.9062ZM47.3312 98.8516V100.082H43.5109V98.8516H47.3312ZM51.1141 103V94.5156H56.5516V95.793H52.6375V98.1133H56.1766V99.3906H52.6375V103H51.1141ZM57.5406 103V94.5156H63.0602V95.793H59.0641V98.1133H62.7672V99.3906H59.0641V101.711H63.0836V103H57.5406ZM18.707 110.449V113.027H20.1836V114.094H18.707V116.66H17.4062V110.449H18.707ZM10.3164 115.77C12.7129 115.113 14.1426 113.818 14.3652 112.23H10.7969V111.176H15.7773C15.7832 113.959 13.9668 115.939 10.832 116.824L10.3164 115.77ZM11.7461 118.91C11.7344 117.604 13.1523 116.789 15.2852 116.789C17.4355 116.789 18.8242 117.604 18.8242 118.91C18.8242 120.229 17.4355 121.037 15.2852 121.031C13.1523 121.037 11.7344 120.229 11.7461 118.91ZM13.0352 118.91C13.0293 119.602 13.8848 120.012 15.2852 120.012C16.6797 120.012 17.541 119.602 17.5469 118.91C17.541 118.213 16.6797 117.809 15.2852 117.809C13.8848 117.809 13.0293 118.213 13.0352 118.91ZM29.6102 111.867V112.922H20.8562V111.867H24.5945V110.59H25.8836V111.867H29.6102ZM20.4227 119.906V118.852H24.5945V117.551C22.7664 117.41 21.659 116.672 21.6648 115.5C21.659 114.223 23.0301 113.461 25.2391 113.461C27.4187 113.461 28.8074 114.223 28.8016 115.5C28.8074 116.666 27.6883 117.404 25.8836 117.551V118.852H30.1023V119.906H20.4227ZM23.0008 115.5C22.9949 116.18 23.7977 116.525 25.2391 116.531C26.6512 116.525 27.4656 116.18 27.4656 115.5C27.4656 114.832 26.6512 114.486 25.2391 114.48C23.7977 114.486 22.9949 114.832 23.0008 115.5ZM39.3648 110.461V118.23H38.0641V115.605H35.5387C35.0348 116.174 34.2848 116.514 33.4352 116.52C31.8355 116.514 30.6344 115.377 30.6344 113.812C30.6344 112.23 31.8355 111.1 33.4352 111.094C34.2789 111.1 35.0289 111.434 35.5328 111.996H38.0641V110.461H39.3648ZM31.8766 113.812C31.8766 114.756 32.527 115.359 33.4352 115.359C34.3023 115.359 34.9645 114.756 34.9703 113.812C34.9645 112.863 34.3023 112.254 33.4352 112.254C32.527 112.254 31.8766 112.863 31.8766 113.812ZM32.4156 120.832V117.434H33.7164V119.777H39.6344V120.832H32.4156ZM36.107 113.051C36.1715 113.291 36.2125 113.543 36.2125 113.812C36.2125 114.07 36.1773 114.316 36.1129 114.551H38.0641V113.051H36.107ZM47.3312 115.852V117.082H43.5109V115.852H47.3312ZM51.1141 120V111.516H56.5516V112.793H52.6375V115.113H56.1766V116.391H52.6375V120H51.1141ZM57.5406 120V111.516H63.0602V112.793H59.0641V115.113H62.7672V116.391H59.0641V118.711H63.0836V120H57.5406ZM20.0195 133.391V134.445H17.6641V138.043H16.3398V134.445H13.9961V138.043H12.6602V134.445H10.3398V133.391H20.0195ZM11.3594 130.191C11.3535 128.75 12.9004 127.83 15.1562 127.824C17.4121 127.83 18.9707 128.75 18.9766 130.191C18.9707 131.615 17.4121 132.512 15.1562 132.512C12.9004 132.512 11.3535 131.615 11.3594 130.191ZM12.6953 130.191C12.6895 131 13.6621 131.475 15.1562 131.48C16.6562 131.475 17.6289 131 17.6289 130.191C17.6289 129.359 16.6562 128.879 15.1562 128.879C13.6621 128.879 12.6895 129.359 12.6953 130.191ZM28.7781 127.461V129.758H30.2664V130.836H28.7781V133.426H27.4773V127.461H28.7781ZM20.8797 132.781V127.977H22.1922V131.709C23.5457 131.691 24.9812 131.568 26.5281 131.27L26.6805 132.336C24.9227 132.687 23.2937 132.781 21.7586 132.781H20.8797ZM21.9227 137.902V133.941H28.7781V137.902H21.9227ZM23.2 136.871H27.5008V134.961H23.2V136.871ZM38.9898 127.988V128.855C38.9957 129.699 38.9957 130.66 38.773 131.902H40.1734V132.957H37.6539V135.348H36.3883V132.957H34.982V135.348H33.7047V132.957H30.4937V131.902H37.4547C37.6773 130.719 37.6891 129.822 37.6891 129.008H31.6773V127.988H38.9898ZM31.5836 137.832V134.434H32.8844V136.777H39.2711V137.832H31.5836ZM47.3312 132.852V134.082H43.5109V132.852H47.3312ZM51.1141 137V128.516H54.3602C56.2 128.516 57.1082 129.453 57.1141 130.719C57.1082 131.75 56.4578 132.324 55.6258 132.523V132.605C56.5281 132.652 57.4422 133.402 57.4422 134.691C57.4422 136.01 56.4871 137 54.5477 137H51.1141ZM52.6375 135.723H54.3133C55.4266 135.723 55.8895 135.248 55.8953 134.574C55.8895 133.812 55.2977 133.232 54.3484 133.227H52.6375V135.723ZM52.6375 132.125H54.1727C54.9754 132.125 55.5848 131.662 55.5906 130.906C55.5848 130.256 55.116 129.781 54.2078 129.781H52.6375V132.125ZM58.3844 137V128.516H63.9039V129.793H59.9078V132.113H63.6109V133.391H59.9078V135.711H63.9273V137H58.3844Z" fill="#1A1C20"/>
</svg>
