<svg width="106" height="160" viewBox="0 0 106 160" fill="none" xmlns="http://www.w3.org/2000/svg">
<rect x="1" width="105" height="160" rx="5.0392" fill="#DECAF6"/>
<path d="M23.4131 47.6109C23.9344 37.7058 27.2721 29.2769 36.2086 24.4512C44.7631 19.8318 55.3961 18.918 64.3729 22.7653C67.8022 24.2349 70.816 26.8061 73.7255 29.0832C76.6286 31.3551 79.3007 33.7037 81.5874 36.6256C84.7618 40.6818 87.3019 44.6094 87.3019 49.847" stroke="#DB93B4" stroke-width="3" stroke-linecap="round"/>
<path d="M23.4131 48.8887C20.2412 52.4129 19.9414 56.0644 19.278 60.7081C19.1112 61.8757 19.1688 63.4705 19.6507 64.5414C20.1922 65.7446 19.8913 67.1704 20.3783 68.3393C21.1192 70.1174 21.082 72.3826 22.3127 73.965C24.8455 77.2215 26.8186 80.7248 29.8019 83.7081C32.6194 86.5255 37.1666 89.4581 41.3729 89.4581C48.6375 89.4581 55.7538 89.8029 63.0064 89.4403C65.2371 89.3288 67.5673 89.1438 69.7324 88.5707C71.0539 88.2209 72.1111 87.2153 73.4238 86.7428C76.4473 85.6543 79.4431 84.2375 82.0665 82.4125C84.533 80.6967 87.4514 77.0502 88.5086 74.1957C89.6492 71.1163 90.1332 68.1427 90.7448 64.9319C91.2202 62.4358 90.755 58.9408 89.9284 56.6263C89.4378 55.2526 89.3895 51.5297 87.9407 50.8053" stroke="#DB93B4" stroke-width="3" stroke-linecap="round"/>
<path d="M29.8016 26.5275C30.7995 27.6501 27.7325 26.5148 27.3171 26.1371C26.2766 25.1912 25.2868 24.2967 25.0277 22.8717C24.6254 20.6586 24.8348 17.8985 27.4591 16.9442C29.7656 16.1055 34.0005 15.6378 35.9421 17.6541C37.8405 19.6255 36.8294 21.7363 36.8294 23.972" stroke="#DB93B4" stroke-width="3" stroke-linecap="round"/>
<path d="M79.3159 33.236C79.697 31.3305 82.3566 30.0415 84.1076 30.0415C85.0293 30.0415 86.1067 30.1946 86.9826 29.8818C88.0823 29.489 88.3098 30.4005 89.059 30.9999C90.7225 32.3307 89.6728 35.4978 89.059 36.9983C88.2526 38.9695 85.8338 38.6665 84.1076 38.6665" stroke="#DB93B4" stroke-width="3" stroke-linecap="round"/>
<path d="M59.8296 19.8194C62.5635 13.4053 66.8106 10.1452 73.2462 8" stroke="#DB93B4" stroke-width="3" stroke-linecap="round"/>
<path d="M61.4268 19.1805C63.8067 17.6336 66.6029 17.4991 69.3774 17.3348C70.18 17.2873 70.6867 17.2619 71.3295 17.5833" stroke="#DB93B4" stroke-width="3" stroke-linecap="round"/>
<path d="M42.6823 26.4621C42.672 26.4007 41.8817 27.2652 41.7464 27.5019C41.5062 27.9224 40.8131 28.177 40.4467 28.4768C39.4035 29.3302 38.5479 30.3821 37.4702 31.2063C35.5541 32.6715 33.9075 33.441 32.622 35.6905C30.184 39.9571 31.0416 45.2027 29.5285 49.9101C29.218 50.8762 28.6447 52.3034 28.6447 53.2505C28.6447 54.3041 28.1768 55.1637 28.1768 56.175C28.1768 58.3794 25.9766 60.702 26.89 63.0768C27.3501 64.2731 27.3594 65.7728 27.7218 67.0411C28.1254 68.4535 29.3555 69.5831 30.4514 70.4855C32.5518 72.2153 34.6403 73.9457 36.8203 75.5807C37.5731 76.1453 39.1595 76.8921 39.4198 77.8033C39.5178 78.1461 40.1279 78.3468 40.3947 78.5052C42.3569 79.6702 44.8512 79.9854 47.0755 80.2209C49.9492 80.5252 52.8451 80.5068 55.732 80.5068C58.1583 80.5068 60.1292 80.1771 62.3869 79.337C63.2057 79.0323 63.7877 78.6632 64.4925 78.1672C65.6759 77.3345 66.8826 76.7784 68.1319 76.0616C69.906 75.0437 71.8451 73.9171 72.9151 72.1103C74.4426 69.531 75.4755 66.4895 76.1385 63.5837C77.6169 57.1051 77.2649 49.5769 74.6828 43.4372C73.3813 40.3424 70.988 38.498 67.612 38.498C64.4395 38.498 61.8286 41.0547 60.0473 43.4372C58.1074 46.0318 56.7729 49.5581 56.5379 52.7956C56.462 53.8419 56.4967 56.7066 57.9936 57.0589C59.7627 57.4751 61.185 53.2173 61.646 52.0417C62.8505 48.9702 63.859 45.4977 63.7257 42.1634C63.6501 40.2746 62.6881 38.5788 61.1651 37.4712C59.4892 36.2523 58.1137 37.7069 57.2528 39.1089C56.032 41.097 54.7369 43.252 54.0813 45.5038C53.8249 46.3844 53.3086 48.1182 53.8344 49.0262C55.0185 51.0715 57.7488 48.6018 58.6825 47.6225C62.1467 43.9893 64.3269 33.3699 57.7597 31.6352C54.3055 30.7228 51.5881 32.8053 50.6889 36.0025C50.3821 37.0933 49.7971 40.0969 51.1438 40.8376C55.5063 43.237 58.0448 35.3749 57.0578 32.3241C56.6745 31.1392 55.0134 29.197 53.6784 29.0487C52.3993 28.9065 51.3602 30.5094 50.7409 31.4013C49.7739 32.7937 48.0893 34.44 48.0893 36.2624C48.0893 38.073 51.0755 36.0285 51.6897 35.5735C53.389 34.3148 55.0507 30.3406 51.9107 29.5556C49.7807 29.0231 42.9497 34.1625 45.7238 35.7685C47.686 36.9045 50.3181 33.9934 50.5849 32.2591C50.8577 30.486 50.4108 28.399 48.2193 28.9577C45.5305 29.643 44.3741 31.8549 43.6181 34.3387C42.9615 36.496 42.0294 39.9257 42.9552 42.1244C43.9773 44.5518 46.1434 45.2818 48.6353 45.1659C50.9404 45.0587 53.4184 43.3796 53.4184 40.8636C53.4184 37.449 48.906 38.5681 46.8936 39.2389C43.1208 40.4965 41.487 43.5635 40.5766 47.1545C39.7929 50.2458 39.4189 53.8595 40.8496 56.8639C42.2867 59.8817 45.0086 60.2393 47.1925 57.8127C49.4027 55.3569 50.2754 51.4964 50.156 48.2724C50.0864 46.3927 49.1693 44.2736 46.9975 44.243C43.8807 44.1991 42.0172 48.6582 41.0965 50.9499C40.2193 53.1334 38.6836 57.7335 40.7066 59.8144C42.2916 61.4447 44.5259 58.2622 45.2038 57.1108C47.3698 53.4322 48.5313 49.6042 48.5313 45.3349C48.5313 41.8464 47.2474 37.6623 42.7343 38.2641C39.1793 38.7381 37.2885 43.5172 36.5993 46.4787C35.9407 49.3088 34.7035 53.2952 35.6635 56.175C36.3018 58.09 38.3762 56.3077 39.3288 55.6031C42.8802 52.9766 45.2481 48.7079 45.6718 44.295C45.7961 42.9994 45.4758 39.294 43.3842 39.6158C41.0014 39.9824 39.7 44.8788 38.9909 46.6346C37.331 50.7449 35.7331 55.5908 35.6635 60.0483C35.6419 61.4277 35.0174 65.2727 37.3792 63.8697C40.8628 61.8002 43.5885 58.2039 45.2038 54.5373C46.1017 52.4994 47.8718 48.0834 45.2038 46.5826C42.6604 45.152 40.4778 46.9374 39.1989 49.0782C36.9716 52.8065 36.3649 58.2945 37.6781 62.4659C38.7304 65.8085 42.3359 67.1223 45.5028 65.8453C49.6383 64.1778 52.2301 60.1025 53.8993 56.175C54.727 54.2275 56.8796 47.9096 52.6256 48.0514C48.075 48.2031 45.6705 52.1752 44.5929 56.162C44.0449 58.1898 43.9148 60.3624 43.8651 62.4529C43.8288 63.9766 43.7032 65.7167 44.346 67.1451C45.8325 70.4485 50.709 69.5833 53.3274 68.5489C55.5103 67.6865 57.7614 66.5886 59.4494 64.9225C61.5594 62.8399 63.9193 59.4792 64.1026 56.409C64.3705 51.9217 57.6794 52.5024 55.1081 53.4325C50.6071 55.0605 46.0625 59.5208 44.8399 64.2076C44.3104 66.2375 44.2525 70.3375 47.1405 70.6415C52.1043 71.164 57.6344 67.6943 60.3202 63.6357C61.8475 61.3278 63.4709 57.2054 61.737 54.5633C60.4669 52.6279 59.9781 53.9113 59.0595 55.4861C57.4277 58.2835 56.5119 61.4535 56.5119 64.7015C56.5119 65.5502 56.3793 67.2613 57.4217 67.587C59.4638 68.2252 61.4817 67.1571 63.0368 65.9493C66.1683 63.5172 71.192 58.8552 70.1856 54.2253C69.699 51.9873 66.6308 54.9206 66.0263 55.5251C64.3321 57.2193 61.7183 60.5861 62.1529 63.1938C62.5175 65.381 67.6319 59.5826 68.1839 58.8006C69.3282 57.1795 72.0891 52.8522 70.6015 50.7419C69.0459 48.5352 65.6154 50.8641 64.2066 52.0677C61.5258 54.3581 60.3856 58.2699 60.4632 61.6861C60.483 62.5566 60.849 64.2484 61.971 63.3758C64.0556 61.7544 65.0416 58.6595 65.5583 56.175C66.091 53.6144 66.1941 50.3832 65.4284 47.8564C64.9258 46.1979 64.9227 51.2965 64.9085 53.0295C64.8938 54.8218 64.5467 58.2101 66.0783 59.5804C66.6655 60.1058 67.864 54.741 67.8979 54.3033C68.0499 52.3444 68.109 50.1592 67.612 48.2464C67.4177 47.4987 66.8312 46.6466 66.7801 45.8808C66.7358 45.2159 67.2195 47.14 67.482 47.7524" stroke="#DB93B4" stroke-width="10" stroke-linecap="round"/>
<path d="M60.999 71.4242C62.4689 71.2991 63.945 70.9788 65.3711 70.6108C66.4343 70.3364 68.2877 70.1323 69.0504 69.2C69.1028 69.136 69.1834 68.9436 69.0504 68.9141C68.5976 68.8135 68.0751 69.3721 67.7731 69.6068C66.6705 70.4633 64.8961 71.4426 64.2145 72.7205C63.995 73.1322 64.6149 72.5962 64.6911 72.5426C65.7864 71.7719 66.8993 71.0215 67.9511 70.1914C70.626 68.0802 72.6743 65.8538 74.3185 62.8644C74.5252 62.4885 74.4924 62.9787 74.5028 63.1504C74.541 63.7819 74.6873 64.4377 74.865 65.0441C75.0992 65.8438 75.9981 68.2029 77.1527 67.2492C78.4973 66.1384 79.3268 63.7703 79.6183 62.1082C79.9169 60.4053 79.9869 58.6663 79.9869 56.9418C79.9869 56.8411 79.8821 55.7357 80.044 55.6709C80.2525 55.5875 80.1617 56.1047 80.2029 56.3254C80.3611 57.1723 80.5358 58.0167 80.6732 58.8673C80.8158 59.7501 80.9115 60.6358 81.0163 61.5236C81.0293 61.6338 81.1077 62.9832 81.1371 62.2353C81.2171 60.1934 81.1014 58.2966 80.8384 56.2746C80.7752 55.7892 80.7875 55.3011 80.7875 54.813C80.7875 54.0686 81.0569 56.2787 81.2451 56.999C81.417 57.6572 81.551 58.3259 81.728 58.9817C81.7757 59.1581 82.1978 60.7145 82.2745 60.0048C82.45 58.3816 82.3889 56.749 82.3889 55.1181C82.3889 54.6522 82.1837 52.644 82.6812 53.9234C82.9119 54.5165 83.2459 55.2056 83.59 55.7408C83.9124 56.2423 84.0341 57.0891 84.1111 57.7044C84.2361 58.705 84.2191 59.7085 84.2191 60.7292C84.2191 62.0568 84.2581 63.3928 83.9649 64.6755C83.6487 66.0587 82.6225 67.0702 81.8742 68.2341C80.7136 70.0395 79.6746 71.6221 78.1567 73.14C77.5112 73.7855 76.4383 74.21 75.6402 74.6015C74.3258 75.2464 72.9707 75.898 71.5478 76.2538C70.9389 76.406 70.4484 76.6274 69.8003 76.6922C69.1362 76.7586 68.4265 76.8758 67.7731 77.0036C66.2593 77.2998 64.4813 77.2225 62.9436 77.1371C61.4543 77.0543 60.0061 76.5364 58.5334 76.3681C57.3636 76.2345 55.9923 75.9821 54.8922 75.542C52.2462 74.4837 49.6115 73.3247 47.3364 71.6021C46.4428 70.9255 45.6213 70.139 44.6548 69.5686C43.9599 69.1585 43.285 68.7866 42.5323 68.501C42.2396 68.39 41.8433 68.2734 41.5791 68.107C40.8214 67.63 40.4909 66.6759 39.679 66.2388C39.4389 66.1095 38.3691 69.0219 38.3446 69.3653C38.3088 69.866 38.1187 70.1545 37.6392 70.166C37.4056 70.1715 36.8639 70.2683 36.8639 70.5727C36.8639 72.067 36.6573 73.7361 37.296 75.0845C37.6145 75.7567 38.0518 76.422 38.4653 77.0544C38.7958 77.5599 39.0405 78.1393 39.3867 78.6241C39.8447 79.2652 40.558 79.6788 41.0326 80.289C42.1351 81.7065 43.6065 81.6369 45.2394 82.0874C45.8247 82.2488 46.4899 82.1334 47.0441 82.3797C47.3251 82.5045 47.7095 82.3621 48.01 82.4623C48.3008 82.5592 48.796 82.7175 49.1031 82.7483C50.446 82.8825 51.7664 83.2058 53.1129 83.2058C53.6919 83.2058 54.2366 83.4346 54.8223 83.4346C55.3154 83.4346 55.8256 83.3919 56.3156 83.4409C57.6293 83.5723 58.8908 83.4602 60.1983 83.4346C61.4408 83.4102 62.6552 83.224 63.9095 83.2058C65.1029 83.1885 65.8127 82.6694 66.8898 82.3416C67.4813 82.1615 67.9455 81.8052 68.4976 81.6044C69.0833 81.3914 70.0817 81.2274 70.4993 80.7402C71.2394 79.8767 72.7332 79.7979 73.6957 79.2913C74.2051 79.0232 74.8686 78.6681 75.2971 78.2873C75.9231 77.7308 76.6788 77.363 77.2925 76.7494C77.9283 76.1136 78.4331 75.6293 79.1735 75.0908C79.7829 74.6476 79.8516 73.866 80.2156 73.2289C80.4448 72.8279 80.5601 72.4837 80.8447 72.1041C81.0361 71.849 81.2427 71.5942 81.3849 71.3098C81.7026 70.6743 81.9017 69.932 82.2745 69.3399C82.9305 68.298 83.8179 67.2351 83.8759 65.9592C83.9106 65.1969 84.5089 64.544 84.6703 63.8176C84.7238 63.5765 84.791 63.2921 84.791 63.0487C84.791 62.3017 84.7413 63.2431 84.6766 63.5825C84.4573 64.7339 84.1644 65.8061 83.9649 66.9632C83.7083 68.4514 83.2105 69.8688 82.821 71.3098C82.625 72.0353 82.4095 72.9102 82.0458 73.5467C81.241 74.955 79.8106 75.7862 78.4363 76.5715C78.0868 76.7712 77.7525 76.8259 77.3814 76.9401C77.0342 77.0469 76.8109 77.353 76.4409 77.423C75.4585 77.6089 74.3731 77.4866 73.378 77.4866C71.7707 77.4866 70.1679 77.4418 68.5611 77.3976C65.4207 77.3113 62.3926 77.913 59.2833 78.1983C58.1248 78.3046 57.0884 78.793 55.9534 78.9164C53.738 79.1572 51.3431 79.0572 49.1539 78.6813C47.9581 78.4759 46.6768 78.1591 45.5635 77.6581C44.7099 77.274 43.9076 76.7338 43.0343 76.3999C41.3063 75.7392 38.964 74.5287 38.5797 72.5108C38.2956 71.0194 37.4358 69.6414 37.4358 68.107" stroke="#DB93B4" stroke-width="10" stroke-linecap="round"/>
<path d="M39.4951 36.9946C37.4715 37.7729 35.1668 37.6242 33.2548 38.7168C32.1948 39.3225 31.3264 39.5721 30.6303 40.6549C30.3895 41.0296 30.062 41.3608 29.7724 41.6844C29.3922 42.1094 29.2 42.7024 28.9718 43.2159C28.5915 44.0715 28.579 44.8468 28.3426 45.745C28.1821 46.355 28.2854 47.0816 28.2854 47.7086C28.2854 48.7529 28.2854 49.7972 28.2854 50.8415C28.2854 51.8183 28.4573 52.965 28.0567 53.8663C27.7654 54.5218 27.853 55.2745 27.4848 55.9189C27.1195 56.5581 27.1416 57.5738 27.1416 58.3273C27.1416 60.5678 28.4687 62.5596 28.832 64.7392C29.1366 66.5674 29.6272 68.3532 29.9758 70.1661C30.227 71.4721 30.5974 72.7461 30.9671 74.0234C31.1224 74.5597 31.3075 75.1554 31.717 75.5422C31.9611 75.7728 32.4223 76.0723 32.6956 76.2285C33.0967 76.4577 33.3082 76.8083 33.7759 77.0292C34.4928 77.3677 35.2592 77.5863 35.9492 77.9697C36.88 78.4868 37.8347 79.0078 38.8088 79.4948C39.7798 79.9803 40.9347 80.0302 41.8972 80.4861C42.9902 81.0039 44.2985 81.0008 45.4876 81.1407C46.1812 81.2223 47.3459 81.4514 47.9024 81.8842C48.1276 82.0594 49.1267 83.2873 48.7857 83.4919C48.1836 83.8532 47.1176 83.6944 46.4726 83.5237C45.976 83.3922 45.902 83.1698 45.5511 82.8628C45.0492 82.4236 44.3777 82.2157 43.7909 81.9223C43.4496 81.7517 43.0916 81.6111 42.7551 81.433C42.4794 81.287 42.1732 81.3295 41.9099 81.1979C41.2265 80.8562 40.4848 80.3463 39.6667 80.3463C39.334 80.3463 38.8965 80.4226 38.6055 80.232C37.6956 79.6358 36.961 78.7627 36.0699 78.1222C35.6219 77.8002 35.1807 77.577 35.1485 77.0292C35.1236 76.6052 34.6594 75.9265 34.405 75.6057C33.9939 75.0873 33.5086 74.7793 32.9752 74.3983C32.3355 73.9414 31.939 73.389 31.6026 72.6826C30.6958 70.7784 29.7774 68.8884 28.9718 66.9379C28.453 65.6821 27.5391 64.7274 26.9128 63.5318C26.6022 62.9389 26.3755 62.4169 26.163 61.8097C25.883 61.0097 25.5582 59.9431 25.5402 59.0963C25.5222 58.2499 25.4258 57.4393 25.4258 56.5798C25.4258 55.635 25.0472 56.8563 24.8984 57.2153C24.375 58.4776 24.0532 59.6071 24.0532 60.9645C24.0532 61.2133 24.1038 61.5411 24.2248 61.7589C24.5063 62.2655 24.3839 62.8897 24.6251 63.4174C25.0542 64.356 25.504 65.3004 25.9978 66.2008C26.5479 67.204 26.8795 68.3217 27.4276 69.3082C27.7549 69.8975 27.9021 70.4085 28.457 70.8524C28.9526 71.2489 29.1998 71.9641 29.7724 72.314C29.9283 72.4092 30.2477 72.6913 30.3444 72.8605C31.008 74.0219 29.8966 72.5835 30.0076 73.0829C30.1981 73.9402 31.4124 74.7801 32.0029 75.3706C32.5695 75.9372 32.937 76.5374 33.6043 77.0292C33.8065 77.1782 34.4308 77.5629 34.4622 77.8299C34.499 78.1422 34.8733 78.5841 35.0913 78.8022C35.9008 79.6116 36.9258 79.9218 37.9446 80.3972C38.1464 80.4914 38.6759 80.3518 38.8088 80.5179C38.9169 80.653 39.521 80.8219 39.6985 80.8928C40.052 81.0342 40.2227 81.2944 40.4674 81.4902C40.5475 81.5543 40.5348 81.6656 40.6136 81.7444C40.7721 81.9029 41.0086 81.8852 41.2109 81.9731C42.0728 82.3479 42.9827 82.6428 43.8672 82.9645C43.9596 82.9981 43.7235 83.1063 43.6765 83.117C43.2018 83.2255 42.7171 82.9917 42.2658 82.8628C41.0847 82.5253 39.7696 82.4624 39.0122 81.5156C38.5541 80.943 37.821 80.7421 37.2074 80.4353C36.7901 80.2267 34.8668 79.4801 35.8348 80.3972C36.2491 80.7897 36.5804 81.0276 37.0676 81.3377C37.8064 81.8078 38.8934 81.9815 39.5205 82.6086C40.1188 83.2069 40.6053 83.4681 41.4397 83.6889C42.9789 84.0963 44.4579 84.0066 46.0659 84.0066C48.5441 84.0066 51.0288 83.6635 53.5199 83.6635C54.9389 83.6635 56.325 83.3722 57.7331 83.2314C59.2463 83.0801 60.7098 83.0397 62.1877 82.634C62.9227 82.4323 63.7535 81.9655 64.5199 81.9477C64.8409 81.9403 65.207 81.999 65.5239 81.9414C65.9207 81.8692 66.5571 81.5709 66.9474 81.7444C67.3493 81.923 67.6536 81.9477 68.0912 81.9477C69.3088 81.9477 70.5722 82.2762 71.7643 81.8969C72.2894 81.7298 72.7098 81.6743 73.1623 81.3123C73.4036 81.1192 73.5249 80.8696 73.785 80.6895C74.061 80.4985 74.5129 80.0974 74.7255 79.8316C75.0527 79.4227 76.1247 79.203 76.6129 79.0945C77.0828 78.99 77.1379 79.0313 77.5343 78.6878C77.9413 78.335 78.4309 78.0308 78.8688 77.7155C79.8296 77.0237 78.3583 77.8366 78.0363 78.0015C76.3603 78.8594 74.5955 79.207 72.87 79.9142C72.0465 80.2517 71.204 80.5235 70.3789 80.8611C69.4026 81.2605 68.5885 81.9139 67.5447 82.1511C67.1197 82.2477 66.7597 82.5463 66.3119 82.6277C65.9766 82.6887 65.6267 82.6704 65.435 82.9772C65.4201 83.001 65.1675 83.1971 65.2952 83.1424C65.8288 82.9137 66.3373 82.6522 66.833 82.3481C69.7697 80.546 72.6274 78.2856 74.4459 75.3134C75.1148 74.2202 75.3811 72.8604 75.8058 71.6595C76.2849 70.3049 76.4868 68.893 76.7781 67.4908C77.1925 65.4964 77.9091 63.4977 78.1317 61.4729C78.3207 59.7525 78.7983 58.0893 79.0086 56.3764C79.2477 54.4296 79.0722 52.3766 79.0722 50.4157C79.0722 48.7613 79.0107 47.2312 78.729 45.6116C78.6309 45.0475 78.3858 44.5444 78.3858 43.9721" stroke="#DB93B4" stroke-width="10" stroke-linecap="round"/>
<path d="M26.1118 63.1885C26.3238 64.1519 26.4394 65.1392 26.7219 66.0862C27.1375 67.4798 27.7802 68.7478 28.3995 70.0515" stroke="#DB93B4" stroke-width="10" stroke-linecap="round"/>
<path d="M26.2265 68.5645C26.2265 69.2852 25.9102 74.3981 26.9129 74.3981" stroke="#DB93B4" stroke-width="10" stroke-linecap="round"/>
<path d="M27.2559 71.9961C27.4872 74.309 28.7414 76.0421 29.8867 77.9695C30.4431 78.9058 31.2336 79.5947 32.1744 80.1174" stroke="#DB93B4" stroke-width="10" stroke-linecap="round"/>
<path d="M32.9751 80.4604C33.4118 81.0791 33.6635 81.7868 34.1189 82.405C34.5359 82.9709 34.9367 83.5659 35.4344 84.0636C36.3767 85.0058 37.5168 85.379 38.8087 85.379" stroke="#DB93B4" stroke-width="10" stroke-linecap="round"/>
<path d="M39.1519 85.3789H39.2662" stroke="#DB93B4" stroke-width="10" stroke-linecap="round"/>
<path d="M68.2056 85.7221C68.8467 85.5001 69.2333 85.3789 69.9213 85.3789" stroke="#DB93B4" stroke-width="10" stroke-linecap="round"/>
<path d="M46.0146 27.1573C48.4714 26.5165 51.1446 26.8142 53.6784 26.8142" stroke="#DB93B4" stroke-width="10" stroke-linecap="round"/>
<path d="M52.3062 26.8142C52.6918 26.3184 54.4659 26.5694 55.0005 26.649C56.0077 26.799 56.991 26.9178 57.911 27.3607C59.0192 27.8943 59.7963 28.7258 60.8278 29.337C62.1855 30.1416 63.5451 31.3364 64.5453 32.5589C65.1193 33.2605 65.8528 33.804 66.528 34.4081C67.1216 34.9393 67.4548 35.6796 68.0976 36.1938C69.2196 37.0914 70.2554 38.0333 71.3575 38.9453C72.2776 39.7068 73.1156 40.5004 73.8486 41.4427C74.4682 42.2395 75.242 43.0137 75.755 43.8829C76.5406 45.2141 76.9711 46.7192 77.8075 48.0262C78.2333 48.6914 78.9577 49.5506 78.9577 50.3774" stroke="#DB93B4" stroke-width="10" stroke-linecap="round"/>
<path d="M82.8465 50.0345C83.3252 48.9574 82.1504 47.0063 81.2451 46.4632C80.8466 46.2241 80.3487 46.124 79.9615 45.8659C79.227 45.3762 78.5664 44.6474 77.9979 43.9785C77.5431 43.4435 77.1134 42.9238 76.6761 42.3771C76.2821 41.8846 76.2325 41.3284 76.0089 40.7694C75.5276 39.5661 75.1493 38.001 74.0262 37.2235C72.7075 36.3105 71.0535 36.12 69.7177 35.2789C68.4612 34.4878 67.2296 33.3717 66.2608 32.2414C65.3402 31.1674 64.1855 30.3205 62.9436 29.6995C62.3676 29.4115 61.7724 29.1681 61.1389 29.0132C60.4984 28.8566 59.5559 28.7164 59.0037 28.365C58.1875 27.8457 57.2448 27.4965 56.2648 27.2212C56.0501 27.1609 54.2201 26.6113 55.2544 26.9924C57.2518 27.7283 59.5199 27.6559 61.5837 28.0981C63.977 28.611 66.2576 29.6299 68.3197 30.9323C68.7279 31.1901 69.3846 31.4084 69.6351 31.8538C70.1072 32.693 70.6953 33.4401 71.3572 34.1351C72.4237 35.2548 73.0373 36.6965 74.3694 37.6048C74.784 37.8874 75.1983 38.1509 75.5767 38.4753C75.8213 38.6849 76.0427 38.9849 76.3266 39.1426C77.2286 39.6437 78.1706 40.485 78.7922 41.2841C79.1352 41.7251 79.5294 42.7229 79.5294 43.2858" stroke="#DB93B4" stroke-width="10" stroke-linecap="round"/>
<path d="M84.7424 33.5745C84.0996 33.8082 84.6459 34.6276 85.0725 34.7405C85.4304 34.8352 86.1574 34.7895 86.3657 34.4346C86.563 34.0986 86.291 33.5876 85.9357 33.4988C85.4372 33.3742 84.8399 33.5067 84.5183 33.9258C84.1599 34.3927 84.3204 35.4073 84.7545 35.7854C85.0152 36.0124 85.473 36.1207 85.7994 35.9671C86.0689 35.8403 86.0728 35.328 86.0386 35.0888C85.88 33.9784 84.4485 33.8715 83.5733 34.0954C83.3671 34.1481 82.8989 34.2967 82.8889 34.5679C82.8827 34.735 82.9066 34.9451 83.11 34.9858C83.8155 35.1269 84.3643 34.347 83.7248 33.8047C83.4993 33.6134 82.1802 33.0347 82.1802 33.629" stroke="#DB93B4" stroke-width="5" stroke-linecap="round"/>
<path d="M79.4624 38.7349C80.0288 38.7349 80.4514 39.6674 80.8321 39.972C81.0548 40.1502 81.1952 40.3759 81.3573 40.6102C81.7849 41.2278 82.3918 41.7234 82.9283 42.24C83.4992 42.7898 84.1876 43.2938 84.6759 43.9042C84.9444 44.2397 85.5289 44.4201 85.7363 44.783C85.8669 45.0115 86.1034 45.3731 86.3107 45.539C86.4909 45.6831 86.4633 46.0481 86.5512 46.2459C86.6735 46.5211 86.7431 46.766 86.8654 47.0412C86.9918 47.3255 87.1905 47.7713 87.2434 48.0623C87.3068 48.411 87.5826 48.7092 87.6754 49.0343C88.0365 50.2979 88.4756 51.5223 88.4756 52.8733" stroke="#DB93B4" stroke-width="5" stroke-linecap="round"/>
<path d="M83.0854 49.604C83.1179 49.8636 83.5512 50.1974 83.704 50.4189C84.0517 50.9231 84.3608 51.4619 84.5877 52.0291C84.9034 52.8185 85.242 53.7097 85.6971 54.4248C86.0066 54.9111 86.3291 55.3895 86.6004 55.8779C86.7114 56.0778 86.8582 56.2455 86.9735 56.4474C87.1082 56.6831 87.1235 56.7843 87.2386 56.4965" stroke="#DB93B4" stroke-width="5" stroke-linecap="round"/>
<path d="M86.5317 49.8691C87.1479 50.1061 87.5193 50.8869 87.813 51.4155C87.9341 51.6334 87.9879 52.2005 88.1665 52.3434C88.3403 52.4824 88.4164 52.8447 88.5838 53.0306C88.7692 53.2366 88.83 53.516 88.9372 53.7572C89.227 54.4092 89.2414 55.0822 89.5361 55.7454C89.8075 56.3559 89.5361 57.1321 89.5361 57.7336" stroke="#DB93B4" stroke-width="5" stroke-linecap="round"/>
<path d="M30.9921 22.9394C30.9921 23.2397 30.9753 23.5291 31.1652 23.7855C31.534 24.2834 31.914 23.8304 31.9392 23.4153C31.9957 22.4826 30.3366 20.5516 30.146 22.2664C30.0599 23.0412 31.0779 24.9999 31.4681 23.4393C31.6241 22.8153 31.7391 22.2281 31.2517 21.7664C31.0371 21.563 30.69 21.6829 30.6075 21.9539C30.1943 23.3117 32.1316 23.913 32.8766 22.8528C33.3466 22.184 32.3263 20.1236 31.5594 20.7809C31.4276 20.8939 31.4111 21.6238 31.4344 21.7808C31.5568 22.6068 32.7612 22.7397 33.2708 22.1606C33.7207 21.6494 33.4133 20.9363 33.1987 20.3915C32.918 19.6791 32.2992 19.3931 31.5594 19.4973C30.0132 19.7151 31.1247 21.8587 31.8526 21.252C32.5572 20.6649 31.9644 19.6922 31.1652 19.5839C30.4257 19.4836 29.8366 20.1373 29.5596 20.7376C29.4181 21.0441 29.4649 21.8022 29.7326 22.0212C30.0531 22.2834 30.5504 21.822 30.6268 21.5164C30.7849 20.884 30.3696 19.9949 29.7422 19.7858C28.8186 19.4779 28.2885 21.6683 28.8288 22.2087C29.1649 22.5448 29.4049 21.2817 29.4153 21.1799C29.4342 20.9956 29.1859 19.7181 28.9586 20.1271C28.7917 20.4277 28.709 21.0868 28.6654 21.4251C28.5935 21.982 28.5539 22.8485 29.05 23.2278C29.3265 23.4393 29.2616 23.4588 29.3961 23.8047C29.4382 23.9129 29.6076 24.4574 29.6076 24.0643" stroke="#DB93B4" stroke-width="5" stroke-linecap="round"/>
<path d="M40.325 49.2504C41.0117 49.888 41.7907 50.5471 42.7735 50.5859C43.4203 50.6114 45.1003 50.4802 45.5311 49.9058C45.9978 49.2835 45.5783 48.0528 45.2714 47.4697C44.8018 46.5774 44.1457 46.5793 43.2187 46.5793C42.029 46.5793 41.6605 46.5126 41.6605 47.7417C41.6605 48.2374 41.4028 49.6305 41.9944 49.8934C43.1587 50.4109 44.3908 49.9409 45.494 49.5224C46.0819 49.2994 47.0829 48.8511 46.6317 48.1127C45.7281 46.6341 43.9115 46.386 42.3283 46.3567C41.3163 46.338 41.2566 46.3228 40.8815 47.1482C40.5925 47.784 40.5803 49.3912 41.1659 49.8192C42.6033 50.8696 46.7937 49.981 44.7273 47.8654C44.1673 47.2921 38.6575 44.883 39.4841 47.1976C40.3151 49.5242 45.1983 49.8682 47.0892 49.0278C47.5785 48.8103 46.9711 47.9824 46.7306 47.8159C45.656 47.072 44.6551 46.6898 43.33 46.5917C42.0977 46.5004 40.8022 46.9025 40.7702 48.3106C40.7513 49.1433 40.5959 50.5732 41.5987 50.9074C43.4119 51.5118 46.5597 50.724 46.3225 48.4713C46.1279 46.6224 41.0474 44.9959 40.325 46.8019C39.5698 48.6899 41.1911 50.4405 43.1197 50.5735C44.1579 50.6451 49.7656 50.2518 47.2005 48.2364C45.5652 46.9514 42.0739 45.7837 40.9062 48.2487C40.6291 48.8337 40.1985 50.1602 40.9928 50.5364C41.7665 50.9029 43.3715 50.4476 44.0966 50.351C45.2554 50.1965 46.5575 50.185 46.5575 48.7557C46.5575 46.0756 41.9685 44.8341 40.3745 46.703C38.2061 49.2452 41.4927 51.0419 43.9854 50.7096C44.9269 50.584 47.0162 50.4934 46.7677 49.1267C46.5415 47.8823 45.3618 47.3939 44.3811 46.8514C42.3775 45.743 38.5724 46.4324 39.6078 49.4235C40.4419 51.8333 46.9633 49.7585 48.0661 48.5331C48.4798 48.0735 47.651 47.0319 47.4355 46.6906C46.7024 45.5299 45.383 45.2202 44.109 45.2438C42.4798 45.274 41.398 46.331 41.0051 47.9025C40.8533 48.5099 40.4093 50.1548 40.9433 50.6354C41.9487 51.5402 44.9567 50.4049 45.8279 49.7079C46.8608 48.8816 44.7089 46.9303 44.109 46.4804C43.0156 45.6603 41.337 45.0697 40.053 45.7879C39.0304 46.3598 38.5384 47.4332 39.1008 48.5579C39.9829 50.3221 47.6704 50.6258 47.6704 48.6939C47.6704 46.344 44.736 45.2039 42.6746 45.4787C41.3087 45.6609 38.9524 49.4294 40.4858 50.0294C42.1372 50.6756 44.0355 50.4085 45.6177 49.745C46.3595 49.4339 48.0743 48.8531 47.2129 47.7046C46.5019 46.7566 45.4154 45.2727 44.1832 45.0707C42.8085 44.8453 40.2266 44.9304 39.7685 46.5793C39.3141 48.2152 40.6816 48.7245 42.081 48.8547C43.0359 48.9435 45.9297 48.8869 46.644 48.0138C48.3083 45.9796 42.4543 43.3078 41.438 46.3567" stroke="black" stroke-width="3" stroke-linecap="round"/>
<path d="M61.6936 49.6955C61.7904 51.8236 62.5494 52.0594 64.3523 51.6988C65.5829 51.4527 65.9052 49.9593 64.5378 49.5719C61.1571 48.614 60.3822 52.4201 63.6598 53.5414C64.9086 53.9686 67.7355 54.5037 68.4207 53.1333C68.8879 52.1989 69.0605 51.0665 67.9014 50.487C67.1354 50.104 63.6813 49.2367 63.0786 50.1407C62.6821 50.7355 62.5437 52.1503 63.2517 52.5397C64.3155 53.1248 66.0414 53.3564 67.1347 52.7005C68.7836 51.7111 67.1793 50.5015 65.997 49.9676C65.3169 49.6605 61.4084 48.1408 61.0382 49.8068C60.8078 50.8439 61.5037 51.4186 62.3738 51.8101C63.4232 52.2824 66.5906 52.7693 66.5906 51.0805C66.5906 49.7188 65.5777 48.9278 64.3152 49.4729C62.8202 50.1185 62.8594 51.4387 63.2517 52.8118C63.682 54.3176 65.8073 54.1867 66.9863 53.9247C67.9424 53.7123 67.9286 52.2776 67.753 51.5752C67.5213 50.6484 66.2114 49.5916 65.255 49.4853C64.2031 49.3684 63.0675 49.6267 62.7571 50.6354C62.5418 51.335 62.3785 52.4362 63.1775 52.8612C64.3091 53.4631 67.9463 53.7239 68.9154 52.4779C69.3586 51.908 68.7009 50.6753 68.1982 50.3633C66.3109 49.1919 59.278 49.8026 61.7184 53.158C62.7082 54.5191 64.7502 54.225 66.2196 54.0978C67.4201 53.9939 69.039 54.11 69.039 52.7005C69.039 50.8144 63.9686 47.3028 63.3012 49.5719C63.0447 50.4441 62.643 52.6234 63.3754 53.3559C64.0806 54.0611 66.7383 53.3199 67.4438 52.9231C68.45 52.3571 67.7213 50.9252 67.1594 50.3633C66.6747 49.8786 62.289 47.9203 62.8066 49.4729" stroke="black" stroke-width="3" stroke-linecap="round"/>
<path d="M46.9684 58.5478C47.0975 58.0316 52.7448 58.3777 53.7605 58.3969C54.6401 58.4135 55.6119 58.4986 56.4019 58.8497C56.983 59.108 57.4959 59.4295 58.0873 59.6714C58.4188 59.8071 59.5375 60.1476 59.6386 60.6022C59.7642 61.1676 59.647 61.8934 59.647 62.4721C59.647 63.8593 57.7048 64.7262 56.6283 65.2644C53.4335 66.8618 48.5902 66.6598 45.9706 64.0402C44.9026 62.9722 44.2027 62.0676 44.5618 60.4513C44.7001 59.8289 45.3081 59.3247 45.3081 58.6988" stroke="#37021A" stroke-width="3" stroke-linecap="round"/>
<path d="M46.8176 60.208C46.8854 60.8854 47.4128 60.892 47.7736 60.3673C48.1542 59.8136 46.9892 60.4277 46.8176 60.7278C46.2003 61.8082 48.9584 61.7882 49.4171 60.9626C49.6038 60.6265 49.4324 60.3022 49.132 60.7027C48.9042 61.0063 47.74 62.0029 47.74 62.3965C47.74 62.836 49.1693 62.0504 49.2997 61.9437C49.4086 61.8546 50.0119 60.8622 49.5764 60.9962C48.438 61.3464 47.3569 63.5243 49.4171 63.0422C50.2371 62.8503 51.3679 62.0873 51.7901 61.3484C52.3289 60.4054 51.1299 61.3278 50.9013 61.6251C49.9937 62.8049 52.0091 62.2137 52.3687 61.5664C52.4953 61.3385 52.6775 61.0137 52.3687 60.8452C52.0316 60.6614 51.1662 62.4891 51.1109 62.6732C50.6525 64.2013 52.9722 63.8691 53.1653 63.0003C53.2255 62.7293 53.5185 61.995 53.2743 61.7508C53.2061 61.6827 52.4824 62.0323 52.7376 62.2875C52.8321 62.382 52.8699 61.5026 52.7796 61.34C52.4334 60.7168 52.6855 62.0344 52.788 62.254C53.1748 63.083 54.4188 64.0098 54.9681 62.7739C55.1052 62.4654 55.3985 61.5315 55.4209 61.8682C55.4332 62.0527 55.7812 62.4555 55.9911 62.2875C57.0311 61.4555 54.1327 60.2903 56.3182 61.4741C56.8926 61.7853 57.0012 61.6174 56.511 61.2645C55.7154 60.6916 56.4377 60.9148 56.9638 61.1136C57.3495 61.2593 58.4629 61.6734 58.1713 61.3819C57.9434 61.154 57.8708 61.1136 57.534 61.1136" stroke="#37021A" stroke-width="3" stroke-linecap="round"/>
<path d="M46.6668 61.4157C46.6668 60.415 46.2139 59.5608 46.2139 58.6234C46.2139 58.1575 46.8881 58.246 47.3543 58.246C48.2823 58.246 49.2103 58.246 50.1383 58.246C51.3262 58.246 52.5141 58.246 53.702 58.246C54.3159 58.246 55.1912 58.0833 55.7899 58.2544C56.3353 58.4102 57.0676 58.5479 57.685 58.5479C58.358 58.5479 59.9328 58.8899 60.1084 59.6799C60.345 60.7446 60.1713 61.816 59.3118 62.5896C58.9434 62.9211 58.5929 63.0688 58.3223 63.5287C57.8276 64.3697 57.5055 63.0547 57.3077 62.6986C57.1012 62.3269 57.5914 60.0325 56.5949 60.9293C56.0522 61.4178 55.8772 59.8067 55.2617 59.5374C54.8502 59.3573 54.3086 59.2296 53.8613 59.311C53.6089 59.3568 53.6445 59.6783 53.5259 59.8308C52.9912 60.5184 52.0204 60.1929 51.4967 59.7889C50.8523 59.2918 50.0853 59.1073 49.501 58.5814C49.2248 58.3329 48.4609 58.0951 48.1006 58.0951C47.4057 58.0951 46.8371 57.4954 46.1385 57.6507C45.705 57.747 44.9851 57.9772 44.7381 58.397C44.4488 58.8888 44.0327 60.6366 44.6291 61.1138C44.8671 61.3042 44.8903 61.7013 45.0819 61.9355C45.2495 62.1404 45.4803 62.3287 45.6102 62.5561C45.7972 62.8834 46.2578 63.2329 46.5494 63.4952C47.5013 64.352 49.1438 63.5287 50.2137 63.5287C50.347 63.5287 50.8389 63.4528 50.8845 63.6126C50.9259 63.7573 51.1407 64.1087 50.8091 63.8977C50.1734 63.4932 49.5361 63.1773 48.8553 62.8495C48.145 62.5075 47.1886 62.3031 46.5494 61.8685C46.2819 61.6866 45.7645 60.8831 45.9959 60.5855C46.4329 60.0237 47.5511 60.2082 48.1761 60.2082" stroke="#37021A" stroke-width="3" stroke-linecap="round"/>
<path d="M45.2202 58.3053C45.2733 57.8803 46.25 57.8882 46.5407 57.7988C47.0345 57.6468 47.7352 57.6019 48.232 57.5727C48.4464 57.5601 48.9153 57.4811 49.1273 57.3918C49.4576 57.2527 49.9089 57.3285 50.2669 57.3285C50.7168 57.3285 51.6237 57.1507 52.017 57.3692C52.3628 57.5613 52.9672 57.4913 53.3601 57.4913C53.5808 57.4913 53.8366 57.6541 54.0519 57.6541C54.6556 57.6541 55.4534 57.7674 56.01 58.0204C56.2479 58.1285 56.6436 58.2436 56.9009 58.3007C57.1079 58.3467 57.2823 58.4855 57.4707 58.5901C57.8314 58.7906 58.0333 59.3802 58.3254 59.5262" stroke="#37021A" stroke-width="3" stroke-linecap="round"/>
<path d="M41.2139 68.9521C41.4605 69.4763 41.5196 70.0886 41.9858 70.4882C42.5613 70.9815 43.1687 71.319 43.8538 71.6615C45.6272 72.5482 48.0687 72.968 50.0212 73.1127C51.9558 73.256 54.1084 73.1692 56.0034 72.8116C57.2597 72.5746 58.5127 72.2604 59.7702 72.0089C60.5326 71.8564 61.4423 71.4531 62.194 71.4531" stroke="#37021A" stroke-width="2" stroke-linecap="round"/>
<path d="M45.6602 73.2598C45.7055 74.9369 46.3717 77.0112 48.439 77.0112C49.7451 77.0112 50.93 76.9211 52.1904 76.741C53.207 76.5958 54.4016 76.6019 55.2162 75.8688C55.8997 75.2536 56.1134 74.8619 56.4976 74.0934" stroke="#37021A" stroke-width="2" stroke-linecap="round"/>
<path d="M40.7285 46.2505C40.7285 46.4609 40.9932 46.6799 41.0093 46.3908C41.0171 46.2501 40.8886 45.9105 40.7987 46.1803" stroke="white" stroke-width="2" stroke-linecap="round"/>
<path d="M62.9092 49.9707V50.1111" stroke="white" stroke-width="2" stroke-linecap="round"/>
<path d="M46.7764 74.8132C46.9643 74.8367 47.1239 75.0565 47.3014 75.0959C47.6308 75.1691 48.0356 75.104 48.3758 75.104C48.7328 75.104 49.1165 75.1452 49.4583 75.0313C49.8905 74.8872 50.0905 75.104 50.4842 75.104C51.1216 75.104 51.7648 74.9586 52.3745 74.9586C52.97 74.9586 53.3555 74.6999 53.9013 74.6678C53.9789 74.6632 54.4777 74.3961 54.1194 74.5951C53.8051 74.7697 53.3818 74.8132 53.0289 74.8132C52.3745 74.8132 51.7202 74.8132 51.0659 74.8132C49.733 74.8132 48.4001 74.8132 47.0672 74.8132" stroke="white" stroke-width="2" stroke-linecap="round"/>
<path d="M32.0719 81.7427C32.0145 83.1756 30.7293 84.9203 29.8098 85.9548C28.1137 87.8629 25.34 89.3866 22.8676 89.9485C18.3229 90.9814 14.248 89.3877 10.0129 88.4197C8.89608 88.1644 8.82902 86.7716 7.75082 86.532C6.60923 86.2783 5.45878 86.2356 4.27193 86.2356C2.05484 86.2356 1.55141 88.8556 2.08787 90.6661C2.62861 92.4911 2.39393 94.278 3.64791 95.8454C4.18223 96.5133 4.20891 97.0289 4.97395 97.6239C5.82505 98.2859 6.46275 98.5911 7.57922 98.5911C12.9783 98.5911 18.2736 98.3103 23.6476 98.3103" stroke="#DB93B4" stroke-width="2" stroke-linecap="round"/>
<path d="M24.4901 99.4336C24.1727 101.179 22.2358 103.497 21.1048 104.769C19.943 106.076 18.7698 107.867 18.3748 109.605C17.1659 114.924 16.2208 120.227 16.3467 125.705C16.4626 130.747 20.5213 134.546 24.5525 136.999C31.5397 141.252 40.5512 143.24 48.6396 143.24C50.3967 143.24 52.1555 143.262 53.9125 143.24C55.4928 143.22 56.7125 142.62 58.2026 142.272C60.8441 141.656 62.6022 140.352 64.7704 138.684C68.9459 135.472 71.0116 130.172 71.1042 124.987C71.2514 116.74 71.4643 108.016 67.7345 100.557" stroke="#DB93B4" stroke-width="2" stroke-linecap="round"/>
<path d="M75.8781 88.4819C76.2308 88.526 77.966 92.8039 78.4365 93.4117C79.413 94.6729 80.3665 95.9344 81.4942 97.0622C81.9626 97.5306 82.5649 98.1262 82.6174 98.8094C82.7789 100.909 83.4501 101.451 82.321 103.521C80.969 105.999 77.9616 107.015 75.254 107.015C73.2756 107.015 71.2835 106.428 69.5599 105.471C67.9062 104.552 64.4134 103.813 63.3041 102.241C62.7223 101.417 61.5569 101.165 61.5569 99.8546C61.5569 98.8489 61.4073 97.7669 61.8377 96.9062" stroke="#DB93B4" stroke-width="2" stroke-linecap="round"/>
<path d="M62.3994 96.6256C64.449 96.6256 68.2091 99.2089 69.4196 96.4852C70.433 94.205 68.5772 92.2653 68.5772 90.167" stroke="#DB93B4" stroke-width="2" stroke-linecap="round"/>
<path d="M7.36108 91.2901C7.36108 92.9104 7.27389 90.6057 7.08028 90.0732C6.85 89.44 6.63008 93.7876 7.29868 93.1933C8.45731 92.1634 6.08455 89.0507 6.81507 93.0685C6.99217 94.0425 7.08669 92.3505 7.08028 92.1325C7.06271 91.535 5.99552 88.7788 5.95705 90.51C5.9398 91.2862 5.19654 93.0909 5.95705 93.6613C6.30704 93.9238 5.9056 91.2326 5.80104 90.9937C5.63702 90.6187 4.716 88.7362 4.89622 89.1996C5.28126 90.1897 5.56337 91.6218 5.67624 92.6941C5.76549 93.542 6.51866 93.5521 6.51866 92.6941C6.51866 91.5889 5.53925 90.1383 4.69341 89.4804C4.20867 89.1034 3.13176 93.7635 4.83382 92.9125C6.39093 92.134 3.9914 87.8918 3.9914 90.3384C3.9914 90.7772 3.71173 92.5704 4.0538 92.9125C4.77087 93.6296 5.12744 92.3264 4.97422 91.8361C4.6973 90.9499 4.80324 90.209 4.0538 89.5428C3.6049 89.1438 3.73367 90.99 3.77299 91.1965C4.30245 93.9761 6.57253 91.3751 4.53741 89.34C2.65161 87.4542 4.326 91.1351 4.2722 90.1668C4.23834 89.5573 3.44739 88.482 4.55301 88.482C5.44458 88.482 6.41059 88.3088 7.20508 88.7628C8.23267 89.35 4.4904 88.3691 4.33461 88.5444C4.0286 88.8886 5.67624 92.1392 5.67624 88.9032C5.67624 86.8007 4.94855 93.0743 5.45783 93.1309C6.15369 93.2082 6.11269 91.0874 5.67624 91.1965C5.13918 91.3307 5.26987 94.931 5.45783 95.3774C5.80124 96.193 6.36729 96.0836 6.50306 95.0654C6.57529 94.5237 6.14054 92.888 6.25346 93.3961C6.50219 94.5154 7.36108 93.2627 7.36108 92.6941C7.36108 92.3535 6.9259 92.3571 6.67467 92.4289C6.38044 92.513 6.51866 93.2997 6.51866 93.5365C6.51866 96.0692 9.61569 93.3941 7.51709 92.1949C6.99671 91.8975 6.50537 93.7043 6.73707 94.0981C7.19827 94.8822 9.27968 94.0489 9.76355 93.5365C10.351 92.9145 9.20967 92.0508 9.06153 92.5693C8.78404 93.5405 12.391 93.2557 12.8836 93.2557C14.7987 93.2557 20.3374 93.8937 18.6246 93.0373C18.0938 92.7719 17.0722 92.9749 16.4873 92.9749C16.2369 92.9749 14.8178 93.0071 14.9741 93.0997C16.0437 93.7336 17.5695 93.5455 18.7494 93.5365C21.0297 93.5193 23.4362 93.4848 25.6916 93.0997C29.3519 92.4748 23.9701 92.6831 23.0395 92.8501C22.1342 93.0126 21.6063 93.2557 22.8679 93.2557C24.836 93.2557 26.6704 93.1474 28.6088 92.7565C29.4924 92.5783 30.3288 92.4133 31.2297 92.4133C31.7834 92.4133 30.1037 92.4014 29.5761 92.5693C27.7579 93.1478 28.3378 93.3675 29.9817 92.9749C31.5151 92.6087 32.8135 92.0068 33.757 90.6661C34.8944 89.0497 33.2147 89.7613 32.3373 90.4632C32.0085 90.7263 29.1039 92.6621 30.4341 91.6645C30.6773 91.4821 33.9617 87.7644 33.133 87.7644C32.4018 87.7644 31.0833 89.8546 30.6057 90.3852C30.269 90.7594 32.1265 88.5648 32.3373 87.8268C32.5736 87 31.1183 89.1648 30.9645 90.0108C30.7836 91.006 34.1431 88.3146 34.4434 88.0764C35.5682 87.1843 36.6973 86.3094 37.6727 85.2527C38.3994 84.4655 37.1675 85.1867 36.9083 85.4555C36.455 85.9255 35.1245 88.7648 35.4886 88.56C36.5796 87.9463 38.5065 86.2741 38.7959 84.9719C39.0574 83.7953 35.8458 86.2454 35.5042 86.6723C34.9499 87.3653 34.6039 88.4729 35.161 87.3588" stroke="#DB93B4" stroke-width="2" stroke-linecap="round"/>
<path d="M32.3529 87.3587C31.5654 87.7016 28.5841 89.4632 28.8272 89.3243C29.633 88.8639 30.593 88.2062 31.292 87.5771C32.8549 86.1705 31.2567 87.7785 30.8864 88.4819C30.6121 89.003 29.6919 89.5818 29.5604 90.0419C29.4082 90.5747 30.9878 89.279 31.1672 89.1059C32.9856 87.3525 31.8919 87.6948 30.6056 88.9811C30.3113 89.2755 29.5125 89.9573 29.5916 90.4319C29.694 91.0462 31.147 90.4396 30.8864 89.8859C30.6387 89.3595 29.2246 89.5772 28.796 89.6363C28.0359 89.7412 27.3341 90.0508 26.6119 90.2915C26.0711 90.4718 24.3959 90.6346 24.9583 90.7283C26.5203 90.9887 31.2837 90.3996 29.7008 90.4475C28.3067 90.4898 26.995 91.0092 25.5667 91.0092C24.843 91.0092 27.0037 90.8344 27.7196 90.7283C28.2126 90.6553 30.5603 90.1666 30.044 90.2291C27.5131 90.5359 24.967 90.9409 22.4622 91.4148C20.5893 91.7691 22.2159 91.5816 23.1174 91.5708C24.8826 91.5495 30.1713 91.29 28.406 91.29C24.8225 91.29 21.2187 91.5708 17.6573 91.5708C15.6448 91.5708 25.7071 91.5708 23.6947 91.5708C20.3562 91.5708 10.3407 91.5708 13.6792 91.5708C15.6708 91.5708 17.6625 91.5708 19.6541 91.5708C22.8484 91.5708 13.2697 91.29 10.0755 91.29C8.56745 91.29 16.1068 91.3419 14.5996 91.29C13.0692 91.2372 11.5645 90.8656 10.0443 90.7439C8.12849 90.5907 10.8579 90.8549 11.3859 90.9468C13.0587 91.2377 11.3551 90.1886 10.7307 89.8859C9.90678 89.4864 10.4933 89.8164 10.8711 90.0263C11.4134 90.3276 9.97579 89.5608 9.70108 89.4803C9.05804 89.2918 8.21014 88.7627 7.53262 88.7627C7.49114 88.7627 7.85104 89.1995 7.92263 89.1995C8.32409 89.1995 7.30397 88.6811 6.95541 88.4819C6.51402 88.2297 6.92401 89.023 7.08021 89.2619C8.40678 91.2908 6.8445 88.2808 7.08021 88.0451C7.15137 87.9739 7.96458 90.5349 8.42185 89.1059C8.50216 88.8549 8.20344 87.8263 8.20344 88.7783C8.20344 89.4987 8.32273 89.9313 8.46865 90.5879C8.72228 91.7293 8.64635 90.6334 8.06304 90.1667C7.70805 89.8827 7.84272 89.3226 7.09581 88.6379C6.45187 88.0476 5.39537 86.898 5.39537 88.6223C5.39537 89.1085 4.9935 90.4091 5.89458 89.5427C6.46999 88.9894 6.66941 88.2598 6.36259 87.5147C5.14722 84.563 3.26033 90.8965 5.52017 89.6051C6.02389 89.3173 6.10217 88.1022 5.52017 87.9359C4.21986 87.5644 4.22593 89.6621 4.27214 90.4475C4.31182 91.1221 5.76907 89.8672 5.33297 89.0435C4.57437 87.6106 4.55295 90.994 4.55295 91.3524C4.55295 93.2356 6.31457 91.318 5.61377 91.29C4.24508 91.2352 2.51557 94.5728 3.99133 94.6597C4.62724 94.6971 5.12336 94.5431 5.72298 94.3632C6.66174 94.0816 6.78845 93.4291 7.14261 94.098C7.27395 94.3461 8.08087 94.5972 8.18784 94.2228C8.33689 93.7012 7.32161 94.4954 7.70423 94.8781C8.12053 95.2944 10.3125 94.9623 10.8555 94.9249C11.1345 94.9056 13.4086 94.4273 12.1971 94.3788C10.7553 94.3212 13.8681 94.885 14.6308 94.5036C15.7397 93.9492 12.6729 93.8172 12.5404 93.8172C11.9192 93.8172 11.2736 93.7676 10.6683 93.942C10.6173 93.9567 9.30945 94.5143 9.76348 94.6441C11.2235 95.0612 15.8373 94.6597 14.3188 94.6597C12.4338 94.6597 6.85894 94.4382 8.67145 94.9561C9.48926 95.1897 13.9154 95.2213 11.1363 95.2213C10.496 95.2213 8.49337 94.877 7.98504 95.2837C7.8133 95.4211 9.89277 95.5021 10.1379 95.5021C11.7323 95.5021 5.45266 95.3457 7.42342 95.4865C8.94012 95.5948 10.4888 95.5021 12.0099 95.5021C13.039 95.5021 11.9289 95.535 11.5419 95.6425C10.4807 95.9373 9.5971 96.0637 8.48425 96.0637C7.49935 96.0637 6.62016 96.2855 5.67618 96.3445C4.55125 96.4148 7.91874 96.6253 9.04586 96.6253C10.7146 96.6253 12.8437 96.4038 14.3812 95.7205C16.2348 94.8967 19.0844 94.874 21.1206 94.6597C24.7536 94.2772 28.307 93.2556 32.0565 93.2556C32.4385 93.2556 34.8277 93.6883 34.0221 93.8172C29.9341 94.4713 25.5594 94.098 21.4326 94.098C19.5163 94.098 17.4693 94.3788 15.6448 94.3788C14.3641 94.3788 14.7281 94.9405 15.91 94.9405C18.3775 94.9405 20.6206 94.3788 23.0862 94.3788C26.4348 94.3788 29.8231 94.9285 33.1485 95.2057C35.3562 95.3896 37.0618 96.3747 39.0923 97.1869" stroke="#DB93B4" stroke-width="2" stroke-linecap="round"/>
<path d="M33.039 106.824C32.9643 109.066 31.2915 118.035 35.7376 117.699C40.684 117.326 41.7027 110.82 41.4785 106.874C41.4092 105.654 40.9093 102.163 39.4065 104.459C37.72 107.035 37.8686 111.416 38.2139 114.323C38.3835 115.751 38.5606 118.865 39.9624 119.69C41.089 120.353 42.038 119.171 42.6004 118.336C43.6818 116.73 44.4258 114.833 44.4702 112.878C44.5327 110.13 44.4056 107.054 43.0653 104.58C41.6814 102.025 38.9517 107.015 38.598 107.905C38.0714 109.23 37.8209 110.479 37.9713 111.908C38.0337 112.5 38.5387 113.697 39.3055 113.697C39.8919 113.697 40.9198 112.588 41.3067 112.241C42.5768 111.101 43.7007 109.822 44.4601 108.279C46.3701 104.398 44.816 98.5605 39.8715 98.0507C36.2271 97.675 36.8383 102.721 37.4457 104.964C37.6202 105.608 38.4819 108.299 39.4065 106.925C41.4597 103.874 42.449 99.5085 41.4077 95.9383C40.8371 93.9819 37.9492 92.6721 36.3138 94.3818C35.2137 95.5319 34.2586 98.5459 35.2222 99.9913C36.1345 101.36 38.0052 97.6853 38.2947 97.0097C39.3654 94.5115 39.3529 91.5122 37.6681 89.2979C36.3717 87.594 35.8635 91.7867 35.768 92.4716C35.5916 93.7352 35.3848 94.9793 35.1413 96.2314C35.1289 96.2952 34.9515 97.59 35.2323 97.2624C36.6191 95.6444 37.0169 93.7359 36.3946 91.6428C36.1105 90.6871 35.3681 89.1245 34.0902 89.5809C33.5655 89.7683 33.0983 90.2801 32.756 90.6927C32.5672 90.9205 32.0155 91.4609 32.3113 91.4609C32.8348 91.4609 33.221 88.5289 33.221 88.1659C33.221 87.5906 32.9265 89.2858 32.6752 89.8033C32.2118 90.7573 31.6294 91.8196 31.7757 92.9163C31.8745 93.6574 31.9475 94.3394 31.9475 95.0893C31.9475 96.5 31.2981 98.3049 32.0384 99.6375C32.6125 100.671 31.5245 101.826 30.8559 102.457C29.7511 103.501 29.0366 104.683 29.0366 106.278" stroke="#DB93B4" stroke-width="10" stroke-linecap="round"/>
<path d="M29.5828 94.9985C29.5828 93.8447 29.4009 97.3013 29.4009 98.4551C29.4009 99.03 29.4035 100.286 29.1785 100.82C28.8238 101.663 28.7537 102.634 28.4508 103.509C28.149 104.381 27.6295 105.263 27.0762 105.955C26.8904 106.187 26.9621 106.587 26.7124 106.864C26.4139 107.196 26.2021 107.502 25.9846 107.915C25.6502 108.551 25.4866 109.59 25.0346 110.099C23.9478 111.321 23.52 113.007 22.7605 114.374C22.5904 114.68 22.6695 115.123 22.6695 115.465C22.6695 115.911 22.3057 116.294 22.3057 116.739C22.3057 117.599 21.7599 118.569 21.7599 119.458C21.7599 120.968 21.7379 122.557 22.3461 123.925C22.8506 125.06 22.7348 126.722 23.6196 127.705C24.4992 128.682 25.1293 129.911 25.9442 130.929C27.6646 133.08 31.009 133.021 33.4942 133.021C34.1728 133.021 34.854 131.574 35.2327 131.101C36.0466 130.084 37.3014 129.135 37.6584 127.826C38.3901 125.143 36.5555 122 35.0002 120.003C32.9129 117.324 30.119 115.206 26.682 114.677C25.3578 114.473 26.7261 116.748 26.9549 117.224C28.0556 119.513 29.3873 121.693 31.1292 123.551C31.8161 124.284 36.9266 127.402 37.0317 125.3C37.1466 123.001 36.5971 120.978 35.0507 119.225C31.8805 115.632 32.5616 124.074 32.7665 125.29C32.8532 125.804 33.0981 129.788 34.4948 129.09C37.1085 127.783 38.8632 123.987 40.2155 121.621C40.5494 121.036 43.2363 114.9 44.0966 115.091C44.3599 115.15 43.9551 121.129 43.9551 121.6C43.9551 122.577 43.8706 123.6 43.9955 124.572C44.0511 125.004 44.1908 125.555 44.3998 124.895C45.4255 121.656 45.4105 118.46 45.4105 115.071C45.4105 112.144 45.2729 109.346 44.7233 106.46C44.6414 106.03 43.9628 102.329 44.319 104.823C44.8284 108.389 45.18 111.978 45.734 115.536C45.8747 116.44 45.9679 117.379 46.2797 118.245C46.4806 118.803 46.3202 117.059 46.3202 116.466C46.3202 110.173 46.5203 103.844 46.2292 97.5556C46.1838 96.5755 46.1382 95.5959 46.1382 94.6144C46.1382 94.4918 46.2085 94.1419 46.2393 94.2606C46.5165 95.3296 46.6552 96.4789 46.7649 97.5758C47.0775 100.702 46.6843 103.955 47.1389 107.046C47.4456 109.132 46.3234 102.901 46.1484 100.8C45.8881 97.6766 45.9563 94.5413 45.9563 91.4104C45.9563 90.3306 45.9719 91.4864 45.9361 91.8349C45.7842 93.3163 45.3937 94.8565 45.0467 96.3023C44.7816 97.4066 44.4647 98.468 44.319 99.5972C44.2198 100.366 44.1168 99.9962 44.1471 99.4355C44.2507 97.5198 44.3307 95.5331 44.602 93.634C44.7082 92.8905 44.7136 92.0554 44.8749 91.3296C44.9317 91.0736 45.2251 91.7203 45.4105 91.9057" stroke="#DB93B4" stroke-width="10" stroke-linecap="round"/>
<path d="M52.5056 86.2661C52.659 89.078 51.7036 92.1823 51.2119 94.9683C50.8273 97.1475 50.5044 99.3336 50.5044 101.548" stroke="#DB93B4" stroke-width="10" stroke-linecap="round"/>
<path d="M50.8683 87.1758C49.61 95.3063 48.9025 103.414 49.0591 111.635C49.1027 113.92 49.2889 116.283 50.1406 118.427C50.4804 119.283 51.1866 121.242 52.1418 121.56" stroke="#DB93B4" stroke-width="10" stroke-linecap="round"/>
<path d="M53.7788 108.643C54.9666 112.37 55.2342 116.524 55.2342 120.428C55.2342 121.197 55.2708 121.802 54.8704 122.47" stroke="#DB93B4" stroke-width="10" stroke-linecap="round"/>
<path d="M58.3271 115.92C59.4516 118.544 60.5716 121.452 59.9241 124.33C59.6676 125.47 59.3699 127.596 58.3271 128.292" stroke="#DB93B4" stroke-width="10" stroke-linecap="round"/>
<path d="M28.91 118.582C27.0558 120.636 25.248 122.541 23.1029 124.257C22.5949 124.664 21.829 125.325 21.4155 124.498" stroke="#DB93B4" stroke-width="10" stroke-linecap="round"/>
<path d="M22.2041 123.315C22.2041 124.717 22.2041 126.12 22.2041 127.522C22.2041 128.037 22.5404 128.912 23.0149 129.173C23.7327 129.568 24.7905 129.549 25.3597 130.152C25.7559 130.571 26.191 130.96 26.7402 131.204C27.2905 131.448 27.7276 131.903 28.2596 132.182C29.0108 132.577 29.8113 132.737 30.5897 133.044C31.1461 133.264 31.5976 133.664 32.1236 133.965C32.7895 134.345 33.4895 134.885 34.3004 134.885C34.8127 134.885 37.0081 134.555 37.3245 134.951C37.8941 135.663 39.8922 135.466 40.6846 135.55C41.7935 135.667 42.7959 135.806 43.9278 135.806C45.8305 135.806 47.3511 135.56 49.0263 134.629C50.0222 134.076 50.9835 133.439 51.7947 132.628C53.4516 130.971 54.2605 129.193 54.1249 126.85C54.0323 125.252 52.9756 123.064 51.13 122.92C50.0063 122.833 49.0591 123.498 48.6392 124.505C47.6892 126.785 47.5865 131.253 50.6187 131.934C52.1784 132.284 54.2194 131.482 54.8115 129.889C55.1272 129.039 55.2671 128.035 54.7896 127.223C54.1905 126.204 52.9889 126.283 51.9481 126.368C49.9642 126.529 47.4228 127.032 46.0388 128.632C45.3919 129.38 44.7985 130.212 45.0819 131.204" stroke="#DB93B4" stroke-width="10" stroke-linecap="round"/>
<path d="M29.9189 132.908C29.9867 133.518 31.1721 134.174 31.6604 134.492C32.1612 134.817 32.484 135.196 33.062 135.396C34.4345 135.871 35.7895 135.966 37.2365 135.966C38.4781 135.966 39.685 136.294 40.9499 136.294C41.9914 136.294 43.0324 136.375 44.0565 136.403C47.1651 136.489 50.1843 137.247 53.2914 136.537C53.8982 136.398 54.5803 136.414 55.1481 136.13C55.9144 135.747 56.2483 135.123 56.8106 134.522C57.2987 134 57.9351 133.629 58.3215 133.011C58.526 132.684 58.8407 131.99 59.1891 131.816" stroke="#DB93B4" stroke-width="10" stroke-linecap="round"/>
<path d="M39.7485 138.259C40.6271 139.046 42.1081 138.805 43.1949 138.805C43.8934 138.805 44.5477 138.758 45.2276 138.69C46.1166 138.601 46.9697 138.523 47.8306 138.284C48.5655 138.08 49.2624 137.771 50.0149 137.604C52.7114 137.005 55.7379 137.176 58.0909 135.529C59.4627 134.569 60.4717 133.214 62.0531 132.532C62.6094 132.291 62.9439 131.846 63.1149 131.276C63.2492 130.828 63.5404 130.171 63.5579 129.716C63.5998 128.625 63.6462 127.524 63.6671 126.415C63.6886 125.273 63.8325 124.05 63.9401 122.908C63.9663 122.631 64.2231 120.953 63.8855 120.785" stroke="#DB93B4" stroke-width="10" stroke-linecap="round"/>
<path d="M64.1035 116.744C64.8795 118.773 65.0865 121.116 65.0865 123.285C65.0865 124.737 65.0642 120.375 65.1957 118.928" stroke="#DB93B4" stroke-width="10" stroke-linecap="round"/>
<path d="M65.1959 116.744C65.102 115.946 64.7058 117.848 64.674 118.03C64.6334 118.264 64.391 119.273 64.128 118.625C63.912 118.092 63.7705 117.529 63.5515 116.993C62.9221 115.45 62.3265 113.892 61.7737 112.32C61.6925 112.09 60.7285 110.122 60.4995 110.567C60.1336 111.278 60.2587 112.277 60.1476 113.055C60.1123 113.302 60.123 113.807 59.7957 113.479C59.3124 112.996 58.8536 112.355 58.4305 111.817C57.5013 110.634 56.4585 109.247 56.4585 107.679" stroke="#DB93B4" stroke-width="10" stroke-linecap="round"/>
<path d="M56.28 92.0303C56.8034 93.1598 56.6789 94.6098 56.5352 95.8069C56.4111 96.8419 56.2128 97.8658 56.1017 98.9028C55.9749 100.086 55.9242 101.298 55.9922 102.489C56.0046 102.705 56.0895 102.941 56.207 103.117" stroke="#DB93B4" stroke-width="10" stroke-linecap="round"/>
<path d="M56.7905 103.555C58.1204 104.441 59.8459 104.448 61.1953 105.338C61.8007 105.737 62.4516 106.12 62.9661 106.634C63.4396 107.108 64.0587 107.43 64.3358 108.036C64.7528 108.949 64.8969 109.943 65.3245 110.849C65.509 111.239 65.4704 111.648 65.4704 112.076C65.4704 113.192 65.7638 114.341 65.5433 115.444" stroke="#DB93B4" stroke-width="10" stroke-linecap="round"/>
<path d="M64.0929 122.708C64.7003 123.497 64.5061 124.319 64.7105 125.188C64.8457 125.762 65.2127 125.86 65.0526 126.518C64.8538 127.335 64.54 128.233 63.9883 128.903C63.6376 129.329 63.24 129.753 63.0001 130.233C62.7062 130.821 62.1034 131.109 61.5748 131.468C61.3592 131.615 61.067 131.79 60.9477 132.029C60.8372 132.25 60.5663 132.334 60.4346 132.542C60.2384 132.853 59.7314 133.065 59.7314 133.483" stroke="#DB93B4" stroke-width="10" stroke-linecap="round"/>
<path d="M50.8643 138.963C51.382 139.129 51.8812 139.028 52.4116 138.963C53.2433 138.862 54.2083 139.034 55.015 138.848C55.1022 138.828 55.405 138.602 55.4802 138.54C55.6597 138.39 56.0072 138.463 56.2069 138.284C56.3647 138.142 56.6104 138.048 56.7401 137.881C56.8767 137.705 56.9478 137.455 57.0956 137.29C57.4283 136.921 57.8705 136.381 58.392 136.328C58.8658 136.281 59.2817 135.788 59.7564 135.665C60.19 135.551 60.219 135.175 60.504 134.917C60.6898 134.749 60.9547 134.694 61.1417 134.52C61.3128 134.36 61.4623 134.171 61.6436 134.023C61.963 133.762 62.2496 133.481 62.5323 133.181C62.9564 132.732 63.1229 132.247 63.3582 131.718C63.4909 131.419 63.6614 130.772 63.6614 130.447C63.6614 130.16 64.0283 129.495 64.179 129.224C64.3931 128.839 64.8311 128.598 64.8795 128.09C65.0128 126.69 65.9198 125.386 65.9198 123.95C65.9198 123.456 66.1776 123.02 66.1027 122.496C66.0257 121.957 65.8257 121.406 65.8257 120.85C65.8257 120.371 65.6375 119.915 65.6375 119.438C65.6375 119.312 65.4119 118.243 65.6375 118.356" stroke="#DB93B4" stroke-width="10" stroke-linecap="round"/>
<path d="M14.6602 93.329C15.1228 93.329 15.5856 93.3318 16.0483 93.329C16.2941 93.3275 16.5591 93.3374 16.7959 93.2645C16.8835 93.2375 16.9796 93.2239 17.0711 93.2194C17.469 93.2 17.8631 93.1098 18.2657 93.1098C18.7564 93.1098 19.2445 93.0125 19.7354 93.0015C20.2118 92.9907 20.6948 92.9675 21.1698 92.9235C21.7244 92.8722 22.3008 92.9126 22.8575 92.9126" stroke="#DB93B4" stroke-width="10" stroke-linecap="round"/>
<path d="M17.3343 93.5263C17.0673 93.5312 16.8038 93.5263 16.5452 93.5263C16.3741 93.5263 16.211 93.5044 16.0411 93.5044C15.8259 93.5044 15.617 93.5222 15.4031 93.5482C15.0453 93.5917 14.6896 93.5931 14.3315 93.6189C13.9457 93.6466 13.5746 93.7614 13.1967 93.8332C13.093 93.8529 12.9904 93.876 12.8874 93.8989C12.8466 93.908 12.844 93.9262 12.885 93.8989" stroke="#DB93B4" stroke-width="10" stroke-linecap="round"/>
<path d="M13.0161 93.8768C13.0537 93.8638 13.0893 93.8486 13.1257 93.833" stroke="#DB93B4" stroke-width="10" stroke-linecap="round"/>
<path d="M76.5007 101.432C76.3313 101.729 76.3962 102.21 76.7898 102.275C77.2797 102.356 77.7107 101.851 77.7349 101.402C77.7712 100.732 77.07 100.012 76.5359 100.716C76.3737 100.93 76.3882 101.216 76.4072 101.473C76.4217 101.669 76.7513 101.578 76.8533 101.528C77.103 101.405 77.0136 101.074 76.9133 100.879C76.786 100.631 76.4981 100.453 76.2503 100.343C76.1702 100.307 76.0137 100.212 75.9223 100.272C75.8315 100.331 75.856 100.355 75.7918 100.24C75.6876 100.054 75.5829 99.8583 75.4357 99.7026C75.2753 99.5331 75.0602 99.2411 74.8361 99.1771C74.801 99.1671 74.8184 99.0483 74.7691 99.0202C74.7166 98.9902 74.5672 98.8615 74.5011 98.9003C74.3848 98.9687 74.4095 99.3343 74.39 99.4469C74.3672 99.5797 74.4059 99.685 74.4059 99.8137" stroke="#DB93B4" stroke-width="10" stroke-linecap="round"/>
<path d="M71.9619 99.6548V99.6865" stroke="#DB93B4" stroke-width="4" stroke-linecap="round"/>
<path d="M69.2961 99.02C69.2115 99.0663 68.6115 99.5046 68.7777 99.5666C69.1503 99.7056 69.6756 99.4487 69.9943 99.2669C70.2897 99.0983 70.5674 98.8821 70.7666 98.6039C70.8611 98.4718 70.9338 98.3481 70.7137 98.4064C70.2292 98.5347 69.5419 98.8826 69.3807 99.4009C69.207 99.9591 69.737 100.125 70.183 100.048C70.3424 100.02 70.6769 99.9141 70.6696 99.7041C70.6582 99.3731 69.9636 99.2208 69.721 99.2157C68.8263 99.1969 67.7849 99.5141 67.0179 99.9686C66.9383 100.016 66.8425 100.06 66.7781 100.129C66.7608 100.148 66.7373 100.2 66.7076 100.203C66.649 100.208 66.3596 99.9254 66.3021 99.8822C65.9643 99.6289 65.621 99.4127 65.2494 99.2122C65.0689 99.1148 64.5423 98.8331 64.6764 98.9883C65.0307 99.3985 65.4413 99.8144 65.9812 99.9651C66.0732 99.9908 65.9761 99.8726 65.9565 99.8523C65.8577 99.7499 65.744 99.6707 65.632 99.5842C65.3601 99.3743 65.0049 99.2437 64.6764 99.1611C64.5775 99.1362 64.1818 99.005 64.1051 99.1223C64.0801 99.1605 64.2496 99.544 64.2496 99.3533C64.2496 99.1435 64.0761 98.8842 63.8547 98.8631C63.613 98.8401 64.2444 99.2052 64.3025 99.2475C64.646 99.4973 64.8713 99.8417 65.2071 100.096C65.8584 100.588 66.7842 100.675 67.561 100.829C68.2628 100.969 68.9735 100.917 69.6558 101.171C69.8565 101.246 70.0367 101.326 70.2482 101.369C70.4749 101.414 70.71 101.438 70.9323 101.503C71.3134 101.613 71.6797 101.717 72.0502 101.862C72.2354 101.935 72.2193 102.014 72.1684 102.197C72.0966 102.456 72.28 102.769 72.4523 102.949C72.5535 103.054 73.0837 103.207 73.0377 103.368C72.9588 103.644 72.316 103.46 72.1525 103.416C71.573 103.259 71.0212 103.006 70.4845 102.74C69.9331 102.468 69.3884 102.315 68.7953 102.162C68.5523 102.1 68.307 102.031 68.0583 101.996C67.9381 101.98 67.8354 101.961 67.7268 101.908C67.4772 101.787 67.1952 101.73 66.9227 101.693C66.7761 101.673 67.2773 101.948 67.3106 101.961C67.834 102.17 68.3701 102.324 68.8993 102.513C70.1266 102.952 71.2715 103.526 72.581 103.654C72.9323 103.688 73.2696 103.801 73.6213 103.842C73.7606 103.859 73.8524 103.904 73.9299 103.749" stroke="#DB93B4" stroke-width="4" stroke-linecap="round"/>
<path d="M74.8131 98.7529C73.9147 97.7488 73.2876 96.5014 72.6985 95.3006C72.4547 94.8034 72.1729 94.3469 71.9002 93.8657C71.5308 93.2138 71.3638 92.4821 71.1612 91.7727C71.0864 91.5112 71.1234 91.2093 71.1234 90.9365C71.1234 90.8062 71.1234 90.6758 71.1234 90.5455C71.1234 90.2622 71.3271 90.6046 71.4147 90.6938C72.0642 91.3553 72.5473 92.088 73.06 92.8569C73.6656 93.7653 74.5363 94.8891 75.6331 95.2547C75.7758 95.3023 75.7841 95.3147 75.7841 95.1495C75.7841 94.8357 75.682 94.5389 75.5818 94.2433C75.363 93.5979 75.1685 92.9458 74.9318 92.3067C74.7323 91.7682 74.4322 91.2683 74.2575 90.7208C74.063 90.1114 73.7923 89.5223 73.5751 88.9191C73.4633 88.6083 73.343 88.3145 73.1948 88.0182C73.1346 87.8978 73.0776 87.782 73.2191 87.9589C73.8014 88.6868 74.645 89.1659 75.2582 89.8577C75.8955 90.5768 76.2248 91.5691 76.5852 92.4416C76.9611 93.3517 77.4429 94.1813 77.9176 95.0416C78.0877 95.3499 78.1188 95.7678 78.2331 96.1043C78.3109 96.3333 78.4543 96.5641 78.4543 96.811" stroke="#DB93B4" stroke-width="4" stroke-linecap="round"/>
<path d="M4.52176 91.6224C4.52176 92.3787 4.51075 93.0249 4.80013 93.7381C4.98571 94.1954 5.60712 94.8293 6.14749 94.8293C6.54693 94.8293 6.30052 93.4664 6.22543 93.2036C6.10636 92.7868 5.88678 92.4064 5.66868 92.0344C5.45245 91.6655 5.52392 92.146 5.52392 92.3239C5.52392 93.0533 5.54374 93.6735 5.819 94.3616C5.8725 94.4954 6.36905 94.8216 6.47041 94.6623C6.74547 94.23 6.40743 93.3266 6.26441 92.9085C6.09503 92.4134 5.83494 91.9674 5.47938 91.5834C5.44648 91.5479 4.99113 91.0147 4.94489 91.1881C4.81932 91.659 5.05766 92.3556 5.12305 92.825C5.18951 93.3019 5.2149 93.7581 5.40143 94.2057C5.51148 94.4698 5.69995 94.8097 6.04727 94.7068C7.21374 94.3612 7.00011 92.4271 5.83014 92.1346C5.47623 92.0461 5.12305 92.0827 5.12305 92.4854C5.12305 93.0743 4.96501 94.4557 5.50165 94.885C5.83089 95.1484 6.08053 94.9515 6.32565 94.6623C6.88794 93.9988 6.96088 92.9652 6.76549 92.1402C6.65563 91.6763 6.31041 91.1324 5.77446 91.1324C5.19496 91.1324 5.32349 91.9834 5.32349 92.3295C5.32349 93.2287 5.54057 94.0059 6.11408 94.7068C6.52445 95.2084 7.12485 94.9023 7.32781 94.4062C7.60545 93.7275 7.25654 93.0556 6.90468 92.4798C6.50482 91.8255 6.11929 90.8498 5.29008 90.6425C4.459 90.4347 5.40071 94.1958 5.61857 94.6678C5.99559 95.4847 6.99875 93.9542 7.0216 93.5543C7.0892 92.3713 6.61607 91.0301 5.52392 90.4421C4.98903 90.154 4.42163 89.9959 4.34359 90.687C4.2842 91.213 5.39303 95.9512 6.42587 94.9184C6.96513 94.3791 7.24557 93.7179 7.37235 92.9753C7.51781 92.1234 7.16816 90.7965 6.6263 90.1191" stroke="white" stroke-width="4" stroke-linecap="round"/>
<path d="M62.9812 97.6963C62.9812 98.389 62.7824 99.5063 63.1548 100.145C63.3322 100.449 63.3097 100.202 63.3159 100.014C63.335 99.4433 63.4721 99.016 63.3159 98.4401C62.9785 97.1957 63.0928 99.0801 63.0928 99.4814C63.0928 100.387 63.0166 101.424 63.7374 102.072C64.1377 102.432 63.9853 100.88 63.9853 100.684C63.9853 100.066 63.9827 99.3838 63.6506 98.8368C63.4323 98.4771 63.5391 98.9707 63.5391 99.1715C63.5391 99.8472 63.5129 100.526 63.5949 101.198C63.6412 101.578 63.7254 102.669 63.8676 102.314C64.0514 101.854 63.8738 101.011 63.8738 100.523C63.8738 99.4514 63.8163 98.5128 63.5391 97.4731" stroke="white" stroke-width="4" stroke-linecap="round"/>
<path d="M62.0444 96.1691C62.1134 96.0139 62.5829 96.0148 62.7255 96.0077C63.1756 95.9852 63.6209 95.9701 64.0722 95.9701C64.5037 95.9701 64.9142 96.3319 65.3305 96.4389C65.5376 96.4922 65.7221 96.3289 65.5229 96.147C64.971 95.6431 64.0138 95.373 63.2784 95.373" stroke="#60012C" stroke-width="4" stroke-linecap="round"/>
<path d="M2.09198 86.8808C2.16356 86.8331 1.63404 85.9734 1.56921 85.8691C1.35412 85.5233 1.24082 85.0619 1.13357 84.6687C1.04772 84.3539 0.985656 84.0279 1.00288 83.7006C1.00849 83.594 1.2057 83.4014 1.30783 83.3957C1.48504 83.3858 1.82784 83.8064 1.92741 83.9184C2.2633 84.2963 2.71784 84.7811 2.83257 85.2883C2.88464 85.5185 2.89963 85.7557 2.97294 85.9756C3.01969 86.1159 3.09395 86.2968 3.09395 86.4452" stroke="#60012C" stroke-width="2" stroke-linecap="round"/>
<path d="M2.31006 84.2231C2.368 85.0053 2.55681 85.82 2.7457 86.5756" stroke="#60012C" stroke-width="2" stroke-linecap="round"/>
<path d="M3.1377 87.0112V87.1419" stroke="#60012C" stroke-width="2" stroke-linecap="round"/>
<path d="M4.57535 86.1834C4.57535 85.6508 4.66611 85.1292 4.57293 84.5934C4.47574 84.0345 4.32167 83.4672 4.31396 82.8968C4.3092 82.5443 4.29291 81.7524 4.71088 81.5899C4.92992 81.5047 5.25988 81.5936 5.44663 81.7157C5.92049 82.0255 6.01071 82.442 6.08072 82.9621C6.16112 83.5593 6.17287 84.1771 6.18721 84.7797C6.19007 84.8995 6.24779 85.5385 6.23078 85.53" stroke="#60012C" stroke-width="2" stroke-linecap="round"/>
<path d="M5.79524 83.8311C5.77985 84.2083 5.78464 84.647 5.66455 85.0073" stroke="#60012C" stroke-width="2" stroke-linecap="round"/>
<path d="M7.92965 85.6608C7.69539 84.8702 7.85847 83.8685 8.11116 83.0978C8.27728 82.5911 8.46744 82.0963 8.76462 81.6505C8.86015 81.5072 9.11233 81.0983 9.32369 81.0866C9.51689 81.0758 9.54133 81.6893 9.56572 81.8126C9.69706 82.4771 9.76921 83.1125 9.54393 83.7657C9.32462 84.4018 8.7138 85.0013 8.7138 85.7043" stroke="#60012C" stroke-width="2" stroke-linecap="round"/>
<path d="M9.14957 84.2666C9.09577 84.4235 9.03177 84.8483 8.88818 84.9201" stroke="#60012C" stroke-width="2" stroke-linecap="round"/>
<path d="M9.71582 86.6194C9.84513 86.1956 10.0225 85.7227 10.241 85.3367C10.4975 84.8836 10.7046 84.4093 11.0034 83.9814C11.1038 83.8375 11.2825 83.6892 11.4608 83.6595C11.7519 83.611 11.678 84.1229 11.6665 84.3057C11.6401 84.7247 11.6015 85.0961 11.393 85.465C11.1712 85.8575 11.0014 86.2755 10.771 86.663C10.6976 86.7865 10.0804 87.7947 10.5871 87.4907" stroke="#60012C" stroke-width="2" stroke-linecap="round"/>
<path d="M24.1846 136.678C24.1846 133.28 24.1823 130.07 24.8233 126.723C25.5778 122.782 26.9359 118.698 28.3818 114.962C29.591 111.839 31.276 108.991 32.7614 106.021C33.5246 104.494 34.7138 102.365 36.2287 101.499C37.1393 100.979 37.6801 99.9985 38.8747 99.9985C41.1892 99.9985 43.4292 100.093 45.6369 100.87C50.3605 102.534 54.2075 106.796 57.1436 110.684C58.2297 112.122 59.1502 113.383 60.0431 114.952C60.8313 116.337 61.4046 117.735 61.9998 119.2C62.8377 121.263 63.3739 123.409 64.0477 125.526C64.8666 128.1 64.5141 130.941 64.5141 133.576C64.5141 134.933 64.1483 136.179 63.774 137.489C63.5928 138.124 63.2842 140.213 62.6892 140.511" stroke="white" stroke-width="2" stroke-linecap="round"/>
<path d="M24.9146 136.496C24.976 136.988 26.2217 137.426 26.5975 137.733C26.9353 138.009 27.865 138.084 28.2905 138.128C28.956 138.198 29.4663 138.456 30.1256 138.605C31.1488 138.836 32.3617 139.233 33.4002 139.233C34.316 139.233 35.0409 139.963 35.8637 139.963" stroke="white" stroke-width="2" stroke-linecap="round"/>
<path d="M24.9146 137.956C25.5856 138.903 26.6198 139.352 27.6012 139.872C28.3211 140.253 29.7042 140.51 30.5311 140.51C31.1372 140.51 31.7352 140.875 32.3052 140.875C32.9072 140.875 33.8642 141.109 34.4444 141.281C35.2865 141.53 36.2557 141.668 37.131 141.778C39.2167 142.038 41.3679 141.845 43.4369 142.163C46.2137 142.59 49.0364 142.153 51.8313 142.153C52.7911 142.153 53.6634 141.788 54.6598 141.788C55.8445 141.788 57.2574 141.919 58.3907 141.595C59.3716 141.315 60.4264 141.073 61.4118 140.551C61.8891 140.298 61.9514 140.267 61.5031 140.865C61.108 141.392 60.3112 141.459 59.7289 141.646C57.3579 142.408 54.946 142.372 52.47 142.518C50.6214 142.626 48.5778 142.7 46.6304 142.7C45.959 142.7 44.3427 142.718 43.7106 142.477C42.4344 141.991 40.8447 142.736 39.6959 141.97" stroke="white" stroke-width="2" stroke-linecap="round"/>
<path d="M40.8145 119.289C40.0186 120.907 39.1028 124.213 40.9222 125.551C42.1427 126.448 42.7119 124.569 42.9357 123.679C43.289 122.274 43.3748 120.734 43.3667 119.289C43.3616 118.363 43.2115 117.129 42.482 116.459C40.6736 114.797 38.5848 119.268 38.1545 120.333C37.3541 122.313 36.3332 124.912 36.9804 127.082C37.5246 128.907 39.1678 127.232 39.8049 126.396C41.7189 123.884 42.5854 120.73 42.9357 117.644C43.0411 116.716 43.2287 115.577 42.9414 114.661C42.8525 114.378 42.4633 113.501 42.0622 113.515C41.6522 113.53 41.4552 116.729 41.427 116.958C41.4062 117.127 40.9533 119.519 41.427 119.448C41.7399 119.401 42.1102 118.493 42.2211 118.268C42.8249 117.041 42.9626 115.578 43.0945 114.236C43.2266 112.891 43.2521 111.448 43.1399 110.101C43.0835 109.424 42.8825 108.682 42.3402 108.235C41.2585 107.343 40.6528 109.328 40.3494 110.033C40.2584 110.245 39.5811 112.374 40.1622 111.717C41.0293 110.737 41.3102 109.497 41.5291 108.218C41.5522 108.083 41.8559 106.157 41.427 106.222C40.7459 106.324 40.5762 108.281 40.5196 108.734C40.4084 109.623 40.8122 108.697 40.9166 108.365C41.1831 107.519 41.0872 106.05 40.1566 105.711C39.9646 105.641 39.706 105.403 39.4873 105.53C39.2331 105.677 38.8947 106.202 38.7727 106.477C38.4189 107.273 37.7075 108.015 37.2413 108.751C36.1363 110.496 34.7594 112 34.3828 114.071C34.1807 115.183 33.6419 116.378 33.2598 117.429C32.9264 118.346 32.7759 119.351 32.6473 120.316C32.4804 121.567 31.961 122.648 31.6491 123.826C31.4004 124.766 30.995 125.66 30.7076 126.594C30.5597 127.075 30.4779 127.569 30.3957 128.063C30.3284 128.467 30.0951 128.886 30.0951 129.3C30.0951 130.854 30.9782 131.683 32.0575 132.685C33.2688 133.81 35.0243 134.336 36.6231 134.603C37.2774 134.712 37.9191 134.881 38.5685 135.011C39.7144 135.24 40.9544 135.113 42.119 135.113C45.6297 135.113 49.1405 135.113 52.6512 135.113C52.9137 135.113 54.3816 135.136 54.2847 135.572C54.1289 136.273 51.5819 135.93 51.1709 135.93C49.6253 135.93 48.1029 135.725 46.5542 135.725C45.4688 135.725 44.4148 135.842 43.3327 135.828C42.7452 135.82 42.1473 135.631 41.5745 135.527C41.0566 135.433 40.491 135.448 39.9637 135.368C39.2564 135.261 38.4909 135.29 37.7745 135.317C37.3432 135.334 38.2771 135.902 38.3416 135.93C39.5652 136.462 40.9097 136.644 42.2437 136.644C44.0236 136.644 45.8217 136.864 47.6091 136.741C48.9757 136.646 50.3076 136.579 51.6814 136.542C52.9183 136.509 54.1472 135.925 55.3453 135.646C55.71 135.561 56.0211 135.194 56.3888 135.062C57.2072 134.767 58.1231 134.757 58.9751 134.603C59.8691 134.44 59.4969 133.944 59.4969 133.219C59.4969 131.972 59.1688 130.841 59.0091 129.611C58.9057 128.815 58.5903 128.083 58.2662 127.354C57.9641 126.674 57.7211 125.926 57.4097 125.267C56.599 123.55 55.6806 121.858 54.7044 120.231C53.9208 118.925 53.0336 117.571 52.0614 116.397C51.6603 115.912 51.2297 115.35 50.9667 114.774C50.6544 114.09 50.127 113.515 49.8211 112.823C49.2981 111.642 48.6534 110.746 47.836 109.749C47.3634 109.173 46.9765 108.268 46.2763 107.957C45.7037 107.703 45.2131 107.558 44.7449 107.089C44.5599 106.904 44.5387 106.663 44.2855 106.551C43.8509 106.357 44.2075 106.562 44.3876 106.732C45.42 107.707 46.6353 108.431 47.6091 109.488C48.292 110.23 49.2317 110.796 50.0026 111.451C51.0049 112.303 52.0517 113.068 53.0653 113.901C54.4007 114.998 55.6481 116.343 56.3662 117.939C56.5846 118.425 56.637 118.99 56.7972 119.493C57.092 120.42 57.3451 121.384 57.5912 122.323C57.8982 123.495 58.0513 124.876 58.0676 126.084C58.0797 126.979 58.1983 128.009 57.9429 128.874C57.3412 130.913 55.2168 134.689 52.5321 133.377C50.7068 132.486 48.9885 130.491 47.9211 128.783C46.8876 127.13 46.306 124.966 46.6336 123.021C46.6898 122.688 46.7106 122.394 46.7584 122.908C46.8626 124.028 46.9586 125.124 47.144 126.237C47.3414 127.421 47.4422 128.676 47.802 129.827C48.0707 130.687 48.2535 130.299 48.4769 129.674C49.5387 126.701 49.4904 123.187 48.9817 120.106C48.8348 119.216 48.5275 118.362 48.3805 117.48C48.2991 116.992 48.6379 118.448 48.6527 118.506C49.106 120.297 49.2356 122.166 49.736 123.945C49.8888 124.489 49.8605 123.642 49.8778 123.452C49.9714 122.422 50.0381 121.378 49.9855 120.344C49.8659 117.991 49.03 115.733 48.9817 113.391C48.9565 112.171 48.8642 110.831 48.5223 109.653C48.4722 109.48 48.1969 108.859 48.3691 108.751C48.7442 108.517 48.9141 108.548 49.1858 108.955C49.6121 109.595 49.5533 110.346 49.3787 111.082C48.9715 112.798 48.3108 114.543 46.7584 115.489C45.9715 115.969 45.0829 116.22 44.2402 116.578C43.1071 117.059 42.0406 117.653 40.9733 118.262C39.0281 119.374 37.4328 120.555 35.8858 122.17C35.0546 123.038 34.5258 124.031 33.8724 125.029C33.2511 125.978 32.4651 126.943 31.6831 127.762C31.0704 128.404 30.7244 129.768 30.4807 130.621C30.2948 131.272 30.084 131.884 29.9873 132.561C29.9577 132.768 29.7114 133.439 29.5336 133.582C29.3741 133.709 29.2234 133.952 29.0969 134.115C29.0218 134.211 31.5445 134.586 31.7285 134.603" stroke="white" stroke-width="10" stroke-linecap="round"/>
<path d="M52.2485 137.053C52.777 137.581 53.75 137.811 54.4945 137.767C54.9907 137.738 55.3953 137.257 55.8727 137.257C56.4315 137.257 56.9398 137.155 57.4948 137.155C57.6501 137.155 58.6145 136.969 58.1697 136.747" stroke="white" stroke-width="10" stroke-linecap="round"/>
<path d="M26.5246 139.937C26.1565 140.003 25.9358 140.288 25.614 140.442C24.7497 140.856 23.5632 140.981 22.6394 141.201C21.3876 141.5 20.1558 141.686 18.9565 142.122C17.5729 142.625 16.4995 143.549 15.3243 144.489C14.6524 145.027 15.4154 146.581 16.1438 146.685C17.4681 146.874 19.1436 146.532 20.3932 146.948C20.9094 147.12 19.7752 148.364 19.6041 148.749C19.4114 149.182 19.4019 149.572 19.422 150.095C19.4575 151.02 21.365 150.739 21.8704 150.418C21.9982 150.337 23.5095 149.071 23.7523 149.265C24.1417 149.576 24.318 149.802 24.8855 149.771C25.6347 149.729 26.2641 149.069 27.0911 149.042C28.2092 149.007 30.0254 148.931 30.9359 148.172C31.5888 147.628 31.6622 146.635 32.2107 145.946C32.8489 145.145 33.9086 144.473 34.3556 143.579" stroke="#2E0015" stroke-width="5" stroke-linecap="round"/>
<path d="M27.6171 143.761C27.6771 144.781 29.5184 144.942 27.0202 144.469C25.197 144.124 23.4732 143.955 21.6274 143.802C19.5886 143.632 21.8174 144.273 22.5482 144.419C23.8911 144.687 25.8358 144.605 27.0708 145.259C27.1862 145.32 25.8452 145.756 25.6239 145.855C25.1229 146.081 24.6919 146.299 25.5531 146.048C26.7904 145.686 28.3664 145.204 29.4889 144.581C29.5525 144.545 27.3157 145.486 28.6086 144.813C29.4982 144.351 30.6711 144.052 31.4416 143.397C32.4174 142.567 29.543 142.696 29.2562 142.122" stroke="#2E0015" stroke-width="5" stroke-linecap="round"/>
<path d="M56.0276 142.668C56.152 143.788 58.0057 145.193 58.7593 145.947C60.5191 147.706 62.5307 148.871 64.4657 150.398C64.8613 150.711 65.2714 151.114 65.4572 151.592C65.7624 152.377 63.6527 152.429 63.3528 152.462C60.8483 152.741 58.3618 151.991 55.9871 151.349C55.2413 151.148 55.1779 150.819 55.4407 151.41C55.6089 151.789 56.9267 153.896 55.7038 153.768C54.2897 153.619 52.4362 153.21 51.2925 152.321C50.3687 151.602 51.2311 151.998 50.8271 152.402C50.1905 153.038 47.9961 151.611 47.468 151.268C46.0582 150.355 44.8603 148.873 44.0078 147.444C43.5295 146.643 43.0972 146.179 43.0972 145.218C43.0972 145.057 43.2793 144.429 43.2793 144.672" stroke="#2E0015" stroke-width="5" stroke-linecap="round"/>
<path d="M51.6567 146.493C51.8422 146.808 52.1448 147.143 52.4054 147.404C52.6329 147.631 52.9235 147.725 53.1845 147.899C54.2171 148.588 50.8613 147.026 49.6939 146.604C48.2962 146.1 44.1544 144.522 45.4445 145.259C46.5116 145.869 47.6409 146.294 48.8339 146.584C49.3972 146.721 50.2604 147.201 50.8169 147.201C51.4577 147.201 49.8807 146.269 49.2791 146.048C48.9491 145.927 47.6793 145.294 47.8019 145.33C48.8455 145.637 49.9292 145.836 50.9991 146.028C51.8424 146.179 52.7248 146.145 53.5791 146.129C54.1612 146.118 53.8528 145.874 53.8826 145.947C54.3842 147.165 56.015 147.744 57.2012 148.132C57.2859 148.16 58.6784 148.454 58.6784 148.274C58.6784 148.194 58.0325 147.969 57.9499 147.91C57.1518 147.34 56.896 147.319 57.3024 148.132" stroke="#2E0015" stroke-width="5" stroke-linecap="round"/>
<path d="M31.2492 23.8364C31.1935 24.3376 30.453 24.0683 30.1735 23.9486C29.5201 23.6685 29.1188 23.3443 28.7822 22.7192C28.3528 21.9218 28.4294 20.6111 28.9317 19.8576C29.384 19.1791 30.258 18.8276 31.0623 18.8276C31.4037 18.8276 31.6668 18.9116 31.922 19.1599C32.2177 19.4475 32.3528 19.7248 32.5949 20.0238C32.98 20.4995 33.0335 21.192 33.2303 21.7432C33.4084 22.2418 33.2248 22.7022 32.9686 23.0722C32.8957 23.1776 32.5594 23.4448 32.4412 23.2674C32.1281 22.7978 31.5484 22.2482 31.3946 21.71C31.3663 21.6109 31.238 21.3814 31.1578 21.3113C30.899 21.0847 31.5482 21.9225 31.5482 22.2665" stroke="white" stroke-width="3" stroke-linecap="round"/>
<path d="M82.1753 33.6834C82.4126 33.7361 82.4211 34.2608 82.5189 34.4565C82.6327 34.6841 82.8279 34.9741 82.9914 35.1609C83.3643 35.5871 83.3944 35.7474 83.9621 35.9255C84.5376 36.106 85.1079 35.8482 85.6931 35.8482C86.1416 35.8482 86.6591 35.5498 87.0032 35.2683C87.3381 34.9943 87.576 34.2766 87.1664 33.9754C86.7317 33.6558 86.1086 33.606 85.5772 33.606C85.2625 33.606 84.7168 33.5397 84.4002 33.4342C84.0793 33.3272 83.5738 33.1633 83.2577 33.3741" stroke="white" stroke-width="3" stroke-linecap="round"/>
<path d="M82.7939 33.2966C82.8009 33.2407 83.6734 32.9557 83.799 32.8929C84.1791 32.7028 84.527 32.8385 84.9201 32.7511C85.2485 32.6781 85.9929 32.5396 86.3118 32.7168C86.5159 32.8302 87.334 32.9532 87.1236 33.3739" stroke="white" stroke-width="3" stroke-linecap="round"/>
</svg>
