<svg width="105" height="160" viewBox="0 0 105 160" fill="none" xmlns="http://www.w3.org/2000/svg">
<rect width="105" height="160" rx="5.0392" fill="white"/>
<path d="M16.5488 74.5782C16.8955 74.4974 19.5705 74.3382 25.7666 74.8287C30.9321 75.2375 32.4003 76.3724 33.6171 76.6662C34.666 76.9194 35.4789 77.1637 40.6582 79.3494C42.72 80.2195 43.7239 81.1221 45.0365 82.2031C45.9854 82.9846 47.4437 84.3162 49.248 85.8567C51.0524 87.3971 53.142 89.1259 56.2773 92.5186C59.4126 95.9114 63.5301 100.916 65.7616 103.653C68.7119 107.364 70.2841 109.139 71.3146 110.218C71.2398 110.262 70.7923 110.109 70.3312 109.951" stroke="#FC7878" stroke-width="2" stroke-linecap="round"/>
<path d="M10.2855 78.1555C10.1782 77.0245 10.2804 75.4233 10.8263 74.0188C12.2145 70.4479 13.0697 69.6301 15.3417 67.5679C17.3066 65.7845 19.4057 64.8117 20.5855 64.2642C21.4946 63.8424 24.1436 62.8007 27.6526 61.4121C29.5616 60.6567 30.4049 60.5317 35.4127 60.4108C37.4457 60.3617 38.9322 60.3619 40.957 60.5384C41.5929 60.5939 43.2319 60.9748 46.249 61.6103C49.6706 62.3311 51.9299 63.2296 52.7526 63.5816C53.3131 63.8215 55.5602 65.5939 58.8214 68.0987C60.6516 69.5044 61.7473 69.9538 62.7622 70.3662C63.538 70.6815 64.6317 71.4168 65.9567 72.5229C68.7557 74.8597 71.2908 78.1005 72.3414 79.0348C73.247 79.8403 74.2081 80.5599 75.2125 81.5084C76.4443 82.6717 78.3088 84.498 79.5485 86.4303C80.3473 87.6754 81.2934 88.9975 81.9532 90.0153C83.0477 91.7036 83.695 92.3287 84.2713 93.1278C84.9185 94.0251 86.6002 96.0356 88.0842 97.6576C89.366 99.0586 89.966 100.356 91.0002 101.048C93.7064 102.86 95.1398 103.343 96.3037 104.631C96.6424 105.175 96.9004 106.381 96.9028 107.764C96.7502 108.169 96.285 107.97 95.8057 107.765" stroke="#FC7878" stroke-width="2" stroke-linecap="round"/>
<path d="M10.603 78.8438C10.8713 79.2163 11.4872 79.8301 12.3335 80.4608C12.6828 80.721 15.6846 80.6886 20.7357 80.7031C24.73 80.7146 26.8096 80.9776 27.5143 81.1227C29.4578 81.5228 31.2164 82.4889 33.3364 83.483C34.2835 83.9271 36.7962 85.6106 40.3088 87.8072C42.9812 89.4784 43.889 90.4446 46.0649 92.6088C48.7993 95.3284 50.2551 97.638 50.6558 98.1672C51.767 99.6347 52.9233 100.69 54.4021 101.738C56.169 102.991 58.4026 105.082 60.2888 107.041C61.6393 108.443 62.0297 109.361 62.8093 110.145C64.138 111.479 65.4573 111.883 66.2616 112.28C67.6333 112.959 69.467 114.167 71.064 114.752C73.5424 115.659 76.0002 115.506 77.0403 115.587C78.0202 115.663 79.059 115.687 80.9452 115.759C83.163 115.843 84.5368 115.568 86.1403 115.334C87.1943 115.18 88.4222 114.848 89.2995 114.457C90.2242 114.046 91.1197 113.514 92.1948 112.976C93.3316 112.409 94.008 111.653 94.6205 111.045C95.235 110.436 95.87 109.485 96.3163 108.686C96.4134 108.512 96.4817 108.339 96.3339 108.145C96.1861 107.951 95.8129 107.737 95.4711 107.594C95.1294 107.451 94.8304 107.384 94.5224 107.316" stroke="#FC7878" stroke-width="2" stroke-linecap="round"/>
<path d="M18.6035 69.8274C18.8756 69.6867 20.2564 69.1404 21.384 68.6744C22.981 68.0143 25.1064 67.1309 26.7813 66.3908C28.3604 65.693 30.3726 64.675 32.868 64.3317C35.3498 63.9902 37.4614 64.2527 38.4705 64.3882C38.7058 64.4199 38.897 64.5051 38.9155 64.5926C39.2869 66.3477 33.7427 64.8849 31.8946 65.233C30.1055 65.57 29.063 66.3742 28.5017 67.0402C27.9255 67.7238 27.8826 69.1124 27.6538 70.7511C27.6069 71.0869 27.2757 71.175 26.9589 71.2255C24.5768 71.6058 20.876 70.6269 19.694 70.5375C18.231 70.4268 22.7663 69.036 25.5573 68.0016C26.064 67.8138 26.2889 67.7331 26.3143 67.7761C26.4534 68.0123 25.4821 68.5546 24.8754 69.0934C24.0502 69.8262 27.2609 68.0372 27.3179 68.1137C27.453 68.295 26.8792 68.8632 26.7204 69.0013C26.5769 69.1261 26.7429 68.3018 26.9659 67.8214C27.458 66.7612 29.0349 66.2381 30.4678 65.875C34.8789 65.2313 36.7694 65.2005 37.3098 65.2184C37.614 65.2301 37.9791 65.2473 38.3969 65.3565" stroke="#FFCECE" stroke-width="2" stroke-linecap="round"/>
<path d="M38.6113 73.7204C38.6364 73.6059 40.0657 72.7585 44.6286 71.6703C49.5296 71.4287 51.0965 71.6067 52.0642 71.7285C52.3157 71.7517 52.6168 71.7742 52.7754 71.8125" stroke="#FFCECE" stroke-width="2" stroke-linecap="round"/>
<path d="M50.1284 80.0971C50.6076 79.9594 54.9445 79.9011 57.8937 79.7794C59.7802 79.6222 61.9933 79.6368 62.7893 79.7167C63.1234 79.7544 63.3156 79.7863 63.4932 79.8192" stroke="#FFCECE" stroke-width="2" stroke-linecap="round"/>
<path d="M59.5146 88.9686C59.9838 88.7025 61.1159 88.1583 63.2425 87.8693C64.651 87.7958 67.1896 87.7218 69.0016 87.7675C70.8136 87.8133 71.8221 87.9811 72.753 88.3736" stroke="#FFCECE" stroke-width="2" stroke-linecap="round"/>
<path d="M67.4365 97.9675C67.5231 97.9386 69.5583 97.6556 72.9677 97.2378C76.795 97.0769 78.8582 97.2028 79.9577 97.4616C79.7284 97.4364 78.6956 97.2537 77.6315 97.0654" stroke="#FFCECE" stroke-width="2" stroke-linecap="round"/>
<path d="M85.0916 102.596C85.0641 102.596 84.8718 102.726 84.5787 103.029C84.0038 103.622 84.5731 104.622 84.8468 105.82C84.9762 106.386 84.858 106.952 84.7164 107.455C84.6026 107.859 84.2976 108.145 83.9985 108.407C83.256 109.059 79.635 109.126 77.6392 109.426C77.2389 109.487 77.2705 110.156 77.3103 110.616C77.3848 111.478 78.3294 111.838 79.6594 112.382C82.4712 113.532 84.0086 113.102 85.3222 112.888C88.3525 112.396 90.1093 111.885 90.9964 111.227C91.7972 110.634 92.1894 109.85 92.3699 109.451C92.5492 109.055 92.5126 108.602 92.4204 108.208C92.2402 107.438 91.1991 107.165 89.0355 106.352C87.6843 105.845 86.7177 104.781 86.0753 103.758C85.9271 103.522 85.8766 103.307 85.8588 103.4C85.5971 104.757 86.3887 106.118 87.5539 107.815C87.7516 108.103 87.9295 107.824 87.9518 107.567C88.0443 106.504 87.3144 105.804 86.9169 105.25C86.7442 105.01 86.6059 104.87 86.3453 105.273C84.5782 108.006 83.9093 109.708 83.1627 110.02C82.0436 110.489 81.0772 111.067 81.021 111.244C80.8836 111.677 83.1567 110.459 84.5731 109.787C84.6744 109.739 83.4826 110.218 83.0308 110.469C82.579 110.721 82.8931 110.712 83.3563 110.652C84.4269 110.513 85.3291 110.277 85.7045 110.218C85.8897 110.189 85.2885 110.872 85.0036 111.317C84.8644 111.534 86.7216 110.91 88.544 110.336C89.137 110.15 89.1203 110.422 89.0458 110.614C88.9713 110.806 88.8559 110.974 88.937 110.85C89.0182 110.725 89.2996 110.303 89.4038 109.966C89.508 109.628 89.4265 109.387 89.2339 109.104C88.1095 107.454 86.495 106.527 86.3485 106.115C86.2688 105.891 86.2778 105.607 86.4089 105.533C86.8183 105.597 87.4715 106.093 88.1178 106.669C88.3976 106.893 88.5796 106.975 88.866 107.142" stroke="#FFCECE" stroke-width="2" stroke-linecap="round"/>
<path d="M20.2583 81.9717C20.406 82.519 20.8227 83.1475 21.4657 83.5741C21.627 83.6812 21.7571 83.8223 21.7872 84.0439C21.9392 85.1618 21.5663 86.523 21.9734 88.1876C22.2624 89.3689 23.9418 90.0438 24.7831 90.3981C25.3256 90.6266 25.8373 90.6945 26.1174 91.1079C26.971 92.3675 27.1914 93.647 28.0801 94.4133C29.3479 95.5066 31.1626 95.5696 32.2152 95.7194C33.1138 95.8472 32.6025 97.4443 32.9029 98.1798C33.2273 98.974 34.3539 99.4662 35.4693 99.7083C36.3674 99.9032 37.3455 99.7569 37.8534 99.5067C38.7579 99.0611 38.2753 101.518 39.183 102.866C39.9233 103.966 40.8553 104.438 41.3709 104.572C42.9258 104.975 43.6581 104.519 43.9372 104.75C44.6508 105.343 44.5436 106.585 45.2966 107.359C46.1261 108.213 48.6152 108.142 49.8314 108.196C50.0222 108.204 50.2073 108.175 50.3237 108.453C50.9574 109.963 51.1296 110.921 51.8192 111.644C52.8474 112.721 53.977 112.905 54.9604 112.957C56.6596 113.046 58.0319 112.765 59.0298 112.723C61.2809 113.693 63.3189 114.26 63.8764 114.218C64.171 114.184 64.4896 114.127 64.6529 113.772" stroke="black" stroke-width="2" stroke-linecap="round"/>
<path d="M28.5527 82.1504C28.334 82.4208 27.9179 83.5405 27.8775 84.6401C27.8613 85.0798 28.2057 85.4132 28.5993 85.725C29.7201 86.6128 30.7898 86.4594 31.3885 86.5653C32.2399 86.7158 31.6165 88.3273 31.7731 88.7288C32.0733 89.0715 32.6425 89.4039 33.5061 89.7489C33.9916 89.9212 34.5731 90.0878 35.3318 90.3004" stroke="black" stroke-width="2" stroke-linecap="round"/>
<path d="M49.0623 100.435C48.9919 100.686 48.8897 101.821 49.1639 102.693C49.5135 103.804 51.7577 102.954 52.4461 103.063C53.3734 103.21 53.3928 104.755 54.2481 105.395C54.548 105.539 54.9327 105.671 55.3391 105.763C55.7455 105.855 56.162 105.904 57.1473 105.938" stroke="black" stroke-width="2" stroke-linecap="round"/>
<path d="M24.3232 103.94C26.8347 106.266 30.1422 108.22 34.3539 109.879C37.2883 111.036 41.9779 112.467 47.9374 113.38C53.897 114.293 61.0193 114.553 65.4038 114.598C69.7883 114.643 71.2191 114.466 73.2251 113.951C75.231 113.436 77.7688 112.59 80.0945 111.58C84.5583 109.642 86.9639 107.884 87.6803 107.227C88.2166 106.735 90.2255 103.633 93.1241 99.1074C94.9396 96.2731 95.3447 93.1037 95.2524 87.3258C95.1776 82.6456 92.5553 80.0603 89.0404 76.4431C86.5745 73.9054 83.8015 72.5962 81.7408 71.3039C77.3142 68.3759 74.1188 67.8818 70.2745 67.3385C69.0971 67.0297 69.49 66.6538 69.8949 66.2666" stroke="#6D85FF" stroke-width="2" stroke-linecap="round"/>
<path d="M70.9717 65.377C70.5443 65.5963 69.0466 66.0865 67.2302 66.8007C66.6387 67.0333 66.9297 67.4231 67.3609 67.7763C67.7921 68.1295 68.4089 68.5418 68.9216 68.8508C69.4344 69.1598 69.8244 69.353 70.7124 69.6995" stroke="#6D85FF" stroke-width="2" stroke-linecap="round"/>
<path d="M45.8 54.7767C45.6725 54.7342 43.7344 54.4951 40.5895 54.1744C38.7012 54.0878 37.7758 54.1421 37.1832 54.2352C36.8816 54.2913 36.5782 54.3656 36.2656 54.4421" stroke="#6D85FF" stroke-width="2" stroke-linecap="round"/>
<path d="M57.428 50.1109C56.6387 50.007 54.5009 49.6492 49.9844 49.1695C47.2091 48.8748 43.4117 48.9571 40.3639 49.0885C37.316 49.22 35.1225 49.521 33.0509 49.9353C30.9794 50.3495 29.0964 50.8679 26.7104 51.5065" stroke="#6D85FF" stroke-width="2" stroke-linecap="round"/>
<path d="M66.5151 125.581C67.2523 125.518 67.9071 125.465 68.5266 125.381C68.871 125.318 69.2763 125.212 69.6137 125.1C69.9511 124.988 70.2083 124.873 70.6422 124.625" stroke="#6D85FF" stroke-width="2" stroke-linecap="round"/>
<path d="M64.6816 129.103C65.5296 129.113 68.4147 129.061 72.7995 128.857C78.3372 127.983 80.3598 127.354 81.2098 126.866C81.782 126.503 82.64 125.907 83.5927 125.248" stroke="#6D85FF" stroke-width="2" stroke-linecap="round"/>
<path d="M15.6729 99.0117C15.6788 99.1546 15.6847 99.2975 15.9781 99.9698C16.2715 100.642 16.8522 101.839 17.3649 102.648C17.8777 103.457 18.3048 103.84 19.1502 104.403" stroke="#294DFF" stroke-width="2" stroke-linecap="round"/>
<path d="M10.7183 93.8677C10.5214 96.2266 11.0225 99.7467 12.1041 102.442C14.6732 106.488 17.5631 108.924 20.5217 111.032C21.6674 111.804 22.091 111.972 22.9075 112.245" stroke="#294DFF" stroke-width="2" stroke-linecap="round"/>
<path d="M66.0278 125.331C66.0278 125.369 66.9087 125.41 68.4285 125.42C69.0674 125.408 69.4375 125.36 69.7756 125.291C70.1138 125.222 70.4089 125.132 71.2583 124.716" stroke="#294DFF" stroke-width="2" stroke-linecap="round"/>
<path d="M36.521 71.3193C36.0577 71.5581 34.8172 72.3236 33.971 73.2576C32.8906 74.4502 32.5945 76.2501 32.6263 77.4119C32.6423 77.9993 33.1297 78.5178 33.6064 78.9874C35.7895 81.1378 41.2942 81.6602 42.5117 81.6145C43.92 81.5616 45.0007 80.185 45.6492 79.0677C46.6022 77.4257 45.854 75.036 45.1707 74.182C44.4043 73.2241 41.3666 73.3635 39.4737 73.5981C38.3501 73.7374 37.3033 75.1315 36.5316 76.3484C36.1786 76.905 36.4713 77.612 36.6786 78.1123C36.8773 78.592 37.4009 78.8156 37.9173 78.9252C39.0463 79.1648 40.0017 78.3218 40.4074 77.8473C40.6072 77.6136 40.6765 77.3053 40.6189 77.0616C40.5614 76.818 40.3447 76.6255 40.1019 76.5186C39.8591 76.4117 39.5967 76.3962 39.2459 76.4275" stroke="black" stroke-width="1.5" stroke-linecap="round"/>
<path d="M62.5133 75.08C61.9347 75.7031 61.5878 76.491 61.6684 77.2816C61.7038 77.6286 62.1074 77.772 62.4131 77.8489C62.9961 77.9955 63.6116 77.759 64.1597 77.4586C64.6667 77.1807 64.8928 76.5716 65.0288 75.9519C65.0978 75.6371 65.0444 75.3007 64.9638 75.0012C64.4603 73.1287 60.6328 72.7505 59.433 72.9154C58.9158 72.9865 58.7219 73.6786 58.5803 74.4357C58.3689 75.566 58.6056 76.6276 58.8242 77.2954C59.0285 77.9196 59.5527 78.3595 60.0409 78.7396C61.3201 79.7358 64.529 79.5401 66.1734 79.333C66.4813 79.2942 66.7196 79.1019 66.9487 78.9105C68.342 77.7463 67.1526 73.8403 66.1456 71.847C65.4846 70.5384 63.6163 70.2024 61.4271 69.848C60.0593 69.6266 58.9677 70.1544 58.3538 70.4949C57.2616 71.1008 56.6056 72.5217 56.1885 73.8098C55.5361 75.8246 56.1664 78.1426 56.6233 79.1591C56.795 79.3791 57.0127 79.5763 57.2567 79.7732C57.5007 79.9702 57.7644 80.1608 58.4517 80.6372" stroke="black" stroke-width="1.5" stroke-linecap="round"/>
<path d="M59.9276 88.6264C59.0136 88.7111 58.2936 88.8594 57.7937 89.1346C57.2336 89.4429 56.846 90.1266 56.5068 90.9709C56.0778 92.0387 56.2603 93.1278 56.3959 93.8082C56.5109 94.3848 57.0146 94.7365 57.5815 94.9948C59.3474 95.7995 61.7918 95.0904 63.6238 94.8522C65.0053 94.6726 66.0012 93.1485 66.6647 91.6753C66.9417 91.0602 66.7434 90.3968 66.4962 89.8601C65.0343 88.8978 62.9073 88.3278 61.3592 88.5098C60.9414 88.5839 60.5245 88.6657 59.8581 88.7639" stroke="black" stroke-width="1.5" stroke-linecap="round"/>
</svg>
