<svg width="105" height="160" viewBox="0 0 105 160" fill="none" xmlns="http://www.w3.org/2000/svg">
<rect width="105" height="160" rx="5.0392" fill="#C0DAFF"/>
<path d="M87.7349 81.0761C84.1443 81.0761 80.5537 81.0761 76.963 81.0761C76.7414 81.0761 76.4058 80.8818 76.2981 81.0761C75.9513 81.7024 76.1071 82.4967 76.0469 83.2106C75.7356 86.9017 75.3172 90.6457 75.3672 94.3574C75.3743 94.8871 75.6609 95.916 75.3968 96.403C75.1408 96.8748 73.7011 96.7177 73.3724 96.7439C70.3507 96.985 67.3768 97.5347 64.418 98.1817C63.3911 98.4063 62.3808 98.7033 61.3371 98.8265C60.9985 98.8665 60.3433 99.0669 60.0812 99.286C59.7677 99.5481 60.2235 100.521 60.2659 100.857C60.8806 105.734 60.4497 110.738 59.8374 115.584C59.7946 115.922 59.8598 116.019 59.5123 116.028C57.7676 116.076 56.1904 116.638 54.5622 117.214C52.8 117.837 51.0315 118.395 49.1984 118.771C48.1574 118.984 46.681 118.927 45.6965 119.334C44.9125 119.658 45.454 122.122 45.4896 122.669C45.5845 124.128 45.5783 125.58 45.5783 127.042C45.5783 127.357 45.9032 130.188 45.4896 130.414C45.2199 130.562 44.4585 130.436 44.1967 130.436C42.891 130.436 41.6081 130.515 40.3105 130.673C36.4861 131.141 32.7217 131.972 28.9254 132.615C27.8179 132.803 26.6297 133.104 25.4973 133.104" stroke="#2C2C2C" stroke-width="2" stroke-linecap="round"/>
<path d="M55.3615 66.4026C53.2751 66.4124 50.891 66.1665 48.8808 66.8544C47.9167 67.1844 47.7707 67.64 47.4579 68.6114C46.9801 70.0952 46.2436 72.7461 47.856 73.8753C48.2945 74.1824 48.7792 74.2068 49.279 74.3486C50.6189 74.7287 52.3926 74.6247 53.7837 74.5135C56.3099 74.3116 58.4799 73.4305 60.6847 72.2975C61.2953 71.9837 61.8449 71.083 61.8643 70.4043C61.8923 69.4228 61.2484 68.67 60.3971 68.1525C59.526 67.6229 58.6539 67.4332 57.6692 67.2417C57.2277 67.1558 55.2288 67.2086 55.2288 66.7899" stroke="#FF9061" stroke-width="2" stroke-linecap="round"/>
<path d="M50.2748 68.9922C50.2748 69.6939 50.121 70.6942 50.4836 71.3395C50.8666 72.0212 53.7639 72.3102 53.7639 71.4999C53.7639 70.7019 54.6037 70.1346 54.3007 69.4481" stroke="#FF9061" stroke-width="2" stroke-linecap="round"/>
<path d="M61.4989 56.1349C59.3384 56.1349 57.1765 56.1135 55.016 56.1349C51.9532 56.1652 49.0761 58.1155 46.301 59.2051C45.7564 59.4189 45.861 59.3625 45.8516 58.9424C45.8407 58.4546 45.6866 58.012 45.3949 57.6212C44.6366 56.6053 43.3554 56.0413 42.1387 55.8722C41.4701 55.7793 40.5474 55.3543 40.5474 56.225C40.5474 57.0682 40.3581 58.1883 40.6948 58.9724C41.1606 60.0573 41.9102 61.8107 43.1332 62.0876C43.6501 62.2047 43.3321 65.1703 43.3321 65.5031C43.3321 67.5599 43.3321 69.6167 43.3321 71.6735C43.3321 72.7433 43.5712 73.7896 43.5973 74.8563C43.6294 76.1614 44.6765 77.7891 45.8663 78.2193C46.7837 78.551 47.8861 79.0903 48.872 79.105C50.3963 79.1279 51.9224 79.105 53.4469 79.105C55.943 79.105 58.7016 78.7366 61.0569 77.904C62.6012 77.358 64.0655 77.1174 64.814 75.592C65.1771 74.8522 65.2822 74.0936 65.4034 73.2799C65.6202 71.8243 65.9279 70.3532 66.0001 68.8811C66.0998 66.8505 66.0557 64.7779 65.8086 62.7632C65.7495 62.2814 65.2604 60.196 65.6981 59.9933C67.3969 59.2065 67.8639 57.5942 67.8639 55.8046C67.8639 54.4779 66.1035 54.1689 65.1087 54.4835C63.9631 54.8457 62.8097 55.4211 61.7494 55.9848C61.441 56.1487 61.4989 56.5113 61.4989 56.8105" stroke="#FF9061" stroke-width="2" stroke-linecap="round"/>
<path d="M47.2883 58.1196C47.2883 57.1214 47.2883 56.1233 47.2883 55.1252C47.2883 54.7943 47.1593 54.1164 47.3362 53.8156C47.8764 52.8968 48.4187 52.4141 48.8337 53.4687C49.0596 54.0427 49.329 54.5745 49.5312 55.1606C49.7273 55.729 50.2423 56.3695 50.2423 56.9728" stroke="#FF9061" stroke-width="2" stroke-linecap="round"/>
<path d="M56.991 54.9397C57.0378 54.4596 57.1384 53.2891 57.5117 52.8991C58.3979 51.9733 59.3401 52.8165 59.6507 53.666C59.9887 54.5906 60.7402 57.3874 60.7402 56.4187" stroke="#FF9061" stroke-width="2" stroke-linecap="round"/>
<path d="M44.9443 78.7402C43.1699 79.3323 41.3885 80.286 39.8466 81.3352C38.2494 82.4221 36.7112 83.6176 35.1725 84.7804C33.9485 85.7054 32.3827 86.7042 31.3009 87.8444C30.9934 88.1686 30.6421 89.0143 30.5578 89.4278C30.2363 91.0036 30.423 92.8637 30.4463 94.4344C30.4715 96.1307 30.3917 97.9402 30.699 99.6242C31.1463 102.075 31.1453 104.62 31.4347 107.094C31.7224 109.553 32.25 112 32.371 114.475C32.443 115.949 32.4883 117.505 32.6682 118.969C32.7289 119.462 32.7722 119.917 32.7722 120.42C32.7722 120.697 32.586 121.818 32.8391 122.018C33.0799 122.208 33.08 123.03 33.1364 123.279C33.2978 123.991 33.5231 124.683 33.7531 125.376C33.8466 125.657 33.9651 126.39 34.2436 126.607C34.5775 126.867 35.8382 126.636 36.2203 126.636C37.0642 126.636 37.7668 126.095 38.5685 125.845C39.1178 125.673 39.0879 124.949 39.1927 124.467C39.4402 123.327 39.594 122.201 39.594 121.036C39.594 119.339 39.2159 117.658 39.1927 115.963C39.1707 114.361 39.1927 112.757 39.1927 111.155C39.1927 110.995 39.1197 109.496 39.5197 110.202C40.2498 111.491 42.4036 112.297 43.7405 112.709C45.0146 113.102 46.2721 113.552 47.5452 113.94C47.8032 114.019 48.559 114.42 48.8234 114.336C49.5139 114.118 50.218 113.733 50.852 113.39C51.2724 113.163 51.5656 112.681 51.8329 112.306C52.1547 111.854 52.9764 111.01 53.0442 110.458C53.1322 109.743 52.293 108.717 51.8998 108.179C51.3374 107.408 50.6996 106.975 49.8191 106.625C48.0442 105.918 45.26 104.93 44.439 103.04C44.231 102.561 44.4532 102.068 44.7214 101.662C45.5175 100.458 46.6655 99.4781 47.6195 98.4001C50.6166 95.0136 54.2262 91.907 57.8744 89.2079C57.9965 89.1176 58.2538 88.9389 58.4243 89.0613C59.1571 89.587 60.763 89.5935 61.6197 89.743C63.282 90.0331 64.7512 90.3995 66.3012 91.0111C67.0496 91.3064 67.6232 91.495 68.4042 91.6122C69.1565 91.7251 69.9093 91.8028 70.6707 91.8028C71.2213 91.8028 71.5624 91.3524 71.934 90.9818C73.0667 89.8521 73.0338 89.1724 73.0338 87.6612C73.0338 86.2746 72.6105 86.0265 71.2949 85.3961C70.2068 84.8748 69.0064 84.7111 67.8618 84.3552C67.3892 84.2083 65.92 83.9452 65.8182 83.2923C65.7284 82.7164 65.8774 82.3788 66.0783 81.8776C66.4074 81.0565 66.7497 80.7108 67.7131 80.4629C69.2122 80.0771 70.8571 80.1332 72.3873 79.8691C72.6348 79.8264 74.0685 79.3302 74.2376 79.6639" stroke="#FF9061" stroke-width="2" stroke-linecap="round"/>
<path d="M65.9893 73.153C68.8183 73.153 71.6474 73.153 74.4765 73.153C75.1087 73.153 75.9669 72.9917 76.534 73.3445C77.8692 74.1751 78.9689 75.8501 78.6944 77.519C78.6008 78.0883 76.2622 79.3344 75.7771 79.0816" stroke="#FF9061" stroke-width="2" stroke-linecap="round"/>
<path d="M30.3714 94.1607C29.4307 94.1607 28.2533 93.931 27.4157 94.4727C25.9694 95.408 24.53 96.464 23.2514 97.6298C22.5898 98.2331 22.2017 98.9261 21.7371 99.6875C21.2175 100.539 19.9612 103.453 18.7668 102.77C18.4832 102.608 17.153 102.565 17.136 103.015C17.1109 103.682 16.5486 103.765 16.175 104.263C15.8984 104.633 16.8383 104.343 16.9322 104.33C18.0703 104.175 16.8127 106.864 16.6337 107.339C16.4201 107.906 16.1731 108.662 16.6118 107.74C16.7092 107.535 17.1247 107.06 17.136 106.863C17.1704 106.267 17.2671 107.039 17.2671 107.257C17.2671 107.78 16.9424 109.858 17.3326 110.177C17.3988 110.231 17.8611 109.061 17.9223 108.884C18.0129 108.622 18.1604 107.972 18.4173 107.814C18.5281 107.746 18.4451 108.076 18.4537 108.208C18.471 108.472 18.5267 108.729 18.5775 108.988C18.5921 109.062 18.8828 110.66 19.291 110.125C19.7331 109.545 19.3013 108.598 19.2327 107.985C19.091 106.72 18.4224 105.671 18.1844 104.457" stroke="#FF9061" stroke-width="2" stroke-linecap="round"/>
<path d="M50.2796 62.7982C48.5396 62.7982 46.7995 62.7982 45.0595 62.7982C44.6521 62.7982 43.9909 62.6667 43.6014 62.7982C43.1602 62.947 44.1917 63.5588 44.5783 63.8243C45.1929 64.2465 45.8442 64.6535 46.5176 64.9712C46.8526 65.1292 47.4791 65.2428 47.8518 65.2428C48.0875 65.2428 49.0357 65.2304 49.2006 65.0768C49.3891 64.9013 49.5989 64.4534 49.8203 64.2242C50.0336 64.0035 50.0816 63.5739 50.2796 63.4471C50.5604 63.2672 51.3269 62.2528 51.6576 62.5265C52.3795 63.1242 53.9825 62.4917 54.8801 62.6774C55.3956 62.7842 56.3321 63.3951 56.6517 63.8545C56.7995 64.0669 57.1692 64.2921 57.4318 64.2921C58.4438 64.2921 59.8655 63.623 60.7783 63.2056C61.375 62.9328 61.9236 62.5771 62.5426 62.3077C63.3597 61.9522 64.2139 61.5495 65.0798 61.3344C65.5017 61.2296 64.9762 61.2302 64.7736 61.1986C63.7487 61.0385 62.6276 61.1684 61.5948 61.1684C59.9679 61.1684 58.3796 61.3562 56.783 61.6815C56.3447 61.7708 55.4346 61.8687 55.2665 62.3907" stroke="#2C2C2C" stroke-width="2" stroke-linecap="round"/>
<path d="M58.1157 62.3892C58.5829 62.3351 58.9826 62.0163 59.439 61.8955C60.0876 61.7239 59.5267 62.419 59.3655 62.7211C59.337 62.7745 58.8764 63.7322 58.9832 63.7425C59.2642 63.7696 59.7434 63.0773 59.983 62.9084C60.1787 62.7705 60.2606 62.7848 60.3653 62.5424" stroke="#2C2C2C" stroke-width="2" stroke-linecap="round"/>
<path d="M49.1177 63.3719C48.353 63.4695 47.8285 63.3845 47.0962 63.3719C46.6068 63.3635 44.357 63.3719 45.9031 63.3719C46.8464 63.3719 47.4018 64.118 48.2969 64.118" stroke="#2C2C2C" stroke-width="2" stroke-linecap="round"/>
<path d="M70.1135 89.2384C70.1135 85.1903 70.1135 81.1422 70.1135 77.0941C70.1135 76.4665 70.5997 76.5537 71.1937 76.561C73.8713 76.5942 76.5394 76.8661 79.2219 76.8823C81.1395 76.8939 83.0626 76.9093 84.9802 76.875C85.5411 76.865 85.4838 76.8657 85.4838 76.3785C85.4838 73.414 85.2368 70.5094 84.9802 67.5569C84.9264 66.9376 84.9833 65.8469 84.6956 65.2712C84.6355 65.1509 84.4962 65.4514 84.3964 65.5414C84.0046 65.8941 83.612 66.245 83.2578 66.6368C82.5851 67.3807 82.3309 67.7999 82.3309 68.7326" stroke="#F8596A" stroke-width="2" stroke-linecap="round"/>
<path d="M84.7356 64.8682C85.7053 64.8682 86.2916 64.9773 87.0785 65.4592C87.4316 65.6755 88.8641 66.9199 88.3895 66.0802" stroke="#F8596A" stroke-width="2" stroke-linecap="round"/>
<path d="M14.2495 126.731C17.7899 123.221 21.2468 119.714 25.1699 116.617C25.3759 116.454 27.1414 115.408 26.9875 115.108" stroke="#F8596A" stroke-width="2" stroke-linecap="round"/>
<path d="M21.748 115.574C23.0663 115.574 24.7443 115.365 26.073 115.581C26.3806 115.631 26.2704 117.653 26.2911 117.844C26.4291 119.115 26.6221 120.379 26.6221 121.657C26.6221 122.279 26.6221 123.878 26.6221 122.319" stroke="#F8596A" stroke-width="2" stroke-linecap="round"/>
<path d="M34.5023 30.0594C33.6867 30.0594 32.6461 29.8931 31.8637 30.1171C27.953 31.2366 30.0175 39.6041 25.507 38.7624C24.276 38.5327 20.0907 36.2167 20.5297 38.9353C20.6169 39.4754 20.8079 39.95 21.3542 40.1601C22.5514 40.6203 18.7749 40.1469 17.4863 40.1889C15.1467 40.2651 15.418 43.139 16.8416 44.4251C19.336 46.6787 21.9021 45.2596 24.6225 44.8574C26.3959 44.5952 28.9031 46.4683 30.5594 47.0331C32.5105 47.6985 32.6095 46.7238 33.8427 45.2752C34.2295 44.8208 34.3618 44.8589 34.9221 45.0015C36.6977 45.4532 38.5216 45.5846 40.3492 45.6787C41.4776 45.7368 43.7366 46.2138 44.622 45.2608C45.5169 44.2975 46.069 42.9389 46.6459 41.7883C47.8003 39.4862 49.2941 39.9151 51.7133 39.9151C52.2736 39.9151 54.0935 40.2211 54.5768 39.7566C55.2795 39.0812 53.529 37.514 53.1675 37.1918C50.8937 35.1655 49.0658 35.2178 46.2711 35.2178C46.0946 35.2178 45.3927 34.3147 45.2067 34.2092C43.994 33.5211 42.7538 33.3817 41.3837 33.5896C40.2131 33.7672 39.5832 34.1691 38.6701 34.8144C38.2166 35.1349 38.5202 34.6584 38.5202 34.4109C38.5202 32.563 36.9194 32.0018 35.3119 31.6156" stroke="white" stroke-width="2" stroke-linecap="round"/>
<path d="M79.2648 35.4445C78.4539 35.4445 77.4525 35.2688 76.6713 35.4445C74.7867 35.8683 72.9664 40.1789 75.4335 40.9298C77.3094 41.5007 77.0668 40.8113 77.5849 42.7088C78.0709 44.4885 78.9321 45.3552 80.8415 44.8584C83.15 44.2578 84.0585 42.5779 86.3378 43.8355C87.4713 44.4609 88.3182 44.8972 89.6091 44.3989C90.5576 44.0327 92.0715 43.3725 91.8341 42.1306C91.4197 39.9624 87.9491 40.1204 86.3231 40.2626C85.9373 40.2964 85.5819 40.5965 85.6452 40.0551C85.7711 38.9785 86.184 37.5992 85.7779 36.5415C85.6029 36.086 85.0493 36.3883 84.8937 35.9189C84.5589 34.9082 84.7891 33.6828 84.0391 32.8204C82.9572 31.5765 80.0986 36.6259 79.53 37.5793" stroke="white" stroke-width="2" stroke-linecap="round"/>
<path d="M20.5318 63.3682C19.3802 63.5003 16.0269 63.4686 15.8149 65.2796C15.7598 65.7508 16.1183 67.6656 15.6256 67.8433C14.0006 68.4294 11.9592 67.2554 12.0006 69.7395C12.0455 72.4265 13.7756 73.4308 16.2662 73.3651C17.5812 73.3305 18.8612 72.896 20.0659 72.3791C20.565 72.165 21.6788 71.2639 22.3079 71.5599C23.2004 71.9799 23.9649 73.0237 24.8265 73.5624C26.3829 74.5354 27.9509 72.8514 29.6162 72.9404C30.8728 73.0075 31.9693 73.1443 32.8045 71.9695C33.668 70.7548 33.6079 69.3337 32.1785 68.6776C31.6716 68.445 29.4336 68.5419 29.2086 68.1315C28.9803 67.7153 29.1851 66.6285 29.1794 66.1898C29.1301 62.3335 24.0088 65.0479 22.6864 66.9179C22.5399 67.1251 22.582 66.6519 22.3516 66.3718C21.7617 65.6546 20.8311 65.8257 20.0077 65.8257" stroke="white" stroke-width="2" stroke-linecap="round"/>
</svg>
