<svg width="105" height="160" viewBox="0 0 105 160" fill="none" xmlns="http://www.w3.org/2000/svg">
<rect width="105" height="160" rx="5.0392" fill="white"/>
<path d="M52.6543 150V142.93H57.1855V143.994H53.9238V145.928H56.873V146.992H53.9238V150H52.6543ZM58.123 150V144.697H59.334V145.576H59.3926C59.583 144.966 60.0908 144.619 60.7012 144.619C60.8379 144.619 61.0332 144.634 61.1504 144.648V145.801C61.0381 145.762 60.7793 145.728 60.5742 145.723C59.8809 145.728 59.373 146.206 59.373 146.875V150H58.123ZM64.0312 150.107C62.4834 150.107 61.4922 149.009 61.4922 147.373C61.4922 145.723 62.4834 144.629 64.0312 144.629C65.584 144.629 66.5752 145.723 66.5703 147.373C66.5752 149.009 65.584 150.107 64.0312 150.107ZM62.752 147.363C62.752 148.335 63.1768 149.111 64.041 149.111C64.8906 149.111 65.3154 148.335 65.3105 147.363C65.3154 146.392 64.8906 145.61 64.041 145.615C63.1768 145.61 62.752 146.392 62.752 147.363ZM67.5371 150V144.697H68.7285V145.596H68.7969C69.0166 144.99 69.5488 144.629 70.252 144.629C70.9697 144.629 71.4873 144.995 71.6875 145.596H71.7461C71.9756 145.01 72.5664 144.629 73.3379 144.629C74.3096 144.629 74.9932 145.254 74.9883 146.436V150H73.748V146.631C73.748 145.972 73.3477 145.674 72.8398 145.674C72.2295 145.674 71.873 146.089 71.873 146.689V150H70.6621V146.582C70.6572 146.03 70.2959 145.674 69.7637 145.674C69.2266 145.674 68.7871 146.118 68.7871 146.777V150H67.5371ZM76.9512 150.078C76.5312 150.078 76.1846 149.736 76.1895 149.316C76.1846 148.906 76.5312 148.569 76.9512 148.564C77.3564 148.569 77.7031 148.906 77.7031 149.316C77.7031 149.736 77.3564 150.078 76.9512 150.078ZM84.0801 144.551C84.0801 145.996 84.9297 147.52 86.3555 148.115L85.7598 148.975C84.7148 148.521 83.9531 147.598 83.5479 146.475C83.1426 147.686 82.3662 148.701 81.3359 149.189L80.7109 148.34C82.1025 147.695 82.9717 146.05 82.9766 144.551V143.809H81.0332V142.91H86.0137V143.809H84.0801V144.551ZM87 150.869V142.041H88.0938V150.869H87ZM91.8438 142.539C92.5566 142.534 93.1768 142.798 93.5918 143.242H95.7012V142.041H96.7852V147.236H95.7012V146.113H93.5869C93.167 146.548 92.5518 146.812 91.8438 146.807C90.5107 146.812 89.5098 145.918 89.5098 144.678C89.5098 143.428 90.5107 142.534 91.8438 142.539ZM90.5449 144.678C90.5449 145.4 91.0869 145.889 91.8438 145.889C92.5762 145.889 93.1182 145.4 93.123 144.678C93.1182 143.931 92.5762 143.467 91.8438 143.467C91.0869 143.467 90.5449 143.931 90.5449 144.678ZM90.7988 149.141C90.7891 148.052 91.9463 147.417 93.7969 147.422C95.6523 147.417 96.8096 148.052 96.8145 149.141C96.8096 150.225 95.6523 150.859 93.7969 150.859C91.9463 150.859 90.7891 150.225 90.7988 149.141ZM91.8633 149.141C91.8535 149.702 92.5713 150.005 93.7969 150.01C95.0469 150.005 95.75 149.702 95.75 149.141C95.75 148.564 95.0469 148.257 93.7969 148.252C92.5713 148.257 91.8535 148.564 91.8633 149.141ZM94.0801 144.111C94.1289 144.292 94.1582 144.478 94.1582 144.678C94.1582 144.873 94.1289 145.059 94.085 145.234H95.7012V144.111H94.0801Z" fill="black"/>
<path d="M7.37109 12.8574V11.9297H12.8496V12.8574H10.6523V19H9.57812V12.8574H7.37109ZM15.3301 19.1074C13.8262 19.1074 12.8447 18.0137 12.8496 16.373C12.8447 14.7227 13.8262 13.6289 15.3301 13.6289C16.8242 13.6289 17.8008 14.7227 17.8008 16.373C17.8008 18.0137 16.8242 19.1074 15.3301 19.1074ZM13.8945 16.373C13.8945 17.3838 14.3584 18.2383 15.3301 18.2383C16.2871 18.2383 16.7461 17.3838 16.7461 16.373C16.7461 15.3574 16.2871 14.4932 15.3301 14.4883C14.3584 14.4932 13.8945 15.3574 13.8945 16.373ZM19.5098 19.0684C19.1289 19.0635 18.8115 18.7559 18.8164 18.375C18.8115 17.9941 19.1289 17.6816 19.5098 17.6816C19.8857 17.6816 20.1982 17.9941 20.2031 18.375C20.1982 18.7559 19.8857 19.0635 19.5098 19.0684ZM30.4668 11.0215V12.8965L31.668 12.8965V13.9121L30.4668 13.9121V16.0312H29.2168V11.0215H30.4668ZM23.7773 15.5527V11.4414H25.0273V14.5322C26.1064 14.5078 27.2637 14.4053 28.4941 14.166L28.6406 15.1816C27.1758 15.4746 25.7939 15.5527 24.5391 15.5527H23.7773ZM24.6465 19.791V16.4316H30.4668V19.791H24.6465ZM25.8672 18.8145H29.2461V17.3984H25.8672V18.8145ZM39.2266 11.4316V12.1934C39.2314 12.9014 39.2314 13.7021 39.0459 14.7129H40.1934V15.709H38.1523V17.6523H36.9414V15.709H35.9746V17.6523H34.7539V15.709H32.0586V14.7129H37.8008C37.9619 13.7852 37.9814 13.0674 37.9863 12.4082H33.0352V11.4316H39.2266ZM32.9277 19.7422V16.8516H34.168V18.7461H39.4609V19.7422H32.9277Z" fill="black"/>
<path d="M13.0078 28.6875V35.6484H12.3906V28.6875H13.0078ZM7.53906 31.6484C7.54297 30.1719 8.27734 29.2305 9.3125 29.2266C10.3438 29.2305 11.0898 30.1719 11.0859 31.6484C11.0898 33.1289 10.3438 34.0664 9.3125 34.0625C8.27734 34.0664 7.54297 33.1289 7.53906 31.6484ZM8.13281 31.6484C8.13281 32.7773 8.61719 33.5195 9.3125 33.5156C10.0117 33.5195 10.4922 32.7773 10.4922 31.6484C10.4922 30.5195 10.0117 29.7773 9.3125 29.7734C8.61719 29.7773 8.13281 30.5195 8.13281 31.6484ZM21.5609 28.6875V33.8594H20.9438V31.8438H19.7563V31.3281H20.9438V30.5234H19.7563V30.0156H20.9438V28.6875H21.5609ZM15.8188 32.2812C16.0961 32.2812 16.3969 32.2773 16.7172 32.2734V29.7578H16.0141V29.2578H19.7016V29.7578H18.9906V32.1914C19.3109 32.1719 19.6273 32.1445 19.9281 32.1094L19.9594 32.5703C18.6117 32.7773 17.0258 32.8008 15.8969 32.8047L15.8188 32.2812ZM17.0844 35.4844V33.4297H17.7016V34.9688H21.7484V35.4844H17.0844ZM17.3109 32.2617C17.6664 32.2539 18.0336 32.2422 18.3969 32.2266V29.7578H17.3109V32.2617ZM25.0016 30.8203C25.0055 32 25.8609 33.1992 26.8844 33.6406L26.5406 34.125C25.7281 33.7578 25.0289 32.957 24.7047 31.9961C24.3805 33.0156 23.6773 33.8984 22.8844 34.2969L22.5172 33.8125C23.5133 33.3359 24.3805 32.0234 24.3844 30.8203V29.9141H22.7437V29.4062H26.6578V29.9141H25.0016V30.8203ZM27.6266 35.6328V28.6875H28.2437V35.6328H27.6266ZM34.8484 30.7969V31.2891H30.0906V28.9453H30.7V30.7969H34.8484ZM29.2234 32.7344V32.2344H35.5828V32.7344H29.2234ZM30.0516 35.4609V33.4453H30.6609V34.9531H34.8875V35.4609H30.0516ZM39.6672 29.1094C40.2531 29.1055 40.7492 29.3281 41.0734 29.6953H42.8937V28.6875H43.5109V32.8047H42.8937V31.8125H41.0734C40.7531 32.1797 40.2531 32.4023 39.6672 32.3984C38.6281 32.4023 37.8586 31.7227 37.8625 30.7578C37.8586 29.7852 38.6281 29.1055 39.6672 29.1094ZM38.4484 30.7578C38.4484 31.4023 38.9562 31.8789 39.6672 31.875C40.3547 31.8789 40.8703 31.4023 40.8703 30.7578C40.8703 30.0977 40.3547 29.6367 39.6672 29.6406C38.9562 29.6367 38.4484 30.0977 38.4484 30.7578ZM38.8781 34.2891C38.8742 33.4531 39.7648 32.9688 41.2062 32.9688C42.6437 32.9688 43.5344 33.4531 43.5344 34.2891C43.5344 35.1328 42.6437 35.6172 41.2062 35.6172C39.7648 35.6172 38.8742 35.1328 38.8781 34.2891ZM39.4797 34.2891C39.4758 34.8125 40.1398 35.1289 41.2062 35.125C42.2727 35.1289 42.9367 34.8125 42.9328 34.2891C42.9367 33.7617 42.2727 33.4492 41.2062 33.4453C40.1398 33.4492 39.4758 33.7617 39.4797 34.2891ZM41.3664 30.1953C41.4289 30.3672 41.4641 30.5547 41.4641 30.7578C41.4641 30.9531 41.4289 31.1367 41.3703 31.3047H42.8937V30.1953H41.3664ZM49.9906 29.0312V29.5312C49.9906 30.0469 49.9906 30.6719 49.8187 31.5078H50.8266V32.0078H47.9359V33.2891H50.0375V35.6328H49.4203V33.7969H45.1234V33.2891H47.3266V32.0078H44.4672V31.5078H49.2016C49.3852 30.6602 49.3852 30.0469 49.3812 29.5312H45.2719V29.0312H49.9906ZM57.1344 28.6875V35.6328H56.5406V28.6875H57.1344ZM51.2672 31.6875C51.2711 30.2109 51.857 29.2773 52.7594 29.2734C53.6031 29.2773 54.1734 30.0898 54.2516 31.3984H55.15V28.8359H55.7359V35.2812H55.15V31.9062H54.2555C54.1969 33.2578 53.6148 34.1055 52.7594 34.1016C51.857 34.1055 51.2711 33.1641 51.2672 31.6875ZM51.8453 31.6875C51.8375 32.8125 52.1969 33.5234 52.7594 33.5156C53.3258 33.5234 53.6852 32.8125 53.6813 31.6875C53.6852 30.5586 53.3258 29.8516 52.7594 29.8516C52.1969 29.8516 51.8375 30.5586 51.8453 31.6875ZM60.3406 30.5547C60.3367 31.8125 61.1453 33.0781 62.1531 33.5391L61.7859 34.0391C60.9969 33.6328 60.3445 32.8047 60.0359 31.8164C59.7273 32.8555 59.075 33.7461 58.2859 34.1641L57.8875 33.6719C58.907 33.1719 59.7117 31.8359 59.7156 30.5547V29.2891H60.3406V30.5547ZM61.3953 31.5625V31.0625H63.0438V28.6875H63.6531V35.6484H63.0438V31.5625H61.3953ZM69.05 32.3516V33.6328C69.7219 33.5977 70.4016 33.543 71.0422 33.4453L71.0891 33.8984C69.4992 34.1875 67.7922 34.1992 66.5422 34.1953L66.4562 33.6875C67.0383 33.6836 67.7258 33.6797 68.4484 33.6562V32.3516H69.05ZM66.6672 32.1094C67.6945 31.8047 68.4172 31.043 68.4328 30.1094H66.8391V29.6016H68.4484V28.7422H69.05V29.6016H70.6828V30.1094H69.05C69.0695 31.0039 69.8117 31.7383 70.8391 32.0312L70.55 32.5156C69.718 32.2656 69.0617 31.7305 68.7492 31.0273C68.4484 31.7695 67.8 32.3242 66.9641 32.5781L66.6672 32.1094ZM71.5031 35.6484V28.6875H72.1125V35.6484H71.5031ZM79.4906 34.2422V34.7578H73.1312V34.2422H75.9984V32.6484H76.6V34.2422H79.4906ZM73.4828 32.4141C74.8227 32.1992 75.9828 31.3906 75.9906 30.3047H73.725V29.7969H75.9984V28.8359H76.6V29.7969H78.8812V30.3047H76.6156C76.6156 31.3906 77.7758 32.1992 79.1078 32.4141L78.8734 32.8984C77.7641 32.7031 76.7445 32.1406 76.2992 31.2695C75.8617 32.1406 74.8422 32.7031 73.725 32.8984L73.4828 32.4141ZM86.2047 34.2578V34.7734H79.8453V34.2578H82.7047V32.9453H80.6422V30.8047H84.7984V29.7109H80.6266V29.2031H85.4V31.3047H81.2516V32.4375H85.5641V32.9453H83.3063V34.2578H86.2047ZM90.8359 30.5547C90.832 31.8242 91.6953 33.0977 92.7188 33.5625L92.3438 34.0469C91.5508 33.6641 90.8672 32.8398 90.5352 31.8516C90.2148 32.8984 89.5312 33.7773 88.7188 34.1875L88.3281 33.6719C89.3633 33.1992 90.2188 31.8711 90.2266 30.5547V29.2891H90.8359V30.5547ZM93.4766 35.6484V28.6875H94.0938V35.6484H93.4766ZM9.63281 40.9766C9.63672 41.9023 10.3164 42.7461 11.3438 43.1016L11.0312 43.5781C10.2383 43.2969 9.63281 42.7305 9.33594 42.0117C9.03906 42.8008 8.40234 43.4141 7.58594 43.7109L7.25781 43.2344C8.29688 42.8672 9.02344 41.9727 9.03125 40.9766V40.6797H7.44531V40.1797H11.1953V40.6797H9.63281V40.9766ZM8.16406 44.7422V44.2422H12.7109V46.6328H12.1016V44.7422H8.16406ZM12.1016 43.875V39.6875H12.7109V41.5234H13.7578V42.0469H12.7109V43.875H12.1016ZM18.1359 42.6875V43.1953H16.6125V44.5625C17.2922 44.5352 17.9758 44.4883 18.6203 44.4141L18.6672 44.875C17.1281 45.0977 15.4484 45.1289 14.1203 45.125L14.0344 44.6094C14.6398 44.6094 15.3117 44.6055 16.0031 44.5859V43.1953H14.5656V40.3516H18.1047V40.8516H15.1672V42.6875H18.1359ZM19.0813 46.6484V39.6875H19.6906V46.6484H19.0813ZM22.5766 40.2266C23.5219 40.2305 24.2055 41.043 24.2992 42.3438H25.8578V39.6875H26.4672V46.6484H25.8578V42.8516H24.307C24.2406 44.2148 23.5453 45.0664 22.5766 45.0625C21.5492 45.0664 20.8305 44.1289 20.8344 42.6484C20.8305 41.1719 21.5492 40.2305 22.5766 40.2266ZM21.4203 42.6484C21.4242 43.7773 21.893 44.5195 22.5766 44.5156C23.2563 44.5195 23.7328 43.7773 23.7328 42.6484C23.7328 41.5195 23.2563 40.7773 22.5766 40.7734C21.893 40.7773 21.4242 41.5195 21.4203 42.6484ZM31.2 39.9453C32.2391 39.9492 32.993 40.582 32.9969 41.4844C32.993 42.3906 32.2391 43.0156 31.2 43.0156C30.1492 43.0156 29.3914 42.3906 29.3953 41.4844C29.3914 40.582 30.1492 39.9492 31.2 39.9453ZM29.9969 41.4844C29.9891 42.0938 30.5008 42.5156 31.2 42.5156C31.8875 42.5156 32.4031 42.0938 32.4031 41.4844C32.4031 40.8828 31.8875 40.457 31.2 40.4609C30.5008 40.457 29.9891 40.8828 29.9969 41.4844ZM30.45 44.0859V43.5938H34.9656V45.2656H31.0672V46.0469H35.2156V46.5391H30.4656V44.8047H34.3563V44.0859H30.45ZM34.3563 43.2578V39.6875H34.9656V43.2578H34.3563ZM41.7031 39.6953V44.8359H41.0859V42.4297H39.0859V41.9375H41.0859V41.1016H39.0859V40.6094H41.0859V39.6953H41.7031ZM36.3594 43.8047V40.1953H36.9766V43.2812C37.9336 43.2773 38.8555 43.2227 39.9141 43.0312L39.9766 43.5391C38.8477 43.75 37.9023 43.7969 36.8828 43.8047H36.3594ZM37.2266 46.4844V44.3984H37.8438V45.9688H41.8906V46.4844H37.2266ZM48.6125 39.6875V46.6328H48.0187V39.6875H48.6125ZM42.7453 42.6875C42.7492 41.2109 43.3352 40.2773 44.2375 40.2734C45.0812 40.2773 45.6516 41.0898 45.7297 42.3984H46.6281V39.8359H47.2141V46.2812H46.6281V42.9062H45.7336C45.675 44.2578 45.093 45.1055 44.2375 45.1016C43.3352 45.1055 42.7492 44.1641 42.7453 42.6875ZM43.3234 42.6875C43.3156 43.8125 43.675 44.5234 44.2375 44.5156C44.8039 44.5234 45.1633 43.8125 45.1594 42.6875C45.1633 41.5586 44.8039 40.8516 44.2375 40.8516C43.675 40.8516 43.3156 41.5586 43.3234 42.6875ZM56.6109 39.6953V41.9844H57.6578V42.5H56.6109V44.8984H56.0016V39.6953H56.6109ZM51.1969 41.0469V40.5469H52.9625V39.6953H53.5719V40.5469H55.3375V41.0469H51.1969ZM51.5953 42.7266C51.5914 41.9375 52.2633 41.4297 53.2672 41.4297C54.2594 41.4297 54.9313 41.9375 54.9391 42.7266C54.9313 43.5078 54.2594 44.0117 53.2672 44.0078C52.2633 44.0117 51.5914 43.5078 51.5953 42.7266ZM52.1813 42.7266C52.1773 43.2148 52.6109 43.5312 53.2672 43.5234C53.9156 43.5312 54.3531 43.2148 54.3609 42.7266C54.3531 42.2305 53.9156 41.9102 53.2672 41.9141C52.6109 41.9102 52.1773 42.2305 52.1813 42.7266ZM52.2672 46.4844V44.4844H52.8688V45.9688H56.9313V46.4844H52.2672ZM63.2703 39.6875V42.4219H64.4344V42.9531H63.2703V46.6328H62.6609V39.6875H63.2703ZM58.1844 44.9688V40.2812H58.7938V42.1172H60.825V40.2812H61.4344V44.9688H58.1844ZM58.7938 44.4531H60.825V42.6094H58.7938V44.4531ZM68.5859 40.2031V40.5078C68.5781 41.0039 68.5781 41.8594 68.3555 43.0938C68.6641 43.0742 68.9727 43.0469 69.2734 43.0156L69.3203 43.4844C68.6094 43.5742 67.8711 43.6289 67.1484 43.6641V46.2188H66.5312V43.6914C65.8711 43.7109 65.2305 43.7188 64.6484 43.7188L64.5625 43.2109C65.5234 43.2031 66.6367 43.1914 67.7383 43.1328C67.8203 42.7109 67.875 42.332 67.9102 41.9961L65.1406 42.2344L65.0391 41.7109L67.9531 41.5469C67.9766 41.2148 67.9844 40.9375 67.9844 40.7109H65.1875V40.2031H68.5859ZM69.7812 46.6328V39.6875H70.3906V46.6328H69.7812ZM78.7094 41.5547V42.0469H76.6V42.7188H79.4594V43.2188H73.1312V42.7188H75.9906V42.0469H73.975V39.9609H78.6391V40.4688H74.5922V41.5547H78.7094ZM73.8969 44.2812V43.8125H78.6469V45.3594H74.5219V46.0625H78.8578V46.5547H73.9125V44.9062H78.0453V44.2812H73.8969ZM83.3609 40.2969V40.9141H84.9859V39.6953H85.6031V44.7656H84.9859V42.9141H83.3609V43.5391H80.1734V40.2969H83.3609ZM80.7828 43.0469H82.7594V40.8047H80.7828V43.0469ZM81.1109 46.4844V44.3125H81.7281V45.9688H85.7594V46.4844H81.1109ZM83.3609 42.4062H84.9859V41.4297H83.3609V42.4062ZM89.0047 41.5547C89.0008 42.8125 89.8094 44.0781 90.8172 44.5391L90.45 45.0391C89.6609 44.6328 89.0086 43.8047 88.7 42.8164C88.3914 43.8555 87.7391 44.7461 86.95 45.1641L86.5516 44.6719C87.5711 44.1719 88.3758 42.8359 88.3797 41.5547V40.2891H89.0047V41.5547ZM90.0594 42.5625V42.0625H91.7078V39.6875H92.3172V46.6484H91.7078V42.5625H90.0594ZM12.7109 50.6875V52.3672H13.7578V52.8828H12.7109V54.75H12.1016V50.6875H12.7109ZM7.57812 54.3125V51.0859H8.17969V52.1484H10.2031V51.0859H10.8125V54.3125H7.57812ZM8.17969 53.8203H10.2031V52.6406H8.17969V53.8203ZM8.35156 57.5391V55.1406H12.7656V55.6328H8.96094V57.0391H12.8984V57.5391H8.35156ZM19.6125 52.7969V53.2891H14.8547V50.9453H15.4641V52.7969H19.6125ZM13.9875 54.7344V54.2344H20.3469V54.7344H13.9875ZM14.8156 57.4609V55.4453H15.425V56.9531H19.6516V57.4609H14.8156ZM24.8453 52.5547C24.8453 53.7773 25.6539 55.0391 26.6422 55.5234L26.2672 56.0156C25.5016 55.6172 24.8609 54.793 24.5523 53.8281C24.2437 54.8516 23.5875 55.7305 22.8062 56.1484L22.4156 55.6562C23.4312 55.1562 24.2359 53.8242 24.2437 52.5547V51.2891H24.8453V52.5547ZM27.2828 57.6328V50.6875H27.8922V53.5078H29.0562V54.0391H27.8922V57.6328H27.2828ZM34.6609 50.6953V52.4766H35.7156V53H34.6609V54.8359H34.0516V50.6953H34.6609ZM29.5281 51.5781V51.0703H32.6766V52.9688H30.1453V53.9531C31.3797 53.957 32.2742 53.918 33.3563 53.7422L33.4188 54.2344C32.3055 54.4297 31.3758 54.4688 30.0828 54.4688H29.5438V52.4922H32.075V51.5781H29.5281ZM30.2625 57.5391V55.1797H34.6609V57.5391H30.2625ZM30.8641 57.0391H34.0672V55.6562H30.8641V57.0391ZM41.8984 50.6875V57.6328H41.3047V50.6875H41.8984ZM36.0312 53.6875C36.0352 52.2109 36.6211 51.2773 37.5234 51.2734C38.3672 51.2773 38.9375 52.0898 39.0156 53.3984H39.9141V50.8359H40.5V57.2812H39.9141V53.9062H39.0195C38.9609 55.2578 38.3789 56.1055 37.5234 56.1016C36.6211 56.1055 36.0352 55.1641 36.0312 53.6875ZM36.6094 53.6875C36.6016 54.8125 36.9609 55.5234 37.5234 55.5156C38.0898 55.5234 38.4492 54.8125 38.4453 53.6875C38.4492 52.5586 38.0898 51.8516 37.5234 51.8516C36.9609 51.8516 36.6016 52.5586 36.6094 53.6875ZM48.6047 50.6875V57.6328H48.0187V50.6875H48.6047ZM42.6672 55.6875C44.175 54.793 44.9328 53.5391 45.05 52.0859H42.9641V51.5781H45.6594C45.6594 52.2617 45.55 52.9219 45.3117 53.5391H46.5578V50.875H47.1437V57.2812H46.5578V54.0391H45.0852C44.6672 54.8477 43.9953 55.5625 43.0266 56.1328L42.6672 55.6875ZM57.0797 50.6875V55.0859H56.4938V53.0938H55.5641V54.8359H54.9859V50.8281H55.5641V52.5859H56.4938V50.6875H57.0797ZM51.1422 52.0156V51.5234H52.6266V50.7422H53.2359V51.5234H54.7047V52.0156H51.1422ZM51.4469 53.5781C51.443 52.8516 52.0563 52.3867 52.9313 52.3906C53.8102 52.3867 54.4195 52.8516 54.4234 53.5781C54.4195 54.293 53.8102 54.7578 52.9313 54.7578C52.0563 54.7578 51.443 54.293 51.4469 53.5781ZM51.9938 53.5781C51.9938 54.0039 52.3766 54.2969 52.9313 54.2969C53.4859 54.2969 53.8688 54.0039 53.8688 53.5781C53.8688 53.1367 53.4859 52.8438 52.9313 52.8438C52.3766 52.8438 51.9938 53.1367 51.9938 53.5781ZM52.4547 56.4219C52.4469 55.6406 53.318 55.2031 54.7828 55.2031C56.2438 55.2031 57.1148 55.6406 57.1188 56.4219C57.1148 57.1836 56.2438 57.6172 54.7828 57.6172C53.318 57.6172 52.4469 57.1836 52.4547 56.4219ZM53.0641 56.4219C53.0563 56.8711 53.7008 57.1445 54.7828 57.1406C55.8609 57.1445 56.5016 56.8711 56.5094 56.4219C56.5016 55.9453 55.8609 55.6797 54.7828 55.6875C53.7008 55.6797 53.0563 55.9453 53.0641 56.4219ZM64.2469 54.2188V54.7266H61.4266V56.1484H60.8094V54.7266H57.8875V54.2188H64.2469ZM58.6063 52.2656C58.6023 51.4023 59.575 50.8711 61.0594 50.8672C62.5438 50.8711 63.5047 51.4023 63.5047 52.2656C63.5047 53.1211 62.5438 53.6523 61.0594 53.6484C59.575 53.6523 58.6023 53.1211 58.6063 52.2656ZM58.7078 57.4844V55.4531H59.325V56.9609H63.5359V57.4844H58.7078ZM59.2625 52.2656C59.2547 52.8047 59.9773 53.1484 61.0594 53.1484C62.1375 53.1484 62.8563 52.8047 62.8563 52.2656C62.8563 51.7109 62.1375 51.3711 61.0594 51.3672C59.9773 51.3711 59.2547 51.7109 59.2625 52.2656ZM67.7734 50.8125C69.3164 50.8125 70.2227 51.2383 70.2266 52.0078C70.2227 52.7969 69.3164 53.2227 67.7734 53.2266C66.2227 53.2227 65.3125 52.7969 65.3125 52.0078C65.3125 51.2383 66.2227 50.8125 67.7734 50.8125ZM64.6094 54.1953V53.6953H70.9375V54.1953H64.6094ZM65.375 55.2656V54.7969H70.125V56.3516H66V57.0703H70.3359V57.5547H65.3906V55.8984H69.5234V55.2656H65.375ZM65.9531 52.0078C65.9453 52.4922 66.6211 52.7578 67.7734 52.7578C68.9258 52.7578 69.5977 52.4922 69.6016 52.0078C69.5977 51.5508 68.9258 51.2773 67.7734 51.2734C66.6211 51.2773 65.9453 51.5508 65.9531 52.0078ZM76.6391 51.6719C76.6352 52.6016 77.8734 53.3906 79.0844 53.5703L78.8578 54.0547C77.7758 53.8711 76.7172 53.293 76.2953 52.457C75.8734 53.293 74.8148 53.8711 73.7484 54.0547L73.5062 53.5703C74.7133 53.3906 75.9477 52.6016 75.9516 51.6719V51.625H73.725V51.125H78.8578V51.625H76.6391V51.6719ZM73.1312 55.1562V54.6484H79.4594V55.1562H76.5844V57.6328H75.9828V55.1562H73.1312ZM82.2359 55.3438C82.232 55.9688 82.5641 56.6211 83.2242 57.0039C83.8922 56.5859 84.232 55.8789 84.2359 55.3438V54.9219H84.8375V55.3438C84.8336 56.0625 85.3531 56.7852 86.2594 57.0859L85.9391 57.5469C85.2477 57.293 84.7633 56.8086 84.5289 56.2227C84.3102 56.7891 83.8844 57.3281 83.2359 57.6016C82.5719 57.3438 82.1422 56.832 81.9313 56.2461C81.6813 56.8047 81.2047 57.293 80.5406 57.5469L80.2359 57.0859C81.1148 56.7695 81.6422 56.0156 81.65 55.3438V54.9219H82.2359V55.3438ZM79.9625 52.7109C79.9625 51.7578 80.7203 51.082 81.7594 51.0859C82.6734 51.082 83.3883 51.6328 83.525 52.4375H84.9859V50.6875H85.6031V54.6562H84.9859V52.9453H83.5289C83.4117 53.7734 82.6891 54.3359 81.7594 54.3359C80.7203 54.3359 79.9625 53.668 79.9625 52.7109ZM80.5563 52.7109C80.5484 53.3555 81.0602 53.8242 81.7594 53.8281C82.443 53.8242 82.9547 53.3555 82.9547 52.7109C82.9547 52.0664 82.443 51.6016 81.7594 51.6094C81.0602 51.6016 80.5484 52.0664 80.5563 52.7109ZM92.1297 51.3906V52.0859C92.1219 52.9375 92.1219 53.8906 91.8719 55.2891L91.2469 55.2188C91.5086 53.8906 91.5086 52.918 91.5125 52.0859V51.8984H87.2312V51.3906H92.1297ZM86.5594 56.6484V56.1406H89.0437V53.6562H89.6453V56.1406H92.8875V56.6484H86.5594ZM9.76562 63.8203C9.76953 65 10.625 66.1992 11.6484 66.6406L11.3047 67.125C10.4922 66.7578 9.79297 65.957 9.46875 64.9961C9.14453 66.0156 8.44141 66.8984 7.64844 67.2969L7.28125 66.8125C8.27734 66.3359 9.14453 65.0234 9.14844 63.8203V62.9141H7.50781V62.4062H11.4219V62.9141H9.76562V63.8203ZM12.3906 68.6328V61.6875H13.0078V68.6328H12.3906ZM19.5188 62.0625V62.5781C19.5188 63.1172 19.5188 63.75 19.3352 64.6172H20.3547V65.125H13.9953V64.6172H18.718C18.9133 63.7422 18.9133 63.1172 18.9094 62.5781V62.5703H14.8V62.0625H19.5188ZM14.7766 68.5391V66.0859H19.55V68.5391H14.7766ZM15.3859 68.0391H18.9406V66.5703H15.3859V68.0391ZM27.0375 65.3516V65.8516H20.7094V65.3516H27.0375ZM21.4125 63.3125C21.4125 62.4414 22.3656 61.9297 23.8734 61.9375C25.3656 61.9297 26.3227 62.4414 26.3266 63.3125C26.3227 64.1758 25.3656 64.6953 23.8734 64.6953C22.3656 64.6953 21.4125 64.1758 21.4125 63.3125ZM21.5297 68.4844V66.4609H22.1469V67.9688H26.3344V68.4844H21.5297ZM22.0453 63.3125C22.0414 63.8633 22.7523 64.1953 23.8734 64.1953C24.9867 64.1953 25.6977 63.8633 25.7016 63.3125C25.6977 62.7695 24.9867 62.4297 23.8734 62.4297C22.7523 62.4297 22.0414 62.7695 22.0453 63.3125ZM34.6688 61.6875V63.5H35.7078V64.0156H34.6688V65.8359H34.0516V61.6875H34.6688ZM29.5516 65.2656V62.2188H32.6375V62.7266H30.1531V64.7656C31.5594 64.7578 32.368 64.7148 33.3016 64.5234L33.3641 65.0312C32.3914 65.2266 31.5594 65.2656 30.0906 65.2656H29.5516ZM30.1297 67.2891C30.1336 66.457 31.0164 65.9727 32.4344 65.9688C33.8523 65.9727 34.7234 66.457 34.7234 67.2891C34.7234 68.1328 33.8523 68.6172 32.4344 68.6172C31.0164 68.6172 30.1336 68.1328 30.1297 67.2891ZM30.7313 67.2891C30.7352 67.8047 31.3875 68.1211 32.4344 68.125C33.4734 68.1211 34.1336 67.8047 34.1297 67.2891C34.1336 66.7773 33.4734 66.4688 32.4344 66.4766C31.3875 66.4688 30.7352 66.7773 30.7313 67.2891ZM41.6797 61.6953V66.7891H41.0703V61.6953H41.6797ZM36.0156 65.3047C37.0664 64.8945 37.7812 63.8789 37.7812 62.7812V62.0859H38.4062V62.7812C38.3984 63.8398 39.1211 64.7891 40.1562 65.1641L39.8359 65.6562C39.0312 65.3477 38.4062 64.7227 38.0977 63.9219C37.7969 64.7734 37.1641 65.457 36.3516 65.7812L36.0156 65.3047ZM37.1953 68.4844V66.3203H37.8047V67.9688H41.8984V68.4844H37.1953ZM48.6125 61.6875V68.6328H48.0187V61.6875H48.6125ZM42.7453 64.6875C42.7492 63.2109 43.3352 62.2773 44.2375 62.2734C45.0812 62.2773 45.6516 63.0898 45.7297 64.3984H46.6281V61.8359H47.2141V68.2812H46.6281V64.9062H45.7336C45.675 66.2578 45.093 67.1055 44.2375 67.1016C43.3352 67.1055 42.7492 66.1641 42.7453 64.6875ZM43.3234 64.6875C43.3156 65.8125 43.675 66.5234 44.2375 66.5156C44.8039 66.5234 45.1633 65.8125 45.1594 64.6875C45.1633 63.5586 44.8039 62.8516 44.2375 62.8516C43.675 62.8516 43.3156 63.5586 43.3234 64.6875ZM55.3187 61.6875V68.6328H54.7328V61.6875H55.3187ZM49.3812 66.6875C50.8891 65.793 51.6469 64.5391 51.7641 63.0859H49.6781V62.5781H52.3734C52.3734 63.2617 52.2641 63.9219 52.0258 64.5391H53.2719V61.875H53.8578V68.2812H53.2719V65.0391H51.7992C51.3812 65.8477 50.7094 66.5625 49.7406 67.1328L49.3812 66.6875ZM62.4469 67.2578V67.7734H56.0875V67.2578H58.9469V65.9453H56.8844V63.8047H61.0406V62.7109H56.8688V62.2031H61.6422V64.3047H57.4938V65.4375H61.8063V65.9453H59.5484V67.2578H62.4469ZM67.5234 65.8047V67.3516H65.875V68.0859C66.6953 68.0859 67.1445 68.0703 67.7031 67.9688L67.7578 68.4219C67.1289 68.5469 66.6367 68.5508 65.6719 68.5547H65.2969V66.9141H66.9453V66.2656H65.2812V65.8047H67.5234ZM64.6094 65.25V64.75H67.4609V64.2344C66.1055 64.1758 65.3125 63.7344 65.3125 63.0078C65.3125 62.2148 66.2305 61.7734 67.7734 61.7734C69.3047 61.7734 70.2227 62.2148 70.2266 63.0078C70.2227 63.7383 69.418 64.1797 68.0625 64.2344V64.75H70.9375V65.25H64.6094ZM65.9531 63.0078C65.9453 63.4805 66.6211 63.7578 67.7734 63.7656C68.9141 63.7578 69.5977 63.4805 69.6016 63.0078C69.5977 62.5312 68.9141 62.25 67.7734 62.2422C66.6211 62.25 65.9453 62.5312 65.9531 63.0078ZM67.9766 68.5547V65.8047H70.2188V68.5547H67.9766ZM68.5 68.0938H69.6875V66.2656H68.5V68.0938ZM74.8469 62.4453C74.8469 62.8398 74.8117 63.2266 74.7336 63.6016H76.4641V61.6797H77.0734V68.6328H76.4641V65.9609H74.5031V65.4531H76.4641V64.1016H74.6086C74.2102 65.3906 73.2922 66.5234 71.6516 67.3203L71.3313 66.8203C73.1789 65.9258 74.1008 64.5859 74.2297 62.9453H71.6359V62.4453H74.8469ZM80.5375 63.1797C80.5414 64.1172 81.2797 64.9609 82.3187 65.2891L82.0062 65.7812C81.1977 65.5039 80.557 64.9336 80.2406 64.2031C79.9398 64.9922 79.2875 65.6172 78.4594 65.9219L78.1391 65.4297C79.182 65.0664 79.9164 64.1641 79.9203 63.1797V62.7734H78.2953V62.2734H82.1391V62.7734H80.5375V63.1797ZM79.2875 68.4844V66.3047H79.8969V67.9688H83.9906V68.4844H79.2875ZM83.1625 66.7891V61.6953H83.7719V66.7891H83.1625ZM92.2859 61.6875V68.6484H91.6687V61.6875H92.2859ZM86.8172 64.6484C86.8211 63.1719 87.5555 62.2305 88.5906 62.2266C89.6219 62.2305 90.368 63.1719 90.3641 64.6484C90.368 66.1289 89.6219 67.0664 88.5906 67.0625C87.5555 67.0664 86.8211 66.1289 86.8172 64.6484ZM87.4109 64.6484C87.4109 65.7773 87.8953 66.5195 88.5906 66.5156C89.2898 66.5195 89.7703 65.7773 89.7703 64.6484C89.7703 63.5195 89.2898 62.7773 88.5906 62.7734C87.8953 62.7773 87.4109 63.5195 87.4109 64.6484ZM13.0391 72.6875V77.8594H12.4219V75.8438H11.2344V75.3281H12.4219V74.5234H11.2344V74.0156H12.4219V72.6875H13.0391ZM7.29688 76.2812C7.57422 76.2812 7.875 76.2773 8.19531 76.2734V73.7578H7.49219V73.2578H11.1797V73.7578H10.4688V76.1914C10.7891 76.1719 11.1055 76.1445 11.4062 76.1094L11.4375 76.5703C10.0898 76.7773 8.50391 76.8008 7.375 76.8047L7.29688 76.2812ZM8.5625 79.4844V77.4297H9.17969V78.9688H13.2266V79.4844H8.5625ZM8.78906 76.2617C9.14453 76.2539 9.51172 76.2422 9.875 76.2266V73.7578H8.78906V76.2617ZM16.4797 74.8203C16.4836 76 17.3391 77.1992 18.3625 77.6406L18.0188 78.125C17.2063 77.7578 16.507 76.957 16.1828 75.9961C15.8586 77.0156 15.1555 77.8984 14.3625 78.2969L13.9953 77.8125C14.9914 77.3359 15.8586 76.0234 15.8625 74.8203V73.9141H14.2219V73.4062H18.1359V73.9141H16.4797V74.8203ZM19.1047 79.6328V72.6875H19.7219V79.6328H19.1047ZM26.3266 74.7969V75.2891H21.5688V72.9453H22.1781V74.7969H26.3266ZM20.7016 76.7344V76.2344H27.0609V76.7344H20.7016ZM21.5297 79.4609V77.4453H22.1391V78.9531H26.3656V79.4609H21.5297ZM29.3406 77.8438V77.2656L31.8875 73.3438H32.7547V77.2266H33.5438V77.8438H32.7547V79H32.0828V77.8438H29.3406ZM30.0984 77.2266H32.0828V74.2344H32.0125L30.0984 77.1797V77.2266ZM35.9922 72.9453C37.0312 72.9492 37.7852 73.582 37.7891 74.4844C37.7852 75.3906 37.0312 76.0156 35.9922 76.0156C34.9414 76.0156 34.1836 75.3906 34.1875 74.4844C34.1836 73.582 34.9414 72.9492 35.9922 72.9453ZM34.7891 74.4844C34.7812 75.0938 35.293 75.5156 35.9922 75.5156C36.6797 75.5156 37.1953 75.0938 37.1953 74.4844C37.1953 73.8828 36.6797 73.457 35.9922 73.4609C35.293 73.457 34.7812 73.8828 34.7891 74.4844ZM35.2422 77.0859V76.5938H39.7578V78.2656H35.8594V79.0469H40.0078V79.5391H35.2578V77.8047H39.1484V77.0859H35.2422ZM39.1484 76.2578V72.6875H39.7578V76.2578H39.1484ZM47.975 72.6875V74.8047H49.0219V75.3203H47.975V77.8125H47.3656V72.6875H47.975ZM42.6781 74.8906C42.6742 73.8828 43.4633 73.1836 44.4984 73.1797C45.5414 73.1836 46.3187 73.8828 46.3266 74.8906C46.3187 75.8945 45.5414 76.6016 44.4984 76.6016C43.4633 76.6016 42.6742 75.8945 42.6781 74.8906ZM43.2797 74.8906C43.2758 75.5742 43.8109 76.0625 44.4984 76.0625C45.1977 76.0625 45.7211 75.5742 45.725 74.8906C45.7211 74.2031 45.1977 73.7188 44.4984 73.7188C43.8109 73.7188 43.2758 74.2031 43.2797 74.8906ZM43.6312 79.4844V77.2812H44.2328V78.9688H48.2953V79.4844H43.6312ZM55.2125 72.6875V79.6328H54.6188V72.6875H55.2125ZM49.3453 75.6875C49.3492 74.2109 49.9352 73.2773 50.8375 73.2734C51.6813 73.2773 52.2516 74.0898 52.3297 75.3984H53.2281V72.8359H53.8141V79.2812H53.2281V75.9062H52.3336C52.275 77.2578 51.693 78.1055 50.8375 78.1016C49.9352 78.1055 49.3492 77.1641 49.3453 75.6875ZM49.9234 75.6875C49.9156 76.8125 50.275 77.5234 50.8375 77.5156C51.4039 77.5234 51.7633 76.8125 51.7594 75.6875C51.7633 74.5586 51.4039 73.8516 50.8375 73.8516C50.275 73.8516 49.9156 74.5586 49.9234 75.6875ZM63.2188 72.6875V74.5H64.2578V75.0156H63.2188V76.8359H62.6016V72.6875H63.2188ZM58.1016 76.2656V73.2188H61.1875V73.7266H58.7031V75.7656C60.1094 75.7578 60.918 75.7148 61.8516 75.5234L61.9141 76.0312C60.9414 76.2266 60.1094 76.2656 58.6406 76.2656H58.1016ZM58.6797 78.2891C58.6836 77.457 59.5664 76.9727 60.9844 76.9688C62.4023 76.9727 63.2734 77.457 63.2734 78.2891C63.2734 79.1328 62.4023 79.6172 60.9844 79.6172C59.5664 79.6172 58.6836 79.1328 58.6797 78.2891ZM59.2812 78.2891C59.2852 78.8047 59.9375 79.1211 60.9844 79.125C62.0234 79.1211 62.6836 78.8047 62.6797 78.2891C62.6836 77.7773 62.0234 77.4688 60.9844 77.4766C59.9375 77.4688 59.2852 77.7773 59.2812 78.2891ZM70.2297 72.6953V77.7891H69.6203V72.6953H70.2297ZM64.5656 76.3047C65.6164 75.8945 66.3312 74.8789 66.3312 73.7812V73.0859H66.9562V73.7812C66.9484 74.8398 67.6711 75.7891 68.7062 76.1641L68.3859 76.6562C67.5812 76.3477 66.9562 75.7227 66.6477 74.9219C66.3469 75.7734 65.7141 76.457 64.9016 76.7812L64.5656 76.3047ZM65.7453 79.4844V77.3203H66.3547V78.9688H70.4484V79.4844H65.7453ZM78.7984 76.7266V77.1953H74.9234V77.875H78.6891V78.3438H74.9234V79.0625H78.9313V79.5391H74.3063V76.7266H78.7984ZM73.1109 76.0781C74.8375 75.6523 75.8453 74.7578 75.9586 73.6094H73.4625V73.1094H76.6188C76.6188 73.3438 76.5953 73.5664 76.5523 73.7812H78.1578V72.6875H78.775V76.4453H78.1578V75.625H76.3141V75.1406H78.1578V74.2656H76.4117C75.9859 75.3906 74.9078 76.1758 73.3453 76.5781L73.1109 76.0781ZM82.8953 72.8125C84.4383 72.8125 85.3445 73.2383 85.3484 74.0078C85.3445 74.7969 84.4383 75.2227 82.8953 75.2266C81.3445 75.2227 80.4344 74.7969 80.4344 74.0078C80.4344 73.2383 81.3445 72.8125 82.8953 72.8125ZM79.7312 76.1953V75.6953H86.0594V76.1953H79.7312ZM80.4969 77.2656V76.7969H85.2469V78.3516H81.1219V79.0703H85.4578V79.5547H80.5125V77.8984H84.6453V77.2656H80.4969ZM81.075 74.0078C81.0672 74.4922 81.743 74.7578 82.8953 74.7578C84.0477 74.7578 84.7195 74.4922 84.7234 74.0078C84.7195 73.5508 84.0477 73.2773 82.8953 73.2734C81.743 73.2773 81.0672 73.5508 81.075 74.0078ZM90.1906 73.3906V73.8984H89.0734V77.3281C89.4133 77.3203 89.7961 77.2891 90.2219 77.1875L90.3 77.7031C89.7023 77.8398 89.2023 77.8438 88.7609 77.8438H88.4719V73.3906H90.1906ZM90.5734 77.8438V73.3906H92.4719V73.8984H91.1906V77.3281C91.757 77.3242 92.2297 77.2969 92.7609 77.1641L92.8234 77.6719C92.175 77.8281 91.6477 77.8438 90.925 77.8438H90.5734ZM92.1281 75.7422V75.2422H93.4719V72.6875H94.0891V79.6328H93.4719V75.7422H92.1281ZM13.7812 86.4609V86.9766H12.6562V90.6328H12.0469V83.6875H12.6562V86.4609H13.7812ZM7.57031 88.8672V84.375H8.17969V88.3516C9.19531 88.3516 10.2305 88.2734 11.375 88.0312L11.4531 88.5547C10.2539 88.7969 9.17578 88.8672 8.125 88.8672H7.57031ZM15.8547 84.2266C16.8781 84.2305 17.6047 85.1719 17.6125 86.6484C17.6047 88.1289 16.8781 89.0664 15.8547 89.0625C14.8234 89.0664 14.1008 88.1289 14.1047 86.6484C14.1008 85.1719 14.8234 84.2305 15.8547 84.2266ZM14.6828 86.6484C14.6867 87.7773 15.1672 88.5195 15.8547 88.5156C16.55 88.5195 17.0188 87.7773 17.0188 86.6484C17.0188 85.5195 16.55 84.7773 15.8547 84.7734C15.1672 84.7773 14.6867 85.5195 14.6828 86.6484ZM18.7609 90.6328V83.6875H19.3703V85.4375H20.4953V85.9609H19.3703V87.5078H20.4953V88.0234H19.3703V90.6328H18.7609ZM27.9469 83.6875V85.4688H28.9937V85.9922H27.9469V87.7266H27.3375V83.6875H27.9469ZM22.5328 84.9141V84.4062H24.2984V83.625H24.9078V84.4062H26.6734V84.9141H22.5328ZM22.9312 86.4531C22.9273 85.7109 23.5953 85.2383 24.6031 85.2344C25.5992 85.2383 26.2672 85.7109 26.275 86.4531C26.2672 87.1953 25.5992 87.6758 24.6031 87.6719C23.5953 87.6758 22.9273 87.1953 22.9312 86.4531ZM23.5172 86.4531C23.5133 86.9062 23.9469 87.2031 24.6031 87.2031C25.2516 87.2031 25.6891 86.9062 25.6969 86.4531C25.6891 86.0039 25.2516 85.7031 24.6031 85.7109C23.9469 85.7031 23.5133 86.0039 23.5172 86.4531ZM23.5562 90.5391V88.0312H24.1656V88.7734H27.3375V88.0312H27.9469V90.5391H23.5562ZM24.1656 90.0469H27.3375V89.2578H24.1656V90.0469ZM34.9578 83.6875V90.6328H34.3484V83.6875H34.9578ZM29.6844 88.8438V84.375H30.2859V88.3125C31.3484 88.3047 32.4422 88.2227 33.6063 87.9766L33.6922 88.5C32.4578 88.7578 31.3602 88.8438 30.2469 88.8438H29.6844ZM41.3203 83.6875V86.4375H42.4844V86.9531H41.3203V90.6484H40.7109V83.6875H41.3203ZM36.25 88.9062V84.3672H39.4922V84.875H36.8594V88.3906C38.1172 88.3867 39.0039 88.332 40.0391 88.1406L40.1172 88.6719C39.0273 88.8672 38.1172 88.9062 36.7969 88.9062H36.25ZM43.3937 90.0469C43.1203 90.043 42.8859 89.8164 42.8937 89.5391C42.8859 89.2656 43.1203 89.0391 43.3937 89.0391C43.6711 89.0391 43.8977 89.2656 43.8937 89.5391C43.8977 89.8164 43.6711 90.043 43.3937 90.0469ZM52.0094 83.6875V90.6484H51.3922V83.6875H52.0094ZM46.5406 86.6484C46.5445 85.1719 47.2789 84.2305 48.3141 84.2266C49.3453 84.2305 50.0914 85.1719 50.0875 86.6484C50.0914 88.1289 49.3453 89.0664 48.3141 89.0625C47.2789 89.0664 46.5445 88.1289 46.5406 86.6484ZM47.1344 86.6484C47.1344 87.7773 47.6188 88.5195 48.3141 88.5156C49.0133 88.5195 49.4938 87.7773 49.4938 86.6484C49.4938 85.5195 49.0133 84.7773 48.3141 84.7734C47.6188 84.7773 47.1344 85.5195 47.1344 86.6484ZM60.5625 83.6875V88.8594H59.9453V86.8438H58.7578V86.3281H59.9453V85.5234H58.7578V85.0156H59.9453V83.6875H60.5625ZM54.8203 87.2812C55.0977 87.2812 55.3984 87.2773 55.7188 87.2734V84.7578H55.0156V84.2578H58.7031V84.7578H57.9922V87.1914C58.3125 87.1719 58.6289 87.1445 58.9297 87.1094L58.9609 87.5703C57.6133 87.7773 56.0273 87.8008 54.8984 87.8047L54.8203 87.2812ZM56.0859 90.4844V88.4297H56.7031V89.9688H60.75V90.4844H56.0859ZM56.3125 87.2617C56.668 87.2539 57.0352 87.2422 57.3984 87.2266V84.7578H56.3125V87.2617ZM64.0031 85.8203C64.007 87 64.8625 88.1992 65.8859 88.6406L65.5422 89.125C64.7297 88.7578 64.0305 87.957 63.7062 86.9961C63.382 88.0156 62.6789 88.8984 61.8859 89.2969L61.5187 88.8125C62.5148 88.3359 63.382 87.0234 63.3859 85.8203V84.9141H61.7453V84.4062H65.6594V84.9141H64.0031V85.8203ZM66.6281 90.6328V83.6875H67.2453V90.6328H66.6281ZM74.5844 86.9141V87.3984H68.225V86.9141H74.5844ZM68.9906 88.4141V87.9531H73.7875V89.4297H69.6156V90.0938H74.0141V90.5391H68.9984V89.0078H73.1781V88.4141H68.9906ZM69.0297 84.3438V83.8984H73.7641V85.3359H69.6625V85.9453H73.8891V86.3906H69.0531V84.9141H73.1469V84.3438H69.0297ZM83.1141 89.25V89.7734H76.7547V89.25H79.6062V87.6484H77.3328V87.1562H78.4187V84.875H77.3172V84.3672H82.5047V84.875H81.4031V87.1562H82.4891V87.6484H80.2078V89.25H83.1141ZM79.0281 87.1562H80.8016V84.875H79.0281V87.1562ZM88.8984 83.6875V85.5391H89.9453V86.0625H88.8984V87.875H88.2891V83.6875H88.8984ZM83.4844 84.9375V84.4297H85.25V83.6328H85.8594V84.4297H87.625V84.9375H83.4844ZM83.8828 86.5156C83.8789 85.7734 84.5469 85.2812 85.5547 85.2812C86.5508 85.2812 87.2188 85.7734 87.2266 86.5156C87.2188 87.2695 86.5508 87.7578 85.5547 87.7578C84.5469 87.7578 83.8789 87.2695 83.8828 86.5156ZM84.4688 86.5156C84.4648 86.9883 84.8984 87.2812 85.5547 87.2891C86.2031 87.2812 86.6406 86.9883 86.6484 86.5156C86.6406 86.0625 86.2031 85.7578 85.5547 85.7578C84.8984 85.7578 84.4648 86.0625 84.4688 86.5156ZM84.5156 90.5391V88.2734H88.8984V90.5391H84.5156ZM85.1172 90.0391H88.2891V88.7656H85.1172V90.0391ZM93.6516 84.8906V85.3906H90.1672V84.8906H91.6125V83.8984H92.2219V84.8906H93.6516ZM90.4172 87.4375C90.4172 86.5156 91.0461 85.8633 91.9094 85.8594C92.7844 85.8633 93.4094 86.5156 93.4172 87.4375C93.4094 88.3711 92.7844 89.0273 91.9094 89.0312C91.0461 89.0273 90.4172 88.3711 90.4172 87.4375ZM90.9641 87.4375C90.9641 88.0547 91.3586 88.4961 91.9094 88.4922C92.4641 88.4961 92.8703 88.0547 92.8703 87.4375C92.8703 86.8281 92.4641 86.3828 91.9094 86.375C91.3586 86.3828 90.9641 86.8281 90.9641 87.4375ZM94.0109 90.2891V83.8594H94.5891V86.6172H95.5109V83.6875H96.0969V90.6328H95.5109V87.125H94.5891V90.2891H94.0109ZM9.72656 96.5547C9.72266 97.8125 10.5312 99.0781 11.5391 99.5391L11.1719 100.039C10.3828 99.6328 9.73047 98.8047 9.42188 97.8164C9.11328 98.8555 8.46094 99.7461 7.67188 100.164L7.27344 99.6719C8.29297 99.1719 9.09766 97.8359 9.10156 96.5547V95.2891H9.72656V96.5547ZM10.7812 97.5625V97.0625H12.4297V94.6875H13.0391V101.648H12.4297V97.5625H10.7812ZM16.2328 101L18.8266 96.0078V95.9688H15.8344V95.3438H19.5531V96L16.9672 101H16.2328ZM26.3453 98.375V98.875H20.0094V98.375H22.8687V97.6875H20.8531V94.8906H25.5562V95.3906H21.4703V96.0391H25.3687V96.5078H21.4703V97.1953H25.5953V97.6875H23.4781V98.375H26.3453ZM20.7828 100.508C20.7789 99.7852 21.6422 99.3906 23.1812 99.3984C24.7047 99.3906 25.5641 99.7852 25.5719 100.508C25.5641 101.238 24.7047 101.617 23.1812 101.617C21.6422 101.617 20.7789 101.238 20.7828 100.508ZM21.4 100.508C21.3922 100.93 22.0328 101.148 23.1812 101.141C24.318 101.148 24.9508 100.93 24.9547 100.508C24.9508 100.094 24.318 99.8633 23.1812 99.8594C22.0328 99.8633 21.3922 100.094 21.4 100.508ZM29.8953 94.8125C31.4383 94.8125 32.3445 95.2383 32.3484 96.0078C32.3445 96.7969 31.4383 97.2227 29.8953 97.2266C28.3445 97.2227 27.4344 96.7969 27.4344 96.0078C27.4344 95.2383 28.3445 94.8125 29.8953 94.8125ZM26.7313 98.1953V97.6953H33.0594V98.1953H26.7313ZM27.4969 99.2656V98.7969H32.2469V100.352H28.1219V101.07H32.4578V101.555H27.5125V99.8984H31.6453V99.2656H27.4969ZM28.075 96.0078C28.0672 96.4922 28.743 96.7578 29.8953 96.7578C31.0477 96.7578 31.7195 96.4922 31.7234 96.0078C31.7195 95.5508 31.0477 95.2773 29.8953 95.2734C28.743 95.2773 28.0672 95.5508 28.075 96.0078ZM41.1516 94.6875V99.0859H40.5656V97.0938H39.6359V98.8359H39.0578V94.8281H39.6359V96.5859H40.5656V94.6875H41.1516ZM35.2141 96.0156V95.5234H36.6984V94.7422H37.3078V95.5234H38.7766V96.0156H35.2141ZM35.5187 97.5781C35.5148 96.8516 36.1281 96.3867 37.0031 96.3906C37.882 96.3867 38.4914 96.8516 38.4953 97.5781C38.4914 98.293 37.882 98.7578 37.0031 98.7578C36.1281 98.7578 35.5148 98.293 35.5187 97.5781ZM36.0656 97.5781C36.0656 98.0039 36.4484 98.2969 37.0031 98.2969C37.5578 98.2969 37.9406 98.0039 37.9406 97.5781C37.9406 97.1367 37.5578 96.8438 37.0031 96.8438C36.4484 96.8438 36.0656 97.1367 36.0656 97.5781ZM36.5266 100.422C36.5187 99.6406 37.3898 99.2031 38.8547 99.2031C40.3156 99.2031 41.1867 99.6406 41.1906 100.422C41.1867 101.184 40.3156 101.617 38.8547 101.617C37.3898 101.617 36.5187 101.184 36.5266 100.422ZM37.1359 100.422C37.1281 100.871 37.7727 101.145 38.8547 101.141C39.9328 101.145 40.5734 100.871 40.5812 100.422C40.5734 99.9453 39.9328 99.6797 38.8547 99.6875C37.7727 99.6797 37.1281 99.9453 37.1359 100.422ZM48.3187 98.2188V98.7266H45.4984V100.148H44.8812V98.7266H41.9594V98.2188H48.3187ZM42.6781 96.2656C42.6742 95.4023 43.6469 94.8711 45.1312 94.8672C46.6156 94.8711 47.5766 95.4023 47.5766 96.2656C47.5766 97.1211 46.6156 97.6523 45.1312 97.6484C43.6469 97.6523 42.6742 97.1211 42.6781 96.2656ZM42.7797 101.484V99.4531H43.3969V100.961H47.6078V101.484H42.7797ZM43.3344 96.2656C43.3266 96.8047 44.0492 97.1484 45.1312 97.1484C46.2094 97.1484 46.9281 96.8047 46.9281 96.2656C46.9281 95.7109 46.2094 95.3711 45.1312 95.3672C44.0492 95.3711 43.3266 95.7109 43.3344 96.2656ZM54.4078 94.6875V101.648H53.7906V94.6875H54.4078ZM48.9391 97.6484C48.943 96.1719 49.6773 95.2305 50.7125 95.2266C51.7438 95.2305 52.4898 96.1719 52.4859 97.6484C52.4898 99.1289 51.7438 100.066 50.7125 100.062C49.6773 100.066 48.943 99.1289 48.9391 97.6484ZM49.5328 97.6484C49.5328 98.7773 50.0172 99.5195 50.7125 99.5156C51.4117 99.5195 51.8922 98.7773 51.8922 97.6484C51.8922 96.5195 51.4117 95.7773 50.7125 95.7734C50.0172 95.7773 49.5328 96.5195 49.5328 97.6484ZM62.9453 94.6875V98.2969H62.3281V94.6875H62.9453ZM57.3203 97.5391C57.5977 97.5391 57.8984 97.5352 58.2109 97.5312V95.6562H57.5156V95.1641H61.2734V95.6562H60.5703V97.4375C60.9297 97.4102 61.2812 97.375 61.6172 97.3359L61.6484 97.7891C60.2578 97.9961 58.625 98.0508 57.3984 98.0469L57.3203 97.5391ZM58.3984 99.125V98.6328H62.9453V100.289H59.0234V101.055H63.2109V101.555H58.4219V99.8281H62.3359V99.125H58.3984ZM58.8047 97.5195C59.1875 97.5078 59.582 97.4961 59.9766 97.4727V95.6562H58.8047V97.5195ZM70.2766 100.227V100.742H63.9172V100.227H65.4953V98.3555C64.9016 98.0469 64.5422 97.5469 64.5422 96.9141C64.5422 95.8398 65.5969 95.1328 67.0812 95.125C68.5656 95.1328 69.6203 95.8398 69.6203 96.9141C69.6203 97.5352 69.2727 98.0273 68.6984 98.3359V100.227H70.2766ZM65.1359 96.9141C65.132 97.6914 65.9406 98.2109 67.0812 98.2109C68.2102 98.2109 69.0266 97.6914 69.0266 96.9141C69.0266 96.1367 68.2102 95.625 67.0812 95.6328C65.9406 95.625 65.132 96.1367 65.1359 96.9141ZM66.0969 100.227H68.0812V98.5742C67.7805 98.6523 67.4445 98.6953 67.0812 98.6953C66.7258 98.6953 66.3937 98.6562 66.0969 98.5781V100.227ZM76.0609 94.6953V96.9844H77.1078V97.5H76.0609V99.8984H75.4516V94.6953H76.0609ZM70.6469 96.0469V95.5469H72.4125V94.6953H73.0219V95.5469H74.7875V96.0469H70.6469ZM71.0453 97.7266C71.0414 96.9375 71.7133 96.4297 72.7172 96.4297C73.7094 96.4297 74.3812 96.9375 74.3891 97.7266C74.3812 98.5078 73.7094 99.0117 72.7172 99.0078C71.7133 99.0117 71.0414 98.5078 71.0453 97.7266ZM71.6312 97.7266C71.6273 98.2148 72.0609 98.5312 72.7172 98.5234C73.3656 98.5312 73.8031 98.2148 73.8109 97.7266C73.8031 97.2305 73.3656 96.9102 72.7172 96.9141C72.0609 96.9102 71.6273 97.2305 71.6312 97.7266ZM71.7172 101.484V99.4844H72.3187V100.969H76.3812V101.484H71.7172ZM81.4812 96.5547C81.4812 97.7773 82.2898 99.0391 83.2781 99.5234L82.9031 100.016C82.1375 99.6172 81.4969 98.793 81.1883 97.8281C80.8797 98.8516 80.2234 99.7305 79.4422 100.148L79.0516 99.6562C80.0672 99.1562 80.8719 97.8242 80.8797 96.5547V95.2891H81.4812V96.5547ZM83.9187 101.633V94.6875H84.5281V97.5078H85.6922V98.0391H84.5281V101.633H83.9187ZM91.2969 94.6953V96.4766H92.3516V97H91.2969V98.8359H90.6875V94.6953H91.2969ZM86.1641 95.5781V95.0703H89.3125V96.9688H86.7812V97.9531C88.0156 97.957 88.9102 97.918 89.9922 97.7422L90.0547 98.2344C88.9414 98.4297 88.0117 98.4688 86.7188 98.4688H86.1797V96.4922H88.7109V95.5781H86.1641ZM86.8984 101.539V99.1797H91.2969V101.539H86.8984ZM87.5 101.039H90.7031V99.6562H87.5V101.039ZM13.2344 105.688V112.633H12.6406V105.688H13.2344ZM7.36719 108.688C7.37109 107.211 7.95703 106.277 8.85938 106.273C9.70312 106.277 10.2734 107.09 10.3516 108.398H11.25V105.836H11.8359V112.281H11.25V108.906H10.3555C10.2969 110.258 9.71484 111.105 8.85938 111.102C7.95703 111.105 7.37109 110.164 7.36719 108.688ZM7.94531 108.688C7.9375 109.812 8.29688 110.523 8.85938 110.516C9.42578 110.523 9.78516 109.812 9.78125 108.688C9.78516 107.559 9.42578 106.852 8.85938 106.852C8.29688 106.852 7.9375 107.559 7.94531 108.688ZM19.9406 105.688V112.633H19.3547V105.688H19.9406ZM14.0031 110.688C15.5109 109.793 16.2688 108.539 16.3859 107.086H14.3V106.578H16.9953C16.9953 107.262 16.8859 107.922 16.6477 108.539H17.8938V105.875H18.4797V112.281H17.8938V109.039H16.4211C16.0031 109.848 15.3313 110.562 14.3625 111.133L14.0031 110.688ZM28.8766 111.234V111.742H22.5172V111.234H25.3766V109.734H23.2672V106.18H23.8844V107.438H27.4937V106.18H28.0953V109.734H25.9781V111.234H28.8766ZM23.8844 109.234H27.4937V107.938H23.8844V109.234ZM35.1609 105.688V112.633H34.5594V109.039H33.5594V112.273H32.9813V105.844H33.5594V108.516H34.5594V105.688H35.1609ZM29.5828 110.836V106.539H30.1922V110.289C30.8797 110.285 31.6219 110.234 32.4656 110.062L32.5438 110.609C31.575 110.785 30.7781 110.836 30.0125 110.836H29.5828ZM41.2609 106.672C41.257 107.602 42.4953 108.391 43.7062 108.57L43.4797 109.055C42.3977 108.871 41.3391 108.293 40.9172 107.457C40.4953 108.293 39.4367 108.871 38.3703 109.055L38.1281 108.57C39.3352 108.391 40.5695 107.602 40.5734 106.672V106.625H38.3469V106.125H43.4797V106.625H41.2609V106.672ZM37.7531 110.156V109.648H44.0812V110.156H41.2062V112.633H40.6047V110.156H37.7531ZM50.225 105.688V112.648H49.6078V109.453H48.0687V108.93H49.6078V107.727H48.0687V107.211H49.6078V105.688H50.225ZM44.4594 110.672C45.4789 110.172 46.2836 108.836 46.2875 107.555V106.289H46.9125V107.555C46.9086 108.816 47.7172 110.09 48.725 110.562L48.3578 111.062C47.5648 110.66 46.9125 109.812 46.6039 108.816C46.2953 109.852 45.6391 110.738 44.8578 111.164L44.4594 110.672ZM53.0406 106.227C54.0641 106.23 54.7906 107.172 54.7984 108.648C54.7906 110.129 54.0641 111.066 53.0406 111.062C52.0094 111.066 51.2867 110.129 51.2906 108.648C51.2867 107.172 52.0094 106.23 53.0406 106.227ZM51.8688 108.648C51.8727 109.777 52.3531 110.52 53.0406 110.516C53.7359 110.52 54.2047 109.777 54.2047 108.648C54.2047 107.52 53.7359 106.777 53.0406 106.773C52.3531 106.777 51.8727 107.52 51.8688 108.648ZM55.9469 112.633V105.688H56.5563V107.438H57.6813V107.961H56.5563V109.508H57.6813V110.023H56.5563V112.633H55.9469ZM65.1328 105.688V107.469H66.1797V107.992H65.1328V109.727H64.5234V105.688H65.1328ZM59.7188 106.914V106.406H61.4844V105.625H62.0938V106.406H63.8594V106.914H59.7188ZM60.1172 108.453C60.1133 107.711 60.7812 107.238 61.7891 107.234C62.7852 107.238 63.4531 107.711 63.4609 108.453C63.4531 109.195 62.7852 109.676 61.7891 109.672C60.7812 109.676 60.1133 109.195 60.1172 108.453ZM60.7031 108.453C60.6992 108.906 61.1328 109.203 61.7891 109.203C62.4375 109.203 62.875 108.906 62.8828 108.453C62.875 108.004 62.4375 107.703 61.7891 107.711C61.1328 107.703 60.6992 108.004 60.7031 108.453ZM60.7422 112.539V110.031H61.3516V110.773H64.5234V110.031H65.1328V112.539H60.7422ZM61.3516 112.047H64.5234V111.258H61.3516V112.047ZM72.1437 105.688V112.633H71.5344V105.688H72.1437ZM66.8703 110.844V106.375H67.4719V110.312C68.5344 110.305 69.6281 110.223 70.7922 109.977L70.8781 110.5C69.6437 110.758 68.5461 110.844 67.4328 110.844H66.8703ZM78.5062 105.688V108.438H79.6703V108.953H78.5062V112.648H77.8969V105.688H78.5062ZM73.4359 110.906V106.367H76.6781V106.875H74.0453V110.391C75.3031 110.387 76.1898 110.332 77.225 110.141L77.3031 110.672C76.2133 110.867 75.3031 110.906 73.9828 110.906H73.4359ZM80.5797 112.047C80.3063 112.043 80.0719 111.816 80.0797 111.539C80.0719 111.266 80.3063 111.039 80.5797 111.039C80.857 111.039 81.0836 111.266 81.0797 111.539C81.0836 111.816 80.857 112.043 80.5797 112.047ZM89.7969 109.281V109.789H83.4688V109.281H86.3281V108.445H84.3125V105.852H84.9219V106.656H88.3594V105.852H88.9688V108.445H86.9375V109.281H89.7969ZM84.1719 110.969V110.477H89.0156V112.633H88.3984V110.969H84.1719ZM84.9219 107.953H88.3594V107.125H84.9219V107.953ZM92.5109 107.555C92.5109 108.777 93.3195 110.039 94.3078 110.523L93.9328 111.016C93.1672 110.617 92.5266 109.793 92.218 108.828C91.9094 109.852 91.2531 110.73 90.4719 111.148L90.0813 110.656C91.0969 110.156 91.9016 108.824 91.9094 107.555V106.289H92.5109V107.555ZM94.9484 112.633V105.688H95.5578V108.508H96.7219V109.039H95.5578V112.633H94.9484ZM13.6328 119.914V120.398H7.27344V119.914H13.6328ZM8.03906 121.414V120.953H12.8359V122.43H8.66406V123.094H13.0625V123.539H8.04688V122.008H12.2266V121.414H8.03906ZM8.07812 117.344V116.898H12.8125V118.336H8.71094V118.945H12.9375V119.391H8.10156V117.914H12.1953V117.344H8.07812ZM19.2719 117.891V118.391H15.7875V117.891H17.2328V116.898H17.8422V117.891H19.2719ZM16.0375 120.438C16.0375 119.516 16.6664 118.863 17.5297 118.859C18.4047 118.863 19.0297 119.516 19.0375 120.438C19.0297 121.371 18.4047 122.027 17.5297 122.031C16.6664 122.027 16.0375 121.371 16.0375 120.438ZM16.5844 120.438C16.5844 121.055 16.9789 121.496 17.5297 121.492C18.0844 121.496 18.4906 121.055 18.4906 120.438C18.4906 119.828 18.0844 119.383 17.5297 119.375C16.9789 119.383 16.5844 119.828 16.5844 120.438ZM19.6313 123.289V116.859H20.2094V119.617H21.1313V116.688H21.7172V123.633H21.1313V120.125H20.2094V123.289H19.6313ZM28.1266 119.945V120.445H25.9781V122.242H28.8766V122.758H22.5172V122.242H25.3766V120.445H23.3297V117.258H28.0562V117.758H23.9469V119.945H28.1266ZM34.5 118.758V119.578H37.3906V120.086H31.0312V119.578H33.8984V118.758H34.5ZM31.375 118.719C32.5742 118.621 33.7422 118.102 33.8008 117.391H31.6172V116.906H36.8047V117.391H34.6055C34.6641 118.102 35.8203 118.621 37.0312 118.719L36.8281 119.18C35.6719 119.07 34.582 118.617 34.207 117.887C33.832 118.617 32.7383 119.07 31.5781 119.18L31.375 118.719ZM31.6328 121.492V121.008H33.8984V120.352H34.5078V121.008H36.7891V121.492H31.6328ZM32.1094 122.75C32.1055 122.148 32.8516 121.84 34.2031 121.836C35.543 121.84 36.3047 122.148 36.3047 122.75C36.3047 123.359 35.543 123.676 34.2031 123.672C32.8516 123.676 32.1055 123.359 32.1094 122.75ZM32.7266 122.75C32.7266 123.07 33.2656 123.25 34.2031 123.242C35.1445 123.25 35.6758 123.07 35.6797 122.75C35.6758 122.43 35.1445 122.27 34.2031 122.266C33.2656 122.27 32.7266 122.43 32.7266 122.75ZM39.1672 120.859V121.672H42.6359V120.859H43.2531V123.539H38.5578V120.859H39.1672ZM37.7531 120.367V119.859H44.0812V120.367H37.7531ZM38.1125 118.875C39.3508 118.707 40.6047 117.977 40.6047 117.094V116.766H41.2375V117.094C41.2336 117.949 42.4992 118.719 43.7219 118.875L43.4953 119.367C42.4211 119.207 41.3625 118.66 40.9211 117.883C40.4797 118.664 39.4172 119.207 38.3469 119.367L38.1125 118.875ZM39.1672 123.047H42.6359V122.156H39.1672V123.047ZM50.1937 116.688V123.633H49.5844V116.688H50.1937ZM44.9203 121.844V117.375H45.5219V121.312C46.5844 121.305 47.6781 121.223 48.8422 120.977L48.9281 121.5C47.6937 121.758 46.5961 121.844 45.4828 121.844H44.9203ZM56.5563 116.688V119.438H57.7203V119.953H56.5563V123.648H55.9469V116.688H56.5563ZM51.4859 121.906V117.367H54.7281V117.875H52.0953V121.391C53.3531 121.387 54.2398 121.332 55.275 121.141L55.3531 121.672C54.2633 121.867 53.3531 121.906 52.0328 121.906H51.4859ZM58.6297 123.047C58.3563 123.043 58.1219 122.816 58.1297 122.539C58.1219 122.266 58.3563 122.039 58.6297 122.039C58.907 122.039 59.1336 122.266 59.1297 122.539C59.1336 122.816 58.907 123.043 58.6297 123.047ZM67.4797 117.289V117.781H61.8469V117.289H64.3781V116.586H64.9875V117.289H67.4797ZM61.5187 121.133V120.633H64.3781V120.059C63.1281 120.02 62.425 119.676 62.425 119.062C62.425 118.41 63.2414 118.055 64.6828 118.055C66.1164 118.055 66.9328 118.41 66.9328 119.062C66.9328 119.676 66.2297 120.02 64.9875 120.059V120.633H67.8469V121.133H61.5187ZM62.1984 122.18V121.695H67.0031V123.633H66.3937V122.18H62.1984ZM63.0578 119.062C63.05 119.43 63.6398 119.629 64.6828 119.633C65.718 119.629 66.3039 119.43 66.3078 119.062C66.3039 118.707 65.718 118.496 64.6828 118.5C63.6398 118.496 63.05 118.707 63.0578 119.062ZM73.6578 117.375V121.891H70.4469V117.375H73.6578ZM71.0484 121.391H73.0563V117.867H71.0484V121.391ZM75.15 123.648V116.688H75.7672V123.648H75.15ZM82.4891 116.695V121.789H81.8797V116.695H82.4891ZM76.825 120.305C77.8758 119.895 78.5906 118.879 78.5906 117.781V117.086H79.2156V117.781C79.2078 118.84 79.9305 119.789 80.9656 120.164L80.6453 120.656C79.8406 120.348 79.2156 119.723 78.907 118.922C78.6062 119.773 77.9734 120.457 77.1609 120.781L76.825 120.305ZM78.0047 123.484V121.32H78.6141V122.969H82.7078V123.484H78.0047ZM89.1953 116.688V123.648H88.5781V116.688H89.1953ZM83.7266 119.648C83.7305 118.172 84.4648 117.23 85.5 117.227C86.5312 117.23 87.2773 118.172 87.2734 119.648C87.2773 121.129 86.5312 122.066 85.5 122.062C84.4648 122.066 83.7305 121.129 83.7266 119.648ZM84.3203 119.648C84.3203 120.777 84.8047 121.52 85.5 121.516C86.1992 121.52 86.6797 120.777 86.6797 119.648C86.6797 118.52 86.1992 117.777 85.5 117.773C84.8047 117.777 84.3203 118.52 84.3203 119.648ZM95.5578 116.688V119.453H96.7219V119.969H95.5578V123.648H94.9484V116.688H95.5578ZM90.4563 117.844V117.336H93.6125V119.82H91.0813V121.445C92.3703 121.449 93.2727 121.398 94.3234 121.203L94.3859 121.711C93.2922 121.91 92.3664 121.961 91.0266 121.969H90.4719V119.312H93.0031V117.844H90.4563ZM12.6562 127.688V130.555H13.8203V131.062H12.6562V134.633H12.0469V127.688H12.6562ZM7.24219 129.312V128.805H9.03125V127.773H9.64062V128.805H11.375V129.312H7.24219ZM7.64062 131.484C7.63672 130.547 8.35547 129.891 9.34375 129.891C10.3242 129.891 11.0391 130.547 11.0469 131.484C11.0391 132.426 10.3242 133.078 9.34375 133.078C8.35547 133.078 7.63672 132.426 7.64062 131.484ZM8.22656 131.484C8.22266 132.117 8.69531 132.562 9.34375 132.555C9.98438 132.562 10.4531 132.117 10.4609 131.484C10.4531 130.855 9.98438 130.402 9.34375 130.406C8.69531 130.402 8.22266 130.855 8.22656 131.484ZM19.7219 127.688V131.289H19.1203V127.688H19.7219ZM14.0422 130.734C15.0891 130.371 15.8313 129.441 15.8313 128.422V127.891H16.4563V128.422C16.4484 129.402 17.1984 130.27 18.2297 130.609L17.925 131.086C17.1086 130.809 16.4641 130.227 16.1516 129.477C15.8391 130.285 15.1867 130.922 14.3625 131.219L14.0422 130.734ZM15.2141 132.133V131.641H19.7297V133.305H15.8313V134.055H19.9797V134.555H15.2297V132.828H19.1203V132.133H15.2141ZM23.1938 129.82C23.1977 131 24.0531 132.199 25.0766 132.641L24.7328 133.125C23.9203 132.758 23.2211 131.957 22.8969 130.996C22.5727 132.016 21.8695 132.898 21.0766 133.297L20.7094 132.812C21.7055 132.336 22.5727 131.023 22.5766 129.82V128.914H20.9359V128.406H24.85V128.914H23.1938V129.82ZM25.8188 134.633V127.688H26.4359V134.633H25.8188ZM35.5906 133.227V133.742H29.2313V133.227H32.0906V131.531H29.9813V128.273H34.8016V131.531H32.6922V133.227H35.5906ZM30.5828 131.039H34.2078V128.766H30.5828V131.039ZM42.3047 133.242V133.758H35.9453V133.242H42.3047ZM36.7266 128.727V128.219H41.5V130.32H37.3516V131.461H41.6641V131.953H36.7422V129.82H40.8984V128.727H36.7266ZM45.1437 129.82C45.1477 131 46.0031 132.199 47.0266 132.641L46.6828 133.125C45.8703 132.758 45.1711 131.957 44.8469 130.996C44.5227 132.016 43.8195 132.898 43.0266 133.297L42.6594 132.812C43.6555 132.336 44.5227 131.023 44.5266 129.82V128.914H42.8859V128.406H46.8V128.914H45.1437V129.82ZM47.7687 134.633V127.688H48.3859V134.633H47.7687ZM52.8812 128.32V131.516H49.6703V128.32H52.8812ZM50.2719 131.023H52.2875V128.82H50.2719V131.023ZM50.4594 134.484V132.297H51.0609V133.969H55.1234V134.484H50.4594ZM54.1937 132.781V127.688H54.8031V129.805H55.85V130.32H54.8031V132.781H54.1937ZM60.2234 129.555C60.2234 130.777 61.032 132.039 62.0203 132.523L61.6453 133.016C60.8797 132.617 60.2391 131.793 59.9305 130.828C59.6219 131.852 58.9656 132.73 58.1844 133.148L57.7938 132.656C58.8094 132.156 59.6141 130.824 59.6219 129.555V128.289H60.2234V129.555ZM62.6609 134.633V127.688H63.2703V130.508H64.4344V131.039H63.2703V134.633H62.6609ZM70.3359 127.688V131.289H69.7344V127.688H70.3359ZM64.6562 130.734C65.7031 130.371 66.4453 129.441 66.4453 128.422V127.891H67.0703V128.422C67.0625 129.402 67.8125 130.27 68.8438 130.609L68.5391 131.086C67.7227 130.809 67.0781 130.227 66.7656 129.477C66.4531 130.285 65.8008 130.922 64.9766 131.219L64.6562 130.734ZM65.8281 132.133V131.641H70.3438V133.305H66.4453V134.055H70.5938V134.555H65.8438V132.828H69.7344V132.133H65.8281ZM72.0578 134.047C71.7844 134.043 71.55 133.816 71.5578 133.539C71.55 133.266 71.7844 133.039 72.0578 133.039C72.3352 133.039 72.5617 133.266 72.5578 133.539C72.5617 133.816 72.3352 134.043 72.0578 134.047ZM73.8891 134.047C73.6156 134.043 73.3812 133.816 73.3891 133.539C73.3812 133.266 73.6156 133.039 73.8891 133.039C74.1664 133.039 74.393 133.266 74.3891 133.539C74.393 133.816 74.1664 134.043 73.8891 134.047ZM75.7203 134.047C75.4469 134.043 75.2125 133.816 75.2203 133.539C75.2125 133.266 75.4469 133.039 75.7203 133.039C75.9977 133.039 76.2242 133.266 76.2203 133.539C76.2242 133.816 75.9977 134.043 75.7203 134.047ZM82.1484 128.352V128.867H79.5781V132.406C80.832 132.41 81.6562 132.367 82.6172 132.18L82.6953 132.688C81.6719 132.883 80.8242 132.93 79.4922 132.93H78.9609V128.352H82.1484ZM81.7344 130.727V130.219H83.7578V127.688H84.375V134.648H83.7578V130.727H81.7344ZM91.6828 133.234V133.742H85.3234V133.234H88.1828V131.734H86.0734V128.18H86.6906V129.438H90.3V128.18H90.9016V131.734H88.7844V133.234H91.6828ZM86.6906 131.234H90.3V129.938H86.6906V131.234ZM97.7797 127.688V134.633H97.1625V127.688H97.7797ZM92.1234 132.828C94.0023 131.938 94.9633 130.605 95.1 128.945H92.4437V128.445H95.725C95.7172 130.441 94.7875 132.211 92.4594 133.328L92.1234 132.828Z" fill="#1A1C20"/>
</svg>
