<svg width="105" height="160" viewBox="0 0 250 437" fill="none" xmlns="http://www.w3.org/2000/svg">
<mask id="path-1-inside-1_1545_62" fill="white">
<path d="M0 24C0 10.7452 10.7452 0 24 0H226C239.255 0 250 10.7452 250 24V72H0V24Z"/>
</mask>
<path d="M0 24C0 10.7452 10.7452 0 24 0H226C239.255 0 250 10.7452 250 24V72H0V24Z" fill="#DECAF6"/>
<path d="M-1.5 24C-1.5 9.91674 9.91674 -1.5 24 -1.5H226C240.083 -1.5 251.5 9.91674 251.5 24H248.5C248.5 11.5736 238.426 1.5 226 1.5H24C11.5736 1.5 1.5 11.5736 1.5 24H-1.5ZM250 72H0H250ZM-1.5 72V24C-1.5 9.91674 9.91674 -1.5 24 -1.5V1.5C11.5736 1.5 1.5 11.5736 1.5 24V72H-1.5ZM226 -1.5C240.083 -1.5 251.5 9.91674 251.5 24V72H248.5V24C248.5 11.5736 238.426 1.5 226 1.5V-1.5Z" fill="#EDE1FA" mask="url(#path-1-inside-1_1545_62)"/>
<path d="M21.5156 32.625V30.6875H30.7812V32.625H27.3125V42H24.9844V32.625H21.5156ZM34.7656 42.1719C32.2031 42.1641 30.6016 40.4062 30.6094 37.7812C30.6016 35.1641 32.2031 33.4062 34.7656 33.4062C37.3359 33.4062 38.9297 35.1641 38.9375 37.7812C38.9297 40.4062 37.3359 42.1641 34.7656 42.1719ZM32.9531 37.7812C32.9531 39.2656 33.5703 40.3672 34.7812 40.375C35.9609 40.3672 36.5859 39.2656 36.5781 37.7812C36.5859 36.2891 35.9609 35.1719 34.7812 35.1719C33.5703 35.1719 32.9531 36.2891 32.9531 37.7812ZM41.75 42.1406C41.0156 42.1406 40.4219 41.5547 40.4375 40.8281C40.4219 40.1094 41.0156 39.5234 41.75 39.5312C42.4453 39.5234 43.0469 40.1094 43.0469 40.8281C43.0469 41.5547 42.4453 42.1406 41.75 42.1406ZM49.5312 38.0312C48.4844 36.9844 47.9219 35.6797 47.9062 34.25C47.9219 32.1562 49.4844 30.4844 51.5156 30.4844C52.6641 30.4844 53.6641 31.0078 54.3125 31.8438C54.9844 31.0078 55.9766 30.4844 57.1406 30.4844C59.1562 30.4844 60.7266 32.1562 60.7344 34.25C60.7266 35.6797 60.1641 36.9844 59.1094 38.0312L54.3125 42.8281L49.5312 38.0312Z" fill="#412C56"/>
<mask id="path-4-inside-2_1545_62" fill="white">
<path d="M0 72H250V365H0V72Z"/>
</mask>
<path d="M0 72H250V365H0V72Z" fill="#DECAF6"/>
<path d="M248.5 72V365H251.5V72H248.5ZM1.5 365V72H-1.5V365H1.5Z" fill="#EDE1FA" mask="url(#path-4-inside-2_1545_62)"/>
<mask id="path-6-inside-3_1545_62" fill="white">
<path d="M0 365H250V413C250 426.255 239.255 437 226 437H24C10.7452 437 0 426.255 0 413V365Z"/>
</mask>
<path d="M0 365H250V413C250 426.255 239.255 437 226 437H24C10.7452 437 0 426.255 0 413V365Z" fill="#DECAF6"/>
<path d="M0 365H250H0ZM251.5 413C251.5 427.083 240.083 438.5 226 438.5H24C9.91674 438.5 -1.5 427.083 -1.5 413H1.5C1.5 425.426 11.5736 435.5 24 435.5H226C238.426 435.5 248.5 425.426 248.5 413H251.5ZM24 438.5C9.91674 438.5 -1.5 427.083 -1.5 413V365H1.5V413C1.5 425.426 11.5736 435.5 24 435.5V438.5ZM251.5 365V413C251.5 427.083 240.083 438.5 226 438.5V435.5C238.426 435.5 248.5 425.426 248.5 413V365H251.5Z" fill="#EDE1FA" mask="url(#path-6-inside-3_1545_62)"/>
<path d="M21.9531 407V395.688H29.4062V397.625H24.2969V400.375H28.9219V402.312H24.2969V407H21.9531ZM30.7656 407V398.516H33V399.984H33.0938C33.3984 398.945 34.1875 398.391 35.1406 398.391C35.375 398.391 35.6719 398.422 35.875 398.469V400.531C35.6562 400.461 35.2109 400.406 34.8906 400.406C33.8438 400.406 33.0703 401.133 33.0781 402.172V407H30.7656ZM40.5469 407.172C37.9844 407.164 36.3828 405.406 36.3906 402.781C36.3828 400.164 37.9844 398.406 40.5469 398.406C43.1172 398.406 44.7109 400.164 44.7188 402.781C44.7109 405.406 43.1172 407.164 40.5469 407.172ZM38.7344 402.781C38.7344 404.266 39.3516 405.367 40.5625 405.375C41.7422 405.367 42.3672 404.266 42.3594 402.781C42.3672 401.289 41.7422 400.172 40.5625 400.172C39.3516 400.172 38.7344 401.289 38.7344 402.781ZM46.1719 407V398.516H48.375V400H48.4688C48.8281 399.008 49.6875 398.406 50.8281 398.406C51.9922 398.406 52.8594 399.023 53.1406 400H53.2188C53.5703 399.039 54.5391 398.406 55.7812 398.406C57.3516 398.406 58.4531 399.445 58.4531 401.297V407H56.1406V401.75C56.1484 400.781 55.5703 400.312 54.8125 400.312C53.9453 400.312 53.4297 400.914 53.4375 401.812V407H51.1875V401.688C51.1953 400.852 50.6641 400.312 49.875 400.312C49.0859 400.312 48.4766 400.945 48.4844 401.906V407H46.1719ZM61.5938 407.141C60.8594 407.141 60.2656 406.555 60.2812 405.828C60.2656 405.109 60.8594 404.523 61.5938 404.531C62.2891 404.523 62.8906 405.109 62.8906 405.828C62.8906 406.555 62.2891 407.141 61.5938 407.141ZM74.9844 395.328C74.9766 397.008 76.6953 398.859 79.9531 399.266L79.1719 400.875C76.6875 400.516 74.8672 399.367 73.9375 397.828C73 399.359 71.1875 400.516 68.7344 400.875L67.9375 399.266C71.1719 398.859 72.8828 397.008 72.8906 395.328V394.641H74.9844V395.328ZM67.4375 403.578V401.953H80.4062V403.578H74.875V408.438H72.9062V403.578H67.4375ZM88.9375 395.359V402.219H81.9844V395.359H88.9375ZM83.6406 408.125V403.406H85.6562V406.516H93.5469V408.125H83.6406ZM83.9531 400.641H86.9531V396.938H83.9531V400.641ZM91.1719 404.344V394.234H93.1719V404.344H91.1719Z" fill="#412C56"/>
<rect x="30" y="77" width="286.975" height="0.999988" transform="rotate(90 30 77)" fill="#EDE1FA"/>
<rect x="50" y="77" width="286.975" height="0.999988" transform="rotate(90 50 77)" fill="#EDE1FA"/>
<rect x="70" y="77" width="286.975" height="0.999988" transform="rotate(90 70 77)" fill="#EDE1FA"/>
<rect x="90" y="77" width="286.975" height="0.999988" transform="rotate(90 90 77)" fill="#EDE1FA"/>
<rect x="110" y="77" width="286.975" height="0.999988" transform="rotate(90 110 77)" fill="#EDE1FA"/>
<rect x="130" y="77" width="286.975" height="0.999988" transform="rotate(90 130 77)" fill="#EDE1FA"/>
<rect x="150" y="77" width="286.975" height="0.999988" transform="rotate(90 150 77)" fill="#EDE1FA"/>
<rect x="170" y="77" width="286.975" height="0.999988" transform="rotate(90 170 77)" fill="#EDE1FA"/>
<rect x="190" y="77" width="286.975" height="0.999988" transform="rotate(90 190 77)" fill="#EDE1FA"/>
<rect x="210" y="77" width="286.975" height="0.999988" transform="rotate(90 210 77)" fill="#EDE1FA"/>
<rect x="230" y="77" width="286.975" height="0.999988" transform="rotate(90 230 77)" fill="#EDE1FA"/>
<rect x="250" y="77" width="286.975" height="0.999988" transform="rotate(90 250 77)" fill="#EDE1FA"/>
<g opacity="0.5">
<rect y="77" width="250" height="1.02491" fill="#EDE1FA"/>
<rect y="97.498" width="250" height="1.02491" fill="#EDE1FA"/>
<rect y="117.996" width="250" height="1.02491" fill="#EDE1FA"/>
<rect y="138.494" width="250" height="1.02491" fill="#EDE1FA"/>
<rect y="158.992" width="250" height="1.02491" fill="#EDE1FA"/>
<rect y="179.491" width="250" height="1.02491" fill="#EDE1FA"/>
<rect y="199.99" width="250" height="1.02491" fill="#EDE1FA"/>
<rect y="220.488" width="250" height="1.02491" fill="#EDE1FA"/>
<rect y="240.986" width="250" height="1.02491" fill="#EDE1FA"/>
<rect y="261.484" width="250" height="1.02491" fill="#EDE1FA"/>
<rect y="281.982" width="250" height="1.02491" fill="#EDE1FA"/>
<rect y="302.48" width="250" height="1.02491" fill="#EDE1FA"/>
<rect y="322.978" width="250" height="1.02491" fill="#EDE1FA"/>
<rect y="343.476" width="250" height="1.02491" fill="#EDE1FA"/>
<rect y="363.976" width="250" height="1.02491" fill="#EDE1FA"/>
</g>
<path d="M39.05 105.04C39.65 105.04 40.19 105.187 40.67 105.48C41.1633 105.773 41.55 106.167 41.83 106.66C42.1233 107.14 42.27 107.68 42.27 108.28C42.27 108.867 42.1233 109.407 41.83 109.9C41.55 110.393 41.1633 110.787 40.67 111.08C40.19 111.373 39.6433 111.52 39.03 111.52C38.4433 111.52 37.9033 111.373 37.41 111.08C36.9167 110.787 36.5233 110.393 36.23 109.9C35.95 109.407 35.81 108.867 35.81 108.28C35.81 107.68 35.95 107.14 36.23 106.66C36.5233 106.167 36.9167 105.773 37.41 105.48C37.9033 105.187 38.45 105.04 39.05 105.04ZM39.05 110.08C39.5433 110.08 39.9633 109.907 40.31 109.56C40.6567 109.2 40.83 108.773 40.83 108.28C40.83 107.947 40.75 107.647 40.59 107.38C40.43 107.1 40.21 106.88 39.93 106.72C39.6633 106.56 39.37 106.48 39.05 106.48C38.7167 106.48 38.4167 106.56 38.15 106.72C37.8833 106.88 37.6633 107.1 37.49 107.38C37.33 107.647 37.25 107.947 37.25 108.28C37.25 108.613 37.33 108.92 37.49 109.2C37.6633 109.467 37.8833 109.68 38.15 109.84C38.4167 110 38.7167 110.08 39.05 110.08ZM46.23 95.5C46.23 95.8333 46.3167 96.1267 46.49 96.38C46.6767 96.6333 46.9033 96.76 47.17 96.76C47.4233 96.76 47.6433 96.64 47.83 96.4C48.0167 96.1467 48.11 95.8467 48.11 95.5C48.11 95.1533 48.0167 94.8533 47.83 94.6C47.6433 94.3467 47.4233 94.22 47.17 94.22C46.9033 94.22 46.6767 94.3467 46.49 94.6C46.3167 94.8533 46.23 95.1533 46.23 95.5ZM45.19 95.5C45.19 95.02 45.2767 94.5867 45.45 94.2C45.6233 93.8 45.8633 93.4867 46.17 93.26C46.4767 93.02 46.81 92.9 47.17 92.9C47.5433 92.9 47.8767 93.02 48.17 93.26C48.4767 93.4867 48.7167 93.8 48.89 94.2C49.0767 94.5867 49.17 95.02 49.17 95.5C49.17 95.98 49.0767 96.42 48.89 96.82C48.7167 97.2067 48.4767 97.52 48.17 97.76C47.8767 97.9867 47.5433 98.1 47.17 98.1C46.81 98.1 46.4767 97.9867 46.17 97.76C45.8633 97.52 45.6233 97.2 45.45 96.8C45.2767 96.4 45.19 95.9667 45.19 95.5ZM55.73 95.5C55.73 95.8333 55.8167 96.1267 55.99 96.38C56.1767 96.6333 56.4033 96.76 56.67 96.76C56.9233 96.76 57.1433 96.64 57.33 96.4C57.5167 96.1467 57.61 95.8467 57.61 95.5C57.61 95.1533 57.5167 94.8533 57.33 94.6C57.1433 94.3467 56.9233 94.22 56.67 94.22C56.4033 94.22 56.1767 94.3467 55.99 94.6C55.8167 94.8533 55.73 95.1533 55.73 95.5ZM54.69 95.5C54.69 95.02 54.7767 94.5867 54.95 94.2C55.1233 93.8 55.3633 93.4867 55.67 93.26C55.9767 93.02 56.31 92.9 56.67 92.9C57.0433 92.9 57.3767 93.02 57.67 93.26C57.9767 93.4867 58.2167 93.8 58.39 94.2C58.5767 94.5867 58.67 95.02 58.67 95.5C58.67 95.98 58.5767 96.42 58.39 96.82C58.2167 97.2067 57.9767 97.52 57.67 97.76C57.3767 97.9867 57.0433 98.1 56.67 98.1C56.31 98.1 55.9767 97.9867 55.67 97.76C55.3633 97.52 55.1233 97.2 54.95 96.8C54.7767 96.4 54.69 95.9667 54.69 95.5ZM68.75 100.46C69.2833 100.46 69.7367 100.653 70.11 101.04C70.4967 101.413 70.69 101.867 70.69 102.4C70.69 102.933 70.4967 103.393 70.11 103.78C69.7367 104.153 69.2833 104.34 68.75 104.34C68.2033 104.34 67.7367 104.153 67.35 103.78C66.9767 103.393 66.79 102.933 66.79 102.4C66.79 101.853 66.9767 101.393 67.35 101.02C67.7367 100.647 68.2033 100.46 68.75 100.46ZM77.05 105.04C77.65 105.04 78.19 105.187 78.67 105.48C79.1633 105.773 79.55 106.167 79.83 106.66C80.1233 107.14 80.27 107.68 80.27 108.28C80.27 108.867 80.1233 109.407 79.83 109.9C79.55 110.393 79.1633 110.787 78.67 111.08C78.19 111.373 77.6433 111.52 77.03 111.52C76.4433 111.52 75.9033 111.373 75.41 111.08C74.9167 110.787 74.5233 110.393 74.23 109.9C73.95 109.407 73.81 108.867 73.81 108.28C73.81 107.68 73.95 107.14 74.23 106.66C74.5233 106.167 74.9167 105.773 75.41 105.48C75.9033 105.187 76.45 105.04 77.05 105.04ZM77.05 110.08C77.5433 110.08 77.9633 109.907 78.31 109.56C78.6567 109.2 78.83 108.773 78.83 108.28C78.83 107.947 78.75 107.647 78.59 107.38C78.43 107.1 78.21 106.88 77.93 106.72C77.6633 106.56 77.37 106.48 77.05 106.48C76.7167 106.48 76.4167 106.56 76.15 106.72C75.8833 106.88 75.6633 107.1 75.49 107.38C75.33 107.647 75.25 107.947 75.25 108.28C75.25 108.613 75.33 108.92 75.49 109.2C75.6633 109.467 75.8833 109.68 76.15 109.84C76.4167 110 76.7167 110.08 77.05 110.08ZM87.75 100.46C88.2833 100.46 88.7367 100.653 89.11 101.04C89.4967 101.413 89.69 101.867 89.69 102.4C89.69 102.933 89.4967 103.393 89.11 103.78C88.7367 104.153 88.2833 104.34 87.75 104.34C87.2033 104.34 86.7367 104.153 86.35 103.78C85.9767 103.393 85.79 102.933 85.79 102.4C85.79 101.853 85.9767 101.393 86.35 101.02C86.7367 100.647 87.2033 100.46 87.75 100.46ZM93.73 95.5C93.73 95.8333 93.8167 96.1267 93.99 96.38C94.1767 96.6333 94.4033 96.76 94.67 96.76C94.9233 96.76 95.1433 96.64 95.33 96.4C95.5167 96.1467 95.61 95.8467 95.61 95.5C95.61 95.1533 95.5167 94.8533 95.33 94.6C95.1433 94.3467 94.9233 94.22 94.67 94.22C94.4033 94.22 94.1767 94.3467 93.99 94.6C93.8167 94.8533 93.73 95.1533 93.73 95.5ZM92.69 95.5C92.69 95.02 92.7767 94.5867 92.95 94.2C93.1233 93.8 93.3633 93.4867 93.67 93.26C93.9767 93.02 94.31 92.9 94.67 92.9C95.0433 92.9 95.3767 93.02 95.67 93.26C95.9767 93.4867 96.2167 93.8 96.39 94.2C96.5767 94.5867 96.67 95.02 96.67 95.5C96.67 95.98 96.5767 96.42 96.39 96.82C96.2167 97.2067 95.9767 97.52 95.67 97.76C95.3767 97.9867 95.0433 98.1 94.67 98.1C94.31 98.1 93.9767 97.9867 93.67 97.76C93.3633 97.52 93.1233 97.2 92.95 96.8C92.7767 96.4 92.69 95.9667 92.69 95.5ZM103.23 95.5C103.23 95.8333 103.317 96.1267 103.49 96.38C103.677 96.6333 103.903 96.76 104.17 96.76C104.423 96.76 104.643 96.64 104.83 96.4C105.017 96.1467 105.11 95.8467 105.11 95.5C105.11 95.1533 105.017 94.8533 104.83 94.6C104.643 94.3467 104.423 94.22 104.17 94.22C103.903 94.22 103.677 94.3467 103.49 94.6C103.317 94.8533 103.23 95.1533 103.23 95.5ZM102.19 95.5C102.19 95.02 102.277 94.5867 102.45 94.2C102.623 93.8 102.863 93.4867 103.17 93.26C103.477 93.02 103.81 92.9 104.17 92.9C104.543 92.9 104.877 93.02 105.17 93.26C105.477 93.4867 105.717 93.8 105.89 94.2C106.077 94.5867 106.17 95.02 106.17 95.5C106.17 95.98 106.077 96.42 105.89 96.82C105.717 97.2067 105.477 97.52 105.17 97.76C104.877 97.9867 104.543 98.1 104.17 98.1C103.81 98.1 103.477 97.9867 103.17 97.76C102.863 97.52 102.623 97.2 102.45 96.8C102.277 96.4 102.19 95.9667 102.19 95.5ZM115.05 105.04C115.65 105.04 116.19 105.187 116.67 105.48C117.163 105.773 117.55 106.167 117.83 106.66C118.123 107.14 118.27 107.68 118.27 108.28C118.27 108.867 118.123 109.407 117.83 109.9C117.55 110.393 117.163 110.787 116.67 111.08C116.19 111.373 115.643 111.52 115.03 111.52C114.443 111.52 113.903 111.373 113.41 111.08C112.917 110.787 112.523 110.393 112.23 109.9C111.95 109.407 111.81 108.867 111.81 108.28C111.81 107.68 111.95 107.14 112.23 106.66C112.523 106.167 112.917 105.773 113.41 105.48C113.903 105.187 114.45 105.04 115.05 105.04ZM115.05 110.08C115.543 110.08 115.963 109.907 116.31 109.56C116.657 109.2 116.83 108.773 116.83 108.28C116.83 107.947 116.75 107.647 116.59 107.38C116.43 107.1 116.21 106.88 115.93 106.72C115.663 106.56 115.37 106.48 115.05 106.48C114.717 106.48 114.417 106.56 114.15 106.72C113.883 106.88 113.663 107.1 113.49 107.38C113.33 107.647 113.25 107.947 113.25 108.28C113.25 108.613 113.33 108.92 113.49 109.2C113.663 109.467 113.883 109.68 114.15 109.84C114.417 110 114.717 110.08 115.05 110.08ZM36.73 123.5C36.73 123.833 36.8167 124.127 36.99 124.38C37.1767 124.633 37.4033 124.76 37.67 124.76C37.9233 124.76 38.1433 124.64 38.33 124.4C38.5167 124.147 38.61 123.847 38.61 123.5C38.61 123.153 38.5167 122.853 38.33 122.6C38.1433 122.347 37.9233 122.22 37.67 122.22C37.4033 122.22 37.1767 122.347 36.99 122.6C36.8167 122.853 36.73 123.153 36.73 123.5ZM35.69 123.5C35.69 123.02 35.7767 122.587 35.95 122.2C36.1233 121.8 36.3633 121.487 36.67 121.26C36.9767 121.02 37.31 120.9 37.67 120.9C38.0433 120.9 38.3767 121.02 38.67 121.26C38.9767 121.487 39.2167 121.8 39.39 122.2C39.5767 122.587 39.67 123.02 39.67 123.5C39.67 123.98 39.5767 124.42 39.39 124.82C39.2167 125.207 38.9767 125.52 38.67 125.76C38.3767 125.987 38.0433 126.1 37.67 126.1C37.31 126.1 36.9767 125.987 36.67 125.76C36.3633 125.52 36.1233 125.2 35.95 124.8C35.7767 124.4 35.69 123.967 35.69 123.5ZM49.1445 139.426C47.0156 139.426 45.6191 138.02 45.6289 135.891C45.6191 133.791 47.0156 132.375 49.1445 132.375C51.2539 132.375 52.6699 133.791 52.6602 135.891C52.6699 138.02 51.2539 139.426 49.1445 139.426ZM47.6797 135.891C47.6895 136.77 48.2754 137.355 49.1445 137.355C50.0039 137.355 50.5898 136.77 50.5898 135.891C50.5898 135.041 50.0039 134.455 49.1445 134.465C48.2754 134.455 47.6895 135.041 47.6797 135.891ZM82.9297 121.945V139.875H80.0781V121.945H82.9297ZM67.3242 130.051C69.4531 130.061 71.8555 130.041 74.2773 129.934C74.6484 128.039 74.7461 126.555 74.7754 125.383H68.7695V123.156H77.5586V124.25C77.5684 125.52 77.5684 127.316 77.1484 129.768C77.8223 129.709 78.4863 129.65 79.1406 129.582L79.3555 131.672C77.7539 131.887 76.1328 132.043 74.5312 132.141V138.918H71.7188V132.268C70.3027 132.316 68.9355 132.336 67.6562 132.336L67.3242 130.051ZM105.808 133.04C106.408 133.04 106.948 133.187 107.428 133.48C107.921 133.773 108.308 134.167 108.588 134.66C108.881 135.14 109.028 135.68 109.028 136.28C109.028 136.867 108.881 137.407 108.588 137.9C108.308 138.393 107.921 138.787 107.428 139.08C106.948 139.373 106.401 139.52 105.788 139.52C105.201 139.52 104.661 139.373 104.168 139.08C103.674 138.787 103.281 138.393 102.988 137.9C102.708 137.407 102.568 136.867 102.568 136.28C102.568 135.68 102.708 135.14 102.988 134.66C103.281 134.167 103.674 133.773 104.168 133.48C104.661 133.187 105.208 133.04 105.808 133.04ZM105.808 138.08C106.301 138.08 106.721 137.907 107.068 137.56C107.414 137.2 107.588 136.773 107.588 136.28C107.588 135.947 107.508 135.647 107.348 135.38C107.188 135.1 106.968 134.88 106.688 134.72C106.421 134.56 106.128 134.48 105.808 134.48C105.474 134.48 105.174 134.56 104.908 134.72C104.641 134.88 104.421 135.1 104.248 135.38C104.088 135.647 104.008 135.947 104.008 136.28C104.008 136.613 104.088 136.92 104.248 137.2C104.421 137.467 104.641 137.68 104.908 137.84C105.174 138 105.474 138.08 105.808 138.08ZM112.988 123.5C112.988 123.833 113.074 124.127 113.248 124.38C113.434 124.633 113.661 124.76 113.928 124.76C114.181 124.76 114.401 124.64 114.588 124.4C114.774 124.147 114.868 123.847 114.868 123.5C114.868 123.153 114.774 122.853 114.588 122.6C114.401 122.347 114.181 122.22 113.928 122.22C113.661 122.22 113.434 122.347 113.248 122.6C113.074 122.853 112.988 123.153 112.988 123.5ZM111.948 123.5C111.948 123.02 112.034 122.587 112.208 122.2C112.381 121.8 112.621 121.487 112.928 121.26C113.234 121.02 113.568 120.9 113.928 120.9C114.301 120.9 114.634 121.02 114.928 121.26C115.234 121.487 115.474 121.8 115.648 122.2C115.834 122.587 115.928 123.02 115.928 123.5C115.928 123.98 115.834 124.42 115.648 124.82C115.474 125.207 115.234 125.52 114.928 125.76C114.634 125.987 114.301 126.1 113.928 126.1C113.568 126.1 113.234 125.987 112.928 125.76C112.621 125.52 112.381 125.2 112.208 124.8C112.034 124.4 111.948 123.967 111.948 123.5ZM54.98 151.5C54.98 151.833 55.0667 152.127 55.24 152.38C55.4267 152.633 55.6533 152.76 55.92 152.76C56.1733 152.76 56.3933 152.64 56.58 152.4C56.7667 152.147 56.86 151.847 56.86 151.5C56.86 151.153 56.7667 150.853 56.58 150.6C56.3933 150.347 56.1733 150.22 55.92 150.22C55.6533 150.22 55.4267 150.347 55.24 150.6C55.0667 150.853 54.98 151.153 54.98 151.5ZM53.94 151.5C53.94 151.02 54.0267 150.587 54.2 150.2C54.3733 149.8 54.6133 149.487 54.92 149.26C55.2267 149.02 55.56 148.9 55.92 148.9C56.2933 148.9 56.6267 149.02 56.92 149.26C57.2267 149.487 57.4667 149.8 57.64 150.2C57.8267 150.587 57.92 151.02 57.92 151.5C57.92 151.98 57.8267 152.42 57.64 152.82C57.4667 153.207 57.2267 153.52 56.92 153.76C56.6267 153.987 56.2933 154.1 55.92 154.1C55.56 154.1 55.2267 153.987 54.92 153.76C54.6133 153.52 54.3733 153.2 54.2 152.8C54.0267 152.4 53.94 151.967 53.94 151.5ZM68 156.46C68.5333 156.46 68.9867 156.653 69.36 157.04C69.7467 157.413 69.94 157.867 69.94 158.4C69.94 158.933 69.7467 159.393 69.36 159.78C68.9867 160.153 68.5333 160.34 68 160.34C67.4533 160.34 66.9867 160.153 66.6 159.78C66.2267 159.393 66.04 158.933 66.04 158.4C66.04 157.853 66.2267 157.393 66.6 157.02C66.9867 156.647 67.4533 156.46 68 156.46ZM76.3 161.04C76.9 161.04 77.44 161.187 77.92 161.48C78.4133 161.773 78.8 162.167 79.08 162.66C79.3733 163.14 79.52 163.68 79.52 164.28C79.52 164.867 79.3733 165.407 79.08 165.9C78.8 166.393 78.4133 166.787 77.92 167.08C77.44 167.373 76.8933 167.52 76.28 167.52C75.6933 167.52 75.1533 167.373 74.66 167.08C74.1667 166.787 73.7733 166.393 73.48 165.9C73.2 165.407 73.06 164.867 73.06 164.28C73.06 163.68 73.2 163.14 73.48 162.66C73.7733 162.167 74.1667 161.773 74.66 161.48C75.1533 161.187 75.7 161.04 76.3 161.04ZM76.3 166.08C76.7933 166.08 77.2133 165.907 77.56 165.56C77.9067 165.2 78.08 164.773 78.08 164.28C78.08 163.947 78 163.647 77.84 163.38C77.68 163.1 77.46 162.88 77.18 162.72C76.9133 162.56 76.62 162.48 76.3 162.48C75.9667 162.48 75.6667 162.56 75.4 162.72C75.1333 162.88 74.9133 163.1 74.74 163.38C74.58 163.647 74.5 163.947 74.5 164.28C74.5 164.613 74.58 164.92 74.74 165.2C74.9133 165.467 75.1333 165.68 75.4 165.84C75.6667 166 75.9667 166.08 76.3 166.08ZM87 156.46C87.5333 156.46 87.9867 156.653 88.36 157.04C88.7467 157.413 88.94 157.867 88.94 158.4C88.94 158.933 88.7467 159.393 88.36 159.78C87.9867 160.153 87.5333 160.34 87 160.34C86.4533 160.34 85.9867 160.153 85.6 159.78C85.2267 159.393 85.04 158.933 85.04 158.4C85.04 157.853 85.2267 157.393 85.6 157.02C85.9867 156.647 86.4533 156.46 87 156.46ZM92.98 151.5C92.98 151.833 93.0667 152.127 93.24 152.38C93.4267 152.633 93.6533 152.76 93.92 152.76C94.1733 152.76 94.3933 152.64 94.58 152.4C94.7667 152.147 94.86 151.847 94.86 151.5C94.86 151.153 94.7667 150.853 94.58 150.6C94.3933 150.347 94.1733 150.22 93.92 150.22C93.6533 150.22 93.4267 150.347 93.24 150.6C93.0667 150.853 92.98 151.153 92.98 151.5ZM91.94 151.5C91.94 151.02 92.0267 150.587 92.2 150.2C92.3733 149.8 92.6133 149.487 92.92 149.26C93.2267 149.02 93.56 148.9 93.92 148.9C94.2933 148.9 94.6267 149.02 94.92 149.26C95.2267 149.487 95.4667 149.8 95.64 150.2C95.8267 150.587 95.92 151.02 95.92 151.5C95.92 151.98 95.8267 152.42 95.64 152.82C95.4667 153.207 95.2267 153.52 94.92 153.76C94.6267 153.987 94.2933 154.1 93.92 154.1C93.56 154.1 93.2267 153.987 92.92 153.76C92.6133 153.52 92.3733 153.2 92.2 152.8C92.0267 152.4 91.94 151.967 91.94 151.5ZM39.05 189.04C39.65 189.04 40.19 189.187 40.67 189.48C41.1633 189.773 41.55 190.167 41.83 190.66C42.1233 191.14 42.27 191.68 42.27 192.28C42.27 192.867 42.1233 193.407 41.83 193.9C41.55 194.393 41.1633 194.787 40.67 195.08C40.19 195.373 39.6433 195.52 39.03 195.52C38.4433 195.52 37.9033 195.373 37.41 195.08C36.9167 194.787 36.5233 194.393 36.23 193.9C35.95 193.407 35.81 192.867 35.81 192.28C35.81 191.68 35.95 191.14 36.23 190.66C36.5233 190.167 36.9167 189.773 37.41 189.48C37.9033 189.187 38.45 189.04 39.05 189.04ZM39.05 194.08C39.5433 194.08 39.9633 193.907 40.31 193.56C40.6567 193.2 40.83 192.773 40.83 192.28C40.83 191.947 40.75 191.647 40.59 191.38C40.43 191.1 40.21 190.88 39.93 190.72C39.6633 190.56 39.37 190.48 39.05 190.48C38.7167 190.48 38.4167 190.56 38.15 190.72C37.8833 190.88 37.6633 191.1 37.49 191.38C37.33 191.647 37.25 191.947 37.25 192.28C37.25 192.613 37.33 192.92 37.49 193.2C37.6633 193.467 37.8833 193.68 38.15 193.84C38.4167 194 38.7167 194.08 39.05 194.08ZM46.23 179.5C46.23 179.833 46.3167 180.127 46.49 180.38C46.6767 180.633 46.9033 180.76 47.17 180.76C47.4233 180.76 47.6433 180.64 47.83 180.4C48.0167 180.147 48.11 179.847 48.11 179.5C48.11 179.153 48.0167 178.853 47.83 178.6C47.6433 178.347 47.4233 178.22 47.17 178.22C46.9033 178.22 46.6767 178.347 46.49 178.6C46.3167 178.853 46.23 179.153 46.23 179.5ZM45.19 179.5C45.19 179.02 45.2767 178.587 45.45 178.2C45.6233 177.8 45.8633 177.487 46.17 177.26C46.4767 177.02 46.81 176.9 47.17 176.9C47.5433 176.9 47.8767 177.02 48.17 177.26C48.4767 177.487 48.7167 177.8 48.89 178.2C49.0767 178.587 49.17 179.02 49.17 179.5C49.17 179.98 49.0767 180.42 48.89 180.82C48.7167 181.207 48.4767 181.52 48.17 181.76C47.8767 181.987 47.5433 182.1 47.17 182.1C46.81 182.1 46.4767 181.987 46.17 181.76C45.8633 181.52 45.6233 181.2 45.45 180.8C45.2767 180.4 45.19 179.967 45.19 179.5ZM55.73 179.5C55.73 179.833 55.8167 180.127 55.99 180.38C56.1767 180.633 56.4033 180.76 56.67 180.76C56.9233 180.76 57.1433 180.64 57.33 180.4C57.5167 180.147 57.61 179.847 57.61 179.5C57.61 179.153 57.5167 178.853 57.33 178.6C57.1433 178.347 56.9233 178.22 56.67 178.22C56.4033 178.22 56.1767 178.347 55.99 178.6C55.8167 178.853 55.73 179.153 55.73 179.5ZM54.69 179.5C54.69 179.02 54.7767 178.587 54.95 178.2C55.1233 177.8 55.3633 177.487 55.67 177.26C55.9767 177.02 56.31 176.9 56.67 176.9C57.0433 176.9 57.3767 177.02 57.67 177.26C57.9767 177.487 58.2167 177.8 58.39 178.2C58.5767 178.587 58.67 179.02 58.67 179.5C58.67 179.98 58.5767 180.42 58.39 180.82C58.2167 181.207 57.9767 181.52 57.67 181.76C57.3767 181.987 57.0433 182.1 56.67 182.1C56.31 182.1 55.9767 181.987 55.67 181.76C55.3633 181.52 55.1233 181.2 54.95 180.8C54.7767 180.4 54.69 179.967 54.69 179.5ZM68.75 184.46C69.2833 184.46 69.7367 184.653 70.11 185.04C70.4967 185.413 70.69 185.867 70.69 186.4C70.69 186.933 70.4967 187.393 70.11 187.78C69.7367 188.153 69.2833 188.34 68.75 188.34C68.2033 188.34 67.7367 188.153 67.35 187.78C66.9767 187.393 66.79 186.933 66.79 186.4C66.79 185.853 66.9767 185.393 67.35 185.02C67.7367 184.647 68.2033 184.46 68.75 184.46ZM77.05 189.04C77.65 189.04 78.19 189.187 78.67 189.48C79.1633 189.773 79.55 190.167 79.83 190.66C80.1233 191.14 80.27 191.68 80.27 192.28C80.27 192.867 80.1233 193.407 79.83 193.9C79.55 194.393 79.1633 194.787 78.67 195.08C78.19 195.373 77.6433 195.52 77.03 195.52C76.4433 195.52 75.9033 195.373 75.41 195.08C74.9167 194.787 74.5233 194.393 74.23 193.9C73.95 193.407 73.81 192.867 73.81 192.28C73.81 191.68 73.95 191.14 74.23 190.66C74.5233 190.167 74.9167 189.773 75.41 189.48C75.9033 189.187 76.45 189.04 77.05 189.04ZM77.05 194.08C77.5433 194.08 77.9633 193.907 78.31 193.56C78.6567 193.2 78.83 192.773 78.83 192.28C78.83 191.947 78.75 191.647 78.59 191.38C78.43 191.1 78.21 190.88 77.93 190.72C77.6633 190.56 77.37 190.48 77.05 190.48C76.7167 190.48 76.4167 190.56 76.15 190.72C75.8833 190.88 75.6633 191.1 75.49 191.38C75.33 191.647 75.25 191.947 75.25 192.28C75.25 192.613 75.33 192.92 75.49 193.2C75.6633 193.467 75.8833 193.68 76.15 193.84C76.4167 194 76.7167 194.08 77.05 194.08ZM87.75 184.46C88.2833 184.46 88.7367 184.653 89.11 185.04C89.4967 185.413 89.69 185.867 89.69 186.4C89.69 186.933 89.4967 187.393 89.11 187.78C88.7367 188.153 88.2833 188.34 87.75 188.34C87.2033 188.34 86.7367 188.153 86.35 187.78C85.9767 187.393 85.79 186.933 85.79 186.4C85.79 185.853 85.9767 185.393 86.35 185.02C86.7367 184.647 87.2033 184.46 87.75 184.46ZM93.73 179.5C93.73 179.833 93.8167 180.127 93.99 180.38C94.1767 180.633 94.4033 180.76 94.67 180.76C94.9233 180.76 95.1433 180.64 95.33 180.4C95.5167 180.147 95.61 179.847 95.61 179.5C95.61 179.153 95.5167 178.853 95.33 178.6C95.1433 178.347 94.9233 178.22 94.67 178.22C94.4033 178.22 94.1767 178.347 93.99 178.6C93.8167 178.853 93.73 179.153 93.73 179.5ZM92.69 179.5C92.69 179.02 92.7767 178.587 92.95 178.2C93.1233 177.8 93.3633 177.487 93.67 177.26C93.9767 177.02 94.31 176.9 94.67 176.9C95.0433 176.9 95.3767 177.02 95.67 177.26C95.9767 177.487 96.2167 177.8 96.39 178.2C96.5767 178.587 96.67 179.02 96.67 179.5C96.67 179.98 96.5767 180.42 96.39 180.82C96.2167 181.207 95.9767 181.52 95.67 181.76C95.3767 181.987 95.0433 182.1 94.67 182.1C94.31 182.1 93.9767 181.987 93.67 181.76C93.3633 181.52 93.1233 181.2 92.95 180.8C92.7767 180.4 92.69 179.967 92.69 179.5ZM103.23 179.5C103.23 179.833 103.317 180.127 103.49 180.38C103.677 180.633 103.903 180.76 104.17 180.76C104.423 180.76 104.643 180.64 104.83 180.4C105.017 180.147 105.11 179.847 105.11 179.5C105.11 179.153 105.017 178.853 104.83 178.6C104.643 178.347 104.423 178.22 104.17 178.22C103.903 178.22 103.677 178.347 103.49 178.6C103.317 178.853 103.23 179.153 103.23 179.5ZM102.19 179.5C102.19 179.02 102.277 178.587 102.45 178.2C102.623 177.8 102.863 177.487 103.17 177.26C103.477 177.02 103.81 176.9 104.17 176.9C104.543 176.9 104.877 177.02 105.17 177.26C105.477 177.487 105.717 177.8 105.89 178.2C106.077 178.587 106.17 179.02 106.17 179.5C106.17 179.98 106.077 180.42 105.89 180.82C105.717 181.207 105.477 181.52 105.17 181.76C104.877 181.987 104.543 182.1 104.17 182.1C103.81 182.1 103.477 181.987 103.17 181.76C102.863 181.52 102.623 181.2 102.45 180.8C102.277 180.4 102.19 179.967 102.19 179.5ZM115.05 189.04C115.65 189.04 116.19 189.187 116.67 189.48C117.163 189.773 117.55 190.167 117.83 190.66C118.123 191.14 118.27 191.68 118.27 192.28C118.27 192.867 118.123 193.407 117.83 193.9C117.55 194.393 117.163 194.787 116.67 195.08C116.19 195.373 115.643 195.52 115.03 195.52C114.443 195.52 113.903 195.373 113.41 195.08C112.917 194.787 112.523 194.393 112.23 193.9C111.95 193.407 111.81 192.867 111.81 192.28C111.81 191.68 111.95 191.14 112.23 190.66C112.523 190.167 112.917 189.773 113.41 189.48C113.903 189.187 114.45 189.04 115.05 189.04ZM115.05 194.08C115.543 194.08 115.963 193.907 116.31 193.56C116.657 193.2 116.83 192.773 116.83 192.28C116.83 191.947 116.75 191.647 116.59 191.38C116.43 191.1 116.21 190.88 115.93 190.72C115.663 190.56 115.37 190.48 115.05 190.48C114.717 190.48 114.417 190.56 114.15 190.72C113.883 190.88 113.663 191.1 113.49 191.38C113.33 191.647 113.25 191.947 113.25 192.28C113.25 192.613 113.33 192.92 113.49 193.2C113.663 193.467 113.883 193.68 114.15 193.84C114.417 194 114.717 194.08 115.05 194.08ZM36.73 207.5C36.73 207.833 36.8167 208.127 36.99 208.38C37.1767 208.633 37.4033 208.76 37.67 208.76C37.9233 208.76 38.1433 208.64 38.33 208.4C38.5167 208.147 38.61 207.847 38.61 207.5C38.61 207.153 38.5167 206.853 38.33 206.6C38.1433 206.347 37.9233 206.22 37.67 206.22C37.4033 206.22 37.1767 206.347 36.99 206.6C36.8167 206.853 36.73 207.153 36.73 207.5ZM35.69 207.5C35.69 207.02 35.7767 206.587 35.95 206.2C36.1233 205.8 36.3633 205.487 36.67 205.26C36.9767 205.02 37.31 204.9 37.67 204.9C38.0433 204.9 38.3767 205.02 38.67 205.26C38.9767 205.487 39.2167 205.8 39.39 206.2C39.5767 206.587 39.67 207.02 39.67 207.5C39.67 207.98 39.5767 208.42 39.39 208.82C39.2167 209.207 38.9767 209.52 38.67 209.76C38.3767 209.987 38.0433 210.1 37.67 210.1C37.31 210.1 36.9767 209.987 36.67 209.76C36.3633 209.52 36.1233 209.2 35.95 208.8C35.7767 208.4 35.69 207.967 35.69 207.5ZM49.1445 223.426C47.0156 223.426 45.6191 222.02 45.6289 219.891C45.6191 217.791 47.0156 216.375 49.1445 216.375C51.2539 216.375 52.6699 217.791 52.6602 219.891C52.6699 222.02 51.2539 223.426 49.1445 223.426ZM47.6797 219.891C47.6895 220.77 48.2754 221.355 49.1445 221.355C50.0039 221.355 50.5898 220.77 50.5898 219.891C50.5898 219.041 50.0039 218.455 49.1445 218.465C48.2754 218.455 47.6895 219.041 47.6797 219.891ZM72.4219 207.176C74.0137 207.166 75.3516 208.025 76.1816 209.52H79.8633V205.945H82.6367V223.914H79.8633V217.273H76.3867C75.5859 219.041 74.1504 220.047 72.4219 220.047C69.6777 220.047 67.7051 217.566 67.7148 213.582C67.7051 209.656 69.6777 207.166 72.4219 207.176ZM70.4102 213.582C70.4004 216.189 71.2207 217.488 72.4219 217.488C73.6426 217.488 74.4336 216.189 74.4336 213.582C74.4336 211.023 73.6426 209.705 72.4219 209.715C71.2207 209.705 70.4004 211.023 70.4102 213.582ZM76.9629 211.785C77.0605 212.342 77.1094 212.947 77.1094 213.582C77.1094 214.1 77.0801 214.588 77.0117 215.047H79.8633V211.785H76.9629ZM105.808 217.04C106.408 217.04 106.948 217.187 107.428 217.48C107.921 217.773 108.308 218.167 108.588 218.66C108.881 219.14 109.028 219.68 109.028 220.28C109.028 220.867 108.881 221.407 108.588 221.9C108.308 222.393 107.921 222.787 107.428 223.08C106.948 223.373 106.401 223.52 105.788 223.52C105.201 223.52 104.661 223.373 104.168 223.08C103.674 222.787 103.281 222.393 102.988 221.9C102.708 221.407 102.568 220.867 102.568 220.28C102.568 219.68 102.708 219.14 102.988 218.66C103.281 218.167 103.674 217.773 104.168 217.48C104.661 217.187 105.208 217.04 105.808 217.04ZM105.808 222.08C106.301 222.08 106.721 221.907 107.068 221.56C107.414 221.2 107.588 220.773 107.588 220.28C107.588 219.947 107.508 219.647 107.348 219.38C107.188 219.1 106.968 218.88 106.688 218.72C106.421 218.56 106.128 218.48 105.808 218.48C105.474 218.48 105.174 218.56 104.908 218.72C104.641 218.88 104.421 219.1 104.248 219.38C104.088 219.647 104.008 219.947 104.008 220.28C104.008 220.613 104.088 220.92 104.248 221.2C104.421 221.467 104.641 221.68 104.908 221.84C105.174 222 105.474 222.08 105.808 222.08ZM112.988 207.5C112.988 207.833 113.074 208.127 113.248 208.38C113.434 208.633 113.661 208.76 113.928 208.76C114.181 208.76 114.401 208.64 114.588 208.4C114.774 208.147 114.868 207.847 114.868 207.5C114.868 207.153 114.774 206.853 114.588 206.6C114.401 206.347 114.181 206.22 113.928 206.22C113.661 206.22 113.434 206.347 113.248 206.6C113.074 206.853 112.988 207.153 112.988 207.5ZM111.948 207.5C111.948 207.02 112.034 206.587 112.208 206.2C112.381 205.8 112.621 205.487 112.928 205.26C113.234 205.02 113.568 204.9 113.928 204.9C114.301 204.9 114.634 205.02 114.928 205.26C115.234 205.487 115.474 205.8 115.648 206.2C115.834 206.587 115.928 207.02 115.928 207.5C115.928 207.98 115.834 208.42 115.648 208.82C115.474 209.207 115.234 209.52 114.928 209.76C114.634 209.987 114.301 210.1 113.928 210.1C113.568 210.1 113.234 209.987 112.928 209.76C112.621 209.52 112.381 209.2 112.208 208.8C112.034 208.4 111.948 207.967 111.948 207.5ZM54.98 235.5C54.98 235.833 55.0667 236.127 55.24 236.38C55.4267 236.633 55.6533 236.76 55.92 236.76C56.1733 236.76 56.3933 236.64 56.58 236.4C56.7667 236.147 56.86 235.847 56.86 235.5C56.86 235.153 56.7667 234.853 56.58 234.6C56.3933 234.347 56.1733 234.22 55.92 234.22C55.6533 234.22 55.4267 234.347 55.24 234.6C55.0667 234.853 54.98 235.153 54.98 235.5ZM53.94 235.5C53.94 235.02 54.0267 234.587 54.2 234.2C54.3733 233.8 54.6133 233.487 54.92 233.26C55.2267 233.02 55.56 232.9 55.92 232.9C56.2933 232.9 56.6267 233.02 56.92 233.26C57.2267 233.487 57.4667 233.8 57.64 234.2C57.8267 234.587 57.92 235.02 57.92 235.5C57.92 235.98 57.8267 236.42 57.64 236.82C57.4667 237.207 57.2267 237.52 56.92 237.76C56.6267 237.987 56.2933 238.1 55.92 238.1C55.56 238.1 55.2267 237.987 54.92 237.76C54.6133 237.52 54.3733 237.2 54.2 236.8C54.0267 236.4 53.94 235.967 53.94 235.5ZM68 240.46C68.5333 240.46 68.9867 240.653 69.36 241.04C69.7467 241.413 69.94 241.867 69.94 242.4C69.94 242.933 69.7467 243.393 69.36 243.78C68.9867 244.153 68.5333 244.34 68 244.34C67.4533 244.34 66.9867 244.153 66.6 243.78C66.2267 243.393 66.04 242.933 66.04 242.4C66.04 241.853 66.2267 241.393 66.6 241.02C66.9867 240.647 67.4533 240.46 68 240.46ZM76.3 245.04C76.9 245.04 77.44 245.187 77.92 245.48C78.4133 245.773 78.8 246.167 79.08 246.66C79.3733 247.14 79.52 247.68 79.52 248.28C79.52 248.867 79.3733 249.407 79.08 249.9C78.8 250.393 78.4133 250.787 77.92 251.08C77.44 251.373 76.8933 251.52 76.28 251.52C75.6933 251.52 75.1533 251.373 74.66 251.08C74.1667 250.787 73.7733 250.393 73.48 249.9C73.2 249.407 73.06 248.867 73.06 248.28C73.06 247.68 73.2 247.14 73.48 246.66C73.7733 246.167 74.1667 245.773 74.66 245.48C75.1533 245.187 75.7 245.04 76.3 245.04ZM76.3 250.08C76.7933 250.08 77.2133 249.907 77.56 249.56C77.9067 249.2 78.08 248.773 78.08 248.28C78.08 247.947 78 247.647 77.84 247.38C77.68 247.1 77.46 246.88 77.18 246.72C76.9133 246.56 76.62 246.48 76.3 246.48C75.9667 246.48 75.6667 246.56 75.4 246.72C75.1333 246.88 74.9133 247.1 74.74 247.38C74.58 247.647 74.5 247.947 74.5 248.28C74.5 248.613 74.58 248.92 74.74 249.2C74.9133 249.467 75.1333 249.68 75.4 249.84C75.6667 250 75.9667 250.08 76.3 250.08ZM87 240.46C87.5333 240.46 87.9867 240.653 88.36 241.04C88.7467 241.413 88.94 241.867 88.94 242.4C88.94 242.933 88.7467 243.393 88.36 243.78C87.9867 244.153 87.5333 244.34 87 244.34C86.4533 244.34 85.9867 244.153 85.6 243.78C85.2267 243.393 85.04 242.933 85.04 242.4C85.04 241.853 85.2267 241.393 85.6 241.02C85.9867 240.647 86.4533 240.46 87 240.46ZM92.98 235.5C92.98 235.833 93.0667 236.127 93.24 236.38C93.4267 236.633 93.6533 236.76 93.92 236.76C94.1733 236.76 94.3933 236.64 94.58 236.4C94.7667 236.147 94.86 235.847 94.86 235.5C94.86 235.153 94.7667 234.853 94.58 234.6C94.3933 234.347 94.1733 234.22 93.92 234.22C93.6533 234.22 93.4267 234.347 93.24 234.6C93.0667 234.853 92.98 235.153 92.98 235.5ZM91.94 235.5C91.94 235.02 92.0267 234.587 92.2 234.2C92.3733 233.8 92.6133 233.487 92.92 233.26C93.2267 233.02 93.56 232.9 93.92 232.9C94.2933 232.9 94.6267 233.02 94.92 233.26C95.2267 233.487 95.4667 233.8 95.64 234.2C95.8267 234.587 95.92 235.02 95.92 235.5C95.92 235.98 95.8267 236.42 95.64 236.82C95.4667 237.207 95.2267 237.52 94.92 237.76C94.6267 237.987 94.2933 238.1 93.92 238.1C93.56 238.1 93.2267 237.987 92.92 237.76C92.6133 237.52 92.3733 237.2 92.2 236.8C92.0267 236.4 91.94 235.967 91.94 235.5ZM39.05 273.04C39.65 273.04 40.19 273.187 40.67 273.48C41.1633 273.773 41.55 274.167 41.83 274.66C42.1233 275.14 42.27 275.68 42.27 276.28C42.27 276.867 42.1233 277.407 41.83 277.9C41.55 278.393 41.1633 278.787 40.67 279.08C40.19 279.373 39.6433 279.52 39.03 279.52C38.4433 279.52 37.9033 279.373 37.41 279.08C36.9167 278.787 36.5233 278.393 36.23 277.9C35.95 277.407 35.81 276.867 35.81 276.28C35.81 275.68 35.95 275.14 36.23 274.66C36.5233 274.167 36.9167 273.773 37.41 273.48C37.9033 273.187 38.45 273.04 39.05 273.04ZM39.05 278.08C39.5433 278.08 39.9633 277.907 40.31 277.56C40.6567 277.2 40.83 276.773 40.83 276.28C40.83 275.947 40.75 275.647 40.59 275.38C40.43 275.1 40.21 274.88 39.93 274.72C39.6633 274.56 39.37 274.48 39.05 274.48C38.7167 274.48 38.4167 274.56 38.15 274.72C37.8833 274.88 37.6633 275.1 37.49 275.38C37.33 275.647 37.25 275.947 37.25 276.28C37.25 276.613 37.33 276.92 37.49 277.2C37.6633 277.467 37.8833 277.68 38.15 277.84C38.4167 278 38.7167 278.08 39.05 278.08ZM46.23 263.5C46.23 263.833 46.3167 264.127 46.49 264.38C46.6767 264.633 46.9033 264.76 47.17 264.76C47.4233 264.76 47.6433 264.64 47.83 264.4C48.0167 264.147 48.11 263.847 48.11 263.5C48.11 263.153 48.0167 262.853 47.83 262.6C47.6433 262.347 47.4233 262.22 47.17 262.22C46.9033 262.22 46.6767 262.347 46.49 262.6C46.3167 262.853 46.23 263.153 46.23 263.5ZM45.19 263.5C45.19 263.02 45.2767 262.587 45.45 262.2C45.6233 261.8 45.8633 261.487 46.17 261.26C46.4767 261.02 46.81 260.9 47.17 260.9C47.5433 260.9 47.8767 261.02 48.17 261.26C48.4767 261.487 48.7167 261.8 48.89 262.2C49.0767 262.587 49.17 263.02 49.17 263.5C49.17 263.98 49.0767 264.42 48.89 264.82C48.7167 265.207 48.4767 265.52 48.17 265.76C47.8767 265.987 47.5433 266.1 47.17 266.1C46.81 266.1 46.4767 265.987 46.17 265.76C45.8633 265.52 45.6233 265.2 45.45 264.8C45.2767 264.4 45.19 263.967 45.19 263.5ZM55.73 263.5C55.73 263.833 55.8167 264.127 55.99 264.38C56.1767 264.633 56.4033 264.76 56.67 264.76C56.9233 264.76 57.1433 264.64 57.33 264.4C57.5167 264.147 57.61 263.847 57.61 263.5C57.61 263.153 57.5167 262.853 57.33 262.6C57.1433 262.347 56.9233 262.22 56.67 262.22C56.4033 262.22 56.1767 262.347 55.99 262.6C55.8167 262.853 55.73 263.153 55.73 263.5ZM54.69 263.5C54.69 263.02 54.7767 262.587 54.95 262.2C55.1233 261.8 55.3633 261.487 55.67 261.26C55.9767 261.02 56.31 260.9 56.67 260.9C57.0433 260.9 57.3767 261.02 57.67 261.26C57.9767 261.487 58.2167 261.8 58.39 262.2C58.5767 262.587 58.67 263.02 58.67 263.5C58.67 263.98 58.5767 264.42 58.39 264.82C58.2167 265.207 57.9767 265.52 57.67 265.76C57.3767 265.987 57.0433 266.1 56.67 266.1C56.31 266.1 55.9767 265.987 55.67 265.76C55.3633 265.52 55.1233 265.2 54.95 264.8C54.7767 264.4 54.69 263.967 54.69 263.5ZM68.75 268.46C69.2833 268.46 69.7367 268.653 70.11 269.04C70.4967 269.413 70.69 269.867 70.69 270.4C70.69 270.933 70.4967 271.393 70.11 271.78C69.7367 272.153 69.2833 272.34 68.75 272.34C68.2033 272.34 67.7367 272.153 67.35 271.78C66.9767 271.393 66.79 270.933 66.79 270.4C66.79 269.853 66.9767 269.393 67.35 269.02C67.7367 268.647 68.2033 268.46 68.75 268.46ZM77.05 273.04C77.65 273.04 78.19 273.187 78.67 273.48C79.1633 273.773 79.55 274.167 79.83 274.66C80.1233 275.14 80.27 275.68 80.27 276.28C80.27 276.867 80.1233 277.407 79.83 277.9C79.55 278.393 79.1633 278.787 78.67 279.08C78.19 279.373 77.6433 279.52 77.03 279.52C76.4433 279.52 75.9033 279.373 75.41 279.08C74.9167 278.787 74.5233 278.393 74.23 277.9C73.95 277.407 73.81 276.867 73.81 276.28C73.81 275.68 73.95 275.14 74.23 274.66C74.5233 274.167 74.9167 273.773 75.41 273.48C75.9033 273.187 76.45 273.04 77.05 273.04ZM77.05 278.08C77.5433 278.08 77.9633 277.907 78.31 277.56C78.6567 277.2 78.83 276.773 78.83 276.28C78.83 275.947 78.75 275.647 78.59 275.38C78.43 275.1 78.21 274.88 77.93 274.72C77.6633 274.56 77.37 274.48 77.05 274.48C76.7167 274.48 76.4167 274.56 76.15 274.72C75.8833 274.88 75.6633 275.1 75.49 275.38C75.33 275.647 75.25 275.947 75.25 276.28C75.25 276.613 75.33 276.92 75.49 277.2C75.6633 277.467 75.8833 277.68 76.15 277.84C76.4167 278 76.7167 278.08 77.05 278.08ZM87.75 268.46C88.2833 268.46 88.7367 268.653 89.11 269.04C89.4967 269.413 89.69 269.867 89.69 270.4C89.69 270.933 89.4967 271.393 89.11 271.78C88.7367 272.153 88.2833 272.34 87.75 272.34C87.2033 272.34 86.7367 272.153 86.35 271.78C85.9767 271.393 85.79 270.933 85.79 270.4C85.79 269.853 85.9767 269.393 86.35 269.02C86.7367 268.647 87.2033 268.46 87.75 268.46ZM93.73 263.5C93.73 263.833 93.8167 264.127 93.99 264.38C94.1767 264.633 94.4033 264.76 94.67 264.76C94.9233 264.76 95.1433 264.64 95.33 264.4C95.5167 264.147 95.61 263.847 95.61 263.5C95.61 263.153 95.5167 262.853 95.33 262.6C95.1433 262.347 94.9233 262.22 94.67 262.22C94.4033 262.22 94.1767 262.347 93.99 262.6C93.8167 262.853 93.73 263.153 93.73 263.5ZM92.69 263.5C92.69 263.02 92.7767 262.587 92.95 262.2C93.1233 261.8 93.3633 261.487 93.67 261.26C93.9767 261.02 94.31 260.9 94.67 260.9C95.0433 260.9 95.3767 261.02 95.67 261.26C95.9767 261.487 96.2167 261.8 96.39 262.2C96.5767 262.587 96.67 263.02 96.67 263.5C96.67 263.98 96.5767 264.42 96.39 264.82C96.2167 265.207 95.9767 265.52 95.67 265.76C95.3767 265.987 95.0433 266.1 94.67 266.1C94.31 266.1 93.9767 265.987 93.67 265.76C93.3633 265.52 93.1233 265.2 92.95 264.8C92.7767 264.4 92.69 263.967 92.69 263.5ZM103.23 263.5C103.23 263.833 103.317 264.127 103.49 264.38C103.677 264.633 103.903 264.76 104.17 264.76C104.423 264.76 104.643 264.64 104.83 264.4C105.017 264.147 105.11 263.847 105.11 263.5C105.11 263.153 105.017 262.853 104.83 262.6C104.643 262.347 104.423 262.22 104.17 262.22C103.903 262.22 103.677 262.347 103.49 262.6C103.317 262.853 103.23 263.153 103.23 263.5ZM102.19 263.5C102.19 263.02 102.277 262.587 102.45 262.2C102.623 261.8 102.863 261.487 103.17 261.26C103.477 261.02 103.81 260.9 104.17 260.9C104.543 260.9 104.877 261.02 105.17 261.26C105.477 261.487 105.717 261.8 105.89 262.2C106.077 262.587 106.17 263.02 106.17 263.5C106.17 263.98 106.077 264.42 105.89 264.82C105.717 265.207 105.477 265.52 105.17 265.76C104.877 265.987 104.543 266.1 104.17 266.1C103.81 266.1 103.477 265.987 103.17 265.76C102.863 265.52 102.623 265.2 102.45 264.8C102.277 264.4 102.19 263.967 102.19 263.5ZM115.05 273.04C115.65 273.04 116.19 273.187 116.67 273.48C117.163 273.773 117.55 274.167 117.83 274.66C118.123 275.14 118.27 275.68 118.27 276.28C118.27 276.867 118.123 277.407 117.83 277.9C117.55 278.393 117.163 278.787 116.67 279.08C116.19 279.373 115.643 279.52 115.03 279.52C114.443 279.52 113.903 279.373 113.41 279.08C112.917 278.787 112.523 278.393 112.23 277.9C111.95 277.407 111.81 276.867 111.81 276.28C111.81 275.68 111.95 275.14 112.23 274.66C112.523 274.167 112.917 273.773 113.41 273.48C113.903 273.187 114.45 273.04 115.05 273.04ZM115.05 278.08C115.543 278.08 115.963 277.907 116.31 277.56C116.657 277.2 116.83 276.773 116.83 276.28C116.83 275.947 116.75 275.647 116.59 275.38C116.43 275.1 116.21 274.88 115.93 274.72C115.663 274.56 115.37 274.48 115.05 274.48C114.717 274.48 114.417 274.56 114.15 274.72C113.883 274.88 113.663 275.1 113.49 275.38C113.33 275.647 113.25 275.947 113.25 276.28C113.25 276.613 113.33 276.92 113.49 277.2C113.663 277.467 113.883 277.68 114.15 277.84C114.417 278 114.717 278.08 115.05 278.08ZM36.73 291.5C36.73 291.833 36.8167 292.127 36.99 292.38C37.1767 292.633 37.4033 292.76 37.67 292.76C37.9233 292.76 38.1433 292.64 38.33 292.4C38.5167 292.147 38.61 291.847 38.61 291.5C38.61 291.153 38.5167 290.853 38.33 290.6C38.1433 290.347 37.9233 290.22 37.67 290.22C37.4033 290.22 37.1767 290.347 36.99 290.6C36.8167 290.853 36.73 291.153 36.73 291.5ZM35.69 291.5C35.69 291.02 35.7767 290.587 35.95 290.2C36.1233 289.8 36.3633 289.487 36.67 289.26C36.9767 289.02 37.31 288.9 37.67 288.9C38.0433 288.9 38.3767 289.02 38.67 289.26C38.9767 289.487 39.2167 289.8 39.39 290.2C39.5767 290.587 39.67 291.02 39.67 291.5C39.67 291.98 39.5767 292.42 39.39 292.82C39.2167 293.207 38.9767 293.52 38.67 293.76C38.3767 293.987 38.0433 294.1 37.67 294.1C37.31 294.1 36.9767 293.987 36.67 293.76C36.3633 293.52 36.1233 293.2 35.95 292.8C35.7767 292.4 35.69 291.967 35.69 291.5ZM49.1445 307.426C47.0156 307.426 45.6191 306.02 45.6289 303.891C45.6191 301.791 47.0156 300.375 49.1445 300.375C51.2539 300.375 52.6699 301.791 52.6602 303.891C52.6699 306.02 51.2539 307.426 49.1445 307.426ZM47.6797 303.891C47.6895 304.77 48.2754 305.355 49.1445 305.355C50.0039 305.355 50.5898 304.77 50.5898 303.891C50.5898 303.041 50.0039 302.455 49.1445 302.465C48.2754 302.455 47.6895 303.041 47.6797 303.891ZM82.8906 289.965V307.855H80.0195V304.066H76.5234V301.977H80.0195V289.965H82.8906ZM67.3828 298.949C70.6934 298.939 75.1172 298.92 78.9453 298.402L79.1211 300.453C77.5977 300.727 76.0449 300.902 74.5117 301.02V307.348H71.6602V301.166C70.2539 301.205 68.916 301.215 67.6953 301.215L67.3828 298.949ZM68.5938 294.359C68.584 292.191 70.5371 290.639 73.2227 290.629C75.8594 290.639 77.832 292.191 77.832 294.359C77.832 296.586 75.8594 298.07 73.2227 298.07C70.5371 298.07 68.584 296.586 68.5938 294.359ZM71.2305 294.359C71.2305 295.404 72.0312 295.932 73.2227 295.922C74.3555 295.932 75.166 295.404 75.1758 294.359C75.166 293.354 74.3652 292.758 73.2227 292.738C72.0215 292.758 71.2305 293.354 71.2305 294.359ZM105.808 301.04C106.408 301.04 106.948 301.187 107.428 301.48C107.921 301.773 108.308 302.167 108.588 302.66C108.881 303.14 109.028 303.68 109.028 304.28C109.028 304.867 108.881 305.407 108.588 305.9C108.308 306.393 107.921 306.787 107.428 307.08C106.948 307.373 106.401 307.52 105.788 307.52C105.201 307.52 104.661 307.373 104.168 307.08C103.674 306.787 103.281 306.393 102.988 305.9C102.708 305.407 102.568 304.867 102.568 304.28C102.568 303.68 102.708 303.14 102.988 302.66C103.281 302.167 103.674 301.773 104.168 301.48C104.661 301.187 105.208 301.04 105.808 301.04ZM105.808 306.08C106.301 306.08 106.721 305.907 107.068 305.56C107.414 305.2 107.588 304.773 107.588 304.28C107.588 303.947 107.508 303.647 107.348 303.38C107.188 303.1 106.968 302.88 106.688 302.72C106.421 302.56 106.128 302.48 105.808 302.48C105.474 302.48 105.174 302.56 104.908 302.72C104.641 302.88 104.421 303.1 104.248 303.38C104.088 303.647 104.008 303.947 104.008 304.28C104.008 304.613 104.088 304.92 104.248 305.2C104.421 305.467 104.641 305.68 104.908 305.84C105.174 306 105.474 306.08 105.808 306.08ZM112.988 291.5C112.988 291.833 113.074 292.127 113.248 292.38C113.434 292.633 113.661 292.76 113.928 292.76C114.181 292.76 114.401 292.64 114.588 292.4C114.774 292.147 114.868 291.847 114.868 291.5C114.868 291.153 114.774 290.853 114.588 290.6C114.401 290.347 114.181 290.22 113.928 290.22C113.661 290.22 113.434 290.347 113.248 290.6C113.074 290.853 112.988 291.153 112.988 291.5ZM111.948 291.5C111.948 291.02 112.034 290.587 112.208 290.2C112.381 289.8 112.621 289.487 112.928 289.26C113.234 289.02 113.568 288.9 113.928 288.9C114.301 288.9 114.634 289.02 114.928 289.26C115.234 289.487 115.474 289.8 115.648 290.2C115.834 290.587 115.928 291.02 115.928 291.5C115.928 291.98 115.834 292.42 115.648 292.82C115.474 293.207 115.234 293.52 114.928 293.76C114.634 293.987 114.301 294.1 113.928 294.1C113.568 294.1 113.234 293.987 112.928 293.76C112.621 293.52 112.381 293.2 112.208 292.8C112.034 292.4 111.948 291.967 111.948 291.5ZM54.98 319.5C54.98 319.833 55.0667 320.127 55.24 320.38C55.4267 320.633 55.6533 320.76 55.92 320.76C56.1733 320.76 56.3933 320.64 56.58 320.4C56.7667 320.147 56.86 319.847 56.86 319.5C56.86 319.153 56.7667 318.853 56.58 318.6C56.3933 318.347 56.1733 318.22 55.92 318.22C55.6533 318.22 55.4267 318.347 55.24 318.6C55.0667 318.853 54.98 319.153 54.98 319.5ZM53.94 319.5C53.94 319.02 54.0267 318.587 54.2 318.2C54.3733 317.8 54.6133 317.487 54.92 317.26C55.2267 317.02 55.56 316.9 55.92 316.9C56.2933 316.9 56.6267 317.02 56.92 317.26C57.2267 317.487 57.4667 317.8 57.64 318.2C57.8267 318.587 57.92 319.02 57.92 319.5C57.92 319.98 57.8267 320.42 57.64 320.82C57.4667 321.207 57.2267 321.52 56.92 321.76C56.6267 321.987 56.2933 322.1 55.92 322.1C55.56 322.1 55.2267 321.987 54.92 321.76C54.6133 321.52 54.3733 321.2 54.2 320.8C54.0267 320.4 53.94 319.967 53.94 319.5ZM68 324.46C68.5333 324.46 68.9867 324.653 69.36 325.04C69.7467 325.413 69.94 325.867 69.94 326.4C69.94 326.933 69.7467 327.393 69.36 327.78C68.9867 328.153 68.5333 328.34 68 328.34C67.4533 328.34 66.9867 328.153 66.6 327.78C66.2267 327.393 66.04 326.933 66.04 326.4C66.04 325.853 66.2267 325.393 66.6 325.02C66.9867 324.647 67.4533 324.46 68 324.46ZM76.3 329.04C76.9 329.04 77.44 329.187 77.92 329.48C78.4133 329.773 78.8 330.167 79.08 330.66C79.3733 331.14 79.52 331.68 79.52 332.28C79.52 332.867 79.3733 333.407 79.08 333.9C78.8 334.393 78.4133 334.787 77.92 335.08C77.44 335.373 76.8933 335.52 76.28 335.52C75.6933 335.52 75.1533 335.373 74.66 335.08C74.1667 334.787 73.7733 334.393 73.48 333.9C73.2 333.407 73.06 332.867 73.06 332.28C73.06 331.68 73.2 331.14 73.48 330.66C73.7733 330.167 74.1667 329.773 74.66 329.48C75.1533 329.187 75.7 329.04 76.3 329.04ZM76.3 334.08C76.7933 334.08 77.2133 333.907 77.56 333.56C77.9067 333.2 78.08 332.773 78.08 332.28C78.08 331.947 78 331.647 77.84 331.38C77.68 331.1 77.46 330.88 77.18 330.72C76.9133 330.56 76.62 330.48 76.3 330.48C75.9667 330.48 75.6667 330.56 75.4 330.72C75.1333 330.88 74.9133 331.1 74.74 331.38C74.58 331.647 74.5 331.947 74.5 332.28C74.5 332.613 74.58 332.92 74.74 333.2C74.9133 333.467 75.1333 333.68 75.4 333.84C75.6667 334 75.9667 334.08 76.3 334.08ZM87 324.46C87.5333 324.46 87.9867 324.653 88.36 325.04C88.7467 325.413 88.94 325.867 88.94 326.4C88.94 326.933 88.7467 327.393 88.36 327.78C87.9867 328.153 87.5333 328.34 87 328.34C86.4533 328.34 85.9867 328.153 85.6 327.78C85.2267 327.393 85.04 326.933 85.04 326.4C85.04 325.853 85.2267 325.393 85.6 325.02C85.9867 324.647 86.4533 324.46 87 324.46ZM92.98 319.5C92.98 319.833 93.0667 320.127 93.24 320.38C93.4267 320.633 93.6533 320.76 93.92 320.76C94.1733 320.76 94.3933 320.64 94.58 320.4C94.7667 320.147 94.86 319.847 94.86 319.5C94.86 319.153 94.7667 318.853 94.58 318.6C94.3933 318.347 94.1733 318.22 93.92 318.22C93.6533 318.22 93.4267 318.347 93.24 318.6C93.0667 318.853 92.98 319.153 92.98 319.5ZM91.94 319.5C91.94 319.02 92.0267 318.587 92.2 318.2C92.3733 317.8 92.6133 317.487 92.92 317.26C93.2267 317.02 93.56 316.9 93.92 316.9C94.2933 316.9 94.6267 317.02 94.92 317.26C95.2267 317.487 95.4667 317.8 95.64 318.2C95.8267 318.587 95.92 319.02 95.92 319.5C95.92 319.98 95.8267 320.42 95.64 320.82C95.4667 321.207 95.2267 321.52 94.92 321.76C94.6267 321.987 94.2933 322.1 93.92 322.1C93.56 322.1 93.2267 321.987 92.92 321.76C92.6133 321.52 92.3733 321.2 92.2 320.8C92.0267 320.4 91.94 319.967 91.94 319.5Z" fill="#3C3E41"/>
</svg>
