<svg width="105" height="160" viewBox="0 0 105 160" fill="none" xmlns="http://www.w3.org/2000/svg">
<rect width="105" height="160" rx="5.0392" fill="#FFCAE9"/>
<path d="M37.6543 153V145.93H42.1855V146.994H38.9238V148.928H41.873V149.992H38.9238V153H37.6543ZM43.123 153V147.697H44.334V148.576H44.3926C44.5781 147.971 45.0957 147.619 45.7012 147.619C45.8379 147.619 46.0332 147.629 46.1504 147.648V148.801C46.043 148.762 45.7793 148.723 45.5742 148.723C44.8809 148.723 44.373 149.201 44.373 149.875V153H43.123ZM49.0312 153.107C47.4883 153.107 46.4922 152.014 46.4922 150.373C46.4922 148.723 47.4883 147.629 49.0312 147.629C50.584 147.629 51.5703 148.723 51.5703 150.373C51.5703 152.014 50.584 153.107 49.0312 153.107ZM49.041 152.111C49.8906 152.111 50.3105 151.34 50.3105 150.363C50.3105 149.396 49.8906 148.615 49.041 148.615C48.1719 148.615 47.752 149.396 47.752 150.363C47.752 151.34 48.1719 152.111 49.041 152.111ZM52.5371 153V147.697H53.7285V148.596H53.7969C54.0117 147.99 54.5488 147.629 55.252 147.629C55.9746 147.629 56.4824 147.99 56.6875 148.596H56.7461C56.9805 148.01 57.5664 147.629 58.3379 147.629C59.3047 147.629 59.9883 148.254 59.9883 149.436V153H58.748V149.631C58.748 148.967 58.3477 148.674 57.8398 148.674C57.2246 148.674 56.873 149.094 56.873 149.689V153H55.6621V149.582C55.6621 149.035 55.291 148.674 54.7637 148.674C54.2266 148.674 53.7871 149.113 53.7871 149.777V153H52.5371ZM61.9512 153.078C61.5312 153.078 61.1895 152.736 61.1895 152.316C61.1895 151.906 61.5312 151.564 61.9512 151.564C62.3516 151.564 62.7031 151.906 62.7031 152.316C62.7031 152.736 62.3516 153.078 61.9512 153.078ZM73.7969 149.914V150.803H71.8438V153.869H70.7598V150.803H68.7871V153.869H67.6934V150.803H65.75V149.914H73.7969ZM73.0547 145.539V146.398H70.4082C70.4912 147.36 71.6484 148.283 73.377 148.498L72.9863 149.357C71.4824 149.138 70.3105 148.444 69.7734 147.482C69.2363 148.444 68.0645 149.138 66.5801 149.357L66.1699 148.498C67.8936 148.283 69.0459 147.36 69.1484 146.398H66.4922V145.539H73.0547ZM78.4062 145.539C80.2715 145.539 81.6973 146.525 81.6973 148.029C81.6973 149.553 80.2715 150.539 78.4062 150.539C76.5508 150.539 75.125 149.553 75.1348 148.029C75.125 146.525 76.5508 145.539 78.4062 145.539ZM78.4062 146.418C77.127 146.408 76.1797 147.053 76.1797 148.029C76.1797 149.025 77.127 149.65 78.4062 149.65C79.6953 149.65 80.6328 149.025 80.6328 148.029C80.6328 147.053 79.6953 146.408 78.4062 146.418ZM82.459 151.867V152.756H74.3926V151.867H82.459ZM90.3984 145.041V153.869H89.3242V145.041H90.3984ZM84.6172 145.9V150.725C85.8574 150.705 87.1758 150.593 88.5332 150.324L88.6699 151.232C87.1172 151.555 85.6719 151.652 84.3047 151.652H83.543V145.9H84.6172Z" fill="black"/>
<path d="M16.5156 32.4492V33.3379H15.207V37.8496H14.123V29.041H15.207V32.4492H16.5156ZM9.67969 29.9004V34.7734C10.8564 34.7539 12.1113 34.6514 13.4395 34.373L13.5566 35.291C12.0723 35.584 10.6562 35.6719 9.34766 35.6719H8.60547V29.9004H9.67969ZM26.2715 29.041V30.8184H27.502V31.7168H26.2715V33.4746H25.1875V29.041H26.2715ZM23.791 29.4902V33.1035H19.6113V29.4902H23.791ZM20.6758 30.3496V32.2441H22.7266V30.3496H20.6758ZM26.2715 33.8555V36.1699H21.584V36.9023H26.5449V37.7617H20.5098V35.3789H25.1875V34.6953H20.5V33.8555H26.2715ZM35.1582 29.8516V30.7012C35.1484 31.7949 35.1484 33.0254 34.8066 34.8711L33.7129 34.7539C34.0547 33.0352 34.0547 31.7803 34.0645 30.7207H28.791V29.8516H35.1582ZM35.998 35.8379V36.7266H27.9512V35.8379H30.9199V32.7715H31.9941V35.8379H35.998ZM45.8809 29.041V32.3906H47.2383V33.2793H45.8809V37.8789H44.7969V29.041H45.8809ZM43.459 29.8809V30.7598H40.4121V34.8125C41.7842 34.8125 42.8682 34.7441 44.084 34.5293L44.2109 35.4473C42.8438 35.6816 41.6523 35.7207 40.0605 35.7207H39.3281V29.8809H43.459ZM55.666 33.8555V34.7246H47.5996V33.8555H55.666ZM54.8652 36.8145V37.6934H48.6348V35.2812H49.7285V36.8145H54.8652ZM54.6699 29.2754V31.6289H49.6992V32.3809H54.8457V33.2012H48.625V30.8477H53.5859V30.125H48.5957V29.2754H54.6699ZM65.9688 29.041V37.8789H64.875V29.041H65.9688ZM63.4297 29.8418V30.7305H60.2656V34.832C61.8916 34.8271 62.9121 34.7783 64.084 34.5684L64.1914 35.4668C62.9316 35.7012 61.7891 35.75 59.9238 35.75H59.1719V29.8418H63.4297ZM70.4316 31.5508C70.4316 32.918 71.2422 34.4707 72.6387 35.1152L72.0332 35.9746C71.0371 35.5059 70.2998 34.5586 69.9043 33.4551C69.5039 34.666 68.7324 35.7012 67.7168 36.1895L67.082 35.3398C68.4883 34.6758 69.3379 33.0156 69.3477 31.5508V30.8086H67.4238V29.9102H72.2773V30.8086H70.4316V31.5508ZM74.1816 29.041V32.4785H75.5391V33.3867H74.1816V37.8691H73.0977V29.041H74.1816ZM83.2539 29.041V37.8789H82.1602V29.041H83.2539ZM78.498 29.6855C79.8262 29.6855 80.793 30.8965 80.8027 32.8008C80.793 34.7246 79.8262 35.9258 78.498 35.9258C77.1602 35.9258 76.1934 34.7246 76.1934 32.8008C76.1934 30.8965 77.1602 29.6855 78.498 29.6855ZM78.498 30.6621C77.7461 30.6621 77.2383 31.4531 77.2383 32.8008C77.2383 34.1582 77.7461 34.9492 78.498 34.9492C79.2402 34.9492 79.748 34.1582 79.748 32.8008C79.748 31.4531 79.2402 30.6621 78.498 30.6621ZM91.9648 29.041V37.8789H90.8809V32.7129H88.3516V31.834H90.8809V29.041H91.9648ZM86.1055 30.0078V34.8809C87.292 34.8613 88.4688 34.7686 89.709 34.5293L89.8359 35.418C88.4102 35.7109 87.0918 35.7891 85.7441 35.7891H85.0215V30.0078H86.1055ZM12.7754 43.8027V47.9727H8.5957V43.8027H12.7754ZM9.66016 44.6719V47.1133H11.7109L11.7109 44.6719H9.66016ZM15.2559 43.041V45.6289H16.4863V46.5371H15.2559V49.4863H14.1719V43.041H15.2559ZM15.6074 50.8145V51.6934H9.60156V48.8613H10.6855V50.8145H15.6074ZM25.1582 46.4492V47.3379H23.8496V51.8496H22.7656V43.041H23.8496V46.4492H25.1582ZM18.3223 43.9004V48.7734C19.499 48.7539 20.7539 48.6514 22.082 48.373L22.1992 49.291C20.7148 49.584 19.2988 49.6719 17.9902 49.6719H17.248V43.9004H18.3223ZM32.668 46.2344V47.0938H26.623V43.5293H32.5703V44.3984H27.7363V46.2344H32.668ZM33.6348 48.0703V48.9492H30.1191V51.8496H29.0449V48.9492H25.5684V48.0703H33.6348ZM35.2949 51.0781C34.875 51.0781 34.5332 50.7363 34.5332 50.3164C34.5332 49.9062 34.875 49.5645 35.2949 49.5645C35.6953 49.5645 36.0469 49.9062 36.0469 50.3164C36.0469 50.7363 35.6953 51.0781 35.2949 51.0781ZM38.0195 51.0781C37.5996 51.0781 37.2578 50.7363 37.2578 50.3164C37.2578 49.9062 37.5996 49.5645 38.0195 49.5645C38.4199 49.5645 38.7715 49.9062 38.7715 50.3164C38.7715 50.7363 38.4199 51.0781 38.0195 51.0781ZM49.3672 43.041V48.5879H48.332V46.1855H47.4727V48.2949H46.457V43.2168H47.4727V45.3066H48.332V43.041H49.3672ZM46.1641 43.998V44.8477H41.7695V43.998H43.4395V43.1191H44.5137V43.998H46.1641ZM43.9766 45.209C45.0996 45.209 45.8906 45.8145 45.9004 46.7324C45.8906 47.6504 45.0996 48.2559 43.9766 48.2559C42.873 48.2559 42.0723 47.6504 42.082 46.7324C42.0723 45.8145 42.873 45.209 43.9766 45.209ZM43.9766 45.9902C43.4297 45.9902 43.0488 46.2734 43.0488 46.7324C43.0488 47.1914 43.4199 47.4746 43.9766 47.4746C44.5332 47.4746 44.9141 47.1914 44.9141 46.7324C44.9141 46.2734 44.5332 45.9902 43.9766 45.9902ZM46.3887 48.6953C48.2734 48.6953 49.4062 49.2715 49.416 50.2871C49.4062 51.2832 48.2734 51.8594 46.3887 51.8594C44.5039 51.8594 43.3613 51.2832 43.3613 50.2871C43.3613 49.2715 44.5039 48.6953 46.3887 48.6953ZM46.3887 49.5254C45.1289 49.5156 44.4453 49.7695 44.4453 50.2871C44.4453 50.7754 45.1289 51.0293 46.3887 51.0293C47.6387 51.0293 48.3223 50.7754 48.3223 50.2871C48.3223 49.7695 47.6387 49.5156 46.3887 49.5254ZM58.5078 47.4844V48.3535H50.4609V47.4844H53.9277V46.6348H51.5059V43.2559H52.5801V44.1348H56.3887V43.2559H57.4629V46.6348H55.0215V47.4844H58.5078ZM57.5215 49.0566V51.8691H56.4375V49.916H51.3496V49.0566H57.5215ZM52.5801 45.7656H56.3887V44.9453H52.5801V45.7656ZM66.0176 43.041V46.5566H67.375V47.4551H66.0176V51.8691H64.9434V43.041H66.0176ZM64.2598 44.3984V45.2676H59.0547V44.3984H61.1445V43.168H62.2285V44.3984H64.2598ZM61.6914 45.8438C62.9609 45.8438 63.9082 46.7031 63.9082 47.9238C63.9082 49.1445 62.9609 49.9941 61.6914 49.9941C60.4023 49.9941 59.4551 49.1445 59.4648 47.9238C59.4551 46.7031 60.4023 45.8438 61.6914 45.8438ZM61.6914 46.7324C60.998 46.7324 60.5 47.2012 60.5 47.9238C60.5 48.6465 60.998 49.1055 61.6914 49.0957C62.3652 49.1055 62.8633 48.6465 62.873 47.9238C62.8633 47.2012 62.3652 46.7324 61.6914 46.7324ZM71.0859 45.1602C71.0762 46.7812 71.9258 48.4023 73.3613 49.0176L72.7168 49.8867C71.7012 49.418 70.9541 48.4805 70.5488 47.3281C70.1436 48.5732 69.3867 49.5889 68.3125 50.0918L67.6484 49.1836C69.123 48.5488 69.9824 46.8594 69.9824 45.1602V43.7539H71.0859V45.1602ZM75.0898 43.041V51.8789H73.9961V43.041H75.0898ZM83.7422 43.041V47.5137H82.6484V43.041H83.7422ZM81.0762 43.4023C81.0664 45.7656 79.6406 47.1133 76.9062 47.6895L76.5254 46.8105C78.7178 46.3809 79.7432 45.4629 79.875 44.2812H76.9941V43.4023H81.0762ZM83.7422 47.875V50.1797H78.9961V50.9316H84.0059V51.7812H77.9023V49.3887H82.6484V48.7246H77.8828V47.875H83.7422ZM86.1055 51.0781C85.6855 51.0781 85.3438 50.7363 85.3438 50.3164C85.3438 49.9062 85.6855 49.5645 86.1055 49.5645C86.5059 49.5645 86.8574 49.9062 86.8574 50.3164C86.8574 50.7363 86.5059 51.0781 86.1055 51.0781ZM88.8301 51.0781C88.4102 51.0781 88.0684 50.7363 88.0684 50.3164C88.0684 49.9062 88.4102 49.5645 88.8301 49.5645C89.2305 49.5645 89.582 49.9062 89.582 50.3164C89.582 50.7363 89.2305 51.0781 88.8301 51.0781ZM15.207 57.041V60.5566H16.5645V61.4551H15.207L15.207 65.8691H14.1328L14.1328 57.041H15.207ZM13.4492 58.3984V59.2676H8.24414V58.3984H10.334V57.168H11.418V58.3984H13.4492ZM10.8809 59.8438C12.1504 59.8438 13.0977 60.7031 13.0977 61.9238C13.0977 63.1445 12.1504 63.9941 10.8809 63.9941C9.5918 63.9941 8.64453 63.1445 8.6543 61.9238C8.64453 60.7031 9.5918 59.8438 10.8809 59.8438ZM10.8809 60.7324C10.1875 60.7324 9.68945 61.2012 9.68945 61.9238C9.68945 62.6465 10.1875 63.1055 10.8809 63.0957C11.5547 63.1055 12.0527 62.6465 12.0625 61.9238C12.0527 61.2012 11.5547 60.7324 10.8809 60.7324ZM20.2656 59.5508C20.2656 60.9961 21.1152 62.5195 22.541 63.1152L21.9453 63.9746C20.9004 63.5254 20.1387 62.5977 19.7383 61.4746C19.3281 62.6855 18.5566 63.7012 17.5215 64.1895L16.8965 63.3398C18.293 62.6953 19.1621 61.0547 19.1621 59.5508V58.8086H17.2188V57.9102H22.1992V58.8086H20.2656V59.5508ZM24.2793 57.041L24.2793 65.8691H23.1855V57.041H24.2793ZM30.0605 57.8027L30.0605 61.9727H25.8809L25.8809 57.8027H30.0605ZM26.9453 58.6719V61.1133H28.9961V58.6719H26.9453ZM32.541 57.041V59.6289H33.7715V60.5371H32.541V63.4863H31.457L31.457 57.041H32.541ZM32.8926 64.8145V65.6934H26.8867V62.8613H27.9707V64.8145H32.8926ZM44.8164 60.4492V61.3379H43.5078V65.8496H42.4238V57.041H43.5078V60.4492H44.8164ZM37.9805 57.9004V62.7734C39.1572 62.7539 40.4121 62.6514 41.7402 62.373L41.8574 63.291C40.373 63.584 38.957 63.6719 37.6484 63.6719H36.9062V57.9004H37.9805ZM49.6113 62.207V63.1543H50.7734V62.207H51.7793V65.0098C52.8145 64.5752 53.293 63.6816 53.293 62.8418V62.1387H54.377V62.8418C54.377 63.7598 54.8457 64.6484 55.9395 65.0195L55.3828 65.8301C54.6064 65.5518 54.1035 65.0146 53.8301 64.3457C53.5322 64.9951 53.0293 65.5322 52.2969 65.8301L51.7793 65.0586V65.7617H48.5957V62.207H49.6113ZM49.6113 64.9316H50.7734V63.9648H49.6113V64.9316ZM50.0605 57.4023C51.1982 57.4023 52.0967 58.0371 52.3262 58.9941H53.918V57.041H55.002V61.7188H53.918V59.8926H52.3262C52.1113 60.874 51.2031 61.5234 50.0605 61.5234C48.7031 61.5234 47.7266 60.6738 47.7266 59.4531C47.7266 58.2422 48.7031 57.4023 50.0605 57.4023ZM50.0605 58.3008C49.2988 58.3008 48.7617 58.75 48.7617 59.4531C48.7617 60.166 49.2988 60.6348 50.0605 60.6348C50.8027 60.6348 51.3301 60.166 51.3398 59.4531C51.3301 58.75 50.8027 58.3008 50.0605 58.3008ZM63.5957 57.041V65.8789H62.502V57.041H63.5957ZM58.8398 57.6855C60.168 57.6855 61.1348 58.8965 61.1445 60.8008C61.1348 62.7246 60.168 63.9258 58.8398 63.9258C57.502 63.9258 56.5352 62.7246 56.5352 60.8008C56.5352 58.8965 57.502 57.6855 58.8398 57.6855ZM58.8398 58.6621C58.0879 58.6621 57.5801 59.4531 57.5801 60.8008C57.5801 62.1582 58.0879 62.9492 58.8398 62.9492C59.582 62.9492 60.0898 62.1582 60.0898 60.8008C60.0898 59.4531 59.582 58.6621 58.8398 58.6621ZM15.7051 71.041V79.8789H14.6211V74.7129H12.0918V73.834H14.6211V71.041H15.7051ZM9.8457 72.0078V76.8809C11.0322 76.8613 12.209 76.7686 13.4492 76.5293L13.5762 77.418C12.1504 77.7109 10.832 77.7891 9.48438 77.7891H8.76172L8.76172 72.0078H9.8457ZM24.9922 76.041V76.9199H21.4766V79.8594H20.4023V76.9199H16.9258V76.041H24.9922ZM24.0059 71.4902V75.0059H17.9121L17.9121 71.4902H24.0059ZM18.9766 72.3594L18.9766 74.1562H22.9219L22.9219 72.3594H18.9766ZM35.5 71.041V76.5879H34.4648V74.1855H33.6055V76.2949H32.5898V71.2168H33.6055V73.3066H34.4648V71.041H35.5ZM32.2969 71.998V72.8477H27.9023V71.998H29.5723V71.1191H30.6465V71.998H32.2969ZM30.1094 73.209C31.2324 73.209 32.0234 73.8145 32.0332 74.7324C32.0234 75.6504 31.2324 76.2559 30.1094 76.2559C29.0059 76.2559 28.2051 75.6504 28.2148 74.7324C28.2051 73.8145 29.0059 73.209 30.1094 73.209ZM30.1094 73.9902C29.5625 73.9902 29.1816 74.2734 29.1816 74.7324C29.1816 75.1914 29.5527 75.4746 30.1094 75.4746C30.666 75.4746 31.0469 75.1914 31.0469 74.7324C31.0469 74.2734 30.666 73.9902 30.1094 73.9902ZM32.5215 76.6953C34.4062 76.6953 35.5391 77.2715 35.5488 78.2871C35.5391 79.2832 34.4062 79.8594 32.5215 79.8594C30.6367 79.8594 29.4941 79.2832 29.4941 78.2871C29.4941 77.2715 30.6367 76.6953 32.5215 76.6953ZM32.5215 77.5254C31.2617 77.5156 30.5781 77.7695 30.5781 78.2871C30.5781 78.7754 31.2617 79.0293 32.5215 79.0293C33.7715 79.0293 34.4551 78.7754 34.4551 78.2871C34.4551 77.7695 33.7715 77.5156 32.5215 77.5254ZM44.6406 75.4844V76.3535H36.5938V75.4844H40.0605V74.6348H37.6387V71.2559H38.7129V72.1348H42.5215V71.2559H43.5957V74.6348H41.1543V75.4844H44.6406ZM43.6543 77.0566V79.8691H42.5703V77.916H37.4824V77.0566H43.6543ZM38.7129 73.7656H42.5215V72.9453H38.7129V73.7656ZM52.1504 71.041V74.5566H53.5078V75.4551H52.1504V79.8691H51.0762V71.041H52.1504ZM50.3926 72.3984V73.2676H45.1875V72.3984H47.2773V71.168H48.3613V72.3984H50.3926ZM47.8242 73.8438C49.0938 73.8438 50.041 74.7031 50.041 75.9238C50.041 77.1445 49.0938 77.9941 47.8242 77.9941C46.5352 77.9941 45.5879 77.1445 45.5977 75.9238C45.5879 74.7031 46.5352 73.8438 47.8242 73.8438ZM47.8242 74.7324C47.1309 74.7324 46.6328 75.2012 46.6328 75.9238C46.6328 76.6465 47.1309 77.1055 47.8242 77.0957C48.498 77.1055 48.9961 76.6465 49.0059 75.9238C48.9961 75.2012 48.498 74.7324 47.8242 74.7324ZM57.2285 72.8379C57.2285 73.9316 57.9805 75.0059 59.3867 75.4453L58.8301 76.2949C57.8291 75.9678 57.1016 75.3086 56.7012 74.4688C56.3008 75.3818 55.5537 76.1094 54.5039 76.4707L53.9473 75.6113C55.3633 75.1426 56.125 74 56.1348 72.8379V72.584H54.2305V71.7148H59.084V72.584H57.2285V72.8379ZM61.2324 71.0508V77.457H60.1387V71.0508H61.2324ZM61.4766 78.8145V79.6934H55.3926V76.8711H56.4863V78.8145H61.4766ZM71.8574 71.041V72.8184H73.0879V73.7168H71.8574V75.4746H70.7734V71.041H71.8574ZM69.377 71.4902V75.1035H65.1973V71.4902H69.377ZM66.2617 72.3496V74.2441H68.3125V72.3496H66.2617ZM71.8574 75.8555V78.1699H67.1699V78.9023H72.1309V79.7617H66.0957V77.3789H70.7734V76.6953H66.0859V75.8555H71.8574ZM80.9102 71.041V79.8691H79.8164V71.041H80.9102ZM78.2734 71.9785C78.2734 74.6055 77.2578 76.8418 74.1621 78.3066L73.5957 77.4375C75.9053 76.3389 76.9795 74.8447 77.1699 72.8379H74.0449V71.9785H78.2734ZM83.2539 79.0781C82.834 79.0781 82.4922 78.7363 82.4922 78.3164C82.4922 77.9062 82.834 77.5645 83.2539 77.5645C83.6543 77.5645 84.0059 77.9062 84.0059 78.3164C84.0059 78.7363 83.6543 79.0781 83.2539 79.0781ZM85.9785 79.0781C85.5586 79.0781 85.2168 78.7363 85.2168 78.3164C85.2168 77.9062 85.5586 77.5645 85.9785 77.5645C86.3789 77.5645 86.7305 77.9062 86.7305 78.3164C86.7305 78.7363 86.3789 79.0781 85.9785 79.0781ZM88.7031 79.0781C88.2832 79.0781 87.9414 78.7363 87.9414 78.3164C87.9414 77.9062 88.2832 77.5645 88.7031 77.5645C89.1035 77.5645 89.4551 77.9062 89.4551 78.3164C89.4551 78.7363 89.1035 79.0781 88.7031 79.0781ZM16.5156 88.4492V89.3379H15.207V93.8496H14.123V85.041H15.207V88.4492H16.5156ZM9.67969 85.9004V90.7734C10.8564 90.7539 12.1113 90.6514 13.4395 90.373L13.5566 91.291C12.0723 91.584 10.6563 91.6719 9.34766 91.6719H8.60547V85.9004H9.67969ZM26.9258 85.041V93.8691H25.8906V85.041H26.9258ZM25.0996 85.2559V93.4492H24.0645V90.5H22.6875V89.6113H24.0645V88.3027H22.8438C22.4287 89.7676 21.5059 91.0273 19.8555 92.0039L19.2207 91.2324C21.0518 90.1533 21.8916 88.7715 22.0527 86.9941H19.6895V86.1152H23.127C23.127 86.5596 23.0977 86.9941 23.0391 87.4141H24.0645V85.2559H25.0996ZM35.998 89.377V90.2559H27.9512V89.377H31.4277V88.1465H32.502V89.377H35.998ZM32.5117 85.5195C32.5117 86.5938 33.6934 87.5703 35.5391 87.8047L35.1191 88.6543C33.6689 88.4297 32.5166 87.7754 31.9551 86.8477C31.3887 87.7754 30.2363 88.4297 28.7813 88.6543L28.3906 87.8047C30.207 87.5703 31.4082 86.5742 31.4082 85.5195V85.1875H32.5117V85.5195ZM35.0117 90.959V93.8691H33.9277V91.8086H28.8398V90.959H35.0117ZM46.3398 85.041L46.3398 93.8691H45.2461L45.2461 85.041H46.3398ZM43.7031 85.9785C43.7031 88.6055 42.6875 90.8418 39.5918 92.3066L39.0254 91.4375C41.335 90.3389 42.4092 88.8447 42.5996 86.8379H39.4746V85.9785H43.7031ZM55.002 90.6855V93.8789H53.918V91.5547H48.9863V90.6855H55.002ZM55.002 85.041L55.002 90.2559H53.918L53.918 88.127H52.3262C52.1113 89.1475 51.2031 89.8359 50.0605 89.8359C48.7324 89.8359 47.7266 88.9375 47.7266 87.668C47.7266 86.418 48.7324 85.5195 50.0605 85.5293C51.208 85.5195 52.1162 86.2129 52.3359 87.2285H53.918V85.041H55.002ZM50.0605 86.4473C49.3184 86.4473 48.7617 86.9355 48.7617 87.668C48.7617 88.4297 49.3184 88.9082 50.0605 88.918C50.7832 88.9082 51.3301 88.4297 51.3398 87.668C51.3301 86.9355 50.7832 86.4473 50.0605 86.4473ZM60.5586 86.4473V87.3164H56.2324V86.4473H57.873V85.2949H58.9473V86.4473H60.5586ZM58.4102 87.7852C59.5332 87.7852 60.334 88.6348 60.334 89.8359C60.334 91.0566 59.5332 91.916 58.4102 91.916C57.2969 91.916 56.4766 91.0566 56.4863 89.8359C56.4766 88.6348 57.2969 87.7852 58.4102 87.7852ZM58.4102 88.6836C57.834 88.6836 57.4336 89.1426 57.4434 89.8359C57.4336 90.5488 57.834 90.998 58.4102 90.9883C58.9766 90.998 59.377 90.5488 59.377 89.8359C59.377 89.1426 58.9766 88.6836 58.4102 88.6836ZM63.8398 85.041L63.8398 93.8691H62.8047L62.8047 89.5527H61.9453L61.9453 93.4688H60.9297L60.9297 85.2266H61.9453V88.6738H62.8047V85.041H63.8398ZM72.9414 89.9141V90.8027H70.9883V93.8691H69.9043V90.8027H67.9316V93.8691H66.8379V90.8027H64.8945V89.9141H72.9414ZM72.1992 85.5391V86.3984H69.5527C69.6357 87.3604 70.793 88.2832 72.5215 88.498L72.1309 89.3574C70.627 89.1377 69.4551 88.4443 68.918 87.4824C68.3809 88.4443 67.209 89.1377 65.7246 89.3574L65.3145 88.498C67.0381 88.2832 68.1904 87.3604 68.293 86.3984H65.6367V85.5391H72.1992ZM80.9102 85.041V93.8691H79.8164V85.041H80.9102ZM78.2734 85.9785C78.2734 88.6055 77.2578 90.8418 74.1621 92.3066L73.5957 91.4375C75.9053 90.3389 76.9795 88.8447 77.1699 86.8379H74.0449V85.9785H78.2734ZM83.2539 93.0781C82.834 93.0781 82.4922 92.7363 82.4922 92.3164C82.4922 91.9062 82.834 91.5645 83.2539 91.5645C83.6543 91.5645 84.0059 91.9062 84.0059 92.3164C84.0059 92.7363 83.6543 93.0781 83.2539 93.0781ZM85.9785 93.0781C85.5586 93.0781 85.2168 92.7363 85.2168 92.3164C85.2168 91.9062 85.5586 91.5645 85.9785 91.5645C86.3789 91.5645 86.7305 91.9062 86.7305 92.3164C86.7305 92.7363 86.3789 93.0781 85.9785 93.0781ZM88.7031 93.0781C88.2832 93.0781 87.9414 92.7363 87.9414 92.3164C87.9414 91.9062 88.2832 91.5645 88.7031 91.5645C89.1035 91.5645 89.4551 91.9062 89.4551 92.3164C89.4551 92.7363 89.1035 93.0781 88.7031 93.0781ZM11.7695 103.768V105.193C12.5361 105.154 13.3076 105.086 14.0352 104.979L14.123 105.779C12.1406 106.141 10.0215 106.16 8.46875 106.16L8.33203 105.281C9.02051 105.276 9.83105 105.271 10.6855 105.242V103.768H11.7695ZM13.6738 100.125V101.004H11.7891C11.8379 101.946 12.585 102.796 13.918 103.133L13.4199 103.982C12.375 103.699 11.6279 103.089 11.2324 102.303C10.8418 103.133 10.1045 103.768 9.05469 104.051L8.53711 103.23C9.87012 102.864 10.6025 101.995 10.666 101.004H8.80078V100.125H10.6855V99.1191H11.7695V100.125H13.6738ZM15.6465 99.041V107.879H14.5625V99.041H15.6465ZM24.1426 99.8516V100.701C24.1328 101.795 24.1328 103.025 23.791 104.871L22.6973 104.754C23.0391 103.035 23.0391 101.78 23.0488 100.721H17.7754V99.8516H24.1426ZM24.9824 105.838V106.727H16.9355V105.838H19.9043L19.9043 102.771H20.9785L20.9785 105.838H24.9824ZM28.4395 99.6562C29.8359 99.6465 30.8613 100.535 30.8711 101.785C30.8613 103.045 29.8359 103.924 28.4395 103.924C27.0527 103.924 26.0176 103.045 26.0176 101.785C26.0176 100.535 27.0527 99.6465 28.4395 99.6562ZM28.4395 100.594C27.668 100.594 27.0918 101.053 27.0918 101.785C27.0918 102.527 27.668 102.977 28.4395 102.977C29.2207 102.977 29.8066 102.527 29.8066 101.785C29.8066 101.053 29.2207 100.594 28.4395 100.594ZM32.9316 99.041V107.879H31.8477V99.041H32.9316ZM25.6172 105.145C27.209 105.145 29.416 105.125 31.3203 104.852L31.4082 105.643C29.4258 106.023 27.3066 106.033 25.7539 106.033L25.6172 105.145ZM36.9551 107V99.9297H41.4863V100.994H38.2246V102.928H41.1738V103.992H38.2246V107H36.9551ZM42.5605 107V99.9297H47.1602V100.994H43.8301V102.928H46.916V103.992H43.8301V105.926H47.1797V107H42.5605ZM49.0938 107.078C48.6738 107.078 48.332 106.736 48.332 106.316C48.332 105.906 48.6738 105.564 49.0938 105.564C49.4941 105.564 49.8457 105.906 49.8457 106.316C49.8457 106.736 49.4941 107.078 49.0938 107.078ZM51.8184 107.078C51.3984 107.078 51.0566 106.736 51.0566 106.316C51.0566 105.906 51.3984 105.564 51.8184 105.564C52.2188 105.564 52.5703 105.906 52.5703 106.316C52.5703 106.736 52.2188 107.078 51.8184 107.078ZM54.543 107.078C54.123 107.078 53.7813 106.736 53.7813 106.316C53.7813 105.906 54.123 105.564 54.543 105.564C54.9434 105.564 55.2949 105.906 55.2949 106.316C55.2949 106.736 54.9434 107.078 54.543 107.078ZM11.6426 114.838C11.6426 115.932 12.3945 117.006 13.8008 117.445L13.2441 118.295C12.2432 117.968 11.5156 117.309 11.1152 116.469C10.7148 117.382 9.96777 118.109 8.91797 118.471L8.36133 117.611C9.77734 117.143 10.5391 116 10.5488 114.838V114.584H8.64453V113.715H13.498V114.584H11.6426V114.838ZM15.6465 113.051L15.6465 119.457H14.5527L14.5527 113.051H15.6465ZM15.8906 120.814V121.693H9.80664V118.871H10.9004V120.814H15.8906ZM24.1133 113.041V116.43H25.1875V117.338H24.1133L24.1133 121.869H23.0293V113.041H24.1133ZM19.0938 115.404C19.0938 116.415 19.2012 117.699 19.8359 118.637C20.4512 117.709 20.5684 116.435 20.5684 115.404V114.73H20.002V113.852H22.4629V114.73H21.6035V115.404C21.6035 116.811 21.8184 118.402 22.9219 119.213L22.2285 119.994C21.6328 119.535 21.2764 118.827 21.0664 118.002C20.8516 118.847 20.4707 119.599 19.8262 120.072C19.1914 119.599 18.8154 118.842 18.6055 118.002C18.3906 118.822 18.0342 119.535 17.4434 119.994L16.75 119.213C17.8535 118.393 18.0684 116.781 18.0684 115.404V114.73H17.082V113.852H19.6602V114.73H19.0938V115.404ZM33.6445 119.945V120.844H25.5781V119.945H29.0547V118.51H26.5352V115.619H31.6133V114.525H26.5156V113.646H32.6875V116.479H27.6191V117.621H32.8926V118.51H30.1289V119.945H33.6445ZM44.8164 116.449V117.338H43.5078V121.85H42.4238V113.041H43.5078V116.449H44.8164ZM37.9805 113.9V118.773C39.1572 118.754 40.4121 118.651 41.7402 118.373L41.8574 119.291C40.373 119.584 38.957 119.672 37.6484 119.672H36.9062V113.9H37.9805ZM49.6113 118.207V119.154H50.7734V118.207H51.7793V121.01C52.8145 120.575 53.293 119.682 53.293 118.842V118.139H54.377V118.842C54.377 119.76 54.8457 120.648 55.9395 121.02L55.3828 121.83C54.6064 121.552 54.1035 121.015 53.8301 120.346C53.5322 120.995 53.0293 121.532 52.2969 121.83L51.7793 121.059V121.762H48.5957V118.207H49.6113ZM49.6113 120.932H50.7734V119.965H49.6113V120.932ZM50.0605 113.402C51.1982 113.402 52.0967 114.037 52.3262 114.994H53.918V113.041H55.002V117.719H53.918V115.893H52.3262C52.1113 116.874 51.2031 117.523 50.0605 117.523C48.7031 117.523 47.7266 116.674 47.7266 115.453C47.7266 114.242 48.7031 113.402 50.0605 113.402ZM50.0605 114.301C49.2988 114.301 48.7617 114.75 48.7617 115.453C48.7617 116.166 49.2988 116.635 50.0605 116.635C50.8027 116.635 51.3301 116.166 51.3398 115.453C51.3301 114.75 50.8027 114.301 50.0605 114.301ZM58.6641 113.686C59.8604 113.686 60.7441 114.682 60.9004 116.293H62.5801V113.041H63.6543V121.879H62.5801V117.172H60.9102C60.793 118.876 59.8945 119.926 58.6641 119.926C57.3359 119.926 56.3984 118.725 56.3984 116.801C56.3984 114.896 57.3359 113.686 58.6641 113.686ZM58.6641 114.662C57.9316 114.662 57.4336 115.453 57.4434 116.801C57.4336 118.158 57.9316 118.949 58.6641 118.949C59.3965 118.949 59.8848 118.158 59.8945 116.801C59.8848 115.453 59.3965 114.662 58.6641 114.662ZM72.0625 117.055V117.914H69.4453V119.936H72.9609V120.824H64.8945V119.936H68.3711V117.914H65.8711V113.695H71.9941V114.564H66.9551V117.055H72.0625ZM74.6113 121.078C74.1914 121.078 73.8496 120.736 73.8496 120.316C73.8496 119.906 74.1914 119.564 74.6113 119.564C75.0117 119.564 75.3633 119.906 75.3633 120.316C75.3633 120.736 75.0117 121.078 74.6113 121.078ZM77.3359 121.078C76.916 121.078 76.5742 120.736 76.5742 120.316C76.5742 119.906 76.916 119.564 77.3359 119.564C77.7363 119.564 78.0879 119.906 78.0879 120.316C78.0879 120.736 77.7363 121.078 77.3359 121.078ZM12.3555 127.998V128.652C12.3457 129.443 12.3457 130.469 12.1504 131.855L11.1445 131.787C11.3301 130.557 11.3496 129.614 11.3496 128.877H8.53711V127.998H12.3555ZM10.4707 130.469V132.9C11.2275 132.866 11.9941 132.817 12.6387 132.734L12.707 133.525C11.2813 133.789 9.45508 133.838 8.32227 133.838L8.17578 132.939C8.55176 132.939 8.99609 132.935 9.47461 132.92V130.469H10.4707ZM15.9492 127.041L15.9492 135.869H14.9238V131.533H14.084V135.439H13.0781L13.0781 127.207H14.084L14.084 130.645H14.9238L14.9238 127.041H15.9492ZM23.8984 127.041V129.629H25.1289V130.527H23.8984V133.496H22.8145V127.041H23.8984ZM24.25 134.814V135.693H18.2441V132.822H19.3281V134.814H24.25ZM19.416 127.627C20.7539 127.627 21.7891 128.555 21.7988 129.854C21.7891 131.133 20.7539 132.07 19.416 132.07C18.0781 132.07 17.0234 131.133 17.0332 129.854C17.0234 128.555 18.0781 127.627 19.416 127.627ZM19.416 128.574C18.6738 128.574 18.0879 129.072 18.0977 129.854C18.0879 130.615 18.6738 131.113 19.416 131.113C20.1582 131.113 20.7344 130.615 20.7344 129.854C20.7344 129.072 20.1582 128.574 19.416 128.574ZM33.8008 130.449V131.338H32.4922V135.85H31.4082V127.041H32.4922V130.449H33.8008ZM26.9648 127.9V132.773C28.1416 132.754 29.3965 132.651 30.7246 132.373L30.8418 133.291C29.3574 133.584 27.9414 133.672 26.6328 133.672H25.8906V127.9H26.9648ZM35.2949 135.078C34.875 135.078 34.5332 134.736 34.5332 134.316C34.5332 133.906 34.875 133.564 35.2949 133.564C35.6953 133.564 36.0469 133.906 36.0469 134.316C36.0469 134.736 35.6953 135.078 35.2949 135.078ZM38.0195 135.078C37.5996 135.078 37.2578 134.736 37.2578 134.316C37.2578 133.906 37.5996 133.564 38.0195 133.564C38.4199 133.564 38.7715 133.906 38.7715 134.316C38.7715 134.736 38.4199 135.078 38.0195 135.078ZM40.7441 135.078C40.3242 135.078 39.9824 134.736 39.9824 134.316C39.9824 133.906 40.3242 133.564 40.7441 133.564C41.1445 133.564 41.4961 133.906 41.4961 134.316C41.4961 134.736 41.1445 135.078 40.7441 135.078ZM42.9219 132.832C42.9316 131.592 43.2832 131.211 43.8984 130.83C44.3184 130.566 44.6309 130.234 44.6309 129.746C44.6309 129.199 44.2109 128.848 43.6738 128.848C43.1855 128.848 42.7168 129.16 42.6875 129.814H41.4668C41.4961 128.506 42.4824 127.832 43.6836 127.832C45.002 127.832 45.9102 128.564 45.9102 129.727C45.9102 130.518 45.5098 131.035 44.875 131.416C44.3086 131.758 44.0742 132.1 44.0645 132.832V132.92H42.9219V132.832ZM43.5273 135.078C43.1074 135.078 42.7656 134.736 42.7656 134.316C42.7656 133.906 43.1074 133.564 43.5273 133.564C43.9277 133.564 44.2793 133.906 44.2793 134.316C44.2793 134.736 43.9277 135.078 43.5273 135.078Z" fill="black"/>
<path d="M11.3511 12.7954V11.8677H16.8296V12.7954H14.6323V18.938H13.5581V12.7954H11.3511ZM19.3101 19.0454C17.8062 19.0454 16.8296 17.9517 16.8296 16.311C16.8296 14.6606 17.8062 13.5669 19.3101 13.5669C20.8042 13.5669 21.7808 14.6606 21.7808 16.311C21.7808 17.9517 20.8042 19.0454 19.3101 19.0454ZM19.3101 18.1763C20.2671 18.1763 20.7261 17.3267 20.7261 16.311C20.7261 15.2954 20.2671 14.4263 19.3101 14.4263C18.3335 14.4263 17.8745 15.2954 17.8745 16.311C17.8745 17.3267 18.3335 18.1763 19.3101 18.1763ZM23.4897 19.0063C23.1089 19.0063 22.7866 18.6938 22.7964 18.313C22.7866 17.9321 23.1089 17.6196 23.4897 17.6196C23.8608 17.6196 24.1831 17.9321 24.1831 18.313C24.1831 18.6938 23.8608 19.0063 23.4897 19.0063ZM34.9741 11.0181V19.7681H34.0757V15.2563H33.0015V19.3481H32.1323V11.2231H33.0015V14.4946H34.0757V11.0181H34.9741ZM31.3511 12.063C31.3511 14.4067 30.687 16.5259 28.0308 18.0005L27.4839 17.3364C28.7778 16.6235 29.5542 15.7642 29.9937 14.7778L27.6304 15.0317L27.5132 14.2212L30.2476 14.0552C30.3501 13.6597 30.4136 13.2446 30.4429 12.8149H27.9526V12.063H31.3511ZM43.3433 11.0181V19.7681H42.4155V11.0181H43.3433ZM39.3882 13.8306C39.3882 15.2271 40.3159 16.6528 41.6733 17.229L41.1655 17.9419C40.1597 17.5024 39.354 16.5942 38.9487 15.4907C38.5532 16.6577 37.7622 17.6294 36.7417 18.0884L36.2241 17.3755C37.5815 16.77 38.48 15.2954 38.48 13.8306V13.2544H36.4878V12.5122H38.4702V11.1938H39.3882V12.5122H41.3511V13.2544H39.3882V13.8306ZM48.1284 11.9556V15.0708H45.9116V16.8677C46.8638 16.8628 47.772 16.8286 48.8511 16.6333L48.9292 17.395C47.7183 17.6099 46.7222 17.6392 45.6187 17.6489H45.0132V14.3286H47.2397V12.7075H45.0034V11.9556H48.1284ZM52.2495 11.0181V19.7681H51.3608V11.0181H52.2495ZM50.4526 11.2134V19.3188H49.5737V14.8657H48.5386V14.1138H49.5737V11.2134H50.4526ZM60.6772 11.0181V19.7876H59.7593V15.0122H58.021V14.2505H59.7593V11.0181H60.6772ZM57.8745 11.7993V12.5513H54.7202V14.2505H57.5034V14.9927H54.7202V16.9458C56.1851 16.9409 57.2007 16.9067 58.3628 16.7017L58.4604 17.4536C57.1909 17.6587 56.0874 17.7075 54.4663 17.7173H53.7827V11.7993L57.8745 11.7993ZM63.1772 16.4575C62.5229 15.8032 62.1714 14.9927 62.1616 14.0942C62.1714 12.7856 63.1479 11.7407 64.4175 11.7407C65.1401 11.7407 65.7554 12.0728 66.1655 12.5903C66.5854 12.0728 67.2104 11.7407 67.9331 11.7407C69.1929 11.7407 70.1792 12.7856 70.1792 14.0942C70.1792 14.9927 69.8276 15.8032 69.1636 16.4575L66.1655 19.4556L63.1772 16.4575Z" fill="black"/>
</svg>
