<svg width="1024" height="1024" viewBox="0 0 1024 1024" fill="none" xmlns="http://www.w3.org/2000/svg">
<g clip-path="url(#clip0_616_17)">
<rect width="1024" height="1024" fill="url(#paint0_linear_616_17)"/>
<path d="M-132.353 114.149C-38.5379 67.4034 55.3598 15.0031 153.425 -22.851C177.42 -32.1136 193.441 -33.0386 217.869 -27.851C254.263 -20.122 254.536 -22.851 254.536 27.2602C241.642 64.2877 224.741 99.8612 207.425 135.038C160.46 230.439 57.0531 420.225 2.31348 507.705C-28.5552 557.036 -61.1236 605.498 -97.3532 651.038C-153.361 721.438 -182.876 742.318 -252.575 788.705C-280.303 807.158 -353.21 855.233 -346.575 822.594C-344.006 809.953 -337.037 798.55 -330.798 787.26C-305.986 742.363 -284.441 715.782 -247.798 677.26C-144.304 568.459 -18.1098 479.582 110.313 402.927C257.678 314.966 416.492 234.058 585.536 198.371C625.59 189.915 665.633 183.027 706.536 180.593C738.628 178.684 776.853 174.308 808.758 181.038C836.441 186.877 879.726 224.661 867.425 256.149C854.218 289.954 823.666 322.206 800.536 348.705C742.309 415.411 675.702 474.414 609.758 533.26C486.702 643.07 359.827 751.713 223.202 844.482C190.264 866.848 153.393 891.976 114.98 904.816C101.255 909.404 89.8888 908.732 81.4246 896.371C70.2036 879.985 72.617 859.972 77.6468 841.705C88.6059 801.902 108.398 764.311 135.758 733.371C188.558 673.662 259.807 628.6 328.536 589.927C430.813 532.376 540.584 485.842 655.202 459.705C756.915 436.51 871.102 414.77 975.425 434.594C1020.02 443.066 1068.78 461.904 1079.2 511.149C1090.91 566.47 1034.83 615.068 1001.09 649.038C863.722 787.331 705.089 904.57 551.647 1024.15" stroke="black" stroke-width="100" stroke-linecap="round"/>
<path d="M255.784 496.855C217.237 496.855 184.605 470.342 184.605 418.946C184.605 368.367 218.461 339.406 257.008 339.406C276.791 339.406 292.699 348.584 303.1 359.189L284.133 382.439C276.383 375.505 268.429 370.61 257.619 370.61C238.04 370.61 221.928 388.15 221.928 417.723C221.928 447.907 235.797 465.447 257.212 465.447C269.449 465.447 279.034 459.329 286.172 451.578L305.344 474.421C292.495 489.309 275.567 496.855 255.784 496.855ZM354.086 496.855C332.671 496.855 319.619 480.947 319.619 461.572C319.619 437.098 338.79 423.841 384.067 418.946C383.251 409.565 378.356 404.058 366.527 404.058C357.349 404.058 347.764 407.729 336.139 414.256L323.494 390.393C338.79 381.216 355.31 375.097 373.461 375.097C403.442 375.097 420.37 391.821 420.37 428.124V494H390.797L388.35 482.375H387.33C377.744 490.941 366.935 496.855 354.086 496.855ZM366.527 468.71C373.869 468.71 378.764 465.243 384.067 459.532V440.973C361.428 443.828 354.086 450.559 354.086 458.717C354.086 465.447 358.981 468.71 366.527 468.71ZM488.311 496.855C459.146 496.855 447.317 478.296 447.317 450.967V406.302H431.613V379.38L449.56 377.952L453.639 347.156H483.62V377.952H510.949V406.302H483.62V450.559C483.62 463.408 489.738 468.506 498.304 468.506C501.975 468.506 506.054 467.283 508.91 466.263L514.62 492.572C508.502 494.408 500.14 496.855 488.311 496.855ZM578.863 496.855C546.231 496.855 521.145 474.421 521.145 435.874C521.145 397.532 549.698 375.097 582.126 375.097C596.199 375.097 607.212 379.992 615.982 387.538L599.054 410.584C593.751 406.302 589.264 404.466 584.37 404.466C568.257 404.466 558.264 416.703 558.264 435.874C558.264 455.25 568.869 467.487 582.942 467.487C590.284 467.487 597.218 464.019 603.133 459.329L617.205 483.191C605.784 493.184 591.1 496.855 578.863 496.855ZM637.215 494V331.044H673.518V370.202L671.682 390.801C680.044 383.051 691.466 375.097 707.17 375.097C732.46 375.097 743.269 393.249 743.269 422.21V494H706.966V426.697C706.966 410.584 702.683 406.098 693.505 406.098C685.347 406.098 680.452 409.769 673.518 416.499V494H637.215ZM284.751 678V526.057H321.258V647.408H380.404V678H284.751ZM451.826 680.855C418.378 680.855 392.681 658.421 392.681 619.874C392.681 582.347 419.806 559.097 447.747 559.097C481.195 559.097 497.511 583.367 497.511 614.979C497.511 621.506 496.695 627.828 495.879 630.684H427.76C431.023 646.592 442.036 653.118 456.721 653.118C465.083 653.118 472.833 650.671 481.195 645.776L493.228 667.599C481.195 676.164 465.287 680.855 451.826 680.855ZM427.148 606.821H466.714C466.714 595.4 461.616 586.834 448.359 586.834C438.365 586.834 429.595 593.157 427.148 606.821ZM562.601 680.855C533.436 680.855 521.607 662.296 521.607 634.967V590.302H505.903V563.38L523.851 561.952L527.93 531.156H557.91V561.952H585.24V590.302H557.91V634.559C557.91 647.408 564.029 652.506 572.595 652.506C576.266 652.506 580.345 651.283 583.2 650.263L588.911 676.572C582.792 678.408 574.43 680.855 562.601 680.855ZM647.248 680.855C618.083 680.855 606.254 662.296 606.254 634.967V590.302H590.55V563.38L608.498 561.952L612.577 531.156H642.557V561.952H669.887V590.302H642.557V634.559C642.557 647.408 648.676 652.506 657.242 652.506C660.913 652.506 664.992 651.283 667.847 650.263L673.558 676.572C667.439 678.408 659.077 680.855 647.248 680.855ZM739.228 680.855C705.78 680.855 680.083 658.421 680.083 619.874C680.083 582.347 707.208 559.097 735.149 559.097C768.597 559.097 784.913 583.367 784.913 614.979C784.913 621.506 784.097 627.828 783.281 630.684H715.162C718.425 646.592 729.439 653.118 744.123 653.118C752.485 653.118 760.235 650.671 768.597 645.776L780.63 667.599C768.597 676.164 752.689 680.855 739.228 680.855ZM714.55 606.821H754.116C754.116 595.4 749.018 586.834 735.761 586.834C725.767 586.834 716.998 593.157 714.55 606.821ZM808.103 678V561.952H837.675L840.327 582.144H840.939C849.504 566.643 862.353 559.097 873.978 559.097C880.913 559.097 884.788 560.117 888.051 561.545L882.136 592.749C877.853 591.729 874.386 590.913 869.288 590.913C860.722 590.913 850.32 596.42 844.406 611.716V678H808.103Z" fill="#CCFF1B"/>
</g>
<defs>
<linearGradient id="paint0_linear_616_17" x1="512" y1="0" x2="502" y2="694" gradientUnits="userSpaceOnUse">
<stop stop-color="#34363A"/>
<stop offset="1" stop-color="#191A1B"/>
</linearGradient>
<clipPath id="clip0_616_17">
<rect width="1024" height="1024" fill="white"/>
</clipPath>
</defs>
</svg>
