<svg width="51" height="50" viewBox="0 0 51 50" fill="none" xmlns="http://www.w3.org/2000/svg">
<g id="Mask group">
<mask id="mask0_609_6382" style="mask-type:alpha" maskUnits="userSpaceOnUse" x="0" y="0" width="51" height="50">
<g id="Mask group_2">
<circle id="Ellipse 10" cx="25.5" cy="25" r="25" fill="#FFDB45"/>
</g>
</mask>
<g mask="url(#mask0_609_6382)">
<circle id="Ellipse 26" cx="0.500081" cy="47.9177" r="2.08333" fill="white"/>
<circle id="Ellipse 12" cx="8.83333" cy="4.16705" r="2.08333" fill="white"/>
<circle id="Ellipse 27" cx="8.83333" cy="20.834" r="2.08333" fill="white"/>
<circle id="Ellipse 53" cx="0.708455" cy="20.834" r="2.08333" fill="white"/>
<circle id="Ellipse 41" cx="8.83333" cy="37.5005" r="2.08333" fill="white"/>
<circle id="Ellipse 19" cx="4.66671" cy="12.5001" r="2.08333" fill="white"/>
<circle id="Ellipse 28" cx="4.66671" cy="29.1665" r="2.08333" fill="white"/>
<circle id="Ellipse 42" cx="4.66671" cy="45.8335" r="2.08333" fill="white"/>
<circle id="Ellipse 13" cx="17.1668" cy="4.16705" r="2.08333" fill="white"/>
<circle id="Ellipse 29" cx="17.1668" cy="20.834" r="2.08333" fill="white"/>
<circle id="Ellipse 43" cx="17.1668" cy="37.5005" r="2.08333" fill="white"/>
<circle id="Ellipse 20" cx="13.0001" cy="12.5001" r="2.08333" fill="white"/>
<circle id="Ellipse 30" cx="13.0001" cy="29.1665" r="2.08333" fill="white"/>
<circle id="Ellipse 44" cx="13.0001" cy="45.8335" r="2.08333" fill="white"/>
<circle id="Ellipse 14" cx="25.5002" cy="4.16705" r="2.08333" fill="white"/>
<circle id="Ellipse 31" cx="25.5002" cy="20.834" r="2.08333" fill="white"/>
<circle id="Ellipse 45" cx="25.5002" cy="37.5005" r="2.08333" fill="white"/>
<circle id="Ellipse 21" cx="21.3334" cy="12.5001" r="2.08333" fill="white"/>
<circle id="Ellipse 32" cx="21.3334" cy="29.1665" r="2.08333" fill="white"/>
<circle id="Ellipse 46" cx="21.3334" cy="45.8335" r="2.08333" fill="white"/>
<circle id="Ellipse 15" cx="33.8334" cy="4.16705" r="2.08333" fill="white"/>
<circle id="Ellipse 33" cx="33.8334" cy="20.834" r="2.08333" fill="white"/>
<circle id="Ellipse 47" cx="33.8334" cy="37.5005" r="2.08333" fill="white"/>
<circle id="Ellipse 22" cx="29.6668" cy="12.5001" r="2.08333" fill="white"/>
<circle id="Ellipse 34" cx="29.6668" cy="29.1665" r="2.08333" fill="white"/>
<circle id="Ellipse 48" cx="29.6668" cy="45.8335" r="2.08333" fill="white"/>
<circle id="Ellipse 16" cx="42.1668" cy="4.16705" r="2.08333" fill="white"/>
<circle id="Ellipse 35" cx="42.1668" cy="20.834" r="2.08333" fill="white"/>
<circle id="Ellipse 49" cx="42.1668" cy="37.5005" r="2.08333" fill="white"/>
<circle id="Ellipse 23" cx="38.0002" cy="12.5001" r="2.08333" fill="white"/>
<circle id="Ellipse 36" cx="38.0002" cy="29.1665" r="2.08333" fill="white"/>
<circle id="Ellipse 50" cx="38.0002" cy="45.8335" r="2.08333" fill="white"/>
<circle id="Ellipse 17" cx="50.5002" cy="4.16705" r="2.08333" fill="white"/>
<circle id="Ellipse 37" cx="50.5002" cy="20.834" r="2.08333" fill="white"/>
<circle id="Ellipse 51" cx="50.5002" cy="37.5005" r="2.08333" fill="white"/>
<circle id="Ellipse 24" cx="46.3334" cy="12.5001" r="2.08333" fill="white"/>
<circle id="Ellipse 38" cx="46.3334" cy="29.1665" r="2.08333" fill="white"/>
<circle id="Ellipse 52" cx="46.3334" cy="45.8335" r="2.08333" fill="white"/>
</g>
</g>
</svg>
