<svg width="146" height="235" viewBox="0 0 146 235" fill="none" xmlns="http://www.w3.org/2000/svg">
<path d="M110.303 65.294C110.388 60.2917 111.351 54.1739 110.483 49.1645C110.46 49.0331 109.94 48.5272 109.821 48.4451C106.632 46.2407 101.104 45.5928 97.4317 44.7009C90.7609 43.0807 83.7261 42.9523 76.9088 42.3672C69.6222 41.7418 62.3597 40.9176 55.0453 40.9123C50.6432 40.9092 46.6914 40.314 42.6251 42.4367C39.4561 44.091 38.4871 48.8272 37.2983 51.8592C36.7656 53.2177 35.51 56.3427 37.0055 57.3763C40.1651 59.5601 47.1597 59.8744 50.7408 60.1818C69.1605 61.7627 124.371 67.0436 105.951 65.4626" stroke="white" stroke-width="3.00533" stroke-linecap="round"/>
<path d="M52.5315 43.5279C49.7563 45.5202 43.438 50.0281 40.3924 52.3054C39.384 53.0595 36.3289 54.3934 37.5302 54.7706C38.9253 55.2088 45.4805 51.5891 46.788 51.1374C50.0441 50.0127 55.1635 46.6544 58.7591 46.7733C60.8116 46.8411 59.6264 46.916 57.4638 48.5296C56.91 48.9428 44.5937 57.8952 44.6104 57.9085C45.4234 58.5574 50.6293 56.0803 51.0453 55.9306C57.4629 53.6216 63.8731 51.2958 70.1888 48.7181C70.8986 48.4284 77.9787 44.3758 74.7928 47.3663C71.1021 50.8308 66.7677 53.569 63.1449 57.0896C59.0218 61.0963 73.8319 52.7854 78.8984 50.0681C79.5738 49.7059 86.6958 46.08 84.9334 48.5378C82.1249 52.4548 77.2769 55.7049 75.0409 59.9179C74.8435 60.2897 83.5978 56.3894 84.8181 55.8473C87.1455 54.8136 89.6471 54.1783 92.0741 53.4279C93.8882 52.867 97.6217 51.0399 99.6102 51.6048C99.6213 51.6079 93.6103 58.4096 92.9858 59.6508C92.5464 60.5243 101.728 58.4823 103.083 58.168C105.678 57.5666 107.366 56.73 106.149 59.9975C105.031 62.9993 108.88 62.3441 111.072 62.649" stroke="white" stroke-width="3.00533" stroke-linecap="round"/>
<path d="M79.3544 8.96195C75.286 11.5759 70.5212 13.2972 74.2907 17.7745C76.763 20.711 79.4976 20.2268 82.7552 18.4709C86.5271 16.4377 88.284 11.8014 83.9591 9.35716C81.9802 8.23879 79.8599 10.5518 78.0726 11.2616C77.2867 11.5737 75.1264 14.0208 76.9788 14.1798C79.0065 14.3539 81.0606 13.8267 82.9676 13.1878C83.9244 12.8672 85.3311 11.9102 83.5759 13.1195C82.1404 14.1086 80.4912 14.667 80.3223 16.6355" stroke="white" stroke-width="3.00533" stroke-linecap="round"/>
<path d="M81.5126 97.5222C79.1789 94.7846 76.6716 90.6006 72.6482 90.2552C71.1674 90.1281 69.193 90.5783 68.9445 92.347C68.8004 93.3719 68.6474 94.5614 68.939 95.5695C69.4905 97.4763 64.1599 95.2744 63.7909 95.1879C57.7843 93.78 50.6198 90.889 47.4109 97.5773C46.2735 99.9477 47.5793 100.497 47.4864 102.313C47.3494 104.988 44.8943 110.216 47.1674 112.346C47.5512 112.705 48.6793 112.98 48.6273 113.586C48.386 116.397 47.1027 119.167 46.6725 121.972C46.4285 123.563 45.2722 128.217 47.5747 129.008C50.2958 129.941 53.7914 129.981 56.6346 129.785C58.2405 129.675 58.4888 128.926 58.9959 130.349C59.8246 132.675 60.6761 134.327 63.1764 134.985C68.4548 136.375 72.0555 136.504 74.5144 131.681C75.5088 129.731 76.5975 129.76 78.6521 129.446C83.0299 128.778 87.1763 127.625 90.5174 124.561C91.6841 123.491 93.4731 121.27 93.0621 119.478C92.7486 118.11 91.3294 118.851 92.1466 116.809C93.7413 112.823 97.653 107.052 95.4168 102.571C94.5384 100.811 91.7534 101.746 91.0413 100.208C90.3823 98.7839 86.0718 97.4775 85.1877 98.922" stroke="white" stroke-width="3.00533" stroke-linecap="round"/>
<path d="M63.1672 96.4899C62.3201 97.1192 58.4558 99.2732 62.0862 99.2586C66.4622 99.241 70.9041 98.2626 75.2317 97.7061C76.2164 97.5795 78.9693 97.1114 78.2099 97.7509C76.3874 99.2852 74.3465 100.628 72.3949 101.981C66.8908 105.796 59.9074 109.228 55.3773 114.255C54.5951 115.123 54.2591 116.013 55.8393 115.891C61.6563 115.445 67.7321 113.3 73.3993 112.037C77.2707 111.174 82.4967 109.195 86.5825 109.343C88.4552 109.411 84.1113 112.204 82.5975 113.308C76.9001 117.466 71.6281 121.888 66.5887 126.814C66.0246 127.366 63.1732 129.545 63.013 130.574C62.7688 132.141 66.1661 130.176 67.7152 129.833C72.7517 128.715 78.4963 127.917 82.9242 125.295" stroke="white" stroke-width="3.00533" stroke-linecap="round"/>
<path d="M62.2936 68.7637C65.7375 68.9477 62.4049 67.8186 61.0284 68.4141C59.9118 68.8972 59.8838 70.4506 61.328 70.1869C62.9247 69.8953 62.9531 68.163 62.3277 69.0678C61.8114 69.8149 64.5033 69.4955 64.9385 69.5329" stroke="#2C2C2C" stroke-width="3.00533" stroke-linecap="round"/>
<path d="M83.284 70.5654C84.9418 71.6563 85.0877 70.1492 84.0376 70.2084C82.6731 70.2852 80.3065 70.8038 79.9623 72.4189C79.5615 74.2992 82.6451 72.3248 83.0464 71.9306C84.5623 70.4412 77.98 73.8425 76.9941 74.363" stroke="#2C2C2C" stroke-width="3.00533" stroke-linecap="round"/>
<path d="M69.413 74.2544C69.1646 79.0611 67.9215 85.9103 74.1974 86.593C75.8311 86.7706 77.1406 86.3375 78.7151 85.8964" stroke="#2C2C2C" stroke-width="3.00533" stroke-linecap="round"/>
<path d="M40.781 60.4112C38.5741 61.8379 35.9919 63.1875 34.4483 65.4099C33.68 66.5161 33.8588 68.0121 32.8495 68.9475C31.1485 70.5237 28.65 70.8819 26.8646 72.3495C24.9426 73.9294 24.3545 75.7037 24.4052 78.1928C24.4586 80.8126 26.6417 82.2195 24.2986 83.997C20.4853 86.8897 18.4199 91.802 24.1198 93.8011C24.9954 94.1081 25.3862 93.9421 25.0236 94.1497C22.7698 95.44 20.7054 97.452 20.0893 100.052C19.6978 101.704 20.0647 103.69 20.7918 105.202C21.1002 105.844 23.1374 107.487 22.9529 108.099C21.7931 111.942 15.2184 116.854 22.3383 118.769C25.5843 119.642 28.6537 119.379 31.8442 118.561C33.0396 118.254 32.4688 119.615 33.264 119.918C38.4569 121.896 40.0516 119.446 40.4211 115.14" stroke="white" stroke-width="3.00533" stroke-linecap="round"/>
<path d="M51.5456 61.3351C49.849 65.9874 47.3456 71.1257 46.5444 76.0868C46.3064 77.5609 47.282 77.7989 48.1229 78.7525C49.6101 80.4389 51.5804 83.5088 50.9413 85.9222C50.2722 88.4489 47.2021 88.7029 50.7581 89.4607" stroke="white" stroke-width="3.00533" stroke-linecap="round"/>
<path d="M97.0627 67.9527C97.5317 70.6217 100.761 79.1466 97.7276 81.263C95.8594 82.5663 94.758 83.8919 94.1167 86.1339C93.7835 87.2987 92.8319 90.7586 93.4992 91.9244C93.8089 92.4653 96.7133 92.3207 97.1368 92.3571" stroke="white" stroke-width="3.00533" stroke-linecap="round"/>
<path d="M110.564 68.5694C112.598 74.8337 114.193 82.6693 118.065 88.2195C119.379 90.1041 121.855 90.6668 123.36 92.4993C125.332 94.9001 127.733 98.8973 124.306 101.135C122.768 102.139 121.736 101.57 121.929 103.551C122.288 107.213 122.532 112.045 120.012 115.014C118.052 117.323 111.964 118.717 109.217 117.25C107.583 116.377 108.234 117.336 106.307 118.868C104.542 120.271 99.0361 123.699 96.6499 121.894C94.3573 120.16 92.62 116.347 90.9371 114.054" stroke="white" stroke-width="3.00533" stroke-linecap="round"/>
<path d="M95.2912 94.9095L90.6621 98.3075" stroke="white" stroke-width="3.00533" stroke-linecap="round"/>
<path d="M48.7159 62.7187C44.7653 69.1021 40.1545 73.4584 33.8773 77.6804C31.5434 79.2501 28.2037 80.6919 26.2708 82.7806C25.9987 83.0747 27.0656 83.0034 27.4617 82.9431C30.6075 82.4637 33.733 81.8401 36.8764 81.3415C39.1068 80.9877 44.6125 79.0381 43.646 81.0791C41.8605 84.8499 36.0393 88.0505 32.8635 90.5454C32.0735 91.166 29.8092 92.8661 30.8069 92.7484C35.1318 92.2382 39.3038 91.3102 43.6859 91.1429C43.9294 91.1336 51.0114 90.3779 49.3755 92.2337C45.8444 96.2394 40.7559 99.2407 36.2248 101.918C35.1407 102.559 21.976 108.902 29.123 108.508C31.3312 108.386 45.5965 105.764 41.8631 110.625C39.6876 113.458 37.7491 113.639 42.7128 113.71" stroke="white" stroke-width="3.00533" stroke-linecap="round"/>
<path d="M106.704 69.3224C108.424 70.3257 111.647 71.5632 109.684 73.9156C108.198 75.6955 106.228 77.0769 104.657 78.7855C103.642 79.8896 102.957 81.1389 105.16 80.9973C106.374 80.9193 107.712 80.4009 108.929 80.5979C110.175 80.7996 105.777 84.5955 105.622 84.7419C103.815 86.4499 102.183 88.3128 100.407 90.0474C98.4134 91.9953 109.2 89.6676 110.387 89.5787C115.67 89.183 108.905 94.4791 107.755 95.6782C104.813 98.7464 101.598 101.572 99.1762 105.093C98.8678 105.541 97.0559 107.535 98.6822 107.339C102.526 106.877 106.371 104.781 109.925 103.395C110.078 103.335 115.011 100.935 115.616 101.654C116.218 102.369 110.68 108.418 110.192 109.05C108.908 110.715 103.689 115.442 108.298 113.918" stroke="white" stroke-width="3.00533" stroke-linecap="round"/>
<path d="M65.3984 83.1269C65.0015 83.5396 59.683 88.1028 60.3589 89.2005C60.8838 90.0529 63.4682 89.9478 64.2596 90.0775" stroke="#2C2C2C" stroke-width="3.00533" stroke-linecap="round"/>
<path d="M85.8042 85.4204C86.2228 87.9602 86.5588 90.2033 85.2037 92.4172" stroke="#2C2C2C" stroke-width="3.00533" stroke-linecap="round"/>
<path d="M73.3255 16.0349C68.4977 20.3483 63.1697 24.4369 58.8724 29.3127C56.6147 31.8743 54.668 34.6983 52.3231 37.1845C51.5686 37.9845 49.5363 40.5572 50.3776 39.8489C52.5287 38.0378 54.3188 35.587 56.3345 33.6131C59.0991 30.906 62.4292 28.4625 64.923 25.4947C65.7748 24.481 67.274 23.3714 67.389 22.0315" stroke="#EA5666" stroke-width="3.00533" stroke-linecap="round"/>
<path d="M86.2888 16.6055C89.8786 25.2526 92.5841 34.4212 95.9584 42.9178" stroke="#EA5666" stroke-width="3.00533" stroke-linecap="round"/>
<path d="M74.5245 21.0175C73.9816 21.2913 61.1098 26.7192 68.1191 26.1606C71.2445 25.9115 74.3024 25.878 77.4278 26.1463C79.3111 26.3079 80.9593 25.8857 82.8126 25.5241C90.5506 24.0144 68.1661 31.3911 60.6806 33.8657C58.9819 34.4272 55.5251 36.313 59.3921 35.8937C65.7664 35.2025 72.0948 34.2875 78.4171 33.2193C79.98 32.9552 82.2324 32.0718 83.8729 32.1213C87.1654 32.2205 83.6055 34.524 82.4338 35.552C79.8086 37.8554 85.6255 36.4464 86.5565 37.3517C87.4628 38.2328 84.8302 39.2517 87.0398 39.4414" stroke="#EA5666" stroke-width="3.00533" stroke-linecap="round"/>
<path d="M54.1581 75.1138L53.9271 77.8048" stroke="#EA5666" stroke-width="3.00533" stroke-linecap="round"/>
<path d="M57.8334 76.5136C58.2255 78.0032 59.3886 79.2447 60.2011 80.5121" stroke="#EA5666" stroke-width="3.00533" stroke-linecap="round"/>
<path d="M87.5735 77.4396C86.5004 78.8683 86.3154 79.4641 86.2199 80.5765" stroke="#EA5666" stroke-width="3.00533" stroke-linecap="round"/>
<path d="M94.5241 78.5784L91.9555 83.2375" stroke="#EA5666" stroke-width="3.00533" stroke-linecap="round"/>
<path d="M30.2716 119.691C22.4991 139.656 14.4958 158.206 12.6727 179.447" stroke="#EA5666" stroke-width="3.00533" stroke-linecap="round"/>
<path d="M113.219 119.762L113.173 120.3" stroke="#EA5666" stroke-width="3.00533" stroke-linecap="round"/>
<path d="M111.066 119.577C113.394 130.149 116.702 140.918 115.886 151.859C115.514 156.839 115.004 161.737 114.074 166.643C113.243 171.035 112.778 175.431 112.397 179.873" stroke="#EA5666" stroke-width="3.00533" stroke-linecap="round"/>
<path d="M38.0675 123.613C36.399 126.339 30.8481 134.948 29.3568 138.769C27.6096 143.247 32.4894 140.14 33.6864 139.563C40.2983 136.374 47.104 133.487 53.9031 130.725C56.154 129.811 54.2479 131.218 53.4835 132.105C50.1494 135.975 46.0605 139.365 42.3761 142.899C37.8178 147.272 32.3491 150.826 28.6612 155.999C27.3771 157.8 25.0568 159.478 28.4474 157.788C34.6692 154.687 40.6507 151.017 46.6489 147.513C52.6204 144.024 57.9897 139.692 63.8612 136.128C65.0513 135.406 58.3729 143.534 57.8152 144.104C51.7736 150.278 45.1 155.803 38.6663 161.557C37.1858 162.881 35.4732 164.212 34.548 166.023C33.8344 167.419 36.4864 165.339 36.9128 165.141C46.6872 160.617 56.7695 156.926 66.2549 151.756C73.4998 147.807 79.9878 143.069 86.362 137.879C89.4818 135.338 92.8372 133.19 96.3326 131.204C96.8562 130.907 101.888 128.882 101.781 129.142C100.414 132.453 95.4249 135.401 92.9419 137.721C84.2901 145.803 76.096 154.369 67.6112 162.625C67.5862 162.65 62.1575 167.906 61.7303 168.326C60.784 169.255 57.8825 170.607 59.0389 171.257C60.2905 171.961 61.7817 170.406 63.1542 169.984C67.9869 168.498 72.8109 166.979 77.5662 165.257C84.9079 162.598 91.3227 159.537 97.6045 154.989C98.7005 154.195 99.8503 153.513 101.039 152.874C104.293 151.124 100.02 156.286 99.3504 157.458C97.1856 161.248 94.6902 164.778 92.3523 168.454C91.1949 170.274 94.568 169.221 95.4312 169.079C98.708 168.542 101.821 167.131 105.043 166.591C105.647 166.49 105.199 169.108 105.155 169.492C104.853 172.122 104.279 171.586 108.199 171.922" stroke="#EA5666" stroke-width="3.00533" stroke-linecap="round"/>
<path d="M78.9192 184.59C72.6264 184.482 60.2347 184.242 53.4094 184.208C50.621 184.194 47.3579 183.091 45.0567 184.666C43.9667 185.412 43.1513 186.627 42.3602 187.657C39.5312 191.341 36.1515 194.502 33.2973 198.145C32.1792 199.571 31.26 199.972 33.0834 200.988C37.4399 203.416 44.1046 202.747 48.8315 203.153C55.2901 203.707 61.7487 204.261 68.2072 204.816C70.242 204.99 71.3838 205.487 72.5268 203.62C75.6952 198.444 77.6049 192.547 80.7215 187.456C81.4713 186.231 82.0491 184.666 82.2226 187.163C82.4839 190.923 82.3764 194.846 82.0547 198.595C81.6969 202.763 80.807 206.815 80.4489 210.987C80.1149 214.878 80.7386 219.401 77.8487 222.33C77.2987 222.888 74.5814 226.416 73.4836 225.811C71.6823 224.818 71.5998 220.381 71.5323 218.716C71.3874 215.136 71.1534 211.901 71.4583 208.348" stroke="#4ECEAD" stroke-width="3.00533" stroke-linecap="round"/>
<path d="M32.3995 202.285C32.2375 208.072 32.6462 213.86 32.536 219.646C32.5234 220.307 32.2844 220.956 32.6733 221.555C33.7727 223.25 37.056 223.652 38.7651 224.277C42.22 225.54 45.3194 225.212 48.9381 225.421C56.337 225.85 63.7865 225.581 71.0101 226.201" stroke="#4ECEAD" stroke-width="3.00533" stroke-linecap="round"/>
<path d="M49.6246 184.787C49.4562 184.985 39.9711 194.627 46.8165 191.534C49.418 190.358 51.889 188.883 54.4426 187.61C56.3471 186.661 55.8988 187.835 54.9824 189.042C52.6251 192.147 49.0995 194.404 46.1726 196.93C43.4565 199.275 46.8068 196.407 47.1116 196.168C49.9129 193.966 52.7202 191.682 55.8127 189.896C57.5386 188.9 61.8802 186.398 58.5874 190.556C56.3061 193.437 48.558 201.213 51.4785 198.982C55.2038 196.137 60.4693 194.456 64.5375 192.121C64.5829 192.095 70.3483 188.25 70.7992 188.652C70.9242 188.764 66.7804 193.275 66.6552 193.417C64.4925 195.87 65.8114 194.38 63.8561 196.551C63.5479 196.893 62.5266 197.546 62.9812 197.62C64.6119 197.887 68.2972 194.931 69.6418 194.065C70.3961 193.579 68.923 196.201 68.6608 196.722" stroke="#4ECEAD" stroke-width="3.00533" stroke-linecap="round"/>
<path d="M38.4425 207.683C38.4793 207.683 52.6683 207.445 51.6774 209.3C50.4854 211.532 46.8639 213.57 44.9139 215.106C44.146 215.711 39.5564 219.005 42.7011 217.024C45.8046 215.069 49.1373 213.4 52.3247 211.585C54.5708 210.306 58.3758 207.193 61.0939 206.976C63.6747 206.77 57.8139 210.998 55.9554 212.8C53.9914 214.705 52.4592 216.105 50.4547 217.931C49.9888 218.355 47.5544 220.093 47.2695 221.001C46.8048 222.48 50.1021 219.731 51.4764 219.012C54.4564 217.453 57.4909 216.014 60.4028 214.327C65.6966 211.26 58.9498 217.992 57.8384 219.287C48.7166 229.917 63.8009 215.443 63.4452 219.588" stroke="#4ECEAD" stroke-width="3.00533" stroke-linecap="round"/>
<path d="M79.2402 199.799C77.5403 203.283 75.0392 207.221 74.0284 211.038C73.7187 212.208 75.217 210.417 75.4945 210.803C76.1114 211.662 74.782 215.185 74.5789 216.206" stroke="#4ECEAD" stroke-width="3.00533" stroke-linecap="round"/>
<path d="M112.938 15.6397L132.407 16.2262" stroke="#FFDB45" stroke-width="3.00533" stroke-linecap="round"/>
<path d="M123.811 8.98236L124.393 27.4664" stroke="#FFDB45" stroke-width="3.00533" stroke-linecap="round"/>
<path d="M129.639 10.5669L116.505 24.6206" stroke="#FFDB45" stroke-width="3.00533" stroke-linecap="round"/>
<path d="M120.166 13.5491L135.603 29.5129" stroke="#FFDB45" stroke-width="3.00533" stroke-linecap="round"/>
<path d="M18.3795 30.8374L30.7122 32.4381" stroke="#FFDB45" stroke-width="3.00533" stroke-linecap="round"/>
<path d="M30.5133 22.1196C27.2728 28.9524 23.1794 34.8545 19.1162 41.202" stroke="#FFDB45" stroke-width="3.00533" stroke-linecap="round"/>
<path d="M21.0867 24.5637L27.8664 40.3265" stroke="#FFDB45" stroke-width="3.00533" stroke-linecap="round"/>
<path d="M126.833 74.8453L137.505 76.8457" stroke="#FFDB45" stroke-width="3.00533" stroke-linecap="round"/>
<path d="M137.921 72.0017L129.6 80.5046" stroke="#FFDB45" stroke-width="3.00533" stroke-linecap="round"/>
<path d="M129.494 69.1097L134.983 80.9665" stroke="#FFDB45" stroke-width="3.00533" stroke-linecap="round"/>
<path d="M56.0671 191.846C55.8382 191.71 47.3999 186.163 47.7857 188.665C47.9856 189.962 48.8857 192.146 49.7484 193.171C50.5424 194.114 54.0357 194.759 54.8316 193.607C55.8928 192.072 63.4849 187.541 63.1306 191.669C62.9597 193.66 62.0873 195.616 59.5574 195.399C57.2454 195.2 57.9333 192.272 55.7525 194.108C53.6021 195.919 53.5257 196.44 52.6456 198.721C51.9104 200.627 51.3536 202.544 51.1781 204.589C51.0502 206.079 52.806 202.079 53.6672 200.857" stroke="#FFDB45" stroke-width="3.00533" stroke-linecap="round"/>
<path d="M57.0974 192.477C58.1107 195.059 59.224 197.832 60.2182 200.335" stroke="#FFDB45" stroke-width="3.00533" stroke-linecap="round"/>
<path d="M59.8969 185.126L57.8665 189.832" stroke="#FFDB45" stroke-width="3.00533" stroke-linecap="round"/>
<path d="M58.5272 194.768C57.7479 203.848 58.1933 213.594 59.9388 222.54" stroke="#FFDB45" stroke-width="3.00533" stroke-linecap="round"/>
<path d="M61.2644 194.461C66.9082 196.953 73.9271 197.48 79.8709 198.769" stroke="#FFDB45" stroke-width="3.00533" stroke-linecap="round"/>
<path d="M77.6256 199.66C78.4304 202.753 80.2643 206.819 79.9772 210.163" stroke="#FFDB45" stroke-width="3.00533" stroke-linecap="round"/>
<path d="M47.9016 192.229C45.197 192.469 42.4537 192.846 39.736 192.613" stroke="#FFDB45" stroke-width="3.00533" stroke-linecap="round"/>
<path d="M36.1393 177.665C27.7029 177.648 18.7928 176.991 10.3637 177.923C8.20293 178.162 7.59447 178.876 6.32507 180.408C5.25502 181.699 4.41649 183.319 3.31912 184.547C3.19068 184.691 9.90903 186.757 10.2918 186.833C13.4292 187.454 18.5834 187.286 21.3293 189.135C22.47 189.904 24.5344 189.816 25.6384 189.114C29.1444 186.885 31.5891 183.775 34.2005 180.601C34.9606 179.678 37.5672 177.672 36.3733 177.746C34.3371 177.871 31.416 179.942 29.6068 180.779C28.2735 181.397 26.7413 181.979 25.5691 182.903C25.3355 183.087 25.1683 183.665 24.9146 183.509C24.5674 183.297 27.2621 179.377 27.2244 178.707C27.2132 178.509 16.4492 183.599 15.0489 184.048C14.1479 184.337 14.602 182.595 14.3486 182.03C13.8743 180.972 14.3537 180.23 13.3408 179.383C12.8132 178.942 11.7232 180.512 11.6288 179.327C11.5578 178.437 12.085 177.526 12.3655 176.709" stroke="#4694FF" stroke-width="3.00533" stroke-linecap="round"/>
<path d="M4.62939 184.72C4.08522 193.939 4.11961 203.294 3.33194 212.471C3.1967 214.046 2.36919 217.126 3.34405 218.647C4.46168 220.39 9.73985 219.858 11.6299 220.02C15.3077 220.336 18.9855 220.652 22.6633 220.967" stroke="#4694FF" stroke-width="3.00533" stroke-linecap="round"/>
<path d="M28.1261 188.906C27.7308 196.743 27.856 204.635 25.9996 212.278C25.4908 214.373 25.2306 216.324 25.0472 218.461" stroke="#4694FF" stroke-width="3.00533" stroke-linecap="round"/>
<path d="M12.9177 189.227C11.8733 190.422 9.11519 197.13 12.4419 196.174C15.4541 195.309 18.3533 193.073 21.3238 192.358C21.614 192.288 21.1923 192.951 21.0401 193.207C19.9264 195.085 18.4979 196.799 17.2361 198.574C15.7232 200.701 14.3185 202.871 12.9706 205.105C12.7885 205.407 10.1423 209.659 10.6916 209.548C14.5965 208.76 18.8229 205.873 22.3015 204.129C23.4253 203.565 28.1473 200.467 29.9617 200.509C30.8924 200.531 28.9976 202.106 28.4356 202.848C27.3886 204.231 26.4126 205.669 25.3075 207.007C23.057 209.733 17.3556 213.324 17.0203 217.23" stroke="#4694FF" stroke-width="3.00533" stroke-linecap="round"/>
<path d="M37.6615 178.88L38.3061 190.322" stroke="#4694FF" stroke-width="3.00533" stroke-linecap="round"/>
<path d="M37.2457 183.724C36.9366 183.698 35.8651 187.346 35.846 187.399" stroke="#4694FF" stroke-width="3.00533" stroke-linecap="round"/>
<path d="M84.3452 203.49C92.5827 204.21 108.984 205.614 117.943 206.494C121.232 206.817 124.596 206.858 127.775 207.76C127.955 207.811 127.813 208.716 127.802 208.846C127.696 210.078 127.635 210.853 126.424 211.56C122.941 213.593 118.241 214.762 114.288 215.397C110.25 216.046 106.147 216.437 102.067 216.698C99.9542 216.833 96.1184 217.603 94.4384 215.742C93.326 214.51 92.3049 213.463 91.5094 211.966C91.0478 211.098 90.7679 210.126 90.3897 209.22C90.153 208.652 90.4593 207.388 89.8483 207.456C89.6957 207.473 86.6446 210.389 88.16 208.878C89.0909 207.95 98.4629 201.741 98.5151 201.935C99.0146 203.789 97.6335 206.591 97.4695 208.502C97.3192 210.254 103.157 204.972 102.367 206.543C101.089 209.081 95.433 215.55 97.2058 213.329C98.3142 211.94 107.133 207.772 105.232 210.705C103.708 213.057 97.6569 218.906 99.858 217.171C101.515 215.865 103.224 214.726 105.041 213.64C106.249 212.918 107.518 212.225 108.72 211.486C109.051 211.282 109.766 210.523 109.733 210.91C109.612 212.319 106.703 215.668 107.61 214.583C108.647 213.344 110.413 211.853 111.87 211.274" stroke="#AC94EA" stroke-width="3.00533" stroke-linecap="round"/>
<path d="M87.7892 207.581C87.5692 210.144 85.0241 218.068 88.3414 220.098" stroke="#AC94EA" stroke-width="3.00533" stroke-linecap="round"/>
<path d="M96.6456 218.1C96.2501 220.689 96.5096 225.58 94.8471 227.826C94.1916 228.711 94.6262 232.183 94.4153 231.102C93.7852 227.872 91.4531 224.491 90.2823 221.35C89.6349 219.612 89.3234 217.249 89.8584 215.409C90.5078 213.176 90.776 221.392 93.093 221.591" stroke="#AC94EA" stroke-width="3.00533" stroke-linecap="round"/>
<path d="M97.2441 230.08C105.052 227.232 113.781 227.43 121.572 224.577C121.954 224.438 122.994 224.184 123.256 223.909C123.684 223.458 124.408 223.38 124.95 223.12C125.721 222.752 126.056 221.366 126.514 220.694C127.718 218.926 128.662 216.821 128.363 214.588C128.002 211.885 122.752 223.47 122.985 220.753C123.128 219.088 123.456 217.338 123.391 215.667C123.355 214.726 122.114 216.351 122.096 216.369C119.996 218.496 117.93 220.613 115.661 222.564C115.327 222.851 111.224 226.729 111.209 225.646C111.204 225.247 111.735 220.721 111.483 220.699C109.018 220.488 104.68 224.958 102.931 226.291C100.216 228.359 100.674 226.778 101.754 224.563C102.65 222.725 104.577 220.149 101.953 222.592C101.267 223.231 100.352 223.614 99.9051 224.344" stroke="#AC94EA" stroke-width="3.00533" stroke-linecap="round"/>
<path d="M16.4863 179.232C10.1645 172.027 10.1576 179.465 14.5436 179.758C17.1333 179.931 17.5929 179.415 19.0768 177.828C20.1049 176.728 22.1086 176.663 23.392 177.385C25.8901 178.789 22.2985 182.495 19.9597 181.578C18.0214 180.818 17.5876 180.407 15.4387 181.612C14.27 182.267 7.44777 186.517 12.2569 184.291" stroke="#AC94EA" stroke-width="3.00533" stroke-linecap="round"/>
<path d="M18.4545 181.569L20.8684 185.03" stroke="#AC94EA" stroke-width="3.00533" stroke-linecap="round"/>
<path d="M18.3619 182.646C12.8201 187.703 13.8176 197.69 13.2155 204.705C13.0961 206.096 12.1549 218.642 12.5758 218.475" stroke="#AC94EA" stroke-width="3.00533" stroke-linecap="round"/>
<path d="M22.8525 180.863C23.746 181.109 31.8806 182.365 31.8071 183.92C31.7403 185.335 31.5637 186.756 31.4427 188.166C31.2288 190.658 31.015 193.15 30.8011 195.641" stroke="#AC94EA" stroke-width="3.00533" stroke-linecap="round"/>
<path d="M102.272 204.486V204.486C104.048 205.856 106.915 204.802 106.426 202.613C106.408 202.532 106.389 202.45 106.369 202.368C106.045 201.02 103.972 196.607 103.638 200.507C103.443 202.77 105.301 207.957 107.855 208.219C109.143 208.351 112.447 208.89 112.975 207.182C113.251 206.289 113.612 202.889 112.645 202.244C109.25 199.978 106.555 204.143 105.287 206.553C104.231 208.561 100.529 210.132 98.927 207.663C98.3697 206.804 98.645 203.509 99.5742 202.93C100.022 202.65 101.879 204.183 102.272 204.486Z" stroke="#FA6E55" stroke-width="3.00533" stroke-linecap="round"/>
<path d="M104.612 207.398C100.772 210.632 104.811 214.159 108.822 212.398C111.723 211.124 108.742 208.837 107.211 208.706" stroke="#FA6E55" stroke-width="3.00533" stroke-linecap="round"/>
<path d="M102.183 210.443C98.2576 211.362 95.3478 211 93.668 214.893C92.8563 216.774 92.1878 219.505 92.0167 221.498" stroke="#FA6E55" stroke-width="3.00533" stroke-linecap="round"/>
<path d="M109.579 212.704C112.798 216.854 108.311 222.219 110.577 226.344" stroke="#FA6E55" stroke-width="3.00533" stroke-linecap="round"/>
<path d="M113.808 207.645C115.988 206.617 118.317 205.846 120.052 204.386" stroke="#FA6E55" stroke-width="3.00533" stroke-linecap="round"/>
<path d="M74.2784 156.541C72.3655 157.248 58.5275 163.644 59.2372 164.738C60.3591 166.468 62.0759 166.337 63.9956 166.502C68.3187 166.873 73.1768 167.032 77.0864 164.884C78.1948 164.276 78.2249 162.348 78.1821 161.244C78.0842 158.718 70.1806 158.968 68.6029 158.795C65.9783 158.507 62.4182 157.646 59.7984 158.551C58.3579 159.049 58.36 165.132 58.2486 166.43C57.7361 172.401 67.4085 172.099 71.6693 171.498C74.5019 171.098 77.5475 169.532 77.1153 166.303C76.9493 165.062 76.9664 163.972 76.9995 162.738C77.034 161.457 64.9135 161.124 63.411 161.03C60.073 160.822 58.5011 164.929 57.7119 167.77C57.2693 169.363 60.5931 170.122 61.6825 170.641" stroke="#2C2C2C" stroke-width="3.00533" stroke-linecap="round"/>
<path d="M56.9468 162.644C45.0885 161.503 32.7318 159.538 20.7618 159.598C19.153 159.606 23.8151 160.683 25.4091 160.901C28.6603 161.345 31.9381 161.582 35.2063 161.862C39.6839 162.246 44.1135 163.169 48.6154 163.555C51.3918 163.793 54.0633 164.432 56.8218 164.802C58.1291 164.977 54.1849 164.946 52.8783 165.126C48.0681 165.788 43.1509 167.022 38.3009 167.218C33.8558 167.398 29.2756 167.138 24.8335 166.906C24.071 166.866 21.8075 167.101 21.1489 166.318C20.6692 165.749 20.5392 162.853 21.1749 162.857C29.8453 162.907 38.6671 164.328 47.3107 165.07C50.4622 165.34 54.2696 165.002 57.1617 166.457" stroke="#2C2C2C" stroke-width="3.00533" stroke-linecap="round"/>
<path d="M79.6904 162.969C91.7611 163.196 104.046 162.752 116.101 163.384C117.378 163.45 117.677 163.352 116.17 163.992C108.894 167.079 101.89 169.358 94.0354 169.201C90.5494 169.131 87.0007 169.213 83.5342 168.721C83.0849 168.657 82.8852 168.21 82.5142 167.971C79.9005 166.286 88.7384 167.893 91.8425 168.079C98.3059 168.465 104.76 168.916 111.211 169.47C114.059 169.714 105.58 170.458 102.749 170.852C97.9596 171.519 93.5808 171.752 88.7914 171.341C87.9816 171.271 83.3856 170.956 84.9666 170.983C97.3696 171.19 109.97 170.448 122.332 171.509" stroke="#2C2C2C" stroke-width="3.00533" stroke-linecap="round"/>
<path d="M65.1124 162.26C63.729 163.292 59.4443 165.85 61.1514 165.595C62.836 165.344 64.8487 163.568 66.2776 162.722C70.7763 160.058 64.5138 165.354 65.7135 165.083C66.7159 164.856 74.4258 160.933 72.5909 163.565C71.5423 165.069 73.7292 163.668 74.1234 164.66" stroke="#FFDB45" stroke-width="3.00533" stroke-linecap="round"/>
<path d="M42.0006 20.9369C43.1647 21.6228 46.2878 24.1534 47.9574 23.8277C48.8779 23.6481 49.5061 21.1097 49.88 20.3782C50.3944 19.3717 51.0106 18.4284 51.5197 17.4165" stroke="#2C2C2C" stroke-width="3.00533" stroke-linecap="round"/>
<path d="M48.3206 23.1058C46.5826 16.4596 44.5908 9.79553 42.9868 3.12964" stroke="#2C2C2C" stroke-width="3.00533" stroke-linecap="round"/>
</svg>
